<svg width="612" height="268" viewBox="0 0 612 268" fill="none" xmlns="http://www.w3.org/2000/svg">
<line x1="516" y1="77" x2="516" y2="116" stroke="#34D298" stroke-width="2"/>
<path d="M240.609 218.992V218.477C240.609 217.129 240.971 216.096 241.693 215.377C242.416 214.654 243.344 214.293 244.477 214.293C245.582 214.293 246.445 214.576 247.066 215.143C247.691 215.705 248.018 216.42 248.045 217.287V217.404H246.281L246.275 217.27C246.264 216.781 246.109 216.387 245.812 216.086C245.52 215.781 245.07 215.629 244.465 215.629C243.852 215.629 243.354 215.852 242.971 216.297C242.592 216.738 242.402 217.422 242.402 218.348V219.121C242.402 220.004 242.59 220.678 242.965 221.143C243.344 221.607 243.85 221.84 244.482 221.84C245.068 221.84 245.506 221.684 245.795 221.371C246.088 221.055 246.248 220.662 246.275 220.193L246.281 220.07H248.045L248.039 220.193C247.992 221.049 247.662 221.76 247.049 222.326C246.436 222.893 245.578 223.176 244.477 223.176C243.34 223.176 242.41 222.814 241.688 222.092C240.969 221.365 240.609 220.332 240.609 218.992ZM248.877 219.953V219.766C248.877 218.793 249.176 218.014 249.773 217.428C250.371 216.842 251.154 216.549 252.123 216.549C253.096 216.549 253.881 216.842 254.479 217.428C255.076 218.014 255.375 218.793 255.375 219.766V219.953C255.375 220.926 255.076 221.707 254.479 222.297C253.881 222.883 253.096 223.176 252.123 223.176C251.154 223.176 250.371 222.883 249.773 222.297C249.176 221.707 248.877 220.926 248.877 219.953ZM250.605 219.701V220.018C250.605 220.604 250.736 221.064 250.998 221.4C251.26 221.736 251.635 221.904 252.123 221.904C252.615 221.904 252.99 221.736 253.248 221.4C253.51 221.064 253.641 220.604 253.641 220.018V219.701C253.641 219.119 253.508 218.66 253.242 218.324C252.98 217.988 252.607 217.82 252.123 217.82C251.639 217.82 251.264 217.988 250.998 218.324C250.736 218.66 250.605 219.119 250.605 219.701ZM256.629 223V216.725H258.223L258.264 217.463H258.299C258.494 217.186 258.75 216.975 259.066 216.83C259.383 216.682 259.725 216.607 260.092 216.607C260.537 216.607 260.922 216.699 261.246 216.883C261.57 217.062 261.811 217.33 261.967 217.686H261.99C262.217 217.326 262.514 217.057 262.881 216.877C263.248 216.697 263.641 216.607 264.059 216.607C264.707 216.607 265.227 216.805 265.617 217.199C266.012 217.59 266.209 218.246 266.209 219.168V223H264.516V219.092C264.516 218.678 264.43 218.375 264.258 218.184C264.09 217.992 263.842 217.895 263.514 217.891C263.232 217.891 262.984 217.971 262.77 218.131C262.559 218.291 262.391 218.508 262.266 218.781V223H260.566V219.104C260.566 218.682 260.48 218.375 260.309 218.184C260.137 217.988 259.887 217.891 259.559 217.891C259.273 217.891 259.025 217.971 258.814 218.131C258.607 218.287 258.441 218.504 258.316 218.781V223H256.629ZM267.75 225.438V216.725H269.332L269.373 217.451H269.402C269.539 217.209 269.771 217.008 270.1 216.848C270.428 216.688 270.797 216.607 271.207 216.607C272.027 216.607 272.688 216.898 273.188 217.48C273.691 218.059 273.943 218.82 273.943 219.766V219.953C273.943 220.898 273.695 221.662 273.199 222.244C272.703 222.826 272.051 223.117 271.242 223.117C270.836 223.117 270.473 223.051 270.152 222.918C269.836 222.781 269.598 222.594 269.438 222.355V225.438H267.75ZM269.438 220.938C269.539 221.18 269.709 221.393 269.947 221.576C270.189 221.76 270.477 221.852 270.809 221.852C271.285 221.852 271.637 221.686 271.863 221.354C272.094 221.021 272.209 220.576 272.209 220.018V219.701C272.209 219.146 272.094 218.703 271.863 218.371C271.637 218.039 271.283 217.873 270.803 217.873C270.463 217.873 270.176 217.963 269.941 218.143C269.711 218.322 269.543 218.531 269.438 218.77V220.938ZM274.869 221.154C274.869 220.471 275.145 219.953 275.695 219.602C276.246 219.246 276.939 219.066 277.775 219.062H279.023V218.67C279.023 218.381 278.943 218.148 278.783 217.973C278.627 217.793 278.354 217.703 277.963 217.703C277.572 217.703 277.293 217.781 277.125 217.938C276.961 218.09 276.879 218.273 276.879 218.488V218.559H275.203V218.488C275.203 217.941 275.461 217.482 275.977 217.111C276.496 216.736 277.178 216.549 278.021 216.549C278.865 216.549 279.525 216.725 280.002 217.076C280.479 217.424 280.717 217.957 280.717 218.676V221.605C280.717 221.859 280.738 222.1 280.781 222.326C280.824 222.549 280.883 222.742 280.957 222.906V223H279.299C279.252 222.906 279.209 222.785 279.17 222.637C279.131 222.484 279.104 222.336 279.088 222.191C278.963 222.434 278.727 222.648 278.379 222.836C278.035 223.023 277.605 223.117 277.09 223.117C276.469 223.117 275.943 222.953 275.514 222.625C275.084 222.293 274.869 221.803 274.869 221.154ZM276.562 221.031C276.562 221.316 276.646 221.543 276.814 221.711C276.982 221.879 277.246 221.963 277.605 221.963C277.992 221.963 278.324 221.842 278.602 221.6C278.883 221.354 279.023 221.072 279.023 220.756V220.094H277.975C277.502 220.094 277.148 220.178 276.914 220.346C276.68 220.51 276.562 220.738 276.562 221.031ZM282.352 223V216.725H283.951L283.992 217.428H284.021C284.154 217.193 284.334 216.99 284.561 216.818C284.791 216.643 285.055 216.555 285.352 216.555C285.434 216.555 285.518 216.564 285.604 216.584C285.689 216.604 285.75 216.621 285.785 216.637V218.09C285.715 218.074 285.639 218.062 285.557 218.055C285.479 218.043 285.393 218.037 285.299 218.037C285.006 218.037 284.748 218.121 284.525 218.289C284.307 218.453 284.146 218.658 284.045 218.904V223H282.352ZM286.225 221.154C286.225 220.471 286.5 219.953 287.051 219.602C287.602 219.246 288.295 219.066 289.131 219.062H290.379V218.67C290.379 218.381 290.299 218.148 290.139 217.973C289.982 217.793 289.709 217.703 289.318 217.703C288.928 217.703 288.648 217.781 288.48 217.938C288.316 218.09 288.234 218.273 288.234 218.488V218.559H286.559V218.488C286.559 217.941 286.816 217.482 287.332 217.111C287.852 216.736 288.533 216.549 289.377 216.549C290.221 216.549 290.881 216.725 291.357 217.076C291.834 217.424 292.072 217.957 292.072 218.676V221.605C292.072 221.859 292.094 222.1 292.137 222.326C292.18 222.549 292.238 222.742 292.312 222.906V223H290.654C290.607 222.906 290.564 222.785 290.525 222.637C290.486 222.484 290.459 222.336 290.443 222.191C290.318 222.434 290.082 222.648 289.734 222.836C289.391 223.023 288.961 223.117 288.445 223.117C287.824 223.117 287.299 222.953 286.869 222.625C286.439 222.293 286.225 221.803 286.225 221.154ZM287.918 221.031C287.918 221.316 288.002 221.543 288.17 221.711C288.338 221.879 288.602 221.963 288.961 221.963C289.348 221.963 289.68 221.842 289.957 221.6C290.238 221.354 290.379 221.072 290.379 220.756V220.094H289.33C288.857 220.094 288.504 220.178 288.27 220.346C288.035 220.51 287.918 220.738 287.918 221.031ZM293.361 219.953V219.766C293.361 218.793 293.65 218.014 294.229 217.428C294.811 216.842 295.59 216.549 296.566 216.549C297.488 216.549 298.189 216.777 298.67 217.234C299.154 217.688 299.408 218.217 299.432 218.822L299.438 218.904H297.779V218.846C297.779 218.553 297.678 218.305 297.475 218.102C297.275 217.895 296.969 217.791 296.555 217.791C296.066 217.791 295.699 217.969 295.453 218.324C295.211 218.676 295.09 219.135 295.09 219.701V220.018C295.09 220.584 295.209 221.045 295.447 221.4C295.686 221.756 296.053 221.934 296.549 221.934C296.99 221.934 297.305 221.828 297.492 221.617C297.684 221.402 297.779 221.154 297.779 220.873V220.82H299.432V220.879C299.432 221.484 299.184 222.02 298.688 222.484C298.195 222.945 297.488 223.176 296.566 223.176C295.59 223.176 294.811 222.883 294.229 222.297C293.65 221.711 293.361 220.93 293.361 219.953ZM296.057 222.842H296.982L296.812 223.428C297.109 223.471 297.385 223.57 297.639 223.727C297.893 223.883 298.02 224.141 298.02 224.5C298.02 224.887 297.824 225.201 297.434 225.443C297.043 225.686 296.393 225.805 295.482 225.801L295.43 225.068C295.934 225.068 296.27 225.023 296.438 224.934C296.605 224.848 296.689 224.707 296.689 224.512C296.689 224.328 296.623 224.203 296.49 224.137C296.361 224.07 296.129 224.023 295.793 223.996L296.057 222.842ZM300.24 221.154C300.24 220.471 300.516 219.953 301.066 219.602C301.617 219.246 302.311 219.066 303.146 219.062H304.395V218.67C304.395 218.381 304.314 218.148 304.154 217.973C303.998 217.793 303.725 217.703 303.334 217.703C302.943 217.703 302.664 217.781 302.496 217.938C302.332 218.09 302.25 218.273 302.25 218.488V218.559H300.574V218.488C300.574 217.941 300.832 217.482 301.348 217.111C301.867 216.736 302.549 216.549 303.393 216.549C304.236 216.549 304.896 216.725 305.373 217.076C305.85 217.424 306.088 217.957 306.088 218.676V221.605C306.088 221.859 306.109 222.1 306.152 222.326C306.195 222.549 306.254 222.742 306.328 222.906V223H304.67C304.623 222.906 304.58 222.785 304.541 222.637C304.502 222.484 304.475 222.336 304.459 222.191C304.334 222.434 304.098 222.648 303.75 222.836C303.406 223.023 302.977 223.117 302.461 223.117C301.84 223.117 301.314 222.953 300.885 222.625C300.455 222.293 300.24 221.803 300.24 221.154ZM301.934 221.031C301.934 221.316 302.018 221.543 302.186 221.711C302.354 221.879 302.617 221.963 302.977 221.963C303.363 221.963 303.695 221.842 303.973 221.6C304.254 221.354 304.395 221.072 304.395 220.756V220.094H303.346C302.873 220.094 302.52 220.178 302.285 220.346C302.051 220.51 301.934 220.738 301.934 221.031ZM301.096 214.984C301.236 214.684 301.453 214.418 301.746 214.188C302.039 213.953 302.328 213.836 302.613 213.836C302.789 213.836 302.955 213.861 303.111 213.912C303.271 213.963 303.432 214.041 303.592 214.146C303.736 214.236 303.891 214.328 304.055 214.422C304.223 214.516 304.389 214.562 304.553 214.562C304.725 214.562 304.885 214.506 305.033 214.393C305.182 214.279 305.305 214.146 305.402 213.994L305.924 214.721C305.764 215.057 305.541 215.311 305.256 215.482C304.975 215.65 304.711 215.734 304.465 215.734C304.258 215.734 304.053 215.689 303.85 215.6C303.65 215.506 303.484 215.422 303.352 215.348C303.207 215.27 303.062 215.193 302.918 215.119C302.773 215.045 302.639 215.008 302.514 215.008C302.314 215.008 302.129 215.086 301.957 215.242C301.785 215.395 301.66 215.529 301.582 215.646L301.096 214.984ZM307.377 219.953V219.766C307.377 218.793 307.676 218.014 308.273 217.428C308.871 216.842 309.654 216.549 310.623 216.549C311.596 216.549 312.381 216.842 312.979 217.428C313.576 218.014 313.875 218.793 313.875 219.766V219.953C313.875 220.926 313.576 221.707 312.979 222.297C312.381 222.883 311.596 223.176 310.623 223.176C309.654 223.176 308.871 222.883 308.273 222.297C307.676 221.707 307.377 220.926 307.377 219.953ZM309.105 219.701V220.018C309.105 220.604 309.236 221.064 309.498 221.4C309.76 221.736 310.135 221.904 310.623 221.904C311.115 221.904 311.49 221.736 311.748 221.4C312.01 221.064 312.141 220.604 312.141 220.018V219.701C312.141 219.119 312.008 218.66 311.742 218.324C311.48 217.988 311.107 217.82 310.623 217.82C310.139 217.82 309.764 217.988 309.498 218.324C309.236 218.66 309.105 219.119 309.105 219.701ZM318.059 223V214.018H319.746V217.381C319.938 217.139 320.186 216.949 320.49 216.812C320.795 216.676 321.15 216.607 321.557 216.607C322.381 216.607 323.035 216.902 323.52 217.492C324.008 218.078 324.252 218.836 324.252 219.766V219.953C324.252 220.887 324.008 221.648 323.52 222.238C323.031 222.824 322.375 223.117 321.551 223.117C321.145 223.117 320.773 223.039 320.438 222.883C320.102 222.723 319.863 222.521 319.723 222.279H319.693L319.652 223H318.059ZM319.746 220.914C319.848 221.16 320.014 221.379 320.244 221.57C320.475 221.758 320.766 221.852 321.117 221.852C321.594 221.852 321.945 221.68 322.172 221.336C322.402 220.988 322.518 220.547 322.518 220.012V219.713C322.518 219.178 322.404 218.738 322.178 218.395C321.951 218.051 321.594 217.879 321.105 217.879C320.766 217.879 320.479 217.973 320.244 218.16C320.014 218.348 319.848 218.562 319.746 218.805V220.914ZM325.154 219.953V219.766C325.154 218.805 325.445 218.029 326.027 217.439C326.609 216.846 327.359 216.549 328.277 216.549C329.203 216.549 329.926 216.826 330.445 217.381C330.969 217.936 331.23 218.697 331.23 219.666V220.275H326.314V219.191H329.549V219.086C329.545 218.734 329.438 218.426 329.227 218.16C329.016 217.895 328.695 217.762 328.266 217.762C327.805 217.762 327.451 217.941 327.205 218.301C326.959 218.656 326.836 219.125 326.836 219.707V220.012C326.836 220.586 326.967 221.053 327.229 221.412C327.494 221.768 327.889 221.945 328.412 221.945C328.76 221.945 329.062 221.861 329.32 221.693C329.578 221.525 329.787 221.332 329.947 221.113L331.107 221.91C330.908 222.262 330.572 222.561 330.1 222.807C329.631 223.053 329.074 223.176 328.43 223.176C327.398 223.176 326.594 222.881 326.016 222.291C325.441 221.697 325.154 220.918 325.154 219.953ZM332.391 223V216.725H333.984L334.025 217.463H334.061C334.256 217.186 334.512 216.975 334.828 216.83C335.145 216.682 335.486 216.607 335.854 216.607C336.299 216.607 336.684 216.699 337.008 216.883C337.332 217.062 337.572 217.33 337.729 217.686H337.752C337.979 217.326 338.275 217.057 338.643 216.877C339.01 216.697 339.402 216.607 339.82 216.607C340.469 216.607 340.988 216.805 341.379 217.199C341.773 217.59 341.971 218.246 341.971 219.168V223H340.277V219.092C340.277 218.678 340.191 218.375 340.02 218.184C339.852 217.992 339.604 217.895 339.275 217.891C338.994 217.891 338.746 217.971 338.531 218.131C338.32 218.291 338.152 218.508 338.027 218.781V223H336.328V219.104C336.328 218.682 336.242 218.375 336.07 218.184C335.898 217.988 335.648 217.891 335.32 217.891C335.035 217.891 334.787 217.971 334.576 218.131C334.369 218.287 334.203 218.504 334.078 218.781V223H332.391ZM346.049 221.043H347.719V221.131C347.719 221.436 347.826 221.66 348.041 221.805C348.256 221.949 348.545 222.021 348.908 222.021C349.283 222.021 349.564 221.955 349.752 221.822C349.943 221.686 350.039 221.502 350.039 221.271C350.039 221.041 349.947 220.871 349.764 220.762C349.58 220.648 349.127 220.521 348.404 220.381C347.654 220.236 347.104 220.008 346.752 219.695C346.4 219.379 346.225 218.969 346.225 218.465C346.225 217.887 346.465 217.422 346.945 217.07C347.426 216.719 348.076 216.543 348.896 216.543C349.713 216.543 350.365 216.725 350.854 217.088C351.346 217.451 351.592 217.938 351.592 218.547V218.617H349.928V218.535C349.928 218.277 349.842 218.074 349.67 217.926C349.502 217.777 349.242 217.703 348.891 217.703C348.539 217.703 348.283 217.764 348.123 217.885C347.967 218.006 347.889 218.162 347.889 218.354C347.889 218.549 347.98 218.705 348.164 218.822C348.348 218.939 348.811 219.068 349.553 219.209C350.299 219.354 350.846 219.58 351.193 219.889C351.545 220.197 351.721 220.619 351.721 221.154C351.721 221.771 351.482 222.264 351.006 222.631C350.533 222.994 349.836 223.176 348.914 223.176C347.996 223.176 347.289 222.994 346.793 222.631C346.297 222.264 346.049 221.756 346.049 221.107V221.043ZM352.898 220.562V216.725H354.586V220.604C354.586 221.057 354.68 221.375 354.867 221.559C355.055 221.742 355.312 221.834 355.641 221.834C355.93 221.834 356.188 221.752 356.414 221.588C356.641 221.42 356.814 221.209 356.936 220.955V216.725H358.623V223H357.029L356.982 222.273H356.953C356.758 222.539 356.496 222.746 356.168 222.895C355.84 223.043 355.479 223.117 355.084 223.117C354.436 223.117 353.908 222.922 353.502 222.531C353.1 222.137 352.898 221.48 352.898 220.562ZM359.877 219.953V219.766C359.877 218.793 360.166 218.014 360.744 217.428C361.326 216.842 362.105 216.549 363.082 216.549C364.004 216.549 364.705 216.777 365.186 217.234C365.67 217.688 365.924 218.217 365.947 218.822L365.953 218.904H364.295V218.846C364.295 218.553 364.193 218.305 363.99 218.102C363.791 217.895 363.484 217.791 363.07 217.791C362.582 217.791 362.215 217.969 361.969 218.324C361.727 218.676 361.605 219.135 361.605 219.701V220.018C361.605 220.584 361.725 221.045 361.963 221.4C362.201 221.756 362.568 221.934 363.064 221.934C363.506 221.934 363.82 221.828 364.008 221.617C364.199 221.402 364.295 221.154 364.295 220.873V220.82H365.947V220.879C365.947 221.484 365.699 222.02 365.203 222.484C364.711 222.945 364.004 223.176 363.082 223.176C362.105 223.176 361.326 222.883 360.744 222.297C360.166 221.711 359.877 220.93 359.877 219.953ZM366.732 219.953V219.766C366.732 218.805 367.023 218.029 367.605 217.439C368.188 216.846 368.938 216.549 369.855 216.549C370.781 216.549 371.504 216.826 372.023 217.381C372.547 217.936 372.809 218.697 372.809 219.666V220.275H367.893V219.191H371.127V219.086C371.123 218.734 371.016 218.426 370.805 218.16C370.594 217.895 370.273 217.762 369.844 217.762C369.383 217.762 369.029 217.941 368.783 218.301C368.537 218.656 368.414 219.125 368.414 219.707V220.012C368.414 220.586 368.545 221.053 368.807 221.412C369.072 221.768 369.467 221.945 369.99 221.945C370.338 221.945 370.641 221.861 370.898 221.693C371.156 221.525 371.365 221.332 371.525 221.113L372.686 221.91C372.486 222.262 372.15 222.561 371.678 222.807C371.209 223.053 370.652 223.176 370.008 223.176C368.977 223.176 368.172 222.881 367.594 222.291C367.02 221.697 366.732 220.918 366.732 219.953ZM373.623 219.959V219.771C373.623 218.842 373.877 218.082 374.385 217.492C374.893 216.902 375.559 216.607 376.383 216.607C376.789 216.607 377.141 216.678 377.438 216.818C377.734 216.959 377.965 217.146 378.129 217.381V214.018H379.816V223H378.217L378.176 222.268H378.146C378.01 222.51 377.783 222.713 377.467 222.877C377.154 223.037 376.793 223.117 376.383 223.117C375.531 223.117 374.857 222.822 374.361 222.232C373.869 221.643 373.623 220.885 373.623 219.959ZM375.352 220.012C375.352 220.551 375.471 220.992 375.709 221.336C375.947 221.68 376.307 221.852 376.787 221.852C377.115 221.852 377.393 221.764 377.619 221.588C377.85 221.408 378.018 221.197 378.123 220.955V218.77C378.021 218.527 377.857 218.318 377.631 218.143C377.408 217.963 377.127 217.873 376.787 217.873C376.311 217.873 375.951 218.047 375.709 218.395C375.471 218.738 375.352 219.178 375.352 219.713V220.012ZM381.439 223V216.725H383.133V223H381.439ZM381.293 215.014C381.293 214.76 381.379 214.547 381.551 214.375C381.723 214.203 381.967 214.117 382.283 214.117C382.604 214.117 382.848 214.203 383.016 214.375C383.188 214.547 383.273 214.76 383.273 215.014C383.273 215.271 383.188 215.486 383.016 215.658C382.848 215.83 382.604 215.916 382.283 215.916C381.967 215.916 381.723 215.83 381.551 215.658C381.379 215.486 381.293 215.271 381.293 215.014ZM384.404 219.959V219.771C384.404 218.842 384.658 218.082 385.166 217.492C385.674 216.902 386.34 216.607 387.164 216.607C387.57 216.607 387.922 216.678 388.219 216.818C388.516 216.959 388.746 217.146 388.91 217.381V214.018H390.598V223H388.998L388.957 222.268H388.928C388.791 222.51 388.564 222.713 388.248 222.877C387.936 223.037 387.574 223.117 387.164 223.117C386.312 223.117 385.639 222.822 385.143 222.232C384.65 221.643 384.404 220.885 384.404 219.959ZM386.133 220.012C386.133 220.551 386.252 220.992 386.49 221.336C386.729 221.68 387.088 221.852 387.568 221.852C387.896 221.852 388.174 221.764 388.4 221.588C388.631 221.408 388.799 221.197 388.904 220.955V218.77C388.803 218.527 388.639 218.318 388.412 218.143C388.189 217.963 387.908 217.873 387.568 217.873C387.092 217.873 386.732 218.047 386.49 218.395C386.252 218.738 386.133 219.178 386.133 219.713V220.012ZM391.869 221.154C391.869 220.471 392.145 219.953 392.695 219.602C393.246 219.246 393.939 219.066 394.775 219.062H396.023V218.67C396.023 218.381 395.943 218.148 395.783 217.973C395.627 217.793 395.354 217.703 394.963 217.703C394.572 217.703 394.293 217.781 394.125 217.938C393.961 218.09 393.879 218.273 393.879 218.488V218.559H392.203V218.488C392.203 217.941 392.461 217.482 392.977 217.111C393.496 216.736 394.178 216.549 395.021 216.549C395.865 216.549 396.525 216.725 397.002 217.076C397.479 217.424 397.717 217.957 397.717 218.676V221.605C397.717 221.859 397.738 222.1 397.781 222.326C397.824 222.549 397.883 222.742 397.957 222.906V223H396.299C396.252 222.906 396.209 222.785 396.17 222.637C396.131 222.484 396.104 222.336 396.088 222.191C395.963 222.434 395.727 222.648 395.379 222.836C395.035 223.023 394.605 223.117 394.09 223.117C393.469 223.117 392.943 222.953 392.514 222.625C392.084 222.293 391.869 221.803 391.869 221.154ZM393.562 221.031C393.562 221.316 393.646 221.543 393.814 221.711C393.982 221.879 394.246 221.963 394.605 221.963C394.992 221.963 395.324 221.842 395.602 221.6C395.883 221.354 396.023 221.072 396.023 220.756V220.094H394.975C394.502 220.094 394.148 220.178 393.914 220.346C393.68 220.51 393.562 220.738 393.562 221.031Z" fill="#34D298"/>
<path d="M240.609 243.992V243.477C240.609 242.129 240.971 241.096 241.693 240.377C242.416 239.654 243.344 239.293 244.477 239.293C245.582 239.293 246.445 239.576 247.066 240.143C247.691 240.705 248.018 241.42 248.045 242.287V242.404H246.281L246.275 242.27C246.264 241.781 246.109 241.387 245.812 241.086C245.52 240.781 245.07 240.629 244.465 240.629C243.852 240.629 243.354 240.852 242.971 241.297C242.592 241.738 242.402 242.422 242.402 243.348V244.121C242.402 245.004 242.59 245.678 242.965 246.143C243.344 246.607 243.85 246.84 244.482 246.84C245.068 246.84 245.506 246.684 245.795 246.371C246.088 246.055 246.248 245.662 246.275 245.193L246.281 245.07H248.045L248.039 245.193C247.992 246.049 247.662 246.76 247.049 247.326C246.436 247.893 245.578 248.176 244.477 248.176C243.34 248.176 242.41 247.814 241.688 247.092C240.969 246.365 240.609 245.332 240.609 243.992ZM248.877 244.953V244.766C248.877 243.793 249.176 243.014 249.773 242.428C250.371 241.842 251.154 241.549 252.123 241.549C253.096 241.549 253.881 241.842 254.479 242.428C255.076 243.014 255.375 243.793 255.375 244.766V244.953C255.375 245.926 255.076 246.707 254.479 247.297C253.881 247.883 253.096 248.176 252.123 248.176C251.154 248.176 250.371 247.883 249.773 247.297C249.176 246.707 248.877 245.926 248.877 244.953ZM250.605 244.701V245.018C250.605 245.604 250.736 246.064 250.998 246.4C251.26 246.736 251.635 246.904 252.123 246.904C252.615 246.904 252.99 246.736 253.248 246.4C253.51 246.064 253.641 245.604 253.641 245.018V244.701C253.641 244.119 253.508 243.66 253.242 243.324C252.98 242.988 252.607 242.82 252.123 242.82C251.639 242.82 251.264 242.988 250.998 243.324C250.736 243.66 250.605 244.119 250.605 244.701ZM256.629 248V241.725H258.223L258.264 242.463H258.299C258.494 242.186 258.75 241.975 259.066 241.83C259.383 241.682 259.725 241.607 260.092 241.607C260.537 241.607 260.922 241.699 261.246 241.883C261.57 242.062 261.811 242.33 261.967 242.686H261.99C262.217 242.326 262.514 242.057 262.881 241.877C263.248 241.697 263.641 241.607 264.059 241.607C264.707 241.607 265.227 241.805 265.617 242.199C266.012 242.59 266.209 243.246 266.209 244.168V248H264.516V244.092C264.516 243.678 264.43 243.375 264.258 243.184C264.09 242.992 263.842 242.895 263.514 242.891C263.232 242.891 262.984 242.971 262.77 243.131C262.559 243.291 262.391 243.508 262.266 243.781V248H260.566V244.104C260.566 243.682 260.48 243.375 260.309 243.184C260.137 242.988 259.887 242.891 259.559 242.891C259.273 242.891 259.025 242.971 258.814 243.131C258.607 243.287 258.441 243.504 258.316 243.781V248H256.629ZM267.75 250.438V241.725H269.332L269.373 242.451H269.402C269.539 242.209 269.771 242.008 270.1 241.848C270.428 241.688 270.797 241.607 271.207 241.607C272.027 241.607 272.688 241.898 273.188 242.48C273.691 243.059 273.943 243.82 273.943 244.766V244.953C273.943 245.898 273.695 246.662 273.199 247.244C272.703 247.826 272.051 248.117 271.242 248.117C270.836 248.117 270.473 248.051 270.152 247.918C269.836 247.781 269.598 247.594 269.438 247.355V250.438H267.75ZM269.438 245.938C269.539 246.18 269.709 246.393 269.947 246.576C270.189 246.76 270.477 246.852 270.809 246.852C271.285 246.852 271.637 246.686 271.863 246.354C272.094 246.021 272.209 245.576 272.209 245.018V244.701C272.209 244.146 272.094 243.703 271.863 243.371C271.637 243.039 271.283 242.873 270.803 242.873C270.463 242.873 270.176 242.963 269.941 243.143C269.711 243.322 269.543 243.531 269.438 243.77V245.938ZM274.869 246.154C274.869 245.471 275.145 244.953 275.695 244.602C276.246 244.246 276.939 244.066 277.775 244.062H279.023V243.67C279.023 243.381 278.943 243.148 278.783 242.973C278.627 242.793 278.354 242.703 277.963 242.703C277.572 242.703 277.293 242.781 277.125 242.938C276.961 243.09 276.879 243.273 276.879 243.488V243.559H275.203V243.488C275.203 242.941 275.461 242.482 275.977 242.111C276.496 241.736 277.178 241.549 278.021 241.549C278.865 241.549 279.525 241.725 280.002 242.076C280.479 242.424 280.717 242.957 280.717 243.676V246.605C280.717 246.859 280.738 247.1 280.781 247.326C280.824 247.549 280.883 247.742 280.957 247.906V248H279.299C279.252 247.906 279.209 247.785 279.17 247.637C279.131 247.484 279.104 247.336 279.088 247.191C278.963 247.434 278.727 247.648 278.379 247.836C278.035 248.023 277.605 248.117 277.09 248.117C276.469 248.117 275.943 247.953 275.514 247.625C275.084 247.293 274.869 246.803 274.869 246.154ZM276.562 246.031C276.562 246.316 276.646 246.543 276.814 246.711C276.982 246.879 277.246 246.963 277.605 246.963C277.992 246.963 278.324 246.842 278.602 246.6C278.883 246.354 279.023 246.072 279.023 245.756V245.094H277.975C277.502 245.094 277.148 245.178 276.914 245.346C276.68 245.51 276.562 245.738 276.562 246.031ZM282.352 248V241.725H283.951L283.992 242.428H284.021C284.154 242.193 284.334 241.99 284.561 241.818C284.791 241.643 285.055 241.555 285.352 241.555C285.434 241.555 285.518 241.564 285.604 241.584C285.689 241.604 285.75 241.621 285.785 241.637V243.09C285.715 243.074 285.639 243.062 285.557 243.055C285.479 243.043 285.393 243.037 285.299 243.037C285.006 243.037 284.748 243.121 284.525 243.289C284.307 243.453 284.146 243.658 284.045 243.904V248H282.352ZM286.225 246.154C286.225 245.471 286.5 244.953 287.051 244.602C287.602 244.246 288.295 244.066 289.131 244.062H290.379V243.67C290.379 243.381 290.299 243.148 290.139 242.973C289.982 242.793 289.709 242.703 289.318 242.703C288.928 242.703 288.648 242.781 288.48 242.938C288.316 243.09 288.234 243.273 288.234 243.488V243.559H286.559V243.488C286.559 242.941 286.816 242.482 287.332 242.111C287.852 241.736 288.533 241.549 289.377 241.549C290.221 241.549 290.881 241.725 291.357 242.076C291.834 242.424 292.072 242.957 292.072 243.676V246.605C292.072 246.859 292.094 247.1 292.137 247.326C292.18 247.549 292.238 247.742 292.312 247.906V248H290.654C290.607 247.906 290.564 247.785 290.525 247.637C290.486 247.484 290.459 247.336 290.443 247.191C290.318 247.434 290.082 247.648 289.734 247.836C289.391 248.023 288.961 248.117 288.445 248.117C287.824 248.117 287.299 247.953 286.869 247.625C286.439 247.293 286.225 246.803 286.225 246.154ZM287.918 246.031C287.918 246.316 288.002 246.543 288.17 246.711C288.338 246.879 288.602 246.963 288.961 246.963C289.348 246.963 289.68 246.842 289.957 246.6C290.238 246.354 290.379 246.072 290.379 245.756V245.094H289.33C288.857 245.094 288.504 245.178 288.27 245.346C288.035 245.51 287.918 245.738 287.918 246.031ZM293.361 244.953V244.766C293.361 243.793 293.65 243.014 294.229 242.428C294.811 241.842 295.59 241.549 296.566 241.549C297.488 241.549 298.189 241.777 298.67 242.234C299.154 242.688 299.408 243.217 299.432 243.822L299.438 243.904H297.779V243.846C297.779 243.553 297.678 243.305 297.475 243.102C297.275 242.895 296.969 242.791 296.555 242.791C296.066 242.791 295.699 242.969 295.453 243.324C295.211 243.676 295.09 244.135 295.09 244.701V245.018C295.09 245.584 295.209 246.045 295.447 246.4C295.686 246.756 296.053 246.934 296.549 246.934C296.99 246.934 297.305 246.828 297.492 246.617C297.684 246.402 297.779 246.154 297.779 245.873V245.82H299.432V245.879C299.432 246.484 299.184 247.02 298.688 247.484C298.195 247.945 297.488 248.176 296.566 248.176C295.59 248.176 294.811 247.883 294.229 247.297C293.65 246.711 293.361 245.93 293.361 244.953ZM296.057 247.842H296.982L296.812 248.428C297.109 248.471 297.385 248.57 297.639 248.727C297.893 248.883 298.02 249.141 298.02 249.5C298.02 249.887 297.824 250.201 297.434 250.443C297.043 250.686 296.393 250.805 295.482 250.801L295.43 250.068C295.934 250.068 296.27 250.023 296.438 249.934C296.605 249.848 296.689 249.707 296.689 249.512C296.689 249.328 296.623 249.203 296.49 249.137C296.361 249.07 296.129 249.023 295.793 248.996L296.057 247.842ZM300.24 246.154C300.24 245.471 300.516 244.953 301.066 244.602C301.617 244.246 302.311 244.066 303.146 244.062H304.395V243.67C304.395 243.381 304.314 243.148 304.154 242.973C303.998 242.793 303.725 242.703 303.334 242.703C302.943 242.703 302.664 242.781 302.496 242.938C302.332 243.09 302.25 243.273 302.25 243.488V243.559H300.574V243.488C300.574 242.941 300.832 242.482 301.348 242.111C301.867 241.736 302.549 241.549 303.393 241.549C304.236 241.549 304.896 241.725 305.373 242.076C305.85 242.424 306.088 242.957 306.088 243.676V246.605C306.088 246.859 306.109 247.1 306.152 247.326C306.195 247.549 306.254 247.742 306.328 247.906V248H304.67C304.623 247.906 304.58 247.785 304.541 247.637C304.502 247.484 304.475 247.336 304.459 247.191C304.334 247.434 304.098 247.648 303.75 247.836C303.406 248.023 302.977 248.117 302.461 248.117C301.84 248.117 301.314 247.953 300.885 247.625C300.455 247.293 300.24 246.803 300.24 246.154ZM301.934 246.031C301.934 246.316 302.018 246.543 302.186 246.711C302.354 246.879 302.617 246.963 302.977 246.963C303.363 246.963 303.695 246.842 303.973 246.6C304.254 246.354 304.395 246.072 304.395 245.756V245.094H303.346C302.873 245.094 302.52 245.178 302.285 245.346C302.051 245.51 301.934 245.738 301.934 246.031ZM301.096 239.984C301.236 239.684 301.453 239.418 301.746 239.188C302.039 238.953 302.328 238.836 302.613 238.836C302.789 238.836 302.955 238.861 303.111 238.912C303.271 238.963 303.432 239.041 303.592 239.146C303.736 239.236 303.891 239.328 304.055 239.422C304.223 239.516 304.389 239.562 304.553 239.562C304.725 239.562 304.885 239.506 305.033 239.393C305.182 239.279 305.305 239.146 305.402 238.994L305.924 239.721C305.764 240.057 305.541 240.311 305.256 240.482C304.975 240.65 304.711 240.734 304.465 240.734C304.258 240.734 304.053 240.689 303.85 240.6C303.65 240.506 303.484 240.422 303.352 240.348C303.207 240.27 303.062 240.193 302.918 240.119C302.773 240.045 302.639 240.008 302.514 240.008C302.314 240.008 302.129 240.086 301.957 240.242C301.785 240.395 301.66 240.529 301.582 240.646L301.096 239.984ZM307.377 244.953V244.766C307.377 243.793 307.676 243.014 308.273 242.428C308.871 241.842 309.654 241.549 310.623 241.549C311.596 241.549 312.381 241.842 312.979 242.428C313.576 243.014 313.875 243.793 313.875 244.766V244.953C313.875 245.926 313.576 246.707 312.979 247.297C312.381 247.883 311.596 248.176 310.623 248.176C309.654 248.176 308.871 247.883 308.273 247.297C307.676 246.707 307.377 245.926 307.377 244.953ZM309.105 244.701V245.018C309.105 245.604 309.236 246.064 309.498 246.4C309.76 246.736 310.135 246.904 310.623 246.904C311.115 246.904 311.49 246.736 311.748 246.4C312.01 246.064 312.141 245.604 312.141 245.018V244.701C312.141 244.119 312.008 243.66 311.742 243.324C311.48 242.988 311.107 242.82 310.623 242.82C310.139 242.82 309.764 242.988 309.498 243.324C309.236 243.66 309.105 244.119 309.105 244.701ZM318.059 248V241.725H319.652L319.693 242.463H319.729C319.924 242.186 320.18 241.975 320.496 241.83C320.812 241.682 321.154 241.607 321.521 241.607C321.967 241.607 322.352 241.699 322.676 241.883C323 242.062 323.24 242.33 323.396 242.686H323.42C323.646 242.326 323.943 242.057 324.311 241.877C324.678 241.697 325.07 241.607 325.488 241.607C326.137 241.607 326.656 241.805 327.047 242.199C327.441 242.59 327.639 243.246 327.639 244.168V248H325.945V244.092C325.945 243.678 325.859 243.375 325.688 243.184C325.52 242.992 325.271 242.895 324.943 242.891C324.662 242.891 324.414 242.971 324.199 243.131C323.988 243.291 323.82 243.508 323.695 243.781V248H321.996V244.104C321.996 243.682 321.91 243.375 321.738 243.184C321.566 242.988 321.316 242.891 320.988 242.891C320.703 242.891 320.455 242.971 320.244 243.131C320.037 243.287 319.871 243.504 319.746 243.781V248H318.059ZM328.857 246.154C328.857 245.471 329.133 244.953 329.684 244.602C330.234 244.246 330.928 244.066 331.764 244.062H333.012V243.67C333.012 243.381 332.932 243.148 332.771 242.973C332.615 242.793 332.342 242.703 331.951 242.703C331.561 242.703 331.281 242.781 331.113 242.938C330.949 243.09 330.867 243.273 330.867 243.488V243.559H329.191V243.488C329.191 242.941 329.449 242.482 329.965 242.111C330.484 241.736 331.166 241.549 332.01 241.549C332.854 241.549 333.514 241.725 333.99 242.076C334.467 242.424 334.705 242.957 334.705 243.676V246.605C334.705 246.859 334.727 247.1 334.77 247.326C334.812 247.549 334.871 247.742 334.945 247.906V248H333.287C333.24 247.906 333.197 247.785 333.158 247.637C333.119 247.484 333.092 247.336 333.076 247.191C332.951 247.434 332.715 247.648 332.367 247.836C332.023 248.023 331.594 248.117 331.078 248.117C330.457 248.117 329.932 247.953 329.502 247.625C329.072 247.293 328.857 246.803 328.857 246.154ZM330.551 246.031C330.551 246.316 330.635 246.543 330.803 246.711C330.971 246.879 331.234 246.963 331.594 246.963C331.98 246.963 332.312 246.842 332.59 246.6C332.871 246.354 333.012 246.072 333.012 245.756V245.094H331.963C331.49 245.094 331.137 245.178 330.902 245.346C330.668 245.51 330.551 245.738 330.551 246.031ZM336.363 248V239.018H338.051V248H336.363ZM342.205 246.043H343.875V246.131C343.875 246.436 343.982 246.66 344.197 246.805C344.412 246.949 344.701 247.021 345.064 247.021C345.439 247.021 345.721 246.955 345.908 246.822C346.1 246.686 346.195 246.502 346.195 246.271C346.195 246.041 346.104 245.871 345.92 245.762C345.736 245.648 345.283 245.521 344.561 245.381C343.811 245.236 343.26 245.008 342.908 244.695C342.557 244.379 342.381 243.969 342.381 243.465C342.381 242.887 342.621 242.422 343.102 242.07C343.582 241.719 344.232 241.543 345.053 241.543C345.869 241.543 346.521 241.725 347.01 242.088C347.502 242.451 347.748 242.938 347.748 243.547V243.617H346.084V243.535C346.084 243.277 345.998 243.074 345.826 242.926C345.658 242.777 345.398 242.703 345.047 242.703C344.695 242.703 344.439 242.764 344.279 242.885C344.123 243.006 344.045 243.162 344.045 243.354C344.045 243.549 344.137 243.705 344.32 243.822C344.504 243.939 344.967 244.068 345.709 244.209C346.455 244.354 347.002 244.58 347.35 244.889C347.701 245.197 347.877 245.619 347.877 246.154C347.877 246.771 347.639 247.264 347.162 247.631C346.689 247.994 345.992 248.176 345.07 248.176C344.152 248.176 343.445 247.994 342.949 247.631C342.453 247.264 342.205 246.756 342.205 246.107V246.043ZM349.055 245.562V241.725H350.742V245.604C350.742 246.057 350.836 246.375 351.023 246.559C351.211 246.742 351.469 246.834 351.797 246.834C352.086 246.834 352.344 246.752 352.57 246.588C352.797 246.42 352.971 246.209 353.092 245.955V241.725H354.779V248H353.186L353.139 247.273H353.109C352.914 247.539 352.652 247.746 352.324 247.895C351.996 248.043 351.635 248.117 351.24 248.117C350.592 248.117 350.064 247.922 349.658 247.531C349.256 247.137 349.055 246.48 349.055 245.562ZM356.033 244.953V244.766C356.033 243.793 356.322 243.014 356.9 242.428C357.482 241.842 358.262 241.549 359.238 241.549C360.16 241.549 360.861 241.777 361.342 242.234C361.826 242.688 362.08 243.217 362.104 243.822L362.109 243.904H360.451V243.846C360.451 243.553 360.35 243.305 360.146 243.102C359.947 242.895 359.641 242.791 359.227 242.791C358.738 242.791 358.371 242.969 358.125 243.324C357.883 243.676 357.762 244.135 357.762 244.701V245.018C357.762 245.584 357.881 246.045 358.119 246.4C358.357 246.756 358.725 246.934 359.221 246.934C359.662 246.934 359.977 246.828 360.164 246.617C360.355 246.402 360.451 246.154 360.451 245.873V245.82H362.104V245.879C362.104 246.484 361.855 247.02 361.359 247.484C360.867 247.945 360.16 248.176 359.238 248.176C358.262 248.176 357.482 247.883 356.9 247.297C356.322 246.711 356.033 245.93 356.033 244.953ZM362.889 244.953V244.766C362.889 243.805 363.18 243.029 363.762 242.439C364.344 241.846 365.094 241.549 366.012 241.549C366.938 241.549 367.66 241.826 368.18 242.381C368.703 242.936 368.965 243.697 368.965 244.666V245.275H364.049V244.191H367.283V244.086C367.279 243.734 367.172 243.426 366.961 243.16C366.75 242.895 366.43 242.762 366 242.762C365.539 242.762 365.186 242.941 364.939 243.301C364.693 243.656 364.57 244.125 364.57 244.707V245.012C364.57 245.586 364.701 246.053 364.963 246.412C365.229 246.768 365.623 246.945 366.146 246.945C366.494 246.945 366.797 246.861 367.055 246.693C367.312 246.525 367.521 246.332 367.682 246.113L368.842 246.91C368.643 247.262 368.307 247.561 367.834 247.807C367.365 248.053 366.809 248.176 366.164 248.176C365.133 248.176 364.328 247.881 363.75 247.291C363.176 246.697 362.889 245.918 362.889 244.953ZM369.779 244.959V244.771C369.779 243.842 370.033 243.082 370.541 242.492C371.049 241.902 371.715 241.607 372.539 241.607C372.945 241.607 373.297 241.678 373.594 241.818C373.891 241.959 374.121 242.146 374.285 242.381V239.018H375.973V248H374.373L374.332 247.268H374.303C374.166 247.51 373.939 247.713 373.623 247.877C373.311 248.037 372.949 248.117 372.539 248.117C371.688 248.117 371.014 247.822 370.518 247.232C370.025 246.643 369.779 245.885 369.779 244.959ZM371.508 245.012C371.508 245.551 371.627 245.992 371.865 246.336C372.104 246.68 372.463 246.852 372.943 246.852C373.271 246.852 373.549 246.764 373.775 246.588C374.006 246.408 374.174 246.197 374.279 245.955V243.77C374.178 243.527 374.014 243.318 373.787 243.143C373.564 242.963 373.283 242.873 372.943 242.873C372.467 242.873 372.107 243.047 371.865 243.395C371.627 243.738 371.508 244.178 371.508 244.713V245.012ZM377.596 248V241.725H379.289V248H377.596ZM377.449 240.014C377.449 239.76 377.535 239.547 377.707 239.375C377.879 239.203 378.123 239.117 378.439 239.117C378.76 239.117 379.004 239.203 379.172 239.375C379.344 239.547 379.43 239.76 379.43 240.014C379.43 240.271 379.344 240.486 379.172 240.658C379.004 240.83 378.76 240.916 378.439 240.916C378.123 240.916 377.879 240.83 377.707 240.658C377.535 240.486 377.449 240.271 377.449 240.014ZM380.561 244.959V244.771C380.561 243.842 380.814 243.082 381.322 242.492C381.83 241.902 382.496 241.607 383.32 241.607C383.727 241.607 384.078 241.678 384.375 241.818C384.672 241.959 384.902 242.146 385.066 242.381V239.018H386.754V248H385.154L385.113 247.268H385.084C384.947 247.51 384.721 247.713 384.404 247.877C384.092 248.037 383.73 248.117 383.32 248.117C382.469 248.117 381.795 247.822 381.299 247.232C380.807 246.643 380.561 245.885 380.561 244.959ZM382.289 245.012C382.289 245.551 382.408 245.992 382.646 246.336C382.885 246.68 383.244 246.852 383.725 246.852C384.053 246.852 384.33 246.764 384.557 246.588C384.787 246.408 384.955 246.197 385.061 245.955V243.77C384.959 243.527 384.795 243.318 384.568 243.143C384.346 242.963 384.064 242.873 383.725 242.873C383.248 242.873 382.889 243.047 382.646 243.395C382.408 243.738 382.289 244.178 382.289 244.713V245.012ZM388.025 246.154C388.025 245.471 388.301 244.953 388.852 244.602C389.402 244.246 390.096 244.066 390.932 244.062H392.18V243.67C392.18 243.381 392.1 243.148 391.939 242.973C391.783 242.793 391.51 242.703 391.119 242.703C390.729 242.703 390.449 242.781 390.281 242.938C390.117 243.09 390.035 243.273 390.035 243.488V243.559H388.359V243.488C388.359 242.941 388.617 242.482 389.133 242.111C389.652 241.736 390.334 241.549 391.178 241.549C392.021 241.549 392.682 241.725 393.158 242.076C393.635 242.424 393.873 242.957 393.873 243.676V246.605C393.873 246.859 393.895 247.1 393.938 247.326C393.98 247.549 394.039 247.742 394.113 247.906V248H392.455C392.408 247.906 392.365 247.785 392.326 247.637C392.287 247.484 392.26 247.336 392.244 247.191C392.119 247.434 391.883 247.648 391.535 247.836C391.191 248.023 390.762 248.117 390.246 248.117C389.625 248.117 389.1 247.953 388.67 247.625C388.24 247.293 388.025 246.803 388.025 246.154ZM389.719 246.031C389.719 246.316 389.803 246.543 389.971 246.711C390.139 246.879 390.402 246.963 390.762 246.963C391.148 246.963 391.48 246.842 391.758 246.6C392.039 246.354 392.18 246.072 392.18 245.756V245.094H391.131C390.658 245.094 390.305 245.178 390.07 245.346C389.836 245.51 389.719 245.738 389.719 246.031Z" fill="#FA7184"/>
<line x1="233" y1="210" x2="233" y2="227" stroke="#34D298" stroke-width="2"/>
<line x1="232.987" y1="236.466" x2="228.885" y2="244.261" stroke="#FA7184" stroke-width="2"/>
<line x1="228" y1="243.615" x2="236.205" y2="243.615" stroke="#FA7184" stroke-width="2"/>
<line x1="231.228" y1="251.514" x2="235.331" y2="244.13" stroke="#FA7184" stroke-width="2"/>
<line x1="192.885" y1="77.4657" x2="182.885" y2="96.4657" stroke="#FA7184" stroke-width="2"/>
<line x1="182" y1="97" x2="202" y2="97" stroke="#FA7184" stroke-width="2"/>
<line x1="191.126" y1="115.514" x2="201.126" y2="97.5144" stroke="#FA7184" stroke-width="2"/>
<path d="M29.1211 40.2402V37.2285C29.1211 36.3496 29.3672 35.6406 29.8594 35.1016C30.3555 34.5625 31.043 34.293 31.9219 34.293C32.793 34.293 33.4785 34.5625 33.9785 35.1016C34.4785 35.6406 34.7285 36.3496 34.7285 37.2285V40.2402C34.7285 41.123 34.4785 41.834 33.9785 42.373C33.4785 42.9082 32.793 43.1758 31.9219 43.1758C31.043 43.1758 30.3555 42.9082 29.8594 42.373C29.3672 41.834 29.1211 41.123 29.1211 40.2402ZM30.2812 40.2988C30.2812 40.8574 30.4141 41.3184 30.6797 41.6816C30.9492 42.041 31.3633 42.2207 31.9219 42.2207C32.4805 42.2207 32.8945 42.041 33.1641 41.6816C33.4336 41.3184 33.5684 40.8574 33.5684 40.2988V37.1699C33.5684 36.6113 33.4336 36.1523 33.1641 35.793C32.8945 35.4297 32.4805 35.248 31.9219 35.248C31.3633 35.248 30.9492 35.4297 30.6797 35.793C30.4141 36.1523 30.2812 36.6113 30.2812 37.1699V40.2988Z" fill="#A2A2A2"/>
<rect x="16" y="48" width="32" height="32" fill="#F9F9F9"/>
<rect x="16" y="48" width="32" height="32" stroke="#525252"/>
<path d="M25.4902 70.5L30.7441 56.1934H32.4043L37.6582 70.5H35.8223L31.9551 59.6016C31.877 59.3802 31.8086 59.1686 31.75 58.9668C31.6979 58.765 31.6458 58.5566 31.5938 58.3418H31.5059C31.4538 58.5566 31.3984 58.765 31.3398 58.9668C31.2812 59.1686 31.2129 59.3802 31.1348 59.6016L27.248 70.5H25.4902ZM27.7266 66.7402L28.2637 65.2852H34.8555L35.3828 66.7402H27.7266Z" fill="#262626"/>
<path d="M63.6934 43V35.7285L61.4902 36.6367V35.5234L64.6367 34.3516H64.8418V43H63.6934Z" fill="#A2A2A2"/>
<rect x="48" y="48" width="32" height="32" fill="#F9F9F9"/>
<rect x="48" y="48" width="32" height="32" stroke="#525252"/>
<path d="M93.1211 43V42.1445L96.2441 38.8809C96.6504 38.4629 96.959 38.0898 97.1699 37.7617C97.3848 37.4297 97.4922 37.0703 97.4922 36.6836C97.4922 36.2969 97.3574 35.9609 97.0879 35.6758C96.8184 35.3906 96.4434 35.248 95.9629 35.248C95.4824 35.248 95.0781 35.4023 94.75 35.7109C94.4219 36.0156 94.2578 36.4375 94.2578 36.9766V37.0352H93.1152V36.9766C93.1152 36.1953 93.3867 35.5527 93.9297 35.0488C94.4766 34.5449 95.1543 34.293 95.9629 34.293C96.7637 34.293 97.4082 34.5254 97.8965 34.9902C98.3887 35.4551 98.6348 36 98.6348 36.625C98.6348 37.1836 98.4766 37.6895 98.1602 38.1426C97.8438 38.5918 97.4551 39.0508 96.9941 39.5195L94.5625 42.0156H98.8691V43H93.1211Z" fill="#A2A2A2"/>
<rect x="80" y="48" width="32" height="32" fill="#F9F9F9"/>
<rect x="80" y="48" width="32" height="32" stroke="#525252"/>
<path d="M89.4902 70.5L94.7441 56.1934H96.4043L101.658 70.5H99.8223L95.9551 59.6016C95.877 59.3802 95.8086 59.1686 95.75 58.9668C95.6979 58.765 95.6458 58.5566 95.5938 58.3418H95.5059C95.4538 58.5566 95.3984 58.765 95.3398 58.9668C95.2812 59.1686 95.2129 59.3802 95.1348 59.6016L91.248 70.5H89.4902ZM91.7266 66.7402L92.2637 65.2852H98.8555L99.3828 66.7402H91.7266Z" fill="#262626"/>
<path d="M124.939 40.7617V40.7031H126.059V40.7617C126.059 41.2266 126.217 41.5879 126.533 41.8457C126.854 42.0996 127.277 42.2266 127.805 42.2266C128.332 42.2266 128.754 42.0996 129.07 41.8457C129.387 41.5879 129.545 41.1875 129.545 40.6445C129.545 40.1055 129.367 39.6992 129.012 39.4258C128.656 39.1523 128.18 39.0156 127.582 39.0156H126.885V38.0898H127.523C128.074 38.0898 128.498 37.9609 128.795 37.7031C129.096 37.4453 129.246 37.084 129.246 36.6191C129.246 36.1582 129.115 35.8145 128.854 35.5879C128.596 35.3574 128.246 35.2422 127.805 35.2422C127.352 35.2422 126.986 35.3574 126.709 35.5879C126.436 35.8145 126.299 36.1406 126.299 36.5664V36.625H125.18V36.5664C125.18 35.9375 125.424 35.4023 125.912 34.9609C126.4 34.5156 127.031 34.293 127.805 34.293C128.566 34.293 129.189 34.5039 129.674 34.9258C130.158 35.3477 130.4 35.8926 130.4 36.5605C130.4 36.9512 130.291 37.3262 130.072 37.6855C129.854 38.041 129.514 38.3164 129.053 38.5117V38.5352C129.553 38.6602 129.953 38.9082 130.254 39.2793C130.555 39.6504 130.705 40.1055 130.705 40.6445C130.705 41.4336 130.432 42.0527 129.885 42.502C129.338 42.9512 128.645 43.1758 127.805 43.1758C126.938 43.1758 126.242 42.9512 125.719 42.502C125.199 42.0488 124.939 41.4688 124.939 40.7617Z" fill="#A2A2A2"/>
<rect x="112" y="48" width="32" height="32" fill="#F9F9F9"/>
<rect x="112" y="48" width="32" height="32" stroke="#525252"/>
<path d="M123.611 70.5V56.2812H128.094C129.585 56.2812 130.73 56.6621 131.531 57.4238C132.339 58.179 132.742 59.1849 132.742 60.4414C132.742 61.6979 132.339 62.7168 131.531 63.498C130.73 64.2728 129.585 64.6602 128.094 64.6602H125.379V70.5H123.611ZM125.379 63.2051H128.094C129.168 63.2051 129.917 62.9382 130.34 62.4043C130.763 61.8704 130.975 61.2161 130.975 60.4414C130.975 59.6667 130.763 59.0221 130.34 58.5078C129.917 57.987 129.168 57.7266 128.094 57.7266H125.379V63.2051ZM131.502 70.5L128.025 63.9375L129.793 63.6738L133.475 70.5H131.502Z" fill="#262626"/>
<path d="M160.801 43V40.668V40.3633V36.2383H160.73L158.088 40.0527H161.088H161.545H163.098V41.002H156.775V40.2285L160.836 34.4688H161.885V43H160.801Z" fill="#A2A2A2"/>
<rect x="144" y="48" width="32" height="32" fill="#F9F9F9"/>
<rect x="144" y="48" width="32" height="32" stroke="#525252"/>
<path d="M153.49 70.5L158.744 56.1934H160.404L165.658 70.5H163.822L159.955 59.6016C159.877 59.3802 159.809 59.1686 159.75 58.9668C159.698 58.765 159.646 58.5566 159.594 58.3418H159.506C159.454 58.5566 159.398 58.765 159.34 58.9668C159.281 59.1686 159.213 59.3802 159.135 59.6016L155.248 70.5H153.49ZM155.727 66.7402L156.264 65.2852H162.855L163.383 66.7402H155.727Z" fill="#262626"/>
<path d="M189.057 40.8496V40.791H190.164V40.8496C190.164 41.2754 190.318 41.6113 190.627 41.8574C190.939 42.1035 191.355 42.2266 191.875 42.2266C192.395 42.2266 192.82 42.0566 193.152 41.7168C193.484 41.373 193.65 40.8926 193.65 40.2754C193.65 39.6582 193.484 39.1875 193.152 38.8633C192.82 38.5391 192.395 38.377 191.875 38.377C191.52 38.377 191.205 38.4414 190.932 38.5703C190.658 38.6992 190.402 38.8809 190.164 39.1152L189.355 38.7285L189.789 34.4688H194.336V35.4941H190.727L190.475 37.8789C190.67 37.7578 190.902 37.6523 191.172 37.5625C191.445 37.4688 191.742 37.4219 192.062 37.4219C192.82 37.4219 193.463 37.6738 193.99 38.1777C194.521 38.6777 194.787 39.377 194.787 40.2754C194.787 41.1738 194.512 41.8828 193.961 42.4023C193.41 42.918 192.715 43.1758 191.875 43.1758C191 43.1758 190.311 42.9551 189.807 42.5137C189.307 42.0723 189.057 41.5176 189.057 40.8496Z" fill="#A2A2A2"/>
<rect x="176" y="48" width="32" height="32" fill="#FDCCD2"/>
<rect x="176" y="48" width="32" height="32" stroke="#525252"/>
<path d="M186.611 70.5V56.2812H188.467L194.834 66.4375C194.964 66.6328 195.085 66.8314 195.195 67.0332C195.306 67.2285 195.397 67.4108 195.469 67.5801H195.547C195.54 67.3783 195.534 67.1569 195.527 66.916C195.527 66.6686 195.527 66.4473 195.527 66.252V56.2812H197.246V70.5H195.4L189.014 60.334C188.89 60.1387 188.773 59.9434 188.662 59.748C188.558 59.5462 188.464 59.3607 188.379 59.1914H188.311C188.317 59.3932 188.32 59.6178 188.32 59.8652C188.327 60.1061 188.33 60.3275 188.33 60.5293V70.5H186.611Z" fill="#262626"/>
<path d="M220.986 39.4023V39.2266C220.986 37.7422 221.396 36.5488 222.217 35.6465C223.041 34.7441 224.213 34.293 225.732 34.293H225.855V35.248H225.732C224.615 35.248 223.732 35.5625 223.084 36.1914C222.436 36.8203 222.111 37.8125 222.111 39.168V39.4609C222.111 40.4688 222.295 41.1816 222.662 41.5996C223.029 42.0176 223.492 42.2266 224.051 42.2266C224.609 42.2266 225.041 42.0566 225.346 41.7168C225.654 41.377 225.809 40.8984 225.809 40.2812C225.809 39.6641 225.654 39.1875 225.346 38.8516C225.041 38.5156 224.609 38.3477 224.051 38.3477C223.531 38.3477 223.072 38.5156 222.674 38.8516C222.275 39.1875 222.076 39.6641 222.076 40.2812H221.654C221.654 39.418 221.895 38.7207 222.375 38.1895C222.855 37.6582 223.494 37.3926 224.291 37.3926C225.092 37.3926 225.734 37.6582 226.219 38.1895C226.707 38.7207 226.951 39.418 226.951 40.2812C226.951 41.1406 226.678 41.8379 226.131 42.373C225.584 42.9082 224.891 43.1758 224.051 43.1758C223.211 43.1758 222.49 42.8789 221.889 42.2852C221.287 41.6914 220.986 40.7305 220.986 39.4023Z" fill="#A2A2A2"/>
<rect x="208" y="48" width="32" height="32" fill="#F9F9F9"/>
<rect x="208" y="48" width="32" height="32" stroke="#525252"/>
<path d="M218.611 70.5V56.2812H220.379V62.4336H227.488V56.2812H229.256V70.5H227.488V63.8984H220.379V70.5H218.611Z" fill="#262626"/>
<path d="M254.24 43L257.551 35.4414H252.939V34.4688H258.758V35.1133L255.418 43H254.24Z" fill="#A2A2A2"/>
<rect x="240" y="48" width="32" height="32" fill="#F9F9F9"/>
<rect x="240" y="48" width="32" height="32" stroke="#525252"/>
<path d="M249.49 70.5L254.744 56.1934H256.404L261.658 70.5H259.822L255.955 59.6016C255.877 59.3802 255.809 59.1686 255.75 58.9668C255.698 58.765 255.646 58.5566 255.594 58.3418H255.506C255.454 58.5566 255.398 58.765 255.34 58.9668C255.281 59.1686 255.213 59.3802 255.135 59.6016L251.248 70.5H249.49ZM251.727 66.7402L252.264 65.2852H258.855L259.383 66.7402H251.727Z" fill="#262626"/>
<rect x="16" y="114" width="32" height="32" fill="#F9F9F9"/>
<rect x="16" y="114" width="32" height="32" stroke="#525252"/>
<path d="M25.4902 136.5L30.7441 122.193H32.4043L37.6582 136.5H35.8223L31.9551 125.602C31.877 125.38 31.8086 125.169 31.75 124.967C31.6979 124.765 31.6458 124.557 31.5938 124.342H31.5059C31.4538 124.557 31.3984 124.765 31.3398 124.967C31.2812 125.169 31.2129 125.38 31.1348 125.602L27.248 136.5H25.4902ZM27.7266 132.74L28.2637 131.285H34.8555L35.3828 132.74H27.7266Z" fill="#262626"/>
<rect x="48" y="114" width="32" height="32" fill="#F9F9F9"/>
<rect x="48" y="114" width="32" height="32" stroke="#525252"/>
<path d="M59.6113 136.5V122.281H64.0938C65.5846 122.281 66.7305 122.662 67.5312 123.424C68.3385 124.179 68.7422 125.185 68.7422 126.441C68.7422 127.698 68.3385 128.717 67.5312 129.498C66.7305 130.273 65.5846 130.66 64.0938 130.66H61.3789V136.5H59.6113ZM61.3789 129.205H64.0938C65.168 129.205 65.9167 128.938 66.3398 128.404C66.763 127.87 66.9746 127.216 66.9746 126.441C66.9746 125.667 66.763 125.022 66.3398 124.508C65.9167 123.987 65.168 123.727 64.0938 123.727H61.3789V129.205ZM67.502 136.5L64.0254 129.938L65.793 129.674L69.4746 136.5H67.502Z" fill="#262626"/>
<rect x="80" y="114" width="32" height="32" fill="#F9F9F9"/>
<rect x="80" y="114" width="32" height="32" stroke="#525252"/>
<path d="M89.4902 136.5L94.7441 122.193H96.4043L101.658 136.5H99.8223L95.9551 125.602C95.877 125.38 95.8086 125.169 95.75 124.967C95.6979 124.765 95.6458 124.557 95.5938 124.342H95.5059C95.4538 124.557 95.3984 124.765 95.3398 124.967C95.2812 125.169 95.2129 125.38 95.1348 125.602L91.248 136.5H89.4902ZM91.7266 132.74L92.2637 131.285H98.8555L99.3828 132.74H91.7266Z" fill="#262626"/>
<rect x="112" y="114" width="32" height="32" fill="#F9F9F9"/>
<rect x="112" y="114" width="32" height="32" stroke="#525252"/>
<path d="M122.611 136.5V122.281H124.467L130.834 132.438C130.964 132.633 131.085 132.831 131.195 133.033C131.306 133.229 131.397 133.411 131.469 133.58H131.547C131.54 133.378 131.534 133.157 131.527 132.916C131.527 132.669 131.527 132.447 131.527 132.252V122.281H133.246V136.5H131.4L125.014 126.334C124.89 126.139 124.773 125.943 124.662 125.748C124.558 125.546 124.464 125.361 124.379 125.191H124.311C124.317 125.393 124.32 125.618 124.32 125.865C124.327 126.106 124.33 126.327 124.33 126.529V136.5H122.611Z" fill="#262626"/>
<rect x="144" y="114" width="32" height="32" fill="#F9F9F9"/>
<rect x="144" y="114" width="32" height="32" stroke="#525252"/>
<path d="M154.611 136.5V122.281H156.379V128.434H163.488V122.281H165.256V136.5H163.488V129.898H156.379V136.5H154.611Z" fill="#262626"/>
<rect x="176" y="114" width="32" height="32" fill="#FDCCD2"/>
<rect x="176" y="114" width="32" height="32" stroke="#525252"/>
<path d="M185.49 136.5L190.744 122.193H192.404L197.658 136.5H195.822L191.955 125.602C191.877 125.38 191.809 125.169 191.75 124.967C191.698 124.765 191.646 124.557 191.594 124.342H191.506C191.454 124.557 191.398 124.765 191.34 124.967C191.281 125.169 191.213 125.38 191.135 125.602L187.248 136.5H185.49ZM187.727 132.74L188.264 131.285H194.855L195.383 132.74H187.727Z" fill="#262626"/>
<path d="M353.121 40.2402V37.2285C353.121 36.3496 353.367 35.6406 353.859 35.1016C354.355 34.5625 355.043 34.293 355.922 34.293C356.793 34.293 357.479 34.5625 357.979 35.1016C358.479 35.6406 358.729 36.3496 358.729 37.2285V40.2402C358.729 41.123 358.479 41.834 357.979 42.373C357.479 42.9082 356.793 43.1758 355.922 43.1758C355.043 43.1758 354.355 42.9082 353.859 42.373C353.367 41.834 353.121 41.123 353.121 40.2402ZM354.281 40.2988C354.281 40.8574 354.414 41.3184 354.68 41.6816C354.949 42.041 355.363 42.2207 355.922 42.2207C356.48 42.2207 356.895 42.041 357.164 41.6816C357.434 41.3184 357.568 40.8574 357.568 40.2988V37.1699C357.568 36.6113 357.434 36.1523 357.164 35.793C356.895 35.4297 356.48 35.248 355.922 35.248C355.363 35.248 354.949 35.4297 354.68 35.793C354.414 36.1523 354.281 36.6113 354.281 37.1699V40.2988Z" fill="#A2A2A2"/>
<rect x="340" y="48" width="32" height="32" fill="#F9F9F9"/>
<rect x="340" y="48" width="32" height="32" stroke="#525252"/>
<path d="M349.49 70.5L354.744 56.1934H356.404L361.658 70.5H359.822L355.955 59.6016C355.877 59.3802 355.809 59.1686 355.75 58.9668C355.698 58.765 355.646 58.5566 355.594 58.3418H355.506C355.454 58.5566 355.398 58.765 355.34 58.9668C355.281 59.1686 355.213 59.3802 355.135 59.6016L351.248 70.5H349.49ZM351.727 66.7402L352.264 65.2852H358.855L359.383 66.7402H351.727Z" fill="#262626"/>
<path d="M387.693 43V35.7285L385.49 36.6367V35.5234L388.637 34.3516H388.842V43H387.693Z" fill="#A2A2A2"/>
<rect x="372" y="48" width="32" height="32" fill="#F9F9F9"/>
<rect x="372" y="48" width="32" height="32" stroke="#525252"/>
<path d="M417.121 43V42.1445L420.244 38.8809C420.65 38.4629 420.959 38.0898 421.17 37.7617C421.385 37.4297 421.492 37.0703 421.492 36.6836C421.492 36.2969 421.357 35.9609 421.088 35.6758C420.818 35.3906 420.443 35.248 419.963 35.248C419.482 35.248 419.078 35.4023 418.75 35.7109C418.422 36.0156 418.258 36.4375 418.258 36.9766V37.0352H417.115V36.9766C417.115 36.1953 417.387 35.5527 417.93 35.0488C418.477 34.5449 419.154 34.293 419.963 34.293C420.764 34.293 421.408 34.5254 421.896 34.9902C422.389 35.4551 422.635 36 422.635 36.625C422.635 37.1836 422.477 37.6895 422.16 38.1426C421.844 38.5918 421.455 39.0508 420.994 39.5195L418.562 42.0156H422.869V43H417.121Z" fill="#A2A2A2"/>
<rect x="404" y="48" width="32" height="32" fill="#F9F9F9"/>
<rect x="404" y="48" width="32" height="32" stroke="#525252"/>
<path d="M413.49 70.5L418.744 56.1934H420.404L425.658 70.5H423.822L419.955 59.6016C419.877 59.3802 419.809 59.1686 419.75 58.9668C419.698 58.765 419.646 58.5566 419.594 58.3418H419.506C419.454 58.5566 419.398 58.765 419.34 58.9668C419.281 59.1686 419.213 59.3802 419.135 59.6016L415.248 70.5H413.49ZM415.727 66.7402L416.264 65.2852H422.855L423.383 66.7402H415.727Z" fill="#262626"/>
<path d="M448.939 40.7617V40.7031H450.059V40.7617C450.059 41.2266 450.217 41.5879 450.533 41.8457C450.854 42.0996 451.277 42.2266 451.805 42.2266C452.332 42.2266 452.754 42.0996 453.07 41.8457C453.387 41.5879 453.545 41.1875 453.545 40.6445C453.545 40.1055 453.367 39.6992 453.012 39.4258C452.656 39.1523 452.18 39.0156 451.582 39.0156H450.885V38.0898H451.523C452.074 38.0898 452.498 37.9609 452.795 37.7031C453.096 37.4453 453.246 37.084 453.246 36.6191C453.246 36.1582 453.115 35.8145 452.854 35.5879C452.596 35.3574 452.246 35.2422 451.805 35.2422C451.352 35.2422 450.986 35.3574 450.709 35.5879C450.436 35.8145 450.299 36.1406 450.299 36.5664V36.625H449.18V36.5664C449.18 35.9375 449.424 35.4023 449.912 34.9609C450.4 34.5156 451.031 34.293 451.805 34.293C452.566 34.293 453.189 34.5039 453.674 34.9258C454.158 35.3477 454.4 35.8926 454.4 36.5605C454.4 36.9512 454.291 37.3262 454.072 37.6855C453.854 38.041 453.514 38.3164 453.053 38.5117V38.5352C453.553 38.6602 453.953 38.9082 454.254 39.2793C454.555 39.6504 454.705 40.1055 454.705 40.6445C454.705 41.4336 454.432 42.0527 453.885 42.502C453.338 42.9512 452.645 43.1758 451.805 43.1758C450.938 43.1758 450.242 42.9512 449.719 42.502C449.199 42.0488 448.939 41.4688 448.939 40.7617Z" fill="#A2A2A2"/>
<rect x="436" y="48" width="32" height="32" fill="#F9F9F9"/>
<rect x="436" y="48" width="32" height="32" stroke="#525252"/>
<path d="M447.611 70.5V56.2812H452.094C453.585 56.2812 454.73 56.6621 455.531 57.4238C456.339 58.179 456.742 59.1849 456.742 60.4414C456.742 61.6979 456.339 62.7168 455.531 63.498C454.73 64.2728 453.585 64.6602 452.094 64.6602H449.379V70.5H447.611ZM449.379 63.2051H452.094C453.168 63.2051 453.917 62.9382 454.34 62.4043C454.763 61.8704 454.975 61.2161 454.975 60.4414C454.975 59.6667 454.763 59.0221 454.34 58.5078C453.917 57.987 453.168 57.7266 452.094 57.7266H449.379V63.2051ZM455.502 70.5L452.025 63.9375L453.793 63.6738L457.475 70.5H455.502Z" fill="#262626"/>
<path d="M484.801 43V40.668V40.3633V36.2383H484.73L482.088 40.0527H485.088H485.545H487.098V41.002H480.775V40.2285L484.836 34.4688H485.885V43H484.801Z" fill="#A2A2A2"/>
<rect x="468" y="48" width="32" height="32" fill="#F9F9F9"/>
<rect x="468" y="48" width="32" height="32" stroke="#525252"/>
<path d="M477.49 70.5L482.744 56.1934H484.404L489.658 70.5H487.822L483.955 59.6016C483.877 59.3802 483.809 59.1686 483.75 58.9668C483.698 58.765 483.646 58.5566 483.594 58.3418H483.506C483.454 58.5566 483.398 58.765 483.34 58.9668C483.281 59.1686 483.213 59.3802 483.135 59.6016L479.248 70.5H477.49ZM479.727 66.7402L480.264 65.2852H486.855L487.383 66.7402H479.727Z" fill="#262626"/>
<path d="M513.057 40.8496V40.791H514.164V40.8496C514.164 41.2754 514.318 41.6113 514.627 41.8574C514.939 42.1035 515.355 42.2266 515.875 42.2266C516.395 42.2266 516.82 42.0566 517.152 41.7168C517.484 41.373 517.65 40.8926 517.65 40.2754C517.65 39.6582 517.484 39.1875 517.152 38.8633C516.82 38.5391 516.395 38.377 515.875 38.377C515.52 38.377 515.205 38.4414 514.932 38.5703C514.658 38.6992 514.402 38.8809 514.164 39.1152L513.355 38.7285L513.789 34.4688H518.336V35.4941H514.727L514.475 37.8789C514.67 37.7578 514.902 37.6523 515.172 37.5625C515.445 37.4688 515.742 37.4219 516.062 37.4219C516.82 37.4219 517.463 37.6738 517.99 38.1777C518.521 38.6777 518.787 39.377 518.787 40.2754C518.787 41.1738 518.512 41.8828 517.961 42.4023C517.41 42.918 516.715 43.1758 515.875 43.1758C515 43.1758 514.311 42.9551 513.807 42.5137C513.307 42.0723 513.057 41.5176 513.057 40.8496Z" fill="#A2A2A2"/>
<rect x="500" y="48" width="32" height="32" fill="#A6F2CF"/>
<rect x="500" y="48" width="32" height="32" stroke="#525252"/>
<path d="M510.611 70.5V56.2812H512.467L518.834 66.4375C518.964 66.6328 519.085 66.8314 519.195 67.0332C519.306 67.2285 519.397 67.4108 519.469 67.5801H519.547C519.54 67.3783 519.534 67.1569 519.527 66.916C519.527 66.6686 519.527 66.4473 519.527 66.252V56.2812H521.246V70.5H519.4L513.014 60.334C512.89 60.1387 512.773 59.9434 512.662 59.748C512.558 59.5462 512.464 59.3607 512.379 59.1914H512.311C512.317 59.3932 512.32 59.6178 512.32 59.8652C512.327 60.1061 512.33 60.3275 512.33 60.5293V70.5H510.611Z" fill="#262626"/>
<path d="M544.986 39.4023V39.2266C544.986 37.7422 545.396 36.5488 546.217 35.6465C547.041 34.7441 548.213 34.293 549.732 34.293H549.855V35.248H549.732C548.615 35.248 547.732 35.5625 547.084 36.1914C546.436 36.8203 546.111 37.8125 546.111 39.168V39.4609C546.111 40.4688 546.295 41.1816 546.662 41.5996C547.029 42.0176 547.492 42.2266 548.051 42.2266C548.609 42.2266 549.041 42.0566 549.346 41.7168C549.654 41.377 549.809 40.8984 549.809 40.2812C549.809 39.6641 549.654 39.1875 549.346 38.8516C549.041 38.5156 548.609 38.3477 548.051 38.3477C547.531 38.3477 547.072 38.5156 546.674 38.8516C546.275 39.1875 546.076 39.6641 546.076 40.2812H545.654C545.654 39.418 545.895 38.7207 546.375 38.1895C546.855 37.6582 547.494 37.3926 548.291 37.3926C549.092 37.3926 549.734 37.6582 550.219 38.1895C550.707 38.7207 550.951 39.418 550.951 40.2812C550.951 41.1406 550.678 41.8379 550.131 42.373C549.584 42.9082 548.891 43.1758 548.051 43.1758C547.211 43.1758 546.49 42.8789 545.889 42.2852C545.287 41.6914 544.986 40.7305 544.986 39.4023Z" fill="#A2A2A2"/>
<rect x="532" y="48" width="32" height="32" fill="#F9F9F9"/>
<rect x="532" y="48" width="32" height="32" stroke="#525252"/>
<path d="M542.611 70.5V56.2812H544.379V62.4336H551.488V56.2812H553.256V70.5H551.488V63.8984H544.379V70.5H542.611Z" fill="#262626"/>
<path d="M578.24 43L581.551 35.4414H576.939V34.4688H582.758V35.1133L579.418 43H578.24Z" fill="#A2A2A2"/>
<rect x="564" y="48" width="32" height="32" fill="#F9F9F9"/>
<rect x="564" y="48" width="32" height="32" stroke="#525252"/>
<path d="M573.49 70.5L578.744 56.1934H580.404L585.658 70.5H583.822L579.955 59.6016C579.877 59.3802 579.809 59.1686 579.75 58.9668C579.698 58.765 579.646 58.5566 579.594 58.3418H579.506C579.454 58.5566 579.398 58.765 579.34 58.9668C579.281 59.1686 579.213 59.3802 579.135 59.6016L575.248 70.5H573.49ZM575.727 66.7402L576.264 65.2852H582.855L583.383 66.7402H575.727Z" fill="#262626"/>
<rect x="404" y="114" width="32" height="32" fill="#F9F9F9"/>
<rect x="404" y="114" width="32" height="32" stroke="#525252"/>
<path d="M413.49 136.5L418.744 122.193H420.404L425.658 136.5H423.822L419.955 125.602C419.877 125.38 419.809 125.169 419.75 124.967C419.698 124.765 419.646 124.557 419.594 124.342H419.506C419.454 124.557 419.398 124.765 419.34 124.967C419.281 125.169 419.213 125.38 419.135 125.602L415.248 136.5H413.49ZM415.727 132.74L416.264 131.285H422.855L423.383 132.74H415.727Z" fill="#262626"/>
<rect x="436" y="114" width="32" height="32" fill="#F9F9F9"/>
<rect x="436" y="114" width="32" height="32" stroke="#525252"/>
<path d="M447.611 136.5V122.281H452.094C453.585 122.281 454.73 122.662 455.531 123.424C456.339 124.179 456.742 125.185 456.742 126.441C456.742 127.698 456.339 128.717 455.531 129.498C454.73 130.273 453.585 130.66 452.094 130.66H449.379V136.5H447.611ZM449.379 129.205H452.094C453.168 129.205 453.917 128.938 454.34 128.404C454.763 127.87 454.975 127.216 454.975 126.441C454.975 125.667 454.763 125.022 454.34 124.508C453.917 123.987 453.168 123.727 452.094 123.727H449.379V129.205ZM455.502 136.5L452.025 129.938L453.793 129.674L457.475 136.5H455.502Z" fill="#262626"/>
<rect x="468" y="114" width="32" height="32" fill="#F9F9F9"/>
<rect x="468" y="114" width="32" height="32" stroke="#525252"/>
<path d="M477.49 136.5L482.744 122.193H484.404L489.658 136.5H487.822L483.955 125.602C483.877 125.38 483.809 125.169 483.75 124.967C483.698 124.765 483.646 124.557 483.594 124.342H483.506C483.454 124.557 483.398 124.765 483.34 124.967C483.281 125.169 483.213 125.38 483.135 125.602L479.248 136.5H477.49ZM479.727 132.74L480.264 131.285H486.855L487.383 132.74H479.727Z" fill="#262626"/>
<rect x="500" y="114" width="32" height="32" fill="#A6F2CF"/>
<rect x="500" y="114" width="32" height="32" stroke="#525252"/>
<path d="M510.611 136.5V122.281H512.467L518.834 132.438C518.964 132.633 519.085 132.831 519.195 133.033C519.306 133.229 519.397 133.411 519.469 133.58H519.547C519.54 133.378 519.534 133.157 519.527 132.916C519.527 132.669 519.527 132.447 519.527 132.252V122.281H521.246V136.5H519.4L513.014 126.334C512.89 126.139 512.773 125.943 512.662 125.748C512.558 125.546 512.464 125.361 512.379 125.191H512.311C512.317 125.393 512.32 125.618 512.32 125.865C512.327 126.106 512.33 126.327 512.33 126.529V136.5H510.611Z" fill="#262626"/>
<rect x="532" y="114" width="32" height="32" fill="#F9F9F9"/>
<rect x="532" y="114" width="32" height="32" stroke="#525252"/>
<path d="M542.611 136.5V122.281H544.379V128.434H551.488V122.281H553.256V136.5H551.488V129.898H544.379V136.5H542.611Z" fill="#262626"/>
<rect x="564" y="114" width="32" height="32" fill="#F9F9F9"/>
<rect x="564" y="114" width="32" height="32" stroke="#525252"/>
<path d="M573.49 136.5L578.744 122.193H580.404L585.658 136.5H583.822L579.955 125.602C579.877 125.38 579.809 125.169 579.75 124.967C579.698 124.765 579.646 124.557 579.594 124.342H579.506C579.454 124.557 579.398 124.765 579.34 124.967C579.281 125.169 579.213 125.38 579.135 125.602L575.248 136.5H573.49ZM575.727 132.74L576.264 131.285H582.855L583.383 132.74H575.727Z" fill="#262626"/>
<path d="M400.707 130.707C401.098 130.317 401.098 129.683 400.707 129.293L394.343 122.929C393.953 122.538 393.319 122.538 392.929 122.929C392.538 123.319 392.538 123.953 392.929 124.343L398.586 130L392.929 135.657C392.538 136.047 392.538 136.681 392.929 137.071C393.319 137.462 393.953 137.462 394.343 137.071L400.707 130.707ZM333 131H400V129H333V131Z" fill="#525252"/>
<path d="M299.879 115.123V114.938H301.646V115.123C301.646 116.008 301.933 116.673 302.506 117.115C303.085 117.551 303.889 117.77 304.918 117.77C305.953 117.77 306.744 117.545 307.291 117.096C307.838 116.64 308.111 116.048 308.111 115.318C308.111 114.648 307.848 114.114 307.32 113.717C306.799 113.32 305.81 112.903 304.352 112.467C302.848 112.011 301.773 111.487 301.129 110.895C300.491 110.302 300.172 109.446 300.172 108.326C300.172 107.232 300.582 106.321 301.402 105.592C302.223 104.863 303.365 104.498 304.83 104.498C306.282 104.498 307.438 104.879 308.297 105.641C309.163 106.402 309.596 107.382 309.596 108.58V108.746H307.828V108.58C307.828 107.805 307.574 107.184 307.066 106.715C306.565 106.246 305.82 106.012 304.83 106.012C303.827 106.012 303.092 106.217 302.623 106.627C302.154 107.031 301.92 107.584 301.92 108.287C301.92 108.919 302.161 109.42 302.643 109.791C303.124 110.156 304.107 110.559 305.592 111.002C307.083 111.438 308.167 111.979 308.844 112.623C309.521 113.261 309.859 114.16 309.859 115.318C309.859 116.477 309.417 117.428 308.531 118.17C307.646 118.912 306.441 119.283 304.918 119.283C303.395 119.283 302.174 118.915 301.256 118.18C300.338 117.438 299.879 116.419 299.879 115.123ZM315.924 115.211V113.648H324.732V115.211H315.924ZM315.924 111.373V109.811H324.732V111.373H315.924ZM331.021 119V117.711L336.012 112.174C336.669 111.464 337.174 110.823 337.525 110.25C337.877 109.677 338.053 109.065 338.053 108.414C338.053 107.73 337.828 107.151 337.379 106.676C336.936 106.201 336.327 105.963 335.553 105.963C334.778 105.963 334.12 106.217 333.58 106.725C333.046 107.226 332.779 107.945 332.779 108.883V108.99H331.021V108.883C331.021 107.581 331.454 106.526 332.32 105.719C333.193 104.905 334.27 104.498 335.553 104.498C336.822 104.498 337.848 104.872 338.629 105.621C339.417 106.37 339.811 107.268 339.811 108.316C339.811 109.221 339.56 110.048 339.059 110.797C338.557 111.539 337.932 112.317 337.184 113.131L333.209 117.467H340.191V119H331.021Z" fill="#525252"/>
</svg>
