<svg width="800" height="194" viewBox="0 0 800 194" fill="none" xmlns="http://www.w3.org/2000/svg">
<line x1="255" y1="78" x2="255" y2="117" stroke="#34D298" stroke-width="2"/>
<line x1="288" y1="78" x2="288" y2="117" stroke="#34D298" stroke-width="2"/>
<line x1="224.885" y1="77.4657" x2="214.885" y2="96.4657" stroke="#FA7184" stroke-width="2"/>
<line x1="214" y1="97" x2="234" y2="97" stroke="#FA7184" stroke-width="2"/>
<line x1="223.126" y1="115.514" x2="233.126" y2="97.5144" stroke="#FA7184" stroke-width="2"/>
<path d="M29.1211 40.2402V37.2285C29.1211 36.3496 29.3672 35.6406 29.8594 35.1016C30.3555 34.5625 31.043 34.293 31.9219 34.293C32.793 34.293 33.4785 34.5625 33.9785 35.1016C34.4785 35.6406 34.7285 36.3496 34.7285 37.2285V40.2402C34.7285 41.123 34.4785 41.834 33.9785 42.373C33.4785 42.9082 32.793 43.1758 31.9219 43.1758C31.043 43.1758 30.3555 42.9082 29.8594 42.373C29.3672 41.834 29.1211 41.123 29.1211 40.2402ZM30.2812 40.2988C30.2812 40.8574 30.4141 41.3184 30.6797 41.6816C30.9492 42.041 31.3633 42.2207 31.9219 42.2207C32.4805 42.2207 32.8945 42.041 33.1641 41.6816C33.4336 41.3184 33.5684 40.8574 33.5684 40.2988V37.1699C33.5684 36.6113 33.4336 36.1523 33.1641 35.793C32.8945 35.4297 32.4805 35.248 31.9219 35.248C31.3633 35.248 30.9492 35.4297 30.6797 35.793C30.4141 36.1523 30.2812 36.6113 30.2812 37.1699V40.2988Z" fill="#A2A2A2"/>
<rect x="16" y="48" width="32" height="32" fill="#F9F9F9"/>
<rect x="16" y="48" width="32" height="32" stroke="#525252"/>
<path d="M27.6113 70.5V56.2812H32.1621C33.5553 56.2812 34.6491 56.584 35.4434 57.1895C36.2441 57.7884 36.6445 58.7324 36.6445 60.0215C36.6445 60.8092 36.4492 61.4538 36.0586 61.9551C35.6745 62.4499 35.1927 62.7982 34.6133 63V63.0391C35.3229 63.2409 35.9023 63.6283 36.3516 64.2012C36.8008 64.7676 37.0254 65.5098 37.0254 66.4277C37.0254 67.7233 36.6087 68.7259 35.7754 69.4355C34.9421 70.1452 33.8353 70.5 32.4551 70.5H27.6113ZM29.3398 69.0352H32.4551C33.4251 69.0352 34.1348 68.8008 34.584 68.332C35.0397 67.8633 35.2676 67.2285 35.2676 66.4277C35.2676 65.627 35.0397 64.9922 34.584 64.5234C34.1348 64.0547 33.4251 63.8203 32.4551 63.8203H29.3398V69.0352ZM29.3398 62.375H32.1621C33.1322 62.375 33.8288 62.1699 34.252 61.7598C34.6816 61.3431 34.8965 60.7669 34.8965 60.0312C34.8965 59.2891 34.6816 58.7227 34.252 58.332C33.8288 57.9414 33.1322 57.7461 32.1621 57.7461H29.3398V62.375Z" fill="#262626"/>
<path d="M63.6934 43V35.7285L61.4902 36.6367V35.5234L64.6367 34.3516H64.8418V43H63.6934Z" fill="#A2A2A2"/>
<rect x="48" y="48" width="32" height="32" fill="#F9F9F9"/>
<rect x="48" y="48" width="32" height="32" stroke="#525252"/>
<path d="M57.4902 70.5L62.7441 56.1934H64.4043L69.6582 70.5H67.8223L63.9551 59.6016C63.877 59.3802 63.8086 59.1686 63.75 58.9668C63.6979 58.765 63.6458 58.5566 63.5938 58.3418H63.5059C63.4538 58.5566 63.3984 58.765 63.3398 58.9668C63.2812 59.1686 63.2129 59.3802 63.1348 59.6016L59.248 70.5H57.4902ZM59.7266 66.7402L60.2637 65.2852H66.8555L67.3828 66.7402H59.7266Z" fill="#262626"/>
<path d="M93.1211 43V42.1445L96.2441 38.8809C96.6504 38.4629 96.959 38.0898 97.1699 37.7617C97.3848 37.4297 97.4922 37.0703 97.4922 36.6836C97.4922 36.2969 97.3574 35.9609 97.0879 35.6758C96.8184 35.3906 96.4434 35.248 95.9629 35.248C95.4824 35.248 95.0781 35.4023 94.75 35.7109C94.4219 36.0156 94.2578 36.4375 94.2578 36.9766V37.0352H93.1152V36.9766C93.1152 36.1953 93.3867 35.5527 93.9297 35.0488C94.4766 34.5449 95.1543 34.293 95.9629 34.293C96.7637 34.293 97.4082 34.5254 97.8965 34.9902C98.3887 35.4551 98.6348 36 98.6348 36.625C98.6348 37.1836 98.4766 37.6895 98.1602 38.1426C97.8438 38.5918 97.4551 39.0508 96.9941 39.5195L94.5625 42.0156H98.8691V43H93.1211Z" fill="#A2A2A2"/>
<rect x="80" y="48" width="32" height="32" fill="#F9F9F9"/>
<rect x="80" y="48" width="32" height="32" stroke="#525252"/>
<path d="M90.584 63.8301V62.9512C90.584 60.7311 91.1309 59.0189 92.2246 57.8145C93.3249 56.6035 94.7018 55.998 96.3555 55.998C98.0156 55.998 99.3112 56.4538 100.242 57.3652C101.173 58.2767 101.639 59.3932 101.639 60.7148V60.8418H99.8711V60.7148C99.8711 59.7708 99.5781 59.0026 98.9922 58.4102C98.4128 57.8112 97.5339 57.5117 96.3555 57.5117C95.1836 57.5117 94.2266 57.9577 93.4844 58.8496C92.7422 59.7415 92.3711 61.1087 92.3711 62.9512V63.8301C92.3711 65.5423 92.7422 66.877 93.4844 67.834C94.2266 68.791 95.1868 69.2695 96.3652 69.2695C97.4785 69.2695 98.3184 68.9701 98.8848 68.3711C99.4577 67.7656 99.7832 66.9974 99.8613 66.0664L99.8711 65.9395H101.639L101.629 66.0762C101.518 67.3848 101.027 68.498 100.154 69.416C99.2819 70.3275 98.0156 70.7832 96.3555 70.7832C94.6758 70.7832 93.2923 70.1777 92.2051 68.9668C91.1243 67.7559 90.584 66.0436 90.584 63.8301Z" fill="#262626"/>
<path d="M124.939 40.7617V40.7031H126.059V40.7617C126.059 41.2266 126.217 41.5879 126.533 41.8457C126.854 42.0996 127.277 42.2266 127.805 42.2266C128.332 42.2266 128.754 42.0996 129.07 41.8457C129.387 41.5879 129.545 41.1875 129.545 40.6445C129.545 40.1055 129.367 39.6992 129.012 39.4258C128.656 39.1523 128.18 39.0156 127.582 39.0156H126.885V38.0898H127.523C128.074 38.0898 128.498 37.9609 128.795 37.7031C129.096 37.4453 129.246 37.084 129.246 36.6191C129.246 36.1582 129.115 35.8145 128.854 35.5879C128.596 35.3574 128.246 35.2422 127.805 35.2422C127.352 35.2422 126.986 35.3574 126.709 35.5879C126.436 35.8145 126.299 36.1406 126.299 36.5664V36.625H125.18V36.5664C125.18 35.9375 125.424 35.4023 125.912 34.9609C126.4 34.5156 127.031 34.293 127.805 34.293C128.566 34.293 129.189 34.5039 129.674 34.9258C130.158 35.3477 130.4 35.8926 130.4 36.5605C130.4 36.9512 130.291 37.3262 130.072 37.6855C129.854 38.041 129.514 38.3164 129.053 38.5117V38.5352C129.553 38.6602 129.953 38.9082 130.254 39.2793C130.555 39.6504 130.705 40.1055 130.705 40.6445C130.705 41.4336 130.432 42.0527 129.885 42.502C129.338 42.9512 128.645 43.1758 127.805 43.1758C126.938 43.1758 126.242 42.9512 125.719 42.502C125.199 42.0488 124.939 41.4688 124.939 40.7617Z" fill="#A2A2A2"/>
<rect x="112" y="48" width="32" height="32" fill="#F9F9F9"/>
<rect x="112" y="48" width="32" height="32" stroke="#525252"/>
<path d="M123.611 70.5V56.2812H128.162C129.555 56.2812 130.649 56.584 131.443 57.1895C132.244 57.7884 132.645 58.7324 132.645 60.0215C132.645 60.8092 132.449 61.4538 132.059 61.9551C131.674 62.4499 131.193 62.7982 130.613 63V63.0391C131.323 63.2409 131.902 63.6283 132.352 64.2012C132.801 64.7676 133.025 65.5098 133.025 66.4277C133.025 67.7233 132.609 68.7259 131.775 69.4355C130.942 70.1452 129.835 70.5 128.455 70.5H123.611ZM125.34 69.0352H128.455C129.425 69.0352 130.135 68.8008 130.584 68.332C131.04 67.8633 131.268 67.2285 131.268 66.4277C131.268 65.627 131.04 64.9922 130.584 64.5234C130.135 64.0547 129.425 63.8203 128.455 63.8203H125.34V69.0352ZM125.34 62.375H128.162C129.132 62.375 129.829 62.1699 130.252 61.7598C130.682 61.3431 130.896 60.7669 130.896 60.0312C130.896 59.2891 130.682 58.7227 130.252 58.332C129.829 57.9414 129.132 57.7461 128.162 57.7461H125.34V62.375Z" fill="#262626"/>
<path d="M160.801 43V40.668V40.3633V36.2383H160.73L158.088 40.0527H161.088H161.545H163.098V41.002H156.775V40.2285L160.836 34.4688H161.885V43H160.801Z" fill="#A2A2A2"/>
<rect x="144" y="48" width="32" height="32" fill="#F9F9F9"/>
<rect x="144" y="48" width="32" height="32" stroke="#525252"/>
<path d="M154.611 70.5V56.2812H158.693C160.497 56.2812 161.988 56.8835 163.166 58.0879C164.351 59.2858 164.943 60.9069 164.943 62.9512V63.8301C164.943 65.8743 164.354 67.4987 163.176 68.7031C161.997 69.901 160.503 70.5 158.693 70.5H154.611ZM156.379 69.0352H158.693C160.061 69.0352 161.145 68.5762 161.945 67.6582C162.753 66.7402 163.156 65.4642 163.156 63.8301V62.9512C163.156 61.3171 162.753 60.041 161.945 59.123C161.138 58.2051 160.054 57.7461 158.693 57.7461H156.379V69.0352Z" fill="#262626"/>
<path d="M189.057 40.8496V40.791H190.164V40.8496C190.164 41.2754 190.318 41.6113 190.627 41.8574C190.939 42.1035 191.355 42.2266 191.875 42.2266C192.395 42.2266 192.82 42.0566 193.152 41.7168C193.484 41.373 193.65 40.8926 193.65 40.2754C193.65 39.6582 193.484 39.1875 193.152 38.8633C192.82 38.5391 192.395 38.377 191.875 38.377C191.52 38.377 191.205 38.4414 190.932 38.5703C190.658 38.6992 190.402 38.8809 190.164 39.1152L189.355 38.7285L189.789 34.4688H194.336V35.4941H190.727L190.475 37.8789C190.67 37.7578 190.902 37.6523 191.172 37.5625C191.445 37.4688 191.742 37.4219 192.062 37.4219C192.82 37.4219 193.463 37.6738 193.99 38.1777C194.521 38.6777 194.787 39.377 194.787 40.2754C194.787 41.1738 194.512 41.8828 193.961 42.4023C193.41 42.918 192.715 43.1758 191.875 43.1758C191 43.1758 190.311 42.9551 189.807 42.5137C189.307 42.0723 189.057 41.5176 189.057 40.8496Z" fill="#A2A2A2"/>
<rect x="176" y="48" width="32" height="32" fill="#F9F9F9"/>
<rect x="176" y="48" width="32" height="32" stroke="#525252"/>
<path d="M185.49 70.5L190.744 56.1934H192.404L197.658 70.5H195.822L191.955 59.6016C191.877 59.3802 191.809 59.1686 191.75 58.9668C191.698 58.765 191.646 58.5566 191.594 58.3418H191.506C191.454 58.5566 191.398 58.765 191.34 58.9668C191.281 59.1686 191.213 59.3802 191.135 59.6016L187.248 70.5H185.49ZM187.727 66.7402L188.264 65.2852H194.855L195.383 66.7402H187.727Z" fill="#262626"/>
<path d="M220.986 39.4023V39.2266C220.986 37.7422 221.396 36.5488 222.217 35.6465C223.041 34.7441 224.213 34.293 225.732 34.293H225.855V35.248H225.732C224.615 35.248 223.732 35.5625 223.084 36.1914C222.436 36.8203 222.111 37.8125 222.111 39.168V39.4609C222.111 40.4688 222.295 41.1816 222.662 41.5996C223.029 42.0176 223.492 42.2266 224.051 42.2266C224.609 42.2266 225.041 42.0566 225.346 41.7168C225.654 41.377 225.809 40.8984 225.809 40.2812C225.809 39.6641 225.654 39.1875 225.346 38.8516C225.041 38.5156 224.609 38.3477 224.051 38.3477C223.531 38.3477 223.072 38.5156 222.674 38.8516C222.275 39.1875 222.076 39.6641 222.076 40.2812H221.654C221.654 39.418 221.895 38.7207 222.375 38.1895C222.855 37.6582 223.494 37.3926 224.291 37.3926C225.092 37.3926 225.734 37.6582 226.219 38.1895C226.707 38.7207 226.951 39.418 226.951 40.2812C226.951 41.1406 226.678 41.8379 226.131 42.373C225.584 42.9082 224.891 43.1758 224.051 43.1758C223.211 43.1758 222.49 42.8789 221.889 42.2852C221.287 41.6914 220.986 40.7305 220.986 39.4023Z" fill="#A2A2A2"/>
<rect x="208" y="48" width="32" height="32" fill="#F9F9F9"/>
<rect x="208" y="48" width="32" height="32" stroke="#525252"/>
<path d="M218.584 63.8301V62.9512C218.584 60.7311 219.131 59.0189 220.225 57.8145C221.325 56.6035 222.702 55.998 224.355 55.998C226.016 55.998 227.311 56.4538 228.242 57.3652C229.173 58.2767 229.639 59.3932 229.639 60.7148V60.8418H227.871V60.7148C227.871 59.7708 227.578 59.0026 226.992 58.4102C226.413 57.8112 225.534 57.5117 224.355 57.5117C223.184 57.5117 222.227 57.9577 221.484 58.8496C220.742 59.7415 220.371 61.1087 220.371 62.9512V63.8301C220.371 65.5423 220.742 66.877 221.484 67.834C222.227 68.791 223.187 69.2695 224.365 69.2695C225.479 69.2695 226.318 68.9701 226.885 68.3711C227.458 67.7656 227.783 66.9974 227.861 66.0664L227.871 65.9395H229.639L229.629 66.0762C229.518 67.3848 229.027 68.498 228.154 69.416C227.282 70.3275 226.016 70.7832 224.355 70.7832C222.676 70.7832 221.292 70.1777 220.205 68.9668C219.124 67.7559 218.584 66.0436 218.584 63.8301Z" fill="#262626"/>
<path d="M254.24 43L257.551 35.4414H252.939V34.4688H258.758V35.1133L255.418 43H254.24Z" fill="#A2A2A2"/>
<rect x="240" y="48" width="32" height="32" fill="#A6F2CF"/>
<rect x="240" y="48" width="32" height="32" stroke="#525252"/>
<path d="M251.611 70.5V56.2812H256.162C257.555 56.2812 258.649 56.584 259.443 57.1895C260.244 57.7884 260.645 58.7324 260.645 60.0215C260.645 60.8092 260.449 61.4538 260.059 61.9551C259.674 62.4499 259.193 62.7982 258.613 63V63.0391C259.323 63.2409 259.902 63.6283 260.352 64.2012C260.801 64.7676 261.025 65.5098 261.025 66.4277C261.025 67.7233 260.609 68.7259 259.775 69.4355C258.942 70.1452 257.835 70.5 256.455 70.5H251.611ZM253.34 69.0352H256.455C257.425 69.0352 258.135 68.8008 258.584 68.332C259.04 67.8633 259.268 67.2285 259.268 66.4277C259.268 65.627 259.04 64.9922 258.584 64.5234C258.135 64.0547 257.425 63.8203 256.455 63.8203H253.34V69.0352ZM253.34 62.375H256.162C257.132 62.375 257.829 62.1699 258.252 61.7598C258.682 61.3431 258.896 60.7669 258.896 60.0312C258.896 59.2891 258.682 58.7227 258.252 58.332C257.829 57.9414 257.132 57.7461 256.162 57.7461H253.34V62.375Z" fill="#262626"/>
<path d="M285.08 40.7383C285.08 40.2305 285.223 39.7969 285.508 39.4375C285.793 39.0781 286.158 38.8105 286.604 38.6348V38.6113C286.26 38.4434 285.965 38.1895 285.719 37.8496C285.477 37.5059 285.355 37.0996 285.355 36.6309C285.355 35.9277 285.604 35.3633 286.1 34.9375C286.6 34.5078 287.209 34.293 287.928 34.293C288.646 34.293 289.252 34.5059 289.744 34.9316C290.24 35.3574 290.488 35.9238 290.488 36.6309C290.488 37.0996 290.367 37.5059 290.125 37.8496C289.883 38.1895 289.59 38.4434 289.246 38.6113V38.6348C289.691 38.8105 290.055 39.0781 290.336 39.4375C290.621 39.7969 290.764 40.2305 290.764 40.7383C290.764 41.5117 290.49 42.1113 289.943 42.5371C289.396 42.9629 288.725 43.1758 287.928 43.1758C287.131 43.1758 286.457 42.9629 285.906 42.5371C285.355 42.1113 285.08 41.5117 285.08 40.7383ZM286.211 40.6738C286.211 41.1387 286.367 41.5137 286.68 41.7988C286.996 42.084 287.412 42.2266 287.928 42.2266C288.443 42.2266 288.857 42.084 289.17 41.7988C289.482 41.5137 289.639 41.1387 289.639 40.6738C289.639 40.209 289.482 39.832 289.17 39.543C288.857 39.2539 288.443 39.1094 287.928 39.1094C287.412 39.1094 286.996 39.2539 286.68 39.543C286.367 39.832 286.211 40.209 286.211 40.6738ZM286.463 36.6953C286.463 37.1211 286.598 37.4727 286.867 37.75C287.137 38.0234 287.49 38.1602 287.928 38.1602C288.365 38.1602 288.717 38.0234 288.982 37.75C289.252 37.4727 289.387 37.1211 289.387 36.6953C289.387 36.2695 289.252 35.9219 288.982 35.6523C288.717 35.3789 288.365 35.2422 287.928 35.2422C287.49 35.2422 287.137 35.3789 286.867 35.6523C286.598 35.9219 286.463 36.2695 286.463 36.6953Z" fill="#A2A2A2"/>
<rect x="272" y="48" width="32" height="32" fill="#A6F2CF"/>
<rect x="272" y="48" width="32" height="32" stroke="#525252"/>
<path d="M281.49 70.5L286.744 56.1934H288.404L293.658 70.5H291.822L287.955 59.6016C287.877 59.3802 287.809 59.1686 287.75 58.9668C287.698 58.765 287.646 58.5566 287.594 58.3418H287.506C287.454 58.5566 287.398 58.765 287.34 58.9668C287.281 59.1686 287.213 59.3802 287.135 59.6016L283.248 70.5H281.49ZM283.727 66.7402L284.264 65.2852H290.855L291.383 66.7402H283.727Z" fill="#262626"/>
<path d="M316.893 37.1289C316.893 36.2852 317.166 35.6016 317.713 35.0781C318.264 34.5547 318.957 34.293 319.793 34.293C320.633 34.293 321.354 34.5898 321.955 35.1836C322.561 35.7773 322.863 36.7383 322.863 38.0664V38.2422C322.863 39.6562 322.451 40.8125 321.627 41.7109C320.807 42.6094 319.637 43.0586 318.117 43.0586H317.994V42.1035H318.111C319.232 42.1035 320.115 41.791 320.76 41.166C321.408 40.541 321.732 39.5859 321.732 38.3008V38.0078C321.732 37 321.549 36.2871 321.182 35.8691C320.814 35.4512 320.352 35.2422 319.793 35.2422C319.234 35.2422 318.801 35.4082 318.492 35.7402C318.188 36.0684 318.035 36.5312 318.035 37.1289C318.035 37.7266 318.188 38.1895 318.492 38.5176C318.801 38.8418 319.234 39.0039 319.793 39.0039C320.312 39.0039 320.771 38.8418 321.17 38.5176C321.568 38.1895 321.768 37.7266 321.768 37.1289H322.189C322.189 37.9766 321.949 38.6602 321.469 39.1797C320.992 39.6992 320.354 39.959 319.553 39.959C318.76 39.959 318.117 39.6992 317.625 39.1797C317.137 38.6602 316.893 37.9766 316.893 37.1289Z" fill="#A2A2A2"/>
<rect x="304" y="48" width="32" height="32" fill="#F9F9F9"/>
<rect x="304" y="48" width="32" height="32" stroke="#525252"/>
<path d="M314.611 70.5V56.2812H318.693C320.497 56.2812 321.988 56.8835 323.166 58.0879C324.351 59.2858 324.943 60.9069 324.943 62.9512V63.8301C324.943 65.8743 324.354 67.4987 323.176 68.7031C321.997 69.901 320.503 70.5 318.693 70.5H314.611ZM316.379 69.0352H318.693C320.061 69.0352 321.145 68.5762 321.945 67.6582C322.753 66.7402 323.156 65.4642 323.156 63.8301V62.9512C323.156 61.3171 322.753 60.041 321.945 59.123C321.138 58.2051 320.054 57.7461 318.693 57.7461H316.379V69.0352Z" fill="#262626"/>
<path d="M348.193 43V35.7285L345.99 36.6367V35.5234L349.137 34.3516H349.342V43H348.193ZM352.465 40.2402V37.2285C352.465 36.3496 352.711 35.6406 353.203 35.1016C353.699 34.5625 354.387 34.293 355.266 34.293C356.137 34.293 356.822 34.5625 357.322 35.1016C357.822 35.6406 358.072 36.3496 358.072 37.2285V40.2402C358.072 41.123 357.822 41.834 357.322 42.373C356.822 42.9082 356.137 43.1758 355.266 43.1758C354.387 43.1758 353.699 42.9082 353.203 42.373C352.711 41.834 352.465 41.123 352.465 40.2402ZM353.625 40.2988C353.625 40.8574 353.758 41.3184 354.023 41.6816C354.293 42.041 354.707 42.2207 355.266 42.2207C355.824 42.2207 356.238 42.041 356.508 41.6816C356.777 41.3184 356.912 40.8574 356.912 40.2988V37.1699C356.912 36.6113 356.777 36.1523 356.508 35.793C356.238 35.4297 355.824 35.248 355.266 35.248C354.707 35.248 354.293 35.4297 354.023 35.793C353.758 36.1523 353.625 36.6113 353.625 37.1699V40.2988Z" fill="#A2A2A2"/>
<rect x="336" y="48" width="32" height="32" fill="#F9F9F9"/>
<rect x="336" y="48" width="32" height="32" stroke="#525252"/>
<path d="M347.611 70.5V56.2812H352.162C353.555 56.2812 354.649 56.584 355.443 57.1895C356.244 57.7884 356.645 58.7324 356.645 60.0215C356.645 60.8092 356.449 61.4538 356.059 61.9551C355.674 62.4499 355.193 62.7982 354.613 63V63.0391C355.323 63.2409 355.902 63.6283 356.352 64.2012C356.801 64.7676 357.025 65.5098 357.025 66.4277C357.025 67.7233 356.609 68.7259 355.775 69.4355C354.942 70.1452 353.835 70.5 352.455 70.5H347.611ZM349.34 69.0352H352.455C353.425 69.0352 354.135 68.8008 354.584 68.332C355.04 67.8633 355.268 67.2285 355.268 66.4277C355.268 65.627 355.04 64.9922 354.584 64.5234C354.135 64.0547 353.425 63.8203 352.455 63.8203H349.34V69.0352ZM349.34 62.375H352.162C353.132 62.375 353.829 62.1699 354.252 61.7598C354.682 61.3431 354.896 60.7669 354.896 60.0312C354.896 59.2891 354.682 58.7227 354.252 58.332C353.829 57.9414 353.132 57.7461 352.162 57.7461H349.34V62.375Z" fill="#262626"/>
<path d="M380.193 43V35.7285L377.99 36.6367V35.5234L381.137 34.3516H381.342V43H380.193ZM387.037 43V35.7285L384.834 36.6367V35.5234L387.98 34.3516H388.186V43H387.037Z" fill="#A2A2A2"/>
<rect x="368" y="48" width="32" height="32" fill="#F9F9F9"/>
<rect x="368" y="48" width="32" height="32" stroke="#525252"/>
<path d="M377.49 70.5L382.744 56.1934H384.404L389.658 70.5H387.822L383.955 59.6016C383.877 59.3802 383.809 59.1686 383.75 58.9668C383.698 58.765 383.646 58.5566 383.594 58.3418H383.506C383.454 58.5566 383.398 58.765 383.34 58.9668C383.281 59.1686 383.213 59.3802 383.135 59.6016L379.248 70.5H377.49ZM379.727 66.7402L380.264 65.2852H386.855L387.383 66.7402H379.727Z" fill="#262626"/>
<path d="M412.193 43V35.7285L409.99 36.6367V35.5234L413.137 34.3516H413.342V43H412.193ZM416.465 43V42.1445L419.588 38.8809C419.994 38.4629 420.303 38.0898 420.514 37.7617C420.729 37.4297 420.836 37.0703 420.836 36.6836C420.836 36.2969 420.701 35.9609 420.432 35.6758C420.162 35.3906 419.787 35.248 419.307 35.248C418.826 35.248 418.422 35.4023 418.094 35.7109C417.766 36.0156 417.602 36.4375 417.602 36.9766V37.0352H416.459V36.9766C416.459 36.1953 416.73 35.5527 417.273 35.0488C417.82 34.5449 418.498 34.293 419.307 34.293C420.107 34.293 420.752 34.5254 421.24 34.9902C421.732 35.4551 421.979 36 421.979 36.625C421.979 37.1836 421.82 37.6895 421.504 38.1426C421.188 38.5918 420.799 39.0508 420.338 39.5195L417.906 42.0156H422.213V43H416.465Z" fill="#A2A2A2"/>
<rect x="400" y="48" width="32" height="32" fill="#F9F9F9"/>
<rect x="400" y="48" width="32" height="32" stroke="#525252"/>
<path d="M410.611 70.5V56.2812H414.693C416.497 56.2812 417.988 56.8835 419.166 58.0879C420.351 59.2858 420.943 60.9069 420.943 62.9512V63.8301C420.943 65.8743 420.354 67.4987 419.176 68.7031C417.997 69.901 416.503 70.5 414.693 70.5H410.611ZM412.379 69.0352H414.693C416.061 69.0352 417.145 68.5762 417.945 67.6582C418.753 66.7402 419.156 65.4642 419.156 63.8301V62.9512C419.156 61.3171 418.753 60.041 417.945 59.123C417.138 58.2051 416.054 57.7461 414.693 57.7461H412.379V69.0352Z" fill="#262626"/>
<path d="M444.193 43V35.7285L441.99 36.6367V35.5234L445.137 34.3516H445.342V43H444.193ZM448.283 40.7617V40.7031H449.402V40.7617C449.402 41.2266 449.561 41.5879 449.877 41.8457C450.197 42.0996 450.621 42.2266 451.148 42.2266C451.676 42.2266 452.098 42.0996 452.414 41.8457C452.73 41.5879 452.889 41.1875 452.889 40.6445C452.889 40.1055 452.711 39.6992 452.355 39.4258C452 39.1523 451.523 39.0156 450.926 39.0156H450.229V38.0898H450.867C451.418 38.0898 451.842 37.9609 452.139 37.7031C452.439 37.4453 452.59 37.084 452.59 36.6191C452.59 36.1582 452.459 35.8145 452.197 35.5879C451.939 35.3574 451.59 35.2422 451.148 35.2422C450.695 35.2422 450.33 35.3574 450.053 35.5879C449.779 35.8145 449.643 36.1406 449.643 36.5664V36.625H448.523V36.5664C448.523 35.9375 448.768 35.4023 449.256 34.9609C449.744 34.5156 450.375 34.293 451.148 34.293C451.91 34.293 452.533 34.5039 453.018 34.9258C453.502 35.3477 453.744 35.8926 453.744 36.5605C453.744 36.9512 453.635 37.3262 453.416 37.6855C453.197 38.041 452.857 38.3164 452.396 38.5117V38.5352C452.896 38.6602 453.297 38.9082 453.598 39.2793C453.898 39.6504 454.049 40.1055 454.049 40.6445C454.049 41.4336 453.775 42.0527 453.229 42.502C452.682 42.9512 451.988 43.1758 451.148 43.1758C450.281 43.1758 449.586 42.9512 449.062 42.502C448.543 42.0488 448.283 41.4688 448.283 40.7617Z" fill="#A2A2A2"/>
<rect x="432" y="48" width="32" height="32" fill="#F9F9F9"/>
<rect x="432" y="48" width="32" height="32" stroke="#525252"/>
<path d="M443.611 70.5V56.2812H448.162C449.555 56.2812 450.649 56.584 451.443 57.1895C452.244 57.7884 452.645 58.7324 452.645 60.0215C452.645 60.8092 452.449 61.4538 452.059 61.9551C451.674 62.4499 451.193 62.7982 450.613 63V63.0391C451.323 63.2409 451.902 63.6283 452.352 64.2012C452.801 64.7676 453.025 65.5098 453.025 66.4277C453.025 67.7233 452.609 68.7259 451.775 69.4355C450.942 70.1452 449.835 70.5 448.455 70.5H443.611ZM445.34 69.0352H448.455C449.425 69.0352 450.135 68.8008 450.584 68.332C451.04 67.8633 451.268 67.2285 451.268 66.4277C451.268 65.627 451.04 64.9922 450.584 64.5234C450.135 64.0547 449.425 63.8203 448.455 63.8203H445.34V69.0352ZM445.34 62.375H448.162C449.132 62.375 449.829 62.1699 450.252 61.7598C450.682 61.3431 450.896 60.7669 450.896 60.0312C450.896 59.2891 450.682 58.7227 450.252 58.332C449.829 57.9414 449.132 57.7461 448.162 57.7461H445.34V62.375Z" fill="#262626"/>
<path d="M476.193 43V35.7285L473.99 36.6367V35.5234L477.137 34.3516H477.342V43H476.193ZM484.145 43V40.668V40.3633V36.2383H484.074L481.432 40.0527H484.432H484.889H486.441V41.002H480.119V40.2285L484.18 34.4688H485.229V43H484.145Z" fill="#A2A2A2"/>
<rect x="464" y="48" width="32" height="32" fill="#F9F9F9"/>
<rect x="464" y="48" width="32" height="32" stroke="#525252"/>
<path d="M473.49 70.5L478.744 56.1934H480.404L485.658 70.5H483.822L479.955 59.6016C479.877 59.3802 479.809 59.1686 479.75 58.9668C479.698 58.765 479.646 58.5566 479.594 58.3418H479.506C479.454 58.5566 479.398 58.765 479.34 58.9668C479.281 59.1686 479.213 59.3802 479.135 59.6016L475.248 70.5H473.49ZM475.727 66.7402L476.264 65.2852H482.855L483.383 66.7402H475.727Z" fill="#262626"/>
<path d="M508.193 43V35.7285L505.99 36.6367V35.5234L509.137 34.3516H509.342V43H508.193ZM512.4 40.8496V40.791H513.508V40.8496C513.508 41.2754 513.662 41.6113 513.971 41.8574C514.283 42.1035 514.699 42.2266 515.219 42.2266C515.738 42.2266 516.164 42.0566 516.496 41.7168C516.828 41.373 516.994 40.8926 516.994 40.2754C516.994 39.6582 516.828 39.1875 516.496 38.8633C516.164 38.5391 515.738 38.377 515.219 38.377C514.863 38.377 514.549 38.4414 514.275 38.5703C514.002 38.6992 513.746 38.8809 513.508 39.1152L512.699 38.7285L513.133 34.4688H517.68V35.4941H514.07L513.818 37.8789C514.014 37.7578 514.246 37.6523 514.516 37.5625C514.789 37.4688 515.086 37.4219 515.406 37.4219C516.164 37.4219 516.807 37.6738 517.334 38.1777C517.865 38.6777 518.131 39.377 518.131 40.2754C518.131 41.1738 517.855 41.8828 517.305 42.4023C516.754 42.918 516.059 43.1758 515.219 43.1758C514.344 43.1758 513.654 42.9551 513.15 42.5137C512.65 42.0723 512.4 41.5176 512.4 40.8496Z" fill="#A2A2A2"/>
<rect x="496" y="48" width="32" height="32" fill="#F9F9F9"/>
<rect x="496" y="48" width="32" height="32" stroke="#525252"/>
<path d="M506.584 63.8301V62.9512C506.584 60.7311 507.131 59.0189 508.225 57.8145C509.325 56.6035 510.702 55.998 512.355 55.998C514.016 55.998 515.311 56.4538 516.242 57.3652C517.173 58.2767 517.639 59.3932 517.639 60.7148V60.8418H515.871V60.7148C515.871 59.7708 515.578 59.0026 514.992 58.4102C514.413 57.8112 513.534 57.5117 512.355 57.5117C511.184 57.5117 510.227 57.9577 509.484 58.8496C508.742 59.7415 508.371 61.1087 508.371 62.9512V63.8301C508.371 65.5423 508.742 66.877 509.484 67.834C510.227 68.791 511.187 69.2695 512.365 69.2695C513.479 69.2695 514.318 68.9701 514.885 68.3711C515.458 67.7656 515.783 66.9974 515.861 66.0664L515.871 65.9395H517.639L517.629 66.0762C517.518 67.3848 517.027 68.498 516.154 69.416C515.282 70.3275 514.016 70.7832 512.355 70.7832C510.676 70.7832 509.292 70.1777 508.205 68.9668C507.124 67.7559 506.584 66.0436 506.584 63.8301Z" fill="#262626"/>
<path d="M540.193 43V35.7285L537.99 36.6367V35.5234L541.137 34.3516H541.342V43H540.193ZM544.33 39.4023V39.2266C544.33 37.7422 544.74 36.5488 545.561 35.6465C546.385 34.7441 547.557 34.293 549.076 34.293H549.199V35.248H549.076C547.959 35.248 547.076 35.5625 546.428 36.1914C545.779 36.8203 545.455 37.8125 545.455 39.168V39.4609C545.455 40.4688 545.639 41.1816 546.006 41.5996C546.373 42.0176 546.836 42.2266 547.395 42.2266C547.953 42.2266 548.385 42.0566 548.689 41.7168C548.998 41.377 549.152 40.8984 549.152 40.2812C549.152 39.6641 548.998 39.1875 548.689 38.8516C548.385 38.5156 547.953 38.3477 547.395 38.3477C546.875 38.3477 546.416 38.5156 546.018 38.8516C545.619 39.1875 545.42 39.6641 545.42 40.2812H544.998C544.998 39.418 545.238 38.7207 545.719 38.1895C546.199 37.6582 546.838 37.3926 547.635 37.3926C548.436 37.3926 549.078 37.6582 549.562 38.1895C550.051 38.7207 550.295 39.418 550.295 40.2812C550.295 41.1406 550.021 41.8379 549.475 42.373C548.928 42.9082 548.234 43.1758 547.395 43.1758C546.555 43.1758 545.834 42.8789 545.232 42.2852C544.631 41.6914 544.33 40.7305 544.33 39.4023Z" fill="#A2A2A2"/>
<rect x="528" y="48" width="32" height="32" fill="#F9F9F9"/>
<rect x="528" y="48" width="32" height="32" stroke="#525252"/>
<path d="M538.584 63.8301V62.9512C538.584 60.7311 539.131 59.0189 540.225 57.8145C541.325 56.6035 542.702 55.998 544.355 55.998C546.016 55.998 547.311 56.4538 548.242 57.3652C549.173 58.2767 549.639 59.3932 549.639 60.7148V60.8418H547.871V60.7148C547.871 59.7708 547.578 59.0026 546.992 58.4102C546.413 57.8112 545.534 57.5117 544.355 57.5117C543.184 57.5117 542.227 57.9577 541.484 58.8496C540.742 59.7415 540.371 61.1087 540.371 62.9512V63.8301C540.371 65.5423 540.742 66.877 541.484 67.834C542.227 68.791 543.187 69.2695 544.365 69.2695C545.479 69.2695 546.318 68.9701 546.885 68.3711C547.458 67.7656 547.783 66.9974 547.861 66.0664L547.871 65.9395H549.639L549.629 66.0762C549.518 67.3848 549.027 68.498 548.154 69.416C547.282 70.3275 546.016 70.7832 544.355 70.7832C542.676 70.7832 541.292 70.1777 540.205 68.9668C539.124 67.7559 538.584 66.0436 538.584 63.8301Z" fill="#262626"/>
<path d="M572.193 43V35.7285L569.99 36.6367V35.5234L573.137 34.3516H573.342V43H572.193ZM577.584 43L580.895 35.4414H576.283V34.4688H582.102V35.1133L578.762 43H577.584Z" fill="#A2A2A2"/>
<rect x="560" y="48" width="32" height="32" fill="#F9F9F9"/>
<rect x="560" y="48" width="32" height="32" stroke="#525252"/>
<path d="M571.611 70.5V56.2812H576.162C577.555 56.2812 578.649 56.584 579.443 57.1895C580.244 57.7884 580.645 58.7324 580.645 60.0215C580.645 60.8092 580.449 61.4538 580.059 61.9551C579.674 62.4499 579.193 62.7982 578.613 63V63.0391C579.323 63.2409 579.902 63.6283 580.352 64.2012C580.801 64.7676 581.025 65.5098 581.025 66.4277C581.025 67.7233 580.609 68.7259 579.775 69.4355C578.942 70.1452 577.835 70.5 576.455 70.5H571.611ZM573.34 69.0352H576.455C577.425 69.0352 578.135 68.8008 578.584 68.332C579.04 67.8633 579.268 67.2285 579.268 66.4277C579.268 65.627 579.04 64.9922 578.584 64.5234C578.135 64.0547 577.425 63.8203 576.455 63.8203H573.34V69.0352ZM573.34 62.375H576.162C577.132 62.375 577.829 62.1699 578.252 61.7598C578.682 61.3431 578.896 60.7669 578.896 60.0312C578.896 59.2891 578.682 58.7227 578.252 58.332C577.829 57.9414 577.132 57.7461 576.162 57.7461H573.34V62.375Z" fill="#262626"/>
<path d="M604.193 43V35.7285L601.99 36.6367V35.5234L605.137 34.3516H605.342V43H604.193ZM608.424 40.7383C608.424 40.2305 608.566 39.7969 608.852 39.4375C609.137 39.0781 609.502 38.8105 609.947 38.6348V38.6113C609.604 38.4434 609.309 38.1895 609.062 37.8496C608.82 37.5059 608.699 37.0996 608.699 36.6309C608.699 35.9277 608.947 35.3633 609.443 34.9375C609.943 34.5078 610.553 34.293 611.271 34.293C611.99 34.293 612.596 34.5059 613.088 34.9316C613.584 35.3574 613.832 35.9238 613.832 36.6309C613.832 37.0996 613.711 37.5059 613.469 37.8496C613.227 38.1895 612.934 38.4434 612.59 38.6113V38.6348C613.035 38.8105 613.398 39.0781 613.68 39.4375C613.965 39.7969 614.107 40.2305 614.107 40.7383C614.107 41.5117 613.834 42.1113 613.287 42.5371C612.74 42.9629 612.068 43.1758 611.271 43.1758C610.475 43.1758 609.801 42.9629 609.25 42.5371C608.699 42.1113 608.424 41.5117 608.424 40.7383ZM609.555 40.6738C609.555 41.1387 609.711 41.5137 610.023 41.7988C610.34 42.084 610.756 42.2266 611.271 42.2266C611.787 42.2266 612.201 42.084 612.514 41.7988C612.826 41.5137 612.982 41.1387 612.982 40.6738C612.982 40.209 612.826 39.832 612.514 39.543C612.201 39.2539 611.787 39.1094 611.271 39.1094C610.756 39.1094 610.34 39.2539 610.023 39.543C609.711 39.832 609.555 40.209 609.555 40.6738ZM609.807 36.6953C609.807 37.1211 609.941 37.4727 610.211 37.75C610.48 38.0234 610.834 38.1602 611.271 38.1602C611.709 38.1602 612.061 38.0234 612.326 37.75C612.596 37.4727 612.73 37.1211 612.73 36.6953C612.73 36.2695 612.596 35.9219 612.326 35.6523C612.061 35.3789 611.709 35.2422 611.271 35.2422C610.834 35.2422 610.48 35.3789 610.211 35.6523C609.941 35.9219 609.807 36.2695 609.807 36.6953Z" fill="#A2A2A2"/>
<rect x="592" y="48" width="32" height="32" fill="#F9F9F9"/>
<rect x="592" y="48" width="32" height="32" stroke="#525252"/>
<path d="M601.49 70.5L606.744 56.1934H608.404L613.658 70.5H611.822L607.955 59.6016C607.877 59.3802 607.809 59.1686 607.75 58.9668C607.698 58.765 607.646 58.5566 607.594 58.3418H607.506C607.454 58.5566 607.398 58.765 607.34 58.9668C607.281 59.1686 607.213 59.3802 607.135 59.6016L603.248 70.5H601.49ZM603.727 66.7402L604.264 65.2852H610.855L611.383 66.7402H603.727Z" fill="#262626"/>
<path d="M636.193 43V35.7285L633.99 36.6367V35.5234L637.137 34.3516H637.342V43H636.193ZM640.236 37.1289C640.236 36.2852 640.51 35.6016 641.057 35.0781C641.607 34.5547 642.301 34.293 643.137 34.293C643.977 34.293 644.697 34.5898 645.299 35.1836C645.904 35.7773 646.207 36.7383 646.207 38.0664V38.2422C646.207 39.6562 645.795 40.8125 644.971 41.7109C644.15 42.6094 642.98 43.0586 641.461 43.0586H641.338V42.1035H641.455C642.576 42.1035 643.459 41.791 644.104 41.166C644.752 40.541 645.076 39.5859 645.076 38.3008V38.0078C645.076 37 644.893 36.2871 644.525 35.8691C644.158 35.4512 643.695 35.2422 643.137 35.2422C642.578 35.2422 642.145 35.4082 641.836 35.7402C641.531 36.0684 641.379 36.5312 641.379 37.1289C641.379 37.7266 641.531 38.1895 641.836 38.5176C642.145 38.8418 642.578 39.0039 643.137 39.0039C643.656 39.0039 644.115 38.8418 644.514 38.5176C644.912 38.1895 645.111 37.7266 645.111 37.1289H645.533C645.533 37.9766 645.293 38.6602 644.812 39.1797C644.336 39.6992 643.697 39.959 642.896 39.959C642.104 39.959 641.461 39.6992 640.969 39.1797C640.48 38.6602 640.236 37.9766 640.236 37.1289Z" fill="#A2A2A2"/>
<rect x="624" y="48" width="32" height="32" fill="#F9F9F9"/>
<rect x="624" y="48" width="32" height="32" stroke="#525252"/>
<path d="M635.611 70.5V56.2812H640.162C641.555 56.2812 642.649 56.584 643.443 57.1895C644.244 57.7884 644.645 58.7324 644.645 60.0215C644.645 60.8092 644.449 61.4538 644.059 61.9551C643.674 62.4499 643.193 62.7982 642.613 63V63.0391C643.323 63.2409 643.902 63.6283 644.352 64.2012C644.801 64.7676 645.025 65.5098 645.025 66.4277C645.025 67.7233 644.609 68.7259 643.775 69.4355C642.942 70.1452 641.835 70.5 640.455 70.5H635.611ZM637.34 69.0352H640.455C641.425 69.0352 642.135 68.8008 642.584 68.332C643.04 67.8633 643.268 67.2285 643.268 66.4277C643.268 65.627 643.04 64.9922 642.584 64.5234C642.135 64.0547 641.425 63.8203 640.455 63.8203H637.34V69.0352ZM637.34 62.375H640.162C641.132 62.375 641.829 62.1699 642.252 61.7598C642.682 61.3431 642.896 60.7669 642.896 60.0312C642.896 59.2891 642.682 58.7227 642.252 58.332C641.829 57.9414 641.132 57.7461 640.162 57.7461H637.34V62.375Z" fill="#262626"/>
<path d="M665.621 43V42.1445L668.744 38.8809C669.15 38.4629 669.459 38.0898 669.67 37.7617C669.885 37.4297 669.992 37.0703 669.992 36.6836C669.992 36.2969 669.857 35.9609 669.588 35.6758C669.318 35.3906 668.943 35.248 668.463 35.248C667.982 35.248 667.578 35.4023 667.25 35.7109C666.922 36.0156 666.758 36.4375 666.758 36.9766V37.0352H665.615V36.9766C665.615 36.1953 665.887 35.5527 666.43 35.0488C666.977 34.5449 667.654 34.293 668.463 34.293C669.264 34.293 669.908 34.5254 670.396 34.9902C670.889 35.4551 671.135 36 671.135 36.625C671.135 37.1836 670.977 37.6895 670.66 38.1426C670.344 38.5918 669.955 39.0508 669.494 39.5195L667.062 42.0156H671.369V43H665.621ZM672.465 40.2402V37.2285C672.465 36.3496 672.711 35.6406 673.203 35.1016C673.699 34.5625 674.387 34.293 675.266 34.293C676.137 34.293 676.822 34.5625 677.322 35.1016C677.822 35.6406 678.072 36.3496 678.072 37.2285V40.2402C678.072 41.123 677.822 41.834 677.322 42.373C676.822 42.9082 676.137 43.1758 675.266 43.1758C674.387 43.1758 673.699 42.9082 673.203 42.373C672.711 41.834 672.465 41.123 672.465 40.2402ZM673.625 40.2988C673.625 40.8574 673.758 41.3184 674.023 41.6816C674.293 42.041 674.707 42.2207 675.266 42.2207C675.824 42.2207 676.238 42.041 676.508 41.6816C676.777 41.3184 676.912 40.8574 676.912 40.2988V37.1699C676.912 36.6113 676.777 36.1523 676.508 35.793C676.238 35.4297 675.824 35.248 675.266 35.248C674.707 35.248 674.293 35.4297 674.023 35.793C673.758 36.1523 673.625 36.6113 673.625 37.1699V40.2988Z" fill="#A2A2A2"/>
<rect x="656" y="48" width="32" height="32" fill="#F9F9F9"/>
<rect x="656" y="48" width="32" height="32" stroke="#525252"/>
<path d="M665.49 70.5L670.744 56.1934H672.404L677.658 70.5H675.822L671.955 59.6016C671.877 59.3802 671.809 59.1686 671.75 58.9668C671.698 58.765 671.646 58.5566 671.594 58.3418H671.506C671.454 58.5566 671.398 58.765 671.34 58.9668C671.281 59.1686 671.213 59.3802 671.135 59.6016L667.248 70.5H665.49ZM667.727 66.7402L668.264 65.2852H674.855L675.383 66.7402H667.727Z" fill="#262626"/>
<path d="M697.621 43V42.1445L700.744 38.8809C701.15 38.4629 701.459 38.0898 701.67 37.7617C701.885 37.4297 701.992 37.0703 701.992 36.6836C701.992 36.2969 701.857 35.9609 701.588 35.6758C701.318 35.3906 700.943 35.248 700.463 35.248C699.982 35.248 699.578 35.4023 699.25 35.7109C698.922 36.0156 698.758 36.4375 698.758 36.9766V37.0352H697.615V36.9766C697.615 36.1953 697.887 35.5527 698.43 35.0488C698.977 34.5449 699.654 34.293 700.463 34.293C701.264 34.293 701.908 34.5254 702.396 34.9902C702.889 35.4551 703.135 36 703.135 36.625C703.135 37.1836 702.977 37.6895 702.66 38.1426C702.344 38.5918 701.955 39.0508 701.494 39.5195L699.062 42.0156H703.369V43H697.621ZM707.037 43V35.7285L704.834 36.6367V35.5234L707.98 34.3516H708.186V43H707.037Z" fill="#A2A2A2"/>
<rect x="688" y="48" width="32" height="32" fill="#F9F9F9"/>
<rect x="688" y="48" width="32" height="32" stroke="#525252"/>
<path d="M698.611 70.5V56.2812H702.693C704.497 56.2812 705.988 56.8835 707.166 58.0879C708.351 59.2858 708.943 60.9069 708.943 62.9512V63.8301C708.943 65.8743 708.354 67.4987 707.176 68.7031C705.997 69.901 704.503 70.5 702.693 70.5H698.611ZM700.379 69.0352H702.693C704.061 69.0352 705.145 68.5762 705.945 67.6582C706.753 66.7402 707.156 65.4642 707.156 63.8301V62.9512C707.156 61.3171 706.753 60.041 705.945 59.123C705.138 58.2051 704.054 57.7461 702.693 57.7461H700.379V69.0352Z" fill="#262626"/>
<path d="M729.621 43V42.1445L732.744 38.8809C733.15 38.4629 733.459 38.0898 733.67 37.7617C733.885 37.4297 733.992 37.0703 733.992 36.6836C733.992 36.2969 733.857 35.9609 733.588 35.6758C733.318 35.3906 732.943 35.248 732.463 35.248C731.982 35.248 731.578 35.4023 731.25 35.7109C730.922 36.0156 730.758 36.4375 730.758 36.9766V37.0352H729.615V36.9766C729.615 36.1953 729.887 35.5527 730.43 35.0488C730.977 34.5449 731.654 34.293 732.463 34.293C733.264 34.293 733.908 34.5254 734.396 34.9902C734.889 35.4551 735.135 36 735.135 36.625C735.135 37.1836 734.977 37.6895 734.66 38.1426C734.344 38.5918 733.955 39.0508 733.494 39.5195L731.062 42.0156H735.369V43H729.621ZM736.465 43V42.1445L739.588 38.8809C739.994 38.4629 740.303 38.0898 740.514 37.7617C740.729 37.4297 740.836 37.0703 740.836 36.6836C740.836 36.2969 740.701 35.9609 740.432 35.6758C740.162 35.3906 739.787 35.248 739.307 35.248C738.826 35.248 738.422 35.4023 738.094 35.7109C737.766 36.0156 737.602 36.4375 737.602 36.9766V37.0352H736.459V36.9766C736.459 36.1953 736.73 35.5527 737.273 35.0488C737.82 34.5449 738.498 34.293 739.307 34.293C740.107 34.293 740.752 34.5254 741.24 34.9902C741.732 35.4551 741.979 36 741.979 36.625C741.979 37.1836 741.82 37.6895 741.504 38.1426C741.188 38.5918 740.799 39.0508 740.338 39.5195L737.906 42.0156H742.213V43H736.465Z" fill="#A2A2A2"/>
<rect x="720" y="48" width="32" height="32" fill="#F9F9F9"/>
<rect x="720" y="48" width="32" height="32" stroke="#525252"/>
<path d="M729.49 70.5L734.744 56.1934H736.404L741.658 70.5H739.822L735.955 59.6016C735.877 59.3802 735.809 59.1686 735.75 58.9668C735.698 58.765 735.646 58.5566 735.594 58.3418H735.506C735.454 58.5566 735.398 58.765 735.34 58.9668C735.281 59.1686 735.213 59.3802 735.135 59.6016L731.248 70.5H729.49ZM731.727 66.7402L732.264 65.2852H738.855L739.383 66.7402H731.727Z" fill="#262626"/>
<path d="M761.621 43V42.1445L764.744 38.8809C765.15 38.4629 765.459 38.0898 765.67 37.7617C765.885 37.4297 765.992 37.0703 765.992 36.6836C765.992 36.2969 765.857 35.9609 765.588 35.6758C765.318 35.3906 764.943 35.248 764.463 35.248C763.982 35.248 763.578 35.4023 763.25 35.7109C762.922 36.0156 762.758 36.4375 762.758 36.9766V37.0352H761.615V36.9766C761.615 36.1953 761.887 35.5527 762.43 35.0488C762.977 34.5449 763.654 34.293 764.463 34.293C765.264 34.293 765.908 34.5254 766.396 34.9902C766.889 35.4551 767.135 36 767.135 36.625C767.135 37.1836 766.977 37.6895 766.66 38.1426C766.344 38.5918 765.955 39.0508 765.494 39.5195L763.062 42.0156H767.369V43H761.621ZM768.283 40.7617V40.7031H769.402V40.7617C769.402 41.2266 769.561 41.5879 769.877 41.8457C770.197 42.0996 770.621 42.2266 771.148 42.2266C771.676 42.2266 772.098 42.0996 772.414 41.8457C772.73 41.5879 772.889 41.1875 772.889 40.6445C772.889 40.1055 772.711 39.6992 772.355 39.4258C772 39.1523 771.523 39.0156 770.926 39.0156H770.229V38.0898H770.867C771.418 38.0898 771.842 37.9609 772.139 37.7031C772.439 37.4453 772.59 37.084 772.59 36.6191C772.59 36.1582 772.459 35.8145 772.197 35.5879C771.939 35.3574 771.59 35.2422 771.148 35.2422C770.695 35.2422 770.33 35.3574 770.053 35.5879C769.779 35.8145 769.643 36.1406 769.643 36.5664V36.625H768.523V36.5664C768.523 35.9375 768.768 35.4023 769.256 34.9609C769.744 34.5156 770.375 34.293 771.148 34.293C771.91 34.293 772.533 34.5039 773.018 34.9258C773.502 35.3477 773.744 35.8926 773.744 36.5605C773.744 36.9512 773.635 37.3262 773.416 37.6855C773.197 38.041 772.857 38.3164 772.396 38.5117V38.5352C772.896 38.6602 773.297 38.9082 773.598 39.2793C773.898 39.6504 774.049 40.1055 774.049 40.6445C774.049 41.4336 773.775 42.0527 773.229 42.502C772.682 42.9512 771.988 43.1758 771.148 43.1758C770.281 43.1758 769.586 42.9512 769.062 42.502C768.543 42.0488 768.283 41.4688 768.283 40.7617Z" fill="#A2A2A2"/>
<rect x="752" y="48" width="32" height="32" fill="#F9F9F9"/>
<rect x="752" y="48" width="32" height="32" stroke="#525252"/>
<path d="M763.611 70.5V56.2812H768.162C769.555 56.2812 770.649 56.584 771.443 57.1895C772.244 57.7884 772.645 58.7324 772.645 60.0215C772.645 60.8092 772.449 61.4538 772.059 61.9551C771.674 62.4499 771.193 62.7982 770.613 63V63.0391C771.323 63.2409 771.902 63.6283 772.352 64.2012C772.801 64.7676 773.025 65.5098 773.025 66.4277C773.025 67.7233 772.609 68.7259 771.775 69.4355C770.942 70.1452 769.835 70.5 768.455 70.5H763.611ZM765.34 69.0352H768.455C769.425 69.0352 770.135 68.8008 770.584 68.332C771.04 67.8633 771.268 67.2285 771.268 66.4277C771.268 65.627 771.04 64.9922 770.584 64.5234C770.135 64.0547 769.425 63.8203 768.455 63.8203H765.34V69.0352ZM765.34 62.375H768.162C769.132 62.375 769.829 62.1699 770.252 61.7598C770.682 61.3431 770.896 60.7669 770.896 60.0312C770.896 59.2891 770.682 58.7227 770.252 58.332C769.829 57.9414 769.132 57.7461 768.162 57.7461H765.34V62.375Z" fill="#262626"/>
<rect x="16" y="114" width="32" height="32" fill="#F9F9F9"/>
<rect x="16" y="114" width="32" height="32" stroke="#525252"/>
<path d="M27.6113 136.5V122.281H32.1621C33.5553 122.281 34.6491 122.584 35.4434 123.189C36.2441 123.788 36.6445 124.732 36.6445 126.021C36.6445 126.809 36.4492 127.454 36.0586 127.955C35.6745 128.45 35.1927 128.798 34.6133 129V129.039C35.3229 129.241 35.9023 129.628 36.3516 130.201C36.8008 130.768 37.0254 131.51 37.0254 132.428C37.0254 133.723 36.6087 134.726 35.7754 135.436C34.9421 136.145 33.8353 136.5 32.4551 136.5H27.6113ZM29.3398 135.035H32.4551C33.4251 135.035 34.1348 134.801 34.584 134.332C35.0397 133.863 35.2676 133.229 35.2676 132.428C35.2676 131.627 35.0397 130.992 34.584 130.523C34.1348 130.055 33.4251 129.82 32.4551 129.82H29.3398V135.035ZM29.3398 128.375H32.1621C33.1322 128.375 33.8288 128.17 34.252 127.76C34.6816 127.343 34.8965 126.767 34.8965 126.031C34.8965 125.289 34.6816 124.723 34.252 124.332C33.8288 123.941 33.1322 123.746 32.1621 123.746H29.3398V128.375Z" fill="#262626"/>
<rect x="48" y="114" width="32" height="32" fill="#F9F9F9"/>
<rect x="48" y="114" width="32" height="32" stroke="#525252"/>
<path d="M57.4902 136.5L62.7441 122.193H64.4043L69.6582 136.5H67.8223L63.9551 125.602C63.877 125.38 63.8086 125.169 63.75 124.967C63.6979 124.765 63.6458 124.557 63.5938 124.342H63.5059C63.4538 124.557 63.3984 124.765 63.3398 124.967C63.2812 125.169 63.2129 125.38 63.1348 125.602L59.248 136.5H57.4902ZM59.7266 132.74L60.2637 131.285H66.8555L67.3828 132.74H59.7266Z" fill="#262626"/>
<rect x="80" y="114" width="32" height="32" fill="#F9F9F9"/>
<rect x="80" y="114" width="32" height="32" stroke="#525252"/>
<path d="M90.584 129.83V128.951C90.584 126.731 91.1309 125.019 92.2246 123.814C93.3249 122.604 94.7018 121.998 96.3555 121.998C98.0156 121.998 99.3112 122.454 100.242 123.365C101.173 124.277 101.639 125.393 101.639 126.715V126.842H99.8711V126.715C99.8711 125.771 99.5781 125.003 98.9922 124.41C98.4128 123.811 97.5339 123.512 96.3555 123.512C95.1836 123.512 94.2266 123.958 93.4844 124.85C92.7422 125.742 92.3711 127.109 92.3711 128.951V129.83C92.3711 131.542 92.7422 132.877 93.4844 133.834C94.2266 134.791 95.1868 135.27 96.3652 135.27C97.4785 135.27 98.3184 134.97 98.8848 134.371C99.4577 133.766 99.7832 132.997 99.8613 132.066L99.8711 131.939H101.639L101.629 132.076C101.518 133.385 101.027 134.498 100.154 135.416C99.2819 136.327 98.0156 136.783 96.3555 136.783C94.6758 136.783 93.2923 136.178 92.2051 134.967C91.1243 133.756 90.584 132.044 90.584 129.83Z" fill="#262626"/>
<rect x="112" y="114" width="32" height="32" fill="#F9F9F9"/>
<rect x="112" y="114" width="32" height="32" stroke="#525252"/>
<path d="M123.611 136.5V122.281H128.162C129.555 122.281 130.649 122.584 131.443 123.189C132.244 123.788 132.645 124.732 132.645 126.021C132.645 126.809 132.449 127.454 132.059 127.955C131.674 128.45 131.193 128.798 130.613 129V129.039C131.323 129.241 131.902 129.628 132.352 130.201C132.801 130.768 133.025 131.51 133.025 132.428C133.025 133.723 132.609 134.726 131.775 135.436C130.942 136.145 129.835 136.5 128.455 136.5H123.611ZM125.34 135.035H128.455C129.425 135.035 130.135 134.801 130.584 134.332C131.04 133.863 131.268 133.229 131.268 132.428C131.268 131.627 131.04 130.992 130.584 130.523C130.135 130.055 129.425 129.82 128.455 129.82H125.34V135.035ZM125.34 128.375H128.162C129.132 128.375 129.829 128.17 130.252 127.76C130.682 127.343 130.896 126.767 130.896 126.031C130.896 125.289 130.682 124.723 130.252 124.332C129.829 123.941 129.132 123.746 128.162 123.746H125.34V128.375Z" fill="#262626"/>
<rect x="144" y="114" width="32" height="32" fill="#F9F9F9"/>
<rect x="144" y="114" width="32" height="32" stroke="#525252"/>
<path d="M154.611 136.5V122.281H158.693C160.497 122.281 161.988 122.883 163.166 124.088C164.351 125.286 164.943 126.907 164.943 128.951V129.83C164.943 131.874 164.354 133.499 163.176 134.703C161.997 135.901 160.503 136.5 158.693 136.5H154.611ZM156.379 135.035H158.693C160.061 135.035 161.145 134.576 161.945 133.658C162.753 132.74 163.156 131.464 163.156 129.83V128.951C163.156 127.317 162.753 126.041 161.945 125.123C161.138 124.205 160.054 123.746 158.693 123.746H156.379V135.035Z" fill="#262626"/>
<rect x="176" y="114" width="32" height="32" fill="#F9F9F9"/>
<rect x="176" y="114" width="32" height="32" stroke="#525252"/>
<path d="M185.49 136.5L190.744 122.193H192.404L197.658 136.5H195.822L191.955 125.602C191.877 125.38 191.809 125.169 191.75 124.967C191.698 124.765 191.646 124.557 191.594 124.342H191.506C191.454 124.557 191.398 124.765 191.34 124.967C191.281 125.169 191.213 125.38 191.135 125.602L187.248 136.5H185.49ZM187.727 132.74L188.264 131.285H194.855L195.383 132.74H187.727Z" fill="#262626"/>
<rect x="208" y="114" width="32" height="32" fill="#FDCCD2"/>
<rect x="208" y="114" width="32" height="32" stroke="#525252"/>
<path d="M218.584 129.83V128.951C218.584 126.731 219.131 125.019 220.225 123.814C221.325 122.604 222.702 121.998 224.355 121.998C226.016 121.998 227.311 122.454 228.242 123.365C229.173 124.277 229.639 125.393 229.639 126.715V126.842H227.871V126.715C227.871 125.771 227.578 125.003 226.992 124.41C226.413 123.811 225.534 123.512 224.355 123.512C223.184 123.512 222.227 123.958 221.484 124.85C220.742 125.742 220.371 127.109 220.371 128.951V129.83C220.371 131.542 220.742 132.877 221.484 133.834C222.227 134.791 223.187 135.27 224.365 135.27C225.479 135.27 226.318 134.97 226.885 134.371C227.458 133.766 227.783 132.997 227.861 132.066L227.871 131.939H229.639L229.629 132.076C229.518 133.385 229.027 134.498 228.154 135.416C227.282 136.327 226.016 136.783 224.355 136.783C222.676 136.783 221.292 136.178 220.205 134.967C219.124 133.756 218.584 132.044 218.584 129.83Z" fill="#262626"/>
<rect x="240" y="114" width="32" height="32" fill="#A6F2CF"/>
<rect x="240" y="114" width="32" height="32" stroke="#525252"/>
<path d="M251.611 136.5V122.281H256.162C257.555 122.281 258.649 122.584 259.443 123.189C260.244 123.788 260.645 124.732 260.645 126.021C260.645 126.809 260.449 127.454 260.059 127.955C259.674 128.45 259.193 128.798 258.613 129V129.039C259.323 129.241 259.902 129.628 260.352 130.201C260.801 130.768 261.025 131.51 261.025 132.428C261.025 133.723 260.609 134.726 259.775 135.436C258.942 136.145 257.835 136.5 256.455 136.5H251.611ZM253.34 135.035H256.455C257.425 135.035 258.135 134.801 258.584 134.332C259.04 133.863 259.268 133.229 259.268 132.428C259.268 131.627 259.04 130.992 258.584 130.523C258.135 130.055 257.425 129.82 256.455 129.82H253.34V135.035ZM253.34 128.375H256.162C257.132 128.375 257.829 128.17 258.252 127.76C258.682 127.343 258.896 126.767 258.896 126.031C258.896 125.289 258.682 124.723 258.252 124.332C257.829 123.941 257.132 123.746 256.162 123.746H253.34V128.375Z" fill="#262626"/>
<rect x="272" y="114" width="32" height="32" fill="#A6F2CF"/>
<rect x="272" y="114" width="32" height="32" stroke="#525252"/>
<path d="M281.49 136.5L286.744 122.193H288.404L293.658 136.5H291.822L287.955 125.602C287.877 125.38 287.809 125.169 287.75 124.967C287.698 124.765 287.646 124.557 287.594 124.342H287.506C287.454 124.557 287.398 124.765 287.34 124.967C287.281 125.169 287.213 125.38 287.135 125.602L283.248 136.5H281.49ZM283.727 132.74L284.264 131.285H290.855L291.383 132.74H283.727Z" fill="#262626"/>
<rect x="208" y="146" width="32" height="32" fill="#F9F9F9"/>
<rect x="208" y="146" width="32" height="32" stroke="#525252"/>
<path d="M219.611 168.5V154.281H224.162C225.555 154.281 226.649 154.584 227.443 155.189C228.244 155.788 228.645 156.732 228.645 158.021C228.645 158.809 228.449 159.454 228.059 159.955C227.674 160.45 227.193 160.798 226.613 161V161.039C227.323 161.241 227.902 161.628 228.352 162.201C228.801 162.768 229.025 163.51 229.025 164.428C229.025 165.723 228.609 166.726 227.775 167.436C226.942 168.145 225.835 168.5 224.455 168.5H219.611ZM221.34 167.035H224.455C225.425 167.035 226.135 166.801 226.584 166.332C227.04 165.863 227.268 165.229 227.268 164.428C227.268 163.627 227.04 162.992 226.584 162.523C226.135 162.055 225.425 161.82 224.455 161.82H221.34V167.035ZM221.34 160.375H224.162C225.132 160.375 225.829 160.17 226.252 159.76C226.682 159.343 226.896 158.767 226.896 158.031C226.896 157.289 226.682 156.723 226.252 156.332C225.829 155.941 225.132 155.746 224.162 155.746H221.34V160.375Z" fill="#262626"/>
<rect x="240" y="146" width="32" height="32" fill="#F9F9F9"/>
<rect x="240" y="146" width="32" height="32" stroke="#525252"/>
<path d="M249.49 168.5L254.744 154.193H256.404L261.658 168.5H259.822L255.955 157.602C255.877 157.38 255.809 157.169 255.75 156.967C255.698 156.765 255.646 156.557 255.594 156.342H255.506C255.454 156.557 255.398 156.765 255.34 156.967C255.281 157.169 255.213 157.38 255.135 157.602L251.248 168.5H249.49ZM251.727 164.74L252.264 163.285H258.855L259.383 164.74H251.727Z" fill="#262626"/>
<rect x="272" y="146" width="32" height="32" fill="#F9F9F9"/>
<rect x="272" y="146" width="32" height="32" stroke="#525252"/>
<path d="M282.584 161.83V160.951C282.584 158.731 283.131 157.019 284.225 155.814C285.325 154.604 286.702 153.998 288.355 153.998C290.016 153.998 291.311 154.454 292.242 155.365C293.173 156.277 293.639 157.393 293.639 158.715V158.842H291.871V158.715C291.871 157.771 291.578 157.003 290.992 156.41C290.413 155.811 289.534 155.512 288.355 155.512C287.184 155.512 286.227 155.958 285.484 156.85C284.742 157.742 284.371 159.109 284.371 160.951V161.83C284.371 163.542 284.742 164.877 285.484 165.834C286.227 166.791 287.187 167.27 288.365 167.27C289.479 167.27 290.318 166.97 290.885 166.371C291.458 165.766 291.783 164.997 291.861 164.066L291.871 163.939H293.639L293.629 164.076C293.518 165.385 293.027 166.498 292.154 167.416C291.282 168.327 290.016 168.783 288.355 168.783C286.676 168.783 285.292 168.178 284.205 166.967C283.124 165.756 282.584 164.044 282.584 161.83Z" fill="#262626"/>
<rect x="304" y="146" width="32" height="32" fill="#F9F9F9"/>
<rect x="304" y="146" width="32" height="32" stroke="#525252"/>
<path d="M315.611 168.5V154.281H320.162C321.555 154.281 322.649 154.584 323.443 155.189C324.244 155.788 324.645 156.732 324.645 158.021C324.645 158.809 324.449 159.454 324.059 159.955C323.674 160.45 323.193 160.798 322.613 161V161.039C323.323 161.241 323.902 161.628 324.352 162.201C324.801 162.768 325.025 163.51 325.025 164.428C325.025 165.723 324.609 166.726 323.775 167.436C322.942 168.145 321.835 168.5 320.455 168.5H315.611ZM317.34 167.035H320.455C321.425 167.035 322.135 166.801 322.584 166.332C323.04 165.863 323.268 165.229 323.268 164.428C323.268 163.627 323.04 162.992 322.584 162.523C322.135 162.055 321.425 161.82 320.455 161.82H317.34V167.035ZM317.34 160.375H320.162C321.132 160.375 321.829 160.17 322.252 159.76C322.682 159.343 322.896 158.767 322.896 158.031C322.896 157.289 322.682 156.723 322.252 156.332C321.829 155.941 321.132 155.746 320.162 155.746H317.34V160.375Z" fill="#262626"/>
<rect x="336" y="146" width="32" height="32" fill="#F9F9F9"/>
<rect x="336" y="146" width="32" height="32" stroke="#525252"/>
<path d="M346.611 168.5V154.281H350.693C352.497 154.281 353.988 154.883 355.166 156.088C356.351 157.286 356.943 158.907 356.943 160.951V161.83C356.943 163.874 356.354 165.499 355.176 166.703C353.997 167.901 352.503 168.5 350.693 168.5H346.611ZM348.379 167.035H350.693C352.061 167.035 353.145 166.576 353.945 165.658C354.753 164.74 355.156 163.464 355.156 161.83V160.951C355.156 159.317 354.753 158.041 353.945 157.123C353.138 156.205 352.054 155.746 350.693 155.746H348.379V167.035Z" fill="#262626"/>
<rect x="368" y="146" width="32" height="32" fill="#F9F9F9"/>
<rect x="368" y="146" width="32" height="32" stroke="#525252"/>
<path d="M377.49 168.5L382.744 154.193H384.404L389.658 168.5H387.822L383.955 157.602C383.877 157.38 383.809 157.169 383.75 156.967C383.698 156.765 383.646 156.557 383.594 156.342H383.506C383.454 156.557 383.398 156.765 383.34 156.967C383.281 157.169 383.213 157.38 383.135 157.602L379.248 168.5H377.49ZM379.727 164.74L380.264 163.285H386.855L387.383 164.74H379.727Z" fill="#262626"/>
<rect x="400" y="146" width="32" height="32" fill="#F9F9F9"/>
<rect x="400" y="146" width="32" height="32" stroke="#525252"/>
<path d="M410.584 161.83V160.951C410.584 158.731 411.131 157.019 412.225 155.814C413.325 154.604 414.702 153.998 416.355 153.998C418.016 153.998 419.311 154.454 420.242 155.365C421.173 156.277 421.639 157.393 421.639 158.715V158.842H419.871V158.715C419.871 157.771 419.578 157.003 418.992 156.41C418.413 155.811 417.534 155.512 416.355 155.512C415.184 155.512 414.227 155.958 413.484 156.85C412.742 157.742 412.371 159.109 412.371 160.951V161.83C412.371 163.542 412.742 164.877 413.484 165.834C414.227 166.791 415.187 167.27 416.365 167.27C417.479 167.27 418.318 166.97 418.885 166.371C419.458 165.766 419.783 164.997 419.861 164.066L419.871 163.939H421.639L421.629 164.076C421.518 165.385 421.027 166.498 420.154 167.416C419.282 168.327 418.016 168.783 416.355 168.783C414.676 168.783 413.292 168.178 412.205 166.967C411.124 165.756 410.584 164.044 410.584 161.83Z" fill="#262626"/>
<rect x="432" y="146" width="32" height="32" fill="#F9F9F9"/>
<rect x="432" y="146" width="32" height="32" stroke="#525252"/>
<path d="M443.611 168.5V154.281H448.162C449.555 154.281 450.649 154.584 451.443 155.189C452.244 155.788 452.645 156.732 452.645 158.021C452.645 158.809 452.449 159.454 452.059 159.955C451.674 160.45 451.193 160.798 450.613 161V161.039C451.323 161.241 451.902 161.628 452.352 162.201C452.801 162.768 453.025 163.51 453.025 164.428C453.025 165.723 452.609 166.726 451.775 167.436C450.942 168.145 449.835 168.5 448.455 168.5H443.611ZM445.34 167.035H448.455C449.425 167.035 450.135 166.801 450.584 166.332C451.04 165.863 451.268 165.229 451.268 164.428C451.268 163.627 451.04 162.992 450.584 162.523C450.135 162.055 449.425 161.82 448.455 161.82H445.34V167.035ZM445.34 160.375H448.162C449.132 160.375 449.829 160.17 450.252 159.76C450.682 159.343 450.896 158.767 450.896 158.031C450.896 157.289 450.682 156.723 450.252 156.332C449.829 155.941 449.132 155.746 448.162 155.746H445.34V160.375Z" fill="#262626"/>
<rect x="464" y="146" width="32" height="32" fill="#F9F9F9"/>
<rect x="464" y="146" width="32" height="32" stroke="#525252"/>
<path d="M473.49 168.5L478.744 154.193H480.404L485.658 168.5H483.822L479.955 157.602C479.877 157.38 479.809 157.169 479.75 156.967C479.698 156.765 479.646 156.557 479.594 156.342H479.506C479.454 156.557 479.398 156.765 479.34 156.967C479.281 157.169 479.213 157.38 479.135 157.602L475.248 168.5H473.49ZM475.727 164.74L476.264 163.285H482.855L483.383 164.74H475.727Z" fill="#262626"/>
</svg>
