<svg width="678" height="202" viewBox="0 0 678 202" fill="none" xmlns="http://www.w3.org/2000/svg">
<line x1="78" y1="70" x2="78" y2="109" stroke="#34D298" stroke-width="2"/>
<line x1="110" y1="70" x2="110" y2="109" stroke="#34D298" stroke-width="2"/>
<line x1="142.885" y1="70.4657" x2="132.885" y2="89.4657" stroke="#FA7184" stroke-width="2"/>
<line x1="132" y1="90" x2="152" y2="90" stroke="#FA7184" stroke-width="2"/>
<line x1="141.126" y1="108.514" x2="151.126" y2="90.5144" stroke="#FA7184" stroke-width="2"/>
<path d="M335.609 114.992V114.477C335.609 113.129 335.971 112.096 336.693 111.377C337.416 110.654 338.344 110.293 339.477 110.293C340.582 110.293 341.445 110.576 342.066 111.143C342.691 111.705 343.018 112.42 343.045 113.287V113.404H341.281L341.275 113.27C341.264 112.781 341.109 112.387 340.812 112.086C340.52 111.781 340.07 111.629 339.465 111.629C338.852 111.629 338.354 111.852 337.971 112.297C337.592 112.738 337.402 113.422 337.402 114.348V115.121C337.402 116.004 337.59 116.678 337.965 117.143C338.344 117.607 338.85 117.84 339.482 117.84C340.068 117.84 340.506 117.684 340.795 117.371C341.088 117.055 341.248 116.662 341.275 116.193L341.281 116.07H343.045L343.039 116.193C342.992 117.049 342.662 117.76 342.049 118.326C341.436 118.893 340.578 119.176 339.477 119.176C338.34 119.176 337.41 118.814 336.688 118.092C335.969 117.365 335.609 116.332 335.609 114.992ZM343.877 115.953V115.766C343.877 114.793 344.176 114.014 344.773 113.428C345.371 112.842 346.154 112.549 347.123 112.549C348.096 112.549 348.881 112.842 349.479 113.428C350.076 114.014 350.375 114.793 350.375 115.766V115.953C350.375 116.926 350.076 117.707 349.479 118.297C348.881 118.883 348.096 119.176 347.123 119.176C346.154 119.176 345.371 118.883 344.773 118.297C344.176 117.707 343.877 116.926 343.877 115.953ZM345.605 115.701V116.018C345.605 116.604 345.736 117.064 345.998 117.4C346.26 117.736 346.635 117.904 347.123 117.904C347.615 117.904 347.99 117.736 348.248 117.4C348.51 117.064 348.641 116.604 348.641 116.018V115.701C348.641 115.119 348.508 114.66 348.242 114.324C347.98 113.988 347.607 113.82 347.123 113.82C346.639 113.82 346.264 113.988 345.998 114.324C345.736 114.66 345.605 115.119 345.605 115.701ZM351.629 119V112.725H353.223L353.264 113.463H353.299C353.494 113.186 353.75 112.975 354.066 112.83C354.383 112.682 354.725 112.607 355.092 112.607C355.537 112.607 355.922 112.699 356.246 112.883C356.57 113.062 356.811 113.33 356.967 113.686H356.99C357.217 113.326 357.514 113.057 357.881 112.877C358.248 112.697 358.641 112.607 359.059 112.607C359.707 112.607 360.227 112.805 360.617 113.199C361.012 113.59 361.209 114.246 361.209 115.168V119H359.516V115.092C359.516 114.678 359.43 114.375 359.258 114.184C359.09 113.992 358.842 113.895 358.514 113.891C358.232 113.891 357.984 113.971 357.77 114.131C357.559 114.291 357.391 114.508 357.266 114.781V119H355.566V115.104C355.566 114.682 355.48 114.375 355.309 114.184C355.137 113.988 354.887 113.891 354.559 113.891C354.273 113.891 354.025 113.971 353.814 114.131C353.607 114.287 353.441 114.504 353.316 114.781V119H351.629ZM362.75 121.438V112.725H364.332L364.373 113.451H364.402C364.539 113.209 364.771 113.008 365.1 112.848C365.428 112.688 365.797 112.607 366.207 112.607C367.027 112.607 367.688 112.898 368.188 113.48C368.691 114.059 368.943 114.82 368.943 115.766V115.953C368.943 116.898 368.695 117.662 368.199 118.244C367.703 118.826 367.051 119.117 366.242 119.117C365.836 119.117 365.473 119.051 365.152 118.918C364.836 118.781 364.598 118.594 364.438 118.355V121.438H362.75ZM364.438 116.938C364.539 117.18 364.709 117.393 364.947 117.576C365.189 117.76 365.477 117.852 365.809 117.852C366.285 117.852 366.637 117.686 366.863 117.354C367.094 117.021 367.209 116.576 367.209 116.018V115.701C367.209 115.146 367.094 114.703 366.863 114.371C366.637 114.039 366.283 113.873 365.803 113.873C365.463 113.873 365.176 113.963 364.941 114.143C364.711 114.322 364.543 114.531 364.438 114.77V116.938ZM369.869 117.154C369.869 116.471 370.145 115.953 370.695 115.602C371.246 115.246 371.939 115.066 372.775 115.062H374.023V114.67C374.023 114.381 373.943 114.148 373.783 113.973C373.627 113.793 373.354 113.703 372.963 113.703C372.572 113.703 372.293 113.781 372.125 113.938C371.961 114.09 371.879 114.273 371.879 114.488V114.559H370.203V114.488C370.203 113.941 370.461 113.482 370.977 113.111C371.496 112.736 372.178 112.549 373.021 112.549C373.865 112.549 374.525 112.725 375.002 113.076C375.479 113.424 375.717 113.957 375.717 114.676V117.605C375.717 117.859 375.738 118.1 375.781 118.326C375.824 118.549 375.883 118.742 375.957 118.906V119H374.299C374.252 118.906 374.209 118.785 374.17 118.637C374.131 118.484 374.104 118.336 374.088 118.191C373.963 118.434 373.727 118.648 373.379 118.836C373.035 119.023 372.605 119.117 372.09 119.117C371.469 119.117 370.943 118.953 370.514 118.625C370.084 118.293 369.869 117.803 369.869 117.154ZM371.562 117.031C371.562 117.316 371.646 117.543 371.814 117.711C371.982 117.879 372.246 117.963 372.605 117.963C372.992 117.963 373.324 117.842 373.602 117.6C373.883 117.354 374.023 117.072 374.023 116.756V116.094H372.975C372.502 116.094 372.148 116.178 371.914 116.346C371.68 116.51 371.562 116.738 371.562 117.031ZM377.352 119V112.725H378.951L378.992 113.428H379.021C379.154 113.193 379.334 112.99 379.561 112.818C379.791 112.643 380.055 112.555 380.352 112.555C380.434 112.555 380.518 112.564 380.604 112.584C380.689 112.604 380.75 112.621 380.785 112.637V114.09C380.715 114.074 380.639 114.062 380.557 114.055C380.479 114.043 380.393 114.037 380.299 114.037C380.006 114.037 379.748 114.121 379.525 114.289C379.307 114.453 379.146 114.658 379.045 114.904V119H377.352ZM381.225 117.154C381.225 116.471 381.5 115.953 382.051 115.602C382.602 115.246 383.295 115.066 384.131 115.062H385.379V114.67C385.379 114.381 385.299 114.148 385.139 113.973C384.982 113.793 384.709 113.703 384.318 113.703C383.928 113.703 383.648 113.781 383.48 113.938C383.316 114.09 383.234 114.273 383.234 114.488V114.559H381.559V114.488C381.559 113.941 381.816 113.482 382.332 113.111C382.852 112.736 383.533 112.549 384.377 112.549C385.221 112.549 385.881 112.725 386.357 113.076C386.834 113.424 387.072 113.957 387.072 114.676V117.605C387.072 117.859 387.094 118.1 387.137 118.326C387.18 118.549 387.238 118.742 387.312 118.906V119H385.654C385.607 118.906 385.564 118.785 385.525 118.637C385.486 118.484 385.459 118.336 385.443 118.191C385.318 118.434 385.082 118.648 384.734 118.836C384.391 119.023 383.961 119.117 383.445 119.117C382.824 119.117 382.299 118.953 381.869 118.625C381.439 118.293 381.225 117.803 381.225 117.154ZM382.918 117.031C382.918 117.316 383.002 117.543 383.17 117.711C383.338 117.879 383.602 117.963 383.961 117.963C384.348 117.963 384.68 117.842 384.957 117.6C385.238 117.354 385.379 117.072 385.379 116.756V116.094H384.33C383.857 116.094 383.504 116.178 383.27 116.346C383.035 116.51 382.918 116.738 382.918 117.031ZM388.361 115.953V115.766C388.361 114.793 388.65 114.014 389.229 113.428C389.811 112.842 390.59 112.549 391.566 112.549C392.488 112.549 393.189 112.777 393.67 113.234C394.154 113.688 394.408 114.217 394.432 114.822L394.438 114.904H392.779V114.846C392.779 114.553 392.678 114.305 392.475 114.102C392.275 113.895 391.969 113.791 391.555 113.791C391.066 113.791 390.699 113.969 390.453 114.324C390.211 114.676 390.09 115.135 390.09 115.701V116.018C390.09 116.584 390.209 117.045 390.447 117.4C390.686 117.756 391.053 117.934 391.549 117.934C391.99 117.934 392.305 117.828 392.492 117.617C392.684 117.402 392.779 117.154 392.779 116.873V116.82H394.432V116.879C394.432 117.484 394.184 118.02 393.688 118.484C393.195 118.945 392.488 119.176 391.566 119.176C390.59 119.176 389.811 118.883 389.229 118.297C388.65 117.711 388.361 116.93 388.361 115.953ZM391.057 118.842H391.982L391.812 119.428C392.109 119.471 392.385 119.57 392.639 119.727C392.893 119.883 393.02 120.141 393.02 120.5C393.02 120.887 392.824 121.201 392.434 121.443C392.043 121.686 391.393 121.805 390.482 121.801L390.43 121.068C390.934 121.068 391.27 121.023 391.438 120.934C391.605 120.848 391.689 120.707 391.689 120.512C391.689 120.328 391.623 120.203 391.49 120.137C391.361 120.07 391.129 120.023 390.793 119.996L391.057 118.842ZM395.24 117.154C395.24 116.471 395.516 115.953 396.066 115.602C396.617 115.246 397.311 115.066 398.146 115.062H399.395V114.67C399.395 114.381 399.314 114.148 399.154 113.973C398.998 113.793 398.725 113.703 398.334 113.703C397.943 113.703 397.664 113.781 397.496 113.938C397.332 114.09 397.25 114.273 397.25 114.488V114.559H395.574V114.488C395.574 113.941 395.832 113.482 396.348 113.111C396.867 112.736 397.549 112.549 398.393 112.549C399.236 112.549 399.896 112.725 400.373 113.076C400.85 113.424 401.088 113.957 401.088 114.676V117.605C401.088 117.859 401.109 118.1 401.152 118.326C401.195 118.549 401.254 118.742 401.328 118.906V119H399.67C399.623 118.906 399.58 118.785 399.541 118.637C399.502 118.484 399.475 118.336 399.459 118.191C399.334 118.434 399.098 118.648 398.75 118.836C398.406 119.023 397.977 119.117 397.461 119.117C396.84 119.117 396.314 118.953 395.885 118.625C395.455 118.293 395.24 117.803 395.24 117.154ZM396.934 117.031C396.934 117.316 397.018 117.543 397.186 117.711C397.354 117.879 397.617 117.963 397.977 117.963C398.363 117.963 398.695 117.842 398.973 117.6C399.254 117.354 399.395 117.072 399.395 116.756V116.094H398.346C397.873 116.094 397.52 116.178 397.285 116.346C397.051 116.51 396.934 116.738 396.934 117.031ZM396.096 110.984C396.236 110.684 396.453 110.418 396.746 110.188C397.039 109.953 397.328 109.836 397.613 109.836C397.789 109.836 397.955 109.861 398.111 109.912C398.271 109.963 398.432 110.041 398.592 110.146C398.736 110.236 398.891 110.328 399.055 110.422C399.223 110.516 399.389 110.562 399.553 110.562C399.725 110.562 399.885 110.506 400.033 110.393C400.182 110.279 400.305 110.146 400.402 109.994L400.924 110.721C400.764 111.057 400.541 111.311 400.256 111.482C399.975 111.65 399.711 111.734 399.465 111.734C399.258 111.734 399.053 111.689 398.85 111.6C398.65 111.506 398.484 111.422 398.352 111.348C398.207 111.27 398.062 111.193 397.918 111.119C397.773 111.045 397.639 111.008 397.514 111.008C397.314 111.008 397.129 111.086 396.957 111.242C396.785 111.395 396.66 111.529 396.582 111.646L396.096 110.984ZM402.377 115.953V115.766C402.377 114.793 402.676 114.014 403.273 113.428C403.871 112.842 404.654 112.549 405.623 112.549C406.596 112.549 407.381 112.842 407.979 113.428C408.576 114.014 408.875 114.793 408.875 115.766V115.953C408.875 116.926 408.576 117.707 407.979 118.297C407.381 118.883 406.596 119.176 405.623 119.176C404.654 119.176 403.871 118.883 403.273 118.297C402.676 117.707 402.377 116.926 402.377 115.953ZM404.105 115.701V116.018C404.105 116.604 404.236 117.064 404.498 117.4C404.76 117.736 405.135 117.904 405.623 117.904C406.115 117.904 406.49 117.736 406.748 117.4C407.01 117.064 407.141 116.604 407.141 116.018V115.701C407.141 115.119 407.008 114.66 406.742 114.324C406.48 113.988 406.107 113.82 405.623 113.82C405.139 113.82 404.764 113.988 404.498 114.324C404.236 114.66 404.105 115.119 404.105 115.701ZM413.059 119V110.018H414.746V113.381C414.938 113.139 415.186 112.949 415.49 112.812C415.795 112.676 416.15 112.607 416.557 112.607C417.381 112.607 418.035 112.902 418.52 113.492C419.008 114.078 419.252 114.836 419.252 115.766V115.953C419.252 116.887 419.008 117.648 418.52 118.238C418.031 118.824 417.375 119.117 416.551 119.117C416.145 119.117 415.773 119.039 415.438 118.883C415.102 118.723 414.863 118.521 414.723 118.279H414.693L414.652 119H413.059ZM414.746 116.914C414.848 117.16 415.014 117.379 415.244 117.57C415.475 117.758 415.766 117.852 416.117 117.852C416.594 117.852 416.945 117.68 417.172 117.336C417.402 116.988 417.518 116.547 417.518 116.012V115.713C417.518 115.178 417.404 114.738 417.178 114.395C416.951 114.051 416.594 113.879 416.105 113.879C415.766 113.879 415.479 113.973 415.244 114.16C415.014 114.348 414.848 114.562 414.746 114.805V116.914ZM420.154 115.953V115.766C420.154 114.805 420.445 114.029 421.027 113.439C421.609 112.846 422.359 112.549 423.277 112.549C424.203 112.549 424.926 112.826 425.445 113.381C425.969 113.936 426.23 114.697 426.23 115.666V116.275H421.314V115.191H424.549V115.086C424.545 114.734 424.438 114.426 424.227 114.16C424.016 113.895 423.695 113.762 423.266 113.762C422.805 113.762 422.451 113.941 422.205 114.301C421.959 114.656 421.836 115.125 421.836 115.707V116.012C421.836 116.586 421.967 117.053 422.229 117.412C422.494 117.768 422.889 117.945 423.412 117.945C423.76 117.945 424.062 117.861 424.32 117.693C424.578 117.525 424.787 117.332 424.947 117.113L426.107 117.91C425.908 118.262 425.572 118.561 425.1 118.807C424.631 119.053 424.074 119.176 423.43 119.176C422.398 119.176 421.594 118.881 421.016 118.291C420.441 117.697 420.154 116.918 420.154 115.953ZM427.391 119V112.725H428.984L429.025 113.463H429.061C429.256 113.186 429.512 112.975 429.828 112.83C430.145 112.682 430.486 112.607 430.854 112.607C431.299 112.607 431.684 112.699 432.008 112.883C432.332 113.062 432.572 113.33 432.729 113.686H432.752C432.979 113.326 433.275 113.057 433.643 112.877C434.01 112.697 434.402 112.607 434.82 112.607C435.469 112.607 435.988 112.805 436.379 113.199C436.773 113.59 436.971 114.246 436.971 115.168V119H435.277V115.092C435.277 114.678 435.191 114.375 435.02 114.184C434.852 113.992 434.604 113.895 434.275 113.891C433.994 113.891 433.746 113.971 433.531 114.131C433.32 114.291 433.152 114.508 433.027 114.781V119H431.328V115.104C431.328 114.682 431.242 114.375 431.07 114.184C430.898 113.988 430.648 113.891 430.32 113.891C430.035 113.891 429.787 113.971 429.576 114.131C429.369 114.287 429.203 114.504 429.078 114.781V119H427.391ZM441.049 117.043H442.719V117.131C442.719 117.436 442.826 117.66 443.041 117.805C443.256 117.949 443.545 118.021 443.908 118.021C444.283 118.021 444.564 117.955 444.752 117.822C444.943 117.686 445.039 117.502 445.039 117.271C445.039 117.041 444.947 116.871 444.764 116.762C444.58 116.648 444.127 116.521 443.404 116.381C442.654 116.236 442.104 116.008 441.752 115.695C441.4 115.379 441.225 114.969 441.225 114.465C441.225 113.887 441.465 113.422 441.945 113.07C442.426 112.719 443.076 112.543 443.896 112.543C444.713 112.543 445.365 112.725 445.854 113.088C446.346 113.451 446.592 113.938 446.592 114.547V114.617H444.928V114.535C444.928 114.277 444.842 114.074 444.67 113.926C444.502 113.777 444.242 113.703 443.891 113.703C443.539 113.703 443.283 113.764 443.123 113.885C442.967 114.006 442.889 114.162 442.889 114.354C442.889 114.549 442.98 114.705 443.164 114.822C443.348 114.939 443.811 115.068 444.553 115.209C445.299 115.354 445.846 115.58 446.193 115.889C446.545 116.197 446.721 116.619 446.721 117.154C446.721 117.771 446.482 118.264 446.006 118.631C445.533 118.994 444.836 119.176 443.914 119.176C442.996 119.176 442.289 118.994 441.793 118.631C441.297 118.264 441.049 117.756 441.049 117.107V117.043ZM447.898 116.562V112.725H449.586V116.604C449.586 117.057 449.68 117.375 449.867 117.559C450.055 117.742 450.312 117.834 450.641 117.834C450.93 117.834 451.188 117.752 451.414 117.588C451.641 117.42 451.814 117.209 451.936 116.955V112.725H453.623V119H452.029L451.982 118.273H451.953C451.758 118.539 451.496 118.746 451.168 118.895C450.84 119.043 450.479 119.117 450.084 119.117C449.436 119.117 448.908 118.922 448.502 118.531C448.1 118.137 447.898 117.48 447.898 116.562ZM454.877 115.953V115.766C454.877 114.793 455.166 114.014 455.744 113.428C456.326 112.842 457.105 112.549 458.082 112.549C459.004 112.549 459.705 112.777 460.186 113.234C460.67 113.688 460.924 114.217 460.947 114.822L460.953 114.904H459.295V114.846C459.295 114.553 459.193 114.305 458.99 114.102C458.791 113.895 458.484 113.791 458.07 113.791C457.582 113.791 457.215 113.969 456.969 114.324C456.727 114.676 456.605 115.135 456.605 115.701V116.018C456.605 116.584 456.725 117.045 456.963 117.4C457.201 117.756 457.568 117.934 458.064 117.934C458.506 117.934 458.82 117.828 459.008 117.617C459.199 117.402 459.295 117.154 459.295 116.873V116.82H460.947V116.879C460.947 117.484 460.699 118.02 460.203 118.484C459.711 118.945 459.004 119.176 458.082 119.176C457.105 119.176 456.326 118.883 455.744 118.297C455.166 117.711 454.877 116.93 454.877 115.953ZM461.732 115.953V115.766C461.732 114.805 462.023 114.029 462.605 113.439C463.188 112.846 463.938 112.549 464.855 112.549C465.781 112.549 466.504 112.826 467.023 113.381C467.547 113.936 467.809 114.697 467.809 115.666V116.275H462.893V115.191H466.127V115.086C466.123 114.734 466.016 114.426 465.805 114.16C465.594 113.895 465.273 113.762 464.844 113.762C464.383 113.762 464.029 113.941 463.783 114.301C463.537 114.656 463.414 115.125 463.414 115.707V116.012C463.414 116.586 463.545 117.053 463.807 117.412C464.072 117.768 464.467 117.945 464.99 117.945C465.338 117.945 465.641 117.861 465.898 117.693C466.156 117.525 466.365 117.332 466.525 117.113L467.686 117.91C467.486 118.262 467.15 118.561 466.678 118.807C466.209 119.053 465.652 119.176 465.008 119.176C463.977 119.176 463.172 118.881 462.594 118.291C462.02 117.697 461.732 116.918 461.732 115.953ZM468.623 115.959V115.771C468.623 114.842 468.877 114.082 469.385 113.492C469.893 112.902 470.559 112.607 471.383 112.607C471.789 112.607 472.141 112.678 472.438 112.818C472.734 112.959 472.965 113.146 473.129 113.381V110.018H474.816V119H473.217L473.176 118.268H473.146C473.01 118.51 472.783 118.713 472.467 118.877C472.154 119.037 471.793 119.117 471.383 119.117C470.531 119.117 469.857 118.822 469.361 118.232C468.869 117.643 468.623 116.885 468.623 115.959ZM470.352 116.012C470.352 116.551 470.471 116.992 470.709 117.336C470.947 117.68 471.307 117.852 471.787 117.852C472.115 117.852 472.393 117.764 472.619 117.588C472.85 117.408 473.018 117.197 473.123 116.955V114.77C473.021 114.527 472.857 114.318 472.631 114.143C472.408 113.963 472.127 113.873 471.787 113.873C471.311 113.873 470.951 114.047 470.709 114.395C470.471 114.738 470.352 115.178 470.352 115.713V116.012ZM476.439 119V112.725H478.133V119H476.439ZM476.293 111.014C476.293 110.76 476.379 110.547 476.551 110.375C476.723 110.203 476.967 110.117 477.283 110.117C477.604 110.117 477.848 110.203 478.016 110.375C478.188 110.547 478.273 110.76 478.273 111.014C478.273 111.271 478.188 111.486 478.016 111.658C477.848 111.83 477.604 111.916 477.283 111.916C476.967 111.916 476.723 111.83 476.551 111.658C476.379 111.486 476.293 111.271 476.293 111.014ZM479.404 115.959V115.771C479.404 114.842 479.658 114.082 480.166 113.492C480.674 112.902 481.34 112.607 482.164 112.607C482.57 112.607 482.922 112.678 483.219 112.818C483.516 112.959 483.746 113.146 483.91 113.381V110.018H485.598V119H483.998L483.957 118.268H483.928C483.791 118.51 483.564 118.713 483.248 118.877C482.936 119.037 482.574 119.117 482.164 119.117C481.312 119.117 480.639 118.822 480.143 118.232C479.65 117.643 479.404 116.885 479.404 115.959ZM481.133 116.012C481.133 116.551 481.252 116.992 481.49 117.336C481.729 117.68 482.088 117.852 482.568 117.852C482.896 117.852 483.174 117.764 483.4 117.588C483.631 117.408 483.799 117.197 483.904 116.955V114.77C483.803 114.527 483.639 114.318 483.412 114.143C483.189 113.963 482.908 113.873 482.568 113.873C482.092 113.873 481.732 114.047 481.49 114.395C481.252 114.738 481.133 115.178 481.133 115.713V116.012ZM486.869 117.154C486.869 116.471 487.145 115.953 487.695 115.602C488.246 115.246 488.939 115.066 489.775 115.062H491.023V114.67C491.023 114.381 490.943 114.148 490.783 113.973C490.627 113.793 490.354 113.703 489.963 113.703C489.572 113.703 489.293 113.781 489.125 113.938C488.961 114.09 488.879 114.273 488.879 114.488V114.559H487.203V114.488C487.203 113.941 487.461 113.482 487.977 113.111C488.496 112.736 489.178 112.549 490.021 112.549C490.865 112.549 491.525 112.725 492.002 113.076C492.479 113.424 492.717 113.957 492.717 114.676V117.605C492.717 117.859 492.738 118.1 492.781 118.326C492.824 118.549 492.883 118.742 492.957 118.906V119H491.299C491.252 118.906 491.209 118.785 491.17 118.637C491.131 118.484 491.104 118.336 491.088 118.191C490.963 118.434 490.727 118.648 490.379 118.836C490.035 119.023 489.605 119.117 489.09 119.117C488.469 119.117 487.943 118.953 487.514 118.625C487.084 118.293 486.869 117.803 486.869 117.154ZM488.562 117.031C488.562 117.316 488.646 117.543 488.814 117.711C488.982 117.879 489.246 117.963 489.605 117.963C489.992 117.963 490.324 117.842 490.602 117.6C490.883 117.354 491.023 117.072 491.023 116.756V116.094H489.975C489.502 116.094 489.148 116.178 488.914 116.346C488.68 116.51 488.562 116.738 488.562 117.031Z" fill="#34D298"/>
<path d="M335.609 139.992V139.477C335.609 138.129 335.971 137.096 336.693 136.377C337.416 135.654 338.344 135.293 339.477 135.293C340.582 135.293 341.445 135.576 342.066 136.143C342.691 136.705 343.018 137.42 343.045 138.287V138.404H341.281L341.275 138.27C341.264 137.781 341.109 137.387 340.812 137.086C340.52 136.781 340.07 136.629 339.465 136.629C338.852 136.629 338.354 136.852 337.971 137.297C337.592 137.738 337.402 138.422 337.402 139.348V140.121C337.402 141.004 337.59 141.678 337.965 142.143C338.344 142.607 338.85 142.84 339.482 142.84C340.068 142.84 340.506 142.684 340.795 142.371C341.088 142.055 341.248 141.662 341.275 141.193L341.281 141.07H343.045L343.039 141.193C342.992 142.049 342.662 142.76 342.049 143.326C341.436 143.893 340.578 144.176 339.477 144.176C338.34 144.176 337.41 143.814 336.688 143.092C335.969 142.365 335.609 141.332 335.609 139.992ZM343.877 140.953V140.766C343.877 139.793 344.176 139.014 344.773 138.428C345.371 137.842 346.154 137.549 347.123 137.549C348.096 137.549 348.881 137.842 349.479 138.428C350.076 139.014 350.375 139.793 350.375 140.766V140.953C350.375 141.926 350.076 142.707 349.479 143.297C348.881 143.883 348.096 144.176 347.123 144.176C346.154 144.176 345.371 143.883 344.773 143.297C344.176 142.707 343.877 141.926 343.877 140.953ZM345.605 140.701V141.018C345.605 141.604 345.736 142.064 345.998 142.4C346.26 142.736 346.635 142.904 347.123 142.904C347.615 142.904 347.99 142.736 348.248 142.4C348.51 142.064 348.641 141.604 348.641 141.018V140.701C348.641 140.119 348.508 139.66 348.242 139.324C347.98 138.988 347.607 138.82 347.123 138.82C346.639 138.82 346.264 138.988 345.998 139.324C345.736 139.66 345.605 140.119 345.605 140.701ZM351.629 144V137.725H353.223L353.264 138.463H353.299C353.494 138.186 353.75 137.975 354.066 137.83C354.383 137.682 354.725 137.607 355.092 137.607C355.537 137.607 355.922 137.699 356.246 137.883C356.57 138.062 356.811 138.33 356.967 138.686H356.99C357.217 138.326 357.514 138.057 357.881 137.877C358.248 137.697 358.641 137.607 359.059 137.607C359.707 137.607 360.227 137.805 360.617 138.199C361.012 138.59 361.209 139.246 361.209 140.168V144H359.516V140.092C359.516 139.678 359.43 139.375 359.258 139.184C359.09 138.992 358.842 138.895 358.514 138.891C358.232 138.891 357.984 138.971 357.77 139.131C357.559 139.291 357.391 139.508 357.266 139.781V144H355.566V140.104C355.566 139.682 355.48 139.375 355.309 139.184C355.137 138.988 354.887 138.891 354.559 138.891C354.273 138.891 354.025 138.971 353.814 139.131C353.607 139.287 353.441 139.504 353.316 139.781V144H351.629ZM362.75 146.438V137.725H364.332L364.373 138.451H364.402C364.539 138.209 364.771 138.008 365.1 137.848C365.428 137.688 365.797 137.607 366.207 137.607C367.027 137.607 367.688 137.898 368.188 138.48C368.691 139.059 368.943 139.82 368.943 140.766V140.953C368.943 141.898 368.695 142.662 368.199 143.244C367.703 143.826 367.051 144.117 366.242 144.117C365.836 144.117 365.473 144.051 365.152 143.918C364.836 143.781 364.598 143.594 364.438 143.355V146.438H362.75ZM364.438 141.938C364.539 142.18 364.709 142.393 364.947 142.576C365.189 142.76 365.477 142.852 365.809 142.852C366.285 142.852 366.637 142.686 366.863 142.354C367.094 142.021 367.209 141.576 367.209 141.018V140.701C367.209 140.146 367.094 139.703 366.863 139.371C366.637 139.039 366.283 138.873 365.803 138.873C365.463 138.873 365.176 138.963 364.941 139.143C364.711 139.322 364.543 139.531 364.438 139.77V141.938ZM369.869 142.154C369.869 141.471 370.145 140.953 370.695 140.602C371.246 140.246 371.939 140.066 372.775 140.062H374.023V139.67C374.023 139.381 373.943 139.148 373.783 138.973C373.627 138.793 373.354 138.703 372.963 138.703C372.572 138.703 372.293 138.781 372.125 138.938C371.961 139.09 371.879 139.273 371.879 139.488V139.559H370.203V139.488C370.203 138.941 370.461 138.482 370.977 138.111C371.496 137.736 372.178 137.549 373.021 137.549C373.865 137.549 374.525 137.725 375.002 138.076C375.479 138.424 375.717 138.957 375.717 139.676V142.605C375.717 142.859 375.738 143.1 375.781 143.326C375.824 143.549 375.883 143.742 375.957 143.906V144H374.299C374.252 143.906 374.209 143.785 374.17 143.637C374.131 143.484 374.104 143.336 374.088 143.191C373.963 143.434 373.727 143.648 373.379 143.836C373.035 144.023 372.605 144.117 372.09 144.117C371.469 144.117 370.943 143.953 370.514 143.625C370.084 143.293 369.869 142.803 369.869 142.154ZM371.562 142.031C371.562 142.316 371.646 142.543 371.814 142.711C371.982 142.879 372.246 142.963 372.605 142.963C372.992 142.963 373.324 142.842 373.602 142.6C373.883 142.354 374.023 142.072 374.023 141.756V141.094H372.975C372.502 141.094 372.148 141.178 371.914 141.346C371.68 141.51 371.562 141.738 371.562 142.031ZM377.352 144V137.725H378.951L378.992 138.428H379.021C379.154 138.193 379.334 137.99 379.561 137.818C379.791 137.643 380.055 137.555 380.352 137.555C380.434 137.555 380.518 137.564 380.604 137.584C380.689 137.604 380.75 137.621 380.785 137.637V139.09C380.715 139.074 380.639 139.062 380.557 139.055C380.479 139.043 380.393 139.037 380.299 139.037C380.006 139.037 379.748 139.121 379.525 139.289C379.307 139.453 379.146 139.658 379.045 139.904V144H377.352ZM381.225 142.154C381.225 141.471 381.5 140.953 382.051 140.602C382.602 140.246 383.295 140.066 384.131 140.062H385.379V139.67C385.379 139.381 385.299 139.148 385.139 138.973C384.982 138.793 384.709 138.703 384.318 138.703C383.928 138.703 383.648 138.781 383.48 138.938C383.316 139.09 383.234 139.273 383.234 139.488V139.559H381.559V139.488C381.559 138.941 381.816 138.482 382.332 138.111C382.852 137.736 383.533 137.549 384.377 137.549C385.221 137.549 385.881 137.725 386.357 138.076C386.834 138.424 387.072 138.957 387.072 139.676V142.605C387.072 142.859 387.094 143.1 387.137 143.326C387.18 143.549 387.238 143.742 387.312 143.906V144H385.654C385.607 143.906 385.564 143.785 385.525 143.637C385.486 143.484 385.459 143.336 385.443 143.191C385.318 143.434 385.082 143.648 384.734 143.836C384.391 144.023 383.961 144.117 383.445 144.117C382.824 144.117 382.299 143.953 381.869 143.625C381.439 143.293 381.225 142.803 381.225 142.154ZM382.918 142.031C382.918 142.316 383.002 142.543 383.17 142.711C383.338 142.879 383.602 142.963 383.961 142.963C384.348 142.963 384.68 142.842 384.957 142.6C385.238 142.354 385.379 142.072 385.379 141.756V141.094H384.33C383.857 141.094 383.504 141.178 383.27 141.346C383.035 141.51 382.918 141.738 382.918 142.031ZM388.361 140.953V140.766C388.361 139.793 388.65 139.014 389.229 138.428C389.811 137.842 390.59 137.549 391.566 137.549C392.488 137.549 393.189 137.777 393.67 138.234C394.154 138.688 394.408 139.217 394.432 139.822L394.438 139.904H392.779V139.846C392.779 139.553 392.678 139.305 392.475 139.102C392.275 138.895 391.969 138.791 391.555 138.791C391.066 138.791 390.699 138.969 390.453 139.324C390.211 139.676 390.09 140.135 390.09 140.701V141.018C390.09 141.584 390.209 142.045 390.447 142.4C390.686 142.756 391.053 142.934 391.549 142.934C391.99 142.934 392.305 142.828 392.492 142.617C392.684 142.402 392.779 142.154 392.779 141.873V141.82H394.432V141.879C394.432 142.484 394.184 143.02 393.688 143.484C393.195 143.945 392.488 144.176 391.566 144.176C390.59 144.176 389.811 143.883 389.229 143.297C388.65 142.711 388.361 141.93 388.361 140.953ZM391.057 143.842H391.982L391.812 144.428C392.109 144.471 392.385 144.57 392.639 144.727C392.893 144.883 393.02 145.141 393.02 145.5C393.02 145.887 392.824 146.201 392.434 146.443C392.043 146.686 391.393 146.805 390.482 146.801L390.43 146.068C390.934 146.068 391.27 146.023 391.438 145.934C391.605 145.848 391.689 145.707 391.689 145.512C391.689 145.328 391.623 145.203 391.49 145.137C391.361 145.07 391.129 145.023 390.793 144.996L391.057 143.842ZM395.24 142.154C395.24 141.471 395.516 140.953 396.066 140.602C396.617 140.246 397.311 140.066 398.146 140.062H399.395V139.67C399.395 139.381 399.314 139.148 399.154 138.973C398.998 138.793 398.725 138.703 398.334 138.703C397.943 138.703 397.664 138.781 397.496 138.938C397.332 139.09 397.25 139.273 397.25 139.488V139.559H395.574V139.488C395.574 138.941 395.832 138.482 396.348 138.111C396.867 137.736 397.549 137.549 398.393 137.549C399.236 137.549 399.896 137.725 400.373 138.076C400.85 138.424 401.088 138.957 401.088 139.676V142.605C401.088 142.859 401.109 143.1 401.152 143.326C401.195 143.549 401.254 143.742 401.328 143.906V144H399.67C399.623 143.906 399.58 143.785 399.541 143.637C399.502 143.484 399.475 143.336 399.459 143.191C399.334 143.434 399.098 143.648 398.75 143.836C398.406 144.023 397.977 144.117 397.461 144.117C396.84 144.117 396.314 143.953 395.885 143.625C395.455 143.293 395.24 142.803 395.24 142.154ZM396.934 142.031C396.934 142.316 397.018 142.543 397.186 142.711C397.354 142.879 397.617 142.963 397.977 142.963C398.363 142.963 398.695 142.842 398.973 142.6C399.254 142.354 399.395 142.072 399.395 141.756V141.094H398.346C397.873 141.094 397.52 141.178 397.285 141.346C397.051 141.51 396.934 141.738 396.934 142.031ZM396.096 135.984C396.236 135.684 396.453 135.418 396.746 135.188C397.039 134.953 397.328 134.836 397.613 134.836C397.789 134.836 397.955 134.861 398.111 134.912C398.271 134.963 398.432 135.041 398.592 135.146C398.736 135.236 398.891 135.328 399.055 135.422C399.223 135.516 399.389 135.562 399.553 135.562C399.725 135.562 399.885 135.506 400.033 135.393C400.182 135.279 400.305 135.146 400.402 134.994L400.924 135.721C400.764 136.057 400.541 136.311 400.256 136.482C399.975 136.65 399.711 136.734 399.465 136.734C399.258 136.734 399.053 136.689 398.85 136.6C398.65 136.506 398.484 136.422 398.352 136.348C398.207 136.27 398.062 136.193 397.918 136.119C397.773 136.045 397.639 136.008 397.514 136.008C397.314 136.008 397.129 136.086 396.957 136.242C396.785 136.395 396.66 136.529 396.582 136.646L396.096 135.984ZM402.377 140.953V140.766C402.377 139.793 402.676 139.014 403.273 138.428C403.871 137.842 404.654 137.549 405.623 137.549C406.596 137.549 407.381 137.842 407.979 138.428C408.576 139.014 408.875 139.793 408.875 140.766V140.953C408.875 141.926 408.576 142.707 407.979 143.297C407.381 143.883 406.596 144.176 405.623 144.176C404.654 144.176 403.871 143.883 403.273 143.297C402.676 142.707 402.377 141.926 402.377 140.953ZM404.105 140.701V141.018C404.105 141.604 404.236 142.064 404.498 142.4C404.76 142.736 405.135 142.904 405.623 142.904C406.115 142.904 406.49 142.736 406.748 142.4C407.01 142.064 407.141 141.604 407.141 141.018V140.701C407.141 140.119 407.008 139.66 406.742 139.324C406.48 138.988 406.107 138.82 405.623 138.82C405.139 138.82 404.764 138.988 404.498 139.324C404.236 139.66 404.105 140.119 404.105 140.701ZM413.059 144V137.725H414.652L414.693 138.463H414.729C414.924 138.186 415.18 137.975 415.496 137.83C415.812 137.682 416.154 137.607 416.521 137.607C416.967 137.607 417.352 137.699 417.676 137.883C418 138.062 418.24 138.33 418.396 138.686H418.42C418.646 138.326 418.943 138.057 419.311 137.877C419.678 137.697 420.07 137.607 420.488 137.607C421.137 137.607 421.656 137.805 422.047 138.199C422.441 138.59 422.639 139.246 422.639 140.168V144H420.945V140.092C420.945 139.678 420.859 139.375 420.688 139.184C420.52 138.992 420.271 138.895 419.943 138.891C419.662 138.891 419.414 138.971 419.199 139.131C418.988 139.291 418.82 139.508 418.695 139.781V144H416.996V140.104C416.996 139.682 416.91 139.375 416.738 139.184C416.566 138.988 416.316 138.891 415.988 138.891C415.703 138.891 415.455 138.971 415.244 139.131C415.037 139.287 414.871 139.504 414.746 139.781V144H413.059ZM423.857 142.154C423.857 141.471 424.133 140.953 424.684 140.602C425.234 140.246 425.928 140.066 426.764 140.062H428.012V139.67C428.012 139.381 427.932 139.148 427.771 138.973C427.615 138.793 427.342 138.703 426.951 138.703C426.561 138.703 426.281 138.781 426.113 138.938C425.949 139.09 425.867 139.273 425.867 139.488V139.559H424.191V139.488C424.191 138.941 424.449 138.482 424.965 138.111C425.484 137.736 426.166 137.549 427.01 137.549C427.854 137.549 428.514 137.725 428.99 138.076C429.467 138.424 429.705 138.957 429.705 139.676V142.605C429.705 142.859 429.727 143.1 429.77 143.326C429.812 143.549 429.871 143.742 429.945 143.906V144H428.287C428.24 143.906 428.197 143.785 428.158 143.637C428.119 143.484 428.092 143.336 428.076 143.191C427.951 143.434 427.715 143.648 427.367 143.836C427.023 144.023 426.594 144.117 426.078 144.117C425.457 144.117 424.932 143.953 424.502 143.625C424.072 143.293 423.857 142.803 423.857 142.154ZM425.551 142.031C425.551 142.316 425.635 142.543 425.803 142.711C425.971 142.879 426.234 142.963 426.594 142.963C426.98 142.963 427.312 142.842 427.59 142.6C427.871 142.354 428.012 142.072 428.012 141.756V141.094H426.963C426.49 141.094 426.137 141.178 425.902 141.346C425.668 141.51 425.551 141.738 425.551 142.031ZM431.363 144V135.018H433.051V144H431.363ZM437.205 142.043H438.875V142.131C438.875 142.436 438.982 142.66 439.197 142.805C439.412 142.949 439.701 143.021 440.064 143.021C440.439 143.021 440.721 142.955 440.908 142.822C441.1 142.686 441.195 142.502 441.195 142.271C441.195 142.041 441.104 141.871 440.92 141.762C440.736 141.648 440.283 141.521 439.561 141.381C438.811 141.236 438.26 141.008 437.908 140.695C437.557 140.379 437.381 139.969 437.381 139.465C437.381 138.887 437.621 138.422 438.102 138.07C438.582 137.719 439.232 137.543 440.053 137.543C440.869 137.543 441.521 137.725 442.01 138.088C442.502 138.451 442.748 138.938 442.748 139.547V139.617H441.084V139.535C441.084 139.277 440.998 139.074 440.826 138.926C440.658 138.777 440.398 138.703 440.047 138.703C439.695 138.703 439.439 138.764 439.279 138.885C439.123 139.006 439.045 139.162 439.045 139.354C439.045 139.549 439.137 139.705 439.32 139.822C439.504 139.939 439.967 140.068 440.709 140.209C441.455 140.354 442.002 140.58 442.35 140.889C442.701 141.197 442.877 141.619 442.877 142.154C442.877 142.771 442.639 143.264 442.162 143.631C441.689 143.994 440.992 144.176 440.07 144.176C439.152 144.176 438.445 143.994 437.949 143.631C437.453 143.264 437.205 142.756 437.205 142.107V142.043ZM444.055 141.562V137.725H445.742V141.604C445.742 142.057 445.836 142.375 446.023 142.559C446.211 142.742 446.469 142.834 446.797 142.834C447.086 142.834 447.344 142.752 447.57 142.588C447.797 142.42 447.971 142.209 448.092 141.955V137.725H449.779V144H448.186L448.139 143.273H448.109C447.914 143.539 447.652 143.746 447.324 143.895C446.996 144.043 446.635 144.117 446.24 144.117C445.592 144.117 445.064 143.922 444.658 143.531C444.256 143.137 444.055 142.48 444.055 141.562ZM451.033 140.953V140.766C451.033 139.793 451.322 139.014 451.9 138.428C452.482 137.842 453.262 137.549 454.238 137.549C455.16 137.549 455.861 137.777 456.342 138.234C456.826 138.688 457.08 139.217 457.104 139.822L457.109 139.904H455.451V139.846C455.451 139.553 455.35 139.305 455.146 139.102C454.947 138.895 454.641 138.791 454.227 138.791C453.738 138.791 453.371 138.969 453.125 139.324C452.883 139.676 452.762 140.135 452.762 140.701V141.018C452.762 141.584 452.881 142.045 453.119 142.4C453.357 142.756 453.725 142.934 454.221 142.934C454.662 142.934 454.977 142.828 455.164 142.617C455.355 142.402 455.451 142.154 455.451 141.873V141.82H457.104V141.879C457.104 142.484 456.855 143.02 456.359 143.484C455.867 143.945 455.16 144.176 454.238 144.176C453.262 144.176 452.482 143.883 451.9 143.297C451.322 142.711 451.033 141.93 451.033 140.953ZM457.889 140.953V140.766C457.889 139.805 458.18 139.029 458.762 138.439C459.344 137.846 460.094 137.549 461.012 137.549C461.938 137.549 462.66 137.826 463.18 138.381C463.703 138.936 463.965 139.697 463.965 140.666V141.275H459.049V140.191H462.283V140.086C462.279 139.734 462.172 139.426 461.961 139.16C461.75 138.895 461.43 138.762 461 138.762C460.539 138.762 460.186 138.941 459.939 139.301C459.693 139.656 459.57 140.125 459.57 140.707V141.012C459.57 141.586 459.701 142.053 459.963 142.412C460.229 142.768 460.623 142.945 461.146 142.945C461.494 142.945 461.797 142.861 462.055 142.693C462.312 142.525 462.521 142.332 462.682 142.113L463.842 142.91C463.643 143.262 463.307 143.561 462.834 143.807C462.365 144.053 461.809 144.176 461.164 144.176C460.133 144.176 459.328 143.881 458.75 143.291C458.176 142.697 457.889 141.918 457.889 140.953ZM464.779 140.959V140.771C464.779 139.842 465.033 139.082 465.541 138.492C466.049 137.902 466.715 137.607 467.539 137.607C467.945 137.607 468.297 137.678 468.594 137.818C468.891 137.959 469.121 138.146 469.285 138.381V135.018H470.973V144H469.373L469.332 143.268H469.303C469.166 143.51 468.939 143.713 468.623 143.877C468.311 144.037 467.949 144.117 467.539 144.117C466.688 144.117 466.014 143.822 465.518 143.232C465.025 142.643 464.779 141.885 464.779 140.959ZM466.508 141.012C466.508 141.551 466.627 141.992 466.865 142.336C467.104 142.68 467.463 142.852 467.943 142.852C468.271 142.852 468.549 142.764 468.775 142.588C469.006 142.408 469.174 142.197 469.279 141.955V139.77C469.178 139.527 469.014 139.318 468.787 139.143C468.564 138.963 468.283 138.873 467.943 138.873C467.467 138.873 467.107 139.047 466.865 139.395C466.627 139.738 466.508 140.178 466.508 140.713V141.012ZM472.596 144V137.725H474.289V144H472.596ZM472.449 136.014C472.449 135.76 472.535 135.547 472.707 135.375C472.879 135.203 473.123 135.117 473.439 135.117C473.76 135.117 474.004 135.203 474.172 135.375C474.344 135.547 474.43 135.76 474.43 136.014C474.43 136.271 474.344 136.486 474.172 136.658C474.004 136.83 473.76 136.916 473.439 136.916C473.123 136.916 472.879 136.83 472.707 136.658C472.535 136.486 472.449 136.271 472.449 136.014ZM475.561 140.959V140.771C475.561 139.842 475.814 139.082 476.322 138.492C476.83 137.902 477.496 137.607 478.32 137.607C478.727 137.607 479.078 137.678 479.375 137.818C479.672 137.959 479.902 138.146 480.066 138.381V135.018H481.754V144H480.154L480.113 143.268H480.084C479.947 143.51 479.721 143.713 479.404 143.877C479.092 144.037 478.73 144.117 478.32 144.117C477.469 144.117 476.795 143.822 476.299 143.232C475.807 142.643 475.561 141.885 475.561 140.959ZM477.289 141.012C477.289 141.551 477.408 141.992 477.646 142.336C477.885 142.68 478.244 142.852 478.725 142.852C479.053 142.852 479.33 142.764 479.557 142.588C479.787 142.408 479.955 142.197 480.061 141.955V139.77C479.959 139.527 479.795 139.318 479.568 139.143C479.346 138.963 479.064 138.873 478.725 138.873C478.248 138.873 477.889 139.047 477.646 139.395C477.408 139.738 477.289 140.178 477.289 140.713V141.012ZM483.025 142.154C483.025 141.471 483.301 140.953 483.852 140.602C484.402 140.246 485.096 140.066 485.932 140.062H487.18V139.67C487.18 139.381 487.1 139.148 486.939 138.973C486.783 138.793 486.51 138.703 486.119 138.703C485.729 138.703 485.449 138.781 485.281 138.938C485.117 139.09 485.035 139.273 485.035 139.488V139.559H483.359V139.488C483.359 138.941 483.617 138.482 484.133 138.111C484.652 137.736 485.334 137.549 486.178 137.549C487.021 137.549 487.682 137.725 488.158 138.076C488.635 138.424 488.873 138.957 488.873 139.676V142.605C488.873 142.859 488.895 143.1 488.938 143.326C488.98 143.549 489.039 143.742 489.113 143.906V144H487.455C487.408 143.906 487.365 143.785 487.326 143.637C487.287 143.484 487.26 143.336 487.244 143.191C487.119 143.434 486.883 143.648 486.535 143.836C486.191 144.023 485.762 144.117 485.246 144.117C484.625 144.117 484.1 143.953 483.67 143.625C483.24 143.293 483.025 142.803 483.025 142.154ZM484.719 142.031C484.719 142.316 484.803 142.543 484.971 142.711C485.139 142.879 485.402 142.963 485.762 142.963C486.148 142.963 486.48 142.842 486.758 142.6C487.039 142.354 487.18 142.072 487.18 141.756V141.094H486.131C485.658 141.094 485.305 141.178 485.07 141.346C484.836 141.51 484.719 141.738 484.719 142.031Z" fill="#FA7184"/>
<line x1="328" y1="106" x2="328" y2="123" stroke="#34D298" stroke-width="2"/>
<line x1="327.987" y1="132.466" x2="323.885" y2="140.261" stroke="#FA7184" stroke-width="2"/>
<line x1="323" y1="139.615" x2="331.205" y2="139.615" stroke="#FA7184" stroke-width="2"/>
<line x1="326.228" y1="147.514" x2="330.331" y2="140.13" stroke="#FA7184" stroke-width="2"/>
<path d="M75.1211 32.2402V29.2285C75.1211 28.3496 75.3672 27.6406 75.8594 27.1016C76.3555 26.5625 77.043 26.293 77.9219 26.293C78.793 26.293 79.4785 26.5625 79.9785 27.1016C80.4785 27.6406 80.7285 28.3496 80.7285 29.2285V32.2402C80.7285 33.123 80.4785 33.834 79.9785 34.373C79.4785 34.9082 78.793 35.1758 77.9219 35.1758C77.043 35.1758 76.3555 34.9082 75.8594 34.373C75.3672 33.834 75.1211 33.123 75.1211 32.2402ZM76.2812 32.2988C76.2812 32.8574 76.4141 33.3184 76.6797 33.6816C76.9492 34.041 77.3633 34.2207 77.9219 34.2207C78.4805 34.2207 78.8945 34.041 79.1641 33.6816C79.4336 33.3184 79.5684 32.8574 79.5684 32.2988V29.1699C79.5684 28.6113 79.4336 28.1523 79.1641 27.793C78.8945 27.4297 78.4805 27.248 77.9219 27.248C77.3633 27.248 76.9492 27.4297 76.6797 27.793C76.4141 28.1523 76.2812 28.6113 76.2812 29.1699V32.2988Z" fill="#A2A2A2"/>
<rect x="62" y="40" width="32" height="32" fill="#A6F2CF"/>
<rect x="62" y="40" width="32" height="32" stroke="#525252"/>
<path d="M72.2148 49.7461V48.2812H82.9863V49.7461H78.4844V62.5H76.7168V49.7461H72.2148Z" fill="#262626"/>
<path d="M109.693 35V27.7285L107.49 28.6367V27.5234L110.637 26.3516H110.842V35H109.693Z" fill="#A2A2A2"/>
<rect x="94" y="40" width="32" height="32" fill="#A6F2CF"/>
<rect x="94" y="40" width="32" height="32" stroke="#525252"/>
<path d="M105.611 62.5V48.2812H110.094C111.585 48.2812 112.73 48.6621 113.531 49.4238C114.339 50.179 114.742 51.1849 114.742 52.4414C114.742 53.6979 114.339 54.7168 113.531 55.498C112.73 56.2728 111.585 56.6602 110.094 56.6602H107.379V62.5H105.611ZM107.379 55.2051H110.094C111.168 55.2051 111.917 54.9382 112.34 54.4043C112.763 53.8704 112.975 53.2161 112.975 52.4414C112.975 51.6667 112.763 51.0221 112.34 50.5078C111.917 49.987 111.168 49.7266 110.094 49.7266H107.379V55.2051ZM113.502 62.5L110.025 55.9375L111.793 55.6738L115.475 62.5H113.502Z" fill="#262626"/>
<path d="M139.121 35V34.1445L142.244 30.8809C142.65 30.4629 142.959 30.0898 143.17 29.7617C143.385 29.4297 143.492 29.0703 143.492 28.6836C143.492 28.2969 143.357 27.9609 143.088 27.6758C142.818 27.3906 142.443 27.248 141.963 27.248C141.482 27.248 141.078 27.4023 140.75 27.7109C140.422 28.0156 140.258 28.4375 140.258 28.9766V29.0352H139.115V28.9766C139.115 28.1953 139.387 27.5527 139.93 27.0488C140.477 26.5449 141.154 26.293 141.963 26.293C142.764 26.293 143.408 26.5254 143.896 26.9902C144.389 27.4551 144.635 28 144.635 28.625C144.635 29.1836 144.477 29.6895 144.16 30.1426C143.844 30.5918 143.455 31.0508 142.994 31.5195L140.562 34.0156H144.869V35H139.121Z" fill="#A2A2A2"/>
<rect x="126" y="40" width="32" height="32" fill="#FDCCD2"/>
<rect x="126" y="40" width="32" height="32" stroke="#525252"/>
<path d="M138.111 62.5V48.2812H146.783V49.7461H139.879V54.4336H145.885V55.8984H139.879V61.0352H146.881V62.5H138.111Z" fill="#262626"/>
<path d="M170.939 32.7617V32.7031H172.059V32.7617C172.059 33.2266 172.217 33.5879 172.533 33.8457C172.854 34.0996 173.277 34.2266 173.805 34.2266C174.332 34.2266 174.754 34.0996 175.07 33.8457C175.387 33.5879 175.545 33.1875 175.545 32.6445C175.545 32.1055 175.367 31.6992 175.012 31.4258C174.656 31.1523 174.18 31.0156 173.582 31.0156H172.885V30.0898H173.523C174.074 30.0898 174.498 29.9609 174.795 29.7031C175.096 29.4453 175.246 29.084 175.246 28.6191C175.246 28.1582 175.115 27.8145 174.854 27.5879C174.596 27.3574 174.246 27.2422 173.805 27.2422C173.352 27.2422 172.986 27.3574 172.709 27.5879C172.436 27.8145 172.299 28.1406 172.299 28.5664V28.625H171.18V28.5664C171.18 27.9375 171.424 27.4023 171.912 26.9609C172.4 26.5156 173.031 26.293 173.805 26.293C174.566 26.293 175.189 26.5039 175.674 26.9258C176.158 27.3477 176.4 27.8926 176.4 28.5605C176.4 28.9512 176.291 29.3262 176.072 29.6855C175.854 30.041 175.514 30.3164 175.053 30.5117V30.5352C175.553 30.6602 175.953 30.9082 176.254 31.2793C176.555 31.6504 176.705 32.1055 176.705 32.6445C176.705 33.4336 176.432 34.0527 175.885 34.502C175.338 34.9512 174.645 35.1758 173.805 35.1758C172.938 35.1758 172.242 34.9512 171.719 34.502C171.199 34.0488 170.939 33.4688 170.939 32.7617Z" fill="#A2A2A2"/>
<rect x="158" y="40" width="32" height="32" fill="#F9F9F9"/>
<rect x="158" y="40" width="32" height="32" stroke="#525252"/>
<path d="M168.879 58.623V58.4375H170.646V58.623C170.646 59.5085 170.933 60.1725 171.506 60.6152C172.085 61.0514 172.889 61.2695 173.918 61.2695C174.953 61.2695 175.744 61.0449 176.291 60.5957C176.838 60.14 177.111 59.5475 177.111 58.8184C177.111 58.1478 176.848 57.6139 176.32 57.2168C175.799 56.8197 174.81 56.403 173.352 55.9668C171.848 55.5111 170.773 54.987 170.129 54.3945C169.491 53.8021 169.172 52.946 169.172 51.8262C169.172 50.7324 169.582 49.821 170.402 49.0918C171.223 48.3626 172.365 47.998 173.83 47.998C175.282 47.998 176.438 48.3789 177.297 49.1406C178.163 49.9023 178.596 50.8822 178.596 52.0801V52.2461H176.828V52.0801C176.828 51.3053 176.574 50.6836 176.066 50.2148C175.565 49.7461 174.82 49.5117 173.83 49.5117C172.827 49.5117 172.092 49.7168 171.623 50.127C171.154 50.5306 170.92 51.084 170.92 51.7871C170.92 52.4186 171.161 52.9199 171.643 53.291C172.124 53.6556 173.107 54.0592 174.592 54.502C176.083 54.9382 177.167 55.4785 177.844 56.123C178.521 56.7611 178.859 57.6595 178.859 58.8184C178.859 59.9772 178.417 60.9277 177.531 61.6699C176.646 62.4121 175.441 62.7832 173.918 62.7832C172.395 62.7832 171.174 62.4154 170.256 61.6797C169.338 60.9375 168.879 59.9186 168.879 58.623Z" fill="#262626"/>
<path d="M206.801 35V32.668V32.3633V28.2383H206.73L204.088 32.0527H207.088H207.545H209.098V33.002H202.775V32.2285L206.836 26.4688H207.885V35H206.801Z" fill="#A2A2A2"/>
<rect x="190" y="40" width="32" height="32" fill="#F9F9F9"/>
<rect x="190" y="40" width="32" height="32" stroke="#525252"/>
<path d="M235.057 32.8496V32.791H236.164V32.8496C236.164 33.2754 236.318 33.6113 236.627 33.8574C236.939 34.1035 237.355 34.2266 237.875 34.2266C238.395 34.2266 238.82 34.0566 239.152 33.7168C239.484 33.373 239.65 32.8926 239.65 32.2754C239.65 31.6582 239.484 31.1875 239.152 30.8633C238.82 30.5391 238.395 30.377 237.875 30.377C237.52 30.377 237.205 30.4414 236.932 30.5703C236.658 30.6992 236.402 30.8809 236.164 31.1152L235.355 30.7285L235.789 26.4688H240.336V27.4941H236.727L236.475 29.8789C236.67 29.7578 236.902 29.6523 237.172 29.5625C237.445 29.4688 237.742 29.4219 238.062 29.4219C238.82 29.4219 239.463 29.6738 239.99 30.1777C240.521 30.6777 240.787 31.377 240.787 32.2754C240.787 33.1738 240.512 33.8828 239.961 34.4023C239.41 34.918 238.715 35.1758 237.875 35.1758C237 35.1758 236.311 34.9551 235.807 34.5137C235.307 34.0723 235.057 33.5176 235.057 32.8496Z" fill="#A2A2A2"/>
<rect x="222" y="40" width="32" height="32" fill="#F9F9F9"/>
<rect x="222" y="40" width="32" height="32" stroke="#525252"/>
<path d="M232.215 49.7461V48.2812H242.986V49.7461H238.484V62.5H236.717V49.7461H232.215Z" fill="#262626"/>
<path d="M266.986 31.4023V31.2266C266.986 29.7422 267.396 28.5488 268.217 27.6465C269.041 26.7441 270.213 26.293 271.732 26.293H271.855V27.248H271.732C270.615 27.248 269.732 27.5625 269.084 28.1914C268.436 28.8203 268.111 29.8125 268.111 31.168V31.4609C268.111 32.4688 268.295 33.1816 268.662 33.5996C269.029 34.0176 269.492 34.2266 270.051 34.2266C270.609 34.2266 271.041 34.0566 271.346 33.7168C271.654 33.377 271.809 32.8984 271.809 32.2812C271.809 31.6641 271.654 31.1875 271.346 30.8516C271.041 30.5156 270.609 30.3477 270.051 30.3477C269.531 30.3477 269.072 30.5156 268.674 30.8516C268.275 31.1875 268.076 31.6641 268.076 32.2812H267.654C267.654 31.418 267.895 30.7207 268.375 30.1895C268.855 29.6582 269.494 29.3926 270.291 29.3926C271.092 29.3926 271.734 29.6582 272.219 30.1895C272.707 30.7207 272.951 31.418 272.951 32.2812C272.951 33.1406 272.678 33.8379 272.131 34.373C271.584 34.9082 270.891 35.1758 270.051 35.1758C269.211 35.1758 268.49 34.8789 267.889 34.2852C267.287 33.6914 266.986 32.7305 266.986 31.4023Z" fill="#A2A2A2"/>
<rect x="254" y="40" width="32" height="32" fill="#F9F9F9"/>
<rect x="254" y="40" width="32" height="32" stroke="#525252"/>
<path d="M268.66 62.5V48.2812H270.428V62.5H268.66Z" fill="#262626"/>
<path d="M300.24 35L303.551 27.4414H298.939V26.4688H304.758V27.1133L301.418 35H300.24Z" fill="#A2A2A2"/>
<rect x="286" y="40" width="32" height="32" fill="#F9F9F9"/>
<rect x="286" y="40" width="32" height="32" stroke="#525252"/>
<path d="M296.084 55.8301V54.9512C296.084 52.7637 296.628 51.0579 297.715 49.834C298.802 48.61 300.218 47.998 301.963 47.998C303.551 47.998 304.788 48.4245 305.674 49.2773C306.566 50.1237 307.057 51.1361 307.148 52.3145L307.158 52.4512H305.391V52.3242C305.391 51.6341 305.091 50.9961 304.492 50.4102C303.893 49.8177 303.047 49.5215 301.953 49.5215C300.716 49.5215 299.727 50.0033 298.984 50.9668C298.242 51.9238 297.871 53.252 297.871 54.9512V55.8301C297.871 57.5293 298.242 58.8607 298.984 59.8242C299.733 60.7878 300.788 61.2695 302.148 61.2695C302.858 61.2695 303.47 61.1947 303.984 61.0449C304.499 60.8887 304.987 60.6478 305.449 60.3223V56.9043H301.953V55.4395H307.158V60.957C306.742 61.3932 306.104 61.8066 305.244 62.1973C304.391 62.5879 303.359 62.7832 302.148 62.7832C300.286 62.7832 298.809 62.1712 297.715 60.9473C296.628 59.7233 296.084 58.0176 296.084 55.8301Z" fill="#262626"/>
<path d="M331.08 32.7383C331.08 32.2305 331.223 31.7969 331.508 31.4375C331.793 31.0781 332.158 30.8105 332.604 30.6348V30.6113C332.26 30.4434 331.965 30.1895 331.719 29.8496C331.477 29.5059 331.355 29.0996 331.355 28.6309C331.355 27.9277 331.604 27.3633 332.1 26.9375C332.6 26.5078 333.209 26.293 333.928 26.293C334.646 26.293 335.252 26.5059 335.744 26.9316C336.24 27.3574 336.488 27.9238 336.488 28.6309C336.488 29.0996 336.367 29.5059 336.125 29.8496C335.883 30.1895 335.59 30.4434 335.246 30.6113V30.6348C335.691 30.8105 336.055 31.0781 336.336 31.4375C336.621 31.7969 336.764 32.2305 336.764 32.7383C336.764 33.5117 336.49 34.1113 335.943 34.5371C335.396 34.9629 334.725 35.1758 333.928 35.1758C333.131 35.1758 332.457 34.9629 331.906 34.5371C331.355 34.1113 331.08 33.5117 331.08 32.7383ZM332.211 32.6738C332.211 33.1387 332.367 33.5137 332.68 33.7988C332.996 34.084 333.412 34.2266 333.928 34.2266C334.443 34.2266 334.857 34.084 335.17 33.7988C335.482 33.5137 335.639 33.1387 335.639 32.6738C335.639 32.209 335.482 31.832 335.17 31.543C334.857 31.2539 334.443 31.1094 333.928 31.1094C333.412 31.1094 332.996 31.2539 332.68 31.543C332.367 31.832 332.211 32.209 332.211 32.6738ZM332.463 28.6953C332.463 29.1211 332.598 29.4727 332.867 29.75C333.137 30.0234 333.49 30.1602 333.928 30.1602C334.365 30.1602 334.717 30.0234 334.982 29.75C335.252 29.4727 335.387 29.1211 335.387 28.6953C335.387 28.2695 335.252 27.9219 334.982 27.6523C334.717 27.3789 334.365 27.2422 333.928 27.2422C333.49 27.2422 333.137 27.3789 332.867 27.6523C332.598 27.9219 332.463 28.2695 332.463 28.6953Z" fill="#A2A2A2"/>
<rect x="318" y="40" width="32" height="32" fill="#F9F9F9"/>
<rect x="318" y="40" width="32" height="32" stroke="#525252"/>
<path d="M329.611 62.5V48.2812H334.094C335.585 48.2812 336.73 48.6621 337.531 49.4238C338.339 50.179 338.742 51.1849 338.742 52.4414C338.742 53.6979 338.339 54.7168 337.531 55.498C336.73 56.2728 335.585 56.6602 334.094 56.6602H331.379V62.5H329.611ZM331.379 55.2051H334.094C335.168 55.2051 335.917 54.9382 336.34 54.4043C336.763 53.8704 336.975 53.2161 336.975 52.4414C336.975 51.6667 336.763 51.0221 336.34 50.5078C335.917 49.987 335.168 49.7266 334.094 49.7266H331.379V55.2051ZM337.502 62.5L334.025 55.9375L335.793 55.6738L339.475 62.5H337.502Z" fill="#262626"/>
<path d="M362.893 29.1289C362.893 28.2852 363.166 27.6016 363.713 27.0781C364.264 26.5547 364.957 26.293 365.793 26.293C366.633 26.293 367.354 26.5898 367.955 27.1836C368.561 27.7773 368.863 28.7383 368.863 30.0664V30.2422C368.863 31.6562 368.451 32.8125 367.627 33.7109C366.807 34.6094 365.637 35.0586 364.117 35.0586H363.994V34.1035H364.111C365.232 34.1035 366.115 33.791 366.76 33.166C367.408 32.541 367.732 31.5859 367.732 30.3008V30.0078C367.732 29 367.549 28.2871 367.182 27.8691C366.814 27.4512 366.352 27.2422 365.793 27.2422C365.234 27.2422 364.801 27.4082 364.492 27.7402C364.188 28.0684 364.035 28.5312 364.035 29.1289C364.035 29.7266 364.188 30.1895 364.492 30.5176C364.801 30.8418 365.234 31.0039 365.793 31.0039C366.312 31.0039 366.771 30.8418 367.17 30.5176C367.568 30.1895 367.768 29.7266 367.768 29.1289H368.189C368.189 29.9766 367.949 30.6602 367.469 31.1797C366.992 31.6992 366.354 31.959 365.553 31.959C364.76 31.959 364.117 31.6992 363.625 31.1797C363.137 30.6602 362.893 29.9766 362.893 29.1289Z" fill="#A2A2A2"/>
<rect x="350" y="40" width="32" height="32" fill="#F9F9F9"/>
<rect x="350" y="40" width="32" height="32" stroke="#525252"/>
<path d="M362.111 62.5V48.2812H370.783V49.7461H363.879V54.4336H369.885V55.8984H363.879V61.0352H370.881V62.5H362.111Z" fill="#262626"/>
<path d="M394.193 35V27.7285L391.99 28.6367V27.5234L395.137 26.3516H395.342V35H394.193ZM398.465 32.2402V29.2285C398.465 28.3496 398.711 27.6406 399.203 27.1016C399.699 26.5625 400.387 26.293 401.266 26.293C402.137 26.293 402.822 26.5625 403.322 27.1016C403.822 27.6406 404.072 28.3496 404.072 29.2285V32.2402C404.072 33.123 403.822 33.834 403.322 34.373C402.822 34.9082 402.137 35.1758 401.266 35.1758C400.387 35.1758 399.699 34.9082 399.203 34.373C398.711 33.834 398.465 33.123 398.465 32.2402ZM399.625 32.2988C399.625 32.8574 399.758 33.3184 400.023 33.6816C400.293 34.041 400.707 34.2207 401.266 34.2207C401.824 34.2207 402.238 34.041 402.508 33.6816C402.777 33.3184 402.912 32.8574 402.912 32.2988V29.1699C402.912 28.6113 402.777 28.1523 402.508 27.793C402.238 27.4297 401.824 27.248 401.266 27.248C400.707 27.248 400.293 27.4297 400.023 27.793C399.758 28.1523 399.625 28.6113 399.625 29.1699V32.2988Z" fill="#A2A2A2"/>
<rect x="382" y="40" width="32" height="32" fill="#F9F9F9"/>
<rect x="382" y="40" width="32" height="32" stroke="#525252"/>
<path d="M392.879 58.623V58.4375H394.646V58.623C394.646 59.5085 394.933 60.1725 395.506 60.6152C396.085 61.0514 396.889 61.2695 397.918 61.2695C398.953 61.2695 399.744 61.0449 400.291 60.5957C400.838 60.14 401.111 59.5475 401.111 58.8184C401.111 58.1478 400.848 57.6139 400.32 57.2168C399.799 56.8197 398.81 56.403 397.352 55.9668C395.848 55.5111 394.773 54.987 394.129 54.3945C393.491 53.8021 393.172 52.946 393.172 51.8262C393.172 50.7324 393.582 49.821 394.402 49.0918C395.223 48.3626 396.365 47.998 397.83 47.998C399.282 47.998 400.438 48.3789 401.297 49.1406C402.163 49.9023 402.596 50.8822 402.596 52.0801V52.2461H400.828V52.0801C400.828 51.3053 400.574 50.6836 400.066 50.2148C399.565 49.7461 398.82 49.5117 397.83 49.5117C396.827 49.5117 396.092 49.7168 395.623 50.127C395.154 50.5306 394.92 51.084 394.92 51.7871C394.92 52.4186 395.161 52.9199 395.643 53.291C396.124 53.6556 397.107 54.0592 398.592 54.502C400.083 54.9382 401.167 55.4785 401.844 56.123C402.521 56.7611 402.859 57.6595 402.859 58.8184C402.859 59.9772 402.417 60.9277 401.531 61.6699C400.646 62.4121 399.441 62.7832 397.918 62.7832C396.395 62.7832 395.174 62.4154 394.256 61.6797C393.338 60.9375 392.879 59.9186 392.879 58.623Z" fill="#262626"/>
<path d="M426.193 35V27.7285L423.99 28.6367V27.5234L427.137 26.3516H427.342V35H426.193ZM433.037 35V27.7285L430.834 28.6367V27.5234L433.98 26.3516H434.186V35H433.037Z" fill="#A2A2A2"/>
<rect x="414" y="40" width="32" height="32" fill="#F9F9F9"/>
<rect x="414" y="40" width="32" height="32" stroke="#525252"/>
<path d="M458.193 35V27.7285L455.99 28.6367V27.5234L459.137 26.3516H459.342V35H458.193ZM462.465 35V34.1445L465.588 30.8809C465.994 30.4629 466.303 30.0898 466.514 29.7617C466.729 29.4297 466.836 29.0703 466.836 28.6836C466.836 28.2969 466.701 27.9609 466.432 27.6758C466.162 27.3906 465.787 27.248 465.307 27.248C464.826 27.248 464.422 27.4023 464.094 27.7109C463.766 28.0156 463.602 28.4375 463.602 28.9766V29.0352H462.459V28.9766C462.459 28.1953 462.73 27.5527 463.273 27.0488C463.82 26.5449 464.498 26.293 465.307 26.293C466.107 26.293 466.752 26.5254 467.24 26.9902C467.732 27.4551 467.979 28 467.979 28.625C467.979 29.1836 467.82 29.6895 467.504 30.1426C467.188 30.5918 466.799 31.0508 466.338 31.5195L463.906 34.0156H468.213V35H462.465Z" fill="#A2A2A2"/>
<rect x="446" y="40" width="32" height="32" fill="#F9F9F9"/>
<rect x="446" y="40" width="32" height="32" stroke="#525252"/>
<path d="M456.215 49.7461V48.2812H466.986V49.7461H462.484V62.5H460.717V49.7461H456.215Z" fill="#262626"/>
<path d="M490.193 35V27.7285L487.99 28.6367V27.5234L491.137 26.3516H491.342V35H490.193ZM494.283 32.7617V32.7031H495.402V32.7617C495.402 33.2266 495.561 33.5879 495.877 33.8457C496.197 34.0996 496.621 34.2266 497.148 34.2266C497.676 34.2266 498.098 34.0996 498.414 33.8457C498.73 33.5879 498.889 33.1875 498.889 32.6445C498.889 32.1055 498.711 31.6992 498.355 31.4258C498 31.1523 497.523 31.0156 496.926 31.0156H496.229V30.0898H496.867C497.418 30.0898 497.842 29.9609 498.139 29.7031C498.439 29.4453 498.59 29.084 498.59 28.6191C498.59 28.1582 498.459 27.8145 498.197 27.5879C497.939 27.3574 497.59 27.2422 497.148 27.2422C496.695 27.2422 496.33 27.3574 496.053 27.5879C495.779 27.8145 495.643 28.1406 495.643 28.5664V28.625H494.523V28.5664C494.523 27.9375 494.768 27.4023 495.256 26.9609C495.744 26.5156 496.375 26.293 497.148 26.293C497.91 26.293 498.533 26.5039 499.018 26.9258C499.502 27.3477 499.744 27.8926 499.744 28.5605C499.744 28.9512 499.635 29.3262 499.416 29.6855C499.197 30.041 498.857 30.3164 498.396 30.5117V30.5352C498.896 30.6602 499.297 30.9082 499.598 31.2793C499.898 31.6504 500.049 32.1055 500.049 32.6445C500.049 33.4336 499.775 34.0527 499.229 34.502C498.682 34.9512 497.988 35.1758 497.148 35.1758C496.281 35.1758 495.586 34.9512 495.062 34.502C494.543 34.0488 494.283 33.4688 494.283 32.7617Z" fill="#A2A2A2"/>
<rect x="478" y="40" width="32" height="32" fill="#F9F9F9"/>
<rect x="478" y="40" width="32" height="32" stroke="#525252"/>
<path d="M489.611 62.5V48.2812H494.094C495.585 48.2812 496.73 48.6621 497.531 49.4238C498.339 50.179 498.742 51.1849 498.742 52.4414C498.742 53.6979 498.339 54.7168 497.531 55.498C496.73 56.2728 495.585 56.6602 494.094 56.6602H491.379V62.5H489.611ZM491.379 55.2051H494.094C495.168 55.2051 495.917 54.9382 496.34 54.4043C496.763 53.8704 496.975 53.2161 496.975 52.4414C496.975 51.6667 496.763 51.0221 496.34 50.5078C495.917 49.987 495.168 49.7266 494.094 49.7266H491.379V55.2051ZM497.502 62.5L494.025 55.9375L495.793 55.6738L499.475 62.5H497.502Z" fill="#262626"/>
<path d="M522.193 35V27.7285L519.99 28.6367V27.5234L523.137 26.3516H523.342V35H522.193ZM530.145 35V32.668V32.3633V28.2383H530.074L527.432 32.0527H530.432H530.889H532.441V33.002H526.119V32.2285L530.18 26.4688H531.229V35H530.145Z" fill="#A2A2A2"/>
<rect x="510" y="40" width="32" height="32" fill="#F9F9F9"/>
<rect x="510" y="40" width="32" height="32" stroke="#525252"/>
<path d="M524.66 62.5V48.2812H526.428V62.5H524.66Z" fill="#262626"/>
<path d="M554.193 35V27.7285L551.99 28.6367V27.5234L555.137 26.3516H555.342V35H554.193ZM558.4 32.8496V32.791H559.508V32.8496C559.508 33.2754 559.662 33.6113 559.971 33.8574C560.283 34.1035 560.699 34.2266 561.219 34.2266C561.738 34.2266 562.164 34.0566 562.496 33.7168C562.828 33.373 562.994 32.8926 562.994 32.2754C562.994 31.6582 562.828 31.1875 562.496 30.8633C562.164 30.5391 561.738 30.377 561.219 30.377C560.863 30.377 560.549 30.4414 560.275 30.5703C560.002 30.6992 559.746 30.8809 559.508 31.1152L558.699 30.7285L559.133 26.4688H563.68V27.4941H560.07L559.818 29.8789C560.014 29.7578 560.246 29.6523 560.516 29.5625C560.789 29.4688 561.086 29.4219 561.406 29.4219C562.164 29.4219 562.807 29.6738 563.334 30.1777C563.865 30.6777 564.131 31.377 564.131 32.2754C564.131 33.1738 563.855 33.8828 563.305 34.4023C562.754 34.918 562.059 35.1758 561.219 35.1758C560.344 35.1758 559.654 34.9551 559.15 34.5137C558.65 34.0723 558.4 33.5176 558.4 32.8496Z" fill="#A2A2A2"/>
<rect x="542" y="40" width="32" height="32" fill="#F9F9F9"/>
<rect x="542" y="40" width="32" height="32" stroke="#525252"/>
<path d="M552.879 58.623V58.4375H554.646V58.623C554.646 59.5085 554.933 60.1725 555.506 60.6152C556.085 61.0514 556.889 61.2695 557.918 61.2695C558.953 61.2695 559.744 61.0449 560.291 60.5957C560.838 60.14 561.111 59.5475 561.111 58.8184C561.111 58.1478 560.848 57.6139 560.32 57.2168C559.799 56.8197 558.81 56.403 557.352 55.9668C555.848 55.5111 554.773 54.987 554.129 54.3945C553.491 53.8021 553.172 52.946 553.172 51.8262C553.172 50.7324 553.582 49.821 554.402 49.0918C555.223 48.3626 556.365 47.998 557.83 47.998C559.282 47.998 560.438 48.3789 561.297 49.1406C562.163 49.9023 562.596 50.8822 562.596 52.0801V52.2461H560.828V52.0801C560.828 51.3053 560.574 50.6836 560.066 50.2148C559.565 49.7461 558.82 49.5117 557.83 49.5117C556.827 49.5117 556.092 49.7168 555.623 50.127C555.154 50.5306 554.92 51.084 554.92 51.7871C554.92 52.4186 555.161 52.9199 555.643 53.291C556.124 53.6556 557.107 54.0592 558.592 54.502C560.083 54.9382 561.167 55.4785 561.844 56.123C562.521 56.7611 562.859 57.6595 562.859 58.8184C562.859 59.9772 562.417 60.9277 561.531 61.6699C560.646 62.4121 559.441 62.7832 557.918 62.7832C556.395 62.7832 555.174 62.4154 554.256 61.6797C553.338 60.9375 552.879 59.9186 552.879 58.623Z" fill="#262626"/>
<path d="M586.193 35V27.7285L583.99 28.6367V27.5234L587.137 26.3516H587.342V35H586.193ZM590.33 31.4023V31.2266C590.33 29.7422 590.74 28.5488 591.561 27.6465C592.385 26.7441 593.557 26.293 595.076 26.293H595.199V27.248H595.076C593.959 27.248 593.076 27.5625 592.428 28.1914C591.779 28.8203 591.455 29.8125 591.455 31.168V31.4609C591.455 32.4688 591.639 33.1816 592.006 33.5996C592.373 34.0176 592.836 34.2266 593.395 34.2266C593.953 34.2266 594.385 34.0566 594.689 33.7168C594.998 33.377 595.152 32.8984 595.152 32.2812C595.152 31.6641 594.998 31.1875 594.689 30.8516C594.385 30.5156 593.953 30.3477 593.395 30.3477C592.875 30.3477 592.416 30.5156 592.018 30.8516C591.619 31.1875 591.42 31.6641 591.42 32.2812H590.998C590.998 31.418 591.238 30.7207 591.719 30.1895C592.199 29.6582 592.838 29.3926 593.635 29.3926C594.436 29.3926 595.078 29.6582 595.562 30.1895C596.051 30.7207 596.295 31.418 596.295 32.2812C596.295 33.1406 596.021 33.8379 595.475 34.373C594.928 34.9082 594.234 35.1758 593.395 35.1758C592.555 35.1758 591.834 34.8789 591.232 34.2852C590.631 33.6914 590.33 32.7305 590.33 31.4023Z" fill="#A2A2A2"/>
<rect x="574" y="40" width="32" height="32" fill="#F9F9F9"/>
<rect x="574" y="40" width="32" height="32" stroke="#525252"/>
<path d="M584.215 49.7461V48.2812H594.986V49.7461H590.484V62.5H588.717V49.7461H584.215Z" fill="#262626"/>
<path d="M618.193 35V27.7285L615.99 28.6367V27.5234L619.137 26.3516H619.342V35H618.193ZM623.584 35L626.895 27.4414H622.283V26.4688H628.102V27.1133L624.762 35H623.584Z" fill="#A2A2A2"/>
<rect x="606" y="40" width="32" height="32" fill="#F9F9F9"/>
<rect x="606" y="40" width="32" height="32" stroke="#525252"/>
<path d="M618.111 62.5V48.2812H626.783V49.7461H619.879V54.4336H625.885V55.8984H619.879V61.0352H626.881V62.5H618.111Z" fill="#262626"/>
<path d="M650.193 35V27.7285L647.99 28.6367V27.5234L651.137 26.3516H651.342V35H650.193ZM654.424 32.7383C654.424 32.2305 654.566 31.7969 654.852 31.4375C655.137 31.0781 655.502 30.8105 655.947 30.6348V30.6113C655.604 30.4434 655.309 30.1895 655.062 29.8496C654.82 29.5059 654.699 29.0996 654.699 28.6309C654.699 27.9277 654.947 27.3633 655.443 26.9375C655.943 26.5078 656.553 26.293 657.271 26.293C657.99 26.293 658.596 26.5059 659.088 26.9316C659.584 27.3574 659.832 27.9238 659.832 28.6309C659.832 29.0996 659.711 29.5059 659.469 29.8496C659.227 30.1895 658.934 30.4434 658.59 30.6113V30.6348C659.035 30.8105 659.398 31.0781 659.68 31.4375C659.965 31.7969 660.107 32.2305 660.107 32.7383C660.107 33.5117 659.834 34.1113 659.287 34.5371C658.74 34.9629 658.068 35.1758 657.271 35.1758C656.475 35.1758 655.801 34.9629 655.25 34.5371C654.699 34.1113 654.424 33.5117 654.424 32.7383ZM655.555 32.6738C655.555 33.1387 655.711 33.5137 656.023 33.7988C656.34 34.084 656.756 34.2266 657.271 34.2266C657.787 34.2266 658.201 34.084 658.514 33.7988C658.826 33.5137 658.982 33.1387 658.982 32.6738C658.982 32.209 658.826 31.832 658.514 31.543C658.201 31.2539 657.787 31.1094 657.271 31.1094C656.756 31.1094 656.34 31.2539 656.023 31.543C655.711 31.832 655.555 32.209 655.555 32.6738ZM655.807 28.6953C655.807 29.1211 655.941 29.4727 656.211 29.75C656.48 30.0234 656.834 30.1602 657.271 30.1602C657.709 30.1602 658.061 30.0234 658.326 29.75C658.596 29.4727 658.73 29.1211 658.73 28.6953C658.73 28.2695 658.596 27.9219 658.326 27.6523C658.061 27.3789 657.709 27.2422 657.271 27.2422C656.834 27.2422 656.48 27.3789 656.211 27.6523C655.941 27.9219 655.807 28.2695 655.807 28.6953Z" fill="#A2A2A2"/>
<rect x="638" y="40" width="32" height="32" fill="#F9F9F9"/>
<rect x="638" y="40" width="32" height="32" stroke="#525252"/>
<path d="M648.879 58.623V58.4375H650.646V58.623C650.646 59.5085 650.933 60.1725 651.506 60.6152C652.085 61.0514 652.889 61.2695 653.918 61.2695C654.953 61.2695 655.744 61.0449 656.291 60.5957C656.838 60.14 657.111 59.5475 657.111 58.8184C657.111 58.1478 656.848 57.6139 656.32 57.2168C655.799 56.8197 654.81 56.403 653.352 55.9668C651.848 55.5111 650.773 54.987 650.129 54.3945C649.491 53.8021 649.172 52.946 649.172 51.8262C649.172 50.7324 649.582 49.821 650.402 49.0918C651.223 48.3626 652.365 47.998 653.83 47.998C655.282 47.998 656.438 48.3789 657.297 49.1406C658.163 49.9023 658.596 50.8822 658.596 52.0801V52.2461H656.828V52.0801C656.828 51.3053 656.574 50.6836 656.066 50.2148C655.565 49.7461 654.82 49.5117 653.83 49.5117C652.827 49.5117 652.092 49.7168 651.623 50.127C651.154 50.5306 650.92 51.084 650.92 51.7871C650.92 52.4186 651.161 52.9199 651.643 53.291C652.124 53.6556 653.107 54.0592 654.592 54.502C656.083 54.9382 657.167 55.4785 657.844 56.123C658.521 56.7611 658.859 57.6595 658.859 58.8184C658.859 59.9772 658.417 60.9277 657.531 61.6699C656.646 62.4121 655.441 62.7832 653.918 62.7832C652.395 62.7832 651.174 62.4154 650.256 61.6797C649.338 60.9375 648.879 59.9186 648.879 58.623Z" fill="#262626"/>
<rect x="62" y="106" width="32" height="32" fill="#A6F2CF"/>
<rect x="62" y="106" width="32" height="32" stroke="#525252"/>
<path d="M72.2148 115.746V114.281H82.9863V115.746H78.4844V128.5H76.7168V115.746H72.2148Z" fill="#262626"/>
<rect x="94" y="106" width="32" height="32" fill="#A6F2CF"/>
<rect x="94" y="106" width="32" height="32" stroke="#525252"/>
<path d="M105.611 128.5V114.281H110.094C111.585 114.281 112.73 114.662 113.531 115.424C114.339 116.179 114.742 117.185 114.742 118.441C114.742 119.698 114.339 120.717 113.531 121.498C112.73 122.273 111.585 122.66 110.094 122.66H107.379V128.5H105.611ZM107.379 121.205H110.094C111.168 121.205 111.917 120.938 112.34 120.404C112.763 119.87 112.975 119.216 112.975 118.441C112.975 117.667 112.763 117.022 112.34 116.508C111.917 115.987 111.168 115.727 110.094 115.727H107.379V121.205ZM113.502 128.5L110.025 121.938L111.793 121.674L115.475 128.5H113.502Z" fill="#262626"/>
<rect x="126" y="106" width="32" height="32" fill="#FDCCD2"/>
<rect x="126" y="106" width="32" height="32" stroke="#525252"/>
<path d="M140.66 128.5V114.281H142.428V128.5H140.66Z" fill="#262626"/>
<rect x="158" y="106" width="32" height="32" fill="#F9F9F9"/>
<rect x="158" y="106" width="32" height="32" stroke="#525252"/>
<path d="M168.879 124.623V124.438H170.646V124.623C170.646 125.508 170.933 126.173 171.506 126.615C172.085 127.051 172.889 127.27 173.918 127.27C174.953 127.27 175.744 127.045 176.291 126.596C176.838 126.14 177.111 125.548 177.111 124.818C177.111 124.148 176.848 123.614 176.32 123.217C175.799 122.82 174.81 122.403 173.352 121.967C171.848 121.511 170.773 120.987 170.129 120.395C169.491 119.802 169.172 118.946 169.172 117.826C169.172 116.732 169.582 115.821 170.402 115.092C171.223 114.363 172.365 113.998 173.83 113.998C175.282 113.998 176.438 114.379 177.297 115.141C178.163 115.902 178.596 116.882 178.596 118.08V118.246H176.828V118.08C176.828 117.305 176.574 116.684 176.066 116.215C175.565 115.746 174.82 115.512 173.83 115.512C172.827 115.512 172.092 115.717 171.623 116.127C171.154 116.531 170.92 117.084 170.92 117.787C170.92 118.419 171.161 118.92 171.643 119.291C172.124 119.656 173.107 120.059 174.592 120.502C176.083 120.938 177.167 121.479 177.844 122.123C178.521 122.761 178.859 123.66 178.859 124.818C178.859 125.977 178.417 126.928 177.531 127.67C176.646 128.412 175.441 128.783 173.918 128.783C172.395 128.783 171.174 128.415 170.256 127.68C169.338 126.938 168.879 125.919 168.879 124.623Z" fill="#262626"/>
<rect x="190" y="106" width="32" height="32" fill="#F9F9F9"/>
<rect x="190" y="106" width="32" height="32" stroke="#525252"/>
<path d="M200.215 115.746V114.281H210.986V115.746H206.484V128.5H204.717V115.746H200.215Z" fill="#262626"/>
<rect x="222" y="106" width="32" height="32" fill="#F9F9F9"/>
<rect x="222" y="106" width="32" height="32" stroke="#525252"/>
<path d="M234.111 128.5V114.281H242.783V115.746H235.879V120.434H241.885V121.898H235.879V127.035H242.881V128.5H234.111Z" fill="#262626"/>
<path d="M8.87891 108.123V107.938H10.6465V108.123C10.6465 109.008 10.9329 109.673 11.5059 110.115C12.0853 110.551 12.8893 110.77 13.918 110.77C14.9531 110.77 15.7441 110.545 16.291 110.096C16.8379 109.64 17.1113 109.048 17.1113 108.318C17.1113 107.648 16.8477 107.114 16.3203 106.717C15.7995 106.32 14.8099 105.903 13.3516 105.467C11.8477 105.011 10.7734 104.487 10.1289 103.895C9.49089 103.302 9.17188 102.446 9.17188 101.326C9.17188 100.232 9.58203 99.321 10.4023 98.5918C11.2227 97.8626 12.3652 97.498 13.8301 97.498C15.2819 97.498 16.4375 97.8789 17.2969 98.6406C18.1628 99.4023 18.5957 100.382 18.5957 101.58V101.746H16.8281V101.58C16.8281 100.805 16.5742 100.184 16.0664 99.7148C15.5651 99.2461 14.8197 99.0117 13.8301 99.0117C12.8275 99.0117 12.0918 99.2168 11.623 99.627C11.1543 100.031 10.9199 100.584 10.9199 101.287C10.9199 101.919 11.1608 102.42 11.6426 102.791C12.1243 103.156 13.1074 103.559 14.5918 104.002C16.0827 104.438 17.1667 104.979 17.8438 105.623C18.5208 106.261 18.8594 107.16 18.8594 108.318C18.8594 109.477 18.4167 110.428 17.5312 111.17C16.6458 111.912 15.4414 112.283 13.918 112.283C12.3945 112.283 11.1738 111.915 10.2559 111.18C9.33789 110.438 8.87891 109.419 8.87891 108.123ZM24.9238 108.211V106.648H33.7324V108.211H24.9238ZM24.9238 104.373V102.811H33.7324V104.373H24.9238ZM40.0508 107.547V102.234C40.0508 100.796 40.4414 99.6465 41.2227 98.7871C42.0104 97.9277 43.1009 97.498 44.4941 97.498C45.8743 97.498 46.9583 97.9277 47.7461 98.7871C48.5404 99.6465 48.9375 100.796 48.9375 102.234V107.547C48.9375 108.986 48.5404 110.135 47.7461 110.994C46.9583 111.854 45.8743 112.283 44.4941 112.283C43.1009 112.277 42.0104 111.847 41.2227 110.994C40.4414 110.135 40.0508 108.986 40.0508 107.547ZM41.8281 107.645C41.8281 108.582 42.0462 109.347 42.4824 109.939C42.9186 110.525 43.5892 110.818 44.4941 110.818C45.3926 110.818 46.0599 110.525 46.4961 109.939C46.9323 109.347 47.1504 108.582 47.1504 107.645V102.137C47.1504 101.199 46.9323 100.438 46.4961 99.8516C46.0599 99.2591 45.3926 98.9629 44.4941 98.9629C43.5892 98.9629 42.9186 99.2591 42.4824 99.8516C42.0462 100.438 41.8281 101.199 41.8281 102.137V107.645Z" fill="black"/>
<path d="M9.16211 159V149.047H10.5293L15.0342 156.02C15.1253 156.156 15.2096 156.293 15.2871 156.43C15.3691 156.566 15.4375 156.692 15.4922 156.806H15.5469C15.5423 156.669 15.5378 156.516 15.5332 156.348C15.5332 156.174 15.5332 156.02 15.5332 155.883V149.047H16.8184V159H15.4512L10.9463 152.027C10.8551 151.891 10.7708 151.754 10.6934 151.617C10.6159 151.48 10.5452 151.355 10.4814 151.241H10.4336C10.4382 151.378 10.4404 151.533 10.4404 151.706C10.445 151.875 10.4473 152.027 10.4473 152.164V159H9.16211ZM21.7881 156.396V155.24H28.0088V156.396H21.7881ZM21.7881 153.695V152.54H28.0088V153.695H21.7881ZM35.5078 159V150.489L32.9922 151.549V150.277L36.6152 148.91H36.8203V159H35.5078ZM40.2109 152.15C40.2109 151.166 40.5231 150.368 41.1475 149.758C41.7718 149.147 42.5625 148.842 43.5195 148.842C44.4766 148.842 45.2992 149.188 45.9873 149.881C46.6755 150.574 47.0195 151.695 47.0195 153.244V153.449C47.0195 155.058 46.5501 156.386 45.6113 157.435C44.6771 158.478 43.3441 159 41.6123 159H41.4688V157.92H41.6055C42.8815 157.92 43.8887 157.555 44.627 156.826C45.3652 156.092 45.7344 154.99 45.7344 153.518V153.176C45.7344 151.991 45.5247 151.152 45.1055 150.66C44.6862 150.168 44.1576 149.922 43.5195 149.922C42.8815 149.922 42.387 150.118 42.0361 150.51C41.6852 150.897 41.5098 151.444 41.5098 152.15C41.5098 152.857 41.6852 153.404 42.0361 153.791C42.387 154.174 42.8815 154.365 43.5195 154.365C44.112 154.365 44.6361 154.174 45.0918 153.791C45.5475 153.404 45.7754 152.857 45.7754 152.15H46.2539C46.2539 153.135 45.9805 153.93 45.4336 154.536C44.8867 155.142 44.1576 155.445 43.2461 155.445C42.3392 155.445 41.6055 155.142 41.0449 154.536C40.4889 153.93 40.2109 153.135 40.2109 152.15ZM9.16211 175V165.047H10.8574L13.8105 172.532C13.8652 172.669 13.9154 172.812 13.9609 172.963C14.0111 173.109 14.0544 173.25 14.0908 173.387H14.1455C14.182 173.25 14.223 173.109 14.2686 172.963C14.3187 172.812 14.3711 172.669 14.4258 172.532L17.3789 165.047H19.0742V175H17.8027V167.822C17.8027 167.686 17.805 167.533 17.8096 167.364C17.8141 167.191 17.8255 167.036 17.8438 166.899H17.7891C17.7617 167.036 17.7207 167.191 17.666 167.364C17.6113 167.533 17.5566 167.686 17.502 167.822L14.6719 175H13.5371L10.707 167.822C10.6523 167.686 10.5977 167.533 10.543 167.364C10.4883 167.191 10.4473 167.036 10.4199 166.899H10.3652C10.3835 167.036 10.3949 167.191 10.3994 167.364C10.404 167.533 10.4062 167.686 10.4062 167.822V175H9.16211ZM24.0439 172.396V171.24H30.2646V172.396H24.0439ZM24.0439 169.695V168.54H30.2646V169.695H24.0439ZM34.6738 170.803V170.598C34.6738 168.866 35.1432 167.474 36.082 166.421C37.0208 165.368 38.3561 164.842 40.0879 164.842H40.2246V165.922H40.0879C38.8118 165.922 37.8047 166.291 37.0664 167.029C36.3281 167.768 35.959 168.934 35.959 170.529V170.871C35.959 172.056 36.1686 172.895 36.5879 173.387C37.0072 173.879 37.5358 174.125 38.1738 174.125C38.8118 174.125 39.3063 173.924 39.6572 173.523C40.0081 173.122 40.1836 172.557 40.1836 171.828C40.1836 171.099 40.0081 170.536 39.6572 170.14C39.3063 169.743 38.8118 169.545 38.1738 169.545C37.5814 169.545 37.0573 169.743 36.6016 170.14C36.1458 170.536 35.918 171.099 35.918 171.828H35.4395C35.4395 170.826 35.7129 170.014 36.2598 169.395C36.8066 168.775 37.5358 168.465 38.4473 168.465C39.3587 168.465 40.0924 168.775 40.6484 169.395C41.2044 170.014 41.4824 170.826 41.4824 171.828C41.4824 172.831 41.1702 173.644 40.5459 174.269C39.9215 174.893 39.1309 175.205 38.1738 175.205C37.2168 175.205 36.3942 174.859 35.7061 174.166C35.0179 173.473 34.6738 172.352 34.6738 170.803ZM8.78613 186.338V185.709C8.78613 184.178 9.17806 182.984 9.96191 182.127C10.7503 181.27 11.7598 180.842 12.9902 180.842C14.2207 180.842 15.2279 181.27 16.0117 182.127C16.8001 182.984 17.1943 184.178 17.1943 185.709V186.338C17.1943 187.869 16.8001 189.063 16.0117 189.92C15.2279 190.777 14.2207 191.205 12.9902 191.205C11.7598 191.205 10.7503 190.777 9.96191 189.92C9.17806 189.063 8.78613 187.869 8.78613 186.338ZM10.1123 186.338C10.1123 187.505 10.3743 188.421 10.8984 189.086C11.4271 189.751 12.1243 190.084 12.9902 190.084C13.8561 190.084 14.5511 189.751 15.0752 189.086C15.6038 188.421 15.8682 187.505 15.8682 186.338V185.709C15.8682 184.542 15.6038 183.626 15.0752 182.961C14.5511 182.296 13.8561 181.963 12.9902 181.963C12.1243 181.963 11.4271 182.296 10.8984 182.961C10.3743 183.626 10.1123 184.542 10.1123 185.709V186.338ZM16.2031 192.709L13.8105 190.795L14.665 189.94L17.0918 191.82L16.2031 192.709ZM18.9238 188.45V183.809H20.1953V188.464C20.1953 189.038 20.3229 189.451 20.5781 189.701C20.8379 189.947 21.2048 190.07 21.6787 190.07C22.0843 190.07 22.4421 189.961 22.752 189.742C23.0618 189.523 23.3034 189.241 23.4766 188.895V183.809H24.748V191H23.5996L23.5449 190.077H23.5039C23.2441 190.405 22.9251 190.665 22.5469 190.856C22.1732 191.043 21.7585 191.137 21.3027 191.137C20.5781 191.137 19.9993 190.932 19.5664 190.521C19.138 190.107 18.9238 189.416 18.9238 188.45ZM26.375 188.881C26.375 188.152 26.6644 187.584 27.2432 187.179C27.8219 186.773 28.5579 186.57 29.4512 186.57H31.0781V186.078C31.0781 185.645 30.9665 185.294 30.7432 185.025C30.5199 184.752 30.1348 184.615 29.5879 184.615C29.041 184.615 28.6491 184.729 28.4121 184.957C28.1797 185.18 28.0635 185.44 28.0635 185.736V185.771H26.7988V185.736C26.7988 185.167 27.0518 184.67 27.5576 184.246C28.068 183.818 28.7562 183.604 29.6221 183.604C30.488 183.604 31.1579 183.811 31.6318 184.226C32.1104 184.64 32.3496 185.258 32.3496 186.078V189.359C32.3496 189.656 32.3724 189.936 32.418 190.2C32.4635 190.46 32.5273 190.69 32.6094 190.891V191H31.3789C31.3151 190.886 31.2559 190.738 31.2012 190.556C31.151 190.373 31.1191 190.191 31.1055 190.009C30.9368 190.305 30.6634 190.567 30.2852 190.795C29.9115 191.023 29.4284 191.137 28.8359 191.137C28.1523 191.137 27.5713 190.943 27.0928 190.556C26.6143 190.168 26.375 189.61 26.375 188.881ZM27.6465 188.812C27.6465 189.223 27.765 189.544 28.002 189.776C28.2389 190.009 28.6081 190.125 29.1094 190.125C29.6107 190.125 30.0641 189.952 30.4697 189.605C30.8753 189.259 31.0781 188.892 31.0781 188.505V187.473H29.5879C28.9499 187.473 28.4668 187.593 28.1387 187.835C27.8105 188.076 27.6465 188.402 27.6465 188.812ZM34.332 191V183.809H35.4805L35.5352 184.731H35.5762C35.8359 184.403 36.1527 184.146 36.5264 183.959C36.9046 183.768 37.3216 183.672 37.7773 183.672C38.502 183.672 39.0785 183.879 39.5068 184.294C39.9398 184.704 40.1562 185.392 40.1562 186.358V191H38.8848V186.345C38.8848 185.771 38.7549 185.36 38.4951 185.114C38.2399 184.864 37.8753 184.738 37.4014 184.738C36.9958 184.738 36.638 184.848 36.3281 185.066C36.0182 185.285 35.7767 185.568 35.6035 185.914V191H34.332ZM41.0996 184.779V183.809H45.2012V184.779H41.0996ZM42.3848 189.223V184.396V184.191V182.031H43.6562V189.223C43.6562 189.542 43.7201 189.77 43.8477 189.906C43.9753 190.043 44.1758 190.111 44.4492 190.111C44.5768 190.111 44.7021 190.098 44.8252 190.07C44.9482 190.043 45.0736 190.007 45.2012 189.961V191C45.0827 191.055 44.9277 191.103 44.7363 191.144C44.5449 191.185 44.3353 191.205 44.1074 191.205C43.5833 191.205 43.1641 191.046 42.8496 190.727C42.5397 190.408 42.3848 189.906 42.3848 189.223ZM46.6162 191V183.809H47.8877V191H46.6162ZM46.459 181.635C46.459 181.421 46.5273 181.241 46.6641 181.095C46.8008 180.949 46.9967 180.876 47.252 180.876C47.5072 180.876 47.7031 180.949 47.8398 181.095C47.9766 181.241 48.0449 181.421 48.0449 181.635C48.0449 181.849 47.9766 182.029 47.8398 182.175C47.7031 182.321 47.5072 182.394 47.252 182.394C46.9967 182.394 46.8008 182.321 46.6641 182.175C46.5273 182.029 46.459 181.849 46.459 181.635ZM49.542 187.514V187.295C49.542 186.247 49.8154 185.381 50.3623 184.697C50.9092 184.014 51.6383 183.672 52.5498 183.672C53.0511 183.672 53.4772 183.763 53.8281 183.945C54.1836 184.123 54.4661 184.36 54.6758 184.656V180.5H55.9473V191H54.7988L54.7441 190.063H54.7031C54.5208 190.36 54.2406 190.613 53.8623 190.822C53.4886 191.032 53.0511 191.137 52.5498 191.137C51.6383 191.137 50.9092 190.795 50.3623 190.111C49.8154 189.428 49.542 188.562 49.542 187.514ZM50.8408 187.514C50.8408 188.243 51.0003 188.856 51.3193 189.353C51.6383 189.849 52.1396 190.098 52.8232 190.098C53.279 190.098 53.6663 189.972 53.9854 189.722C54.3044 189.471 54.5345 189.186 54.6758 188.867V185.941C54.5345 185.622 54.3044 185.338 53.9854 185.087C53.6663 184.836 53.279 184.711 52.8232 184.711C52.1396 184.711 51.6383 184.959 51.3193 185.456C51.0003 185.953 50.8408 186.566 50.8408 187.295V187.514ZM57.5742 188.881C57.5742 188.152 57.8636 187.584 58.4424 187.179C59.0212 186.773 59.7572 186.57 60.6504 186.57H62.2773V186.078C62.2773 185.645 62.1657 185.294 61.9424 185.025C61.7191 184.752 61.334 184.615 60.7871 184.615C60.2402 184.615 59.8483 184.729 59.6113 184.957C59.3789 185.18 59.2627 185.44 59.2627 185.736V185.771H57.998V185.736C57.998 185.167 58.251 184.67 58.7568 184.246C59.2673 183.818 59.9554 183.604 60.8213 183.604C61.6872 183.604 62.3571 183.811 62.8311 184.226C63.3096 184.64 63.5488 185.258 63.5488 186.078V189.359C63.5488 189.656 63.5716 189.936 63.6172 190.2C63.6628 190.46 63.7266 190.69 63.8086 190.891V191H62.5781C62.5143 190.886 62.4551 190.738 62.4004 190.556C62.3503 190.373 62.3184 190.191 62.3047 190.009C62.1361 190.305 61.8626 190.567 61.4844 190.795C61.1107 191.023 60.6276 191.137 60.0352 191.137C59.3516 191.137 58.7705 190.943 58.292 190.556C57.8135 190.168 57.5742 189.61 57.5742 188.881ZM58.8457 188.812C58.8457 189.223 58.9642 189.544 59.2012 189.776C59.4382 190.009 59.8073 190.125 60.3086 190.125C60.8099 190.125 61.2633 189.952 61.6689 189.605C62.0745 189.259 62.2773 188.892 62.2773 188.505V187.473H60.7871C60.1491 187.473 59.666 187.593 59.3379 187.835C59.0098 188.076 58.8457 188.402 58.8457 188.812ZM65.1006 187.514V187.295C65.1006 186.247 65.374 185.381 65.9209 184.697C66.4678 184.014 67.1969 183.672 68.1084 183.672C68.6097 183.672 69.0358 183.763 69.3867 183.945C69.7422 184.123 70.0247 184.36 70.2344 184.656V180.5H71.5059V191H70.3574L70.3027 190.063H70.2617C70.0794 190.36 69.7992 190.613 69.4209 190.822C69.0472 191.032 68.6097 191.137 68.1084 191.137C67.1969 191.137 66.4678 190.795 65.9209 190.111C65.374 189.428 65.1006 188.562 65.1006 187.514ZM66.3994 187.514C66.3994 188.243 66.5589 188.856 66.8779 189.353C67.1969 189.849 67.6982 190.098 68.3818 190.098C68.8376 190.098 69.2249 189.972 69.5439 189.722C69.863 189.471 70.0931 189.186 70.2344 188.867V185.941C70.0931 185.622 69.863 185.338 69.5439 185.087C69.2249 184.836 68.8376 184.711 68.3818 184.711C67.6982 184.711 67.1969 184.959 66.8779 185.456C66.5589 185.953 66.3994 186.566 66.3994 187.295V187.514ZM73.0986 187.514V187.295C73.0986 186.21 73.3949 185.324 73.9873 184.636C74.5843 183.948 75.3727 183.604 76.3525 183.604C77.3324 183.604 78.0866 183.925 78.6152 184.567C79.1439 185.21 79.4082 186.078 79.4082 187.172V187.691H73.8779V186.68H78.1299V186.516C78.1299 185.996 77.9818 185.554 77.6855 185.189C77.3893 184.825 76.9632 184.643 76.4072 184.643C75.7327 184.643 75.2292 184.9 74.8965 185.415C74.5638 185.925 74.3975 186.552 74.3975 187.295V187.514C74.3975 188.257 74.5729 188.885 74.9238 189.4C75.2747 189.911 75.8193 190.166 76.5576 190.166C77.0133 190.166 77.4053 190.066 77.7334 189.865C78.0615 189.665 78.3281 189.428 78.5332 189.154L79.3535 189.804C79.1257 190.146 78.7725 190.465 78.2939 190.761C77.82 191.057 77.2412 191.205 76.5576 191.205C75.4411 191.205 74.5843 190.861 73.9873 190.173C73.3949 189.485 73.0986 188.598 73.0986 187.514ZM83.9541 187.514V187.295C83.9541 186.247 84.2275 185.381 84.7744 184.697C85.3213 184.014 86.0505 183.672 86.9619 183.672C87.4632 183.672 87.8893 183.763 88.2402 183.945C88.5957 184.123 88.8783 184.36 89.0879 184.656V180.5H90.3594V191H89.2109L89.1562 190.063H89.1152C88.9329 190.36 88.6527 190.613 88.2744 190.822C87.9007 191.032 87.4632 191.137 86.9619 191.137C86.0505 191.137 85.3213 190.795 84.7744 190.111C84.2275 189.428 83.9541 188.562 83.9541 187.514ZM85.2529 187.514C85.2529 188.243 85.4124 188.856 85.7314 189.353C86.0505 189.849 86.5518 190.098 87.2354 190.098C87.6911 190.098 88.0785 189.972 88.3975 189.722C88.7165 189.471 88.9466 189.186 89.0879 188.867V185.941C88.9466 185.622 88.7165 185.338 88.3975 185.087C88.0785 184.836 87.6911 184.711 87.2354 184.711C86.5518 184.711 86.0505 184.959 85.7314 185.456C85.4124 185.953 85.2529 186.566 85.2529 187.295V187.514ZM91.9521 187.514V187.295C91.9521 186.21 92.2484 185.324 92.8408 184.636C93.4378 183.948 94.2262 183.604 95.2061 183.604C96.1859 183.604 96.9401 183.925 97.4688 184.567C97.9974 185.21 98.2617 186.078 98.2617 187.172V187.691H92.7314V186.68H96.9834V186.516C96.9834 185.996 96.8353 185.554 96.5391 185.189C96.2428 184.825 95.8167 184.643 95.2607 184.643C94.5863 184.643 94.0827 184.9 93.75 185.415C93.4173 185.925 93.251 186.552 93.251 187.295V187.514C93.251 188.257 93.4264 188.885 93.7773 189.4C94.1283 189.911 94.6729 190.166 95.4111 190.166C95.8669 190.166 96.2588 190.066 96.5869 189.865C96.915 189.665 97.1816 189.428 97.3867 189.154L98.207 189.804C97.9792 190.146 97.626 190.465 97.1475 190.761C96.6735 191.057 96.0947 191.205 95.4111 191.205C94.2946 191.205 93.4378 190.861 92.8408 190.173C92.2484 189.485 91.9521 188.598 91.9521 187.514ZM103.013 186.338V185.709C103.013 184.178 103.405 182.984 104.188 182.127C104.977 181.27 105.964 180.842 107.148 180.842C108.333 180.842 109.261 181.168 109.931 181.819C110.605 182.466 110.942 183.248 110.942 184.164V184.232H109.63V184.164C109.63 183.531 109.425 183.007 109.015 182.592C108.604 182.173 107.982 181.963 107.148 181.963C106.333 181.963 105.66 182.271 105.132 182.886C104.603 183.501 104.339 184.442 104.339 185.709V186.338C104.339 187.505 104.601 188.421 105.125 189.086C105.654 189.751 106.328 190.084 107.148 190.084C107.932 190.084 108.525 189.872 108.926 189.448C109.327 189.024 109.559 188.503 109.623 187.883L109.63 187.814H110.942L110.936 187.883C110.844 188.794 110.487 189.576 109.862 190.228C109.238 190.879 108.333 191.205 107.148 191.205C105.964 191.205 104.977 190.777 104.188 189.92C103.405 189.063 103.013 187.869 103.013 186.338ZM112.104 187.514V187.295C112.104 186.21 112.412 185.324 113.027 184.636C113.643 183.948 114.465 183.604 115.495 183.604C116.525 183.604 117.348 183.948 117.963 184.636C118.578 185.324 118.886 186.21 118.886 187.295V187.514C118.886 188.598 118.578 189.485 117.963 190.173C117.348 190.861 116.525 191.205 115.495 191.205C114.465 191.205 113.643 190.861 113.027 190.173C112.412 189.485 112.104 188.598 112.104 187.514ZM113.403 187.295V187.514C113.403 188.257 113.579 188.885 113.93 189.4C114.281 189.911 114.802 190.166 115.495 190.166C116.188 190.166 116.71 189.911 117.061 189.4C117.411 188.885 117.587 188.257 117.587 187.514V187.295C117.587 186.552 117.411 185.925 117.061 185.415C116.71 184.9 116.188 184.643 115.495 184.643C114.802 184.643 114.281 184.9 113.93 185.415C113.579 185.925 113.403 186.552 113.403 187.295ZM120.479 191V183.809H121.627L121.682 184.731H121.723C121.978 184.408 122.285 184.15 122.646 183.959C123.01 183.768 123.413 183.672 123.855 183.672C124.339 183.672 124.756 183.768 125.106 183.959C125.457 184.15 125.724 184.46 125.906 184.889H125.947C126.248 184.46 126.581 184.15 126.945 183.959C127.31 183.768 127.729 183.672 128.203 183.672C128.951 183.672 129.534 183.879 129.953 184.294C130.372 184.704 130.582 185.392 130.582 186.358V191H129.311V186.345C129.311 185.771 129.188 185.36 128.941 185.114C128.695 184.864 128.347 184.738 127.896 184.738C127.504 184.738 127.16 184.848 126.863 185.066C126.572 185.285 126.339 185.568 126.166 185.914V191H124.895V186.345C124.895 185.771 124.771 185.36 124.525 185.114C124.279 184.864 123.931 184.738 123.479 184.738C123.088 184.738 122.743 184.848 122.447 185.066C122.156 185.285 121.923 185.568 121.75 185.914V191H120.479ZM132.537 193.844V183.809H133.686L133.74 184.745H133.781C133.964 184.449 134.242 184.196 134.615 183.986C134.993 183.777 135.433 183.672 135.935 183.672C136.846 183.672 137.575 184.014 138.122 184.697C138.669 185.381 138.942 186.247 138.942 187.295V187.514C138.942 188.562 138.669 189.428 138.122 190.111C137.575 190.795 136.846 191.137 135.935 191.137C135.433 191.137 135.005 191.048 134.649 190.87C134.299 190.688 134.018 190.449 133.809 190.152V193.844H132.537ZM133.809 188.867C133.95 189.186 134.18 189.471 134.499 189.722C134.818 189.972 135.205 190.098 135.661 190.098C136.345 190.098 136.846 189.849 137.165 189.353C137.484 188.856 137.644 188.243 137.644 187.514V187.295C137.644 186.566 137.484 185.953 137.165 185.456C136.846 184.959 136.345 184.711 135.661 184.711C135.205 184.711 134.818 184.836 134.499 185.087C134.18 185.338 133.95 185.622 133.809 185.941V188.867ZM140.139 188.881C140.139 188.152 140.428 187.584 141.007 187.179C141.586 186.773 142.322 186.57 143.215 186.57H144.842V186.078C144.842 185.645 144.73 185.294 144.507 185.025C144.284 184.752 143.898 184.615 143.352 184.615C142.805 184.615 142.413 184.729 142.176 184.957C141.943 185.18 141.827 185.44 141.827 185.736V185.771H140.562V185.736C140.562 185.167 140.815 184.67 141.321 184.246C141.832 183.818 142.52 183.604 143.386 183.604C144.252 183.604 144.922 183.811 145.396 184.226C145.874 184.64 146.113 185.258 146.113 186.078V189.359C146.113 189.656 146.136 189.936 146.182 190.2C146.227 190.46 146.291 190.69 146.373 190.891V191H145.143C145.079 190.886 145.02 190.738 144.965 190.556C144.915 190.373 144.883 190.191 144.869 190.009C144.701 190.305 144.427 190.567 144.049 190.795C143.675 191.023 143.192 191.137 142.6 191.137C141.916 191.137 141.335 190.943 140.856 190.556C140.378 190.168 140.139 189.61 140.139 188.881ZM141.41 188.812C141.41 189.223 141.529 189.544 141.766 189.776C142.003 190.009 142.372 190.125 142.873 190.125C143.374 190.125 143.828 189.952 144.233 189.605C144.639 189.259 144.842 188.892 144.842 188.505V187.473H143.352C142.714 187.473 142.23 187.593 141.902 187.835C141.574 188.076 141.41 188.402 141.41 188.812ZM148.096 191V183.809H149.244L149.299 184.731H149.34C149.522 184.431 149.761 184.169 150.058 183.945C150.354 183.717 150.707 183.604 151.117 183.604C151.217 183.604 151.322 183.615 151.432 183.638C151.541 183.66 151.618 183.681 151.664 183.699V184.875C151.573 184.857 151.477 184.843 151.377 184.834C151.277 184.825 151.167 184.82 151.049 184.82C150.639 184.82 150.29 184.927 150.003 185.142C149.716 185.356 149.504 185.622 149.367 185.941V191H148.096ZM152.211 188.881C152.211 188.152 152.5 187.584 153.079 187.179C153.658 186.773 154.394 186.57 155.287 186.57H156.914V186.078C156.914 185.645 156.802 185.294 156.579 185.025C156.356 184.752 155.971 184.615 155.424 184.615C154.877 184.615 154.485 184.729 154.248 184.957C154.016 185.18 153.899 185.44 153.899 185.736V185.771H152.635V185.736C152.635 185.167 152.888 184.67 153.394 184.246C153.904 183.818 154.592 183.604 155.458 183.604C156.324 183.604 156.994 183.811 157.468 184.226C157.946 184.64 158.186 185.258 158.186 186.078V189.359C158.186 189.656 158.208 189.936 158.254 190.2C158.299 190.46 158.363 190.69 158.445 190.891V191H157.215C157.151 190.886 157.092 190.738 157.037 190.556C156.987 190.373 156.955 190.191 156.941 190.009C156.773 190.305 156.499 190.567 156.121 190.795C155.747 191.023 155.264 191.137 154.672 191.137C153.988 191.137 153.407 190.943 152.929 190.556C152.45 190.168 152.211 189.61 152.211 188.881ZM153.482 188.812C153.482 189.223 153.601 189.544 153.838 189.776C154.075 190.009 154.444 190.125 154.945 190.125C155.447 190.125 155.9 189.952 156.306 189.605C156.711 189.259 156.914 188.892 156.914 188.505V187.473H155.424C154.786 187.473 154.303 187.593 153.975 187.835C153.646 188.076 153.482 188.402 153.482 188.812ZM159.737 187.514V187.295C159.737 186.21 160.031 185.324 160.619 184.636C161.212 183.948 162.025 183.604 163.06 183.604C164.017 183.604 164.743 183.863 165.24 184.383C165.737 184.898 165.985 185.474 165.985 186.112V186.146H164.755V186.112C164.755 185.725 164.62 185.383 164.352 185.087C164.083 184.791 163.652 184.643 163.06 184.643C162.367 184.643 161.856 184.9 161.528 185.415C161.2 185.925 161.036 186.552 161.036 187.295V187.514C161.036 188.257 161.2 188.885 161.528 189.4C161.856 189.911 162.367 190.166 163.06 190.166C163.652 190.166 164.083 190.018 164.352 189.722C164.62 189.425 164.755 189.084 164.755 188.696V188.662H165.985V188.696C165.985 189.334 165.737 189.913 165.24 190.433C164.743 190.948 164.017 191.205 163.06 191.205C162.025 191.205 161.212 190.861 160.619 190.173C160.031 189.485 159.737 188.598 159.737 187.514ZM162.567 190.863H163.449L163.258 191.513C163.518 191.558 163.791 191.668 164.078 191.841C164.365 192.014 164.509 192.299 164.509 192.695C164.509 193.119 164.311 193.463 163.914 193.728C163.518 193.992 162.859 194.124 161.938 194.124L161.891 193.393C162.447 193.393 162.813 193.338 162.991 193.229C163.174 193.124 163.265 192.951 163.265 192.709C163.265 192.486 163.196 192.331 163.06 192.244C162.927 192.162 162.67 192.105 162.287 192.073L162.567 190.863ZM167.038 187.514V187.295C167.038 186.21 167.346 185.324 167.961 184.636C168.576 183.948 169.399 183.604 170.429 183.604C171.459 183.604 172.281 183.948 172.896 184.636C173.512 185.324 173.819 186.21 173.819 187.295V187.514C173.819 188.598 173.512 189.485 172.896 190.173C172.281 190.861 171.459 191.205 170.429 191.205C169.399 191.205 168.576 190.861 167.961 190.173C167.346 189.485 167.038 188.598 167.038 187.514ZM168.337 187.295V187.514C168.337 188.257 168.512 188.885 168.863 189.4C169.214 189.911 169.736 190.166 170.429 190.166C171.121 190.166 171.643 189.911 171.994 189.4C172.345 188.885 172.521 188.257 172.521 187.514V187.295C172.521 186.552 172.345 185.925 171.994 185.415C171.643 184.9 171.121 184.643 170.429 184.643C169.736 184.643 169.214 184.9 168.863 185.415C168.512 185.925 168.337 186.552 168.337 187.295ZM167.995 181.936C168.146 181.648 168.378 181.393 168.692 181.17C169.007 180.947 169.317 180.835 169.622 180.835C169.809 180.835 169.987 180.865 170.155 180.924C170.328 180.979 170.499 181.061 170.668 181.17C170.823 181.27 170.989 181.37 171.167 181.471C171.345 181.571 171.52 181.621 171.693 181.621C171.876 181.621 172.047 181.562 172.206 181.443C172.366 181.32 172.498 181.177 172.603 181.013L173.156 181.683C172.983 182.006 172.744 182.25 172.438 182.414C172.138 182.578 171.857 182.66 171.598 182.66C171.374 182.66 171.156 182.612 170.941 182.517C170.727 182.416 170.549 182.327 170.408 182.25C170.253 182.163 170.098 182.081 169.943 182.004C169.788 181.926 169.645 181.888 169.513 181.888C169.299 181.888 169.098 181.97 168.911 182.134C168.729 182.298 168.597 182.441 168.515 182.564L167.995 181.936ZM174.981 187.514V187.295C174.981 186.21 175.278 185.324 175.87 184.636C176.467 183.948 177.256 183.604 178.235 183.604C179.215 183.604 179.969 183.925 180.498 184.567C181.027 185.21 181.291 186.078 181.291 187.172V187.691H175.761V186.68H180.013V186.516C180.013 185.996 179.865 185.554 179.568 185.189C179.272 184.825 178.846 184.643 178.29 184.643C177.616 184.643 177.112 184.9 176.779 185.415C176.447 185.925 176.28 186.552 176.28 187.295V187.514C176.28 188.257 176.456 188.885 176.807 189.4C177.158 189.911 177.702 190.166 178.44 190.166C178.896 190.166 179.288 190.066 179.616 189.865C179.944 189.665 180.211 189.428 180.416 189.154L181.236 189.804C181.008 190.146 180.655 190.465 180.177 190.761C179.703 191.057 179.124 191.205 178.44 191.205C177.324 191.205 176.467 190.861 175.87 190.173C175.278 189.485 174.981 188.598 174.981 187.514ZM182.385 188.881H183.656V188.915C183.656 189.33 183.809 189.642 184.114 189.852C184.42 190.061 184.823 190.166 185.324 190.166C185.826 190.166 186.22 190.066 186.507 189.865C186.799 189.665 186.944 189.405 186.944 189.086C186.944 188.767 186.828 188.523 186.596 188.354C186.363 188.181 185.86 188.004 185.085 187.821C184.31 187.639 183.695 187.384 183.239 187.056C182.784 186.723 182.556 186.26 182.556 185.668C182.556 185.076 182.799 184.583 183.287 184.191C183.779 183.799 184.436 183.604 185.256 183.604C186.076 183.604 186.737 183.799 187.238 184.191C187.74 184.579 187.99 185.105 187.99 185.771V185.805H186.726V185.743C186.726 185.401 186.605 185.132 186.363 184.937C186.126 184.741 185.757 184.643 185.256 184.643C184.755 184.643 184.388 184.734 184.155 184.916C183.927 185.098 183.813 185.326 183.813 185.6C183.813 185.873 183.946 186.09 184.21 186.249C184.474 186.409 184.994 186.579 185.769 186.762C186.543 186.944 187.14 187.206 187.56 187.548C187.983 187.89 188.195 188.38 188.195 189.018C188.195 189.656 187.956 190.18 187.478 190.59C186.999 191 186.281 191.205 185.324 191.205C184.367 191.205 183.638 190.998 183.137 190.583C182.635 190.164 182.385 189.608 182.385 188.915V188.881ZM192.55 188.396V187.24H198.771V188.396H192.55ZM192.55 185.695V184.54H198.771V185.695H192.55ZM203.125 188.402V188.334H204.396V188.402C204.396 188.949 204.579 189.373 204.943 189.674C205.308 189.975 205.791 190.125 206.393 190.125C206.994 190.125 207.475 189.975 207.835 189.674C208.195 189.373 208.375 188.904 208.375 188.266C208.375 187.628 208.172 187.147 207.767 186.823C207.361 186.5 206.816 186.338 206.133 186.338H205.347V185.285H206.064C206.693 185.285 207.179 185.132 207.521 184.827C207.862 184.522 208.033 184.096 208.033 183.549C208.033 183.002 207.885 182.594 207.589 182.325C207.293 182.056 206.894 181.922 206.393 181.922C205.864 181.922 205.445 182.056 205.135 182.325C204.825 182.594 204.67 182.979 204.67 183.48V183.549H203.398V183.48C203.398 182.751 203.674 182.129 204.226 181.614C204.777 181.099 205.499 180.842 206.393 180.842C207.258 180.842 207.967 181.088 208.519 181.58C209.07 182.072 209.346 182.706 209.346 183.48C209.346 183.936 209.22 184.374 208.97 184.793C208.719 185.212 208.329 185.536 207.801 185.764V185.791C208.375 185.937 208.835 186.226 209.182 186.659C209.528 187.092 209.701 187.625 209.701 188.259C209.701 189.175 209.389 189.895 208.765 190.419C208.14 190.943 207.35 191.205 206.393 191.205C205.381 191.205 204.583 190.943 204 190.419C203.417 189.895 203.125 189.223 203.125 188.402Z" fill="black"/>
</svg>
