<svg width="678" height="216" viewBox="0 0 678 216" fill="none" xmlns="http://www.w3.org/2000/svg">
<path d="M328.609 109.992V109.477C328.609 108.129 328.971 107.096 329.693 106.377C330.416 105.654 331.344 105.293 332.477 105.293C333.582 105.293 334.445 105.576 335.066 106.143C335.691 106.705 336.018 107.42 336.045 108.287V108.404H334.281L334.275 108.27C334.264 107.781 334.109 107.387 333.812 107.086C333.52 106.781 333.07 106.629 332.465 106.629C331.852 106.629 331.354 106.852 330.971 107.297C330.592 107.738 330.402 108.422 330.402 109.348V110.121C330.402 111.004 330.59 111.678 330.965 112.143C331.344 112.607 331.85 112.84 332.482 112.84C333.068 112.84 333.506 112.684 333.795 112.371C334.088 112.055 334.248 111.662 334.275 111.193L334.281 111.07H336.045L336.039 111.193C335.992 112.049 335.662 112.76 335.049 113.326C334.436 113.893 333.578 114.176 332.477 114.176C331.34 114.176 330.41 113.814 329.688 113.092C328.969 112.365 328.609 111.332 328.609 109.992ZM336.877 110.953V110.766C336.877 109.793 337.176 109.014 337.773 108.428C338.371 107.842 339.154 107.549 340.123 107.549C341.096 107.549 341.881 107.842 342.479 108.428C343.076 109.014 343.375 109.793 343.375 110.766V110.953C343.375 111.926 343.076 112.707 342.479 113.297C341.881 113.883 341.096 114.176 340.123 114.176C339.154 114.176 338.371 113.883 337.773 113.297C337.176 112.707 336.877 111.926 336.877 110.953ZM338.605 110.701V111.018C338.605 111.604 338.736 112.064 338.998 112.4C339.26 112.736 339.635 112.904 340.123 112.904C340.615 112.904 340.99 112.736 341.248 112.4C341.51 112.064 341.641 111.604 341.641 111.018V110.701C341.641 110.119 341.508 109.66 341.242 109.324C340.98 108.988 340.607 108.82 340.123 108.82C339.639 108.82 339.264 108.988 338.998 109.324C338.736 109.66 338.605 110.119 338.605 110.701ZM344.629 114V107.725H346.223L346.264 108.463H346.299C346.494 108.186 346.75 107.975 347.066 107.83C347.383 107.682 347.725 107.607 348.092 107.607C348.537 107.607 348.922 107.699 349.246 107.883C349.57 108.062 349.811 108.33 349.967 108.686H349.99C350.217 108.326 350.514 108.057 350.881 107.877C351.248 107.697 351.641 107.607 352.059 107.607C352.707 107.607 353.227 107.805 353.617 108.199C354.012 108.59 354.209 109.246 354.209 110.168V114H352.516V110.092C352.516 109.678 352.43 109.375 352.258 109.184C352.09 108.992 351.842 108.895 351.514 108.891C351.232 108.891 350.984 108.971 350.77 109.131C350.559 109.291 350.391 109.508 350.266 109.781V114H348.566V110.104C348.566 109.682 348.48 109.375 348.309 109.184C348.137 108.988 347.887 108.891 347.559 108.891C347.273 108.891 347.025 108.971 346.814 109.131C346.607 109.287 346.441 109.504 346.316 109.781V114H344.629ZM355.75 116.438V107.725H357.332L357.373 108.451H357.402C357.539 108.209 357.771 108.008 358.1 107.848C358.428 107.688 358.797 107.607 359.207 107.607C360.027 107.607 360.688 107.898 361.188 108.48C361.691 109.059 361.943 109.82 361.943 110.766V110.953C361.943 111.898 361.695 112.662 361.199 113.244C360.703 113.826 360.051 114.117 359.242 114.117C358.836 114.117 358.473 114.051 358.152 113.918C357.836 113.781 357.598 113.594 357.438 113.355V116.438H355.75ZM357.438 111.938C357.539 112.18 357.709 112.393 357.947 112.576C358.189 112.76 358.477 112.852 358.809 112.852C359.285 112.852 359.637 112.686 359.863 112.354C360.094 112.021 360.209 111.576 360.209 111.018V110.701C360.209 110.146 360.094 109.703 359.863 109.371C359.637 109.039 359.283 108.873 358.803 108.873C358.463 108.873 358.176 108.963 357.941 109.143C357.711 109.322 357.543 109.531 357.438 109.77V111.938ZM362.869 112.154C362.869 111.471 363.145 110.953 363.695 110.602C364.246 110.246 364.939 110.066 365.775 110.062H367.023V109.67C367.023 109.381 366.943 109.148 366.783 108.973C366.627 108.793 366.354 108.703 365.963 108.703C365.572 108.703 365.293 108.781 365.125 108.938C364.961 109.09 364.879 109.273 364.879 109.488V109.559H363.203V109.488C363.203 108.941 363.461 108.482 363.977 108.111C364.496 107.736 365.178 107.549 366.021 107.549C366.865 107.549 367.525 107.725 368.002 108.076C368.479 108.424 368.717 108.957 368.717 109.676V112.605C368.717 112.859 368.738 113.1 368.781 113.326C368.824 113.549 368.883 113.742 368.957 113.906V114H367.299C367.252 113.906 367.209 113.785 367.17 113.637C367.131 113.484 367.104 113.336 367.088 113.191C366.963 113.434 366.727 113.648 366.379 113.836C366.035 114.023 365.605 114.117 365.09 114.117C364.469 114.117 363.943 113.953 363.514 113.625C363.084 113.293 362.869 112.803 362.869 112.154ZM364.562 112.031C364.562 112.316 364.646 112.543 364.814 112.711C364.982 112.879 365.246 112.963 365.605 112.963C365.992 112.963 366.324 112.842 366.602 112.6C366.883 112.354 367.023 112.072 367.023 111.756V111.094H365.975C365.502 111.094 365.148 111.178 364.914 111.346C364.68 111.51 364.562 111.738 364.562 112.031ZM370.352 114V107.725H371.951L371.992 108.428H372.021C372.154 108.193 372.334 107.99 372.561 107.818C372.791 107.643 373.055 107.555 373.352 107.555C373.434 107.555 373.518 107.564 373.604 107.584C373.689 107.604 373.75 107.621 373.785 107.637V109.09C373.715 109.074 373.639 109.062 373.557 109.055C373.479 109.043 373.393 109.037 373.299 109.037C373.006 109.037 372.748 109.121 372.525 109.289C372.307 109.453 372.146 109.658 372.045 109.904V114H370.352ZM374.225 112.154C374.225 111.471 374.5 110.953 375.051 110.602C375.602 110.246 376.295 110.066 377.131 110.062H378.379V109.67C378.379 109.381 378.299 109.148 378.139 108.973C377.982 108.793 377.709 108.703 377.318 108.703C376.928 108.703 376.648 108.781 376.48 108.938C376.316 109.09 376.234 109.273 376.234 109.488V109.559H374.559V109.488C374.559 108.941 374.816 108.482 375.332 108.111C375.852 107.736 376.533 107.549 377.377 107.549C378.221 107.549 378.881 107.725 379.357 108.076C379.834 108.424 380.072 108.957 380.072 109.676V112.605C380.072 112.859 380.094 113.1 380.137 113.326C380.18 113.549 380.238 113.742 380.312 113.906V114H378.654C378.607 113.906 378.564 113.785 378.525 113.637C378.486 113.484 378.459 113.336 378.443 113.191C378.318 113.434 378.082 113.648 377.734 113.836C377.391 114.023 376.961 114.117 376.445 114.117C375.824 114.117 375.299 113.953 374.869 113.625C374.439 113.293 374.225 112.803 374.225 112.154ZM375.918 112.031C375.918 112.316 376.002 112.543 376.17 112.711C376.338 112.879 376.602 112.963 376.961 112.963C377.348 112.963 377.68 112.842 377.957 112.6C378.238 112.354 378.379 112.072 378.379 111.756V111.094H377.33C376.857 111.094 376.504 111.178 376.27 111.346C376.035 111.51 375.918 111.738 375.918 112.031ZM381.361 110.953V110.766C381.361 109.793 381.65 109.014 382.229 108.428C382.811 107.842 383.59 107.549 384.566 107.549C385.488 107.549 386.189 107.777 386.67 108.234C387.154 108.688 387.408 109.217 387.432 109.822L387.438 109.904H385.779V109.846C385.779 109.553 385.678 109.305 385.475 109.102C385.275 108.895 384.969 108.791 384.555 108.791C384.066 108.791 383.699 108.969 383.453 109.324C383.211 109.676 383.09 110.135 383.09 110.701V111.018C383.09 111.584 383.209 112.045 383.447 112.4C383.686 112.756 384.053 112.934 384.549 112.934C384.99 112.934 385.305 112.828 385.492 112.617C385.684 112.402 385.779 112.154 385.779 111.873V111.82H387.432V111.879C387.432 112.484 387.184 113.02 386.688 113.484C386.195 113.945 385.488 114.176 384.566 114.176C383.59 114.176 382.811 113.883 382.229 113.297C381.65 112.711 381.361 111.93 381.361 110.953ZM384.057 113.842H384.982L384.812 114.428C385.109 114.471 385.385 114.57 385.639 114.727C385.893 114.883 386.02 115.141 386.02 115.5C386.02 115.887 385.824 116.201 385.434 116.443C385.043 116.686 384.393 116.805 383.482 116.801L383.43 116.068C383.934 116.068 384.27 116.023 384.438 115.934C384.605 115.848 384.689 115.707 384.689 115.512C384.689 115.328 384.623 115.203 384.49 115.137C384.361 115.07 384.129 115.023 383.793 114.996L384.057 113.842ZM388.24 112.154C388.24 111.471 388.516 110.953 389.066 110.602C389.617 110.246 390.311 110.066 391.146 110.062H392.395V109.67C392.395 109.381 392.314 109.148 392.154 108.973C391.998 108.793 391.725 108.703 391.334 108.703C390.943 108.703 390.664 108.781 390.496 108.938C390.332 109.09 390.25 109.273 390.25 109.488V109.559H388.574V109.488C388.574 108.941 388.832 108.482 389.348 108.111C389.867 107.736 390.549 107.549 391.393 107.549C392.236 107.549 392.896 107.725 393.373 108.076C393.85 108.424 394.088 108.957 394.088 109.676V112.605C394.088 112.859 394.109 113.1 394.152 113.326C394.195 113.549 394.254 113.742 394.328 113.906V114H392.67C392.623 113.906 392.58 113.785 392.541 113.637C392.502 113.484 392.475 113.336 392.459 113.191C392.334 113.434 392.098 113.648 391.75 113.836C391.406 114.023 390.977 114.117 390.461 114.117C389.84 114.117 389.314 113.953 388.885 113.625C388.455 113.293 388.24 112.803 388.24 112.154ZM389.934 112.031C389.934 112.316 390.018 112.543 390.186 112.711C390.354 112.879 390.617 112.963 390.977 112.963C391.363 112.963 391.695 112.842 391.973 112.6C392.254 112.354 392.395 112.072 392.395 111.756V111.094H391.346C390.873 111.094 390.52 111.178 390.285 111.346C390.051 111.51 389.934 111.738 389.934 112.031ZM389.096 105.984C389.236 105.684 389.453 105.418 389.746 105.188C390.039 104.953 390.328 104.836 390.613 104.836C390.789 104.836 390.955 104.861 391.111 104.912C391.271 104.963 391.432 105.041 391.592 105.146C391.736 105.236 391.891 105.328 392.055 105.422C392.223 105.516 392.389 105.562 392.553 105.562C392.725 105.562 392.885 105.506 393.033 105.393C393.182 105.279 393.305 105.146 393.402 104.994L393.924 105.721C393.764 106.057 393.541 106.311 393.256 106.482C392.975 106.65 392.711 106.734 392.465 106.734C392.258 106.734 392.053 106.689 391.85 106.6C391.65 106.506 391.484 106.422 391.352 106.348C391.207 106.27 391.062 106.193 390.918 106.119C390.773 106.045 390.639 106.008 390.514 106.008C390.314 106.008 390.129 106.086 389.957 106.242C389.785 106.395 389.66 106.529 389.582 106.646L389.096 105.984ZM395.377 110.953V110.766C395.377 109.793 395.676 109.014 396.273 108.428C396.871 107.842 397.654 107.549 398.623 107.549C399.596 107.549 400.381 107.842 400.979 108.428C401.576 109.014 401.875 109.793 401.875 110.766V110.953C401.875 111.926 401.576 112.707 400.979 113.297C400.381 113.883 399.596 114.176 398.623 114.176C397.654 114.176 396.871 113.883 396.273 113.297C395.676 112.707 395.377 111.926 395.377 110.953ZM397.105 110.701V111.018C397.105 111.604 397.236 112.064 397.498 112.4C397.76 112.736 398.135 112.904 398.623 112.904C399.115 112.904 399.49 112.736 399.748 112.4C400.01 112.064 400.141 111.604 400.141 111.018V110.701C400.141 110.119 400.008 109.66 399.742 109.324C399.48 108.988 399.107 108.82 398.623 108.82C398.139 108.82 397.764 108.988 397.498 109.324C397.236 109.66 397.105 110.119 397.105 110.701ZM406.059 114V105.018H407.746V108.381C407.938 108.139 408.186 107.949 408.49 107.812C408.795 107.676 409.15 107.607 409.557 107.607C410.381 107.607 411.035 107.902 411.52 108.492C412.008 109.078 412.252 109.836 412.252 110.766V110.953C412.252 111.887 412.008 112.648 411.52 113.238C411.031 113.824 410.375 114.117 409.551 114.117C409.145 114.117 408.773 114.039 408.438 113.883C408.102 113.723 407.863 113.521 407.723 113.279H407.693L407.652 114H406.059ZM407.746 111.914C407.848 112.16 408.014 112.379 408.244 112.57C408.475 112.758 408.766 112.852 409.117 112.852C409.594 112.852 409.945 112.68 410.172 112.336C410.402 111.988 410.518 111.547 410.518 111.012V110.713C410.518 110.178 410.404 109.738 410.178 109.395C409.951 109.051 409.594 108.879 409.105 108.879C408.766 108.879 408.479 108.973 408.244 109.16C408.014 109.348 407.848 109.562 407.746 109.805V111.914ZM413.154 110.953V110.766C413.154 109.805 413.445 109.029 414.027 108.439C414.609 107.846 415.359 107.549 416.277 107.549C417.203 107.549 417.926 107.826 418.445 108.381C418.969 108.936 419.23 109.697 419.23 110.666V111.275H414.314V110.191H417.549V110.086C417.545 109.734 417.438 109.426 417.227 109.16C417.016 108.895 416.695 108.762 416.266 108.762C415.805 108.762 415.451 108.941 415.205 109.301C414.959 109.656 414.836 110.125 414.836 110.707V111.012C414.836 111.586 414.967 112.053 415.229 112.412C415.494 112.768 415.889 112.945 416.412 112.945C416.76 112.945 417.062 112.861 417.32 112.693C417.578 112.525 417.787 112.332 417.947 112.113L419.107 112.91C418.908 113.262 418.572 113.561 418.1 113.807C417.631 114.053 417.074 114.176 416.43 114.176C415.398 114.176 414.594 113.881 414.016 113.291C413.441 112.697 413.154 111.918 413.154 110.953ZM420.391 114V107.725H421.984L422.025 108.463H422.061C422.256 108.186 422.512 107.975 422.828 107.83C423.145 107.682 423.486 107.607 423.854 107.607C424.299 107.607 424.684 107.699 425.008 107.883C425.332 108.062 425.572 108.33 425.729 108.686H425.752C425.979 108.326 426.275 108.057 426.643 107.877C427.01 107.697 427.402 107.607 427.82 107.607C428.469 107.607 428.988 107.805 429.379 108.199C429.773 108.59 429.971 109.246 429.971 110.168V114H428.277V110.092C428.277 109.678 428.191 109.375 428.02 109.184C427.852 108.992 427.604 108.895 427.275 108.891C426.994 108.891 426.746 108.971 426.531 109.131C426.32 109.291 426.152 109.508 426.027 109.781V114H424.328V110.104C424.328 109.682 424.242 109.375 424.07 109.184C423.898 108.988 423.648 108.891 423.32 108.891C423.035 108.891 422.787 108.971 422.576 109.131C422.369 109.287 422.203 109.504 422.078 109.781V114H420.391ZM434.049 112.043H435.719V112.131C435.719 112.436 435.826 112.66 436.041 112.805C436.256 112.949 436.545 113.021 436.908 113.021C437.283 113.021 437.564 112.955 437.752 112.822C437.943 112.686 438.039 112.502 438.039 112.271C438.039 112.041 437.947 111.871 437.764 111.762C437.58 111.648 437.127 111.521 436.404 111.381C435.654 111.236 435.104 111.008 434.752 110.695C434.4 110.379 434.225 109.969 434.225 109.465C434.225 108.887 434.465 108.422 434.945 108.07C435.426 107.719 436.076 107.543 436.896 107.543C437.713 107.543 438.365 107.725 438.854 108.088C439.346 108.451 439.592 108.938 439.592 109.547V109.617H437.928V109.535C437.928 109.277 437.842 109.074 437.67 108.926C437.502 108.777 437.242 108.703 436.891 108.703C436.539 108.703 436.283 108.764 436.123 108.885C435.967 109.006 435.889 109.162 435.889 109.354C435.889 109.549 435.98 109.705 436.164 109.822C436.348 109.939 436.811 110.068 437.553 110.209C438.299 110.354 438.846 110.58 439.193 110.889C439.545 111.197 439.721 111.619 439.721 112.154C439.721 112.771 439.482 113.264 439.006 113.631C438.533 113.994 437.836 114.176 436.914 114.176C435.996 114.176 435.289 113.994 434.793 113.631C434.297 113.264 434.049 112.756 434.049 112.107V112.043ZM440.898 111.562V107.725H442.586V111.604C442.586 112.057 442.68 112.375 442.867 112.559C443.055 112.742 443.312 112.834 443.641 112.834C443.93 112.834 444.188 112.752 444.414 112.588C444.641 112.42 444.814 112.209 444.936 111.955V107.725H446.623V114H445.029L444.982 113.273H444.953C444.758 113.539 444.496 113.746 444.168 113.895C443.84 114.043 443.479 114.117 443.084 114.117C442.436 114.117 441.908 113.922 441.502 113.531C441.1 113.137 440.898 112.48 440.898 111.562ZM447.877 110.953V110.766C447.877 109.793 448.166 109.014 448.744 108.428C449.326 107.842 450.105 107.549 451.082 107.549C452.004 107.549 452.705 107.777 453.186 108.234C453.67 108.688 453.924 109.217 453.947 109.822L453.953 109.904H452.295V109.846C452.295 109.553 452.193 109.305 451.99 109.102C451.791 108.895 451.484 108.791 451.07 108.791C450.582 108.791 450.215 108.969 449.969 109.324C449.727 109.676 449.605 110.135 449.605 110.701V111.018C449.605 111.584 449.725 112.045 449.963 112.4C450.201 112.756 450.568 112.934 451.064 112.934C451.506 112.934 451.82 112.828 452.008 112.617C452.199 112.402 452.295 112.154 452.295 111.873V111.82H453.947V111.879C453.947 112.484 453.699 113.02 453.203 113.484C452.711 113.945 452.004 114.176 451.082 114.176C450.105 114.176 449.326 113.883 448.744 113.297C448.166 112.711 447.877 111.93 447.877 110.953ZM454.732 110.953V110.766C454.732 109.805 455.023 109.029 455.605 108.439C456.188 107.846 456.938 107.549 457.855 107.549C458.781 107.549 459.504 107.826 460.023 108.381C460.547 108.936 460.809 109.697 460.809 110.666V111.275H455.893V110.191H459.127V110.086C459.123 109.734 459.016 109.426 458.805 109.16C458.594 108.895 458.273 108.762 457.844 108.762C457.383 108.762 457.029 108.941 456.783 109.301C456.537 109.656 456.414 110.125 456.414 110.707V111.012C456.414 111.586 456.545 112.053 456.807 112.412C457.072 112.768 457.467 112.945 457.99 112.945C458.338 112.945 458.641 112.861 458.898 112.693C459.156 112.525 459.365 112.332 459.525 112.113L460.686 112.91C460.486 113.262 460.15 113.561 459.678 113.807C459.209 114.053 458.652 114.176 458.008 114.176C456.977 114.176 456.172 113.881 455.594 113.291C455.02 112.697 454.732 111.918 454.732 110.953ZM461.623 110.959V110.771C461.623 109.842 461.877 109.082 462.385 108.492C462.893 107.902 463.559 107.607 464.383 107.607C464.789 107.607 465.141 107.678 465.438 107.818C465.734 107.959 465.965 108.146 466.129 108.381V105.018H467.816V114H466.217L466.176 113.268H466.146C466.01 113.51 465.783 113.713 465.467 113.877C465.154 114.037 464.793 114.117 464.383 114.117C463.531 114.117 462.857 113.822 462.361 113.232C461.869 112.643 461.623 111.885 461.623 110.959ZM463.352 111.012C463.352 111.551 463.471 111.992 463.709 112.336C463.947 112.68 464.307 112.852 464.787 112.852C465.115 112.852 465.393 112.764 465.619 112.588C465.85 112.408 466.018 112.197 466.123 111.955V109.77C466.021 109.527 465.857 109.318 465.631 109.143C465.408 108.963 465.127 108.873 464.787 108.873C464.311 108.873 463.951 109.047 463.709 109.395C463.471 109.738 463.352 110.178 463.352 110.713V111.012ZM469.439 114V107.725H471.133V114H469.439ZM469.293 106.014C469.293 105.76 469.379 105.547 469.551 105.375C469.723 105.203 469.967 105.117 470.283 105.117C470.604 105.117 470.848 105.203 471.016 105.375C471.188 105.547 471.273 105.76 471.273 106.014C471.273 106.271 471.188 106.486 471.016 106.658C470.848 106.83 470.604 106.916 470.283 106.916C469.967 106.916 469.723 106.83 469.551 106.658C469.379 106.486 469.293 106.271 469.293 106.014ZM472.404 110.959V110.771C472.404 109.842 472.658 109.082 473.166 108.492C473.674 107.902 474.34 107.607 475.164 107.607C475.57 107.607 475.922 107.678 476.219 107.818C476.516 107.959 476.746 108.146 476.91 108.381V105.018H478.598V114H476.998L476.957 113.268H476.928C476.791 113.51 476.564 113.713 476.248 113.877C475.936 114.037 475.574 114.117 475.164 114.117C474.312 114.117 473.639 113.822 473.143 113.232C472.65 112.643 472.404 111.885 472.404 110.959ZM474.133 111.012C474.133 111.551 474.252 111.992 474.49 112.336C474.729 112.68 475.088 112.852 475.568 112.852C475.896 112.852 476.174 112.764 476.4 112.588C476.631 112.408 476.799 112.197 476.904 111.955V109.77C476.803 109.527 476.639 109.318 476.412 109.143C476.189 108.963 475.908 108.873 475.568 108.873C475.092 108.873 474.732 109.047 474.49 109.395C474.252 109.738 474.133 110.178 474.133 110.713V111.012ZM479.869 112.154C479.869 111.471 480.145 110.953 480.695 110.602C481.246 110.246 481.939 110.066 482.775 110.062H484.023V109.67C484.023 109.381 483.943 109.148 483.783 108.973C483.627 108.793 483.354 108.703 482.963 108.703C482.572 108.703 482.293 108.781 482.125 108.938C481.961 109.09 481.879 109.273 481.879 109.488V109.559H480.203V109.488C480.203 108.941 480.461 108.482 480.977 108.111C481.496 107.736 482.178 107.549 483.021 107.549C483.865 107.549 484.525 107.725 485.002 108.076C485.479 108.424 485.717 108.957 485.717 109.676V112.605C485.717 112.859 485.738 113.1 485.781 113.326C485.824 113.549 485.883 113.742 485.957 113.906V114H484.299C484.252 113.906 484.209 113.785 484.17 113.637C484.131 113.484 484.104 113.336 484.088 113.191C483.963 113.434 483.727 113.648 483.379 113.836C483.035 114.023 482.605 114.117 482.09 114.117C481.469 114.117 480.943 113.953 480.514 113.625C480.084 113.293 479.869 112.803 479.869 112.154ZM481.562 112.031C481.562 112.316 481.646 112.543 481.814 112.711C481.982 112.879 482.246 112.963 482.605 112.963C482.992 112.963 483.324 112.842 483.602 112.6C483.883 112.354 484.023 112.072 484.023 111.756V111.094H482.975C482.502 111.094 482.148 111.178 481.914 111.346C481.68 111.51 481.562 111.738 481.562 112.031Z" fill="#34D298"/>
<path d="M328.609 134.992V134.477C328.609 133.129 328.971 132.096 329.693 131.377C330.416 130.654 331.344 130.293 332.477 130.293C333.582 130.293 334.445 130.576 335.066 131.143C335.691 131.705 336.018 132.42 336.045 133.287V133.404H334.281L334.275 133.27C334.264 132.781 334.109 132.387 333.812 132.086C333.52 131.781 333.07 131.629 332.465 131.629C331.852 131.629 331.354 131.852 330.971 132.297C330.592 132.738 330.402 133.422 330.402 134.348V135.121C330.402 136.004 330.59 136.678 330.965 137.143C331.344 137.607 331.85 137.84 332.482 137.84C333.068 137.84 333.506 137.684 333.795 137.371C334.088 137.055 334.248 136.662 334.275 136.193L334.281 136.07H336.045L336.039 136.193C335.992 137.049 335.662 137.76 335.049 138.326C334.436 138.893 333.578 139.176 332.477 139.176C331.34 139.176 330.41 138.814 329.688 138.092C328.969 137.365 328.609 136.332 328.609 134.992ZM336.877 135.953V135.766C336.877 134.793 337.176 134.014 337.773 133.428C338.371 132.842 339.154 132.549 340.123 132.549C341.096 132.549 341.881 132.842 342.479 133.428C343.076 134.014 343.375 134.793 343.375 135.766V135.953C343.375 136.926 343.076 137.707 342.479 138.297C341.881 138.883 341.096 139.176 340.123 139.176C339.154 139.176 338.371 138.883 337.773 138.297C337.176 137.707 336.877 136.926 336.877 135.953ZM338.605 135.701V136.018C338.605 136.604 338.736 137.064 338.998 137.4C339.26 137.736 339.635 137.904 340.123 137.904C340.615 137.904 340.99 137.736 341.248 137.4C341.51 137.064 341.641 136.604 341.641 136.018V135.701C341.641 135.119 341.508 134.66 341.242 134.324C340.98 133.988 340.607 133.82 340.123 133.82C339.639 133.82 339.264 133.988 338.998 134.324C338.736 134.66 338.605 135.119 338.605 135.701ZM344.629 139V132.725H346.223L346.264 133.463H346.299C346.494 133.186 346.75 132.975 347.066 132.83C347.383 132.682 347.725 132.607 348.092 132.607C348.537 132.607 348.922 132.699 349.246 132.883C349.57 133.062 349.811 133.33 349.967 133.686H349.99C350.217 133.326 350.514 133.057 350.881 132.877C351.248 132.697 351.641 132.607 352.059 132.607C352.707 132.607 353.227 132.805 353.617 133.199C354.012 133.59 354.209 134.246 354.209 135.168V139H352.516V135.092C352.516 134.678 352.43 134.375 352.258 134.184C352.09 133.992 351.842 133.895 351.514 133.891C351.232 133.891 350.984 133.971 350.77 134.131C350.559 134.291 350.391 134.508 350.266 134.781V139H348.566V135.104C348.566 134.682 348.48 134.375 348.309 134.184C348.137 133.988 347.887 133.891 347.559 133.891C347.273 133.891 347.025 133.971 346.814 134.131C346.607 134.287 346.441 134.504 346.316 134.781V139H344.629ZM355.75 141.438V132.725H357.332L357.373 133.451H357.402C357.539 133.209 357.771 133.008 358.1 132.848C358.428 132.688 358.797 132.607 359.207 132.607C360.027 132.607 360.688 132.898 361.188 133.48C361.691 134.059 361.943 134.82 361.943 135.766V135.953C361.943 136.898 361.695 137.662 361.199 138.244C360.703 138.826 360.051 139.117 359.242 139.117C358.836 139.117 358.473 139.051 358.152 138.918C357.836 138.781 357.598 138.594 357.438 138.355V141.438H355.75ZM357.438 136.938C357.539 137.18 357.709 137.393 357.947 137.576C358.189 137.76 358.477 137.852 358.809 137.852C359.285 137.852 359.637 137.686 359.863 137.354C360.094 137.021 360.209 136.576 360.209 136.018V135.701C360.209 135.146 360.094 134.703 359.863 134.371C359.637 134.039 359.283 133.873 358.803 133.873C358.463 133.873 358.176 133.963 357.941 134.143C357.711 134.322 357.543 134.531 357.438 134.77V136.938ZM362.869 137.154C362.869 136.471 363.145 135.953 363.695 135.602C364.246 135.246 364.939 135.066 365.775 135.062H367.023V134.67C367.023 134.381 366.943 134.148 366.783 133.973C366.627 133.793 366.354 133.703 365.963 133.703C365.572 133.703 365.293 133.781 365.125 133.938C364.961 134.09 364.879 134.273 364.879 134.488V134.559H363.203V134.488C363.203 133.941 363.461 133.482 363.977 133.111C364.496 132.736 365.178 132.549 366.021 132.549C366.865 132.549 367.525 132.725 368.002 133.076C368.479 133.424 368.717 133.957 368.717 134.676V137.605C368.717 137.859 368.738 138.1 368.781 138.326C368.824 138.549 368.883 138.742 368.957 138.906V139H367.299C367.252 138.906 367.209 138.785 367.17 138.637C367.131 138.484 367.104 138.336 367.088 138.191C366.963 138.434 366.727 138.648 366.379 138.836C366.035 139.023 365.605 139.117 365.09 139.117C364.469 139.117 363.943 138.953 363.514 138.625C363.084 138.293 362.869 137.803 362.869 137.154ZM364.562 137.031C364.562 137.316 364.646 137.543 364.814 137.711C364.982 137.879 365.246 137.963 365.605 137.963C365.992 137.963 366.324 137.842 366.602 137.6C366.883 137.354 367.023 137.072 367.023 136.756V136.094H365.975C365.502 136.094 365.148 136.178 364.914 136.346C364.68 136.51 364.562 136.738 364.562 137.031ZM370.352 139V132.725H371.951L371.992 133.428H372.021C372.154 133.193 372.334 132.99 372.561 132.818C372.791 132.643 373.055 132.555 373.352 132.555C373.434 132.555 373.518 132.564 373.604 132.584C373.689 132.604 373.75 132.621 373.785 132.637V134.09C373.715 134.074 373.639 134.062 373.557 134.055C373.479 134.043 373.393 134.037 373.299 134.037C373.006 134.037 372.748 134.121 372.525 134.289C372.307 134.453 372.146 134.658 372.045 134.904V139H370.352ZM374.225 137.154C374.225 136.471 374.5 135.953 375.051 135.602C375.602 135.246 376.295 135.066 377.131 135.062H378.379V134.67C378.379 134.381 378.299 134.148 378.139 133.973C377.982 133.793 377.709 133.703 377.318 133.703C376.928 133.703 376.648 133.781 376.48 133.938C376.316 134.09 376.234 134.273 376.234 134.488V134.559H374.559V134.488C374.559 133.941 374.816 133.482 375.332 133.111C375.852 132.736 376.533 132.549 377.377 132.549C378.221 132.549 378.881 132.725 379.357 133.076C379.834 133.424 380.072 133.957 380.072 134.676V137.605C380.072 137.859 380.094 138.1 380.137 138.326C380.18 138.549 380.238 138.742 380.312 138.906V139H378.654C378.607 138.906 378.564 138.785 378.525 138.637C378.486 138.484 378.459 138.336 378.443 138.191C378.318 138.434 378.082 138.648 377.734 138.836C377.391 139.023 376.961 139.117 376.445 139.117C375.824 139.117 375.299 138.953 374.869 138.625C374.439 138.293 374.225 137.803 374.225 137.154ZM375.918 137.031C375.918 137.316 376.002 137.543 376.17 137.711C376.338 137.879 376.602 137.963 376.961 137.963C377.348 137.963 377.68 137.842 377.957 137.6C378.238 137.354 378.379 137.072 378.379 136.756V136.094H377.33C376.857 136.094 376.504 136.178 376.27 136.346C376.035 136.51 375.918 136.738 375.918 137.031ZM381.361 135.953V135.766C381.361 134.793 381.65 134.014 382.229 133.428C382.811 132.842 383.59 132.549 384.566 132.549C385.488 132.549 386.189 132.777 386.67 133.234C387.154 133.688 387.408 134.217 387.432 134.822L387.438 134.904H385.779V134.846C385.779 134.553 385.678 134.305 385.475 134.102C385.275 133.895 384.969 133.791 384.555 133.791C384.066 133.791 383.699 133.969 383.453 134.324C383.211 134.676 383.09 135.135 383.09 135.701V136.018C383.09 136.584 383.209 137.045 383.447 137.4C383.686 137.756 384.053 137.934 384.549 137.934C384.99 137.934 385.305 137.828 385.492 137.617C385.684 137.402 385.779 137.154 385.779 136.873V136.82H387.432V136.879C387.432 137.484 387.184 138.02 386.688 138.484C386.195 138.945 385.488 139.176 384.566 139.176C383.59 139.176 382.811 138.883 382.229 138.297C381.65 137.711 381.361 136.93 381.361 135.953ZM384.057 138.842H384.982L384.812 139.428C385.109 139.471 385.385 139.57 385.639 139.727C385.893 139.883 386.02 140.141 386.02 140.5C386.02 140.887 385.824 141.201 385.434 141.443C385.043 141.686 384.393 141.805 383.482 141.801L383.43 141.068C383.934 141.068 384.27 141.023 384.438 140.934C384.605 140.848 384.689 140.707 384.689 140.512C384.689 140.328 384.623 140.203 384.49 140.137C384.361 140.07 384.129 140.023 383.793 139.996L384.057 138.842ZM388.24 137.154C388.24 136.471 388.516 135.953 389.066 135.602C389.617 135.246 390.311 135.066 391.146 135.062H392.395V134.67C392.395 134.381 392.314 134.148 392.154 133.973C391.998 133.793 391.725 133.703 391.334 133.703C390.943 133.703 390.664 133.781 390.496 133.938C390.332 134.09 390.25 134.273 390.25 134.488V134.559H388.574V134.488C388.574 133.941 388.832 133.482 389.348 133.111C389.867 132.736 390.549 132.549 391.393 132.549C392.236 132.549 392.896 132.725 393.373 133.076C393.85 133.424 394.088 133.957 394.088 134.676V137.605C394.088 137.859 394.109 138.1 394.152 138.326C394.195 138.549 394.254 138.742 394.328 138.906V139H392.67C392.623 138.906 392.58 138.785 392.541 138.637C392.502 138.484 392.475 138.336 392.459 138.191C392.334 138.434 392.098 138.648 391.75 138.836C391.406 139.023 390.977 139.117 390.461 139.117C389.84 139.117 389.314 138.953 388.885 138.625C388.455 138.293 388.24 137.803 388.24 137.154ZM389.934 137.031C389.934 137.316 390.018 137.543 390.186 137.711C390.354 137.879 390.617 137.963 390.977 137.963C391.363 137.963 391.695 137.842 391.973 137.6C392.254 137.354 392.395 137.072 392.395 136.756V136.094H391.346C390.873 136.094 390.52 136.178 390.285 136.346C390.051 136.51 389.934 136.738 389.934 137.031ZM389.096 130.984C389.236 130.684 389.453 130.418 389.746 130.188C390.039 129.953 390.328 129.836 390.613 129.836C390.789 129.836 390.955 129.861 391.111 129.912C391.271 129.963 391.432 130.041 391.592 130.146C391.736 130.236 391.891 130.328 392.055 130.422C392.223 130.516 392.389 130.562 392.553 130.562C392.725 130.562 392.885 130.506 393.033 130.393C393.182 130.279 393.305 130.146 393.402 129.994L393.924 130.721C393.764 131.057 393.541 131.311 393.256 131.482C392.975 131.65 392.711 131.734 392.465 131.734C392.258 131.734 392.053 131.689 391.85 131.6C391.65 131.506 391.484 131.422 391.352 131.348C391.207 131.27 391.062 131.193 390.918 131.119C390.773 131.045 390.639 131.008 390.514 131.008C390.314 131.008 390.129 131.086 389.957 131.242C389.785 131.395 389.66 131.529 389.582 131.646L389.096 130.984ZM395.377 135.953V135.766C395.377 134.793 395.676 134.014 396.273 133.428C396.871 132.842 397.654 132.549 398.623 132.549C399.596 132.549 400.381 132.842 400.979 133.428C401.576 134.014 401.875 134.793 401.875 135.766V135.953C401.875 136.926 401.576 137.707 400.979 138.297C400.381 138.883 399.596 139.176 398.623 139.176C397.654 139.176 396.871 138.883 396.273 138.297C395.676 137.707 395.377 136.926 395.377 135.953ZM397.105 135.701V136.018C397.105 136.604 397.236 137.064 397.498 137.4C397.76 137.736 398.135 137.904 398.623 137.904C399.115 137.904 399.49 137.736 399.748 137.4C400.01 137.064 400.141 136.604 400.141 136.018V135.701C400.141 135.119 400.008 134.66 399.742 134.324C399.48 133.988 399.107 133.82 398.623 133.82C398.139 133.82 397.764 133.988 397.498 134.324C397.236 134.66 397.105 135.119 397.105 135.701ZM406.059 139V132.725H407.652L407.693 133.463H407.729C407.924 133.186 408.18 132.975 408.496 132.83C408.812 132.682 409.154 132.607 409.521 132.607C409.967 132.607 410.352 132.699 410.676 132.883C411 133.062 411.24 133.33 411.396 133.686H411.42C411.646 133.326 411.943 133.057 412.311 132.877C412.678 132.697 413.07 132.607 413.488 132.607C414.137 132.607 414.656 132.805 415.047 133.199C415.441 133.59 415.639 134.246 415.639 135.168V139H413.945V135.092C413.945 134.678 413.859 134.375 413.688 134.184C413.52 133.992 413.271 133.895 412.943 133.891C412.662 133.891 412.414 133.971 412.199 134.131C411.988 134.291 411.82 134.508 411.695 134.781V139H409.996V135.104C409.996 134.682 409.91 134.375 409.738 134.184C409.566 133.988 409.316 133.891 408.988 133.891C408.703 133.891 408.455 133.971 408.244 134.131C408.037 134.287 407.871 134.504 407.746 134.781V139H406.059ZM416.857 137.154C416.857 136.471 417.133 135.953 417.684 135.602C418.234 135.246 418.928 135.066 419.764 135.062H421.012V134.67C421.012 134.381 420.932 134.148 420.771 133.973C420.615 133.793 420.342 133.703 419.951 133.703C419.561 133.703 419.281 133.781 419.113 133.938C418.949 134.09 418.867 134.273 418.867 134.488V134.559H417.191V134.488C417.191 133.941 417.449 133.482 417.965 133.111C418.484 132.736 419.166 132.549 420.01 132.549C420.854 132.549 421.514 132.725 421.99 133.076C422.467 133.424 422.705 133.957 422.705 134.676V137.605C422.705 137.859 422.727 138.1 422.77 138.326C422.812 138.549 422.871 138.742 422.945 138.906V139H421.287C421.24 138.906 421.197 138.785 421.158 138.637C421.119 138.484 421.092 138.336 421.076 138.191C420.951 138.434 420.715 138.648 420.367 138.836C420.023 139.023 419.594 139.117 419.078 139.117C418.457 139.117 417.932 138.953 417.502 138.625C417.072 138.293 416.857 137.803 416.857 137.154ZM418.551 137.031C418.551 137.316 418.635 137.543 418.803 137.711C418.971 137.879 419.234 137.963 419.594 137.963C419.98 137.963 420.312 137.842 420.59 137.6C420.871 137.354 421.012 137.072 421.012 136.756V136.094H419.963C419.49 136.094 419.137 136.178 418.902 136.346C418.668 136.51 418.551 136.738 418.551 137.031ZM424.363 139V130.018H426.051V139H424.363ZM430.205 137.043H431.875V137.131C431.875 137.436 431.982 137.66 432.197 137.805C432.412 137.949 432.701 138.021 433.064 138.021C433.439 138.021 433.721 137.955 433.908 137.822C434.1 137.686 434.195 137.502 434.195 137.271C434.195 137.041 434.104 136.871 433.92 136.762C433.736 136.648 433.283 136.521 432.561 136.381C431.811 136.236 431.26 136.008 430.908 135.695C430.557 135.379 430.381 134.969 430.381 134.465C430.381 133.887 430.621 133.422 431.102 133.07C431.582 132.719 432.232 132.543 433.053 132.543C433.869 132.543 434.521 132.725 435.01 133.088C435.502 133.451 435.748 133.938 435.748 134.547V134.617H434.084V134.535C434.084 134.277 433.998 134.074 433.826 133.926C433.658 133.777 433.398 133.703 433.047 133.703C432.695 133.703 432.439 133.764 432.279 133.885C432.123 134.006 432.045 134.162 432.045 134.354C432.045 134.549 432.137 134.705 432.32 134.822C432.504 134.939 432.967 135.068 433.709 135.209C434.455 135.354 435.002 135.58 435.35 135.889C435.701 136.197 435.877 136.619 435.877 137.154C435.877 137.771 435.639 138.264 435.162 138.631C434.689 138.994 433.992 139.176 433.07 139.176C432.152 139.176 431.445 138.994 430.949 138.631C430.453 138.264 430.205 137.756 430.205 137.107V137.043ZM437.055 136.562V132.725H438.742V136.604C438.742 137.057 438.836 137.375 439.023 137.559C439.211 137.742 439.469 137.834 439.797 137.834C440.086 137.834 440.344 137.752 440.57 137.588C440.797 137.42 440.971 137.209 441.092 136.955V132.725H442.779V139H441.186L441.139 138.273H441.109C440.914 138.539 440.652 138.746 440.324 138.895C439.996 139.043 439.635 139.117 439.24 139.117C438.592 139.117 438.064 138.922 437.658 138.531C437.256 138.137 437.055 137.48 437.055 136.562ZM444.033 135.953V135.766C444.033 134.793 444.322 134.014 444.9 133.428C445.482 132.842 446.262 132.549 447.238 132.549C448.16 132.549 448.861 132.777 449.342 133.234C449.826 133.688 450.08 134.217 450.104 134.822L450.109 134.904H448.451V134.846C448.451 134.553 448.35 134.305 448.146 134.102C447.947 133.895 447.641 133.791 447.227 133.791C446.738 133.791 446.371 133.969 446.125 134.324C445.883 134.676 445.762 135.135 445.762 135.701V136.018C445.762 136.584 445.881 137.045 446.119 137.4C446.357 137.756 446.725 137.934 447.221 137.934C447.662 137.934 447.977 137.828 448.164 137.617C448.355 137.402 448.451 137.154 448.451 136.873V136.82H450.104V136.879C450.104 137.484 449.855 138.02 449.359 138.484C448.867 138.945 448.16 139.176 447.238 139.176C446.262 139.176 445.482 138.883 444.9 138.297C444.322 137.711 444.033 136.93 444.033 135.953ZM450.889 135.953V135.766C450.889 134.805 451.18 134.029 451.762 133.439C452.344 132.846 453.094 132.549 454.012 132.549C454.938 132.549 455.66 132.826 456.18 133.381C456.703 133.936 456.965 134.697 456.965 135.666V136.275H452.049V135.191H455.283V135.086C455.279 134.734 455.172 134.426 454.961 134.16C454.75 133.895 454.43 133.762 454 133.762C453.539 133.762 453.186 133.941 452.939 134.301C452.693 134.656 452.57 135.125 452.57 135.707V136.012C452.57 136.586 452.701 137.053 452.963 137.412C453.229 137.768 453.623 137.945 454.146 137.945C454.494 137.945 454.797 137.861 455.055 137.693C455.312 137.525 455.521 137.332 455.682 137.113L456.842 137.91C456.643 138.262 456.307 138.561 455.834 138.807C455.365 139.053 454.809 139.176 454.164 139.176C453.133 139.176 452.328 138.881 451.75 138.291C451.176 137.697 450.889 136.918 450.889 135.953ZM457.779 135.959V135.771C457.779 134.842 458.033 134.082 458.541 133.492C459.049 132.902 459.715 132.607 460.539 132.607C460.945 132.607 461.297 132.678 461.594 132.818C461.891 132.959 462.121 133.146 462.285 133.381V130.018H463.973V139H462.373L462.332 138.268H462.303C462.166 138.51 461.939 138.713 461.623 138.877C461.311 139.037 460.949 139.117 460.539 139.117C459.688 139.117 459.014 138.822 458.518 138.232C458.025 137.643 457.779 136.885 457.779 135.959ZM459.508 136.012C459.508 136.551 459.627 136.992 459.865 137.336C460.104 137.68 460.463 137.852 460.943 137.852C461.271 137.852 461.549 137.764 461.775 137.588C462.006 137.408 462.174 137.197 462.279 136.955V134.77C462.178 134.527 462.014 134.318 461.787 134.143C461.564 133.963 461.283 133.873 460.943 133.873C460.467 133.873 460.107 134.047 459.865 134.395C459.627 134.738 459.508 135.178 459.508 135.713V136.012ZM465.596 139V132.725H467.289V139H465.596ZM465.449 131.014C465.449 130.76 465.535 130.547 465.707 130.375C465.879 130.203 466.123 130.117 466.439 130.117C466.76 130.117 467.004 130.203 467.172 130.375C467.344 130.547 467.43 130.76 467.43 131.014C467.43 131.271 467.344 131.486 467.172 131.658C467.004 131.83 466.76 131.916 466.439 131.916C466.123 131.916 465.879 131.83 465.707 131.658C465.535 131.486 465.449 131.271 465.449 131.014ZM468.561 135.959V135.771C468.561 134.842 468.814 134.082 469.322 133.492C469.83 132.902 470.496 132.607 471.32 132.607C471.727 132.607 472.078 132.678 472.375 132.818C472.672 132.959 472.902 133.146 473.066 133.381V130.018H474.754V139H473.154L473.113 138.268H473.084C472.947 138.51 472.721 138.713 472.404 138.877C472.092 139.037 471.73 139.117 471.32 139.117C470.469 139.117 469.795 138.822 469.299 138.232C468.807 137.643 468.561 136.885 468.561 135.959ZM470.289 136.012C470.289 136.551 470.408 136.992 470.646 137.336C470.885 137.68 471.244 137.852 471.725 137.852C472.053 137.852 472.33 137.764 472.557 137.588C472.787 137.408 472.955 137.197 473.061 136.955V134.77C472.959 134.527 472.795 134.318 472.568 134.143C472.346 133.963 472.064 133.873 471.725 133.873C471.248 133.873 470.889 134.047 470.646 134.395C470.408 134.738 470.289 135.178 470.289 135.713V136.012ZM476.025 137.154C476.025 136.471 476.301 135.953 476.852 135.602C477.402 135.246 478.096 135.066 478.932 135.062H480.18V134.67C480.18 134.381 480.1 134.148 479.939 133.973C479.783 133.793 479.51 133.703 479.119 133.703C478.729 133.703 478.449 133.781 478.281 133.938C478.117 134.09 478.035 134.273 478.035 134.488V134.559H476.359V134.488C476.359 133.941 476.617 133.482 477.133 133.111C477.652 132.736 478.334 132.549 479.178 132.549C480.021 132.549 480.682 132.725 481.158 133.076C481.635 133.424 481.873 133.957 481.873 134.676V137.605C481.873 137.859 481.895 138.1 481.938 138.326C481.98 138.549 482.039 138.742 482.113 138.906V139H480.455C480.408 138.906 480.365 138.785 480.326 138.637C480.287 138.484 480.26 138.336 480.244 138.191C480.119 138.434 479.883 138.648 479.535 138.836C479.191 139.023 478.762 139.117 478.246 139.117C477.625 139.117 477.1 138.953 476.67 138.625C476.24 138.293 476.025 137.803 476.025 137.154ZM477.719 137.031C477.719 137.316 477.803 137.543 477.971 137.711C478.139 137.879 478.402 137.963 478.762 137.963C479.148 137.963 479.48 137.842 479.758 137.6C480.039 137.354 480.18 137.072 480.18 136.756V136.094H479.131C478.658 136.094 478.305 136.178 478.07 136.346C477.836 136.51 477.719 136.738 477.719 137.031Z" fill="#FA7184"/>
<line x1="321" y1="101" x2="321" y2="118" stroke="#34D298" stroke-width="2"/>
<line x1="320.987" y1="127.466" x2="316.885" y2="135.261" stroke="#FA7184" stroke-width="2"/>
<line x1="316" y1="134.615" x2="324.205" y2="134.615" stroke="#FA7184" stroke-width="2"/>
<line x1="319.228" y1="142.514" x2="323.331" y2="135.13" stroke="#FA7184" stroke-width="2"/>
<line x1="110.885" y1="69.4657" x2="100.885" y2="88.4657" stroke="#FA7184" stroke-width="2"/>
<line x1="100" y1="89" x2="120" y2="89" stroke="#FA7184" stroke-width="2"/>
<line x1="109.126" y1="107.514" x2="119.126" y2="89.5144" stroke="#FA7184" stroke-width="2"/>
<path d="M89.7071 123.707C90.0976 123.317 90.0976 122.683 89.7071 122.293L83.3431 115.929C82.9526 115.538 82.3195 115.538 81.9289 115.929C81.5384 116.319 81.5384 116.953 81.9289 117.343L87.5858 123L81.9289 128.657C81.5384 129.047 81.5384 129.681 81.9289 130.071C82.3195 130.462 82.9526 130.462 83.3431 130.071L89.7071 123.707ZM42 124H89V122H42V124Z" fill="black"/>
<path d="M75.1211 32.2402V29.2285C75.1211 28.3496 75.3672 27.6406 75.8594 27.1016C76.3555 26.5625 77.043 26.293 77.9219 26.293C78.793 26.293 79.4785 26.5625 79.9785 27.1016C80.4785 27.6406 80.7285 28.3496 80.7285 29.2285V32.2402C80.7285 33.123 80.4785 33.834 79.9785 34.373C79.4785 34.9082 78.793 35.1758 77.9219 35.1758C77.043 35.1758 76.3555 34.9082 75.8594 34.373C75.3672 33.834 75.1211 33.123 75.1211 32.2402ZM76.2812 32.2988C76.2812 32.8574 76.4141 33.3184 76.6797 33.6816C76.9492 34.041 77.3633 34.2207 77.9219 34.2207C78.4805 34.2207 78.8945 34.041 79.1641 33.6816C79.4336 33.3184 79.5684 32.8574 79.5684 32.2988V29.1699C79.5684 28.6113 79.4336 28.1523 79.1641 27.793C78.8945 27.4297 78.4805 27.248 77.9219 27.248C77.3633 27.248 76.9492 27.4297 76.6797 27.793C76.4141 28.1523 76.2812 28.6113 76.2812 29.1699V32.2988Z" fill="#A2A2A2"/>
<rect x="62" y="40" width="32" height="32" fill="#F9F9F9"/>
<rect x="62" y="40" width="32" height="32" stroke="#525252"/>
<path d="M72.2148 49.7461V48.2812H82.9863V49.7461H78.4844V62.5H76.7168V49.7461H72.2148Z" fill="#262626"/>
<path d="M109.693 35V27.7285L107.49 28.6367V27.5234L110.637 26.3516H110.842V35H109.693Z" fill="#A2A2A2"/>
<rect x="94" y="40" width="32" height="32" fill="#FDCCD2"/>
<rect x="94" y="40" width="32" height="32" stroke="#525252"/>
<path d="M105.611 62.5V48.2812H110.094C111.585 48.2812 112.73 48.6621 113.531 49.4238C114.339 50.179 114.742 51.1849 114.742 52.4414C114.742 53.6979 114.339 54.7168 113.531 55.498C112.73 56.2728 111.585 56.6602 110.094 56.6602H107.379V62.5H105.611ZM107.379 55.2051H110.094C111.168 55.2051 111.917 54.9382 112.34 54.4043C112.763 53.8704 112.975 53.2161 112.975 52.4414C112.975 51.6667 112.763 51.0221 112.34 50.5078C111.917 49.987 111.168 49.7266 110.094 49.7266H107.379V55.2051ZM113.502 62.5L110.025 55.9375L111.793 55.6738L115.475 62.5H113.502Z" fill="#262626"/>
<path d="M139.121 35V34.1445L142.244 30.8809C142.65 30.4629 142.959 30.0898 143.17 29.7617C143.385 29.4297 143.492 29.0703 143.492 28.6836C143.492 28.2969 143.357 27.9609 143.088 27.6758C142.818 27.3906 142.443 27.248 141.963 27.248C141.482 27.248 141.078 27.4023 140.75 27.7109C140.422 28.0156 140.258 28.4375 140.258 28.9766V29.0352H139.115V28.9766C139.115 28.1953 139.387 27.5527 139.93 27.0488C140.477 26.5449 141.154 26.293 141.963 26.293C142.764 26.293 143.408 26.5254 143.896 26.9902C144.389 27.4551 144.635 28 144.635 28.625C144.635 29.1836 144.477 29.6895 144.16 30.1426C143.844 30.5918 143.455 31.0508 142.994 31.5195L140.562 34.0156H144.869V35H139.121Z" fill="#A2A2A2"/>
<rect x="126" y="40" width="32" height="32" fill="#F9F9F9"/>
<rect x="126" y="40" width="32" height="32" stroke="#525252"/>
<path d="M138.111 62.5V48.2812H146.783V49.7461H139.879V54.4336H145.885V55.8984H139.879V61.0352H146.881V62.5H138.111Z" fill="#262626"/>
<path d="M170.939 32.7617V32.7031H172.059V32.7617C172.059 33.2266 172.217 33.5879 172.533 33.8457C172.854 34.0996 173.277 34.2266 173.805 34.2266C174.332 34.2266 174.754 34.0996 175.07 33.8457C175.387 33.5879 175.545 33.1875 175.545 32.6445C175.545 32.1055 175.367 31.6992 175.012 31.4258C174.656 31.1523 174.18 31.0156 173.582 31.0156H172.885V30.0898H173.523C174.074 30.0898 174.498 29.9609 174.795 29.7031C175.096 29.4453 175.246 29.084 175.246 28.6191C175.246 28.1582 175.115 27.8145 174.854 27.5879C174.596 27.3574 174.246 27.2422 173.805 27.2422C173.352 27.2422 172.986 27.3574 172.709 27.5879C172.436 27.8145 172.299 28.1406 172.299 28.5664V28.625H171.18V28.5664C171.18 27.9375 171.424 27.4023 171.912 26.9609C172.4 26.5156 173.031 26.293 173.805 26.293C174.566 26.293 175.189 26.5039 175.674 26.9258C176.158 27.3477 176.4 27.8926 176.4 28.5605C176.4 28.9512 176.291 29.3262 176.072 29.6855C175.854 30.041 175.514 30.3164 175.053 30.5117V30.5352C175.553 30.6602 175.953 30.9082 176.254 31.2793C176.555 31.6504 176.705 32.1055 176.705 32.6445C176.705 33.4336 176.432 34.0527 175.885 34.502C175.338 34.9512 174.645 35.1758 173.805 35.1758C172.938 35.1758 172.242 34.9512 171.719 34.502C171.199 34.0488 170.939 33.4688 170.939 32.7617Z" fill="#A2A2A2"/>
<rect x="158" y="40" width="32" height="32" fill="#F9F9F9"/>
<rect x="158" y="40" width="32" height="32" stroke="#525252"/>
<path d="M168.879 58.623V58.4375H170.646V58.623C170.646 59.5085 170.933 60.1725 171.506 60.6152C172.085 61.0514 172.889 61.2695 173.918 61.2695C174.953 61.2695 175.744 61.0449 176.291 60.5957C176.838 60.14 177.111 59.5475 177.111 58.8184C177.111 58.1478 176.848 57.6139 176.32 57.2168C175.799 56.8197 174.81 56.403 173.352 55.9668C171.848 55.5111 170.773 54.987 170.129 54.3945C169.491 53.8021 169.172 52.946 169.172 51.8262C169.172 50.7324 169.582 49.821 170.402 49.0918C171.223 48.3626 172.365 47.998 173.83 47.998C175.282 47.998 176.438 48.3789 177.297 49.1406C178.163 49.9023 178.596 50.8822 178.596 52.0801V52.2461H176.828V52.0801C176.828 51.3053 176.574 50.6836 176.066 50.2148C175.565 49.7461 174.82 49.5117 173.83 49.5117C172.827 49.5117 172.092 49.7168 171.623 50.127C171.154 50.5306 170.92 51.084 170.92 51.7871C170.92 52.4186 171.161 52.9199 171.643 53.291C172.124 53.6556 173.107 54.0592 174.592 54.502C176.083 54.9382 177.167 55.4785 177.844 56.123C178.521 56.7611 178.859 57.6595 178.859 58.8184C178.859 59.9772 178.417 60.9277 177.531 61.6699C176.646 62.4121 175.441 62.7832 173.918 62.7832C172.395 62.7832 171.174 62.4154 170.256 61.6797C169.338 60.9375 168.879 59.9186 168.879 58.623Z" fill="#262626"/>
<path d="M206.801 35V32.668V32.3633V28.2383H206.73L204.088 32.0527H207.088H207.545H209.098V33.002H202.775V32.2285L206.836 26.4688H207.885V35H206.801Z" fill="#A2A2A2"/>
<rect x="190" y="40" width="32" height="32" fill="#F9F9F9"/>
<rect x="190" y="40" width="32" height="32" stroke="#525252"/>
<path d="M235.057 32.8496V32.791H236.164V32.8496C236.164 33.2754 236.318 33.6113 236.627 33.8574C236.939 34.1035 237.355 34.2266 237.875 34.2266C238.395 34.2266 238.82 34.0566 239.152 33.7168C239.484 33.373 239.65 32.8926 239.65 32.2754C239.65 31.6582 239.484 31.1875 239.152 30.8633C238.82 30.5391 238.395 30.377 237.875 30.377C237.52 30.377 237.205 30.4414 236.932 30.5703C236.658 30.6992 236.402 30.8809 236.164 31.1152L235.355 30.7285L235.789 26.4688H240.336V27.4941H236.727L236.475 29.8789C236.67 29.7578 236.902 29.6523 237.172 29.5625C237.445 29.4688 237.742 29.4219 238.062 29.4219C238.82 29.4219 239.463 29.6738 239.99 30.1777C240.521 30.6777 240.787 31.377 240.787 32.2754C240.787 33.1738 240.512 33.8828 239.961 34.4023C239.41 34.918 238.715 35.1758 237.875 35.1758C237 35.1758 236.311 34.9551 235.807 34.5137C235.307 34.0723 235.057 33.5176 235.057 32.8496Z" fill="#A2A2A2"/>
<rect x="222" y="40" width="32" height="32" fill="#F9F9F9"/>
<rect x="222" y="40" width="32" height="32" stroke="#525252"/>
<path d="M232.215 49.7461V48.2812H242.986V49.7461H238.484V62.5H236.717V49.7461H232.215Z" fill="#262626"/>
<path d="M266.986 31.4023V31.2266C266.986 29.7422 267.396 28.5488 268.217 27.6465C269.041 26.7441 270.213 26.293 271.732 26.293H271.855V27.248H271.732C270.615 27.248 269.732 27.5625 269.084 28.1914C268.436 28.8203 268.111 29.8125 268.111 31.168V31.4609C268.111 32.4688 268.295 33.1816 268.662 33.5996C269.029 34.0176 269.492 34.2266 270.051 34.2266C270.609 34.2266 271.041 34.0566 271.346 33.7168C271.654 33.377 271.809 32.8984 271.809 32.2812C271.809 31.6641 271.654 31.1875 271.346 30.8516C271.041 30.5156 270.609 30.3477 270.051 30.3477C269.531 30.3477 269.072 30.5156 268.674 30.8516C268.275 31.1875 268.076 31.6641 268.076 32.2812H267.654C267.654 31.418 267.895 30.7207 268.375 30.1895C268.855 29.6582 269.494 29.3926 270.291 29.3926C271.092 29.3926 271.734 29.6582 272.219 30.1895C272.707 30.7207 272.951 31.418 272.951 32.2812C272.951 33.1406 272.678 33.8379 272.131 34.373C271.584 34.9082 270.891 35.1758 270.051 35.1758C269.211 35.1758 268.49 34.8789 267.889 34.2852C267.287 33.6914 266.986 32.7305 266.986 31.4023Z" fill="#A2A2A2"/>
<rect x="254" y="40" width="32" height="32" fill="#F9F9F9"/>
<rect x="254" y="40" width="32" height="32" stroke="#525252"/>
<path d="M268.66 62.5V48.2812H270.428V62.5H268.66Z" fill="#262626"/>
<path d="M300.24 35L303.551 27.4414H298.939V26.4688H304.758V27.1133L301.418 35H300.24Z" fill="#A2A2A2"/>
<rect x="286" y="40" width="32" height="32" fill="#F9F9F9"/>
<rect x="286" y="40" width="32" height="32" stroke="#525252"/>
<path d="M296.084 55.8301V54.9512C296.084 52.7637 296.628 51.0579 297.715 49.834C298.802 48.61 300.218 47.998 301.963 47.998C303.551 47.998 304.788 48.4245 305.674 49.2773C306.566 50.1237 307.057 51.1361 307.148 52.3145L307.158 52.4512H305.391V52.3242C305.391 51.6341 305.091 50.9961 304.492 50.4102C303.893 49.8177 303.047 49.5215 301.953 49.5215C300.716 49.5215 299.727 50.0033 298.984 50.9668C298.242 51.9238 297.871 53.252 297.871 54.9512V55.8301C297.871 57.5293 298.242 58.8607 298.984 59.8242C299.733 60.7878 300.788 61.2695 302.148 61.2695C302.858 61.2695 303.47 61.1947 303.984 61.0449C304.499 60.8887 304.987 60.6478 305.449 60.3223V56.9043H301.953V55.4395H307.158V60.957C306.742 61.3932 306.104 61.8066 305.244 62.1973C304.391 62.5879 303.359 62.7832 302.148 62.7832C300.286 62.7832 298.809 62.1712 297.715 60.9473C296.628 59.7233 296.084 58.0176 296.084 55.8301Z" fill="#262626"/>
<path d="M331.08 32.7383C331.08 32.2305 331.223 31.7969 331.508 31.4375C331.793 31.0781 332.158 30.8105 332.604 30.6348V30.6113C332.26 30.4434 331.965 30.1895 331.719 29.8496C331.477 29.5059 331.355 29.0996 331.355 28.6309C331.355 27.9277 331.604 27.3633 332.1 26.9375C332.6 26.5078 333.209 26.293 333.928 26.293C334.646 26.293 335.252 26.5059 335.744 26.9316C336.24 27.3574 336.488 27.9238 336.488 28.6309C336.488 29.0996 336.367 29.5059 336.125 29.8496C335.883 30.1895 335.59 30.4434 335.246 30.6113V30.6348C335.691 30.8105 336.055 31.0781 336.336 31.4375C336.621 31.7969 336.764 32.2305 336.764 32.7383C336.764 33.5117 336.49 34.1113 335.943 34.5371C335.396 34.9629 334.725 35.1758 333.928 35.1758C333.131 35.1758 332.457 34.9629 331.906 34.5371C331.355 34.1113 331.08 33.5117 331.08 32.7383ZM332.211 32.6738C332.211 33.1387 332.367 33.5137 332.68 33.7988C332.996 34.084 333.412 34.2266 333.928 34.2266C334.443 34.2266 334.857 34.084 335.17 33.7988C335.482 33.5137 335.639 33.1387 335.639 32.6738C335.639 32.209 335.482 31.832 335.17 31.543C334.857 31.2539 334.443 31.1094 333.928 31.1094C333.412 31.1094 332.996 31.2539 332.68 31.543C332.367 31.832 332.211 32.209 332.211 32.6738ZM332.463 28.6953C332.463 29.1211 332.598 29.4727 332.867 29.75C333.137 30.0234 333.49 30.1602 333.928 30.1602C334.365 30.1602 334.717 30.0234 334.982 29.75C335.252 29.4727 335.387 29.1211 335.387 28.6953C335.387 28.2695 335.252 27.9219 334.982 27.6523C334.717 27.3789 334.365 27.2422 333.928 27.2422C333.49 27.2422 333.137 27.3789 332.867 27.6523C332.598 27.9219 332.463 28.2695 332.463 28.6953Z" fill="#A2A2A2"/>
<rect x="318" y="40" width="32" height="32" fill="#F9F9F9"/>
<rect x="318" y="40" width="32" height="32" stroke="#525252"/>
<path d="M329.611 62.5V48.2812H334.094C335.585 48.2812 336.73 48.6621 337.531 49.4238C338.339 50.179 338.742 51.1849 338.742 52.4414C338.742 53.6979 338.339 54.7168 337.531 55.498C336.73 56.2728 335.585 56.6602 334.094 56.6602H331.379V62.5H329.611ZM331.379 55.2051H334.094C335.168 55.2051 335.917 54.9382 336.34 54.4043C336.763 53.8704 336.975 53.2161 336.975 52.4414C336.975 51.6667 336.763 51.0221 336.34 50.5078C335.917 49.987 335.168 49.7266 334.094 49.7266H331.379V55.2051ZM337.502 62.5L334.025 55.9375L335.793 55.6738L339.475 62.5H337.502Z" fill="#262626"/>
<path d="M362.893 29.1289C362.893 28.2852 363.166 27.6016 363.713 27.0781C364.264 26.5547 364.957 26.293 365.793 26.293C366.633 26.293 367.354 26.5898 367.955 27.1836C368.561 27.7773 368.863 28.7383 368.863 30.0664V30.2422C368.863 31.6562 368.451 32.8125 367.627 33.7109C366.807 34.6094 365.637 35.0586 364.117 35.0586H363.994V34.1035H364.111C365.232 34.1035 366.115 33.791 366.76 33.166C367.408 32.541 367.732 31.5859 367.732 30.3008V30.0078C367.732 29 367.549 28.2871 367.182 27.8691C366.814 27.4512 366.352 27.2422 365.793 27.2422C365.234 27.2422 364.801 27.4082 364.492 27.7402C364.188 28.0684 364.035 28.5312 364.035 29.1289C364.035 29.7266 364.188 30.1895 364.492 30.5176C364.801 30.8418 365.234 31.0039 365.793 31.0039C366.312 31.0039 366.771 30.8418 367.17 30.5176C367.568 30.1895 367.768 29.7266 367.768 29.1289H368.189C368.189 29.9766 367.949 30.6602 367.469 31.1797C366.992 31.6992 366.354 31.959 365.553 31.959C364.76 31.959 364.117 31.6992 363.625 31.1797C363.137 30.6602 362.893 29.9766 362.893 29.1289Z" fill="#A2A2A2"/>
<rect x="350" y="40" width="32" height="32" fill="#F9F9F9"/>
<rect x="350" y="40" width="32" height="32" stroke="#525252"/>
<path d="M362.111 62.5V48.2812H370.783V49.7461H363.879V54.4336H369.885V55.8984H363.879V61.0352H370.881V62.5H362.111Z" fill="#262626"/>
<path d="M394.193 35V27.7285L391.99 28.6367V27.5234L395.137 26.3516H395.342V35H394.193ZM398.465 32.2402V29.2285C398.465 28.3496 398.711 27.6406 399.203 27.1016C399.699 26.5625 400.387 26.293 401.266 26.293C402.137 26.293 402.822 26.5625 403.322 27.1016C403.822 27.6406 404.072 28.3496 404.072 29.2285V32.2402C404.072 33.123 403.822 33.834 403.322 34.373C402.822 34.9082 402.137 35.1758 401.266 35.1758C400.387 35.1758 399.699 34.9082 399.203 34.373C398.711 33.834 398.465 33.123 398.465 32.2402ZM399.625 32.2988C399.625 32.8574 399.758 33.3184 400.023 33.6816C400.293 34.041 400.707 34.2207 401.266 34.2207C401.824 34.2207 402.238 34.041 402.508 33.6816C402.777 33.3184 402.912 32.8574 402.912 32.2988V29.1699C402.912 28.6113 402.777 28.1523 402.508 27.793C402.238 27.4297 401.824 27.248 401.266 27.248C400.707 27.248 400.293 27.4297 400.023 27.793C399.758 28.1523 399.625 28.6113 399.625 29.1699V32.2988Z" fill="#A2A2A2"/>
<rect x="382" y="40" width="32" height="32" fill="#F9F9F9"/>
<rect x="382" y="40" width="32" height="32" stroke="#525252"/>
<path d="M392.879 58.623V58.4375H394.646V58.623C394.646 59.5085 394.933 60.1725 395.506 60.6152C396.085 61.0514 396.889 61.2695 397.918 61.2695C398.953 61.2695 399.744 61.0449 400.291 60.5957C400.838 60.14 401.111 59.5475 401.111 58.8184C401.111 58.1478 400.848 57.6139 400.32 57.2168C399.799 56.8197 398.81 56.403 397.352 55.9668C395.848 55.5111 394.773 54.987 394.129 54.3945C393.491 53.8021 393.172 52.946 393.172 51.8262C393.172 50.7324 393.582 49.821 394.402 49.0918C395.223 48.3626 396.365 47.998 397.83 47.998C399.282 47.998 400.438 48.3789 401.297 49.1406C402.163 49.9023 402.596 50.8822 402.596 52.0801V52.2461H400.828V52.0801C400.828 51.3053 400.574 50.6836 400.066 50.2148C399.565 49.7461 398.82 49.5117 397.83 49.5117C396.827 49.5117 396.092 49.7168 395.623 50.127C395.154 50.5306 394.92 51.084 394.92 51.7871C394.92 52.4186 395.161 52.9199 395.643 53.291C396.124 53.6556 397.107 54.0592 398.592 54.502C400.083 54.9382 401.167 55.4785 401.844 56.123C402.521 56.7611 402.859 57.6595 402.859 58.8184C402.859 59.9772 402.417 60.9277 401.531 61.6699C400.646 62.4121 399.441 62.7832 397.918 62.7832C396.395 62.7832 395.174 62.4154 394.256 61.6797C393.338 60.9375 392.879 59.9186 392.879 58.623Z" fill="#262626"/>
<path d="M426.193 35V27.7285L423.99 28.6367V27.5234L427.137 26.3516H427.342V35H426.193ZM433.037 35V27.7285L430.834 28.6367V27.5234L433.98 26.3516H434.186V35H433.037Z" fill="#A2A2A2"/>
<rect x="414" y="40" width="32" height="32" fill="#F9F9F9"/>
<rect x="414" y="40" width="32" height="32" stroke="#525252"/>
<path d="M458.193 35V27.7285L455.99 28.6367V27.5234L459.137 26.3516H459.342V35H458.193ZM462.465 35V34.1445L465.588 30.8809C465.994 30.4629 466.303 30.0898 466.514 29.7617C466.729 29.4297 466.836 29.0703 466.836 28.6836C466.836 28.2969 466.701 27.9609 466.432 27.6758C466.162 27.3906 465.787 27.248 465.307 27.248C464.826 27.248 464.422 27.4023 464.094 27.7109C463.766 28.0156 463.602 28.4375 463.602 28.9766V29.0352H462.459V28.9766C462.459 28.1953 462.73 27.5527 463.273 27.0488C463.82 26.5449 464.498 26.293 465.307 26.293C466.107 26.293 466.752 26.5254 467.24 26.9902C467.732 27.4551 467.979 28 467.979 28.625C467.979 29.1836 467.82 29.6895 467.504 30.1426C467.188 30.5918 466.799 31.0508 466.338 31.5195L463.906 34.0156H468.213V35H462.465Z" fill="#A2A2A2"/>
<rect x="446" y="40" width="32" height="32" fill="#F9F9F9"/>
<rect x="446" y="40" width="32" height="32" stroke="#525252"/>
<path d="M456.215 49.7461V48.2812H466.986V49.7461H462.484V62.5H460.717V49.7461H456.215Z" fill="#262626"/>
<path d="M490.193 35V27.7285L487.99 28.6367V27.5234L491.137 26.3516H491.342V35H490.193ZM494.283 32.7617V32.7031H495.402V32.7617C495.402 33.2266 495.561 33.5879 495.877 33.8457C496.197 34.0996 496.621 34.2266 497.148 34.2266C497.676 34.2266 498.098 34.0996 498.414 33.8457C498.73 33.5879 498.889 33.1875 498.889 32.6445C498.889 32.1055 498.711 31.6992 498.355 31.4258C498 31.1523 497.523 31.0156 496.926 31.0156H496.229V30.0898H496.867C497.418 30.0898 497.842 29.9609 498.139 29.7031C498.439 29.4453 498.59 29.084 498.59 28.6191C498.59 28.1582 498.459 27.8145 498.197 27.5879C497.939 27.3574 497.59 27.2422 497.148 27.2422C496.695 27.2422 496.33 27.3574 496.053 27.5879C495.779 27.8145 495.643 28.1406 495.643 28.5664V28.625H494.523V28.5664C494.523 27.9375 494.768 27.4023 495.256 26.9609C495.744 26.5156 496.375 26.293 497.148 26.293C497.91 26.293 498.533 26.5039 499.018 26.9258C499.502 27.3477 499.744 27.8926 499.744 28.5605C499.744 28.9512 499.635 29.3262 499.416 29.6855C499.197 30.041 498.857 30.3164 498.396 30.5117V30.5352C498.896 30.6602 499.297 30.9082 499.598 31.2793C499.898 31.6504 500.049 32.1055 500.049 32.6445C500.049 33.4336 499.775 34.0527 499.229 34.502C498.682 34.9512 497.988 35.1758 497.148 35.1758C496.281 35.1758 495.586 34.9512 495.062 34.502C494.543 34.0488 494.283 33.4688 494.283 32.7617Z" fill="#A2A2A2"/>
<rect x="478" y="40" width="32" height="32" fill="#F9F9F9"/>
<rect x="478" y="40" width="32" height="32" stroke="#525252"/>
<path d="M489.611 62.5V48.2812H494.094C495.585 48.2812 496.73 48.6621 497.531 49.4238C498.339 50.179 498.742 51.1849 498.742 52.4414C498.742 53.6979 498.339 54.7168 497.531 55.498C496.73 56.2728 495.585 56.6602 494.094 56.6602H491.379V62.5H489.611ZM491.379 55.2051H494.094C495.168 55.2051 495.917 54.9382 496.34 54.4043C496.763 53.8704 496.975 53.2161 496.975 52.4414C496.975 51.6667 496.763 51.0221 496.34 50.5078C495.917 49.987 495.168 49.7266 494.094 49.7266H491.379V55.2051ZM497.502 62.5L494.025 55.9375L495.793 55.6738L499.475 62.5H497.502Z" fill="#262626"/>
<path d="M522.193 35V27.7285L519.99 28.6367V27.5234L523.137 26.3516H523.342V35H522.193ZM530.145 35V32.668V32.3633V28.2383H530.074L527.432 32.0527H530.432H530.889H532.441V33.002H526.119V32.2285L530.18 26.4688H531.229V35H530.145Z" fill="#A2A2A2"/>
<rect x="510" y="40" width="32" height="32" fill="#F9F9F9"/>
<rect x="510" y="40" width="32" height="32" stroke="#525252"/>
<path d="M524.66 62.5V48.2812H526.428V62.5H524.66Z" fill="#262626"/>
<path d="M554.193 35V27.7285L551.99 28.6367V27.5234L555.137 26.3516H555.342V35H554.193ZM558.4 32.8496V32.791H559.508V32.8496C559.508 33.2754 559.662 33.6113 559.971 33.8574C560.283 34.1035 560.699 34.2266 561.219 34.2266C561.738 34.2266 562.164 34.0566 562.496 33.7168C562.828 33.373 562.994 32.8926 562.994 32.2754C562.994 31.6582 562.828 31.1875 562.496 30.8633C562.164 30.5391 561.738 30.377 561.219 30.377C560.863 30.377 560.549 30.4414 560.275 30.5703C560.002 30.6992 559.746 30.8809 559.508 31.1152L558.699 30.7285L559.133 26.4688H563.68V27.4941H560.07L559.818 29.8789C560.014 29.7578 560.246 29.6523 560.516 29.5625C560.789 29.4688 561.086 29.4219 561.406 29.4219C562.164 29.4219 562.807 29.6738 563.334 30.1777C563.865 30.6777 564.131 31.377 564.131 32.2754C564.131 33.1738 563.855 33.8828 563.305 34.4023C562.754 34.918 562.059 35.1758 561.219 35.1758C560.344 35.1758 559.654 34.9551 559.15 34.5137C558.65 34.0723 558.4 33.5176 558.4 32.8496Z" fill="#A2A2A2"/>
<rect x="542" y="40" width="32" height="32" fill="#F9F9F9"/>
<rect x="542" y="40" width="32" height="32" stroke="#525252"/>
<path d="M552.879 58.623V58.4375H554.646V58.623C554.646 59.5085 554.933 60.1725 555.506 60.6152C556.085 61.0514 556.889 61.2695 557.918 61.2695C558.953 61.2695 559.744 61.0449 560.291 60.5957C560.838 60.14 561.111 59.5475 561.111 58.8184C561.111 58.1478 560.848 57.6139 560.32 57.2168C559.799 56.8197 558.81 56.403 557.352 55.9668C555.848 55.5111 554.773 54.987 554.129 54.3945C553.491 53.8021 553.172 52.946 553.172 51.8262C553.172 50.7324 553.582 49.821 554.402 49.0918C555.223 48.3626 556.365 47.998 557.83 47.998C559.282 47.998 560.438 48.3789 561.297 49.1406C562.163 49.9023 562.596 50.8822 562.596 52.0801V52.2461H560.828V52.0801C560.828 51.3053 560.574 50.6836 560.066 50.2148C559.565 49.7461 558.82 49.5117 557.83 49.5117C556.827 49.5117 556.092 49.7168 555.623 50.127C555.154 50.5306 554.92 51.084 554.92 51.7871C554.92 52.4186 555.161 52.9199 555.643 53.291C556.124 53.6556 557.107 54.0592 558.592 54.502C560.083 54.9382 561.167 55.4785 561.844 56.123C562.521 56.7611 562.859 57.6595 562.859 58.8184C562.859 59.9772 562.417 60.9277 561.531 61.6699C560.646 62.4121 559.441 62.7832 557.918 62.7832C556.395 62.7832 555.174 62.4154 554.256 61.6797C553.338 60.9375 552.879 59.9186 552.879 58.623Z" fill="#262626"/>
<path d="M586.193 35V27.7285L583.99 28.6367V27.5234L587.137 26.3516H587.342V35H586.193ZM590.33 31.4023V31.2266C590.33 29.7422 590.74 28.5488 591.561 27.6465C592.385 26.7441 593.557 26.293 595.076 26.293H595.199V27.248H595.076C593.959 27.248 593.076 27.5625 592.428 28.1914C591.779 28.8203 591.455 29.8125 591.455 31.168V31.4609C591.455 32.4688 591.639 33.1816 592.006 33.5996C592.373 34.0176 592.836 34.2266 593.395 34.2266C593.953 34.2266 594.385 34.0566 594.689 33.7168C594.998 33.377 595.152 32.8984 595.152 32.2812C595.152 31.6641 594.998 31.1875 594.689 30.8516C594.385 30.5156 593.953 30.3477 593.395 30.3477C592.875 30.3477 592.416 30.5156 592.018 30.8516C591.619 31.1875 591.42 31.6641 591.42 32.2812H590.998C590.998 31.418 591.238 30.7207 591.719 30.1895C592.199 29.6582 592.838 29.3926 593.635 29.3926C594.436 29.3926 595.078 29.6582 595.562 30.1895C596.051 30.7207 596.295 31.418 596.295 32.2812C596.295 33.1406 596.021 33.8379 595.475 34.373C594.928 34.9082 594.234 35.1758 593.395 35.1758C592.555 35.1758 591.834 34.8789 591.232 34.2852C590.631 33.6914 590.33 32.7305 590.33 31.4023Z" fill="#A2A2A2"/>
<rect x="574" y="40" width="32" height="32" fill="#F9F9F9"/>
<rect x="574" y="40" width="32" height="32" stroke="#525252"/>
<path d="M584.215 49.7461V48.2812H594.986V49.7461H590.484V62.5H588.717V49.7461H584.215Z" fill="#262626"/>
<path d="M618.193 35V27.7285L615.99 28.6367V27.5234L619.137 26.3516H619.342V35H618.193ZM623.584 35L626.895 27.4414H622.283V26.4688H628.102V27.1133L624.762 35H623.584Z" fill="#A2A2A2"/>
<rect x="606" y="40" width="32" height="32" fill="#F9F9F9"/>
<rect x="606" y="40" width="32" height="32" stroke="#525252"/>
<path d="M618.111 62.5V48.2812H626.783V49.7461H619.879V54.4336H625.885V55.8984H619.879V61.0352H626.881V62.5H618.111Z" fill="#262626"/>
<path d="M650.193 35V27.7285L647.99 28.6367V27.5234L651.137 26.3516H651.342V35H650.193ZM654.424 32.7383C654.424 32.2305 654.566 31.7969 654.852 31.4375C655.137 31.0781 655.502 30.8105 655.947 30.6348V30.6113C655.604 30.4434 655.309 30.1895 655.062 29.8496C654.82 29.5059 654.699 29.0996 654.699 28.6309C654.699 27.9277 654.947 27.3633 655.443 26.9375C655.943 26.5078 656.553 26.293 657.271 26.293C657.99 26.293 658.596 26.5059 659.088 26.9316C659.584 27.3574 659.832 27.9238 659.832 28.6309C659.832 29.0996 659.711 29.5059 659.469 29.8496C659.227 30.1895 658.934 30.4434 658.59 30.6113V30.6348C659.035 30.8105 659.398 31.0781 659.68 31.4375C659.965 31.7969 660.107 32.2305 660.107 32.7383C660.107 33.5117 659.834 34.1113 659.287 34.5371C658.74 34.9629 658.068 35.1758 657.271 35.1758C656.475 35.1758 655.801 34.9629 655.25 34.5371C654.699 34.1113 654.424 33.5117 654.424 32.7383ZM655.555 32.6738C655.555 33.1387 655.711 33.5137 656.023 33.7988C656.34 34.084 656.756 34.2266 657.271 34.2266C657.787 34.2266 658.201 34.084 658.514 33.7988C658.826 33.5137 658.982 33.1387 658.982 32.6738C658.982 32.209 658.826 31.832 658.514 31.543C658.201 31.2539 657.787 31.1094 657.271 31.1094C656.756 31.1094 656.34 31.2539 656.023 31.543C655.711 31.832 655.555 32.209 655.555 32.6738ZM655.807 28.6953C655.807 29.1211 655.941 29.4727 656.211 29.75C656.48 30.0234 656.834 30.1602 657.271 30.1602C657.709 30.1602 658.061 30.0234 658.326 29.75C658.596 29.4727 658.73 29.1211 658.73 28.6953C658.73 28.2695 658.596 27.9219 658.326 27.6523C658.061 27.3789 657.709 27.2422 657.271 27.2422C656.834 27.2422 656.48 27.3789 656.211 27.6523C655.941 27.9219 655.807 28.2695 655.807 28.6953Z" fill="#A2A2A2"/>
<rect x="638" y="40" width="32" height="32" fill="#F9F9F9"/>
<rect x="638" y="40" width="32" height="32" stroke="#525252"/>
<path d="M648.879 58.623V58.4375H650.646V58.623C650.646 59.5085 650.933 60.1725 651.506 60.6152C652.085 61.0514 652.889 61.2695 653.918 61.2695C654.953 61.2695 655.744 61.0449 656.291 60.5957C656.838 60.14 657.111 59.5475 657.111 58.8184C657.111 58.1478 656.848 57.6139 656.32 57.2168C655.799 56.8197 654.81 56.403 653.352 55.9668C651.848 55.5111 650.773 54.987 650.129 54.3945C649.491 53.8021 649.172 52.946 649.172 51.8262C649.172 50.7324 649.582 49.821 650.402 49.0918C651.223 48.3626 652.365 47.998 653.83 47.998C655.282 47.998 656.438 48.3789 657.297 49.1406C658.163 49.9023 658.596 50.8822 658.596 52.0801V52.2461H656.828V52.0801C656.828 51.3053 656.574 50.6836 656.066 50.2148C655.565 49.7461 654.82 49.5117 653.83 49.5117C652.827 49.5117 652.092 49.7168 651.623 50.127C651.154 50.5306 650.92 51.084 650.92 51.7871C650.92 52.4186 651.161 52.9199 651.643 53.291C652.124 53.6556 653.107 54.0592 654.592 54.502C656.083 54.9382 657.167 55.4785 657.844 56.123C658.521 56.7611 658.859 57.6595 658.859 58.8184C658.859 59.9772 658.417 60.9277 657.531 61.6699C656.646 62.4121 655.441 62.7832 653.918 62.7832C652.395 62.7832 651.174 62.4154 650.256 61.6797C649.338 60.9375 648.879 59.9186 648.879 58.623Z" fill="#262626"/>
<rect x="94" y="106" width="32" height="32" fill="#FDCCD2"/>
<rect x="94" y="106" width="32" height="32" stroke="#525252"/>
<path d="M104.215 115.746V114.281H114.986V115.746H110.484V128.5H108.717V115.746H104.215Z" fill="#262626"/>
<rect x="126" y="106" width="32" height="32" fill="#F9F9F9"/>
<rect x="126" y="106" width="32" height="32" stroke="#525252"/>
<path d="M137.611 128.5V114.281H142.094C143.585 114.281 144.73 114.662 145.531 115.424C146.339 116.179 146.742 117.185 146.742 118.441C146.742 119.698 146.339 120.717 145.531 121.498C144.73 122.273 143.585 122.66 142.094 122.66H139.379V128.5H137.611ZM139.379 121.205H142.094C143.168 121.205 143.917 120.938 144.34 120.404C144.763 119.87 144.975 119.216 144.975 118.441C144.975 117.667 144.763 117.022 144.34 116.508C143.917 115.987 143.168 115.727 142.094 115.727H139.379V121.205ZM145.502 128.5L142.025 121.938L143.793 121.674L147.475 128.5H145.502Z" fill="#262626"/>
<rect x="158" y="106" width="32" height="32" fill="#F9F9F9"/>
<rect x="158" y="106" width="32" height="32" stroke="#525252"/>
<path d="M172.66 128.5V114.281H174.428V128.5H172.66Z" fill="#262626"/>
<rect x="190" y="106" width="32" height="32" fill="#F9F9F9"/>
<rect x="190" y="106" width="32" height="32" stroke="#525252"/>
<path d="M200.879 124.623V124.438H202.646V124.623C202.646 125.508 202.933 126.173 203.506 126.615C204.085 127.051 204.889 127.27 205.918 127.27C206.953 127.27 207.744 127.045 208.291 126.596C208.838 126.14 209.111 125.548 209.111 124.818C209.111 124.148 208.848 123.614 208.32 123.217C207.799 122.82 206.81 122.403 205.352 121.967C203.848 121.511 202.773 120.987 202.129 120.395C201.491 119.802 201.172 118.946 201.172 117.826C201.172 116.732 201.582 115.821 202.402 115.092C203.223 114.363 204.365 113.998 205.83 113.998C207.282 113.998 208.438 114.379 209.297 115.141C210.163 115.902 210.596 116.882 210.596 118.08V118.246H208.828V118.08C208.828 117.305 208.574 116.684 208.066 116.215C207.565 115.746 206.82 115.512 205.83 115.512C204.827 115.512 204.092 115.717 203.623 116.127C203.154 116.531 202.92 117.084 202.92 117.787C202.92 118.419 203.161 118.92 203.643 119.291C204.124 119.656 205.107 120.059 206.592 120.502C208.083 120.938 209.167 121.479 209.844 122.123C210.521 122.761 210.859 123.66 210.859 124.818C210.859 125.977 210.417 126.928 209.531 127.67C208.646 128.412 207.441 128.783 205.918 128.783C204.395 128.783 203.174 128.415 202.256 127.68C201.338 126.938 200.879 125.919 200.879 124.623Z" fill="#262626"/>
<rect x="222" y="106" width="32" height="32" fill="#F9F9F9"/>
<rect x="222" y="106" width="32" height="32" stroke="#525252"/>
<path d="M232.215 115.746V114.281H242.986V115.746H238.484V128.5H236.717V115.746H232.215Z" fill="#262626"/>
<rect x="254" y="106" width="32" height="32" fill="#F9F9F9"/>
<rect x="254" y="106" width="32" height="32" stroke="#525252"/>
<path d="M266.111 128.5V114.281H274.783V115.746H267.879V120.434H273.885V121.898H267.879V127.035H274.881V128.5H266.111Z" fill="#262626"/>
<path d="M9.16211 173V163.047H10.5293L15.0342 170.02C15.1253 170.156 15.2096 170.293 15.2871 170.43C15.3691 170.566 15.4375 170.692 15.4922 170.806H15.5469C15.5423 170.669 15.5378 170.516 15.5332 170.348C15.5332 170.174 15.5332 170.02 15.5332 169.883V163.047H16.8184V173H15.4512L10.9463 166.027C10.8551 165.891 10.7708 165.754 10.6934 165.617C10.6159 165.48 10.5452 165.355 10.4814 165.241H10.4336C10.4382 165.378 10.4404 165.533 10.4404 165.706C10.445 165.875 10.4473 166.027 10.4473 166.164V173H9.16211ZM21.7881 170.396V169.24H28.0088V170.396H21.7881ZM21.7881 167.695V166.54H28.0088V167.695H21.7881ZM35.5078 173V164.489L32.9922 165.549V164.277L36.6152 162.91H36.8203V173H35.5078ZM40.2109 166.15C40.2109 165.166 40.5231 164.368 41.1475 163.758C41.7718 163.147 42.5625 162.842 43.5195 162.842C44.4766 162.842 45.2992 163.188 45.9873 163.881C46.6755 164.574 47.0195 165.695 47.0195 167.244V167.449C47.0195 169.058 46.5501 170.386 45.6113 171.435C44.6771 172.478 43.3441 173 41.6123 173H41.4688V171.92H41.6055C42.8815 171.92 43.8887 171.555 44.627 170.826C45.3652 170.092 45.7344 168.99 45.7344 167.518V167.176C45.7344 165.991 45.5247 165.152 45.1055 164.66C44.6862 164.168 44.1576 163.922 43.5195 163.922C42.8815 163.922 42.387 164.118 42.0361 164.51C41.6852 164.897 41.5098 165.444 41.5098 166.15C41.5098 166.857 41.6852 167.404 42.0361 167.791C42.387 168.174 42.8815 168.365 43.5195 168.365C44.112 168.365 44.6361 168.174 45.0918 167.791C45.5475 167.404 45.7754 166.857 45.7754 166.15H46.2539C46.2539 167.135 45.9805 167.93 45.4336 168.536C44.8867 169.142 44.1576 169.445 43.2461 169.445C42.3392 169.445 41.6055 169.142 41.0449 168.536C40.4889 167.93 40.2109 167.135 40.2109 166.15ZM9.16211 189V179.047H10.8574L13.8105 186.532C13.8652 186.669 13.9154 186.812 13.9609 186.963C14.0111 187.109 14.0544 187.25 14.0908 187.387H14.1455C14.182 187.25 14.223 187.109 14.2686 186.963C14.3187 186.812 14.3711 186.669 14.4258 186.532L17.3789 179.047H19.0742V189H17.8027V181.822C17.8027 181.686 17.805 181.533 17.8096 181.364C17.8141 181.191 17.8255 181.036 17.8438 180.899H17.7891C17.7617 181.036 17.7207 181.191 17.666 181.364C17.6113 181.533 17.5566 181.686 17.502 181.822L14.6719 189H13.5371L10.707 181.822C10.6523 181.686 10.5977 181.533 10.543 181.364C10.4883 181.191 10.4473 181.036 10.4199 180.899H10.3652C10.3835 181.036 10.3949 181.191 10.3994 181.364C10.404 181.533 10.4062 181.686 10.4062 181.822V189H9.16211ZM24.0439 186.396V185.24H30.2646V186.396H24.0439ZM24.0439 183.695V182.54H30.2646V183.695H24.0439ZM34.6738 184.803V184.598C34.6738 182.866 35.1432 181.474 36.082 180.421C37.0208 179.368 38.3561 178.842 40.0879 178.842H40.2246V179.922H40.0879C38.8118 179.922 37.8047 180.291 37.0664 181.029C36.3281 181.768 35.959 182.934 35.959 184.529V184.871C35.959 186.056 36.1686 186.895 36.5879 187.387C37.0072 187.879 37.5358 188.125 38.1738 188.125C38.8118 188.125 39.3063 187.924 39.6572 187.523C40.0081 187.122 40.1836 186.557 40.1836 185.828C40.1836 185.099 40.0081 184.536 39.6572 184.14C39.3063 183.743 38.8118 183.545 38.1738 183.545C37.5814 183.545 37.0573 183.743 36.6016 184.14C36.1458 184.536 35.918 185.099 35.918 185.828H35.4395C35.4395 184.826 35.7129 184.014 36.2598 183.395C36.8066 182.775 37.5358 182.465 38.4473 182.465C39.3587 182.465 40.0924 182.775 40.6484 183.395C41.2044 184.014 41.4824 184.826 41.4824 185.828C41.4824 186.831 41.1702 187.644 40.5459 188.269C39.9215 188.893 39.1309 189.205 38.1738 189.205C37.2168 189.205 36.3942 188.859 35.7061 188.166C35.0179 187.473 34.6738 186.352 34.6738 184.803ZM8.78613 200.338V199.709C8.78613 198.178 9.17806 196.984 9.96191 196.127C10.7503 195.27 11.7598 194.842 12.9902 194.842C14.2207 194.842 15.2279 195.27 16.0117 196.127C16.8001 196.984 17.1943 198.178 17.1943 199.709V200.338C17.1943 201.869 16.8001 203.063 16.0117 203.92C15.2279 204.777 14.2207 205.205 12.9902 205.205C11.7598 205.205 10.7503 204.777 9.96191 203.92C9.17806 203.063 8.78613 201.869 8.78613 200.338ZM10.1123 200.338C10.1123 201.505 10.3743 202.421 10.8984 203.086C11.4271 203.751 12.1243 204.084 12.9902 204.084C13.8561 204.084 14.5511 203.751 15.0752 203.086C15.6038 202.421 15.8682 201.505 15.8682 200.338V199.709C15.8682 198.542 15.6038 197.626 15.0752 196.961C14.5511 196.296 13.8561 195.963 12.9902 195.963C12.1243 195.963 11.4271 196.296 10.8984 196.961C10.3743 197.626 10.1123 198.542 10.1123 199.709V200.338ZM16.2031 206.709L13.8105 204.795L14.665 203.94L17.0918 205.82L16.2031 206.709ZM18.9238 202.45V197.809H20.1953V202.464C20.1953 203.038 20.3229 203.451 20.5781 203.701C20.8379 203.947 21.2048 204.07 21.6787 204.07C22.0843 204.07 22.4421 203.961 22.752 203.742C23.0618 203.523 23.3034 203.241 23.4766 202.895V197.809H24.748V205H23.5996L23.5449 204.077H23.5039C23.2441 204.405 22.9251 204.665 22.5469 204.856C22.1732 205.043 21.7585 205.137 21.3027 205.137C20.5781 205.137 19.9993 204.932 19.5664 204.521C19.138 204.107 18.9238 203.416 18.9238 202.45ZM26.375 202.881C26.375 202.152 26.6644 201.584 27.2432 201.179C27.8219 200.773 28.5579 200.57 29.4512 200.57H31.0781V200.078C31.0781 199.645 30.9665 199.294 30.7432 199.025C30.5199 198.752 30.1348 198.615 29.5879 198.615C29.041 198.615 28.6491 198.729 28.4121 198.957C28.1797 199.18 28.0635 199.44 28.0635 199.736V199.771H26.7988V199.736C26.7988 199.167 27.0518 198.67 27.5576 198.246C28.068 197.818 28.7562 197.604 29.6221 197.604C30.488 197.604 31.1579 197.811 31.6318 198.226C32.1104 198.64 32.3496 199.258 32.3496 200.078V203.359C32.3496 203.656 32.3724 203.936 32.418 204.2C32.4635 204.46 32.5273 204.69 32.6094 204.891V205H31.3789C31.3151 204.886 31.2559 204.738 31.2012 204.556C31.151 204.373 31.1191 204.191 31.1055 204.009C30.9368 204.305 30.6634 204.567 30.2852 204.795C29.9115 205.023 29.4284 205.137 28.8359 205.137C28.1523 205.137 27.5713 204.943 27.0928 204.556C26.6143 204.168 26.375 203.61 26.375 202.881ZM27.6465 202.812C27.6465 203.223 27.765 203.544 28.002 203.776C28.2389 204.009 28.6081 204.125 29.1094 204.125C29.6107 204.125 30.0641 203.952 30.4697 203.605C30.8753 203.259 31.0781 202.892 31.0781 202.505V201.473H29.5879C28.9499 201.473 28.4668 201.593 28.1387 201.835C27.8105 202.076 27.6465 202.402 27.6465 202.812ZM34.332 205V197.809H35.4805L35.5352 198.731H35.5762C35.8359 198.403 36.1527 198.146 36.5264 197.959C36.9046 197.768 37.3216 197.672 37.7773 197.672C38.502 197.672 39.0785 197.879 39.5068 198.294C39.9398 198.704 40.1562 199.392 40.1562 200.358V205H38.8848V200.345C38.8848 199.771 38.7549 199.36 38.4951 199.114C38.2399 198.864 37.8753 198.738 37.4014 198.738C36.9958 198.738 36.638 198.848 36.3281 199.066C36.0182 199.285 35.7767 199.568 35.6035 199.914V205H34.332ZM41.0996 198.779V197.809H45.2012V198.779H41.0996ZM42.3848 203.223V198.396V198.191V196.031H43.6562V203.223C43.6562 203.542 43.7201 203.77 43.8477 203.906C43.9753 204.043 44.1758 204.111 44.4492 204.111C44.5768 204.111 44.7021 204.098 44.8252 204.07C44.9482 204.043 45.0736 204.007 45.2012 203.961V205C45.0827 205.055 44.9277 205.103 44.7363 205.144C44.5449 205.185 44.3353 205.205 44.1074 205.205C43.5833 205.205 43.1641 205.046 42.8496 204.727C42.5397 204.408 42.3848 203.906 42.3848 203.223ZM46.6162 205V197.809H47.8877V205H46.6162ZM46.459 195.635C46.459 195.421 46.5273 195.241 46.6641 195.095C46.8008 194.949 46.9967 194.876 47.252 194.876C47.5072 194.876 47.7031 194.949 47.8398 195.095C47.9766 195.241 48.0449 195.421 48.0449 195.635C48.0449 195.849 47.9766 196.029 47.8398 196.175C47.7031 196.321 47.5072 196.394 47.252 196.394C46.9967 196.394 46.8008 196.321 46.6641 196.175C46.5273 196.029 46.459 195.849 46.459 195.635ZM49.542 201.514V201.295C49.542 200.247 49.8154 199.381 50.3623 198.697C50.9092 198.014 51.6383 197.672 52.5498 197.672C53.0511 197.672 53.4772 197.763 53.8281 197.945C54.1836 198.123 54.4661 198.36 54.6758 198.656V194.5H55.9473V205H54.7988L54.7441 204.063H54.7031C54.5208 204.36 54.2406 204.613 53.8623 204.822C53.4886 205.032 53.0511 205.137 52.5498 205.137C51.6383 205.137 50.9092 204.795 50.3623 204.111C49.8154 203.428 49.542 202.562 49.542 201.514ZM50.8408 201.514C50.8408 202.243 51.0003 202.856 51.3193 203.353C51.6383 203.849 52.1396 204.098 52.8232 204.098C53.279 204.098 53.6663 203.972 53.9854 203.722C54.3044 203.471 54.5345 203.186 54.6758 202.867V199.941C54.5345 199.622 54.3044 199.338 53.9854 199.087C53.6663 198.836 53.279 198.711 52.8232 198.711C52.1396 198.711 51.6383 198.959 51.3193 199.456C51.0003 199.953 50.8408 200.566 50.8408 201.295V201.514ZM57.5742 202.881C57.5742 202.152 57.8636 201.584 58.4424 201.179C59.0212 200.773 59.7572 200.57 60.6504 200.57H62.2773V200.078C62.2773 199.645 62.1657 199.294 61.9424 199.025C61.7191 198.752 61.334 198.615 60.7871 198.615C60.2402 198.615 59.8483 198.729 59.6113 198.957C59.3789 199.18 59.2627 199.44 59.2627 199.736V199.771H57.998V199.736C57.998 199.167 58.251 198.67 58.7568 198.246C59.2673 197.818 59.9554 197.604 60.8213 197.604C61.6872 197.604 62.3571 197.811 62.8311 198.226C63.3096 198.64 63.5488 199.258 63.5488 200.078V203.359C63.5488 203.656 63.5716 203.936 63.6172 204.2C63.6628 204.46 63.7266 204.69 63.8086 204.891V205H62.5781C62.5143 204.886 62.4551 204.738 62.4004 204.556C62.3503 204.373 62.3184 204.191 62.3047 204.009C62.1361 204.305 61.8626 204.567 61.4844 204.795C61.1107 205.023 60.6276 205.137 60.0352 205.137C59.3516 205.137 58.7705 204.943 58.292 204.556C57.8135 204.168 57.5742 203.61 57.5742 202.881ZM58.8457 202.812C58.8457 203.223 58.9642 203.544 59.2012 203.776C59.4382 204.009 59.8073 204.125 60.3086 204.125C60.8099 204.125 61.2633 203.952 61.6689 203.605C62.0745 203.259 62.2773 202.892 62.2773 202.505V201.473H60.7871C60.1491 201.473 59.666 201.593 59.3379 201.835C59.0098 202.076 58.8457 202.402 58.8457 202.812ZM65.1006 201.514V201.295C65.1006 200.247 65.374 199.381 65.9209 198.697C66.4678 198.014 67.1969 197.672 68.1084 197.672C68.6097 197.672 69.0358 197.763 69.3867 197.945C69.7422 198.123 70.0247 198.36 70.2344 198.656V194.5H71.5059V205H70.3574L70.3027 204.063H70.2617C70.0794 204.36 69.7992 204.613 69.4209 204.822C69.0472 205.032 68.6097 205.137 68.1084 205.137C67.1969 205.137 66.4678 204.795 65.9209 204.111C65.374 203.428 65.1006 202.562 65.1006 201.514ZM66.3994 201.514C66.3994 202.243 66.5589 202.856 66.8779 203.353C67.1969 203.849 67.6982 204.098 68.3818 204.098C68.8376 204.098 69.2249 203.972 69.5439 203.722C69.863 203.471 70.0931 203.186 70.2344 202.867V199.941C70.0931 199.622 69.863 199.338 69.5439 199.087C69.2249 198.836 68.8376 198.711 68.3818 198.711C67.6982 198.711 67.1969 198.959 66.8779 199.456C66.5589 199.953 66.3994 200.566 66.3994 201.295V201.514ZM73.0986 201.514V201.295C73.0986 200.21 73.3949 199.324 73.9873 198.636C74.5843 197.948 75.3727 197.604 76.3525 197.604C77.3324 197.604 78.0866 197.925 78.6152 198.567C79.1439 199.21 79.4082 200.078 79.4082 201.172V201.691H73.8779V200.68H78.1299V200.516C78.1299 199.996 77.9818 199.554 77.6855 199.189C77.3893 198.825 76.9632 198.643 76.4072 198.643C75.7327 198.643 75.2292 198.9 74.8965 199.415C74.5638 199.925 74.3975 200.552 74.3975 201.295V201.514C74.3975 202.257 74.5729 202.885 74.9238 203.4C75.2747 203.911 75.8193 204.166 76.5576 204.166C77.0133 204.166 77.4053 204.066 77.7334 203.865C78.0615 203.665 78.3281 203.428 78.5332 203.154L79.3535 203.804C79.1257 204.146 78.7725 204.465 78.2939 204.761C77.82 205.057 77.2412 205.205 76.5576 205.205C75.4411 205.205 74.5843 204.861 73.9873 204.173C73.3949 203.485 73.0986 202.598 73.0986 201.514ZM83.9541 201.514V201.295C83.9541 200.247 84.2275 199.381 84.7744 198.697C85.3213 198.014 86.0505 197.672 86.9619 197.672C87.4632 197.672 87.8893 197.763 88.2402 197.945C88.5957 198.123 88.8783 198.36 89.0879 198.656V194.5H90.3594V205H89.2109L89.1562 204.063H89.1152C88.9329 204.36 88.6527 204.613 88.2744 204.822C87.9007 205.032 87.4632 205.137 86.9619 205.137C86.0505 205.137 85.3213 204.795 84.7744 204.111C84.2275 203.428 83.9541 202.562 83.9541 201.514ZM85.2529 201.514C85.2529 202.243 85.4124 202.856 85.7314 203.353C86.0505 203.849 86.5518 204.098 87.2354 204.098C87.6911 204.098 88.0785 203.972 88.3975 203.722C88.7165 203.471 88.9466 203.186 89.0879 202.867V199.941C88.9466 199.622 88.7165 199.338 88.3975 199.087C88.0785 198.836 87.6911 198.711 87.2354 198.711C86.5518 198.711 86.0505 198.959 85.7314 199.456C85.4124 199.953 85.2529 200.566 85.2529 201.295V201.514ZM91.9521 201.514V201.295C91.9521 200.21 92.2484 199.324 92.8408 198.636C93.4378 197.948 94.2262 197.604 95.2061 197.604C96.1859 197.604 96.9401 197.925 97.4688 198.567C97.9974 199.21 98.2617 200.078 98.2617 201.172V201.691H92.7314V200.68H96.9834V200.516C96.9834 199.996 96.8353 199.554 96.5391 199.189C96.2428 198.825 95.8167 198.643 95.2607 198.643C94.5863 198.643 94.0827 198.9 93.75 199.415C93.4173 199.925 93.251 200.552 93.251 201.295V201.514C93.251 202.257 93.4264 202.885 93.7773 203.4C94.1283 203.911 94.6729 204.166 95.4111 204.166C95.8669 204.166 96.2588 204.066 96.5869 203.865C96.915 203.665 97.1816 203.428 97.3867 203.154L98.207 203.804C97.9792 204.146 97.626 204.465 97.1475 204.761C96.6735 205.057 96.0947 205.205 95.4111 205.205C94.2946 205.205 93.4378 204.861 92.8408 204.173C92.2484 203.485 91.9521 202.598 91.9521 201.514ZM103.013 200.338V199.709C103.013 198.178 103.405 196.984 104.188 196.127C104.977 195.27 105.964 194.842 107.148 194.842C108.333 194.842 109.261 195.168 109.931 195.819C110.605 196.466 110.942 197.248 110.942 198.164V198.232H109.63V198.164C109.63 197.531 109.425 197.007 109.015 196.592C108.604 196.173 107.982 195.963 107.148 195.963C106.333 195.963 105.66 196.271 105.132 196.886C104.603 197.501 104.339 198.442 104.339 199.709V200.338C104.339 201.505 104.601 202.421 105.125 203.086C105.654 203.751 106.328 204.084 107.148 204.084C107.932 204.084 108.525 203.872 108.926 203.448C109.327 203.024 109.559 202.503 109.623 201.883L109.63 201.814H110.942L110.936 201.883C110.844 202.794 110.487 203.576 109.862 204.228C109.238 204.879 108.333 205.205 107.148 205.205C105.964 205.205 104.977 204.777 104.188 203.92C103.405 203.063 103.013 201.869 103.013 200.338ZM112.104 201.514V201.295C112.104 200.21 112.412 199.324 113.027 198.636C113.643 197.948 114.465 197.604 115.495 197.604C116.525 197.604 117.348 197.948 117.963 198.636C118.578 199.324 118.886 200.21 118.886 201.295V201.514C118.886 202.598 118.578 203.485 117.963 204.173C117.348 204.861 116.525 205.205 115.495 205.205C114.465 205.205 113.643 204.861 113.027 204.173C112.412 203.485 112.104 202.598 112.104 201.514ZM113.403 201.295V201.514C113.403 202.257 113.579 202.885 113.93 203.4C114.281 203.911 114.802 204.166 115.495 204.166C116.188 204.166 116.71 203.911 117.061 203.4C117.411 202.885 117.587 202.257 117.587 201.514V201.295C117.587 200.552 117.411 199.925 117.061 199.415C116.71 198.9 116.188 198.643 115.495 198.643C114.802 198.643 114.281 198.9 113.93 199.415C113.579 199.925 113.403 200.552 113.403 201.295ZM120.479 205V197.809H121.627L121.682 198.731H121.723C121.978 198.408 122.285 198.15 122.646 197.959C123.01 197.768 123.413 197.672 123.855 197.672C124.339 197.672 124.756 197.768 125.106 197.959C125.457 198.15 125.724 198.46 125.906 198.889H125.947C126.248 198.46 126.581 198.15 126.945 197.959C127.31 197.768 127.729 197.672 128.203 197.672C128.951 197.672 129.534 197.879 129.953 198.294C130.372 198.704 130.582 199.392 130.582 200.358V205H129.311V200.345C129.311 199.771 129.188 199.36 128.941 199.114C128.695 198.864 128.347 198.738 127.896 198.738C127.504 198.738 127.16 198.848 126.863 199.066C126.572 199.285 126.339 199.568 126.166 199.914V205H124.895V200.345C124.895 199.771 124.771 199.36 124.525 199.114C124.279 198.864 123.931 198.738 123.479 198.738C123.088 198.738 122.743 198.848 122.447 199.066C122.156 199.285 121.923 199.568 121.75 199.914V205H120.479ZM132.537 207.844V197.809H133.686L133.74 198.745H133.781C133.964 198.449 134.242 198.196 134.615 197.986C134.993 197.777 135.433 197.672 135.935 197.672C136.846 197.672 137.575 198.014 138.122 198.697C138.669 199.381 138.942 200.247 138.942 201.295V201.514C138.942 202.562 138.669 203.428 138.122 204.111C137.575 204.795 136.846 205.137 135.935 205.137C135.433 205.137 135.005 205.048 134.649 204.87C134.299 204.688 134.018 204.449 133.809 204.152V207.844H132.537ZM133.809 202.867C133.95 203.186 134.18 203.471 134.499 203.722C134.818 203.972 135.205 204.098 135.661 204.098C136.345 204.098 136.846 203.849 137.165 203.353C137.484 202.856 137.644 202.243 137.644 201.514V201.295C137.644 200.566 137.484 199.953 137.165 199.456C136.846 198.959 136.345 198.711 135.661 198.711C135.205 198.711 134.818 198.836 134.499 199.087C134.18 199.338 133.95 199.622 133.809 199.941V202.867ZM140.139 202.881C140.139 202.152 140.428 201.584 141.007 201.179C141.586 200.773 142.322 200.57 143.215 200.57H144.842V200.078C144.842 199.645 144.73 199.294 144.507 199.025C144.284 198.752 143.898 198.615 143.352 198.615C142.805 198.615 142.413 198.729 142.176 198.957C141.943 199.18 141.827 199.44 141.827 199.736V199.771H140.562V199.736C140.562 199.167 140.815 198.67 141.321 198.246C141.832 197.818 142.52 197.604 143.386 197.604C144.252 197.604 144.922 197.811 145.396 198.226C145.874 198.64 146.113 199.258 146.113 200.078V203.359C146.113 203.656 146.136 203.936 146.182 204.2C146.227 204.46 146.291 204.69 146.373 204.891V205H145.143C145.079 204.886 145.02 204.738 144.965 204.556C144.915 204.373 144.883 204.191 144.869 204.009C144.701 204.305 144.427 204.567 144.049 204.795C143.675 205.023 143.192 205.137 142.6 205.137C141.916 205.137 141.335 204.943 140.856 204.556C140.378 204.168 140.139 203.61 140.139 202.881ZM141.41 202.812C141.41 203.223 141.529 203.544 141.766 203.776C142.003 204.009 142.372 204.125 142.873 204.125C143.374 204.125 143.828 203.952 144.233 203.605C144.639 203.259 144.842 202.892 144.842 202.505V201.473H143.352C142.714 201.473 142.23 201.593 141.902 201.835C141.574 202.076 141.41 202.402 141.41 202.812ZM148.096 205V197.809H149.244L149.299 198.731H149.34C149.522 198.431 149.761 198.169 150.058 197.945C150.354 197.717 150.707 197.604 151.117 197.604C151.217 197.604 151.322 197.615 151.432 197.638C151.541 197.66 151.618 197.681 151.664 197.699V198.875C151.573 198.857 151.477 198.843 151.377 198.834C151.277 198.825 151.167 198.82 151.049 198.82C150.639 198.82 150.29 198.927 150.003 199.142C149.716 199.356 149.504 199.622 149.367 199.941V205H148.096ZM152.211 202.881C152.211 202.152 152.5 201.584 153.079 201.179C153.658 200.773 154.394 200.57 155.287 200.57H156.914V200.078C156.914 199.645 156.802 199.294 156.579 199.025C156.356 198.752 155.971 198.615 155.424 198.615C154.877 198.615 154.485 198.729 154.248 198.957C154.016 199.18 153.899 199.44 153.899 199.736V199.771H152.635V199.736C152.635 199.167 152.888 198.67 153.394 198.246C153.904 197.818 154.592 197.604 155.458 197.604C156.324 197.604 156.994 197.811 157.468 198.226C157.946 198.64 158.186 199.258 158.186 200.078V203.359C158.186 203.656 158.208 203.936 158.254 204.2C158.299 204.46 158.363 204.69 158.445 204.891V205H157.215C157.151 204.886 157.092 204.738 157.037 204.556C156.987 204.373 156.955 204.191 156.941 204.009C156.773 204.305 156.499 204.567 156.121 204.795C155.747 205.023 155.264 205.137 154.672 205.137C153.988 205.137 153.407 204.943 152.929 204.556C152.45 204.168 152.211 203.61 152.211 202.881ZM153.482 202.812C153.482 203.223 153.601 203.544 153.838 203.776C154.075 204.009 154.444 204.125 154.945 204.125C155.447 204.125 155.9 203.952 156.306 203.605C156.711 203.259 156.914 202.892 156.914 202.505V201.473H155.424C154.786 201.473 154.303 201.593 153.975 201.835C153.646 202.076 153.482 202.402 153.482 202.812ZM159.737 201.514V201.295C159.737 200.21 160.031 199.324 160.619 198.636C161.212 197.948 162.025 197.604 163.06 197.604C164.017 197.604 164.743 197.863 165.24 198.383C165.737 198.898 165.985 199.474 165.985 200.112V200.146H164.755V200.112C164.755 199.725 164.62 199.383 164.352 199.087C164.083 198.791 163.652 198.643 163.06 198.643C162.367 198.643 161.856 198.9 161.528 199.415C161.2 199.925 161.036 200.552 161.036 201.295V201.514C161.036 202.257 161.2 202.885 161.528 203.4C161.856 203.911 162.367 204.166 163.06 204.166C163.652 204.166 164.083 204.018 164.352 203.722C164.62 203.425 164.755 203.084 164.755 202.696V202.662H165.985V202.696C165.985 203.334 165.737 203.913 165.24 204.433C164.743 204.948 164.017 205.205 163.06 205.205C162.025 205.205 161.212 204.861 160.619 204.173C160.031 203.485 159.737 202.598 159.737 201.514ZM162.567 204.863H163.449L163.258 205.513C163.518 205.558 163.791 205.668 164.078 205.841C164.365 206.014 164.509 206.299 164.509 206.695C164.509 207.119 164.311 207.463 163.914 207.728C163.518 207.992 162.859 208.124 161.938 208.124L161.891 207.393C162.447 207.393 162.813 207.338 162.991 207.229C163.174 207.124 163.265 206.951 163.265 206.709C163.265 206.486 163.196 206.331 163.06 206.244C162.927 206.162 162.67 206.105 162.287 206.073L162.567 204.863ZM167.038 201.514V201.295C167.038 200.21 167.346 199.324 167.961 198.636C168.576 197.948 169.399 197.604 170.429 197.604C171.459 197.604 172.281 197.948 172.896 198.636C173.512 199.324 173.819 200.21 173.819 201.295V201.514C173.819 202.598 173.512 203.485 172.896 204.173C172.281 204.861 171.459 205.205 170.429 205.205C169.399 205.205 168.576 204.861 167.961 204.173C167.346 203.485 167.038 202.598 167.038 201.514ZM168.337 201.295V201.514C168.337 202.257 168.512 202.885 168.863 203.4C169.214 203.911 169.736 204.166 170.429 204.166C171.121 204.166 171.643 203.911 171.994 203.4C172.345 202.885 172.521 202.257 172.521 201.514V201.295C172.521 200.552 172.345 199.925 171.994 199.415C171.643 198.9 171.121 198.643 170.429 198.643C169.736 198.643 169.214 198.9 168.863 199.415C168.512 199.925 168.337 200.552 168.337 201.295ZM167.995 195.936C168.146 195.648 168.378 195.393 168.692 195.17C169.007 194.947 169.317 194.835 169.622 194.835C169.809 194.835 169.987 194.865 170.155 194.924C170.328 194.979 170.499 195.061 170.668 195.17C170.823 195.27 170.989 195.37 171.167 195.471C171.345 195.571 171.52 195.621 171.693 195.621C171.876 195.621 172.047 195.562 172.206 195.443C172.366 195.32 172.498 195.177 172.603 195.013L173.156 195.683C172.983 196.006 172.744 196.25 172.438 196.414C172.138 196.578 171.857 196.66 171.598 196.66C171.374 196.66 171.156 196.612 170.941 196.517C170.727 196.416 170.549 196.327 170.408 196.25C170.253 196.163 170.098 196.081 169.943 196.004C169.788 195.926 169.645 195.888 169.513 195.888C169.299 195.888 169.098 195.97 168.911 196.134C168.729 196.298 168.597 196.441 168.515 196.564L167.995 195.936ZM174.981 201.514V201.295C174.981 200.21 175.278 199.324 175.87 198.636C176.467 197.948 177.256 197.604 178.235 197.604C179.215 197.604 179.969 197.925 180.498 198.567C181.027 199.21 181.291 200.078 181.291 201.172V201.691H175.761V200.68H180.013V200.516C180.013 199.996 179.865 199.554 179.568 199.189C179.272 198.825 178.846 198.643 178.29 198.643C177.616 198.643 177.112 198.9 176.779 199.415C176.447 199.925 176.28 200.552 176.28 201.295V201.514C176.28 202.257 176.456 202.885 176.807 203.4C177.158 203.911 177.702 204.166 178.44 204.166C178.896 204.166 179.288 204.066 179.616 203.865C179.944 203.665 180.211 203.428 180.416 203.154L181.236 203.804C181.008 204.146 180.655 204.465 180.177 204.761C179.703 205.057 179.124 205.205 178.44 205.205C177.324 205.205 176.467 204.861 175.87 204.173C175.278 203.485 174.981 202.598 174.981 201.514ZM182.385 202.881H183.656V202.915C183.656 203.33 183.809 203.642 184.114 203.852C184.42 204.061 184.823 204.166 185.324 204.166C185.826 204.166 186.22 204.066 186.507 203.865C186.799 203.665 186.944 203.405 186.944 203.086C186.944 202.767 186.828 202.523 186.596 202.354C186.363 202.181 185.86 202.004 185.085 201.821C184.31 201.639 183.695 201.384 183.239 201.056C182.784 200.723 182.556 200.26 182.556 199.668C182.556 199.076 182.799 198.583 183.287 198.191C183.779 197.799 184.436 197.604 185.256 197.604C186.076 197.604 186.737 197.799 187.238 198.191C187.74 198.579 187.99 199.105 187.99 199.771V199.805H186.726V199.743C186.726 199.401 186.605 199.132 186.363 198.937C186.126 198.741 185.757 198.643 185.256 198.643C184.755 198.643 184.388 198.734 184.155 198.916C183.927 199.098 183.813 199.326 183.813 199.6C183.813 199.873 183.946 200.09 184.21 200.249C184.474 200.409 184.994 200.579 185.769 200.762C186.543 200.944 187.14 201.206 187.56 201.548C187.983 201.89 188.195 202.38 188.195 203.018C188.195 203.656 187.956 204.18 187.478 204.59C186.999 205 186.281 205.205 185.324 205.205C184.367 205.205 183.638 204.998 183.137 204.583C182.635 204.164 182.385 203.608 182.385 202.915V202.881ZM192.55 202.396V201.24H198.771V202.396H192.55ZM192.55 199.695V198.54H198.771V199.695H192.55ZM207.527 205V202.279V201.924V197.146H207.445L204.417 201.582H207.876H208.402H210.152V202.662H202.92V201.801L207.582 195.047H208.758V205H207.527Z" fill="black"/>
<path d="M8.87891 108.123V107.938H10.6465V108.123C10.6465 109.008 10.9329 109.673 11.5059 110.115C12.0853 110.551 12.8893 110.77 13.918 110.77C14.9531 110.77 15.7441 110.545 16.291 110.096C16.8379 109.64 17.1113 109.048 17.1113 108.318C17.1113 107.648 16.8477 107.114 16.3203 106.717C15.7995 106.32 14.8099 105.903 13.3516 105.467C11.8477 105.011 10.7734 104.487 10.1289 103.895C9.49089 103.302 9.17188 102.446 9.17188 101.326C9.17188 100.232 9.58203 99.321 10.4023 98.5918C11.2227 97.8626 12.3652 97.498 13.8301 97.498C15.2819 97.498 16.4375 97.8789 17.2969 98.6406C18.1628 99.4023 18.5957 100.382 18.5957 101.58V101.746H16.8281V101.58C16.8281 100.805 16.5742 100.184 16.0664 99.7148C15.5651 99.2461 14.8197 99.0117 13.8301 99.0117C12.8275 99.0117 12.0918 99.2168 11.623 99.627C11.1543 100.031 10.9199 100.584 10.9199 101.287C10.9199 101.919 11.1608 102.42 11.6426 102.791C12.1243 103.156 13.1074 103.559 14.5918 104.002C16.0827 104.438 17.1667 104.979 17.8438 105.623C18.5208 106.261 18.8594 107.16 18.8594 108.318C18.8594 109.477 18.4167 110.428 17.5312 111.17C16.6458 111.912 15.4414 112.283 13.918 112.283C12.3945 112.283 11.1738 111.915 10.2559 111.18C9.33789 110.438 8.87891 109.419 8.87891 108.123ZM24.9238 108.211V106.648H33.7324V108.211H24.9238ZM24.9238 104.373V102.811H33.7324V104.373H24.9238ZM44.1523 112V99.7051L40.5879 101.17V99.4609L45.5879 97.5859H45.9199V112H44.1523Z" fill="black"/>
</svg>
