<svg width="289" height="225" viewBox="0 0 289 225" fill="none" xmlns="http://www.w3.org/2000/svg">
<g clip-path="url(#clip0_49_1173)">
<rect x="16" y="16" width="48" height="52" rx="8" fill="#F9F9F9"/>
<path d="M36.1934 31V23.7285L33.9902 24.6367V23.5234L37.1367 22.3516H37.3418V31H36.1934ZM40.4648 31V30.1445L43.5879 26.8809C43.9941 26.4629 44.3027 26.0898 44.5137 25.7617C44.7285 25.4297 44.8359 25.0703 44.8359 24.6836C44.8359 24.2969 44.7012 23.9609 44.4316 23.6758C44.1621 23.3906 43.7871 23.248 43.3066 23.248C42.8262 23.248 42.4219 23.4023 42.0938 23.7109C41.7656 24.0156 41.6016 24.4375 41.6016 24.9766V25.0352H40.459V24.9766C40.459 24.1953 40.7305 23.5527 41.2734 23.0488C41.8203 22.5449 42.498 22.293 43.3066 22.293C44.1074 22.293 44.752 22.5254 45.2402 22.9902C45.7324 23.4551 45.9785 24 45.9785 24.625C45.9785 25.1836 45.8203 25.6895 45.5039 26.1426C45.1875 26.5918 44.7988 27.0508 44.3379 27.5195L41.9062 30.0156H46.2129V31H40.4648Z" fill="#525252"/>
<path d="M16 38H64V68H16V38Z" fill="#F9F9F9"/>
<path d="M16 38.5H64V37.5H16V38.5Z" fill="#525252"/>
<path d="M37.0273 55.166C37.0273 54.5332 37.2812 54.041 37.7891 53.6895C38.3008 53.334 38.9512 53.1562 39.7402 53.1562H41.1816V52.7109C41.1816 52.3438 41.082 52.0469 40.8828 51.8203C40.6836 51.5898 40.3418 51.4746 39.8574 51.4746C39.373 51.4746 39.0254 51.5723 38.8145 51.7676C38.6074 51.9629 38.5039 52.1895 38.5039 52.4473V52.4766H37.3965V52.4473C37.3965 51.9512 37.6211 51.5176 38.0703 51.1465C38.5195 50.7754 39.125 50.5898 39.8867 50.5898C40.6523 50.5898 41.2441 50.7676 41.6621 51.123C42.084 51.4785 42.2949 52.0078 42.2949 52.7109V55.5938C42.2949 55.8477 42.3145 56.0879 42.3535 56.3145C42.3926 56.5371 42.4492 56.7344 42.5234 56.9062V57H41.4453C41.3867 56.9023 41.334 56.7734 41.2871 56.6133C41.2441 56.4531 41.2168 56.2949 41.2051 56.1387C41.0566 56.3965 40.8145 56.625 40.4785 56.8242C40.1465 57.0195 39.7168 57.1172 39.1895 57.1172C38.5918 57.1172 38.082 56.9492 37.6602 56.6133C37.2383 56.2773 37.0273 55.7949 37.0273 55.166ZM38.1406 55.1074C38.1406 55.459 38.2461 55.7344 38.457 55.9336C38.668 56.1289 38.9941 56.2266 39.4355 56.2266C39.8809 56.2266 40.2832 56.0781 40.6426 55.7812C41.002 55.4844 41.1816 55.1699 41.1816 54.8379V53.9531H39.8574C39.2949 53.9531 38.8672 54.0566 38.5742 54.2637C38.2852 54.4707 38.1406 54.752 38.1406 55.1074Z" fill="#262626"/>
</g>
<rect x="16.5" y="16.5" width="47" height="51" rx="7.5" stroke="#525252"/>
<g clip-path="url(#clip1_49_1173)">
<rect x="72" y="157" width="48" height="52" rx="8" fill="#F9F9F9"/>
<path d="M96.8008 172V169.668V169.363V165.238H96.7305L94.0879 169.053H97.0879H97.5449H99.0977V170.002H92.7754V169.229L96.8359 163.469H97.8848V172H96.8008Z" fill="#525252"/>
<path d="M72 179H120V209H72V179Z" fill="#F9F9F9"/>
<path d="M72 179.5H120V178.5H72V179.5Z" fill="#525252"/>
<path d="M92.8672 198V189H93.9805V192.498C94.168 192.24 94.418 192.035 94.7305 191.883C95.043 191.727 95.4219 191.648 95.8672 191.648C96.668 191.648 97.3086 191.945 97.7891 192.539C98.2695 193.129 98.5098 193.879 98.5098 194.789V194.977C98.5098 195.883 98.2695 196.633 97.7891 197.227C97.3086 197.82 96.668 198.117 95.8672 198.117C95.4219 198.117 95.0312 198.027 94.6953 197.848C94.3633 197.664 94.1172 197.443 93.957 197.186H93.9219L93.875 198H92.8672ZM93.9805 196.137C94.1055 196.41 94.3086 196.656 94.5898 196.875C94.875 197.09 95.2188 197.197 95.6211 197.197C96.2266 197.197 96.6699 196.984 96.9512 196.559C97.2324 196.129 97.373 195.602 97.373 194.977V194.789C97.373 194.16 97.2324 193.633 96.9512 193.207C96.6699 192.777 96.2266 192.562 95.6211 192.562C95.2188 192.562 94.875 192.672 94.5898 192.891C94.3086 193.105 94.1055 193.352 93.9805 193.629V196.137Z" fill="#262626"/>
</g>
<rect x="72.5" y="157.5" width="47" height="51" rx="7.5" stroke="#525252"/>
<g clip-path="url(#clip2_49_1173)">
<rect x="128" y="157" width="48" height="52" rx="8" fill="#F9F9F9"/>
<path d="M149.121 172V171.145L152.244 167.881C152.65 167.463 152.959 167.09 153.17 166.762C153.385 166.43 153.492 166.07 153.492 165.684C153.492 165.297 153.357 164.961 153.088 164.676C152.818 164.391 152.443 164.248 151.963 164.248C151.482 164.248 151.078 164.402 150.75 164.711C150.422 165.016 150.258 165.438 150.258 165.977V166.035H149.115V165.977C149.115 165.195 149.387 164.553 149.93 164.049C150.477 163.545 151.154 163.293 151.963 163.293C152.764 163.293 153.408 163.525 153.896 163.99C154.389 164.455 154.635 165 154.635 165.625C154.635 166.184 154.477 166.689 154.16 167.143C153.844 167.592 153.455 168.051 152.994 168.52L150.562 171.016H154.869V172H149.121Z" fill="#525252"/>
<path d="M128 179H176V209H128V179Z" fill="#F9F9F9"/>
<path d="M128 179.5H176V178.5H128V179.5Z" fill="#525252"/>
<path d="M148.998 194.977V194.789C148.998 193.848 149.258 193.08 149.777 192.486C150.297 191.889 151.014 191.59 151.928 191.59C152.771 191.59 153.412 191.814 153.85 192.264C154.287 192.709 154.506 193.207 154.506 193.758V193.787H153.428V193.758C153.428 193.43 153.309 193.139 153.07 192.885C152.832 192.631 152.451 192.504 151.928 192.504C151.314 192.504 150.861 192.725 150.568 193.166C150.279 193.607 150.135 194.148 150.135 194.789V194.977C150.135 195.617 150.279 196.158 150.568 196.6C150.861 197.041 151.314 197.262 151.928 197.262C152.451 197.262 152.832 197.135 153.07 196.881C153.309 196.627 153.428 196.334 153.428 196.002V195.973H154.506V196.002C154.506 196.557 154.287 197.059 153.85 197.508C153.412 197.953 152.771 198.176 151.928 198.176C151.014 198.176 150.297 197.879 149.777 197.285C149.258 196.688 148.998 195.918 148.998 194.977Z" fill="#262626"/>
</g>
<rect x="128.5" y="157.5" width="47" height="51" rx="7.5" stroke="#525252"/>
<g clip-path="url(#clip3_49_1173)">
<rect x="225" y="91" width="48" height="52" rx="8" fill="#F9F9F9"/>
<path d="M245.986 102.402V102.227C245.986 100.742 246.396 99.5488 247.217 98.6465C248.041 97.7441 249.213 97.293 250.732 97.293H250.855V98.248H250.732C249.615 98.248 248.732 98.5625 248.084 99.1914C247.436 99.8203 247.111 100.812 247.111 102.168V102.461C247.111 103.469 247.295 104.182 247.662 104.6C248.029 105.018 248.492 105.227 249.051 105.227C249.609 105.227 250.041 105.057 250.346 104.717C250.654 104.377 250.809 103.898 250.809 103.281C250.809 102.664 250.654 102.188 250.346 101.852C250.041 101.516 249.609 101.348 249.051 101.348C248.531 101.348 248.072 101.516 247.674 101.852C247.275 102.188 247.076 102.664 247.076 103.281H246.654C246.654 102.418 246.895 101.721 247.375 101.189C247.855 100.658 248.494 100.393 249.291 100.393C250.092 100.393 250.734 100.658 251.219 101.189C251.707 101.721 251.951 102.418 251.951 103.281C251.951 104.141 251.678 104.838 251.131 105.373C250.584 105.908 249.891 106.176 249.051 106.176C248.211 106.176 247.49 105.879 246.889 105.285C246.287 104.691 245.986 103.73 245.986 102.402Z" fill="#525252"/>
<path d="M225 113H273V143H225V113Z" fill="#F9F9F9"/>
<path d="M225 113.5H273V112.5H225V113.5Z" fill="#525252"/>
<path d="M246.367 132V125.766H247.375L247.422 126.574H247.457C247.688 126.281 247.969 126.055 248.301 125.895C248.633 125.73 249.002 125.648 249.408 125.648C250.045 125.648 250.553 125.83 250.932 126.193C251.314 126.553 251.506 127.158 251.506 128.01V132H250.387V127.998C250.387 127.494 250.271 127.133 250.041 126.914C249.814 126.695 249.492 126.586 249.074 126.586C248.715 126.586 248.398 126.682 248.125 126.873C247.852 127.064 247.637 127.311 247.48 127.611V132H246.367Z" fill="#262626"/>
</g>
<rect x="225.5" y="91.5" width="47" height="51" rx="7.5" stroke="#525252"/>
<g clip-path="url(#clip4_49_1173)">
<rect x="100" y="91" width="48" height="30" rx="8" fill="#F9F9F9"/>
<rect x="100" y="91" width="48" height="30" fill="#F9F9F9"/>
<rect x="100" y="91" width="48" height="30" stroke="#525252"/>
<path d="M120.986 106.402V106.227C120.986 104.742 121.396 103.549 122.217 102.646C123.041 101.744 124.213 101.293 125.732 101.293H125.855V102.248H125.732C124.615 102.248 123.732 102.562 123.084 103.191C122.436 103.82 122.111 104.812 122.111 106.168V106.461C122.111 107.469 122.295 108.182 122.662 108.6C123.029 109.018 123.492 109.227 124.051 109.227C124.609 109.227 125.041 109.057 125.346 108.717C125.654 108.377 125.809 107.898 125.809 107.281C125.809 106.664 125.654 106.188 125.346 105.852C125.041 105.516 124.609 105.348 124.051 105.348C123.531 105.348 123.072 105.516 122.674 105.852C122.275 106.188 122.076 106.664 122.076 107.281H121.654C121.654 106.418 121.895 105.721 122.375 105.189C122.855 104.658 123.494 104.393 124.291 104.393C125.092 104.393 125.734 104.658 126.219 105.189C126.707 105.721 126.951 106.418 126.951 107.281C126.951 108.141 126.678 108.838 126.131 109.373C125.584 109.908 124.891 110.176 124.051 110.176C123.211 110.176 122.49 109.879 121.889 109.285C121.287 108.691 120.986 107.73 120.986 106.402Z" fill="#262626"/>
</g>
<rect x="100.5" y="91.5" width="47" height="29" rx="7.5" stroke="#525252"/>
<g clip-path="url(#clip5_49_1173)">
<rect x="162" y="16" width="48" height="30" rx="8" fill="#F9F9F9"/>
<rect x="162" y="16" width="48" height="30" fill="#F9F9F9"/>
<rect x="162" y="16" width="48" height="30" stroke="#525252"/>
<path d="M182.193 35V27.7285L179.99 28.6367V27.5234L183.137 26.3516H183.342V35H182.193ZM186.465 35V34.1445L189.588 30.8809C189.994 30.4629 190.303 30.0898 190.514 29.7617C190.729 29.4297 190.836 29.0703 190.836 28.6836C190.836 28.2969 190.701 27.9609 190.432 27.6758C190.162 27.3906 189.787 27.248 189.307 27.248C188.826 27.248 188.422 27.4023 188.094 27.7109C187.766 28.0156 187.602 28.4375 187.602 28.9766V29.0352H186.459V28.9766C186.459 28.1953 186.73 27.5527 187.273 27.0488C187.82 26.5449 188.498 26.293 189.307 26.293C190.107 26.293 190.752 26.5254 191.24 26.9902C191.732 27.4551 191.979 28 191.979 28.625C191.979 29.1836 191.82 29.6895 191.504 30.1426C191.188 30.5918 190.799 31.0508 190.338 31.5195L187.906 34.0156H192.213V35H186.465Z" fill="#262626"/>
</g>
<rect x="162.5" y="16.5" width="47" height="29" rx="7.5" stroke="#059569"/>
<path d="M95.0033 155.082C95.0485 155.632 95.5313 156.042 96.0817 155.997L105.052 155.261C105.602 155.216 106.012 154.734 105.967 154.183C105.921 153.633 105.439 153.223 104.888 153.268L96.915 153.922L96.2614 145.948C96.2163 145.398 95.7335 144.988 95.1831 145.033C94.6326 145.079 94.223 145.561 94.2681 146.112L95.0033 155.082ZM123.237 121.353L95.2375 154.353L96.7625 155.647L124.763 122.647L123.237 121.353Z" fill="#737373"/>
<path d="M152.936 155.998C153.487 156.033 153.962 155.616 153.998 155.064L154.577 146.083C154.613 145.532 154.195 145.056 153.644 145.021C153.093 144.985 152.617 145.403 152.582 145.954L152.066 153.938L144.083 153.423C143.532 153.387 143.056 153.805 143.021 154.356C142.985 154.907 143.403 155.383 143.954 155.418L152.936 155.998ZM123.249 122.66L152.249 155.66L153.751 154.34L124.751 121.34L123.249 122.66Z" fill="#737373"/>
<path d="M123.018 88.8112C122.914 89.3535 123.269 89.8777 123.811 89.982L132.649 91.6816C133.192 91.7859 133.716 91.4308 133.82 90.8885C133.924 90.3461 133.569 89.8219 133.027 89.7176L125.171 88.2068L126.682 80.3508C126.786 79.8084 126.431 79.2842 125.888 79.1799C125.346 79.0756 124.822 79.4307 124.718 79.9731L123.018 88.8112ZM185.439 46.1721L123.439 88.1721L124.561 89.8279L186.561 47.8279L185.439 46.1721Z" fill="#737373"/>
<path d="M249.196 89.9806C249.738 89.8723 250.089 89.3454 249.981 88.8039L248.216 79.9787C248.107 79.4371 247.58 79.0859 247.039 79.1942C246.497 79.3025 246.146 79.8293 246.254 80.3709L247.823 88.2155L239.979 89.7845C239.437 89.8928 239.086 90.4196 239.194 90.9612C239.303 91.5027 239.829 91.8539 240.371 91.7456L249.196 89.9806ZM185.445 47.8321L248.445 89.832L249.555 88.1679L186.555 46.1679L185.445 47.8321Z" fill="#737373"/>
<path d="M102.193 138V130.729L99.9902 131.637V130.523L103.137 129.352H103.342V138H102.193Z" fill="#737373"/>
<path d="M142.621 135.24V132.229C142.621 131.35 142.867 130.641 143.359 130.102C143.855 129.562 144.543 129.293 145.422 129.293C146.293 129.293 146.979 129.562 147.479 130.102C147.979 130.641 148.229 131.35 148.229 132.229V135.24C148.229 136.123 147.979 136.834 147.479 137.373C146.979 137.908 146.293 138.176 145.422 138.176C144.543 138.176 143.855 137.908 143.359 137.373C142.867 136.834 142.621 136.123 142.621 135.24ZM143.781 135.299C143.781 135.857 143.914 136.318 144.18 136.682C144.449 137.041 144.863 137.221 145.422 137.221C145.98 137.221 146.395 137.041 146.664 136.682C146.934 136.318 147.068 135.857 147.068 135.299V132.17C147.068 131.611 146.934 131.152 146.664 130.793C146.395 130.43 145.98 130.248 145.422 130.248C144.863 130.248 144.449 130.43 144.18 130.793C143.914 131.152 143.781 131.611 143.781 132.17V135.299Z" fill="#737373"/>
<path d="M143.193 66V58.7285L140.99 59.6367V58.5234L144.137 57.3516H144.342V66H143.193Z" fill="#737373"/>
<path d="M220.621 62.2402V59.2285C220.621 58.3496 220.867 57.6406 221.359 57.1016C221.855 56.5625 222.543 56.293 223.422 56.293C224.293 56.293 224.979 56.5625 225.479 57.1016C225.979 57.6406 226.229 58.3496 226.229 59.2285V62.2402C226.229 63.123 225.979 63.834 225.479 64.373C224.979 64.9082 224.293 65.1758 223.422 65.1758C222.543 65.1758 221.855 64.9082 221.359 64.373C220.867 63.834 220.621 63.123 220.621 62.2402ZM221.781 62.2988C221.781 62.8574 221.914 63.3184 222.18 63.6816C222.449 64.041 222.863 64.2207 223.422 64.2207C223.98 64.2207 224.395 64.041 224.664 63.6816C224.934 63.3184 225.068 62.8574 225.068 62.2988V59.1699C225.068 58.6113 224.934 58.1523 224.664 57.793C224.395 57.4297 223.98 57.248 223.422 57.248C222.863 57.248 222.449 57.4297 222.18 57.793C221.914 58.1523 221.781 58.6113 221.781 59.1699V62.2988Z" fill="#737373"/>
<defs>
<clipPath id="clip0_49_1173">
<rect x="16" y="16" width="48" height="52" rx="8" fill="white"/>
</clipPath>
<clipPath id="clip1_49_1173">
<rect x="72" y="157" width="48" height="52" rx="8" fill="white"/>
</clipPath>
<clipPath id="clip2_49_1173">
<rect x="128" y="157" width="48" height="52" rx="8" fill="white"/>
</clipPath>
<clipPath id="clip3_49_1173">
<rect x="225" y="91" width="48" height="52" rx="8" fill="white"/>
</clipPath>
<clipPath id="clip4_49_1173">
<rect x="100" y="91" width="48" height="30" rx="8" fill="white"/>
</clipPath>
<clipPath id="clip5_49_1173">
<rect x="162" y="16" width="48" height="30" rx="8" fill="white"/>
</clipPath>
</defs>
</svg>
