<svg width="374" height="344" viewBox="0 0 374 344" fill="none" xmlns="http://www.w3.org/2000/svg">
<g clip-path="url(#clip0_94_978)">
<rect y="228" width="48" height="52" rx="8" fill="#F9F9F9"/>
<path d="M23.6934 243V235.729L21.4902 236.637V235.523L24.6367 234.352H24.8418V243H23.6934Z" fill="#525252"/>
<path d="M0 250H48V280H0V250Z" fill="#F9F9F9"/>
<path d="M0 250.5H48V249.5H0V250.5Z" fill="black"/>
<path d="M7.52734 266.656V266.586H8.67578V266.656C8.67578 267.168 8.85352 267.553 9.20898 267.811C9.56445 268.064 10.0605 268.191 10.6973 268.191C11.3379 268.191 11.8262 268.061 12.1621 267.799C12.502 267.533 12.6719 267.189 12.6719 266.768C12.6719 266.381 12.5117 266.072 12.1914 265.842C11.8711 265.607 11.2441 265.363 10.3105 265.109C9.35742 264.844 8.68359 264.531 8.28906 264.172C7.89844 263.809 7.70312 263.293 7.70312 262.625C7.70312 261.957 7.96289 261.402 8.48242 260.961C9.00195 260.516 9.7207 260.293 10.6387 260.293C11.5566 260.293 12.2871 260.529 12.8301 261.002C13.373 261.475 13.6445 262.066 13.6445 262.777V262.848H12.4961V262.777C12.4961 262.328 12.3398 261.967 12.0273 261.693C11.7188 261.416 11.2559 261.277 10.6387 261.277C10.0254 261.277 9.57227 261.396 9.2793 261.635C8.99023 261.869 8.8457 262.182 8.8457 262.572C8.8457 262.947 8.99414 263.242 9.29102 263.457C9.58789 263.672 10.1875 263.902 11.0898 264.148C12.0352 264.402 12.7246 264.725 13.1582 265.115C13.5957 265.506 13.8145 266.055 13.8145 266.762C13.8145 267.469 13.5332 268.049 12.9707 268.502C12.4121 268.951 11.6543 269.176 10.6973 269.176C9.74023 269.176 8.97266 268.951 8.39453 268.502C7.81641 268.049 7.52734 267.434 7.52734 266.656ZM15.1562 271.438V262.766H16.1641L16.2109 263.574H16.2461C16.4062 263.32 16.6523 263.104 16.9844 262.924C17.3203 262.74 17.7109 262.648 18.1562 262.648C18.957 262.648 19.5977 262.945 20.0781 263.539C20.5586 264.129 20.7988 264.879 20.7988 265.789V265.977C20.7988 266.883 20.5586 267.633 20.0781 268.227C19.5977 268.82 18.957 269.117 18.1562 269.117C17.7109 269.117 17.332 269.039 17.0195 268.883C16.707 268.727 16.457 268.52 16.2695 268.262V271.438H15.1562ZM16.2695 267.137C16.3945 267.41 16.5977 267.656 16.8789 267.875C17.1641 268.09 17.5078 268.197 17.9102 268.197C18.5156 268.197 18.959 267.984 19.2402 267.559C19.5215 267.129 19.6621 266.602 19.6621 265.977V265.789C19.6621 265.16 19.5215 264.633 19.2402 264.207C18.959 263.777 18.5156 263.562 17.9102 263.562C17.5078 263.562 17.1641 263.672 16.8789 263.891C16.5977 264.105 16.3945 264.352 16.2695 264.629V267.137ZM21.8242 267.166C21.8242 266.533 22.0781 266.041 22.5859 265.689C23.0977 265.334 23.748 265.156 24.5371 265.156H25.9785V264.711C25.9785 264.344 25.8789 264.047 25.6797 263.82C25.4805 263.59 25.1387 263.475 24.6543 263.475C24.1699 263.475 23.8223 263.572 23.6113 263.768C23.4043 263.963 23.3008 264.189 23.3008 264.447V264.477H22.1934V264.447C22.1934 263.951 22.418 263.518 22.8672 263.146C23.3164 262.775 23.9219 262.59 24.6836 262.59C25.4492 262.59 26.041 262.768 26.459 263.123C26.8809 263.479 27.0918 264.008 27.0918 264.711V267.594C27.0918 267.848 27.1113 268.088 27.1504 268.314C27.1895 268.537 27.2461 268.734 27.3203 268.906V269H26.2422C26.1836 268.902 26.1309 268.773 26.084 268.613C26.041 268.453 26.0137 268.295 26.002 268.139C25.8535 268.396 25.6113 268.625 25.2754 268.824C24.9434 269.02 24.5137 269.117 23.9863 269.117C23.3887 269.117 22.8789 268.949 22.457 268.613C22.0352 268.277 21.8242 267.795 21.8242 267.166ZM22.9375 267.107C22.9375 267.459 23.043 267.734 23.2539 267.934C23.4648 268.129 23.791 268.227 24.2324 268.227C24.6777 268.227 25.0801 268.078 25.4395 267.781C25.7988 267.484 25.9785 267.17 25.9785 266.838V265.953H24.6543C24.0918 265.953 23.6641 266.057 23.3711 266.264C23.082 266.471 22.9375 266.752 22.9375 267.107ZM28.4395 265.977V265.789C28.4395 264.848 28.6992 264.08 29.2188 263.486C29.7383 262.889 30.4551 262.59 31.3691 262.59C32.2129 262.59 32.8535 262.814 33.291 263.264C33.7285 263.709 33.9473 264.207 33.9473 264.758V264.787H32.8691V264.758C32.8691 264.43 32.75 264.139 32.5117 263.885C32.2734 263.631 31.8926 263.504 31.3691 263.504C30.7559 263.504 30.3027 263.725 30.0098 264.166C29.7207 264.607 29.5762 265.148 29.5762 265.789V265.977C29.5762 266.617 29.7207 267.158 30.0098 267.6C30.3027 268.041 30.7559 268.262 31.3691 268.262C31.8926 268.262 32.2734 268.135 32.5117 267.881C32.75 267.627 32.8691 267.334 32.8691 267.002V266.973H33.9473V267.002C33.9473 267.557 33.7285 268.059 33.291 268.508C32.8535 268.953 32.2129 269.176 31.3691 269.176C30.4551 269.176 29.7383 268.879 29.2188 268.285C28.6992 267.688 28.4395 266.918 28.4395 265.977ZM34.8613 265.977V265.789C34.8613 264.848 35.123 264.08 35.6465 263.486C36.1699 262.889 36.8633 262.59 37.7266 262.59C38.5898 262.59 39.2539 262.869 39.7188 263.428C40.1875 263.982 40.4219 264.734 40.4219 265.684V266.141H35.5469V265.256H39.2969V265.168C39.2969 264.699 39.1699 264.305 38.916 263.984C38.6621 263.664 38.2754 263.504 37.7559 263.504C37.1738 263.504 36.7344 263.725 36.4375 264.166C36.1445 264.607 35.998 265.148 35.998 265.789V265.977C35.998 266.617 36.1523 267.158 36.4609 267.6C36.7734 268.041 37.2559 268.262 37.9082 268.262C38.3105 268.262 38.6562 268.176 38.9453 268.004C39.2344 267.832 39.4688 267.629 39.6484 267.395L40.3691 267.975C40.1699 268.268 39.8594 268.541 39.4375 268.795C39.0195 269.049 38.5098 269.176 37.9082 269.176C36.9238 269.176 36.1699 268.879 35.6465 268.285C35.123 267.688 34.8613 266.918 34.8613 265.977Z" fill="#262626"/>
</g>
<rect x="0.5" y="228.5" width="47" height="51" rx="7.5" stroke="#525252"/>
<g clip-path="url(#clip1_94_978)">
<rect x="56" y="228" width="48" height="52" rx="8" fill="#F9F9F9"/>
<path d="M79.6934 243V235.729L77.4902 236.637V235.523L80.6367 234.352H80.8418V243H79.6934Z" fill="#525252"/>
<path d="M56 250H104V280H56V250Z" fill="#F9F9F9"/>
<path d="M56 250.5H104V249.5H56V250.5Z" fill="#525252"/>
<path d="M75.1465 262.766H76.2305L77.3848 266.832C77.4316 266.988 77.4707 267.125 77.502 267.242C77.5332 267.359 77.5625 267.496 77.5898 267.652H77.625C77.6523 267.496 77.6797 267.359 77.707 267.242C77.7383 267.125 77.7812 266.988 77.8359 266.832L79.2012 262.766H80.1562L81.5508 266.832C81.6055 266.988 81.6465 267.125 81.6738 267.242C81.7051 267.359 81.7344 267.496 81.7617 267.652H81.7969C81.8242 267.496 81.8516 267.359 81.8789 267.242C81.9102 267.125 81.9473 266.988 81.9902 266.832L83.1211 262.766H84.1406L82.2012 269H81.3105L79.9395 264.945C79.8887 264.789 79.8398 264.633 79.793 264.477C79.7461 264.32 79.7031 264.164 79.6641 264.008H79.6289C79.5898 264.164 79.5469 264.32 79.5 264.477C79.4531 264.633 79.4043 264.789 79.3535 264.945L77.9824 269H77.0859L75.1465 262.766Z" fill="#262626"/>
</g>
<rect x="56.5" y="228.5" width="47" height="51" rx="7.5" stroke="#525252"/>
<g clip-path="url(#clip2_94_978)">
<rect x="112" y="228" width="48" height="52" rx="8" fill="#F9F9F9"/>
<path d="M135.693 243V235.729L133.49 236.637V235.523L136.637 234.352H136.842V243H135.693Z" fill="#525252"/>
<path d="M112 250H160V280H112V250Z" fill="#F9F9F9"/>
<path d="M112 250.5H160V249.5H112V250.5Z" fill="#525252"/>
<path d="M134.367 269V262.766H135.375L135.422 263.568H135.457C135.617 263.307 135.828 263.078 136.09 262.883C136.355 262.688 136.67 262.59 137.033 262.59C137.119 262.59 137.209 262.6 137.303 262.619C137.4 262.639 137.469 262.656 137.508 262.672V263.709C137.43 263.693 137.346 263.682 137.256 263.674C137.17 263.666 137.074 263.662 136.969 263.662C136.605 263.662 136.297 263.756 136.043 263.943C135.789 264.131 135.602 264.361 135.48 264.635V269H134.367Z" fill="#262626"/>
</g>
<rect x="112.5" y="228.5" width="47" height="51" rx="7.5" stroke="#525252"/>
<g clip-path="url(#clip3_94_978)">
<rect x="168" y="228" width="48" height="52" rx="8" fill="#F9F9F9"/>
<path d="M191.693 243V235.729L189.49 236.637V235.523L192.637 234.352H192.842V243H191.693Z" fill="#525252"/>
<path d="M168 250H216V280H168V250Z" fill="#F9F9F9"/>
<path d="M168 250.5H216V249.5H168V250.5Z" fill="#525252"/>
<path d="M188.498 265.977V265.789C188.498 264.879 188.738 264.129 189.219 263.539C189.699 262.945 190.342 262.648 191.146 262.648C191.588 262.648 191.965 262.727 192.277 262.883C192.594 263.035 192.844 263.24 193.027 263.498V260H194.141V269H193.133L193.086 268.186H193.051C192.891 268.443 192.643 268.664 192.307 268.848C191.975 269.027 191.588 269.117 191.146 269.117C190.342 269.117 189.699 268.82 189.219 268.227C188.738 267.633 188.498 266.883 188.498 265.977ZM189.635 265.977C189.635 266.602 189.775 267.129 190.057 267.559C190.342 267.984 190.785 268.197 191.387 268.197C191.793 268.197 192.137 268.09 192.418 267.875C192.699 267.656 192.902 267.41 193.027 267.137V264.629C192.902 264.352 192.699 264.105 192.418 263.891C192.137 263.672 191.793 263.562 191.387 263.562C190.785 263.562 190.342 263.777 190.057 264.207C189.775 264.633 189.635 265.16 189.635 265.789V265.977Z" fill="#262626"/>
</g>
<rect x="168.5" y="228.5" width="47" height="51" rx="7.5" stroke="#525252"/>
<g clip-path="url(#clip4_94_978)">
<rect x="188" y="150" width="48" height="52" rx="8" fill="#F9F9F9"/>
<path d="M208.939 162.762V162.703H210.059V162.762C210.059 163.227 210.217 163.588 210.533 163.846C210.854 164.1 211.277 164.227 211.805 164.227C212.332 164.227 212.754 164.1 213.07 163.846C213.387 163.588 213.545 163.188 213.545 162.645C213.545 162.105 213.367 161.699 213.012 161.426C212.656 161.152 212.18 161.016 211.582 161.016H210.885V160.09H211.523C212.074 160.09 212.498 159.961 212.795 159.703C213.096 159.445 213.246 159.084 213.246 158.619C213.246 158.158 213.115 157.814 212.854 157.588C212.596 157.357 212.246 157.242 211.805 157.242C211.352 157.242 210.986 157.357 210.709 157.588C210.436 157.814 210.299 158.141 210.299 158.566V158.625H209.18V158.566C209.18 157.938 209.424 157.402 209.912 156.961C210.4 156.516 211.031 156.293 211.805 156.293C212.566 156.293 213.189 156.504 213.674 156.926C214.158 157.348 214.4 157.893 214.4 158.561C214.4 158.951 214.291 159.326 214.072 159.686C213.854 160.041 213.514 160.316 213.053 160.512V160.535C213.553 160.66 213.953 160.908 214.254 161.279C214.555 161.65 214.705 162.105 214.705 162.645C214.705 163.434 214.432 164.053 213.885 164.502C213.338 164.951 212.645 165.176 211.805 165.176C210.938 165.176 210.242 164.951 209.719 164.502C209.199 164.049 208.939 163.469 208.939 162.762Z" fill="#525252"/>
<path d="M188 172H236V202H188V172Z" fill="#F9F9F9"/>
<path d="M188 172.5H236V171.5H188V172.5Z" fill="#525252"/>
<path d="M211.414 191V182H212.527V191H211.414Z" fill="#262626"/>
</g>
<rect x="188.5" y="150.5" width="47" height="51" rx="7.5" stroke="#525252"/>
<g clip-path="url(#clip5_94_978)">
<rect x="224" y="228" width="48" height="52" rx="8" fill="#F9F9F9"/>
<path d="M245.121 243V242.145L248.244 238.881C248.65 238.463 248.959 238.09 249.17 237.762C249.385 237.43 249.492 237.07 249.492 236.684C249.492 236.297 249.357 235.961 249.088 235.676C248.818 235.391 248.443 235.248 247.963 235.248C247.482 235.248 247.078 235.402 246.75 235.711C246.422 236.016 246.258 236.438 246.258 236.977V237.035H245.115V236.977C245.115 236.195 245.387 235.553 245.93 235.049C246.477 234.545 247.154 234.293 247.963 234.293C248.764 234.293 249.408 234.525 249.896 234.99C250.389 235.455 250.635 236 250.635 236.625C250.635 237.184 250.477 237.689 250.16 238.143C249.844 238.592 249.455 239.051 248.994 239.52L246.562 242.016H250.869V243H245.121Z" fill="#525252"/>
<path d="M224 250H272V280H224V250Z" fill="#F9F9F9"/>
<path d="M224 250.5H272V249.5H224V250.5Z" fill="#525252"/>
<path d="M244.998 265.977V265.789C244.998 264.848 245.27 264.08 245.812 263.486C246.355 262.889 247.08 262.59 247.986 262.59C248.893 262.59 249.617 262.889 250.16 263.486C250.703 264.08 250.975 264.848 250.975 265.789V265.977C250.975 266.918 250.703 267.688 250.16 268.285C249.617 268.879 248.893 269.176 247.986 269.176C247.08 269.176 246.355 268.879 245.812 268.285C245.27 267.688 244.998 266.918 244.998 265.977ZM246.135 265.789V265.977C246.135 266.613 246.289 267.152 246.598 267.594C246.91 268.035 247.373 268.256 247.986 268.256C248.6 268.256 249.061 268.035 249.369 267.594C249.678 267.152 249.832 266.613 249.832 265.977V265.789C249.832 265.148 249.678 264.607 249.369 264.166C249.061 263.725 248.6 263.504 247.986 263.504C247.373 263.504 246.91 263.725 246.598 264.166C246.289 264.607 246.135 265.148 246.135 265.789Z" fill="#262626"/>
</g>
<rect x="224.5" y="228.5" width="47" height="51" rx="7.5" stroke="#525252"/>
<g clip-path="url(#clip6_94_978)">
<rect x="266" y="292" width="48" height="52" rx="8" fill="#F9F9F9"/>
<path d="M289.693 307V299.729L287.49 300.637V299.523L290.637 298.352H290.842V307H289.693Z" fill="#525252"/>
<path d="M266 314H314V344H266V314Z" fill="#F9F9F9"/>
<path d="M266 314.5H314V313.5H266V314.5Z" fill="#525252"/>
<path d="M287.367 333V324H288.48V327.545C288.707 327.271 288.99 327.055 289.33 326.895C289.67 326.73 290.045 326.648 290.455 326.648C291.061 326.648 291.553 326.83 291.932 327.193C292.314 327.553 292.506 328.158 292.506 329.01V333H291.387V328.998C291.387 328.494 291.271 328.133 291.041 327.914C290.814 327.695 290.492 327.586 290.074 327.586C289.715 327.586 289.398 327.682 289.125 327.873C288.852 328.064 288.637 328.311 288.48 328.611V333H287.367Z" fill="#262626"/>
</g>
<rect x="266.5" y="292.5" width="47" height="51" rx="7.5" stroke="#525252"/>
<g clip-path="url(#clip7_94_978)">
<rect x="326" y="292" width="48" height="52" rx="8" fill="#F9F9F9"/>
<path d="M349.693 307V299.729L347.49 300.637V299.523L350.637 298.352H350.842V307H349.693Z" fill="#525252"/>
<path d="M326 314H374V344H326V314Z" fill="#F9F9F9"/>
<path d="M326 314.5H374V313.5H326V314.5Z" fill="#525252"/>
<path d="M346.998 329.977V329.789C346.998 328.848 347.26 328.08 347.783 327.486C348.307 326.889 349 326.59 349.863 326.59C350.727 326.59 351.391 326.869 351.855 327.428C352.324 327.982 352.559 328.734 352.559 329.684V330.141H347.684V329.256H351.434V329.168C351.434 328.699 351.307 328.305 351.053 327.984C350.799 327.664 350.412 327.504 349.893 327.504C349.311 327.504 348.871 327.725 348.574 328.166C348.281 328.607 348.135 329.148 348.135 329.789V329.977C348.135 330.617 348.289 331.158 348.598 331.6C348.91 332.041 349.393 332.262 350.045 332.262C350.447 332.262 350.793 332.176 351.082 332.004C351.371 331.832 351.605 331.629 351.785 331.395L352.506 331.975C352.307 332.268 351.996 332.541 351.574 332.795C351.156 333.049 350.646 333.176 350.045 333.176C349.061 333.176 348.307 332.879 347.783 332.285C347.26 331.688 346.998 330.918 346.998 329.977Z" fill="#262626"/>
</g>
<rect x="326.5" y="292.5" width="47" height="51" rx="7.5" stroke="#525252"/>
<g clip-path="url(#clip8_94_978)">
<rect x="296" y="228" width="48" height="30" rx="8" fill="#F9F9F9"/>
<rect x="296" y="228" width="48" height="30" fill="#F9F9F9"/>
<rect x="296" y="228" width="48" height="30" stroke="#525252"/>
<path d="M317.121 247V246.145L320.244 242.881C320.65 242.463 320.959 242.09 321.17 241.762C321.385 241.43 321.492 241.07 321.492 240.684C321.492 240.297 321.357 239.961 321.088 239.676C320.818 239.391 320.443 239.248 319.963 239.248C319.482 239.248 319.078 239.402 318.75 239.711C318.422 240.016 318.258 240.438 318.258 240.977V241.035H317.115V240.977C317.115 240.195 317.387 239.553 317.93 239.049C318.477 238.545 319.154 238.293 319.963 238.293C320.764 238.293 321.408 238.525 321.896 238.99C322.389 239.455 322.635 240 322.635 240.625C322.635 241.184 322.477 241.689 322.16 242.143C321.844 242.592 321.455 243.051 320.994 243.52L318.562 246.016H322.869V247H317.121Z" fill="#262626"/>
</g>
<rect x="296.5" y="228.5" width="47" height="29" rx="7.5" stroke="#525252"/>
<g clip-path="url(#clip9_94_978)">
<rect x="244" y="150" width="48" height="30" rx="8" fill="#F9F9F9"/>
<rect width="48" height="30" transform="translate(244 150)" fill="#F9F9F9"/>
<path d="M268.801 169V166.668V166.363V162.238H268.73L266.088 166.053H269.088H269.545H271.098V167.002H264.775V166.229L268.836 160.469H269.885V169H268.801Z" fill="#262626"/>
</g>
<rect x="244.5" y="150.5" width="47" height="29" rx="7.5" stroke="#525252"/>
<g clip-path="url(#clip10_94_978)">
<rect x="56" y="150" width="48" height="30" rx="8" fill="#F9F9F9"/>
<rect width="48" height="30" transform="translate(56 150)" fill="#F9F9F9"/>
<path d="M77.1211 169V168.145L80.2441 164.881C80.6504 164.463 80.959 164.09 81.1699 163.762C81.3848 163.43 81.4922 163.07 81.4922 162.684C81.4922 162.297 81.3574 161.961 81.0879 161.676C80.8184 161.391 80.4434 161.248 79.9629 161.248C79.4824 161.248 79.0781 161.402 78.75 161.711C78.4219 162.016 78.2578 162.438 78.2578 162.977V163.035H77.1152V162.977C77.1152 162.195 77.3867 161.553 77.9297 161.049C78.4766 160.545 79.1543 160.293 79.9629 160.293C80.7637 160.293 81.4082 160.525 81.8965 160.99C82.3887 161.455 82.6348 162 82.6348 162.625C82.6348 163.184 82.4766 163.689 82.1602 164.143C81.8438 164.592 81.4551 165.051 80.9941 165.52L78.5625 168.016H82.8691V169H77.1211Z" fill="#262626"/>
</g>
<rect x="56.5" y="150.5" width="47" height="29" rx="7.5" stroke="#525252"/>
<g clip-path="url(#clip11_94_978)">
<rect x="112" y="150" width="48" height="30" rx="8" fill="#F9F9F9"/>
<rect width="48" height="30" transform="translate(112 150)" fill="#F9F9F9"/>
<path d="M133.121 169V168.145L136.244 164.881C136.65 164.463 136.959 164.09 137.17 163.762C137.385 163.43 137.492 163.07 137.492 162.684C137.492 162.297 137.357 161.961 137.088 161.676C136.818 161.391 136.443 161.248 135.963 161.248C135.482 161.248 135.078 161.402 134.75 161.711C134.422 162.016 134.258 162.438 134.258 162.977V163.035H133.115V162.977C133.115 162.195 133.387 161.553 133.93 161.049C134.477 160.545 135.154 160.293 135.963 160.293C136.764 160.293 137.408 160.525 137.896 160.99C138.389 161.455 138.635 162 138.635 162.625C138.635 163.184 138.477 163.689 138.16 164.143C137.844 164.592 137.455 165.051 136.994 165.52L134.562 168.016H138.869V169H133.121Z" fill="#262626"/>
</g>
<rect x="112.5" y="150.5" width="47" height="29" rx="7.5" stroke="#525252"/>
<g clip-path="url(#clip12_94_978)">
<rect x="112" y="72" width="48" height="30" rx="8" fill="#F9F9F9"/>
<rect width="48" height="30" transform="translate(112 72)" fill="#F9F9F9"/>
<path d="M136.801 91V88.668V88.3633V84.2383H136.73L134.088 88.0527H137.088H137.545H139.098V89.002H132.775V88.2285L136.836 82.4688H137.885V91H136.801Z" fill="#262626"/>
</g>
<rect x="112.5" y="72.5" width="47" height="29" rx="7.5" stroke="#525252"/>
<g clip-path="url(#clip13_94_978)">
<rect x="188" y="72" width="48" height="30" rx="8" fill="#F9F9F9"/>
<rect width="48" height="30" transform="translate(188 72)" fill="#F9F9F9"/>
<path d="M210.24 91L213.551 83.4414H208.939V82.4688H214.758V83.1133L211.418 91H210.24Z" fill="#262626"/>
</g>
<rect x="188.5" y="72.5" width="47" height="29" rx="7.5" stroke="#525252"/>
<g clip-path="url(#clip14_94_978)">
<rect x="151" width="48" height="30" rx="8" fill="#F9F9F9"/>
<rect width="48" height="30" transform="translate(151)" fill="#F9F9F9"/>
<path d="M171.193 19V11.7285L168.99 12.6367V11.5234L172.137 10.3516H172.342V19H171.193ZM178.037 19V11.7285L175.834 12.6367V11.5234L178.98 10.3516H179.186V19H178.037Z" fill="#262626"/>
</g>
<rect x="151.5" y="0.5" width="47" height="29" rx="7.5" stroke="#525252"/>
<path d="M137 69.0278C137.016 69.5798 137.476 70.015 138.028 69.9996L147.024 69.7497C147.576 69.7344 148.011 69.2744 147.996 68.7223C147.981 68.1703 147.521 67.7351 146.969 67.7505L138.972 67.9726L138.75 59.9757C138.734 59.4236 138.274 58.9885 137.722 59.0039C137.17 59.0192 136.735 59.4792 136.75 60.0312L137 69.0278ZM172.274 31.3128L137.274 68.3128L138.726 69.6872L173.726 32.6872L172.274 31.3128Z" fill="#737373"/>
<path d="M212.026 69.9997C212.578 69.9851 213.014 69.5258 213 68.9737L212.763 59.9768C212.748 59.4247 212.289 58.9889 211.737 59.0035C211.185 59.018 210.749 59.4773 210.764 60.0294L210.974 68.0267L202.977 68.2371C202.425 68.2516 201.989 68.711 202.003 69.2631C202.018 69.8152 202.477 70.2509 203.029 70.2364L212.026 69.9997ZM172.312 32.7255L211.312 69.7255L212.688 68.2745L173.688 31.2745L172.312 32.7255Z" fill="#737373"/>
<path d="M268.119 146.993C268.668 146.927 269.059 146.429 268.993 145.881L267.921 136.945C267.855 136.397 267.357 136.005 266.809 136.071C266.26 136.137 265.869 136.635 265.935 137.183L266.888 145.126L258.945 146.079C258.397 146.145 258.005 146.643 258.071 147.191C258.137 147.74 258.635 148.131 259.183 148.065L268.119 146.993ZM211.382 102.786L267.382 146.786L268.618 145.214L212.618 101.214L211.382 102.786Z" fill="#737373"/>
<path d="M211.293 146.707C211.683 147.098 212.317 147.098 212.707 146.707L219.071 140.343C219.462 139.953 219.462 139.319 219.071 138.929C218.681 138.538 218.047 138.538 217.657 138.929L212 144.586L206.343 138.929C205.953 138.538 205.319 138.538 204.929 138.929C204.538 139.319 204.538 139.953 204.929 140.343L211.293 146.707ZM211 102V146H213V102H211Z" fill="#737373"/>
<path d="M135.293 146.707C135.683 147.098 136.317 147.098 136.707 146.707L143.071 140.343C143.462 139.953 143.462 139.319 143.071 138.929C142.681 138.538 142.047 138.538 141.657 138.929L136 144.586L130.343 138.929C129.953 138.538 129.319 138.538 128.929 138.929C128.538 139.319 128.538 139.953 128.929 140.343L135.293 146.707ZM135 102V146H137V102H135Z" fill="#737373"/>
<path d="M79.2929 226.707C79.6834 227.098 80.3166 227.098 80.7071 226.707L87.0711 220.343C87.4616 219.953 87.4616 219.319 87.0711 218.929C86.6805 218.538 86.0474 218.538 85.6569 218.929L80 224.586L74.3431 218.929C73.9526 218.538 73.3195 218.538 72.9289 218.929C72.5384 219.319 72.5384 219.953 72.9289 220.343L79.2929 226.707ZM79 182V226H81V182H79Z" fill="#737373"/>
<path d="M135.293 226.707C135.683 227.098 136.317 227.098 136.707 226.707L143.071 220.343C143.462 219.953 143.462 219.319 143.071 218.929C142.681 218.538 142.047 218.538 141.657 218.929L136 224.586L130.343 218.929C129.953 218.538 129.319 218.538 128.929 218.929C128.538 219.319 128.538 219.953 128.929 220.343L135.293 226.707ZM135 182V226H137V182H135Z" fill="#737373"/>
<path d="M289 289C289 289.552 289.448 290 290 290L299 290C299.552 290 300 289.552 300 289C300 288.448 299.552 288 299 288L291 288L291 280C291 279.448 290.552 279 290 279C289.448 279 289 279.448 289 280L289 289ZM319.293 258.293L289.293 288.293L290.707 289.707L320.707 259.707L319.293 258.293Z" fill="#737373"/>
<path d="M350 290C350.552 290 351 289.552 351 289L351 280C351 279.448 350.552 279 350 279C349.448 279 349 279.448 349 280L349 288L341 288C340.448 288 340 288.448 340 289C340 289.552 340.448 290 341 290L350 290ZM319.293 259.707L349.293 289.707L350.707 288.293L320.707 258.293L319.293 259.707Z" fill="#737373"/>
<path d="M247.064 226.351C247.258 226.868 247.834 227.13 248.351 226.936L256.778 223.776C257.295 223.582 257.557 223.006 257.363 222.489C257.169 221.972 256.593 221.71 256.076 221.904L248.585 224.713L245.776 217.222C245.582 216.705 245.006 216.443 244.489 216.637C243.972 216.831 243.71 217.407 243.904 217.924L247.064 226.351ZM267.09 181.586L247.09 225.586L248.91 226.414L268.91 182.414L267.09 181.586Z" fill="#737373"/>
<path d="M320.106 224.994C320.655 224.936 321.053 224.443 320.994 223.894L320.042 214.945C319.984 214.396 319.491 213.998 318.942 214.056C318.393 214.115 317.995 214.607 318.054 215.156L318.9 223.111L310.945 223.958C310.396 224.016 309.998 224.509 310.056 225.058C310.115 225.607 310.607 226.005 311.156 225.946L320.106 224.994ZM267.372 182.778L319.372 224.778L320.628 223.222L268.628 181.222L267.372 182.778Z" fill="#737373"/>
<path d="M192.141 224.99C192.688 224.912 193.068 224.405 192.99 223.859L191.717 214.949C191.639 214.402 191.133 214.022 190.586 214.101C190.039 214.179 189.659 214.685 189.737 215.232L190.869 223.151L182.949 224.283C182.402 224.361 182.022 224.867 182.101 225.414C182.179 225.961 182.685 226.341 183.232 226.263L192.141 224.99ZM135.4 182.8L191.4 224.8L192.6 223.2L136.6 181.2L135.4 182.8Z" fill="#737373"/>
<path d="M23.01 223.859C22.9319 224.405 23.3118 224.912 23.8586 224.99L32.7681 226.263C33.3149 226.341 33.8214 225.961 33.8995 225.414C33.9776 224.867 33.5977 224.361 33.051 224.283L25.1314 223.151L26.2627 215.232C26.3408 214.685 25.9609 214.179 25.4142 214.101C24.8675 214.022 24.3609 214.402 24.2828 214.949L23.01 223.859ZM79.4 181.2L23.4 223.2L24.6 224.8L80.6 182.8L79.4 181.2Z" fill="#737373"/>
<path d="M79.0071 145.881C78.9413 146.429 79.3325 146.927 79.8809 146.993L88.8167 148.065C89.3651 148.131 89.863 147.74 89.9288 147.191C89.9946 146.643 89.6034 146.145 89.055 146.079L81.112 145.126L82.0652 137.183C82.131 136.635 81.7398 136.137 81.1915 136.071C80.6431 136.005 80.1452 136.397 80.0794 136.945L79.0071 145.881ZM135.382 101.214L79.3822 145.214L80.6178 146.786L136.618 102.786L135.382 101.214Z" fill="#737373"/>
<path d="M142.621 48.2402V45.2285C142.621 44.3496 142.867 43.6406 143.359 43.1016C143.855 42.5625 144.543 42.293 145.422 42.293C146.293 42.293 146.979 42.5625 147.479 43.1016C147.979 43.6406 148.229 44.3496 148.229 45.2285V48.2402C148.229 49.123 147.979 49.834 147.479 50.373C146.979 50.9082 146.293 51.1758 145.422 51.1758C144.543 51.1758 143.855 50.9082 143.359 50.373C142.867 49.834 142.621 49.123 142.621 48.2402ZM143.781 48.2988C143.781 48.8574 143.914 49.3184 144.18 49.6816C144.449 50.041 144.863 50.2207 145.422 50.2207C145.98 50.2207 146.395 50.041 146.664 49.6816C146.934 49.3184 147.068 48.8574 147.068 48.2988V45.1699C147.068 44.6113 146.934 44.1523 146.664 43.793C146.395 43.4297 145.98 43.248 145.422 43.248C144.863 43.248 144.449 43.4297 144.18 43.793C143.914 44.1523 143.781 44.6113 143.781 45.1699V48.2988Z" fill="#737373"/>
<path d="M204.193 51V43.7285L201.99 44.6367V43.5234L205.137 42.3516H205.342V51H204.193Z" fill="#737373"/>
<path d="M93.6211 118.24V115.229C93.6211 114.35 93.8672 113.641 94.3594 113.102C94.8555 112.562 95.543 112.293 96.4219 112.293C97.293 112.293 97.9785 112.562 98.4785 113.102C98.9785 113.641 99.2285 114.35 99.2285 115.229V118.24C99.2285 119.123 98.9785 119.834 98.4785 120.373C97.9785 120.908 97.293 121.176 96.4219 121.176C95.543 121.176 94.8555 120.908 94.3594 120.373C93.8672 119.834 93.6211 119.123 93.6211 118.24ZM94.7812 118.299C94.7812 118.857 94.9141 119.318 95.1797 119.682C95.4492 120.041 95.8633 120.221 96.4219 120.221C96.9805 120.221 97.3945 120.041 97.6641 119.682C97.9336 119.318 98.0684 118.857 98.0684 118.299V115.17C98.0684 114.611 97.9336 114.152 97.6641 113.793C97.3945 113.43 96.9805 113.248 96.4219 113.248C95.8633 113.248 95.4492 113.43 95.1797 113.793C94.9141 114.152 94.7812 114.611 94.7812 115.17V118.299Z" fill="#737373"/>
<path d="M142.193 121V113.729L139.99 114.637V113.523L143.137 112.352H143.342V121H142.193Z" fill="#737373"/>
<path d="M201.621 118.24V115.229C201.621 114.35 201.867 113.641 202.359 113.102C202.855 112.562 203.543 112.293 204.422 112.293C205.293 112.293 205.979 112.562 206.479 113.102C206.979 113.641 207.229 114.35 207.229 115.229V118.24C207.229 119.123 206.979 119.834 206.479 120.373C205.979 120.908 205.293 121.176 204.422 121.176C203.543 121.176 202.855 120.908 202.359 120.373C201.867 119.834 201.621 119.123 201.621 118.24ZM202.781 118.299C202.781 118.857 202.914 119.318 203.18 119.682C203.449 120.041 203.863 120.221 204.422 120.221C204.98 120.221 205.395 120.041 205.664 119.682C205.934 119.318 206.068 118.857 206.068 118.299V115.17C206.068 114.611 205.934 114.152 205.664 113.793C205.395 113.43 204.98 113.248 204.422 113.248C203.863 113.248 203.449 113.43 203.18 113.793C202.914 114.152 202.781 114.611 202.781 115.17V118.299Z" fill="#737373"/>
<path d="M247.193 121V113.729L244.99 114.637V113.523L248.137 112.352H248.342V121H247.193Z" fill="#737373"/>
<path d="M87.1934 207V199.729L84.9902 200.637V199.523L88.1367 198.352H88.3418V207H87.1934Z" fill="#737373"/>
<path d="M34.6211 204.24V201.229C34.6211 200.35 34.8672 199.641 35.3594 199.102C35.8555 198.562 36.543 198.293 37.4219 198.293C38.293 198.293 38.9785 198.562 39.4785 199.102C39.9785 199.641 40.2285 200.35 40.2285 201.229V204.24C40.2285 205.123 39.9785 205.834 39.4785 206.373C38.9785 206.908 38.293 207.176 37.4219 207.176C36.543 207.176 35.8555 206.908 35.3594 206.373C34.8672 205.834 34.6211 205.123 34.6211 204.24ZM35.7812 204.299C35.7812 204.857 35.9141 205.318 36.1797 205.682C36.4492 206.041 36.8633 206.221 37.4219 206.221C37.9805 206.221 38.3945 206.041 38.6641 205.682C38.9336 205.318 39.0684 204.857 39.0684 204.299V201.17C39.0684 200.611 38.9336 200.152 38.6641 199.793C38.3945 199.43 37.9805 199.248 37.4219 199.248C36.8633 199.248 36.4492 199.43 36.1797 199.793C35.9141 200.152 35.7812 200.611 35.7812 201.17V204.299Z" fill="#737373"/>
<path d="M125.621 204.24V201.229C125.621 200.35 125.867 199.641 126.359 199.102C126.855 198.562 127.543 198.293 128.422 198.293C129.293 198.293 129.979 198.562 130.479 199.102C130.979 199.641 131.229 200.35 131.229 201.229V204.24C131.229 205.123 130.979 205.834 130.479 206.373C129.979 206.908 129.293 207.176 128.422 207.176C127.543 207.176 126.855 206.908 126.359 206.373C125.867 205.834 125.621 205.123 125.621 204.24ZM126.781 204.299C126.781 204.857 126.914 205.318 127.18 205.682C127.449 206.041 127.863 206.221 128.422 206.221C128.98 206.221 129.395 206.041 129.664 205.682C129.934 205.318 130.068 204.857 130.068 204.299V201.17C130.068 200.611 129.934 200.152 129.664 199.793C129.395 199.43 128.98 199.248 128.422 199.248C127.863 199.248 127.449 199.43 127.18 199.793C126.914 200.152 126.781 200.611 126.781 201.17V204.299Z" fill="#737373"/>
<path d="M248.621 204.24V201.229C248.621 200.35 248.867 199.641 249.359 199.102C249.855 198.562 250.543 198.293 251.422 198.293C252.293 198.293 252.979 198.562 253.479 199.102C253.979 199.641 254.229 200.35 254.229 201.229V204.24C254.229 205.123 253.979 205.834 253.479 206.373C252.979 206.908 252.293 207.176 251.422 207.176C250.543 207.176 249.855 206.908 249.359 206.373C248.867 205.834 248.621 205.123 248.621 204.24ZM249.781 204.299C249.781 204.857 249.914 205.318 250.18 205.682C250.449 206.041 250.863 206.221 251.422 206.221C251.98 206.221 252.395 206.041 252.664 205.682C252.934 205.318 253.068 204.857 253.068 204.299V201.17C253.068 200.611 252.934 200.152 252.664 199.793C252.395 199.43 251.98 199.248 251.422 199.248C250.863 199.248 250.449 199.43 250.18 199.793C249.914 200.152 249.781 200.611 249.781 201.17V204.299Z" fill="#737373"/>
<path d="M300.193 200V192.729L297.99 193.637V192.523L301.137 191.352H301.342V200H300.193Z" fill="#737373"/>
<path d="M293.621 271.24V268.229C293.621 267.35 293.867 266.641 294.359 266.102C294.855 265.562 295.543 265.293 296.422 265.293C297.293 265.293 297.979 265.562 298.479 266.102C298.979 266.641 299.229 267.35 299.229 268.229V271.24C299.229 272.123 298.979 272.834 298.479 273.373C297.979 273.908 297.293 274.176 296.422 274.176C295.543 274.176 294.855 273.908 294.359 273.373C293.867 272.834 293.621 272.123 293.621 271.24ZM294.781 271.299C294.781 271.857 294.914 272.318 295.18 272.682C295.449 273.041 295.863 273.221 296.422 273.221C296.98 273.221 297.395 273.041 297.664 272.682C297.934 272.318 298.068 271.857 298.068 271.299V268.17C298.068 267.611 297.934 267.152 297.664 266.793C297.395 266.43 296.98 266.248 296.422 266.248C295.863 266.248 295.449 266.43 295.18 266.793C294.914 267.152 294.781 267.611 294.781 268.17V271.299Z" fill="#737373"/>
<path d="M343.193 274V266.729L340.99 267.637V266.523L344.137 265.352H344.342V274H343.193Z" fill="#737373"/>
<path d="M169.193 201V193.729L166.99 194.637V193.523L170.137 192.352H170.342V201H169.193Z" fill="#737373"/>
<defs>
<clipPath id="clip0_94_978">
<rect y="228" width="48" height="52" rx="8" fill="white"/>
</clipPath>
<clipPath id="clip1_94_978">
<rect x="56" y="228" width="48" height="52" rx="8" fill="white"/>
</clipPath>
<clipPath id="clip2_94_978">
<rect x="112" y="228" width="48" height="52" rx="8" fill="white"/>
</clipPath>
<clipPath id="clip3_94_978">
<rect x="168" y="228" width="48" height="52" rx="8" fill="white"/>
</clipPath>
<clipPath id="clip4_94_978">
<rect x="188" y="150" width="48" height="52" rx="8" fill="white"/>
</clipPath>
<clipPath id="clip5_94_978">
<rect x="224" y="228" width="48" height="52" rx="8" fill="white"/>
</clipPath>
<clipPath id="clip6_94_978">
<rect x="266" y="292" width="48" height="52" rx="8" fill="white"/>
</clipPath>
<clipPath id="clip7_94_978">
<rect x="326" y="292" width="48" height="52" rx="8" fill="white"/>
</clipPath>
<clipPath id="clip8_94_978">
<rect x="296" y="228" width="48" height="30" rx="8" fill="white"/>
</clipPath>
<clipPath id="clip9_94_978">
<rect x="244" y="150" width="48" height="30" rx="8" fill="white"/>
</clipPath>
<clipPath id="clip10_94_978">
<rect x="56" y="150" width="48" height="30" rx="8" fill="white"/>
</clipPath>
<clipPath id="clip11_94_978">
<rect x="112" y="150" width="48" height="30" rx="8" fill="white"/>
</clipPath>
<clipPath id="clip12_94_978">
<rect x="112" y="72" width="48" height="30" rx="8" fill="white"/>
</clipPath>
<clipPath id="clip13_94_978">
<rect x="188" y="72" width="48" height="30" rx="8" fill="white"/>
</clipPath>
<clipPath id="clip14_94_978">
<rect x="151" width="48" height="30" rx="8" fill="white"/>
</clipPath>
</defs>
</svg>
