<svg width="248" height="84" viewBox="0 0 248 84" fill="none" xmlns="http://www.w3.org/2000/svg">
<g clip-path="url(#clip0_49_1171)">
<rect x="16" y="16" width="48" height="52" rx="8" fill="#F9F9F9"/>
<path d="M36.1934 31V23.7285L33.9902 24.6367V23.5234L37.1367 22.3516H37.3418V31H36.1934ZM40.4648 31V30.1445L43.5879 26.8809C43.9941 26.4629 44.3027 26.0898 44.5137 25.7617C44.7285 25.4297 44.8359 25.0703 44.8359 24.6836C44.8359 24.2969 44.7012 23.9609 44.4316 23.6758C44.1621 23.3906 43.7871 23.248 43.3066 23.248C42.8262 23.248 42.4219 23.4023 42.0938 23.7109C41.7656 24.0156 41.6016 24.4375 41.6016 24.9766V25.0352H40.459V24.9766C40.459 24.1953 40.7305 23.5527 41.2734 23.0488C41.8203 22.5449 42.498 22.293 43.3066 22.293C44.1074 22.293 44.752 22.5254 45.2402 22.9902C45.7324 23.4551 45.9785 24 45.9785 24.625C45.9785 25.1836 45.8203 25.6895 45.5039 26.1426C45.1875 26.5918 44.7988 27.0508 44.3379 27.5195L41.9062 30.0156H46.2129V31H40.4648Z" fill="#525252"/>
<path d="M16 38H64V68H16V38Z" fill="#F9F9F9"/>
<path d="M16 38.5H64V37.5H16V38.5Z" fill="#525252"/>
<path d="M37.0273 55.166C37.0273 54.5332 37.2812 54.041 37.7891 53.6895C38.3008 53.334 38.9512 53.1562 39.7402 53.1562H41.1816V52.7109C41.1816 52.3438 41.082 52.0469 40.8828 51.8203C40.6836 51.5898 40.3418 51.4746 39.8574 51.4746C39.373 51.4746 39.0254 51.5723 38.8145 51.7676C38.6074 51.9629 38.5039 52.1895 38.5039 52.4473V52.4766H37.3965V52.4473C37.3965 51.9512 37.6211 51.5176 38.0703 51.1465C38.5195 50.7754 39.125 50.5898 39.8867 50.5898C40.6523 50.5898 41.2441 50.7676 41.6621 51.123C42.084 51.4785 42.2949 52.0078 42.2949 52.7109V55.5938C42.2949 55.8477 42.3145 56.0879 42.3535 56.3145C42.3926 56.5371 42.4492 56.7344 42.5234 56.9062V57H41.4453C41.3867 56.9023 41.334 56.7734 41.2871 56.6133C41.2441 56.4531 41.2168 56.2949 41.2051 56.1387C41.0566 56.3965 40.8145 56.625 40.4785 56.8242C40.1465 57.0195 39.7168 57.1172 39.1895 57.1172C38.5918 57.1172 38.082 56.9492 37.6602 56.6133C37.2383 56.2773 37.0273 55.7949 37.0273 55.166ZM38.1406 55.1074C38.1406 55.459 38.2461 55.7344 38.457 55.9336C38.668 56.1289 38.9941 56.2266 39.4355 56.2266C39.8809 56.2266 40.2832 56.0781 40.6426 55.7812C41.002 55.4844 41.1816 55.1699 41.1816 54.8379V53.9531H39.8574C39.2949 53.9531 38.8672 54.0566 38.5742 54.2637C38.2852 54.4707 38.1406 54.752 38.1406 55.1074Z" fill="#262626"/>
</g>
<rect x="16.5" y="16.5" width="47" height="51" rx="7.5" stroke="#525252"/>
<g clip-path="url(#clip1_49_1171)">
<rect x="72" y="16" width="48" height="52" rx="8" fill="#F9F9F9"/>
<path d="M96.8008 31V28.668V28.3633V24.2383H96.7305L94.0879 28.0527H97.0879H97.5449H99.0977V29.002H92.7754V28.2285L96.8359 22.4688H97.8848V31H96.8008Z" fill="#525252"/>
<path d="M72 38H120V68H72V38Z" fill="#F9F9F9"/>
<path d="M72 38.5H120V37.5H72V38.5Z" fill="#525252"/>
<path d="M92.8672 57V48H93.9805V51.498C94.168 51.2402 94.418 51.0352 94.7305 50.8828C95.043 50.7266 95.4219 50.6484 95.8672 50.6484C96.668 50.6484 97.3086 50.9453 97.7891 51.5391C98.2695 52.1289 98.5098 52.8789 98.5098 53.7891V53.9766C98.5098 54.8828 98.2695 55.6328 97.7891 56.2266C97.3086 56.8203 96.668 57.1172 95.8672 57.1172C95.4219 57.1172 95.0312 57.0273 94.6953 56.8477C94.3633 56.6641 94.1172 56.4434 93.957 56.1855H93.9219L93.875 57H92.8672ZM93.9805 55.1367C94.1055 55.4102 94.3086 55.6562 94.5898 55.875C94.875 56.0898 95.2188 56.1973 95.6211 56.1973C96.2266 56.1973 96.6699 55.9844 96.9512 55.5586C97.2324 55.1289 97.373 54.6016 97.373 53.9766V53.7891C97.373 53.1602 97.2324 52.6328 96.9512 52.207C96.6699 51.7773 96.2266 51.5625 95.6211 51.5625C95.2188 51.5625 94.875 51.6719 94.5898 51.8906C94.3086 52.1055 94.1055 52.3516 93.9805 52.6289V55.1367Z" fill="#262626"/>
</g>
<rect x="72.5" y="16.5" width="47" height="51" rx="7.5" stroke="#059569"/>
<g clip-path="url(#clip2_49_1171)">
<rect x="128" y="16" width="48" height="52" rx="8" fill="#F9F9F9"/>
<path d="M149.121 31V30.1445L152.244 26.8809C152.65 26.4629 152.959 26.0898 153.17 25.7617C153.385 25.4297 153.492 25.0703 153.492 24.6836C153.492 24.2969 153.357 23.9609 153.088 23.6758C152.818 23.3906 152.443 23.248 151.963 23.248C151.482 23.248 151.078 23.4023 150.75 23.7109C150.422 24.0156 150.258 24.4375 150.258 24.9766V25.0352H149.115V24.9766C149.115 24.1953 149.387 23.5527 149.93 23.0488C150.477 22.5449 151.154 22.293 151.963 22.293C152.764 22.293 153.408 22.5254 153.896 22.9902C154.389 23.4551 154.635 24 154.635 24.625C154.635 25.1836 154.477 25.6895 154.16 26.1426C153.844 26.5918 153.455 27.0508 152.994 27.5195L150.562 30.0156H154.869V31H149.121Z" fill="#525252"/>
<path d="M128 38H176V68H128V38Z" fill="#F9F9F9"/>
<path d="M128 38.5H176V37.5H128V38.5Z" fill="#525252"/>
<path d="M148.998 53.9766V53.7891C148.998 52.8477 149.258 52.0801 149.777 51.4863C150.297 50.8887 151.014 50.5898 151.928 50.5898C152.771 50.5898 153.412 50.8145 153.85 51.2637C154.287 51.709 154.506 52.207 154.506 52.7578V52.7871H153.428V52.7578C153.428 52.4297 153.309 52.1387 153.07 51.8848C152.832 51.6309 152.451 51.5039 151.928 51.5039C151.314 51.5039 150.861 51.7246 150.568 52.166C150.279 52.6074 150.135 53.1484 150.135 53.7891V53.9766C150.135 54.6172 150.279 55.1582 150.568 55.5996C150.861 56.041 151.314 56.2617 151.928 56.2617C152.451 56.2617 152.832 56.1348 153.07 55.8809C153.309 55.627 153.428 55.334 153.428 55.002V54.9727H154.506V55.002C154.506 55.5566 154.287 56.0586 153.85 56.5078C153.412 56.9531 152.771 57.1758 151.928 57.1758C151.014 57.1758 150.297 56.8789 149.777 56.2852C149.258 55.6875 148.998 54.918 148.998 53.9766Z" fill="#262626"/>
</g>
<rect x="128.5" y="16.5" width="47" height="51" rx="7.5" stroke="#059569"/>
<g clip-path="url(#clip3_49_1171)">
<rect x="184" y="16" width="48" height="52" rx="8" fill="#F9F9F9"/>
<path d="M204.986 27.4023V27.2266C204.986 25.7422 205.396 24.5488 206.217 23.6465C207.041 22.7441 208.213 22.293 209.732 22.293H209.855V23.248H209.732C208.615 23.248 207.732 23.5625 207.084 24.1914C206.436 24.8203 206.111 25.8125 206.111 27.168V27.4609C206.111 28.4688 206.295 29.1816 206.662 29.5996C207.029 30.0176 207.492 30.2266 208.051 30.2266C208.609 30.2266 209.041 30.0566 209.346 29.7168C209.654 29.377 209.809 28.8984 209.809 28.2812C209.809 27.6641 209.654 27.1875 209.346 26.8516C209.041 26.5156 208.609 26.3477 208.051 26.3477C207.531 26.3477 207.072 26.5156 206.674 26.8516C206.275 27.1875 206.076 27.6641 206.076 28.2812H205.654C205.654 27.418 205.895 26.7207 206.375 26.1895C206.855 25.6582 207.494 25.3926 208.291 25.3926C209.092 25.3926 209.734 25.6582 210.219 26.1895C210.707 26.7207 210.951 27.418 210.951 28.2812C210.951 29.1406 210.678 29.8379 210.131 30.373C209.584 30.9082 208.891 31.1758 208.051 31.1758C207.211 31.1758 206.49 30.8789 205.889 30.2852C205.287 29.6914 204.986 28.7305 204.986 27.4023Z" fill="#525252"/>
<path d="M184 38H232V68H184V38Z" fill="#F9F9F9"/>
<path d="M184 38.5H232V37.5H184V38.5Z" fill="#525252"/>
<path d="M205.367 57V50.7656H206.375L206.422 51.5742H206.457C206.688 51.2812 206.969 51.0547 207.301 50.8945C207.633 50.7305 208.002 50.6484 208.408 50.6484C209.045 50.6484 209.553 50.8301 209.932 51.1934C210.314 51.5527 210.506 52.1582 210.506 53.0098V57H209.387V52.998C209.387 52.4941 209.271 52.1328 209.041 51.9141C208.814 51.6953 208.492 51.5859 208.074 51.5859C207.715 51.5859 207.398 51.6816 207.125 51.873C206.852 52.0645 206.637 52.3105 206.48 52.6113V57H205.367Z" fill="#262626"/>
</g>
<rect x="184.5" y="16.5" width="47" height="51" rx="7.5" stroke="#525252"/>
<defs>
<clipPath id="clip0_49_1171">
<rect x="16" y="16" width="48" height="52" rx="8" fill="white"/>
</clipPath>
<clipPath id="clip1_49_1171">
<rect x="72" y="16" width="48" height="52" rx="8" fill="white"/>
</clipPath>
<clipPath id="clip2_49_1171">
<rect x="128" y="16" width="48" height="52" rx="8" fill="white"/>
</clipPath>
<clipPath id="clip3_49_1171">
<rect x="184" y="16" width="48" height="52" rx="8" fill="white"/>
</clipPath>
</defs>
</svg>
