<svg width="289" height="311" viewBox="0 0 289 311" fill="none" xmlns="http://www.w3.org/2000/svg">
<g clip-path="url(#clip0_49_1174)">
<rect x="16" y="102" width="48" height="52" rx="8" fill="#F9F9F9"/>
<path d="M36.1934 117V109.729L33.9902 110.637V109.523L37.1367 108.352H37.3418V117H36.1934ZM40.4648 117V116.145L43.5879 112.881C43.9941 112.463 44.3027 112.09 44.5137 111.762C44.7285 111.43 44.8359 111.07 44.8359 110.684C44.8359 110.297 44.7012 109.961 44.4316 109.676C44.1621 109.391 43.7871 109.248 43.3066 109.248C42.8262 109.248 42.4219 109.402 42.0938 109.711C41.7656 110.016 41.6016 110.438 41.6016 110.977V111.035H40.459V110.977C40.459 110.195 40.7305 109.553 41.2734 109.049C41.8203 108.545 42.498 108.293 43.3066 108.293C44.1074 108.293 44.752 108.525 45.2402 108.99C45.7324 109.455 45.9785 110 45.9785 110.625C45.9785 111.184 45.8203 111.689 45.5039 112.143C45.1875 112.592 44.7988 113.051 44.3379 113.52L41.9062 116.016H46.2129V117H40.4648Z" fill="#525252"/>
<path d="M16 124H64V154H16V124Z" fill="#F9F9F9"/>
<path d="M16 124.5H64V123.5H16V124.5Z" fill="#525252"/>
<path d="M37.0273 141.166C37.0273 140.533 37.2812 140.041 37.7891 139.689C38.3008 139.334 38.9512 139.156 39.7402 139.156H41.1816V138.711C41.1816 138.344 41.082 138.047 40.8828 137.82C40.6836 137.59 40.3418 137.475 39.8574 137.475C39.373 137.475 39.0254 137.572 38.8145 137.768C38.6074 137.963 38.5039 138.189 38.5039 138.447V138.477H37.3965V138.447C37.3965 137.951 37.6211 137.518 38.0703 137.146C38.5195 136.775 39.125 136.59 39.8867 136.59C40.6523 136.59 41.2441 136.768 41.6621 137.123C42.084 137.479 42.2949 138.008 42.2949 138.711V141.594C42.2949 141.848 42.3145 142.088 42.3535 142.314C42.3926 142.537 42.4492 142.734 42.5234 142.906V143H41.4453C41.3867 142.902 41.334 142.773 41.2871 142.613C41.2441 142.453 41.2168 142.295 41.2051 142.139C41.0566 142.396 40.8145 142.625 40.4785 142.824C40.1465 143.02 39.7168 143.117 39.1895 143.117C38.5918 143.117 38.082 142.949 37.6602 142.613C37.2383 142.277 37.0273 141.795 37.0273 141.166ZM38.1406 141.107C38.1406 141.459 38.2461 141.734 38.457 141.934C38.668 142.129 38.9941 142.227 39.4355 142.227C39.8809 142.227 40.2832 142.078 40.6426 141.781C41.002 141.484 41.1816 141.17 41.1816 140.838V139.953H39.8574C39.2949 139.953 38.8672 140.057 38.5742 140.264C38.2852 140.471 38.1406 140.752 38.1406 141.107Z" fill="#262626"/>
</g>
<rect x="16.5" y="102.5" width="47" height="51" rx="7.5" stroke="#525252"/>
<g clip-path="url(#clip1_49_1174)">
<rect x="72" y="243" width="48" height="52" rx="8" fill="#F9F9F9"/>
<path d="M96.8008 258V255.668V255.363V251.238H96.7305L94.0879 255.053H97.0879H97.5449H99.0977V256.002H92.7754V255.229L96.8359 249.469H97.8848V258H96.8008Z" fill="#525252"/>
<path d="M72 265H120V295H72V265Z" fill="#F9F9F9"/>
<path d="M72 265.5H120V264.5H72V265.5Z" fill="#525252"/>
<path d="M92.8672 284V275H93.9805V278.498C94.168 278.24 94.418 278.035 94.7305 277.883C95.043 277.727 95.4219 277.648 95.8672 277.648C96.668 277.648 97.3086 277.945 97.7891 278.539C98.2695 279.129 98.5098 279.879 98.5098 280.789V280.977C98.5098 281.883 98.2695 282.633 97.7891 283.227C97.3086 283.82 96.668 284.117 95.8672 284.117C95.4219 284.117 95.0312 284.027 94.6953 283.848C94.3633 283.664 94.1172 283.443 93.957 283.186H93.9219L93.875 284H92.8672ZM93.9805 282.137C94.1055 282.41 94.3086 282.656 94.5898 282.875C94.875 283.09 95.2188 283.197 95.6211 283.197C96.2266 283.197 96.6699 282.984 96.9512 282.559C97.2324 282.129 97.373 281.602 97.373 280.977V280.789C97.373 280.16 97.2324 279.633 96.9512 279.207C96.6699 278.777 96.2266 278.562 95.6211 278.562C95.2188 278.562 94.875 278.672 94.5898 278.891C94.3086 279.105 94.1055 279.352 93.9805 279.629V282.137Z" fill="#262626"/>
</g>
<rect x="72.5" y="243.5" width="47" height="51" rx="7.5" stroke="#525252"/>
<g clip-path="url(#clip2_49_1174)">
<rect x="128" y="243" width="48" height="52" rx="8" fill="#F9F9F9"/>
<path d="M149.121 258V257.145L152.244 253.881C152.65 253.463 152.959 253.09 153.17 252.762C153.385 252.43 153.492 252.07 153.492 251.684C153.492 251.297 153.357 250.961 153.088 250.676C152.818 250.391 152.443 250.248 151.963 250.248C151.482 250.248 151.078 250.402 150.75 250.711C150.422 251.016 150.258 251.438 150.258 251.977V252.035H149.115V251.977C149.115 251.195 149.387 250.553 149.93 250.049C150.477 249.545 151.154 249.293 151.963 249.293C152.764 249.293 153.408 249.525 153.896 249.99C154.389 250.455 154.635 251 154.635 251.625C154.635 252.184 154.477 252.689 154.16 253.143C153.844 253.592 153.455 254.051 152.994 254.52L150.562 257.016H154.869V258H149.121Z" fill="#525252"/>
<path d="M128 265H176V295H128V265Z" fill="#F9F9F9"/>
<path d="M128 265.5H176V264.5H128V265.5Z" fill="#525252"/>
<path d="M148.998 280.977V280.789C148.998 279.848 149.258 279.08 149.777 278.486C150.297 277.889 151.014 277.59 151.928 277.59C152.771 277.59 153.412 277.814 153.85 278.264C154.287 278.709 154.506 279.207 154.506 279.758V279.787H153.428V279.758C153.428 279.43 153.309 279.139 153.07 278.885C152.832 278.631 152.451 278.504 151.928 278.504C151.314 278.504 150.861 278.725 150.568 279.166C150.279 279.607 150.135 280.148 150.135 280.789V280.977C150.135 281.617 150.279 282.158 150.568 282.6C150.861 283.041 151.314 283.262 151.928 283.262C152.451 283.262 152.832 283.135 153.07 282.881C153.309 282.627 153.428 282.334 153.428 282.002V281.973H154.506V282.002C154.506 282.557 154.287 283.059 153.85 283.508C153.412 283.953 152.771 284.176 151.928 284.176C151.014 284.176 150.297 283.879 149.777 283.285C149.258 282.688 148.998 281.918 148.998 280.977Z" fill="#262626"/>
</g>
<rect x="128.5" y="243.5" width="47" height="51" rx="7.5" stroke="#525252"/>
<g clip-path="url(#clip3_49_1174)">
<rect x="225" y="177" width="48" height="52" rx="8" fill="#F9F9F9"/>
<path d="M245.986 188.402V188.227C245.986 186.742 246.396 185.549 247.217 184.646C248.041 183.744 249.213 183.293 250.732 183.293H250.855V184.248H250.732C249.615 184.248 248.732 184.562 248.084 185.191C247.436 185.82 247.111 186.812 247.111 188.168V188.461C247.111 189.469 247.295 190.182 247.662 190.6C248.029 191.018 248.492 191.227 249.051 191.227C249.609 191.227 250.041 191.057 250.346 190.717C250.654 190.377 250.809 189.898 250.809 189.281C250.809 188.664 250.654 188.188 250.346 187.852C250.041 187.516 249.609 187.348 249.051 187.348C248.531 187.348 248.072 187.516 247.674 187.852C247.275 188.188 247.076 188.664 247.076 189.281H246.654C246.654 188.418 246.895 187.721 247.375 187.189C247.855 186.658 248.494 186.393 249.291 186.393C250.092 186.393 250.734 186.658 251.219 187.189C251.707 187.721 251.951 188.418 251.951 189.281C251.951 190.141 251.678 190.838 251.131 191.373C250.584 191.908 249.891 192.176 249.051 192.176C248.211 192.176 247.49 191.879 246.889 191.285C246.287 190.691 245.986 189.73 245.986 188.402Z" fill="#525252"/>
<path d="M225 199H273V229H225V199Z" fill="#F9F9F9"/>
<path d="M225 199.5H273V198.5H225V199.5Z" fill="#525252"/>
<path d="M246.367 218V211.766H247.375L247.422 212.574H247.457C247.688 212.281 247.969 212.055 248.301 211.895C248.633 211.73 249.002 211.648 249.408 211.648C250.045 211.648 250.553 211.83 250.932 212.193C251.314 212.553 251.506 213.158 251.506 214.01V218H250.387V213.998C250.387 213.494 250.271 213.133 250.041 212.914C249.814 212.695 249.492 212.586 249.074 212.586C248.715 212.586 248.398 212.682 248.125 212.873C247.852 213.064 247.637 213.311 247.48 213.611V218H246.367Z" fill="#262626"/>
</g>
<rect x="225.5" y="177.5" width="47" height="51" rx="7.5" stroke="#525252"/>
<g clip-path="url(#clip4_49_1174)">
<rect x="100" y="177" width="48" height="30" rx="8" fill="#F9F9F9"/>
<rect width="48" height="30" transform="translate(100 177)" fill="#F9F9F9"/>
<path d="M120.986 192.402V192.227C120.986 190.742 121.396 189.549 122.217 188.646C123.041 187.744 124.213 187.293 125.732 187.293H125.855V188.248H125.732C124.615 188.248 123.732 188.562 123.084 189.191C122.436 189.82 122.111 190.812 122.111 192.168V192.461C122.111 193.469 122.295 194.182 122.662 194.6C123.029 195.018 123.492 195.227 124.051 195.227C124.609 195.227 125.041 195.057 125.346 194.717C125.654 194.377 125.809 193.898 125.809 193.281C125.809 192.664 125.654 192.188 125.346 191.852C125.041 191.516 124.609 191.348 124.051 191.348C123.531 191.348 123.072 191.516 122.674 191.852C122.275 192.188 122.076 192.664 122.076 193.281H121.654C121.654 192.418 121.895 191.721 122.375 191.189C122.855 190.658 123.494 190.393 124.291 190.393C125.092 190.393 125.734 190.658 126.219 191.189C126.707 191.721 126.951 192.418 126.951 193.281C126.951 194.141 126.678 194.838 126.131 195.373C125.584 195.908 124.891 196.176 124.051 196.176C123.211 196.176 122.49 195.879 121.889 195.285C121.287 194.691 120.986 193.73 120.986 192.402Z" fill="#262626"/>
</g>
<rect x="100.5" y="177.5" width="47" height="29" rx="7.5" stroke="#525252"/>
<g clip-path="url(#clip5_49_1174)">
<rect x="162" y="102" width="48" height="30" rx="8" fill="#F9F9F9"/>
<rect x="162" y="102" width="48" height="30" fill="#F9F9F9"/>
<rect x="162" y="102" width="48" height="30" stroke="#525252"/>
<path d="M182.193 121V113.729L179.99 114.637V113.523L183.137 112.352H183.342V121H182.193ZM186.465 121V120.145L189.588 116.881C189.994 116.463 190.303 116.09 190.514 115.762C190.729 115.43 190.836 115.07 190.836 114.684C190.836 114.297 190.701 113.961 190.432 113.676C190.162 113.391 189.787 113.248 189.307 113.248C188.826 113.248 188.422 113.402 188.094 113.711C187.766 114.016 187.602 114.438 187.602 114.977V115.035H186.459V114.977C186.459 114.195 186.73 113.553 187.273 113.049C187.82 112.545 188.498 112.293 189.307 112.293C190.107 112.293 190.752 112.525 191.24 112.99C191.732 113.455 191.979 114 191.979 114.625C191.979 115.184 191.82 115.689 191.504 116.143C191.188 116.592 190.799 117.051 190.338 117.52L187.906 120.016H192.213V121H186.465Z" fill="#262626"/>
</g>
<rect x="162.5" y="102.5" width="47" height="29" rx="7.5" stroke="#525252"/>
<g clip-path="url(#clip6_49_1174)">
<rect x="96" y="16" width="48" height="30" rx="8" fill="#F9F9F9"/>
<rect x="96" y="16" width="48" height="30" fill="#F9F9F9"/>
<rect x="96" y="16" width="48" height="30" stroke="#525252"/>
<path d="M113.621 35V34.1445L116.744 30.8809C117.15 30.4629 117.459 30.0898 117.67 29.7617C117.885 29.4297 117.992 29.0703 117.992 28.6836C117.992 28.2969 117.857 27.9609 117.588 27.6758C117.318 27.3906 116.943 27.248 116.463 27.248C115.982 27.248 115.578 27.4023 115.25 27.7109C114.922 28.0156 114.758 28.4375 114.758 28.9766V29.0352H113.615V28.9766C113.615 28.1953 113.887 27.5527 114.43 27.0488C114.977 26.5449 115.654 26.293 116.463 26.293C117.264 26.293 117.908 26.5254 118.396 26.9902C118.889 27.4551 119.135 28 119.135 28.625C119.135 29.1836 118.977 29.6895 118.66 30.1426C118.344 30.5918 117.955 31.0508 117.494 31.5195L115.062 34.0156H119.369V35H113.621ZM124.145 35V32.668V32.3633V28.2383H124.074L121.432 32.0527H124.432H124.889H126.441V33.002H120.119V32.2285L124.18 26.4688H125.229V35H124.145Z" fill="#262626"/>
</g>
<rect x="96.5" y="16.5" width="47" height="29" rx="7.5" stroke="#059569"/>
<path d="M39.0236 98.7839C38.9043 99.3231 39.2446 99.857 39.7839 99.9764L48.5711 101.922C49.1104 102.041 49.6443 101.701 49.7636 101.161C49.883 100.622 49.5426 100.088 49.0034 99.9689L41.1925 98.2398L42.9216 90.4289C43.041 89.8897 42.7006 89.3557 42.1614 89.2364C41.6222 89.117 41.0883 89.4574 40.9689 89.9966L39.0236 98.7839ZM119.462 47.1568L39.4624 98.1568L40.5376 99.8432L120.538 48.8432L119.462 47.1568Z" fill="#737373"/>
<path d="M186.118 100.993C186.666 100.928 187.058 100.431 186.993 99.8822L185.933 90.9449C185.868 90.3964 185.37 90.0046 184.822 90.0697C184.273 90.1347 183.882 90.6321 183.947 91.1805L184.889 99.1248L176.945 100.067C176.396 100.132 176.005 100.63 176.07 101.178C176.135 101.727 176.632 102.118 177.181 102.053L186.118 100.993ZM119.381 48.7855L185.381 100.785L186.619 99.2145L120.619 47.2145L119.381 48.7855Z" fill="#737373"/>
<path d="M249.196 175.981C249.738 175.872 250.089 175.345 249.981 174.804L248.216 165.979C248.107 165.437 247.58 165.086 247.039 165.194C246.497 165.303 246.146 165.829 246.254 166.371L247.823 174.216L239.979 175.784C239.437 175.893 239.086 176.42 239.194 176.961C239.303 177.503 239.829 177.854 240.371 177.746L249.196 175.981ZM185.445 133.832L248.445 175.832L249.555 174.168L186.555 132.168L185.445 133.832Z" fill="#737373"/>
<path d="M123.016 175.822C122.918 176.365 123.278 176.886 123.822 176.984L132.678 178.587C133.222 178.685 133.742 178.324 133.84 177.781C133.939 177.237 133.578 176.717 133.034 176.619L125.162 175.194L126.587 167.322C126.685 166.778 126.324 166.258 125.781 166.16C125.237 166.061 124.717 166.422 124.619 166.966L123.016 175.822ZM185.43 132.178L123.43 175.178L124.57 176.822L186.57 133.822L185.43 132.178Z" fill="#737373"/>
<path d="M95.0033 241.082C95.0485 241.632 95.5313 242.042 96.0817 241.997L105.052 241.261C105.602 241.216 106.012 240.734 105.967 240.183C105.921 239.633 105.439 239.223 104.888 239.268L96.915 239.922L96.2614 231.948C96.2163 231.398 95.7335 230.988 95.1831 231.033C94.6326 231.079 94.223 231.561 94.2681 232.112L95.0033 241.082ZM123.237 207.353L95.2375 240.353L96.7625 241.647L124.763 208.647L123.237 207.353Z" fill="#737373"/>
<path d="M151.936 241.998C152.487 242.033 152.962 241.616 152.998 241.064L153.577 232.083C153.613 231.532 153.195 231.056 152.644 231.021C152.093 230.985 151.617 231.403 151.582 231.954L151.066 239.938L143.083 239.423C142.532 239.387 142.056 239.805 142.021 240.356C141.985 240.907 142.403 241.383 142.954 241.418L151.936 241.998ZM122.249 208.66L151.249 241.66L152.751 240.34L123.751 207.34L122.249 208.66Z" fill="#737373"/>
<path d="M102.193 225V217.729L99.9902 218.637V217.523L103.137 216.352H103.342V225H102.193Z" fill="#737373"/>
<path d="M144.621 222.24V219.229C144.621 218.35 144.867 217.641 145.359 217.102C145.855 216.562 146.543 216.293 147.422 216.293C148.293 216.293 148.979 216.562 149.479 217.102C149.979 217.641 150.229 218.35 150.229 219.229V222.24C150.229 223.123 149.979 223.834 149.479 224.373C148.979 224.908 148.293 225.176 147.422 225.176C146.543 225.176 145.855 224.908 145.359 224.373C144.867 223.834 144.621 223.123 144.621 222.24ZM145.781 222.299C145.781 222.857 145.914 223.318 146.18 223.682C146.449 224.041 146.863 224.221 147.422 224.221C147.98 224.221 148.395 224.041 148.664 223.682C148.934 223.318 149.068 222.857 149.068 222.299V219.17C149.068 218.611 148.934 218.152 148.664 217.793C148.395 217.43 147.98 217.248 147.422 217.248C146.863 217.248 146.449 217.43 146.18 217.793C145.914 218.152 145.781 218.611 145.781 219.17V222.299Z" fill="#737373"/>
<path d="M147.193 152V144.729L144.99 145.637V144.523L148.137 143.352H148.342V152H147.193Z" fill="#737373"/>
<path d="M222.621 149.24V146.229C222.621 145.35 222.867 144.641 223.359 144.102C223.855 143.562 224.543 143.293 225.422 143.293C226.293 143.293 226.979 143.562 227.479 144.102C227.979 144.641 228.229 145.35 228.229 146.229V149.24C228.229 150.123 227.979 150.834 227.479 151.373C226.979 151.908 226.293 152.176 225.422 152.176C224.543 152.176 223.855 151.908 223.359 151.373C222.867 150.834 222.621 150.123 222.621 149.24ZM223.781 149.299C223.781 149.857 223.914 150.318 224.18 150.682C224.449 151.041 224.863 151.221 225.422 151.221C225.98 151.221 226.395 151.041 226.664 150.682C226.934 150.318 227.068 149.857 227.068 149.299V146.17C227.068 145.611 226.934 145.152 226.664 144.793C226.395 144.43 225.98 144.248 225.422 144.248C224.863 144.248 224.449 144.43 224.18 144.793C223.914 145.152 223.781 145.611 223.781 146.17V149.299Z" fill="#737373"/>
<path d="M65.6211 70.2402V67.2285C65.6211 66.3496 65.8672 65.6406 66.3594 65.1016C66.8555 64.5625 67.543 64.293 68.4219 64.293C69.293 64.293 69.9785 64.5625 70.4785 65.1016C70.9785 65.6406 71.2285 66.3496 71.2285 67.2285V70.2402C71.2285 71.123 70.9785 71.834 70.4785 72.373C69.9785 72.9082 69.293 73.1758 68.4219 73.1758C67.543 73.1758 66.8555 72.9082 66.3594 72.373C65.8672 71.834 65.6211 71.123 65.6211 70.2402ZM66.7812 70.2988C66.7812 70.8574 66.9141 71.3184 67.1797 71.6816C67.4492 72.041 67.8633 72.2207 68.4219 72.2207C68.9805 72.2207 69.3945 72.041 69.6641 71.6816C69.9336 71.3184 70.0684 70.8574 70.0684 70.2988V67.1699C70.0684 66.6113 69.9336 66.1523 69.6641 65.793C69.3945 65.4297 68.9805 65.248 68.4219 65.248C67.8633 65.248 67.4492 65.4297 67.1797 65.793C66.9141 66.1523 66.7812 66.6113 66.7812 67.1699V70.2988Z" fill="#737373"/>
<path d="M161.193 73V65.7285L158.99 66.6367V65.5234L162.137 64.3516H162.342V73H161.193Z" fill="#737373"/>
<defs>
<clipPath id="clip0_49_1174">
<rect x="16" y="102" width="48" height="52" rx="8" fill="white"/>
</clipPath>
<clipPath id="clip1_49_1174">
<rect x="72" y="243" width="48" height="52" rx="8" fill="white"/>
</clipPath>
<clipPath id="clip2_49_1174">
<rect x="128" y="243" width="48" height="52" rx="8" fill="white"/>
</clipPath>
<clipPath id="clip3_49_1174">
<rect x="225" y="177" width="48" height="52" rx="8" fill="white"/>
</clipPath>
<clipPath id="clip4_49_1174">
<rect x="100" y="177" width="48" height="30" rx="8" fill="white"/>
</clipPath>
<clipPath id="clip5_49_1174">
<rect x="162" y="102" width="48" height="30" rx="8" fill="white"/>
</clipPath>
<clipPath id="clip6_49_1174">
<rect x="96" y="16" width="48" height="30" rx="8" fill="white"/>
</clipPath>
</defs>
</svg>
