<svg width="248" height="182" viewBox="0 0 248 182" fill="none" xmlns="http://www.w3.org/2000/svg">
<g clip-path="url(#clip0_49_1172)">
<rect x="16" y="16" width="48" height="52" rx="8" fill="#F9F9F9"/>
<path d="M36.1934 31V23.7285L33.9902 24.6367V23.5234L37.1367 22.3516H37.3418V31H36.1934ZM40.4648 31V30.1445L43.5879 26.8809C43.9941 26.4629 44.3027 26.0898 44.5137 25.7617C44.7285 25.4297 44.8359 25.0703 44.8359 24.6836C44.8359 24.2969 44.7012 23.9609 44.4316 23.6758C44.1621 23.3906 43.7871 23.248 43.3066 23.248C42.8262 23.248 42.4219 23.4023 42.0938 23.7109C41.7656 24.0156 41.6016 24.4375 41.6016 24.9766V25.0352H40.459V24.9766C40.459 24.1953 40.7305 23.5527 41.2734 23.0488C41.8203 22.5449 42.498 22.293 43.3066 22.293C44.1074 22.293 44.752 22.5254 45.2402 22.9902C45.7324 23.4551 45.9785 24 45.9785 24.625C45.9785 25.1836 45.8203 25.6895 45.5039 26.1426C45.1875 26.5918 44.7988 27.0508 44.3379 27.5195L41.9062 30.0156H46.2129V31H40.4648Z" fill="#525252"/>
<path d="M16 38H64V68H16V38Z" fill="#F9F9F9"/>
<path d="M16 38.5H64V37.5H16V38.5Z" fill="#525252"/>
<path d="M37.0273 55.166C37.0273 54.5332 37.2812 54.041 37.7891 53.6895C38.3008 53.334 38.9512 53.1562 39.7402 53.1562H41.1816V52.7109C41.1816 52.3438 41.082 52.0469 40.8828 51.8203C40.6836 51.5898 40.3418 51.4746 39.8574 51.4746C39.373 51.4746 39.0254 51.5723 38.8145 51.7676C38.6074 51.9629 38.5039 52.1895 38.5039 52.4473V52.4766H37.3965V52.4473C37.3965 51.9512 37.6211 51.5176 38.0703 51.1465C38.5195 50.7754 39.125 50.5898 39.8867 50.5898C40.6523 50.5898 41.2441 50.7676 41.6621 51.123C42.084 51.4785 42.2949 52.0078 42.2949 52.7109V55.5938C42.2949 55.8477 42.3145 56.0879 42.3535 56.3145C42.3926 56.5371 42.4492 56.7344 42.5234 56.9062V57H41.4453C41.3867 56.9023 41.334 56.7734 41.2871 56.6133C41.2441 56.4531 41.2168 56.2949 41.2051 56.1387C41.0566 56.3965 40.8145 56.625 40.4785 56.8242C40.1465 57.0195 39.7168 57.1172 39.1895 57.1172C38.5918 57.1172 38.082 56.9492 37.6602 56.6133C37.2383 56.2773 37.0273 55.7949 37.0273 55.166ZM38.1406 55.1074C38.1406 55.459 38.2461 55.7344 38.457 55.9336C38.668 56.1289 38.9941 56.2266 39.4355 56.2266C39.8809 56.2266 40.2832 56.0781 40.6426 55.7812C41.002 55.4844 41.1816 55.1699 41.1816 54.8379V53.9531H39.8574C39.2949 53.9531 38.8672 54.0566 38.5742 54.2637C38.2852 54.4707 38.1406 54.752 38.1406 55.1074Z" fill="#262626"/>
</g>
<rect x="16.5" y="16.5" width="47" height="51" rx="7.5" stroke="#525252"/>
<g clip-path="url(#clip1_49_1172)">
<rect x="72" y="114" width="48" height="52" rx="8" fill="#F9F9F9"/>
<path d="M96.8008 129V126.668V126.363V122.238H96.7305L94.0879 126.053H97.0879H97.5449H99.0977V127.002H92.7754V126.229L96.8359 120.469H97.8848V129H96.8008Z" fill="#525252"/>
<path d="M72 136H120V166H72V136Z" fill="#F9F9F9"/>
<path d="M72 136.5H120V135.5H72V136.5Z" fill="#525252"/>
<path d="M92.8672 155V146H93.9805V149.498C94.168 149.24 94.418 149.035 94.7305 148.883C95.043 148.727 95.4219 148.648 95.8672 148.648C96.668 148.648 97.3086 148.945 97.7891 149.539C98.2695 150.129 98.5098 150.879 98.5098 151.789V151.977C98.5098 152.883 98.2695 153.633 97.7891 154.227C97.3086 154.82 96.668 155.117 95.8672 155.117C95.4219 155.117 95.0312 155.027 94.6953 154.848C94.3633 154.664 94.1172 154.443 93.957 154.186H93.9219L93.875 155H92.8672ZM93.9805 153.137C94.1055 153.41 94.3086 153.656 94.5898 153.875C94.875 154.09 95.2188 154.197 95.6211 154.197C96.2266 154.197 96.6699 153.984 96.9512 153.559C97.2324 153.129 97.373 152.602 97.373 151.977V151.789C97.373 151.16 97.2324 150.633 96.9512 150.207C96.6699 149.777 96.2266 149.562 95.6211 149.562C95.2188 149.562 94.875 149.672 94.5898 149.891C94.3086 150.105 94.1055 150.352 93.9805 150.629V153.137Z" fill="#262626"/>
</g>
<rect x="72.5" y="114.5" width="47" height="51" rx="7.5" stroke="#525252"/>
<g clip-path="url(#clip2_49_1172)">
<rect x="128" y="114" width="48" height="52" rx="8" fill="#F9F9F9"/>
<path d="M149.121 129V128.145L152.244 124.881C152.65 124.463 152.959 124.09 153.17 123.762C153.385 123.43 153.492 123.07 153.492 122.684C153.492 122.297 153.357 121.961 153.088 121.676C152.818 121.391 152.443 121.248 151.963 121.248C151.482 121.248 151.078 121.402 150.75 121.711C150.422 122.016 150.258 122.438 150.258 122.977V123.035H149.115V122.977C149.115 122.195 149.387 121.553 149.93 121.049C150.477 120.545 151.154 120.293 151.963 120.293C152.764 120.293 153.408 120.525 153.896 120.99C154.389 121.455 154.635 122 154.635 122.625C154.635 123.184 154.477 123.689 154.16 124.143C153.844 124.592 153.455 125.051 152.994 125.52L150.562 128.016H154.869V129H149.121Z" fill="#525252"/>
<path d="M128 136H176V166H128V136Z" fill="#F9F9F9"/>
<path d="M128 136.5H176V135.5H128V136.5Z" fill="#525252"/>
<path d="M148.998 151.977V151.789C148.998 150.848 149.258 150.08 149.777 149.486C150.297 148.889 151.014 148.59 151.928 148.59C152.771 148.59 153.412 148.814 153.85 149.264C154.287 149.709 154.506 150.207 154.506 150.758V150.787H153.428V150.758C153.428 150.43 153.309 150.139 153.07 149.885C152.832 149.631 152.451 149.504 151.928 149.504C151.314 149.504 150.861 149.725 150.568 150.166C150.279 150.607 150.135 151.148 150.135 151.789V151.977C150.135 152.617 150.279 153.158 150.568 153.6C150.861 154.041 151.314 154.262 151.928 154.262C152.451 154.262 152.832 154.135 153.07 153.881C153.309 153.627 153.428 153.334 153.428 153.002V152.973H154.506V153.002C154.506 153.557 154.287 154.059 153.85 154.508C153.412 154.953 152.771 155.176 151.928 155.176C151.014 155.176 150.297 154.879 149.777 154.285C149.258 153.688 148.998 152.918 148.998 151.977Z" fill="#262626"/>
</g>
<rect x="128.5" y="114.5" width="47" height="51" rx="7.5" stroke="#525252"/>
<g clip-path="url(#clip3_49_1172)">
<rect x="184" y="16" width="48" height="52" rx="8" fill="#F9F9F9"/>
<path d="M204.986 27.4023V27.2266C204.986 25.7422 205.396 24.5488 206.217 23.6465C207.041 22.7441 208.213 22.293 209.732 22.293H209.855V23.248H209.732C208.615 23.248 207.732 23.5625 207.084 24.1914C206.436 24.8203 206.111 25.8125 206.111 27.168V27.4609C206.111 28.4688 206.295 29.1816 206.662 29.5996C207.029 30.0176 207.492 30.2266 208.051 30.2266C208.609 30.2266 209.041 30.0566 209.346 29.7168C209.654 29.377 209.809 28.8984 209.809 28.2812C209.809 27.6641 209.654 27.1875 209.346 26.8516C209.041 26.5156 208.609 26.3477 208.051 26.3477C207.531 26.3477 207.072 26.5156 206.674 26.8516C206.275 27.1875 206.076 27.6641 206.076 28.2812H205.654C205.654 27.418 205.895 26.7207 206.375 26.1895C206.855 25.6582 207.494 25.3926 208.291 25.3926C209.092 25.3926 209.734 25.6582 210.219 26.1895C210.707 26.7207 210.951 27.418 210.951 28.2812C210.951 29.1406 210.678 29.8379 210.131 30.373C209.584 30.9082 208.891 31.1758 208.051 31.1758C207.211 31.1758 206.49 30.8789 205.889 30.2852C205.287 29.6914 204.986 28.7305 204.986 27.4023Z" fill="#525252"/>
<path d="M184 38H232V68H184V38Z" fill="#F9F9F9"/>
<path d="M184 38.5H232V37.5H184V38.5Z" fill="#525252"/>
<path d="M205.367 57V50.7656H206.375L206.422 51.5742H206.457C206.688 51.2812 206.969 51.0547 207.301 50.8945C207.633 50.7305 208.002 50.6484 208.408 50.6484C209.045 50.6484 209.553 50.8301 209.932 51.1934C210.314 51.5527 210.506 52.1582 210.506 53.0098V57H209.387V52.998C209.387 52.4941 209.271 52.1328 209.041 51.9141C208.814 51.6953 208.492 51.5859 208.074 51.5859C207.715 51.5859 207.398 51.6816 207.125 51.873C206.852 52.0645 206.637 52.3105 206.48 52.6113V57H205.367Z" fill="#262626"/>
</g>
<rect x="184.5" y="16.5" width="47" height="51" rx="7.5" stroke="#525252"/>
<g clip-path="url(#clip4_49_1172)">
<rect x="100" y="16" width="48" height="30" rx="8" fill="#F9F9F9"/>
<rect x="100" y="16" width="48" height="30" fill="#F9F9F9"/>
<rect x="100" y="16" width="48" height="30" stroke="#525252"/>
<path d="M120.986 31.4023V31.2266C120.986 29.7422 121.396 28.5488 122.217 27.6465C123.041 26.7441 124.213 26.293 125.732 26.293H125.855V27.248H125.732C124.615 27.248 123.732 27.5625 123.084 28.1914C122.436 28.8203 122.111 29.8125 122.111 31.168V31.4609C122.111 32.4688 122.295 33.1816 122.662 33.5996C123.029 34.0176 123.492 34.2266 124.051 34.2266C124.609 34.2266 125.041 34.0566 125.346 33.7168C125.654 33.377 125.809 32.8984 125.809 32.2812C125.809 31.6641 125.654 31.1875 125.346 30.8516C125.041 30.5156 124.609 30.3477 124.051 30.3477C123.531 30.3477 123.072 30.5156 122.674 30.8516C122.275 31.1875 122.076 31.6641 122.076 32.2812H121.654C121.654 31.418 121.895 30.7207 122.375 30.1895C122.855 29.6582 123.494 29.3926 124.291 29.3926C125.092 29.3926 125.734 29.6582 126.219 30.1895C126.707 30.7207 126.951 31.418 126.951 32.2812C126.951 33.1406 126.678 33.8379 126.131 34.373C125.584 34.9082 124.891 35.1758 124.051 35.1758C123.211 35.1758 122.49 34.8789 121.889 34.2852C121.287 33.6914 120.986 32.7305 120.986 31.4023Z" fill="#262626"/>
</g>
<rect x="100.5" y="16.5" width="47" height="29" rx="7.5" stroke="#059569"/>
<path d="M95.0645 111.353C95.2597 111.87 95.8368 112.131 96.3534 111.935L104.773 108.755C105.289 108.56 105.55 107.983 105.355 107.466C105.16 106.949 104.582 106.689 104.066 106.884L96.5821 109.711L93.7549 102.227C93.5597 101.711 92.9826 101.45 92.466 101.645C91.9493 101.84 91.6887 102.418 91.8839 102.934L95.0645 111.353ZM123.089 48.5884L95.0886 110.588L96.9114 111.412L124.911 49.4116L123.089 48.5884Z" fill="#737373"/>
<path d="M151.659 111.94C152.178 112.128 152.752 111.86 152.94 111.341L156.008 102.88C156.197 102.361 155.928 101.787 155.409 101.599C154.89 101.411 154.316 101.679 154.128 102.198L151.401 109.719L143.88 106.992C143.361 106.803 142.787 107.072 142.599 107.591C142.411 108.11 142.679 108.684 143.198 108.872L151.659 111.94ZM122.094 49.4237L151.094 111.424L152.906 110.576L123.906 48.5763L122.094 49.4237Z" fill="#737373"/>
<path d="M101.193 80V72.7285L98.9902 73.6367V72.5234L102.137 71.3516H102.342V80H101.193Z" fill="#737373"/>
<path d="M144.621 77.2402V74.2285C144.621 73.3496 144.867 72.6406 145.359 72.1016C145.855 71.5625 146.543 71.293 147.422 71.293C148.293 71.293 148.979 71.5625 149.479 72.1016C149.979 72.6406 150.229 73.3496 150.229 74.2285V77.2402C150.229 78.123 149.979 78.834 149.479 79.373C148.979 79.9082 148.293 80.1758 147.422 80.1758C146.543 80.1758 145.855 79.9082 145.359 79.373C144.867 78.834 144.621 78.123 144.621 77.2402ZM145.781 77.2988C145.781 77.8574 145.914 78.3184 146.18 78.6816C146.449 79.041 146.863 79.2207 147.422 79.2207C147.98 79.2207 148.395 79.041 148.664 78.6816C148.934 78.3184 149.068 77.8574 149.068 77.2988V74.1699C149.068 73.6113 148.934 73.1523 148.664 72.793C148.395 72.4297 147.98 72.248 147.422 72.248C146.863 72.248 146.449 72.4297 146.18 72.793C145.914 73.1523 145.781 73.6113 145.781 74.1699V77.2988Z" fill="#737373"/>
<defs>
<clipPath id="clip0_49_1172">
<rect x="16" y="16" width="48" height="52" rx="8" fill="white"/>
</clipPath>
<clipPath id="clip1_49_1172">
<rect x="72" y="114" width="48" height="52" rx="8" fill="white"/>
</clipPath>
<clipPath id="clip2_49_1172">
<rect x="128" y="114" width="48" height="52" rx="8" fill="white"/>
</clipPath>
<clipPath id="clip3_49_1172">
<rect x="184" y="16" width="48" height="52" rx="8" fill="white"/>
</clipPath>
<clipPath id="clip4_49_1172">
<rect x="100" y="16" width="48" height="30" rx="8" fill="white"/>
</clipPath>
</defs>
</svg>
