<svg width="909" height="389" viewBox="0 0 909 389" fill="none" xmlns="http://www.w3.org/2000/svg">
<rect x="139.822" y="170.792" width="31" height="31" rx="15.5" fill="#F9F9F9"/>
<rect x="139.822" y="170.792" width="31" height="31" rx="15.5" stroke="#525252"/>
<path d="M151.673 188.206V184.003C151.673 182.852 151.991 181.927 152.626 181.229C153.267 180.531 154.155 180.182 155.29 180.182C156.415 180.182 157.301 180.531 157.947 181.229C158.592 181.927 158.915 182.852 158.915 184.003V188.206C158.915 189.357 158.592 190.281 157.947 190.979C157.301 191.677 156.415 192.026 155.29 192.026C154.155 192.021 153.267 191.672 152.626 190.979C151.991 190.281 151.673 189.357 151.673 188.206ZM153.158 188.284C153.158 189.023 153.332 189.63 153.681 190.104C154.03 190.573 154.566 190.807 155.29 190.807C156.02 190.807 156.559 190.573 156.908 190.104C157.256 189.63 157.431 189.023 157.431 188.284V183.924C157.431 183.185 157.256 182.581 156.908 182.112C156.559 181.638 156.02 181.401 155.29 181.401C154.566 181.401 154.03 181.638 153.681 182.112C153.332 182.581 153.158 183.185 153.158 183.924V188.284Z" fill="#525252"/>
<rect x="254.822" y="170.792" width="31" height="31" rx="15.5" fill="#F9F9F9"/>
<rect x="254.822" y="170.792" width="31" height="31" rx="15.5" stroke="#525252"/>
<path d="M270.001 191.792V182.026L267.134 183.229V181.799L271.228 180.26H271.478V191.792H270.001Z" fill="#525252"/>
<rect x="369.822" y="170.792" width="31" height="31" rx="15.5" fill="#F9F9F9"/>
<rect x="369.822" y="170.792" width="31" height="31" rx="15.5" stroke="#525252"/>
<path d="M381.665 191.792V190.721L385.704 186.323C386.241 185.755 386.647 185.247 386.923 184.799C387.204 184.352 387.345 183.867 387.345 183.346C387.345 182.815 387.168 182.359 386.814 181.979C386.46 181.594 385.97 181.401 385.345 181.401C384.72 181.401 384.191 181.607 383.759 182.018C383.332 182.424 383.118 182.995 383.118 183.729V183.807H381.665V183.729C381.665 182.687 382.017 181.836 382.72 181.174C383.428 180.513 384.303 180.182 385.345 180.182C386.376 180.182 387.21 180.487 387.845 181.096C388.48 181.706 388.798 182.43 388.798 183.268C388.798 184.003 388.592 184.672 388.181 185.276C387.769 185.875 387.264 186.492 386.665 187.128L383.486 190.518H389.111V191.792H381.665Z" fill="#525252"/>
<rect x="484.822" y="170.792" width="31" height="31" rx="15.5" fill="#F9F9F9"/>
<rect x="484.822" y="170.792" width="31" height="31" rx="15.5" stroke="#525252"/>
<path d="M496.431 188.823V188.745H497.861V188.823C497.861 189.458 498.069 189.948 498.486 190.292C498.902 190.635 499.454 190.807 500.142 190.807C500.829 190.807 501.379 190.635 501.79 190.292C502.202 189.943 502.407 189.401 502.407 188.667C502.407 187.932 502.176 187.38 501.712 187.01C501.249 186.641 500.626 186.456 499.845 186.456H498.931V185.268H499.767C500.48 185.268 501.032 185.094 501.423 184.745C501.819 184.396 502.017 183.904 502.017 183.268C502.017 182.638 501.848 182.169 501.509 181.862C501.17 181.555 500.715 181.401 500.142 181.401C499.532 181.401 499.051 181.557 498.697 181.87C498.342 182.177 498.165 182.62 498.165 183.198V183.276H496.743V183.198C496.743 182.359 497.056 181.648 497.681 181.065C498.311 180.477 499.131 180.182 500.142 180.182C501.121 180.182 501.923 180.464 502.548 181.026C503.178 181.583 503.493 182.305 503.493 183.19C503.493 183.727 503.348 184.234 503.056 184.714C502.769 185.187 502.327 185.552 501.728 185.807V185.839C502.379 186.005 502.902 186.336 503.298 186.831C503.694 187.32 503.892 187.932 503.892 188.667C503.892 189.708 503.538 190.529 502.829 191.128C502.126 191.727 501.23 192.026 500.142 192.026C498.996 192.026 498.09 191.727 497.423 191.128C496.762 190.529 496.431 189.76 496.431 188.823Z" fill="#525252"/>
<rect x="599.822" y="170.792" width="31" height="31" rx="15.5" fill="#F9F9F9"/>
<rect x="599.822" y="170.792" width="31" height="31" rx="15.5" stroke="#525252"/>
<path d="M616.423 191.792V188.682V188.292V182.784H616.329L612.876 187.901H616.814H617.4H619.392V189.12H611.197V188.143L616.486 180.417H617.806V191.792H616.423Z" fill="#525252"/>
<rect x="714.822" y="170.792" width="31" height="31" rx="15.5" fill="#F9F9F9"/>
<rect x="714.822" y="170.792" width="31" height="31" rx="15.5" stroke="#525252"/>
<path d="M726.579 188.94V188.854H727.993V188.94C727.993 189.518 728.197 189.974 728.603 190.307C729.009 190.641 729.551 190.807 730.228 190.807C730.905 190.807 731.46 190.578 731.892 190.12C732.324 189.656 732.54 189.003 732.54 188.159C732.54 187.315 732.324 186.677 731.892 186.245C731.465 185.807 730.913 185.589 730.236 185.589C729.767 185.589 729.35 185.674 728.986 185.846C728.626 186.013 728.293 186.253 727.986 186.565L726.97 186.096L727.548 180.417H733.407V181.721H728.743L728.4 184.971C728.655 184.81 728.957 184.669 729.306 184.549C729.66 184.424 730.048 184.362 730.47 184.362C731.449 184.362 732.282 184.695 732.97 185.362C733.657 186.023 734.001 186.956 734.001 188.159C734.001 189.362 733.644 190.307 732.931 190.995C732.217 191.682 731.316 192.026 730.228 192.026C729.072 192.026 728.173 191.734 727.532 191.151C726.897 190.568 726.579 189.831 726.579 188.94Z" fill="#525252"/>
<rect x="829.822" y="170.792" width="31" height="31" rx="15.5" fill="#E4E4E4"/>
<rect x="829.822" y="170.792" width="31" height="31" rx="15.5" stroke="#525252"/>
<path d="M841.501 186.995V186.76C841.501 184.776 842.032 183.185 843.095 181.987C844.157 180.784 845.668 180.182 847.626 180.182H847.782V181.401H847.626C846.178 181.401 845.035 181.825 844.197 182.674C843.358 183.523 842.939 184.862 842.939 186.69V187.073C842.939 188.432 843.176 189.396 843.65 189.964C844.129 190.526 844.733 190.807 845.462 190.807C846.186 190.807 846.749 190.578 847.15 190.12C847.551 189.661 847.751 189.01 847.751 188.167C847.751 187.333 847.551 186.69 847.15 186.237C846.754 185.784 846.191 185.557 845.462 185.557C844.785 185.557 844.186 185.784 843.665 186.237C843.15 186.69 842.892 187.333 842.892 188.167H842.353C842.353 187.026 842.663 186.104 843.282 185.401C843.907 184.693 844.736 184.339 845.767 184.339C846.803 184.339 847.637 184.693 848.267 185.401C848.897 186.104 849.212 187.026 849.212 188.167C849.212 189.312 848.858 190.242 848.15 190.956C847.441 191.669 846.545 192.026 845.462 192.026C844.374 192.026 843.441 191.63 842.665 190.839C841.889 190.047 841.501 188.766 841.501 186.995Z" fill="#525252"/>
<path d="M205.322 166.292L209.603 154.839H210.947L215.228 166.292H213.697L210.587 157.659C210.525 157.482 210.47 157.315 210.423 157.159C210.376 156.997 210.335 156.828 210.298 156.651H210.22C210.184 156.828 210.142 156.997 210.095 157.159C210.048 157.315 209.993 157.482 209.931 157.659L206.79 166.292H205.322ZM207.158 163.307L207.603 162.096H212.923L213.368 163.307H207.158Z" fill="#525252"/>
<path d="M323.634 166.292V154.917H327.298C328.512 154.917 329.444 155.221 330.095 155.831C330.751 156.44 331.079 157.247 331.079 158.253C331.079 159.263 330.751 160.081 330.095 160.706C329.444 161.331 328.512 161.643 327.298 161.643H325.111V166.292H323.634ZM325.111 160.44H327.298C328.163 160.44 328.764 160.229 329.103 159.807C329.441 159.38 329.611 158.862 329.611 158.253C329.611 157.643 329.441 157.135 329.103 156.729C328.764 156.318 328.163 156.112 327.298 156.112H325.111V160.44ZM330.04 166.292L327.259 161.042L328.72 160.823L331.681 166.292H330.04Z" fill="#525252"/>
<path d="M445.322 166.292L449.603 154.839H450.947L455.228 166.292H453.697L450.587 157.659C450.525 157.482 450.47 157.315 450.423 157.159C450.376 156.997 450.335 156.828 450.298 156.651H450.22C450.184 156.828 450.142 156.997 450.095 157.159C450.048 157.315 449.993 157.482 449.931 157.659L446.79 166.292H445.322ZM447.157 163.307L447.603 162.096H452.923L453.368 163.307H447.157Z" fill="#525252"/>
<path d="M558.634 166.292V154.917H560.173L565.306 162.94C565.41 163.096 565.506 163.253 565.595 163.409C565.684 163.565 565.759 163.708 565.822 163.839H565.884C565.879 163.682 565.874 163.508 565.868 163.315C565.868 163.117 565.868 162.94 565.868 162.784V154.917H567.306V166.292H565.775L560.634 158.268C560.535 158.112 560.441 157.956 560.353 157.799C560.264 157.643 560.184 157.497 560.111 157.362H560.056C560.061 157.523 560.064 157.703 560.064 157.901C560.069 158.094 560.072 158.268 560.072 158.424V166.292H558.634Z" fill="#525252"/>
<path d="M676.634 166.292V154.917H678.111V159.815H683.829V154.917H685.298V166.292H683.829V161.034H678.111V166.292H676.634Z" fill="#525252"/>
<path d="M787.322 166.292L791.603 154.839H792.947L797.228 166.292H795.697L792.587 157.659C792.525 157.482 792.47 157.315 792.423 157.159C792.376 156.997 792.335 156.828 792.298 156.651H792.22C792.184 156.828 792.142 156.997 792.095 157.159C792.048 157.315 791.993 157.482 791.931 157.659L788.79 166.292H787.322ZM789.157 163.307L789.603 162.096H794.923L795.368 163.307H789.157Z" fill="#525252"/>
<path d="M174.322 198.292C200.822 218.292 265.322 231.292 269.322 204.792" stroke="#525252" stroke-dasharray="8 8"/>
<path d="M174.322 215.292C202.322 244.792 305.822 262.292 378.322 199.792" stroke="#525252" stroke-dasharray="8 8"/>
<path d="M159.322 217.792C200.322 273.292 444.322 255.292 605.322 203.292" stroke="#525252" stroke-dasharray="8 8"/>
<path d="M150.322 219.792C160.822 304.292 703.322 254.292 725.822 205.292" stroke="#525252" stroke-dasharray="8 8"/>
<path d="M296.322 160.784C324.322 129.367 422.322 99.23 494.822 165.792" stroke="#525252" stroke-dasharray="8 8"/>
<path d="M283.322 153.784C375.822 58.2916 785.822 100.292 838.822 168.792" stroke="#525252" stroke-dasharray="8 8"/>
<path d="M140.5 178.5C108 165.874 151.321 115.292 154.321 163.292" stroke="#525252"/>
<line x1="173.322" y1="186.292" x2="247.322" y2="186.292" stroke="#525252" stroke-width="2"/>
<line x1="288.322" y1="186.292" x2="362.322" y2="186.292" stroke="#525252" stroke-width="2"/>
<line x1="403.322" y1="186.292" x2="477.322" y2="186.292" stroke="#525252" stroke-width="2"/>
<line x1="518.322" y1="186.292" x2="592.322" y2="186.292" stroke="#525252" stroke-width="2"/>
<line x1="634.322" y1="186.292" x2="708.322" y2="186.292" stroke="#525252" stroke-width="2"/>
<line x1="749.322" y1="186.292" x2="823.322" y2="186.292" stroke="#525252" stroke-width="2"/>
<path d="M155.866 166.769C155.609 167.574 154.531 167.716 154.074 167.006L151.133 162.442C150.736 161.825 151.116 161.005 151.843 160.909L156.441 160.303C157.169 160.207 157.748 160.901 157.524 161.6L155.866 166.769Z" fill="#525252"/>
<path d="M171.972 197.799C171.561 197.061 172.195 196.178 173.026 196.329L178.366 197.304C179.088 197.436 179.427 198.274 178.999 198.87L176.298 202.64C175.87 203.236 174.968 203.185 174.611 202.543L171.972 197.799Z" fill="#525252"/>
<path d="M250.407 184.887C251.171 185.248 251.171 186.335 250.407 186.696L245.499 189.015C244.835 189.328 244.072 188.844 244.072 188.11L244.072 183.473C244.072 182.739 244.835 182.255 245.499 182.569L250.407 184.887Z" fill="#525252"/>
<path d="M365.407 184.887C366.171 185.248 366.171 186.335 365.407 186.696L360.499 189.015C359.835 189.328 359.072 188.844 359.072 188.11L359.072 183.473C359.072 182.739 359.835 182.255 360.499 182.569L365.407 184.887Z" fill="#525252"/>
<path d="M480.407 184.887C481.171 185.248 481.171 186.335 480.407 186.696L475.499 189.015C474.835 189.328 474.072 188.844 474.072 188.11L474.072 183.473C474.072 182.739 474.835 182.255 475.499 182.569L480.407 184.887Z" fill="#525252"/>
<path d="M595.407 184.887C596.171 185.248 596.171 186.335 595.407 186.696L590.499 189.015C589.835 189.328 589.072 188.844 589.072 188.11L589.072 183.473C589.072 182.739 589.835 182.255 590.499 182.569L595.407 184.887Z" fill="#525252"/>
<path d="M711.407 184.887C712.171 185.248 712.171 186.335 711.407 186.696L706.499 189.015C705.835 189.328 705.072 188.844 705.072 188.11L705.072 183.473C705.072 182.739 705.835 182.255 706.499 182.569L711.407 184.887Z" fill="#525252"/>
<path d="M280.685 158.72C279.916 159.07 279.086 158.369 279.304 157.553L280.701 152.307C280.889 151.598 281.752 151.327 282.312 151.8L285.855 154.793C286.415 155.267 286.292 156.162 285.624 156.467L280.685 158.72Z" fill="#525252"/>
<path d="M826.407 184.887C827.171 185.248 827.171 186.335 826.407 186.696L821.499 189.015C820.835 189.328 820.072 188.844 820.072 188.11L820.072 183.473C820.072 182.739 820.835 182.255 821.499 182.569L826.407 184.887Z" fill="#525252"/>
<path d="M293.685 164.72C292.916 165.07 292.086 164.369 292.304 163.553L293.701 158.307C293.889 157.598 294.752 157.327 295.312 157.8L298.855 160.793C299.415 161.267 299.292 162.162 298.624 162.467L293.685 164.72Z" fill="#525252"/>
<path d="M169.213 211.476C168.925 210.682 169.691 209.91 170.487 210.192L175.605 212.004C176.296 212.249 176.497 213.13 175.981 213.651L172.714 216.943C172.197 217.464 171.314 217.269 171.064 216.58L169.213 211.476Z" fill="#525252"/>
<path d="M155.382 212.82C155.273 211.983 156.188 211.396 156.904 211.844L161.506 214.724C162.128 215.113 162.133 216.018 161.515 216.414L157.612 218.917C156.994 219.313 156.174 218.932 156.08 218.204L155.382 212.82Z" fill="#525252"/>
<path d="M149.057 214.625C149.356 213.835 150.44 213.749 150.86 214.483L153.557 219.194C153.922 219.83 153.499 220.63 152.768 220.688L148.145 221.052C147.413 221.11 146.871 220.386 147.131 219.701L149.057 214.625Z" fill="#525252"/>
<path d="M619.121 26.2402V23.2285C619.121 22.3496 619.367 21.6406 619.859 21.1016C620.355 20.5625 621.043 20.293 621.922 20.293C622.793 20.293 623.479 20.5625 623.979 21.1016C624.479 21.6406 624.729 22.3496 624.729 23.2285V26.2402C624.729 27.123 624.479 27.834 623.979 28.373C623.479 28.9082 622.793 29.1758 621.922 29.1758C621.043 29.1758 620.355 28.9082 619.859 28.373C619.367 27.834 619.121 27.123 619.121 26.2402ZM620.281 26.2988C620.281 26.8574 620.414 27.3184 620.68 27.6816C620.949 28.041 621.363 28.2207 621.922 28.2207C622.48 28.2207 622.895 28.041 623.164 27.6816C623.434 27.3184 623.568 26.8574 623.568 26.2988V23.1699C623.568 22.6113 623.434 22.1523 623.164 21.793C622.895 21.4297 622.48 21.248 621.922 21.248C621.363 21.248 620.949 21.4297 620.68 21.793C620.414 22.1523 620.281 22.6113 620.281 23.1699V26.2988Z" fill="#A2A2A2"/>
<path d="M617 51L621.281 39.5469H622.625L626.906 51H625.375L622.266 42.3672C622.203 42.1901 622.148 42.0234 622.102 41.8672C622.055 41.7057 622.013 41.5365 621.977 41.3594H621.898C621.862 41.5365 621.82 41.7057 621.773 41.8672C621.727 42.0234 621.672 42.1901 621.609 42.3672L618.469 51H617ZM618.836 48.0156L619.281 46.8047H624.602L625.047 48.0156H618.836Z" fill="#A2A2A2"/>
<rect x="606" y="57" width="32" height="32" fill="#F9F9F9"/>
<rect x="606" y="57" width="32" height="32" stroke="#525252"/>
<path d="M617.535 75.0469V69.7344C617.535 68.2956 617.926 67.1465 618.707 66.2871C619.495 65.4277 620.585 64.998 621.979 64.998C623.359 64.998 624.443 65.4277 625.23 66.2871C626.025 67.1465 626.422 68.2956 626.422 69.7344V75.0469C626.422 76.4857 626.025 77.6348 625.23 78.4941C624.443 79.3535 623.359 79.7832 621.979 79.7832C620.585 79.7767 619.495 79.347 618.707 78.4941C617.926 77.6348 617.535 76.4857 617.535 75.0469ZM619.312 75.1445C619.312 76.082 619.531 76.847 619.967 77.4395C620.403 78.0254 621.074 78.3184 621.979 78.3184C622.877 78.3184 623.544 78.0254 623.98 77.4395C624.417 76.847 624.635 76.082 624.635 75.1445V69.6367C624.635 68.6992 624.417 67.9375 623.98 67.3516C623.544 66.7591 622.877 66.4629 621.979 66.4629C621.074 66.4629 620.403 66.7591 619.967 67.3516C619.531 67.9375 619.312 68.6992 619.312 69.6367V75.1445Z" fill="#262626"/>
<path d="M653.693 29V21.7285L651.49 22.6367V21.5234L654.637 20.3516H654.842V29H653.693Z" fill="#A2A2A2"/>
<path d="M650.312 51V39.625H653.977C655.19 39.625 656.122 39.9297 656.773 40.5391C657.43 41.1484 657.758 41.9557 657.758 42.9609C657.758 43.9714 657.43 44.7891 656.773 45.4141C656.122 46.0391 655.19 46.3516 653.977 46.3516H651.789V51H650.312ZM651.789 45.1484H653.977C654.841 45.1484 655.443 44.9375 655.781 44.5156C656.12 44.0885 656.289 43.5703 656.289 42.9609C656.289 42.3516 656.12 41.8438 655.781 41.4375C655.443 41.026 654.841 40.8203 653.977 40.8203H651.789V45.1484ZM656.719 51L653.938 45.75L655.398 45.5312L658.359 51H656.719Z" fill="#A2A2A2"/>
<rect x="638" y="57" width="32" height="32" fill="#F9F9F9"/>
<rect x="638" y="57" width="32" height="32" stroke="#525252"/>
<path d="M649.535 75.0469V69.7344C649.535 68.2956 649.926 67.1465 650.707 66.2871C651.495 65.4277 652.585 64.998 653.979 64.998C655.359 64.998 656.443 65.4277 657.23 66.2871C658.025 67.1465 658.422 68.2956 658.422 69.7344V75.0469C658.422 76.4857 658.025 77.6348 657.23 78.4941C656.443 79.3535 655.359 79.7832 653.979 79.7832C652.585 79.7767 651.495 79.347 650.707 78.4941C649.926 77.6348 649.535 76.4857 649.535 75.0469ZM651.312 75.1445C651.312 76.082 651.531 76.847 651.967 77.4395C652.403 78.0254 653.074 78.3184 653.979 78.3184C654.877 78.3184 655.544 78.0254 655.98 77.4395C656.417 76.847 656.635 76.082 656.635 75.1445V69.6367C656.635 68.6992 656.417 67.9375 655.98 67.3516C655.544 66.7591 654.877 66.4629 653.979 66.4629C653.074 66.4629 652.403 66.7591 651.967 67.3516C651.531 67.9375 651.312 68.6992 651.312 69.6367V75.1445Z" fill="#262626"/>
<path d="M683.121 29V28.1445L686.244 24.8809C686.65 24.4629 686.959 24.0898 687.17 23.7617C687.385 23.4297 687.492 23.0703 687.492 22.6836C687.492 22.2969 687.357 21.9609 687.088 21.6758C686.818 21.3906 686.443 21.248 685.963 21.248C685.482 21.248 685.078 21.4023 684.75 21.7109C684.422 22.0156 684.258 22.4375 684.258 22.9766V23.0352H683.115V22.9766C683.115 22.1953 683.387 21.5527 683.93 21.0488C684.477 20.5449 685.154 20.293 685.963 20.293C686.764 20.293 687.408 20.5254 687.896 20.9902C688.389 21.4551 688.635 22 688.635 22.625C688.635 23.1836 688.477 23.6895 688.16 24.1426C687.844 24.5918 687.455 25.0508 686.994 25.5195L684.562 28.0156H688.869V29H683.121Z" fill="#A2A2A2"/>
<path d="M681 51L685.281 39.5469H686.625L690.906 51H689.375L686.266 42.3672C686.203 42.1901 686.148 42.0234 686.102 41.8672C686.055 41.7057 686.013 41.5365 685.977 41.3594H685.898C685.862 41.5365 685.82 41.7057 685.773 41.8672C685.727 42.0234 685.672 42.1901 685.609 42.3672L682.469 51H681ZM682.836 48.0156L683.281 46.8047H688.602L689.047 48.0156H682.836Z" fill="#A2A2A2"/>
<rect x="670" y="57" width="32" height="32" fill="#F9F9F9"/>
<rect x="670" y="57" width="32" height="32" stroke="#525252"/>
<path d="M685.637 79.5V67.2051L682.072 68.6699V66.9609L687.072 65.0859H687.404V79.5H685.637Z" fill="#262626"/>
<path d="M714.939 26.7617V26.7031H716.059V26.7617C716.059 27.2266 716.217 27.5879 716.533 27.8457C716.854 28.0996 717.277 28.2266 717.805 28.2266C718.332 28.2266 718.754 28.0996 719.07 27.8457C719.387 27.5879 719.545 27.1875 719.545 26.6445C719.545 26.1055 719.367 25.6992 719.012 25.4258C718.656 25.1523 718.18 25.0156 717.582 25.0156H716.885V24.0898H717.523C718.074 24.0898 718.498 23.9609 718.795 23.7031C719.096 23.4453 719.246 23.084 719.246 22.6191C719.246 22.1582 719.115 21.8145 718.854 21.5879C718.596 21.3574 718.246 21.2422 717.805 21.2422C717.352 21.2422 716.986 21.3574 716.709 21.5879C716.436 21.8145 716.299 22.1406 716.299 22.5664V22.625H715.18V22.5664C715.18 21.9375 715.424 21.4023 715.912 20.9609C716.4 20.5156 717.031 20.293 717.805 20.293C718.566 20.293 719.189 20.5039 719.674 20.9258C720.158 21.3477 720.4 21.8926 720.4 22.5605C720.4 22.9512 720.291 23.3262 720.072 23.6855C719.854 24.041 719.514 24.3164 719.053 24.5117V24.5352C719.553 24.6602 719.953 24.9082 720.254 25.2793C720.555 25.6504 720.705 26.1055 720.705 26.6445C720.705 27.4336 720.432 28.0527 719.885 28.502C719.338 28.9512 718.645 29.1758 717.805 29.1758C716.938 29.1758 716.242 28.9512 715.719 28.502C715.199 28.0488 714.939 27.4688 714.939 26.7617Z" fill="#A2A2A2"/>
<path d="M713.312 51V39.625H714.852L719.984 47.6484C720.089 47.8047 720.185 47.9609 720.273 48.1172C720.362 48.2734 720.438 48.4167 720.5 48.5469H720.562C720.557 48.3906 720.552 48.2161 720.547 48.0234C720.547 47.8255 720.547 47.6484 720.547 47.4922V39.625H721.984V51H720.453L715.312 42.9766C715.214 42.8203 715.12 42.6641 715.031 42.5078C714.943 42.3516 714.862 42.2057 714.789 42.0703H714.734C714.74 42.2318 714.742 42.4115 714.742 42.6094C714.747 42.8021 714.75 42.9766 714.75 43.1328V51H713.312Z" fill="#A2A2A2"/>
<rect x="702" y="57" width="32" height="32" fill="#F9F9F9"/>
<rect x="702" y="57" width="32" height="32" stroke="#525252"/>
<path d="M713.535 75.0469V69.7344C713.535 68.2956 713.926 67.1465 714.707 66.2871C715.495 65.4277 716.585 64.998 717.979 64.998C719.359 64.998 720.443 65.4277 721.23 66.2871C722.025 67.1465 722.422 68.2956 722.422 69.7344V75.0469C722.422 76.4857 722.025 77.6348 721.23 78.4941C720.443 79.3535 719.359 79.7832 717.979 79.7832C716.585 79.7767 715.495 79.347 714.707 78.4941C713.926 77.6348 713.535 76.4857 713.535 75.0469ZM715.312 75.1445C715.312 76.082 715.531 76.847 715.967 77.4395C716.403 78.0254 717.074 78.3184 717.979 78.3184C718.877 78.3184 719.544 78.0254 719.98 77.4395C720.417 76.847 720.635 76.082 720.635 75.1445V69.6367C720.635 68.6992 720.417 67.9375 719.98 67.3516C719.544 66.7591 718.877 66.4629 717.979 66.4629C717.074 66.4629 716.403 66.7591 715.967 67.3516C715.531 67.9375 715.312 68.6992 715.312 69.6367V75.1445Z" fill="#262626"/>
<path d="M750.801 29V26.668V26.3633V22.2383H750.73L748.088 26.0527H751.088H751.545H753.098V27.002H746.775V26.2285L750.836 20.4688H751.885V29H750.801Z" fill="#A2A2A2"/>
<path d="M745.312 51V39.625H746.789V44.5234H752.508V39.625H753.977V51H752.508V45.7422H746.789V51H745.312Z" fill="#A2A2A2"/>
<rect x="734" y="57" width="32" height="32" fill="#F9F9F9"/>
<rect x="734" y="57" width="32" height="32" stroke="#525252"/>
<path d="M745.535 75.0469V69.7344C745.535 68.2956 745.926 67.1465 746.707 66.2871C747.495 65.4277 748.585 64.998 749.979 64.998C751.359 64.998 752.443 65.4277 753.23 66.2871C754.025 67.1465 754.422 68.2956 754.422 69.7344V75.0469C754.422 76.4857 754.025 77.6348 753.23 78.4941C752.443 79.3535 751.359 79.7832 749.979 79.7832C748.585 79.7767 747.495 79.347 746.707 78.4941C745.926 77.6348 745.535 76.4857 745.535 75.0469ZM747.312 75.1445C747.312 76.082 747.531 76.847 747.967 77.4395C748.403 78.0254 749.074 78.3184 749.979 78.3184C750.877 78.3184 751.544 78.0254 751.98 77.4395C752.417 76.847 752.635 76.082 752.635 75.1445V69.6367C752.635 68.6992 752.417 67.9375 751.98 67.3516C751.544 66.7591 750.877 66.4629 749.979 66.4629C749.074 66.4629 748.403 66.7591 747.967 67.3516C747.531 67.9375 747.312 68.6992 747.312 69.6367V75.1445Z" fill="#262626"/>
<path d="M779.057 26.8496V26.791H780.164V26.8496C780.164 27.2754 780.318 27.6113 780.627 27.8574C780.939 28.1035 781.355 28.2266 781.875 28.2266C782.395 28.2266 782.82 28.0566 783.152 27.7168C783.484 27.373 783.65 26.8926 783.65 26.2754C783.65 25.6582 783.484 25.1875 783.152 24.8633C782.82 24.5391 782.395 24.377 781.875 24.377C781.52 24.377 781.205 24.4414 780.932 24.5703C780.658 24.6992 780.402 24.8809 780.164 25.1152L779.355 24.7285L779.789 20.4688H784.336V21.4941H780.727L780.475 23.8789C780.67 23.7578 780.902 23.6523 781.172 23.5625C781.445 23.4688 781.742 23.4219 782.062 23.4219C782.82 23.4219 783.463 23.6738 783.99 24.1777C784.521 24.6777 784.787 25.377 784.787 26.2754C784.787 27.1738 784.512 27.8828 783.961 28.4023C783.41 28.918 782.715 29.1758 781.875 29.1758C781 29.1758 780.311 28.9551 779.807 28.5137C779.307 28.0723 779.057 27.5176 779.057 26.8496Z" fill="#A2A2A2"/>
<path d="M777 51L781.281 39.5469H782.625L786.906 51H785.375L782.266 42.3672C782.203 42.1901 782.148 42.0234 782.102 41.8672C782.055 41.7057 782.013 41.5365 781.977 41.3594H781.898C781.862 41.5365 781.82 41.7057 781.773 41.8672C781.727 42.0234 781.672 42.1901 781.609 42.3672L778.469 51H777ZM778.836 48.0156L779.281 46.8047H784.602L785.047 48.0156H778.836Z" fill="#A2A2A2"/>
<rect x="766" y="57" width="32" height="32" fill="#F9F9F9"/>
<rect x="766" y="57" width="32" height="32" stroke="#525252"/>
<path d="M781.637 79.5V67.2051L778.072 68.6699V66.9609L783.072 65.0859H783.404V79.5H781.637Z" fill="#262626"/>
<path d="M138.121 290.24V287.229C138.121 286.35 138.367 285.641 138.859 285.102C139.355 284.562 140.043 284.293 140.922 284.293C141.793 284.293 142.479 284.562 142.979 285.102C143.479 285.641 143.729 286.35 143.729 287.229V290.24C143.729 291.123 143.479 291.834 142.979 292.373C142.479 292.908 141.793 293.176 140.922 293.176C140.043 293.176 139.355 292.908 138.859 292.373C138.367 291.834 138.121 291.123 138.121 290.24ZM139.281 290.299C139.281 290.857 139.414 291.318 139.68 291.682C139.949 292.041 140.363 292.221 140.922 292.221C141.48 292.221 141.895 292.041 142.164 291.682C142.434 291.318 142.568 290.857 142.568 290.299V287.17C142.568 286.611 142.434 286.152 142.164 285.793C141.895 285.43 141.48 285.248 140.922 285.248C140.363 285.248 139.949 285.43 139.68 285.793C139.414 286.152 139.281 286.611 139.281 287.17V290.299Z" fill="#A2A2A2"/>
<rect x="125" y="298" width="32" height="32" fill="#F9F9F9"/>
<rect x="125" y="298" width="32" height="32" stroke="#525252"/>
<path d="M134.49 320.5L139.744 306.193H141.404L146.658 320.5H144.822L140.955 309.602C140.877 309.38 140.809 309.169 140.75 308.967C140.698 308.765 140.646 308.557 140.594 308.342H140.506C140.454 308.557 140.398 308.765 140.34 308.967C140.281 309.169 140.213 309.38 140.135 309.602L136.248 320.5H134.49ZM136.727 316.74L137.264 315.285H143.855L144.383 316.74H136.727Z" fill="#262626"/>
<path d="M172.693 293V285.729L170.49 286.637V285.523L173.637 284.352H173.842V293H172.693Z" fill="#A2A2A2"/>
<rect x="157" y="298" width="32" height="32" fill="#F9F9F9"/>
<rect x="157" y="298" width="32" height="32" stroke="#525252"/>
<path d="M202.121 293V292.145L205.244 288.881C205.65 288.463 205.959 288.09 206.17 287.762C206.385 287.43 206.492 287.07 206.492 286.684C206.492 286.297 206.357 285.961 206.088 285.676C205.818 285.391 205.443 285.248 204.963 285.248C204.482 285.248 204.078 285.402 203.75 285.711C203.422 286.016 203.258 286.438 203.258 286.977V287.035H202.115V286.977C202.115 286.195 202.387 285.553 202.93 285.049C203.477 284.545 204.154 284.293 204.963 284.293C205.764 284.293 206.408 284.525 206.896 284.99C207.389 285.455 207.635 286 207.635 286.625C207.635 287.184 207.477 287.689 207.16 288.143C206.844 288.592 206.455 289.051 205.994 289.52L203.562 292.016H207.869V293H202.121Z" fill="#A2A2A2"/>
<rect x="189" y="298" width="32" height="32" fill="#F9F9F9"/>
<rect x="189" y="298" width="32" height="32" stroke="#525252"/>
<path d="M198.49 320.5L203.744 306.193H205.404L210.658 320.5H208.822L204.955 309.602C204.877 309.38 204.809 309.169 204.75 308.967C204.698 308.765 204.646 308.557 204.594 308.342H204.506C204.454 308.557 204.398 308.765 204.34 308.967C204.281 309.169 204.213 309.38 204.135 309.602L200.248 320.5H198.49ZM200.727 316.74L201.264 315.285H207.855L208.383 316.74H200.727Z" fill="#262626"/>
<path d="M233.939 290.762V290.703H235.059V290.762C235.059 291.227 235.217 291.588 235.533 291.846C235.854 292.1 236.277 292.227 236.805 292.227C237.332 292.227 237.754 292.1 238.07 291.846C238.387 291.588 238.545 291.188 238.545 290.645C238.545 290.105 238.367 289.699 238.012 289.426C237.656 289.152 237.18 289.016 236.582 289.016H235.885V288.09H236.523C237.074 288.09 237.498 287.961 237.795 287.703C238.096 287.445 238.246 287.084 238.246 286.619C238.246 286.158 238.115 285.814 237.854 285.588C237.596 285.357 237.246 285.242 236.805 285.242C236.352 285.242 235.986 285.357 235.709 285.588C235.436 285.814 235.299 286.141 235.299 286.566V286.625H234.18V286.566C234.18 285.938 234.424 285.402 234.912 284.961C235.4 284.516 236.031 284.293 236.805 284.293C237.566 284.293 238.189 284.504 238.674 284.926C239.158 285.348 239.4 285.893 239.4 286.561C239.4 286.951 239.291 287.326 239.072 287.686C238.854 288.041 238.514 288.316 238.053 288.512V288.535C238.553 288.66 238.953 288.908 239.254 289.279C239.555 289.65 239.705 290.105 239.705 290.645C239.705 291.434 239.432 292.053 238.885 292.502C238.338 292.951 237.645 293.176 236.805 293.176C235.938 293.176 235.242 292.951 234.719 292.502C234.199 292.049 233.939 291.469 233.939 290.762Z" fill="#A2A2A2"/>
<rect x="221" y="298" width="32" height="32" fill="#F9F9F9"/>
<rect x="221" y="298" width="32" height="32" stroke="#525252"/>
<path d="M232.611 320.5V306.281H237.094C238.585 306.281 239.73 306.662 240.531 307.424C241.339 308.179 241.742 309.185 241.742 310.441C241.742 311.698 241.339 312.717 240.531 313.498C239.73 314.273 238.585 314.66 237.094 314.66H234.379V320.5H232.611ZM234.379 313.205H237.094C238.168 313.205 238.917 312.938 239.34 312.404C239.763 311.87 239.975 311.216 239.975 310.441C239.975 309.667 239.763 309.022 239.34 308.508C238.917 307.987 238.168 307.727 237.094 307.727H234.379V313.205ZM240.502 320.5L237.025 313.938L238.793 313.674L242.475 320.5H240.502Z" fill="#262626"/>
<path d="M269.801 293V290.668V290.363V286.238H269.73L267.088 290.053H270.088H270.545H272.098V291.002H265.775V290.229L269.836 284.469H270.885V293H269.801Z" fill="#A2A2A2"/>
<rect x="253" y="298" width="32" height="32" fill="#F9F9F9"/>
<rect x="253" y="298" width="32" height="32" stroke="#525252"/>
<path d="M262.49 320.5L267.744 306.193H269.404L274.658 320.5H272.822L268.955 309.602C268.877 309.38 268.809 309.169 268.75 308.967C268.698 308.765 268.646 308.557 268.594 308.342H268.506C268.454 308.557 268.398 308.765 268.34 308.967C268.281 309.169 268.213 309.38 268.135 309.602L264.248 320.5H262.49ZM264.727 316.74L265.264 315.285H271.855L272.383 316.74H264.727Z" fill="#262626"/>
<path d="M298.057 290.85V290.791H299.164V290.85C299.164 291.275 299.318 291.611 299.627 291.857C299.939 292.104 300.355 292.227 300.875 292.227C301.395 292.227 301.82 292.057 302.152 291.717C302.484 291.373 302.65 290.893 302.65 290.275C302.65 289.658 302.484 289.188 302.152 288.863C301.82 288.539 301.395 288.377 300.875 288.377C300.52 288.377 300.205 288.441 299.932 288.57C299.658 288.699 299.402 288.881 299.164 289.115L298.355 288.729L298.789 284.469H303.336V285.494H299.727L299.475 287.879C299.67 287.758 299.902 287.652 300.172 287.562C300.445 287.469 300.742 287.422 301.062 287.422C301.82 287.422 302.463 287.674 302.99 288.178C303.521 288.678 303.787 289.377 303.787 290.275C303.787 291.174 303.512 291.883 302.961 292.402C302.41 292.918 301.715 293.176 300.875 293.176C300 293.176 299.311 292.955 298.807 292.514C298.307 292.072 298.057 291.518 298.057 290.85Z" fill="#A2A2A2"/>
<rect x="285" y="298" width="32" height="32" fill="#F9F9F9"/>
<rect x="285" y="298" width="32" height="32" stroke="#525252"/>
<path d="M295.611 320.5V306.281H297.467L303.834 316.438C303.964 316.633 304.085 316.831 304.195 317.033C304.306 317.229 304.397 317.411 304.469 317.58H304.547C304.54 317.378 304.534 317.157 304.527 316.916C304.527 316.669 304.527 316.447 304.527 316.252V306.281H306.246V320.5H304.4L298.014 310.334C297.89 310.139 297.773 309.943 297.662 309.748C297.558 309.546 297.464 309.361 297.379 309.191H297.311C297.317 309.393 297.32 309.618 297.32 309.865C297.327 310.106 297.33 310.327 297.33 310.529V320.5H295.611Z" fill="#262626"/>
<path d="M329.986 289.402V289.227C329.986 287.742 330.396 286.549 331.217 285.646C332.041 284.744 333.213 284.293 334.732 284.293H334.855V285.248H334.732C333.615 285.248 332.732 285.562 332.084 286.191C331.436 286.82 331.111 287.812 331.111 289.168V289.461C331.111 290.469 331.295 291.182 331.662 291.6C332.029 292.018 332.492 292.227 333.051 292.227C333.609 292.227 334.041 292.057 334.346 291.717C334.654 291.377 334.809 290.898 334.809 290.281C334.809 289.664 334.654 289.188 334.346 288.852C334.041 288.516 333.609 288.348 333.051 288.348C332.531 288.348 332.072 288.516 331.674 288.852C331.275 289.188 331.076 289.664 331.076 290.281H330.654C330.654 289.418 330.895 288.721 331.375 288.189C331.855 287.658 332.494 287.393 333.291 287.393C334.092 287.393 334.734 287.658 335.219 288.189C335.707 288.721 335.951 289.418 335.951 290.281C335.951 291.141 335.678 291.838 335.131 292.373C334.584 292.908 333.891 293.176 333.051 293.176C332.211 293.176 331.49 292.879 330.889 292.285C330.287 291.691 329.986 290.73 329.986 289.402Z" fill="#A2A2A2"/>
<rect x="317" y="298" width="32" height="32" fill="#F9F9F9"/>
<rect x="317" y="298" width="32" height="32" stroke="#525252"/>
<path d="M327.611 320.5V306.281H329.379V312.434H336.488V306.281H338.256V320.5H336.488V313.898H329.379V320.5H327.611Z" fill="#262626"/>
<path d="M363.24 293L366.551 285.441H361.939V284.469H367.758V285.113L364.418 293H363.24Z" fill="#A2A2A2"/>
<rect x="349" y="298" width="32" height="32" fill="#F9F9F9"/>
<rect x="349" y="298" width="32" height="32" stroke="#525252"/>
<path d="M358.49 320.5L363.744 306.193H365.404L370.658 320.5H368.822L364.955 309.602C364.877 309.38 364.809 309.169 364.75 308.967C364.698 308.765 364.646 308.557 364.594 308.342H364.506C364.454 308.557 364.398 308.765 364.34 308.967C364.281 309.169 364.213 309.38 364.135 309.602L360.248 320.5H358.49ZM360.727 316.74L361.264 315.285H367.855L368.383 316.74H360.727Z" fill="#262626"/>
<path d="M394.08 290.738C394.08 290.23 394.223 289.797 394.508 289.438C394.793 289.078 395.158 288.811 395.604 288.635V288.611C395.26 288.443 394.965 288.189 394.719 287.85C394.477 287.506 394.355 287.1 394.355 286.631C394.355 285.928 394.604 285.363 395.1 284.938C395.6 284.508 396.209 284.293 396.928 284.293C397.646 284.293 398.252 284.506 398.744 284.932C399.24 285.357 399.488 285.924 399.488 286.631C399.488 287.1 399.367 287.506 399.125 287.85C398.883 288.189 398.59 288.443 398.246 288.611V288.635C398.691 288.811 399.055 289.078 399.336 289.438C399.621 289.797 399.764 290.23 399.764 290.738C399.764 291.512 399.49 292.111 398.943 292.537C398.396 292.963 397.725 293.176 396.928 293.176C396.131 293.176 395.457 292.963 394.906 292.537C394.355 292.111 394.08 291.512 394.08 290.738ZM395.211 290.674C395.211 291.139 395.367 291.514 395.68 291.799C395.996 292.084 396.412 292.227 396.928 292.227C397.443 292.227 397.857 292.084 398.17 291.799C398.482 291.514 398.639 291.139 398.639 290.674C398.639 290.209 398.482 289.832 398.17 289.543C397.857 289.254 397.443 289.109 396.928 289.109C396.412 289.109 395.996 289.254 395.68 289.543C395.367 289.832 395.211 290.209 395.211 290.674ZM395.463 286.695C395.463 287.121 395.598 287.473 395.867 287.75C396.137 288.023 396.49 288.16 396.928 288.16C397.365 288.16 397.717 288.023 397.982 287.75C398.252 287.473 398.387 287.121 398.387 286.695C398.387 286.27 398.252 285.922 397.982 285.652C397.717 285.379 397.365 285.242 396.928 285.242C396.49 285.242 396.137 285.379 395.867 285.652C395.598 285.922 395.463 286.27 395.463 286.695Z" fill="#A2A2A2"/>
<rect x="381" y="298" width="32" height="32" fill="#F9F9F9"/>
<rect x="381" y="298" width="32" height="32" stroke="#525252"/>
<path d="M425.893 287.129C425.893 286.285 426.166 285.602 426.713 285.078C427.264 284.555 427.957 284.293 428.793 284.293C429.633 284.293 430.354 284.59 430.955 285.184C431.561 285.777 431.863 286.738 431.863 288.066V288.242C431.863 289.656 431.451 290.812 430.627 291.711C429.807 292.609 428.637 293.059 427.117 293.059H426.994V292.104H427.111C428.232 292.104 429.115 291.791 429.76 291.166C430.408 290.541 430.732 289.586 430.732 288.301V288.008C430.732 287 430.549 286.287 430.182 285.869C429.814 285.451 429.352 285.242 428.793 285.242C428.234 285.242 427.801 285.408 427.492 285.74C427.188 286.068 427.035 286.531 427.035 287.129C427.035 287.727 427.188 288.189 427.492 288.518C427.801 288.842 428.234 289.004 428.793 289.004C429.312 289.004 429.771 288.842 430.17 288.518C430.568 288.189 430.768 287.727 430.768 287.129H431.189C431.189 287.977 430.949 288.66 430.469 289.18C429.992 289.699 429.354 289.959 428.553 289.959C427.76 289.959 427.117 289.699 426.625 289.18C426.137 288.66 425.893 287.977 425.893 287.129Z" fill="#A2A2A2"/>
<rect x="413" y="298" width="32" height="32" fill="#F9F9F9"/>
<rect x="413" y="298" width="32" height="32" stroke="#525252"/>
<path d="M422.49 320.5L427.744 306.193H429.404L434.658 320.5H432.822L428.955 309.602C428.877 309.38 428.809 309.169 428.75 308.967C428.698 308.765 428.646 308.557 428.594 308.342H428.506C428.454 308.557 428.398 308.765 428.34 308.967C428.281 309.169 428.213 309.38 428.135 309.602L424.248 320.5H422.49ZM424.727 316.74L425.264 315.285H431.855L432.383 316.74H424.727Z" fill="#262626"/>
<path d="M457.193 293V285.729L454.99 286.637V285.523L458.137 284.352H458.342V293H457.193ZM461.465 290.24V287.229C461.465 286.35 461.711 285.641 462.203 285.102C462.699 284.562 463.387 284.293 464.266 284.293C465.137 284.293 465.822 284.562 466.322 285.102C466.822 285.641 467.072 286.35 467.072 287.229V290.24C467.072 291.123 466.822 291.834 466.322 292.373C465.822 292.908 465.137 293.176 464.266 293.176C463.387 293.176 462.699 292.908 462.203 292.373C461.711 291.834 461.465 291.123 461.465 290.24ZM462.625 290.299C462.625 290.857 462.758 291.318 463.023 291.682C463.293 292.041 463.707 292.221 464.266 292.221C464.824 292.221 465.238 292.041 465.508 291.682C465.777 291.318 465.912 290.857 465.912 290.299V287.17C465.912 286.611 465.777 286.152 465.508 285.793C465.238 285.43 464.824 285.248 464.266 285.248C463.707 285.248 463.293 285.43 463.023 285.793C462.758 286.152 462.625 286.611 462.625 287.17V290.299Z" fill="#A2A2A2"/>
<rect x="445" y="298" width="32" height="32" fill="#F9F9F9"/>
<rect x="445" y="298" width="32" height="32" stroke="#525252"/>
<path d="M456.611 320.5V306.281H461.094C462.585 306.281 463.73 306.662 464.531 307.424C465.339 308.179 465.742 309.185 465.742 310.441C465.742 311.698 465.339 312.717 464.531 313.498C463.73 314.273 462.585 314.66 461.094 314.66H458.379V320.5H456.611ZM458.379 313.205H461.094C462.168 313.205 462.917 312.938 463.34 312.404C463.763 311.87 463.975 311.216 463.975 310.441C463.975 309.667 463.763 309.022 463.34 308.508C462.917 307.987 462.168 307.727 461.094 307.727H458.379V313.205ZM464.502 320.5L461.025 313.938L462.793 313.674L466.475 320.5H464.502Z" fill="#262626"/>
<path d="M489.193 293V285.729L486.99 286.637V285.523L490.137 284.352H490.342V293H489.193ZM496.037 293V285.729L493.834 286.637V285.523L496.98 284.352H497.186V293H496.037Z" fill="#A2A2A2"/>
<rect x="477" y="298" width="32" height="32" fill="#F9F9F9"/>
<rect x="477" y="298" width="32" height="32" stroke="#525252"/>
<path d="M488.611 320.5V306.281H493.094C494.585 306.281 495.73 306.662 496.531 307.424C497.339 308.179 497.742 309.185 497.742 310.441C497.742 311.698 497.339 312.717 496.531 313.498C495.73 314.273 494.585 314.66 493.094 314.66H490.379V320.5H488.611ZM490.379 313.205H493.094C494.168 313.205 494.917 312.938 495.34 312.404C495.763 311.87 495.975 311.216 495.975 310.441C495.975 309.667 495.763 309.022 495.34 308.508C494.917 307.987 494.168 307.727 493.094 307.727H490.379V313.205ZM496.502 320.5L493.025 313.938L494.793 313.674L498.475 320.5H496.502Z" fill="#262626"/>
<path d="M521.193 293V285.729L518.99 286.637V285.523L522.137 284.352H522.342V293H521.193ZM525.465 293V292.145L528.588 288.881C528.994 288.463 529.303 288.09 529.514 287.762C529.729 287.43 529.836 287.07 529.836 286.684C529.836 286.297 529.701 285.961 529.432 285.676C529.162 285.391 528.787 285.248 528.307 285.248C527.826 285.248 527.422 285.402 527.094 285.711C526.766 286.016 526.602 286.438 526.602 286.977V287.035H525.459V286.977C525.459 286.195 525.73 285.553 526.273 285.049C526.82 284.545 527.498 284.293 528.307 284.293C529.107 284.293 529.752 284.525 530.24 284.99C530.732 285.455 530.979 286 530.979 286.625C530.979 287.184 530.82 287.689 530.504 288.143C530.188 288.592 529.799 289.051 529.338 289.52L526.906 292.016H531.213V293H525.465Z" fill="#A2A2A2"/>
<rect x="509" y="298" width="32" height="32" fill="#F9F9F9"/>
<rect x="509" y="298" width="32" height="32" stroke="#525252"/>
<path d="M518.49 320.5L523.744 306.193H525.404L530.658 320.5H528.822L524.955 309.602C524.877 309.38 524.809 309.169 524.75 308.967C524.698 308.765 524.646 308.557 524.594 308.342H524.506C524.454 308.557 524.398 308.765 524.34 308.967C524.281 309.169 524.213 309.38 524.135 309.602L520.248 320.5H518.49ZM520.727 316.74L521.264 315.285H527.855L528.383 316.74H520.727Z" fill="#262626"/>
<path d="M553.193 293V285.729L550.99 286.637V285.523L554.137 284.352H554.342V293H553.193ZM557.283 290.762V290.703H558.402V290.762C558.402 291.227 558.561 291.588 558.877 291.846C559.197 292.1 559.621 292.227 560.148 292.227C560.676 292.227 561.098 292.1 561.414 291.846C561.73 291.588 561.889 291.188 561.889 290.645C561.889 290.105 561.711 289.699 561.355 289.426C561 289.152 560.523 289.016 559.926 289.016H559.229V288.09H559.867C560.418 288.09 560.842 287.961 561.139 287.703C561.439 287.445 561.59 287.084 561.59 286.619C561.59 286.158 561.459 285.814 561.197 285.588C560.939 285.357 560.59 285.242 560.148 285.242C559.695 285.242 559.33 285.357 559.053 285.588C558.779 285.814 558.643 286.141 558.643 286.566V286.625H557.523V286.566C557.523 285.938 557.768 285.402 558.256 284.961C558.744 284.516 559.375 284.293 560.148 284.293C560.91 284.293 561.533 284.504 562.018 284.926C562.502 285.348 562.744 285.893 562.744 286.561C562.744 286.951 562.635 287.326 562.416 287.686C562.197 288.041 561.857 288.316 561.396 288.512V288.535C561.896 288.66 562.297 288.908 562.598 289.279C562.898 289.65 563.049 290.105 563.049 290.645C563.049 291.434 562.775 292.053 562.229 292.502C561.682 292.951 560.988 293.176 560.148 293.176C559.281 293.176 558.586 292.951 558.062 292.502C557.543 292.049 557.283 291.469 557.283 290.762Z" fill="#A2A2A2"/>
<rect x="541" y="298" width="32" height="32" fill="#F9F9F9"/>
<rect x="541" y="298" width="32" height="32" stroke="#525252"/>
<path d="M551.611 320.5V306.281H553.467L559.834 316.438C559.964 316.633 560.085 316.831 560.195 317.033C560.306 317.229 560.397 317.411 560.469 317.58H560.547C560.54 317.378 560.534 317.157 560.527 316.916C560.527 316.669 560.527 316.447 560.527 316.252V306.281H562.246V320.5H560.4L554.014 310.334C553.89 310.139 553.773 309.943 553.662 309.748C553.558 309.546 553.464 309.361 553.379 309.191H553.311C553.317 309.393 553.32 309.618 553.32 309.865C553.327 310.106 553.33 310.327 553.33 310.529V320.5H551.611Z" fill="#262626"/>
<path d="M585.193 293V285.729L582.99 286.637V285.523L586.137 284.352H586.342V293H585.193ZM593.145 293V290.668V290.363V286.238H593.074L590.432 290.053H593.432H593.889H595.441V291.002H589.119V290.229L593.18 284.469H594.229V293H593.145Z" fill="#A2A2A2"/>
<rect x="573" y="298" width="32" height="32" fill="#F9F9F9"/>
<rect x="573" y="298" width="32" height="32" stroke="#525252"/>
<path d="M583.611 320.5V306.281H585.379V312.434H592.488V306.281H594.256V320.5H592.488V313.898H585.379V320.5H583.611Z" fill="#262626"/>
<path d="M617.193 293V285.729L614.99 286.637V285.523L618.137 284.352H618.342V293H617.193ZM621.4 290.85V290.791H622.508V290.85C622.508 291.275 622.662 291.611 622.971 291.857C623.283 292.104 623.699 292.227 624.219 292.227C624.738 292.227 625.164 292.057 625.496 291.717C625.828 291.373 625.994 290.893 625.994 290.275C625.994 289.658 625.828 289.188 625.496 288.863C625.164 288.539 624.738 288.377 624.219 288.377C623.863 288.377 623.549 288.441 623.275 288.57C623.002 288.699 622.746 288.881 622.508 289.115L621.699 288.729L622.133 284.469H626.68V285.494H623.07L622.818 287.879C623.014 287.758 623.246 287.652 623.516 287.562C623.789 287.469 624.086 287.422 624.406 287.422C625.164 287.422 625.807 287.674 626.334 288.178C626.865 288.678 627.131 289.377 627.131 290.275C627.131 291.174 626.855 291.883 626.305 292.402C625.754 292.918 625.059 293.176 624.219 293.176C623.344 293.176 622.654 292.955 622.15 292.514C621.65 292.072 621.4 291.518 621.4 290.85Z" fill="#A2A2A2"/>
<rect x="605" y="298" width="32" height="32" fill="#F9F9F9"/>
<rect x="605" y="298" width="32" height="32" stroke="#525252"/>
<path d="M614.49 320.5L619.744 306.193H621.404L626.658 320.5H624.822L620.955 309.602C620.877 309.38 620.809 309.169 620.75 308.967C620.698 308.765 620.646 308.557 620.594 308.342H620.506C620.454 308.557 620.398 308.765 620.34 308.967C620.281 309.169 620.213 309.38 620.135 309.602L616.248 320.5H614.49ZM616.727 316.74L617.264 315.285H623.855L624.383 316.74H616.727Z" fill="#262626"/>
<path d="M649.193 293V285.729L646.99 286.637V285.523L650.137 284.352H650.342V293H649.193ZM653.33 289.402V289.227C653.33 287.742 653.74 286.549 654.561 285.646C655.385 284.744 656.557 284.293 658.076 284.293H658.199V285.248H658.076C656.959 285.248 656.076 285.562 655.428 286.191C654.779 286.82 654.455 287.812 654.455 289.168V289.461C654.455 290.469 654.639 291.182 655.006 291.6C655.373 292.018 655.836 292.227 656.395 292.227C656.953 292.227 657.385 292.057 657.689 291.717C657.998 291.377 658.152 290.898 658.152 290.281C658.152 289.664 657.998 289.188 657.689 288.852C657.385 288.516 656.953 288.348 656.395 288.348C655.875 288.348 655.416 288.516 655.018 288.852C654.619 289.188 654.42 289.664 654.42 290.281H653.998C653.998 289.418 654.238 288.721 654.719 288.189C655.199 287.658 655.838 287.393 656.635 287.393C657.436 287.393 658.078 287.658 658.562 288.189C659.051 288.721 659.295 289.418 659.295 290.281C659.295 291.141 659.021 291.838 658.475 292.373C657.928 292.908 657.234 293.176 656.395 293.176C655.555 293.176 654.834 292.879 654.232 292.285C653.631 291.691 653.33 290.73 653.33 289.402Z" fill="#A2A2A2"/>
<rect x="637" y="298" width="32" height="32" fill="#F9F9F9"/>
<rect x="637" y="298" width="32" height="32" stroke="#525252"/>
<path d="M681.193 293V285.729L678.99 286.637V285.523L682.137 284.352H682.342V293H681.193ZM686.584 293L689.895 285.441H685.283V284.469H691.102V285.113L687.762 293H686.584Z" fill="#A2A2A2"/>
<rect x="669" y="298" width="32" height="32" fill="#F9F9F9"/>
<rect x="669" y="298" width="32" height="32" stroke="#525252"/>
<path d="M678.49 320.5L683.744 306.193H685.404L690.658 320.5H688.822L684.955 309.602C684.877 309.38 684.809 309.169 684.75 308.967C684.698 308.765 684.646 308.557 684.594 308.342H684.506C684.454 308.557 684.398 308.765 684.34 308.967C684.281 309.169 684.213 309.38 684.135 309.602L680.248 320.5H678.49ZM680.727 316.74L681.264 315.285H687.855L688.383 316.74H680.727Z" fill="#262626"/>
<path d="M713.193 293V285.729L710.99 286.637V285.523L714.137 284.352H714.342V293H713.193ZM717.424 290.738C717.424 290.23 717.566 289.797 717.852 289.438C718.137 289.078 718.502 288.811 718.947 288.635V288.611C718.604 288.443 718.309 288.189 718.062 287.85C717.82 287.506 717.699 287.1 717.699 286.631C717.699 285.928 717.947 285.363 718.443 284.938C718.943 284.508 719.553 284.293 720.271 284.293C720.99 284.293 721.596 284.506 722.088 284.932C722.584 285.357 722.832 285.924 722.832 286.631C722.832 287.1 722.711 287.506 722.469 287.85C722.227 288.189 721.934 288.443 721.59 288.611V288.635C722.035 288.811 722.398 289.078 722.68 289.438C722.965 289.797 723.107 290.23 723.107 290.738C723.107 291.512 722.834 292.111 722.287 292.537C721.74 292.963 721.068 293.176 720.271 293.176C719.475 293.176 718.801 292.963 718.25 292.537C717.699 292.111 717.424 291.512 717.424 290.738ZM718.555 290.674C718.555 291.139 718.711 291.514 719.023 291.799C719.34 292.084 719.756 292.227 720.271 292.227C720.787 292.227 721.201 292.084 721.514 291.799C721.826 291.514 721.982 291.139 721.982 290.674C721.982 290.209 721.826 289.832 721.514 289.543C721.201 289.254 720.787 289.109 720.271 289.109C719.756 289.109 719.34 289.254 719.023 289.543C718.711 289.832 718.555 290.209 718.555 290.674ZM718.807 286.695C718.807 287.121 718.941 287.473 719.211 287.75C719.48 288.023 719.834 288.16 720.271 288.16C720.709 288.16 721.061 288.023 721.326 287.75C721.596 287.473 721.73 287.121 721.73 286.695C721.73 286.27 721.596 285.922 721.326 285.652C721.061 285.379 720.709 285.242 720.271 285.242C719.834 285.242 719.48 285.379 719.211 285.652C718.941 285.922 718.807 286.27 718.807 286.695Z" fill="#A2A2A2"/>
<rect x="701" y="298" width="32" height="32" fill="#F9F9F9"/>
<rect x="701" y="298" width="32" height="32" stroke="#525252"/>
<path d="M745.193 293V285.729L742.99 286.637V285.523L746.137 284.352H746.342V293H745.193ZM749.236 287.129C749.236 286.285 749.51 285.602 750.057 285.078C750.607 284.555 751.301 284.293 752.137 284.293C752.977 284.293 753.697 284.59 754.299 285.184C754.904 285.777 755.207 286.738 755.207 288.066V288.242C755.207 289.656 754.795 290.812 753.971 291.711C753.15 292.609 751.98 293.059 750.461 293.059H750.338V292.104H750.455C751.576 292.104 752.459 291.791 753.104 291.166C753.752 290.541 754.076 289.586 754.076 288.301V288.008C754.076 287 753.893 286.287 753.525 285.869C753.158 285.451 752.695 285.242 752.137 285.242C751.578 285.242 751.145 285.408 750.836 285.74C750.531 286.068 750.379 286.531 750.379 287.129C750.379 287.727 750.531 288.189 750.836 288.518C751.145 288.842 751.578 289.004 752.137 289.004C752.656 289.004 753.115 288.842 753.514 288.518C753.912 288.189 754.111 287.727 754.111 287.129H754.533C754.533 287.977 754.293 288.66 753.812 289.18C753.336 289.699 752.697 289.959 751.896 289.959C751.104 289.959 750.461 289.699 749.969 289.18C749.48 288.66 749.236 287.977 749.236 287.129Z" fill="#A2A2A2"/>
<rect x="733" y="298" width="32" height="32" fill="#F9F9F9"/>
<rect x="733" y="298" width="32" height="32" stroke="#525252"/>
<path d="M743.744 316.604V316.477H745.512V316.574C745.512 317.453 745.74 318.124 746.195 318.586C746.651 319.042 747.286 319.27 748.1 319.27C748.913 319.27 749.548 319.019 750.004 318.518C750.466 318.016 750.697 317.284 750.697 316.32V306.281H752.465V316.33C752.465 317.71 752.064 318.798 751.264 319.592C750.469 320.386 749.415 320.783 748.1 320.783C746.798 320.783 745.746 320.412 744.945 319.67C744.145 318.921 743.744 317.899 743.744 316.604Z" fill="#262626"/>
<path d="M774.621 293V292.145L777.744 288.881C778.15 288.463 778.459 288.09 778.67 287.762C778.885 287.43 778.992 287.07 778.992 286.684C778.992 286.297 778.857 285.961 778.588 285.676C778.318 285.391 777.943 285.248 777.463 285.248C776.982 285.248 776.578 285.402 776.25 285.711C775.922 286.016 775.758 286.438 775.758 286.977V287.035H774.615V286.977C774.615 286.195 774.887 285.553 775.43 285.049C775.977 284.545 776.654 284.293 777.463 284.293C778.264 284.293 778.908 284.525 779.396 284.99C779.889 285.455 780.135 286 780.135 286.625C780.135 287.184 779.977 287.689 779.66 288.143C779.344 288.592 778.955 289.051 778.494 289.52L776.062 292.016H780.369V293H774.621ZM781.465 290.24V287.229C781.465 286.35 781.711 285.641 782.203 285.102C782.699 284.562 783.387 284.293 784.266 284.293C785.137 284.293 785.822 284.562 786.322 285.102C786.822 285.641 787.072 286.35 787.072 287.229V290.24C787.072 291.123 786.822 291.834 786.322 292.373C785.822 292.908 785.137 293.176 784.266 293.176C783.387 293.176 782.699 292.908 782.203 292.373C781.711 291.834 781.465 291.123 781.465 290.24ZM782.625 290.299C782.625 290.857 782.758 291.318 783.023 291.682C783.293 292.041 783.707 292.221 784.266 292.221C784.824 292.221 785.238 292.041 785.508 291.682C785.777 291.318 785.912 290.857 785.912 290.299V287.17C785.912 286.611 785.777 286.152 785.508 285.793C785.238 285.43 784.824 285.248 784.266 285.248C783.707 285.248 783.293 285.43 783.023 285.793C782.758 286.152 782.625 286.611 782.625 287.17V290.299Z" fill="#A2A2A2"/>
<rect x="765" y="298" width="32" height="32" fill="#F9F9F9"/>
<rect x="765" y="298" width="32" height="32" stroke="#525252"/>
<path d="M774.49 320.5L779.744 306.193H781.404L786.658 320.5H784.822L780.955 309.602C780.877 309.38 780.809 309.169 780.75 308.967C780.698 308.765 780.646 308.557 780.594 308.342H780.506C780.454 308.557 780.398 308.765 780.34 308.967C780.281 309.169 780.213 309.38 780.135 309.602L776.248 320.5H774.49ZM776.727 316.74L777.264 315.285H783.855L784.383 316.74H776.727Z" fill="#262626"/>
<path d="M806.621 293V292.145L809.744 288.881C810.15 288.463 810.459 288.09 810.67 287.762C810.885 287.43 810.992 287.07 810.992 286.684C810.992 286.297 810.857 285.961 810.588 285.676C810.318 285.391 809.943 285.248 809.463 285.248C808.982 285.248 808.578 285.402 808.25 285.711C807.922 286.016 807.758 286.438 807.758 286.977V287.035H806.615V286.977C806.615 286.195 806.887 285.553 807.43 285.049C807.977 284.545 808.654 284.293 809.463 284.293C810.264 284.293 810.908 284.525 811.396 284.99C811.889 285.455 812.135 286 812.135 286.625C812.135 287.184 811.977 287.689 811.66 288.143C811.344 288.592 810.955 289.051 810.494 289.52L808.062 292.016H812.369V293H806.621ZM816.037 293V285.729L813.834 286.637V285.523L816.98 284.352H817.186V293H816.037Z" fill="#A2A2A2"/>
<rect x="797" y="298" width="32" height="32" fill="#F9F9F9"/>
<rect x="797" y="298" width="32" height="32" stroke="#525252"/>
<path d="M808.611 320.5V306.281H813.094C814.585 306.281 815.73 306.662 816.531 307.424C817.339 308.179 817.742 309.185 817.742 310.441C817.742 311.698 817.339 312.717 816.531 313.498C815.73 314.273 814.585 314.66 813.094 314.66H810.379V320.5H808.611ZM810.379 313.205H813.094C814.168 313.205 814.917 312.938 815.34 312.404C815.763 311.87 815.975 311.216 815.975 310.441C815.975 309.667 815.763 309.022 815.34 308.508C814.917 307.987 814.168 307.727 813.094 307.727H810.379V313.205ZM816.502 320.5L813.025 313.938L814.793 313.674L818.475 320.5H816.502Z" fill="#262626"/>
<path d="M838.621 293V292.145L841.744 288.881C842.15 288.463 842.459 288.09 842.67 287.762C842.885 287.43 842.992 287.07 842.992 286.684C842.992 286.297 842.857 285.961 842.588 285.676C842.318 285.391 841.943 285.248 841.463 285.248C840.982 285.248 840.578 285.402 840.25 285.711C839.922 286.016 839.758 286.438 839.758 286.977V287.035H838.615V286.977C838.615 286.195 838.887 285.553 839.43 285.049C839.977 284.545 840.654 284.293 841.463 284.293C842.264 284.293 842.908 284.525 843.396 284.99C843.889 285.455 844.135 286 844.135 286.625C844.135 287.184 843.977 287.689 843.66 288.143C843.344 288.592 842.955 289.051 842.494 289.52L840.062 292.016H844.369V293H838.621ZM845.465 293V292.145L848.588 288.881C848.994 288.463 849.303 288.09 849.514 287.762C849.729 287.43 849.836 287.07 849.836 286.684C849.836 286.297 849.701 285.961 849.432 285.676C849.162 285.391 848.787 285.248 848.307 285.248C847.826 285.248 847.422 285.402 847.094 285.711C846.766 286.016 846.602 286.438 846.602 286.977V287.035H845.459V286.977C845.459 286.195 845.73 285.553 846.273 285.049C846.82 284.545 847.498 284.293 848.307 284.293C849.107 284.293 849.752 284.525 850.24 284.99C850.732 285.455 850.979 286 850.979 286.625C850.979 287.184 850.82 287.689 850.504 288.143C850.188 288.592 849.799 289.051 849.338 289.52L846.906 292.016H851.213V293H845.465Z" fill="#A2A2A2"/>
<rect x="829" y="298" width="32" height="32" fill="#F9F9F9"/>
<rect x="829" y="298" width="32" height="32" stroke="#525252"/>
<path d="M840.611 320.5V306.281H845.094C846.585 306.281 847.73 306.662 848.531 307.424C849.339 308.179 849.742 309.185 849.742 310.441C849.742 311.698 849.339 312.717 848.531 313.498C847.73 314.273 846.585 314.66 845.094 314.66H842.379V320.5H840.611ZM842.379 313.205H845.094C846.168 313.205 846.917 312.938 847.34 312.404C847.763 311.87 847.975 311.216 847.975 310.441C847.975 309.667 847.763 309.022 847.34 308.508C846.917 307.987 846.168 307.727 845.094 307.727H842.379V313.205ZM848.502 320.5L845.025 313.938L846.793 313.674L850.475 320.5H848.502Z" fill="#262626"/>
<path d="M870.621 293V292.145L873.744 288.881C874.15 288.463 874.459 288.09 874.67 287.762C874.885 287.43 874.992 287.07 874.992 286.684C874.992 286.297 874.857 285.961 874.588 285.676C874.318 285.391 873.943 285.248 873.463 285.248C872.982 285.248 872.578 285.402 872.25 285.711C871.922 286.016 871.758 286.438 871.758 286.977V287.035H870.615V286.977C870.615 286.195 870.887 285.553 871.43 285.049C871.977 284.545 872.654 284.293 873.463 284.293C874.264 284.293 874.908 284.525 875.396 284.99C875.889 285.455 876.135 286 876.135 286.625C876.135 287.184 875.977 287.689 875.66 288.143C875.344 288.592 874.955 289.051 874.494 289.52L872.062 292.016H876.369V293H870.621ZM877.283 290.762V290.703H878.402V290.762C878.402 291.227 878.561 291.588 878.877 291.846C879.197 292.1 879.621 292.227 880.148 292.227C880.676 292.227 881.098 292.1 881.414 291.846C881.73 291.588 881.889 291.188 881.889 290.645C881.889 290.105 881.711 289.699 881.355 289.426C881 289.152 880.523 289.016 879.926 289.016H879.229V288.09H879.867C880.418 288.09 880.842 287.961 881.139 287.703C881.439 287.445 881.59 287.084 881.59 286.619C881.59 286.158 881.459 285.814 881.197 285.588C880.939 285.357 880.59 285.242 880.148 285.242C879.695 285.242 879.33 285.357 879.053 285.588C878.779 285.814 878.643 286.141 878.643 286.566V286.625H877.523V286.566C877.523 285.938 877.768 285.402 878.256 284.961C878.744 284.516 879.375 284.293 880.148 284.293C880.91 284.293 881.533 284.504 882.018 284.926C882.502 285.348 882.744 285.893 882.744 286.561C882.744 286.951 882.635 287.326 882.416 287.686C882.197 288.041 881.857 288.316 881.396 288.512V288.535C881.896 288.66 882.297 288.908 882.598 289.279C882.898 289.65 883.049 290.105 883.049 290.645C883.049 291.434 882.775 292.053 882.229 292.502C881.682 292.951 880.988 293.176 880.148 293.176C879.281 293.176 878.586 292.951 878.062 292.502C877.543 292.049 877.283 291.469 877.283 290.762Z" fill="#A2A2A2"/>
<rect x="861" y="298" width="32" height="32" fill="#F9F9F9"/>
<rect x="861" y="298" width="32" height="32" stroke="#525252"/>
<path d="M870.49 320.5L875.744 306.193H877.404L882.658 320.5H880.822L876.955 309.602C876.877 309.38 876.809 309.169 876.75 308.967C876.698 308.765 876.646 308.557 876.594 308.342H876.506C876.454 308.557 876.398 308.765 876.34 308.967C876.281 309.169 876.213 309.38 876.135 309.602L872.248 320.5H870.49ZM872.727 316.74L873.264 315.285H879.855L880.383 316.74H872.727Z" fill="#262626"/>
<rect x="93" y="341" width="32" height="32" fill="#F9F9F9"/>
<rect x="93" y="341" width="32" height="32" stroke="#525252"/>
<path d="M104.535 359.047V353.734C104.535 352.296 104.926 351.146 105.707 350.287C106.495 349.428 107.585 348.998 108.979 348.998C110.359 348.998 111.443 349.428 112.23 350.287C113.025 351.146 113.422 352.296 113.422 353.734V359.047C113.422 360.486 113.025 361.635 112.23 362.494C111.443 363.354 110.359 363.783 108.979 363.783C107.585 363.777 106.495 363.347 105.707 362.494C104.926 361.635 104.535 360.486 104.535 359.047ZM106.312 359.145C106.312 360.082 106.531 360.847 106.967 361.439C107.403 362.025 108.074 362.318 108.979 362.318C109.877 362.318 110.544 362.025 110.98 361.439C111.417 360.847 111.635 360.082 111.635 359.145V353.637C111.635 352.699 111.417 351.938 110.98 351.352C110.544 350.759 109.877 350.463 108.979 350.463C108.074 350.463 107.403 350.759 106.967 351.352C106.531 351.938 106.312 352.699 106.312 353.637V359.145Z" fill="#262626"/>
<rect x="125" y="341" width="32" height="32" fill="#F9F9F9"/>
<rect x="125" y="341" width="32" height="32" stroke="#525252"/>
<rect x="157" y="341" width="32" height="32" fill="#F9F9F9"/>
<rect x="157" y="341" width="32" height="32" stroke="#525252"/>
<rect x="189" y="341" width="32" height="32" fill="#F9F9F9"/>
<rect x="189" y="341" width="32" height="32" stroke="#525252"/>
<rect x="221" y="341" width="32" height="32" fill="#F9F9F9"/>
<rect x="221" y="341" width="32" height="32" stroke="#525252"/>
<rect x="253" y="341" width="32" height="32" fill="#F9F9F9"/>
<rect x="253" y="341" width="32" height="32" stroke="#525252"/>
<rect x="285" y="341" width="32" height="32" fill="#F9F9F9"/>
<rect x="285" y="341" width="32" height="32" stroke="#525252"/>
<rect x="317" y="341" width="32" height="32" fill="#F9F9F9"/>
<rect x="317" y="341" width="32" height="32" stroke="#525252"/>
<rect x="349" y="341" width="32" height="32" fill="#F9F9F9"/>
<rect x="349" y="341" width="32" height="32" stroke="#525252"/>
<rect x="381" y="341" width="32" height="32" fill="#F9F9F9"/>
<rect x="381" y="341" width="32" height="32" stroke="#525252"/>
<rect x="413" y="341" width="32" height="32" fill="#F9F9F9"/>
<rect x="413" y="341" width="32" height="32" stroke="#525252"/>
<rect x="445" y="341" width="32" height="32" fill="#F9F9F9"/>
<rect x="445" y="341" width="32" height="32" stroke="#525252"/>
<rect x="477" y="341" width="32" height="32" fill="#F9F9F9"/>
<rect x="477" y="341" width="32" height="32" stroke="#525252"/>
<rect x="509" y="341" width="32" height="32" fill="#F9F9F9"/>
<rect x="509" y="341" width="32" height="32" stroke="#525252"/>
<rect x="541" y="341" width="32" height="32" fill="#F9F9F9"/>
<rect x="541" y="341" width="32" height="32" stroke="#525252"/>
<rect x="573" y="341" width="32" height="32" fill="#F9F9F9"/>
<rect x="573" y="341" width="32" height="32" stroke="#525252"/>
<rect x="605" y="341" width="32" height="32" fill="#F9F9F9"/>
<rect x="605" y="341" width="32" height="32" stroke="#525252"/>
<rect x="637" y="341" width="32" height="32" fill="#F9F9F9"/>
<rect x="637" y="341" width="32" height="32" stroke="#525252"/>
<rect x="669" y="341" width="32" height="32" fill="#F9F9F9"/>
<rect x="669" y="341" width="32" height="32" stroke="#525252"/>
<rect x="701" y="341" width="32" height="32" fill="#F9F9F9"/>
<rect x="701" y="341" width="32" height="32" stroke="#525252"/>
<rect x="733" y="341" width="32" height="32" fill="#F9F9F9"/>
<rect x="733" y="341" width="32" height="32" stroke="#525252"/>
<rect x="765" y="341" width="32" height="32" fill="#F9F9F9"/>
<rect x="765" y="341" width="32" height="32" stroke="#525252"/>
<rect x="797" y="341" width="32" height="32" fill="#F9F9F9"/>
<rect x="797" y="341" width="32" height="32" stroke="#525252"/>
<rect x="829" y="341" width="32" height="32" fill="#F9F9F9"/>
<rect x="829" y="341" width="32" height="32" stroke="#525252"/>
<rect x="861" y="341" width="32" height="32" fill="#F9F9F9"/>
<rect x="861" y="341" width="32" height="32" stroke="#525252"/>
<path d="M17.6113 363V348.781H26.2832V350.246H19.3789V354.934H25.3848V356.398H19.3789V361.535H26.3809V363H17.6113ZM27.8066 360.002H29.5254V360.08C29.5254 360.679 29.7402 361.128 30.1699 361.428C30.5996 361.721 31.1693 361.867 31.8789 361.867C32.5951 361.867 33.1582 361.727 33.5684 361.447C33.9785 361.161 34.1836 360.786 34.1836 360.324C34.1836 359.862 34.0143 359.51 33.6758 359.27C33.3438 359.022 32.6374 358.768 31.5566 358.508C30.4694 358.247 29.6133 357.889 28.9883 357.434C28.3633 356.971 28.0508 356.327 28.0508 355.5C28.0508 354.667 28.3893 353.98 29.0664 353.439C29.75 352.899 30.6615 352.629 31.8008 352.629C32.9401 352.629 33.8581 352.899 34.5547 353.439C35.2513 353.98 35.5996 354.719 35.5996 355.656V355.725H33.8906V355.627C33.8906 355.119 33.7181 354.729 33.373 354.455C33.028 354.182 32.5039 354.045 31.8008 354.045C31.0977 354.045 30.5801 354.172 30.248 354.426C29.916 354.68 29.75 355.008 29.75 355.412C29.75 355.803 29.9355 356.115 30.3066 356.35C30.6777 356.577 31.4036 356.822 32.4844 357.082C33.5651 357.342 34.3984 357.71 34.9844 358.186C35.5768 358.654 35.873 359.331 35.873 360.217C35.873 361.115 35.541 361.851 34.877 362.424C34.2129 362.997 33.2168 363.283 31.8887 363.283C30.554 363.283 29.5384 362.993 28.8418 362.414C28.1517 361.835 27.8066 361.057 27.8066 360.08V360.002ZM36.6641 354.24V352.912H42.3867V354.24H36.6641ZM38.4707 360.471V353.693V353.42V350.236H40.1797V360.471C40.1797 360.965 40.2708 361.311 40.4531 361.506C40.6419 361.701 40.9349 361.799 41.332 361.799C41.5078 361.799 41.6803 361.783 41.8496 361.75C42.0254 361.711 42.2012 361.659 42.377 361.594V363C42.2142 363.078 42.0026 363.143 41.7422 363.195C41.4818 363.254 41.1953 363.283 40.8828 363.283C40.1471 363.283 39.5612 363.062 39.125 362.619C38.6888 362.17 38.4707 361.454 38.4707 360.471ZM43.6758 360.041C43.6758 359.025 44.0762 358.231 44.877 357.658C45.6842 357.085 46.7161 356.799 47.9727 356.799H50.2773V356.066C50.2773 355.448 50.1146 354.95 49.7891 354.572C49.4701 354.195 48.9264 354.006 48.1582 354.006C47.3835 354.006 46.8236 354.165 46.4785 354.484C46.14 354.797 45.9707 355.171 45.9707 355.607V355.686H44.2617V355.588C44.2617 354.794 44.6133 354.104 45.3164 353.518C46.026 352.925 46.9863 352.629 48.1973 352.629C49.4017 352.629 50.3327 352.915 50.9902 353.488C51.6543 354.055 51.9863 354.914 51.9863 356.066V360.656C51.9863 361.079 52.0189 361.48 52.084 361.857C52.1491 362.229 52.2402 362.557 52.3574 362.844V363H50.707C50.6159 362.837 50.5312 362.626 50.4531 362.365C50.3815 362.105 50.3359 361.844 50.3164 361.584C50.0755 362.001 49.6882 362.372 49.1543 362.697C48.627 363.023 47.9434 363.186 47.1035 363.186C46.14 363.186 45.3262 362.915 44.6621 362.375C44.0046 361.835 43.6758 361.057 43.6758 360.041ZM45.3848 359.953C45.3848 360.539 45.554 360.995 45.8926 361.32C46.2376 361.646 46.7617 361.809 47.4648 361.809C48.181 361.809 48.8288 361.564 49.4082 361.076C49.9876 360.581 50.2773 360.054 50.2773 359.494V358.039H48.168C47.25 358.039 46.5566 358.212 46.0879 358.557C45.6191 358.902 45.3848 359.367 45.3848 359.953ZM54.1348 358.107V357.795C54.1348 356.324 54.5156 355.109 55.2773 354.152C56.0456 353.195 57.0677 352.717 58.3438 352.717C59.0534 352.717 59.6556 352.844 60.1504 353.098C60.6517 353.345 61.0488 353.677 61.3418 354.094V348.107H63.0605V363H61.5078L61.4395 361.672H61.3809C61.1204 362.089 60.7266 362.447 60.1992 362.746C59.6719 363.046 59.0534 363.195 58.3438 363.195C57.0612 363.195 56.0391 362.717 55.2773 361.76C54.5156 360.796 54.1348 359.579 54.1348 358.107ZM55.8828 358.107C55.8828 359.149 56.1107 360.021 56.5664 360.725C57.0221 361.428 57.735 361.779 58.7051 361.779C59.3561 361.779 59.9062 361.604 60.3555 361.252C60.8112 360.894 61.14 360.487 61.3418 360.031V355.861C61.1465 355.406 60.821 355.002 60.3652 354.65C59.9095 354.299 59.3561 354.123 58.7051 354.123C57.735 354.123 57.0221 354.475 56.5664 355.178C56.1107 355.881 55.8828 356.753 55.8828 357.795V358.107ZM65.2676 358.107V357.795C65.2676 356.271 65.6973 355.031 66.5566 354.074C67.416 353.111 68.5618 352.629 69.9941 352.629C71.4329 352.629 72.5788 353.111 73.4316 354.074C74.291 355.031 74.7207 356.271 74.7207 357.795V358.107C74.7207 359.631 74.291 360.874 73.4316 361.838C72.5788 362.801 71.4329 363.283 69.9941 363.283C68.5618 363.283 67.416 362.801 66.5566 361.838C65.6973 360.874 65.2676 359.631 65.2676 358.107ZM67.0156 357.795V358.107C67.0156 359.169 67.2663 360.061 67.7676 360.783C68.2689 361.506 69.0111 361.867 69.9941 361.867C70.9772 361.867 71.7194 361.506 72.2207 360.783C72.722 360.061 72.9727 359.169 72.9727 358.107V357.795C72.9727 356.74 72.722 355.852 72.2207 355.129C71.7194 354.406 70.9772 354.045 69.9941 354.045C69.0111 354.045 68.2689 354.406 67.7676 355.129C67.2663 355.852 67.0156 356.74 67.0156 357.795ZM76.3223 360.002H78.041V360.08C78.041 360.679 78.2559 361.128 78.6855 361.428C79.1152 361.721 79.6849 361.867 80.3945 361.867C81.1107 361.867 81.6738 361.727 82.084 361.447C82.4941 361.161 82.6992 360.786 82.6992 360.324C82.6992 359.862 82.5299 359.51 82.1914 359.27C81.8594 359.022 81.153 358.768 80.0723 358.508C78.985 358.247 78.1289 357.889 77.5039 357.434C76.8789 356.971 76.5664 356.327 76.5664 355.5C76.5664 354.667 76.9049 353.98 77.582 353.439C78.2656 352.899 79.1771 352.629 80.3164 352.629C81.4557 352.629 82.3737 352.899 83.0703 353.439C83.7669 353.98 84.1152 354.719 84.1152 355.656V355.725H82.4062V355.627C82.4062 355.119 82.2337 354.729 81.8887 354.455C81.5436 354.182 81.0195 354.045 80.3164 354.045C79.6133 354.045 79.0957 354.172 78.7637 354.426C78.4316 354.68 78.2656 355.008 78.2656 355.412C78.2656 355.803 78.4512 356.115 78.8223 356.35C79.1934 356.577 79.9193 356.822 81 357.082C82.0807 357.342 82.9141 357.71 83.5 358.186C84.0924 358.654 84.3887 359.331 84.3887 360.217C84.3887 361.115 84.0566 361.851 83.3926 362.424C82.7285 362.997 81.7324 363.283 80.4043 363.283C79.0697 363.283 78.054 362.993 77.3574 362.414C76.6673 361.835 76.3223 361.057 76.3223 360.08V360.002Z" fill="#262626"/>
</svg>
