<svg width="769" height="255" viewBox="0 0 769 255" fill="none" xmlns="http://www.w3.org/2000/svg">
<rect x="30.8216" y="88.7917" width="31" height="31" rx="15.5" fill="#F9F9F9"/>
<rect x="30.8216" y="88.7917" width="31" height="31" rx="15.5" stroke="#525252"/>
<path d="M42.6732 106.206V102.003C42.6732 100.852 42.9909 99.9271 43.6263 99.2292C44.2669 98.5312 45.1549 98.1823 46.2903 98.1823C47.4153 98.1823 48.3008 98.5312 48.9466 99.2292C49.5924 99.9271 49.9153 100.852 49.9153 102.003V106.206C49.9153 107.357 49.5924 108.281 48.9466 108.979C48.3008 109.677 47.4153 110.026 46.2903 110.026C45.1549 110.021 44.2669 109.672 43.6263 108.979C42.9909 108.281 42.6732 107.357 42.6732 106.206ZM44.1575 106.284C44.1575 107.023 44.332 107.63 44.681 108.104C45.0299 108.573 45.5664 108.807 46.2903 108.807C47.0195 108.807 47.5586 108.573 47.9075 108.104C48.2565 107.63 48.431 107.023 48.431 106.284V101.924C48.431 101.185 48.2565 100.581 47.9075 100.112C47.5586 99.638 47.0195 99.401 46.2903 99.401C45.5664 99.401 45.0299 99.638 44.681 100.112C44.332 100.581 44.1575 101.185 44.1575 101.924V106.284Z" fill="#525252"/>
<rect x="145.822" y="88.7917" width="31" height="31" rx="15.5" fill="#F9F9F9"/>
<rect x="145.822" y="88.7917" width="31" height="31" rx="15.5" stroke="#525252"/>
<path d="M161.001 109.792V100.026L158.134 101.229V99.7995L162.228 98.2604H162.478V109.792H161.001Z" fill="#525252"/>
<rect x="260.822" y="88.7917" width="31" height="31" rx="15.5" fill="#F9F9F9"/>
<rect x="260.822" y="88.7917" width="31" height="31" rx="15.5" stroke="#525252"/>
<path d="M272.665 109.792V108.721L276.704 104.323C277.241 103.755 277.647 103.247 277.923 102.799C278.204 102.352 278.345 101.867 278.345 101.346C278.345 100.815 278.168 100.359 277.814 99.9792C277.46 99.5937 276.97 99.401 276.345 99.401C275.72 99.401 275.191 99.6068 274.759 100.018C274.332 100.424 274.118 100.995 274.118 101.729V101.807H272.665V101.729C272.665 100.687 273.017 99.8359 273.72 99.1745C274.428 98.513 275.303 98.1823 276.345 98.1823C277.376 98.1823 278.21 98.487 278.845 99.0963C279.48 99.7057 279.798 100.43 279.798 101.268C279.798 102.003 279.592 102.672 279.181 103.276C278.769 103.875 278.264 104.492 277.665 105.128L274.486 108.518H280.111V109.792H272.665Z" fill="#525252"/>
<rect x="375.822" y="88.7917" width="31" height="31" rx="15.5" fill="#F9F9F9"/>
<rect x="375.822" y="88.7917" width="31" height="31" rx="15.5" stroke="#525252"/>
<path d="M387.431 106.823V106.745H388.861V106.823C388.861 107.458 389.069 107.948 389.486 108.292C389.902 108.635 390.454 108.807 391.142 108.807C391.829 108.807 392.379 108.635 392.79 108.292C393.202 107.943 393.407 107.401 393.407 106.667C393.407 105.932 393.176 105.38 392.712 105.01C392.249 104.641 391.626 104.456 390.845 104.456H389.931V103.268H390.767C391.48 103.268 392.032 103.094 392.423 102.745C392.819 102.396 393.017 101.904 393.017 101.268C393.017 100.638 392.848 100.169 392.509 99.862C392.17 99.5547 391.715 99.401 391.142 99.401C390.532 99.401 390.051 99.5573 389.697 99.8698C389.342 100.177 389.165 100.62 389.165 101.198V101.276H387.743V101.198C387.743 100.359 388.056 99.6484 388.681 99.0651C389.311 98.4766 390.131 98.1823 391.142 98.1823C392.121 98.1823 392.923 98.4635 393.548 99.026C394.178 99.5833 394.493 100.305 394.493 101.19C394.493 101.727 394.348 102.234 394.056 102.714C393.769 103.187 393.327 103.552 392.728 103.807V103.839C393.379 104.005 393.902 104.336 394.298 104.831C394.694 105.32 394.892 105.932 394.892 106.667C394.892 107.708 394.538 108.529 393.829 109.128C393.126 109.727 392.23 110.026 391.142 110.026C389.996 110.026 389.09 109.727 388.423 109.128C387.762 108.529 387.431 107.76 387.431 106.823Z" fill="#525252"/>
<rect x="490.822" y="88.7917" width="31" height="31" rx="15.5" fill="#F9F9F9"/>
<rect x="490.822" y="88.7917" width="31" height="31" rx="15.5" stroke="#525252"/>
<path d="M507.423 109.792V106.682V106.292V100.784H507.329L503.876 105.901H507.814H508.4H510.392V107.12H502.197V106.143L507.486 98.4167H508.806V109.792H507.423Z" fill="#525252"/>
<rect x="605.822" y="88.7917" width="31" height="31" rx="15.5" fill="#F9F9F9"/>
<rect x="605.822" y="88.7917" width="31" height="31" rx="15.5" stroke="#525252"/>
<path d="M617.579 106.94V106.854H618.993V106.94C618.993 107.518 619.197 107.974 619.603 108.307C620.009 108.641 620.551 108.807 621.228 108.807C621.905 108.807 622.46 108.578 622.892 108.12C623.324 107.656 623.54 107.003 623.54 106.159C623.54 105.315 623.324 104.677 622.892 104.245C622.465 103.807 621.913 103.589 621.236 103.589C620.767 103.589 620.35 103.674 619.986 103.846C619.626 104.013 619.293 104.253 618.986 104.565L617.97 104.096L618.548 98.4167H624.407V99.7213H619.743L619.4 102.971C619.655 102.81 619.957 102.669 620.306 102.549C620.66 102.424 621.048 102.362 621.47 102.362C622.449 102.362 623.282 102.695 623.97 103.362C624.657 104.023 625.001 104.956 625.001 106.159C625.001 107.362 624.644 108.307 623.931 108.995C623.217 109.682 622.316 110.026 621.228 110.026C620.072 110.026 619.173 109.734 618.532 109.151C617.897 108.568 617.579 107.831 617.579 106.94Z" fill="#525252"/>
<rect x="720.822" y="88.7917" width="31" height="31" rx="15.5" fill="#E4E4E4"/>
<rect x="720.822" y="88.7917" width="31" height="31" rx="15.5" stroke="#525252"/>
<path d="M732.501 104.995V104.76C732.501 102.776 733.032 101.185 734.095 99.987C735.157 98.7838 736.668 98.1823 738.626 98.1823H738.782V99.401H738.626C737.178 99.401 736.035 99.8255 735.197 100.674C734.358 101.523 733.939 102.862 733.939 104.69V105.073C733.939 106.432 734.176 107.396 734.65 107.964C735.129 108.526 735.733 108.807 736.462 108.807C737.186 108.807 737.749 108.578 738.15 108.12C738.551 107.661 738.751 107.01 738.751 106.167C738.751 105.333 738.551 104.69 738.15 104.237C737.754 103.784 737.191 103.557 736.462 103.557C735.785 103.557 735.186 103.784 734.665 104.237C734.15 104.69 733.892 105.333 733.892 106.167H733.353C733.353 105.026 733.663 104.104 734.282 103.401C734.907 102.693 735.736 102.339 736.767 102.339C737.803 102.339 738.637 102.693 739.267 103.401C739.897 104.104 740.212 105.026 740.212 106.167C740.212 107.312 739.858 108.242 739.15 108.956C738.441 109.669 737.545 110.026 736.462 110.026C735.374 110.026 734.441 109.63 733.665 108.839C732.889 108.047 732.501 106.766 732.501 104.995Z" fill="#525252"/>
<path d="M96.3216 84.2917L100.603 72.8385H101.947L106.228 84.2917H104.697L101.587 75.6588C101.525 75.4818 101.47 75.3151 101.423 75.1588C101.376 74.9974 101.335 74.8281 101.298 74.651H101.22C101.184 74.8281 101.142 74.9974 101.095 75.1588C101.048 75.3151 100.993 75.4818 100.931 75.6588L97.7903 84.2917H96.3216ZM98.1575 81.3073L98.6028 80.0963H103.923L104.368 81.3073H98.1575Z" fill="#525252"/>
<path d="M214.634 84.2917V72.9167H218.298C219.512 72.9167 220.444 73.2213 221.095 73.8307C221.751 74.4401 222.079 75.2474 222.079 76.2526C222.079 77.263 221.751 78.0807 221.095 78.7057C220.444 79.3307 219.512 79.6432 218.298 79.6432H216.111V84.2917H214.634ZM216.111 78.4401H218.298C219.163 78.4401 219.764 78.2292 220.103 77.8073C220.441 77.3802 220.611 76.862 220.611 76.2526C220.611 75.6432 220.441 75.1354 220.103 74.7292C219.764 74.3177 219.163 74.112 218.298 74.112H216.111V78.4401ZM221.04 84.2917L218.259 79.0417L219.72 78.8229L222.681 84.2917H221.04Z" fill="#525252"/>
<path d="M336.322 84.2917L340.603 72.8385H341.947L346.228 84.2917H344.697L341.587 75.6588C341.525 75.4818 341.47 75.3151 341.423 75.1588C341.376 74.9974 341.335 74.8281 341.298 74.651H341.22C341.184 74.8281 341.142 74.9974 341.095 75.1588C341.048 75.3151 340.993 75.4818 340.931 75.6588L337.79 84.2917H336.322ZM338.157 81.3073L338.603 80.0963H343.923L344.368 81.3073H338.157Z" fill="#525252"/>
<path d="M449.634 84.2917V72.9167H451.173L456.306 80.9401C456.41 81.0963 456.506 81.2526 456.595 81.4088C456.684 81.5651 456.759 81.7083 456.822 81.8385H456.884C456.879 81.6823 456.874 81.5078 456.868 81.3151C456.868 81.1172 456.868 80.9401 456.868 80.7838V72.9167H458.306V84.2917H456.775L451.634 76.2682C451.535 76.112 451.441 75.9557 451.353 75.7995C451.264 75.6432 451.184 75.4974 451.111 75.362H451.056C451.061 75.5234 451.064 75.7031 451.064 75.901C451.069 76.0937 451.072 76.2682 451.072 76.4245V84.2917H449.634Z" fill="#525252"/>
<path d="M567.634 84.2917V72.9167H569.111V77.8151H574.829V72.9167H576.298V84.2917H574.829V79.0338H569.111V84.2917H567.634Z" fill="#525252"/>
<path d="M678.322 84.2917L682.603 72.8385H683.947L688.228 84.2917H686.697L683.587 75.6588C683.525 75.4818 683.47 75.3151 683.423 75.1588C683.376 74.9974 683.335 74.8281 683.298 74.651H683.22C683.184 74.8281 683.142 74.9974 683.095 75.1588C683.048 75.3151 682.993 75.4818 682.931 75.6588L679.79 84.2917H678.322ZM680.157 81.3073L680.603 80.0963H685.923L686.368 81.3073H680.157Z" fill="#525252"/>
<path d="M65.3216 116.292C91.8216 136.292 156.322 149.292 160.322 122.792" stroke="#525252" stroke-dasharray="8 8"/>
<path d="M65.3216 133.292C93.3216 162.792 196.822 180.292 269.322 117.792" stroke="#525252" stroke-dasharray="8 8"/>
<path d="M50.3216 135.792C91.3216 191.292 335.322 173.292 496.322 121.292" stroke="#525252" stroke-dasharray="8 8"/>
<path d="M41.3217 137.792C51.8216 222.292 594.322 172.292 616.822 123.292" stroke="#525252" stroke-dasharray="8 8"/>
<path d="M187.322 78.7844C215.322 47.3673 313.322 17.23 385.822 83.7917" stroke="#525252" stroke-dasharray="8 8"/>
<path d="M174.322 71.7844C266.822 -23.7083 676.822 18.2917 729.822 86.7917" stroke="#525252" stroke-dasharray="8 8"/>
<path d="M27.3215 91.4175C-5.1784 78.7917 42.3215 33.2917 45.3215 81.2917" stroke="#525252"/>
<line x1="64.3216" y1="104.292" x2="138.322" y2="104.292" stroke="#525252" stroke-width="2"/>
<line x1="179.322" y1="104.292" x2="253.322" y2="104.292" stroke="#525252" stroke-width="2"/>
<line x1="294.322" y1="104.292" x2="368.322" y2="104.292" stroke="#525252" stroke-width="2"/>
<line x1="409.322" y1="104.292" x2="483.322" y2="104.292" stroke="#525252" stroke-width="2"/>
<line x1="525.322" y1="104.292" x2="599.322" y2="104.292" stroke="#525252" stroke-width="2"/>
<line x1="640.322" y1="104.292" x2="714.322" y2="104.292" stroke="#525252" stroke-width="2"/>
<path d="M46.8665 84.7694C46.6085 85.5738 45.5311 85.7158 45.0736 85.0057L42.1334 80.4419C41.736 79.8252 42.116 79.0048 42.8434 78.9089L47.4412 78.303C48.1686 78.2072 48.7481 78.9012 48.5241 79.5998L46.8665 84.7694Z" fill="#525252"/>
<path d="M62.9721 115.799C62.5615 115.061 63.1945 114.178 64.0256 114.329L69.3662 115.304C70.0879 115.436 70.4268 116.274 69.9994 116.871L67.2978 120.64C66.8705 121.236 65.9678 121.185 65.6112 120.544L62.9721 115.799Z" fill="#525252"/>
<path d="M141.407 102.887C142.171 103.248 142.171 104.335 141.407 104.696L136.499 107.015C135.835 107.328 135.072 106.844 135.072 106.11L135.072 101.473C135.072 100.739 135.835 100.255 136.499 100.569L141.407 102.887Z" fill="#525252"/>
<path d="M256.407 102.887C257.171 103.248 257.171 104.335 256.407 104.696L251.499 107.015C250.835 107.328 250.072 106.844 250.072 106.11L250.072 101.473C250.072 100.739 250.835 100.255 251.499 100.569L256.407 102.887Z" fill="#525252"/>
<path d="M371.407 102.887C372.171 103.248 372.171 104.335 371.407 104.696L366.499 107.015C365.835 107.328 365.072 106.844 365.072 106.11L365.072 101.473C365.072 100.739 365.835 100.255 366.499 100.569L371.407 102.887Z" fill="#525252"/>
<path d="M486.407 102.887C487.171 103.248 487.171 104.335 486.407 104.696L481.499 107.015C480.835 107.328 480.072 106.844 480.072 106.11L480.072 101.473C480.072 100.739 480.835 100.255 481.499 100.569L486.407 102.887Z" fill="#525252"/>
<path d="M602.407 102.887C603.171 103.248 603.171 104.335 602.407 104.696L597.499 107.015C596.835 107.328 596.072 106.844 596.072 106.11L596.072 101.473C596.072 100.739 596.835 100.255 597.499 100.569L602.407 102.887Z" fill="#525252"/>
<path d="M171.685 76.7197C170.916 77.0703 170.086 76.3689 170.304 75.5526L171.701 70.3065C171.889 69.5976 172.752 69.3265 173.312 69.8L176.855 72.7931C177.415 73.2666 177.292 74.1623 176.624 74.4667L171.685 76.7197Z" fill="#525252"/>
<path d="M717.407 102.887C718.171 103.248 718.171 104.335 717.407 104.696L712.499 107.015C711.835 107.328 711.072 106.844 711.072 106.11L711.072 101.473C711.072 100.739 711.835 100.255 712.499 100.569L717.407 102.887Z" fill="#525252"/>
<path d="M184.685 82.7197C183.916 83.0703 183.086 82.3689 183.304 81.5526L184.701 76.3065C184.889 75.5976 185.752 75.3265 186.312 75.8L189.855 78.7931C190.415 79.2666 190.292 80.1623 189.624 80.4667L184.685 82.7197Z" fill="#525252"/>
<path d="M60.2131 129.476C59.925 128.682 60.6905 127.91 61.4869 128.192L66.6045 130.004C67.2961 130.249 67.4974 131.13 66.9807 131.651L63.7141 134.943C63.1974 135.464 62.3144 135.269 62.0642 134.58L60.2131 129.476Z" fill="#525252"/>
<path d="M46.3817 130.82C46.2731 129.983 47.1879 129.396 47.904 129.844L52.5059 132.724C53.1277 133.113 53.1327 134.018 52.5152 134.414L48.6115 136.917C47.994 137.313 47.1743 136.932 47.08 136.204L46.3817 130.82Z" fill="#525252"/>
<path d="M40.0567 132.625C40.3564 131.835 41.4398 131.749 41.8595 132.483L44.557 137.194C44.9215 137.83 44.4992 138.63 43.7678 138.688L39.1446 139.052C38.4132 139.11 37.8708 138.386 38.131 137.701L40.0567 132.625Z" fill="#525252"/>
<path d="M544.443 175.532V172.52C544.443 171.641 544.689 170.932 545.181 170.393C545.677 169.854 546.365 169.585 547.243 169.585C548.115 169.585 548.8 169.854 549.3 170.393C549.8 170.932 550.05 171.641 550.05 172.52V175.532C550.05 176.415 549.8 177.126 549.3 177.665C548.8 178.2 548.115 178.467 547.243 178.467C546.365 178.467 545.677 178.2 545.181 177.665C544.689 177.126 544.443 176.415 544.443 175.532ZM545.603 175.59C545.603 176.149 545.736 176.61 546.001 176.973C546.271 177.333 546.685 177.512 547.243 177.512C547.802 177.512 548.216 177.333 548.486 176.973C548.755 176.61 548.89 176.149 548.89 175.59V172.462C548.89 171.903 548.755 171.444 548.486 171.085C548.216 170.721 547.802 170.54 547.243 170.54C546.685 170.54 546.271 170.721 546.001 171.085C545.736 171.444 545.603 171.903 545.603 172.462V175.59Z" fill="#A2A2A2"/>
<path d="M542.322 200.292L546.603 188.839H547.947L552.228 200.292H550.697L547.587 191.659C547.525 191.482 547.47 191.315 547.423 191.159C547.376 190.997 547.335 190.828 547.298 190.651H547.22C547.184 190.828 547.142 190.997 547.095 191.159C547.048 191.315 546.993 191.482 546.931 191.659L543.79 200.292H542.322ZM544.157 197.307L544.603 196.096H549.923L550.368 197.307H544.157Z" fill="#A2A2A2"/>
<rect x="531.322" y="206.292" width="32" height="32" fill="#F9F9F9"/>
<rect x="531.322" y="206.292" width="32" height="32" stroke="#525252"/>
<path d="M542.857 224.339V219.026C542.857 217.587 543.247 216.438 544.029 215.579C544.816 214.719 545.907 214.29 547.3 214.29C548.68 214.29 549.764 214.719 550.552 215.579C551.346 216.438 551.743 217.587 551.743 219.026V224.339C551.743 225.777 551.346 226.926 550.552 227.786C549.764 228.645 548.68 229.075 547.3 229.075C545.907 229.068 544.816 228.639 544.029 227.786C543.247 226.926 542.857 225.777 542.857 224.339ZM544.634 224.436C544.634 225.374 544.852 226.139 545.288 226.731C545.725 227.317 546.395 227.61 547.3 227.61C548.198 227.61 548.866 227.317 549.302 226.731C549.738 226.139 549.956 225.374 549.956 224.436V218.928C549.956 217.991 549.738 217.229 549.302 216.643C548.866 216.051 548.198 215.755 547.3 215.755C546.395 215.755 545.725 216.051 545.288 216.643C544.852 217.229 544.634 217.991 544.634 218.928V224.436Z" fill="#262626"/>
<path d="M579.015 178.292V171.02L576.812 171.928V170.815L579.958 169.643H580.163V178.292H579.015Z" fill="#A2A2A2"/>
<path d="M575.634 200.292V188.917H579.298C580.512 188.917 581.444 189.221 582.095 189.831C582.751 190.44 583.079 191.247 583.079 192.253C583.079 193.263 582.751 194.081 582.095 194.706C581.444 195.331 580.512 195.643 579.298 195.643H577.111V200.292H575.634ZM577.111 194.44H579.298C580.163 194.44 580.764 194.229 581.103 193.807C581.441 193.38 581.611 192.862 581.611 192.253C581.611 191.643 581.441 191.135 581.103 190.729C580.764 190.318 580.163 190.112 579.298 190.112H577.111V194.44ZM582.04 200.292L579.259 195.042L580.72 194.823L583.681 200.292H582.04Z" fill="#A2A2A2"/>
<rect x="563.322" y="206.292" width="32" height="32" fill="#F9F9F9"/>
<rect x="563.322" y="206.292" width="32" height="32" stroke="#525252"/>
<path d="M574.857 224.339V219.026C574.857 217.587 575.247 216.438 576.029 215.579C576.816 214.719 577.907 214.29 579.3 214.29C580.68 214.29 581.764 214.719 582.552 215.579C583.346 216.438 583.743 217.587 583.743 219.026V224.339C583.743 225.777 583.346 226.926 582.552 227.786C581.764 228.645 580.68 229.075 579.3 229.075C577.907 229.068 576.816 228.639 576.029 227.786C575.247 226.926 574.857 225.777 574.857 224.339ZM576.634 224.436C576.634 225.374 576.852 226.139 577.288 226.731C577.725 227.317 578.395 227.61 579.3 227.61C580.198 227.61 580.866 227.317 581.302 226.731C581.738 226.139 581.956 225.374 581.956 224.436V218.928C581.956 217.991 581.738 217.229 581.302 216.643C580.866 216.051 580.198 215.755 579.3 215.755C578.395 215.755 577.725 216.051 577.288 216.643C576.852 217.229 576.634 217.991 576.634 218.928V224.436Z" fill="#262626"/>
<path d="M608.443 178.292V177.436L611.566 174.173C611.972 173.755 612.281 173.382 612.491 173.053C612.706 172.721 612.814 172.362 612.814 171.975C612.814 171.589 612.679 171.253 612.409 170.967C612.14 170.682 611.765 170.54 611.284 170.54C610.804 170.54 610.4 170.694 610.072 171.003C609.743 171.307 609.579 171.729 609.579 172.268V172.327H608.437V172.268C608.437 171.487 608.708 170.844 609.251 170.34C609.798 169.837 610.476 169.585 611.284 169.585C612.085 169.585 612.73 169.817 613.218 170.282C613.71 170.747 613.956 171.292 613.956 171.917C613.956 172.475 613.798 172.981 613.482 173.434C613.165 173.883 612.777 174.342 612.316 174.811L609.884 177.307H614.191V178.292H608.443Z" fill="#A2A2A2"/>
<path d="M606.322 200.292L610.603 188.839H611.947L616.228 200.292H614.697L611.587 191.659C611.525 191.482 611.47 191.315 611.423 191.159C611.376 190.997 611.335 190.828 611.298 190.651H611.22C611.184 190.828 611.142 190.997 611.095 191.159C611.048 191.315 610.993 191.482 610.931 191.659L607.79 200.292H606.322ZM608.157 197.307L608.603 196.096H613.923L614.368 197.307H608.157Z" fill="#A2A2A2"/>
<rect x="595.322" y="206.292" width="32" height="32" fill="#F9F9F9"/>
<rect x="595.322" y="206.292" width="32" height="32" stroke="#525252"/>
<path d="M610.958 228.792V216.497L607.394 217.962V216.253L612.394 214.378H612.726V228.792H610.958Z" fill="#262626"/>
<path d="M640.261 176.053V175.995H641.38V176.053C641.38 176.518 641.538 176.88 641.855 177.137C642.175 177.391 642.599 177.518 643.126 177.518C643.654 177.518 644.075 177.391 644.392 177.137C644.708 176.88 644.866 176.479 644.866 175.936C644.866 175.397 644.689 174.991 644.333 174.717C643.978 174.444 643.501 174.307 642.904 174.307H642.206V173.382H642.845C643.396 173.382 643.82 173.253 644.116 172.995C644.417 172.737 644.568 172.376 644.568 171.911C644.568 171.45 644.437 171.106 644.175 170.88C643.917 170.649 643.568 170.534 643.126 170.534C642.673 170.534 642.308 170.649 642.031 170.88C641.757 171.106 641.62 171.432 641.62 171.858V171.917H640.501V171.858C640.501 171.229 640.745 170.694 641.234 170.253C641.722 169.807 642.353 169.585 643.126 169.585C643.888 169.585 644.511 169.796 644.995 170.217C645.48 170.639 645.722 171.184 645.722 171.852C645.722 172.243 645.613 172.618 645.394 172.977C645.175 173.333 644.835 173.608 644.374 173.803V173.827C644.874 173.952 645.275 174.2 645.575 174.571C645.876 174.942 646.027 175.397 646.027 175.936C646.027 176.725 645.753 177.344 645.206 177.794C644.659 178.243 643.966 178.467 643.126 178.467C642.259 178.467 641.564 178.243 641.04 177.794C640.521 177.34 640.261 176.76 640.261 176.053Z" fill="#A2A2A2"/>
<path d="M638.634 200.292V188.917H640.173L645.306 196.94C645.41 197.096 645.506 197.253 645.595 197.409C645.684 197.565 645.759 197.708 645.822 197.839H645.884C645.879 197.682 645.874 197.508 645.868 197.315C645.868 197.117 645.868 196.94 645.868 196.784V188.917H647.306V200.292H645.775L640.634 192.268C640.535 192.112 640.441 191.956 640.353 191.799C640.264 191.643 640.184 191.497 640.111 191.362H640.056C640.061 191.523 640.064 191.703 640.064 191.901C640.069 192.094 640.072 192.268 640.072 192.424V200.292H638.634Z" fill="#A2A2A2"/>
<rect x="627.322" y="206.292" width="32" height="32" fill="#F9F9F9"/>
<rect x="627.322" y="206.292" width="32" height="32" stroke="#525252"/>
<path d="M638.857 224.339V219.026C638.857 217.587 639.247 216.438 640.029 215.579C640.816 214.719 641.907 214.29 643.3 214.29C644.68 214.29 645.764 214.719 646.552 215.579C647.346 216.438 647.743 217.587 647.743 219.026V224.339C647.743 225.777 647.346 226.926 646.552 227.786C645.764 228.645 644.68 229.075 643.3 229.075C641.907 229.068 640.816 228.639 640.029 227.786C639.247 226.926 638.857 225.777 638.857 224.339ZM640.634 224.436C640.634 225.374 640.852 226.139 641.288 226.731C641.725 227.317 642.395 227.61 643.3 227.61C644.198 227.61 644.866 227.317 645.302 226.731C645.738 226.139 645.956 225.374 645.956 224.436V218.928C645.956 217.991 645.738 217.229 645.302 216.643C644.866 216.051 644.198 215.755 643.3 215.755C642.395 215.755 641.725 216.051 641.288 216.643C640.852 217.229 640.634 217.991 640.634 218.928V224.436Z" fill="#262626"/>
<path d="M676.122 178.292V175.96V175.655V171.53H676.052L673.409 175.344H676.409H676.866H678.419V176.294H672.097V175.52L676.157 169.76H677.206V178.292H676.122Z" fill="#A2A2A2"/>
<path d="M670.634 200.292V188.917H672.111V193.815H677.829V188.917H679.298V200.292H677.829V195.034H672.111V200.292H670.634Z" fill="#A2A2A2"/>
<rect x="659.322" y="206.292" width="32" height="32" fill="#F9F9F9"/>
<rect x="659.322" y="206.292" width="32" height="32" stroke="#525252"/>
<path d="M670.857 224.339V219.026C670.857 217.587 671.247 216.438 672.029 215.579C672.816 214.719 673.907 214.29 675.3 214.29C676.68 214.29 677.764 214.719 678.552 215.579C679.346 216.438 679.743 217.587 679.743 219.026V224.339C679.743 225.777 679.346 226.926 678.552 227.786C677.764 228.645 676.68 229.075 675.3 229.075C673.907 229.068 672.816 228.639 672.029 227.786C671.247 226.926 670.857 225.777 670.857 224.339ZM672.634 224.436C672.634 225.374 672.852 226.139 673.288 226.731C673.725 227.317 674.395 227.61 675.3 227.61C676.198 227.61 676.866 227.317 677.302 226.731C677.738 226.139 677.956 225.374 677.956 224.436V218.928C677.956 217.991 677.738 217.229 677.302 216.643C676.866 216.051 676.198 215.755 675.3 215.755C674.395 215.755 673.725 216.051 673.288 216.643C672.852 217.229 672.634 217.991 672.634 218.928V224.436Z" fill="#262626"/>
<path d="M704.378 176.141V176.083H705.486V176.141C705.486 176.567 705.64 176.903 705.948 177.149C706.261 177.395 706.677 177.518 707.197 177.518C707.716 177.518 708.142 177.348 708.474 177.008C708.806 176.665 708.972 176.184 708.972 175.567C708.972 174.95 708.806 174.479 708.474 174.155C708.142 173.831 707.716 173.669 707.197 173.669C706.841 173.669 706.527 173.733 706.253 173.862C705.98 173.991 705.724 174.173 705.486 174.407L704.677 174.02L705.111 169.76H709.657V170.786H706.048L705.796 173.171C705.991 173.049 706.224 172.944 706.493 172.854C706.767 172.76 707.064 172.714 707.384 172.714C708.142 172.714 708.784 172.965 709.312 173.469C709.843 173.969 710.109 174.669 710.109 175.567C710.109 176.465 709.833 177.174 709.282 177.694C708.732 178.21 708.036 178.467 707.197 178.467C706.322 178.467 705.632 178.247 705.128 177.805C704.628 177.364 704.378 176.809 704.378 176.141Z" fill="#A2A2A2"/>
<path d="M702.322 200.292L706.603 188.839H707.947L712.228 200.292H710.697L707.587 191.659C707.525 191.482 707.47 191.315 707.423 191.159C707.376 190.997 707.335 190.828 707.298 190.651H707.22C707.184 190.828 707.142 190.997 707.095 191.159C707.048 191.315 706.993 191.482 706.931 191.659L703.79 200.292H702.322ZM704.157 197.307L704.603 196.096H709.923L710.368 197.307H704.157Z" fill="#A2A2A2"/>
<rect x="691.322" y="206.292" width="32" height="32" fill="#F9F9F9"/>
<rect x="691.322" y="206.292" width="32" height="32" stroke="#525252"/>
<path d="M706.958 228.792V216.497L703.394 217.962V216.253L708.394 214.378H708.726V228.792H706.958Z" fill="#262626"/>
</svg>
