<svg width="769" height="93" viewBox="0 0 769 93" fill="none" xmlns="http://www.w3.org/2000/svg">
<rect x="30.8216" y="45.0151" width="31" height="31" rx="15.5" fill="#F9F9F9"/>
<rect x="30.8216" y="45.0151" width="31" height="31" rx="15.5" stroke="#525252"/>
<path d="M42.6732 62.4291V58.226C42.6732 57.075 42.9909 56.1505 43.6263 55.4526C44.2669 54.7547 45.1549 54.4057 46.2903 54.4057C47.4153 54.4057 48.3008 54.7547 48.9466 55.4526C49.5924 56.1505 49.9153 57.075 49.9153 58.226V62.4291C49.9153 63.5802 49.5924 64.5047 48.9466 65.2026C48.3008 65.9005 47.4153 66.2495 46.2903 66.2495C45.1549 66.2442 44.2669 65.8953 43.6263 65.2026C42.9909 64.5047 42.6732 63.5802 42.6732 62.4291ZM44.1575 62.5073C44.1575 63.2468 44.332 63.8536 44.681 64.3276C45.0299 64.7963 45.5664 65.0307 46.2903 65.0307C47.0195 65.0307 47.5586 64.7963 47.9075 64.3276C48.2565 63.8536 48.431 63.2468 48.431 62.5073V58.1479C48.431 57.4083 48.2565 56.8041 47.9075 56.3354C47.5586 55.8614 47.0195 55.6245 46.2903 55.6245C45.5664 55.6245 45.0299 55.8614 44.681 56.3354C44.332 56.8041 44.1575 57.4083 44.1575 58.1479V62.5073Z" fill="#525252"/>
<rect x="145.822" y="45.0151" width="31" height="31" rx="15.5" fill="#F9F9F9"/>
<rect x="145.822" y="45.0151" width="31" height="31" rx="15.5" stroke="#525252"/>
<path d="M161.001 66.0151V56.2495L158.134 57.4526V56.0229L162.228 54.4838H162.478V66.0151H161.001Z" fill="#525252"/>
<rect x="260.822" y="45.0151" width="31" height="31" rx="15.5" fill="#F9F9F9"/>
<rect x="260.822" y="45.0151" width="31" height="31" rx="15.5" stroke="#525252"/>
<path d="M272.665 66.0151V64.9448L276.704 60.5463C277.241 59.9786 277.647 59.4708 277.923 59.0229C278.204 58.575 278.345 58.0906 278.345 57.5698C278.345 57.0385 278.168 56.5828 277.814 56.2026C277.46 55.8172 276.97 55.6245 276.345 55.6245C275.72 55.6245 275.191 55.8302 274.759 56.2416C274.332 56.6479 274.118 57.2182 274.118 57.9526V58.0307H272.665V57.9526C272.665 56.9109 273.017 56.0593 273.72 55.3979C274.428 54.7364 275.303 54.4057 276.345 54.4057C277.376 54.4057 278.21 54.7104 278.845 55.3198C279.48 55.9291 279.798 56.6531 279.798 57.4916C279.798 58.226 279.592 58.8953 279.181 59.4995C278.769 60.0984 278.264 60.7156 277.665 61.351L274.486 64.7416H280.111V66.0151H272.665Z" fill="#525252"/>
<rect x="375.822" y="45.0151" width="31" height="31" rx="15.5" fill="#F9F9F9"/>
<rect x="375.822" y="45.0151" width="31" height="31" rx="15.5" stroke="#525252"/>
<path d="M387.431 63.0463V62.9682H388.861V63.0463C388.861 63.6817 389.069 64.1713 389.486 64.5151C389.902 64.8588 390.454 65.0307 391.142 65.0307C391.829 65.0307 392.379 64.8588 392.79 64.5151C393.202 64.1661 393.407 63.6245 393.407 62.8901C393.407 62.1557 393.176 61.6036 392.712 61.2338C392.249 60.864 391.626 60.6791 390.845 60.6791H389.931V59.4916H390.767C391.48 59.4916 392.032 59.3172 392.423 58.9682C392.819 58.6192 393.017 58.1271 393.017 57.4916C393.017 56.8614 392.848 56.3927 392.509 56.0854C392.17 55.7781 391.715 55.6245 391.142 55.6245C390.532 55.6245 390.051 55.7807 389.697 56.0932C389.342 56.4005 389.165 56.8432 389.165 57.4213V57.4995H387.743V57.4213C387.743 56.5828 388.056 55.8718 388.681 55.2885C389.311 54.7 390.131 54.4057 391.142 54.4057C392.121 54.4057 392.923 54.687 393.548 55.2495C394.178 55.8067 394.493 56.5281 394.493 57.4135C394.493 57.95 394.348 58.4578 394.056 58.937C393.769 59.4109 393.327 59.7755 392.728 60.0307V60.062C393.379 60.2286 393.902 60.5593 394.298 61.0541C394.694 61.5437 394.892 62.1557 394.892 62.8901C394.892 63.9317 394.538 64.7521 393.829 65.351C393.126 65.95 392.23 66.2495 391.142 66.2495C389.996 66.2495 389.09 65.95 388.423 65.351C387.762 64.7521 387.431 63.9838 387.431 63.0463Z" fill="#525252"/>
<rect x="490.822" y="45.0151" width="31" height="31" rx="15.5" fill="#F9F9F9"/>
<rect x="490.822" y="45.0151" width="31" height="31" rx="15.5" stroke="#525252"/>
<path d="M507.423 66.0151V62.9057V62.5151V57.0073H507.329L503.876 62.1245H507.814H508.4H510.392V63.3432H502.197V62.3666L507.486 54.6401H508.806V66.0151H507.423Z" fill="#525252"/>
<rect x="605.822" y="45.0151" width="31" height="31" rx="15.5" fill="#F9F9F9"/>
<rect x="605.822" y="45.0151" width="31" height="31" rx="15.5" stroke="#525252"/>
<path d="M617.579 63.1635V63.0776H618.993V63.1635C618.993 63.7416 619.197 64.1974 619.603 64.5307C620.009 64.864 620.551 65.0307 621.228 65.0307C621.905 65.0307 622.46 64.8015 622.892 64.3432C623.324 63.8797 623.54 63.226 623.54 62.3823C623.54 61.5385 623.324 60.9005 622.892 60.4682C622.465 60.0307 621.913 59.812 621.236 59.812C620.767 59.812 620.35 59.8979 619.986 60.0698C619.626 60.2364 619.293 60.476 618.986 60.7885L617.97 60.3198L618.548 54.6401H624.407V55.9448H619.743L619.4 59.1948C619.655 59.0333 619.957 58.8927 620.306 58.7729C620.66 58.6479 621.048 58.5854 621.47 58.5854C622.449 58.5854 623.282 58.9187 623.97 59.5854C624.657 60.2468 625.001 61.1791 625.001 62.3823C625.001 63.5854 624.644 64.5307 623.931 65.2182C623.217 65.9057 622.316 66.2495 621.228 66.2495C620.072 66.2495 619.173 65.9578 618.532 65.3745C617.897 64.7911 617.579 64.0541 617.579 63.1635Z" fill="#525252"/>
<rect x="720.822" y="45.0151" width="31" height="31" rx="15.5" fill="#E4E4E4"/>
<rect x="720.822" y="45.0151" width="31" height="31" rx="15.5" stroke="#525252"/>
<path d="M732.501 61.2182V60.9838C732.501 58.9995 733.032 57.4083 734.095 56.2104C735.157 55.0073 736.668 54.4057 738.626 54.4057H738.782V55.6245H738.626C737.178 55.6245 736.035 56.0489 735.197 56.8979C734.358 57.7468 733.939 59.0854 733.939 60.9135V61.2963C733.939 62.6557 734.176 63.6192 734.65 64.187C735.129 64.7495 735.733 65.0307 736.462 65.0307C737.186 65.0307 737.749 64.8015 738.15 64.3432C738.551 63.8849 738.751 63.2338 738.751 62.3901C738.751 61.5567 738.551 60.9135 738.15 60.4604C737.754 60.0073 737.191 59.7807 736.462 59.7807C735.785 59.7807 735.186 60.0073 734.665 60.4604C734.15 60.9135 733.892 61.5567 733.892 62.3901H733.353C733.353 61.2495 733.663 60.3276 734.282 59.6245C734.907 58.9161 735.736 58.562 736.767 58.562C737.803 58.562 738.637 58.9161 739.267 59.6245C739.897 60.3276 740.212 61.2495 740.212 62.3901C740.212 63.5359 739.858 64.4656 739.15 65.1791C738.441 65.8927 737.545 66.2495 736.462 66.2495C735.374 66.2495 734.441 65.8536 733.665 65.062C732.889 64.2703 732.501 62.989 732.501 61.2182Z" fill="#525252"/>
<path d="M96.3216 40.5151L100.603 29.062H101.947L106.228 40.5151H104.697L101.587 31.8823C101.525 31.7052 101.47 31.5385 101.423 31.3823C101.376 31.2208 101.335 31.0515 101.298 30.8745H101.22C101.184 31.0515 101.142 31.2208 101.095 31.3823C101.048 31.5385 100.993 31.7052 100.931 31.8823L97.7903 40.5151H96.3216ZM98.1575 37.5307L98.6028 36.3198H103.923L104.368 37.5307H98.1575Z" fill="#525252"/>
<path d="M214.634 40.5151V29.1401H218.298C219.512 29.1401 220.444 29.4448 221.095 30.0541C221.751 30.6635 222.079 31.4708 222.079 32.476C222.079 33.4864 221.751 34.3041 221.095 34.9291C220.444 35.5541 219.512 35.8666 218.298 35.8666H216.111V40.5151H214.634ZM216.111 34.6635H218.298C219.163 34.6635 219.764 34.4526 220.103 34.0307C220.441 33.6036 220.611 33.0854 220.611 32.476C220.611 31.8666 220.441 31.3588 220.103 30.9526C219.764 30.5411 219.163 30.3354 218.298 30.3354H216.111V34.6635ZM221.04 40.5151L218.259 35.2651L219.72 35.0463L222.681 40.5151H221.04Z" fill="#525252"/>
<path d="M336.322 40.5151L340.603 29.062H341.947L346.228 40.5151H344.697L341.587 31.8823C341.525 31.7052 341.47 31.5385 341.423 31.3823C341.376 31.2208 341.335 31.0515 341.298 30.8745H341.22C341.184 31.0515 341.142 31.2208 341.095 31.3823C341.048 31.5385 340.993 31.7052 340.931 31.8823L337.79 40.5151H336.322ZM338.157 37.5307L338.603 36.3198H343.923L344.368 37.5307H338.157Z" fill="#525252"/>
<path d="M449.634 40.5151V29.1401H451.173L456.306 37.1635C456.41 37.3198 456.506 37.476 456.595 37.6323C456.684 37.7885 456.759 37.9317 456.822 38.062H456.884C456.879 37.9057 456.874 37.7312 456.868 37.5385C456.868 37.3406 456.868 37.1635 456.868 37.0073V29.1401H458.306V40.5151H456.775L451.634 32.4916C451.535 32.3354 451.441 32.1791 451.353 32.0229C451.264 31.8666 451.184 31.7208 451.111 31.5854H451.056C451.061 31.7468 451.064 31.9265 451.064 32.1245C451.069 32.3172 451.072 32.4916 451.072 32.6479V40.5151H449.634Z" fill="#525252"/>
<path d="M567.634 40.5151V29.1401H569.111V34.0385H574.829V29.1401H576.298V40.5151H574.829V35.2573H569.111V40.5151H567.634Z" fill="#525252"/>
<path d="M678.322 40.5151L682.603 29.062H683.947L688.228 40.5151H686.697L683.587 31.8823C683.525 31.7052 683.47 31.5385 683.423 31.3823C683.376 31.2208 683.335 31.0515 683.298 30.8745H683.22C683.184 31.0515 683.142 31.2208 683.095 31.3823C683.048 31.5385 682.993 31.7052 682.931 31.8823L679.79 40.5151H678.322ZM680.157 37.5307L680.603 36.3198H685.923L686.368 37.5307H680.157Z" fill="#525252"/>
<path d="M27.3215 47.641C-5.1784 35.0151 42.3215 -10.4849 45.3215 37.5151" stroke="#525252"/>
<line x1="64.3216" y1="60.5151" x2="138.322" y2="60.5151" stroke="#525252" stroke-width="2"/>
<line x1="179.322" y1="60.5151" x2="253.322" y2="60.5151" stroke="#525252" stroke-width="2"/>
<line x1="294.322" y1="60.5151" x2="368.322" y2="60.5151" stroke="#525252" stroke-width="2"/>
<line x1="409.322" y1="60.5151" x2="483.322" y2="60.5151" stroke="#525252" stroke-width="2"/>
<line x1="525.322" y1="60.5151" x2="599.322" y2="60.5151" stroke="#525252" stroke-width="2"/>
<line x1="640.322" y1="60.5151" x2="714.322" y2="60.5151" stroke="#525252" stroke-width="2"/>
<path d="M46.8665 40.9929C46.6085 41.7973 45.5311 41.9393 45.0736 41.2291L42.1334 36.6654C41.736 36.0486 42.116 35.2282 42.8434 35.1324L47.4412 34.5265C48.1686 34.4307 48.7481 35.1247 48.5241 35.8233L46.8665 40.9929Z" fill="#525252"/>
<path d="M141.407 59.1109C142.171 59.4717 142.171 60.5585 141.407 60.9193L136.499 63.238C135.835 63.5514 135.072 63.0675 135.072 62.3339L135.072 57.6963C135.072 56.9626 135.835 56.4787 136.499 56.7921L141.407 59.1109Z" fill="#525252"/>
<path d="M256.407 59.1109C257.171 59.4717 257.171 60.5585 256.407 60.9193L251.499 63.238C250.835 63.5514 250.072 63.0675 250.072 62.3339L250.072 57.6963C250.072 56.9626 250.835 56.4787 251.499 56.7921L256.407 59.1109Z" fill="#525252"/>
<path d="M371.407 59.1109C372.171 59.4717 372.171 60.5585 371.407 60.9193L366.499 63.238C365.835 63.5514 365.072 63.0675 365.072 62.3339L365.072 57.6963C365.072 56.9626 365.835 56.4787 366.499 56.7921L371.407 59.1109Z" fill="#525252"/>
<path d="M486.407 59.1109C487.171 59.4717 487.171 60.5585 486.407 60.9193L481.499 63.238C480.835 63.5514 480.072 63.0675 480.072 62.3339L480.072 57.6963C480.072 56.9626 480.835 56.4787 481.499 56.7921L486.407 59.1109Z" fill="#525252"/>
<path d="M602.407 59.1109C603.171 59.4717 603.171 60.5585 602.407 60.9193L597.499 63.238C596.835 63.5514 596.072 63.0675 596.072 62.3339L596.072 57.6963C596.072 56.9626 596.835 56.4787 597.499 56.7921L602.407 59.1109Z" fill="#525252"/>
<path d="M717.407 59.1109C718.171 59.4717 718.171 60.5585 717.407 60.9193L712.499 63.238C711.835 63.5514 711.072 63.0675 711.072 62.3339L711.072 57.6963C711.072 56.9626 711.835 56.4787 712.499 56.7921L717.407 59.1109Z" fill="#525252"/>
</svg>
