<svg width="653" height="245" viewBox="0 0 653 245" fill="none" xmlns="http://www.w3.org/2000/svg">
<path d="M329.121 166.24V163.229C329.121 162.35 329.367 161.641 329.859 161.102C330.355 160.562 331.043 160.293 331.922 160.293C332.793 160.293 333.479 160.562 333.979 161.102C334.479 161.641 334.729 162.35 334.729 163.229V166.24C334.729 167.123 334.479 167.834 333.979 168.373C333.479 168.908 332.793 169.176 331.922 169.176C331.043 169.176 330.355 168.908 329.859 168.373C329.367 167.834 329.121 167.123 329.121 166.24ZM330.281 166.299C330.281 166.857 330.414 167.318 330.68 167.682C330.949 168.041 331.363 168.221 331.922 168.221C332.48 168.221 332.895 168.041 333.164 167.682C333.434 167.318 333.568 166.857 333.568 166.299V163.17C333.568 162.611 333.434 162.152 333.164 161.793C332.895 161.43 332.48 161.248 331.922 161.248C331.363 161.248 330.949 161.43 330.68 161.793C330.414 162.152 330.281 162.611 330.281 163.17V166.299Z" fill="#A2A2A2"/>
<path d="M327 191L331.281 179.547H332.625L336.906 191H335.375L332.266 182.367C332.203 182.19 332.148 182.023 332.102 181.867C332.055 181.706 332.013 181.536 331.977 181.359H331.898C331.862 181.536 331.82 181.706 331.773 181.867C331.727 182.023 331.672 182.19 331.609 182.367L328.469 191H327ZM328.836 188.016L329.281 186.805H334.602L335.047 188.016H328.836Z" fill="#A2A2A2"/>
<rect x="316" y="197" width="32" height="32" fill="#F9F9F9"/>
<rect x="316" y="197" width="32" height="32" stroke="#525252"/>
<path d="M327.535 215.047V209.734C327.535 208.296 327.926 207.146 328.707 206.287C329.495 205.428 330.585 204.998 331.979 204.998C333.359 204.998 334.443 205.428 335.23 206.287C336.025 207.146 336.422 208.296 336.422 209.734V215.047C336.422 216.486 336.025 217.635 335.23 218.494C334.443 219.354 333.359 219.783 331.979 219.783C330.585 219.777 329.495 219.347 328.707 218.494C327.926 217.635 327.535 216.486 327.535 215.047ZM329.312 215.145C329.312 216.082 329.531 216.847 329.967 217.439C330.403 218.025 331.074 218.318 331.979 218.318C332.877 218.318 333.544 218.025 333.98 217.439C334.417 216.847 334.635 216.082 334.635 215.145V209.637C334.635 208.699 334.417 207.938 333.98 207.352C333.544 206.759 332.877 206.463 331.979 206.463C331.074 206.463 330.403 206.759 329.967 207.352C329.531 207.938 329.312 208.699 329.312 209.637V215.145Z" fill="#262626"/>
<path d="M363.693 169V161.729L361.49 162.637V161.523L364.637 160.352H364.842V169H363.693Z" fill="#A2A2A2"/>
<path d="M360.312 191V179.625H363.977C365.19 179.625 366.122 179.93 366.773 180.539C367.43 181.148 367.758 181.956 367.758 182.961C367.758 183.971 367.43 184.789 366.773 185.414C366.122 186.039 365.19 186.352 363.977 186.352H361.789V191H360.312ZM361.789 185.148H363.977C364.841 185.148 365.443 184.938 365.781 184.516C366.12 184.089 366.289 183.57 366.289 182.961C366.289 182.352 366.12 181.844 365.781 181.438C365.443 181.026 364.841 180.82 363.977 180.82H361.789V185.148ZM366.719 191L363.938 185.75L365.398 185.531L368.359 191H366.719Z" fill="#A2A2A2"/>
<rect x="348" y="197" width="32" height="32" fill="#F9F9F9"/>
<rect x="348" y="197" width="32" height="32" stroke="#525252"/>
<path d="M359.535 215.047V209.734C359.535 208.296 359.926 207.146 360.707 206.287C361.495 205.428 362.585 204.998 363.979 204.998C365.359 204.998 366.443 205.428 367.23 206.287C368.025 207.146 368.422 208.296 368.422 209.734V215.047C368.422 216.486 368.025 217.635 367.23 218.494C366.443 219.354 365.359 219.783 363.979 219.783C362.585 219.777 361.495 219.347 360.707 218.494C359.926 217.635 359.535 216.486 359.535 215.047ZM361.312 215.145C361.312 216.082 361.531 216.847 361.967 217.439C362.403 218.025 363.074 218.318 363.979 218.318C364.877 218.318 365.544 218.025 365.98 217.439C366.417 216.847 366.635 216.082 366.635 215.145V209.637C366.635 208.699 366.417 207.938 365.98 207.352C365.544 206.759 364.877 206.463 363.979 206.463C363.074 206.463 362.403 206.759 361.967 207.352C361.531 207.938 361.312 208.699 361.312 209.637V215.145Z" fill="#262626"/>
<path d="M393.121 169V168.145L396.244 164.881C396.65 164.463 396.959 164.09 397.17 163.762C397.385 163.43 397.492 163.07 397.492 162.684C397.492 162.297 397.357 161.961 397.088 161.676C396.818 161.391 396.443 161.248 395.963 161.248C395.482 161.248 395.078 161.402 394.75 161.711C394.422 162.016 394.258 162.438 394.258 162.977V163.035H393.115V162.977C393.115 162.195 393.387 161.553 393.93 161.049C394.477 160.545 395.154 160.293 395.963 160.293C396.764 160.293 397.408 160.525 397.896 160.99C398.389 161.455 398.635 162 398.635 162.625C398.635 163.184 398.477 163.689 398.16 164.143C397.844 164.592 397.455 165.051 396.994 165.52L394.562 168.016H398.869V169H393.121Z" fill="#A2A2A2"/>
<path d="M391 191L395.281 179.547H396.625L400.906 191H399.375L396.266 182.367C396.203 182.19 396.148 182.023 396.102 181.867C396.055 181.706 396.013 181.536 395.977 181.359H395.898C395.862 181.536 395.82 181.706 395.773 181.867C395.727 182.023 395.672 182.19 395.609 182.367L392.469 191H391ZM392.836 188.016L393.281 186.805H398.602L399.047 188.016H392.836Z" fill="#A2A2A2"/>
<rect x="380" y="197" width="32" height="32" fill="#F9F9F9"/>
<rect x="380" y="197" width="32" height="32" stroke="#525252"/>
<path d="M395.637 219.5V207.205L392.072 208.67V206.961L397.072 205.086H397.404V219.5H395.637Z" fill="#262626"/>
<path d="M424.939 166.762V166.703H426.059V166.762C426.059 167.227 426.217 167.588 426.533 167.846C426.854 168.1 427.277 168.227 427.805 168.227C428.332 168.227 428.754 168.1 429.07 167.846C429.387 167.588 429.545 167.188 429.545 166.645C429.545 166.105 429.367 165.699 429.012 165.426C428.656 165.152 428.18 165.016 427.582 165.016H426.885V164.09H427.523C428.074 164.09 428.498 163.961 428.795 163.703C429.096 163.445 429.246 163.084 429.246 162.619C429.246 162.158 429.115 161.814 428.854 161.588C428.596 161.357 428.246 161.242 427.805 161.242C427.352 161.242 426.986 161.357 426.709 161.588C426.436 161.814 426.299 162.141 426.299 162.566V162.625H425.18V162.566C425.18 161.938 425.424 161.402 425.912 160.961C426.4 160.516 427.031 160.293 427.805 160.293C428.566 160.293 429.189 160.504 429.674 160.926C430.158 161.348 430.4 161.893 430.4 162.561C430.4 162.951 430.291 163.326 430.072 163.686C429.854 164.041 429.514 164.316 429.053 164.512V164.535C429.553 164.66 429.953 164.908 430.254 165.279C430.555 165.65 430.705 166.105 430.705 166.645C430.705 167.434 430.432 168.053 429.885 168.502C429.338 168.951 428.645 169.176 427.805 169.176C426.938 169.176 426.242 168.951 425.719 168.502C425.199 168.049 424.939 167.469 424.939 166.762Z" fill="#A2A2A2"/>
<path d="M424.312 191V179.625H427.977C429.19 179.625 430.122 179.93 430.773 180.539C431.43 181.148 431.758 181.956 431.758 182.961C431.758 183.971 431.43 184.789 430.773 185.414C430.122 186.039 429.19 186.352 427.977 186.352H425.789V191H424.312ZM425.789 185.148H427.977C428.841 185.148 429.443 184.938 429.781 184.516C430.12 184.089 430.289 183.57 430.289 182.961C430.289 182.352 430.12 181.844 429.781 181.438C429.443 181.026 428.841 180.82 427.977 180.82H425.789V185.148ZM430.719 191L427.938 185.75L429.398 185.531L432.359 191H430.719Z" fill="#A2A2A2"/>
<rect x="412" y="197" width="32" height="32" fill="#F9F9F9"/>
<rect x="412" y="197" width="32" height="32" stroke="#525252"/>
<path d="M423.506 219.5V218.211L428.496 212.674C429.154 211.964 429.658 211.323 430.01 210.75C430.361 210.177 430.537 209.565 430.537 208.914C430.537 208.23 430.312 207.651 429.863 207.176C429.421 206.701 428.812 206.463 428.037 206.463C427.262 206.463 426.605 206.717 426.064 207.225C425.531 207.726 425.264 208.445 425.264 209.383V209.49H423.506V209.383C423.506 208.081 423.939 207.026 424.805 206.219C425.677 205.405 426.755 204.998 428.037 204.998C429.307 204.998 430.332 205.372 431.113 206.121C431.901 206.87 432.295 207.768 432.295 208.816C432.295 209.721 432.044 210.548 431.543 211.297C431.042 212.039 430.417 212.817 429.668 213.631L425.693 217.967H432.676V219.5H423.506Z" fill="#262626"/>
<path d="M460.801 169V166.668V166.363V162.238H460.73L458.088 166.053H461.088H461.545H463.098V167.002H456.775V166.229L460.836 160.469H461.885V169H460.801Z" fill="#A2A2A2"/>
<path d="M455 191L459.281 179.547H460.625L464.906 191H463.375L460.266 182.367C460.203 182.19 460.148 182.023 460.102 181.867C460.055 181.706 460.013 181.536 459.977 181.359H459.898C459.862 181.536 459.82 181.706 459.773 181.867C459.727 182.023 459.672 182.19 459.609 182.367L456.469 191H455ZM456.836 188.016L457.281 186.805H462.602L463.047 188.016H456.836Z" fill="#A2A2A2"/>
<rect x="444" y="197" width="32" height="32" fill="#F9F9F9"/>
<rect x="444" y="197" width="32" height="32" stroke="#525252"/>
<path d="M455.223 215.799V215.682H456.932V215.799C456.932 216.606 457.195 217.228 457.723 217.664C458.25 218.1 458.94 218.318 459.793 218.318C460.659 218.318 461.349 218.1 461.863 217.664C462.378 217.221 462.635 216.535 462.635 215.604C462.635 214.673 462.342 213.973 461.756 213.504C461.17 213.035 460.392 212.801 459.422 212.801H458.25V211.375H459.334C460.219 211.375 460.91 211.157 461.404 210.721C461.906 210.285 462.156 209.653 462.156 208.826C462.156 208.032 461.941 207.439 461.512 207.049C461.089 206.658 460.516 206.463 459.793 206.463C459.031 206.463 458.429 206.661 457.986 207.059C457.544 207.456 457.322 208.019 457.322 208.748V208.865H455.604V208.748C455.604 207.693 455.991 206.805 456.766 206.082C457.547 205.359 458.556 204.998 459.793 204.998C460.997 204.998 461.987 205.343 462.762 206.033C463.536 206.723 463.924 207.625 463.924 208.738C463.924 209.435 463.742 210.079 463.377 210.672C463.019 211.258 462.472 211.707 461.736 212.02V212.059C462.537 212.26 463.185 212.671 463.68 213.289C464.174 213.901 464.422 214.673 464.422 215.604C464.422 216.899 463.986 217.921 463.113 218.67C462.247 219.412 461.141 219.783 459.793 219.783C458.387 219.783 457.273 219.412 456.453 218.67C455.633 217.928 455.223 216.971 455.223 215.799Z" fill="#262626"/>
<path d="M489.057 166.85V166.791H490.164V166.85C490.164 167.275 490.318 167.611 490.627 167.857C490.939 168.104 491.355 168.227 491.875 168.227C492.395 168.227 492.82 168.057 493.152 167.717C493.484 167.373 493.65 166.893 493.65 166.275C493.65 165.658 493.484 165.188 493.152 164.863C492.82 164.539 492.395 164.377 491.875 164.377C491.52 164.377 491.205 164.441 490.932 164.57C490.658 164.699 490.402 164.881 490.164 165.115L489.355 164.729L489.789 160.469H494.336V161.494H490.727L490.475 163.879C490.67 163.758 490.902 163.652 491.172 163.562C491.445 163.469 491.742 163.422 492.062 163.422C492.82 163.422 493.463 163.674 493.99 164.178C494.521 164.678 494.787 165.377 494.787 166.275C494.787 167.174 494.512 167.883 493.961 168.402C493.41 168.918 492.715 169.176 491.875 169.176C491 169.176 490.311 168.955 489.807 168.514C489.307 168.072 489.057 167.518 489.057 166.85Z" fill="#A2A2A2"/>
<path d="M486.891 185.672V184.953C486.891 183.198 487.336 181.833 488.227 180.859C489.117 179.88 490.26 179.391 491.656 179.391C493.052 179.391 494.195 179.88 495.086 180.859C495.977 181.833 496.422 183.198 496.422 184.953V185.672C496.422 187.427 495.977 188.794 495.086 189.773C494.195 190.747 493.052 191.234 491.656 191.234C490.26 191.234 489.117 190.747 488.227 189.773C487.336 188.794 486.891 187.427 486.891 185.672ZM488.375 185.672C488.375 187.021 488.674 188.076 489.273 188.836C489.872 189.596 490.667 189.977 491.656 189.977C492.641 189.977 493.432 189.596 494.031 188.836C494.63 188.076 494.93 187.021 494.93 185.672V184.953C494.93 183.604 494.63 182.552 494.031 181.797C493.432 181.036 492.641 180.656 491.656 180.656C490.667 180.656 489.872 181.036 489.273 181.797C488.674 182.552 488.375 183.604 488.375 184.953V185.672ZM495.328 192.945L492.57 190.703L493.523 189.75L496.32 191.953L495.328 192.945Z" fill="#A2A2A2"/>
<rect x="476" y="197" width="32" height="32" fill="#F9F9F9"/>
<rect x="476" y="197" width="32" height="32" stroke="#525252"/>
<path d="M487.535 215.047V209.734C487.535 208.296 487.926 207.146 488.707 206.287C489.495 205.428 490.585 204.998 491.979 204.998C493.359 204.998 494.443 205.428 495.23 206.287C496.025 207.146 496.422 208.296 496.422 209.734V215.047C496.422 216.486 496.025 217.635 495.23 218.494C494.443 219.354 493.359 219.783 491.979 219.783C490.585 219.777 489.495 219.347 488.707 218.494C487.926 217.635 487.535 216.486 487.535 215.047ZM489.312 215.145C489.312 216.082 489.531 216.847 489.967 217.439C490.403 218.025 491.074 218.318 491.979 218.318C492.877 218.318 493.544 218.025 493.98 217.439C494.417 216.847 494.635 216.082 494.635 215.145V209.637C494.635 208.699 494.417 207.938 493.98 207.352C493.544 206.759 492.877 206.463 491.979 206.463C491.074 206.463 490.403 206.759 489.967 207.352C489.531 207.938 489.312 208.699 489.312 209.637V215.145Z" fill="#262626"/>
<path d="M520.986 165.402V165.227C520.986 163.742 521.396 162.549 522.217 161.646C523.041 160.744 524.213 160.293 525.732 160.293H525.855V161.248H525.732C524.615 161.248 523.732 161.562 523.084 162.191C522.436 162.82 522.111 163.812 522.111 165.168V165.461C522.111 166.469 522.295 167.182 522.662 167.6C523.029 168.018 523.492 168.227 524.051 168.227C524.609 168.227 525.041 168.057 525.346 167.717C525.654 167.377 525.809 166.898 525.809 166.281C525.809 165.664 525.654 165.188 525.346 164.852C525.041 164.516 524.609 164.348 524.051 164.348C523.531 164.348 523.072 164.516 522.674 164.852C522.275 165.188 522.076 165.664 522.076 166.281H521.654C521.654 165.418 521.895 164.721 522.375 164.189C522.855 163.658 523.494 163.393 524.291 163.393C525.092 163.393 525.734 163.658 526.219 164.189C526.707 164.721 526.951 165.418 526.951 166.281C526.951 167.141 526.678 167.838 526.131 168.373C525.584 168.908 524.891 169.176 524.051 169.176C523.211 169.176 522.49 168.879 521.889 168.285C521.287 167.691 520.986 166.73 520.986 165.402Z" fill="#A2A2A2"/>
<path d="M519.695 187.32V179.625H521.172V187.32C521.172 188.216 521.411 188.883 521.891 189.32C522.37 189.753 523 189.969 523.781 189.969C524.562 189.969 525.193 189.753 525.672 189.32C526.151 188.883 526.391 188.216 526.391 187.32V179.625H527.859V187.32C527.859 188.622 527.464 189.602 526.672 190.258C525.885 190.909 524.922 191.234 523.781 191.234C522.641 191.234 521.674 190.909 520.883 190.258C520.091 189.602 519.695 188.622 519.695 187.32Z" fill="#A2A2A2"/>
<rect x="508" y="197" width="32" height="32" fill="#F9F9F9"/>
<rect x="508" y="197" width="32" height="32" stroke="#525252"/>
<path d="M519.535 215.047V209.734C519.535 208.296 519.926 207.146 520.707 206.287C521.495 205.428 522.585 204.998 523.979 204.998C525.359 204.998 526.443 205.428 527.23 206.287C528.025 207.146 528.422 208.296 528.422 209.734V215.047C528.422 216.486 528.025 217.635 527.23 218.494C526.443 219.354 525.359 219.783 523.979 219.783C522.585 219.777 521.495 219.347 520.707 218.494C519.926 217.635 519.535 216.486 519.535 215.047ZM521.312 215.145C521.312 216.082 521.531 216.847 521.967 217.439C522.403 218.025 523.074 218.318 523.979 218.318C524.877 218.318 525.544 218.025 525.98 217.439C526.417 216.847 526.635 216.082 526.635 215.145V209.637C526.635 208.699 526.417 207.938 525.98 207.352C525.544 206.759 524.877 206.463 523.979 206.463C523.074 206.463 522.403 206.759 521.967 207.352C521.531 207.938 521.312 208.699 521.312 209.637V215.145Z" fill="#262626"/>
<path d="M554.24 169L557.551 161.441H552.939V160.469H558.758V161.113L555.418 169H554.24Z" fill="#A2A2A2"/>
<path d="M551 191L555.281 179.547H556.625L560.906 191H559.375L556.266 182.367C556.203 182.19 556.148 182.023 556.102 181.867C556.055 181.706 556.013 181.536 555.977 181.359H555.898C555.862 181.536 555.82 181.706 555.773 181.867C555.727 182.023 555.672 182.19 555.609 182.367L552.469 191H551ZM552.836 188.016L553.281 186.805H558.602L559.047 188.016H552.836Z" fill="#A2A2A2"/>
<rect x="540" y="197" width="32" height="32" fill="#F9F9F9"/>
<rect x="540" y="197" width="32" height="32" stroke="#525252"/>
<path d="M555.637 219.5V207.205L552.072 208.67V206.961L557.072 205.086H557.404V219.5H555.637Z" fill="#262626"/>
<path d="M585.08 166.738C585.08 166.23 585.223 165.797 585.508 165.438C585.793 165.078 586.158 164.811 586.604 164.635V164.611C586.26 164.443 585.965 164.189 585.719 163.85C585.477 163.506 585.355 163.1 585.355 162.631C585.355 161.928 585.604 161.363 586.1 160.938C586.6 160.508 587.209 160.293 587.928 160.293C588.646 160.293 589.252 160.506 589.744 160.932C590.24 161.357 590.488 161.924 590.488 162.631C590.488 163.1 590.367 163.506 590.125 163.85C589.883 164.189 589.59 164.443 589.246 164.611V164.635C589.691 164.811 590.055 165.078 590.336 165.438C590.621 165.797 590.764 166.23 590.764 166.738C590.764 167.512 590.49 168.111 589.943 168.537C589.396 168.963 588.725 169.176 587.928 169.176C587.131 169.176 586.457 168.963 585.906 168.537C585.355 168.111 585.08 167.512 585.08 166.738ZM586.211 166.674C586.211 167.139 586.367 167.514 586.68 167.799C586.996 168.084 587.412 168.227 587.928 168.227C588.443 168.227 588.857 168.084 589.17 167.799C589.482 167.514 589.639 167.139 589.639 166.674C589.639 166.209 589.482 165.832 589.17 165.543C588.857 165.254 588.443 165.109 587.928 165.109C587.412 165.109 586.996 165.254 586.68 165.543C586.367 165.832 586.211 166.209 586.211 166.674ZM586.463 162.695C586.463 163.121 586.598 163.473 586.867 163.75C587.137 164.023 587.49 164.16 587.928 164.16C588.365 164.16 588.717 164.023 588.982 163.75C589.252 163.473 589.387 163.121 589.387 162.695C589.387 162.27 589.252 161.922 588.982 161.652C588.717 161.379 588.365 161.242 587.928 161.242C587.49 161.242 587.137 161.379 586.867 161.652C586.598 161.922 586.463 162.27 586.463 162.695Z" fill="#A2A2A2"/>
<path d="M584.312 191V179.625H587.977C589.19 179.625 590.122 179.93 590.773 180.539C591.43 181.148 591.758 181.956 591.758 182.961C591.758 183.971 591.43 184.789 590.773 185.414C590.122 186.039 589.19 186.352 587.977 186.352H585.789V191H584.312ZM585.789 185.148H587.977C588.841 185.148 589.443 184.938 589.781 184.516C590.12 184.089 590.289 183.57 590.289 182.961C590.289 182.352 590.12 181.844 589.781 181.438C589.443 181.026 588.841 180.82 587.977 180.82H585.789V185.148ZM590.719 191L587.938 185.75L589.398 185.531L592.359 191H590.719Z" fill="#A2A2A2"/>
<rect x="572" y="197" width="32" height="32" fill="#F9F9F9"/>
<rect x="572" y="197" width="32" height="32" stroke="#525252"/>
<path d="M583.506 219.5V218.211L588.496 212.674C589.154 211.964 589.658 211.323 590.01 210.75C590.361 210.177 590.537 209.565 590.537 208.914C590.537 208.23 590.312 207.651 589.863 207.176C589.421 206.701 588.812 206.463 588.037 206.463C587.262 206.463 586.605 206.717 586.064 207.225C585.531 207.726 585.264 208.445 585.264 209.383V209.49H583.506V209.383C583.506 208.081 583.939 207.026 584.805 206.219C585.677 205.405 586.755 204.998 588.037 204.998C589.307 204.998 590.332 205.372 591.113 206.121C591.901 206.87 592.295 207.768 592.295 208.816C592.295 209.721 592.044 210.548 591.543 211.297C591.042 212.039 590.417 212.817 589.668 213.631L585.693 217.967H592.676V219.5H583.506Z" fill="#262626"/>
<path d="M616.893 163.129C616.893 162.285 617.166 161.602 617.713 161.078C618.264 160.555 618.957 160.293 619.793 160.293C620.633 160.293 621.354 160.59 621.955 161.184C622.561 161.777 622.863 162.738 622.863 164.066V164.242C622.863 165.656 622.451 166.812 621.627 167.711C620.807 168.609 619.637 169.059 618.117 169.059H617.994V168.104H618.111C619.232 168.104 620.115 167.791 620.76 167.166C621.408 166.541 621.732 165.586 621.732 164.301V164.008C621.732 163 621.549 162.287 621.182 161.869C620.814 161.451 620.352 161.242 619.793 161.242C619.234 161.242 618.801 161.408 618.492 161.74C618.188 162.068 618.035 162.531 618.035 163.129C618.035 163.727 618.188 164.189 618.492 164.518C618.801 164.842 619.234 165.004 619.793 165.004C620.312 165.004 620.771 164.842 621.17 164.518C621.568 164.189 621.768 163.727 621.768 163.129H622.189C622.189 163.977 621.949 164.66 621.469 165.18C620.992 165.699 620.354 165.959 619.553 165.959C618.76 165.959 618.117 165.699 617.625 165.18C617.137 164.66 616.893 163.977 616.893 163.129Z" fill="#A2A2A2"/>
<path d="M615 191L619.281 179.547H620.625L624.906 191H623.375L620.266 182.367C620.203 182.19 620.148 182.023 620.102 181.867C620.055 181.706 620.013 181.536 619.977 181.359H619.898C619.862 181.536 619.82 181.706 619.773 181.867C619.727 182.023 619.672 182.19 619.609 182.367L616.469 191H615ZM616.836 188.016L617.281 186.805H622.602L623.047 188.016H616.836Z" fill="#A2A2A2"/>
<rect x="604" y="197" width="32" height="32" fill="#F9F9F9"/>
<rect x="604" y="197" width="32" height="32" stroke="#525252"/>
<path d="M615.223 215.799V215.682H616.932V215.799C616.932 216.606 617.195 217.228 617.723 217.664C618.25 218.1 618.94 218.318 619.793 218.318C620.659 218.318 621.349 218.1 621.863 217.664C622.378 217.221 622.635 216.535 622.635 215.604C622.635 214.673 622.342 213.973 621.756 213.504C621.17 213.035 620.392 212.801 619.422 212.801H618.25V211.375H619.334C620.219 211.375 620.91 211.157 621.404 210.721C621.906 210.285 622.156 209.653 622.156 208.826C622.156 208.032 621.941 207.439 621.512 207.049C621.089 206.658 620.516 206.463 619.793 206.463C619.031 206.463 618.429 206.661 617.986 207.059C617.544 207.456 617.322 208.019 617.322 208.748V208.865H615.604V208.748C615.604 207.693 615.991 206.805 616.766 206.082C617.547 205.359 618.556 204.998 619.793 204.998C620.997 204.998 621.987 205.343 622.762 206.033C623.536 206.723 623.924 207.625 623.924 208.738C623.924 209.435 623.742 210.079 623.377 210.672C623.019 211.258 622.472 211.707 621.736 212.02V212.059C622.537 212.26 623.185 212.671 623.68 213.289C624.174 213.901 624.422 214.673 624.422 215.604C624.422 216.899 623.986 217.921 623.113 218.67C622.247 219.412 621.141 219.783 619.793 219.783C618.387 219.783 617.273 219.412 616.453 218.67C615.633 217.928 615.223 216.971 615.223 215.799Z" fill="#262626"/>
<rect x="25.5" y="71.5" width="31" height="31" rx="15.5" fill="#F9F9F9"/>
<rect x="25.5" y="71.5" width="31" height="31" rx="15.5" stroke="#525252"/>
<path d="M37.3516 88.9141V84.7109C37.3516 83.5599 37.6693 82.6354 38.3047 81.9375C38.9453 81.2396 39.8333 80.8906 40.9688 80.8906C42.0938 80.8906 42.9792 81.2396 43.625 81.9375C44.2708 82.6354 44.5938 83.5599 44.5938 84.7109V88.9141C44.5938 90.0651 44.2708 90.9896 43.625 91.6875C42.9792 92.3854 42.0938 92.7344 40.9688 92.7344C39.8333 92.7292 38.9453 92.3802 38.3047 91.6875C37.6693 90.9896 37.3516 90.0651 37.3516 88.9141ZM38.8359 88.9922C38.8359 89.7318 39.0104 90.3385 39.3594 90.8125C39.7083 91.2812 40.2448 91.5156 40.9688 91.5156C41.6979 91.5156 42.237 91.2812 42.5859 90.8125C42.9349 90.3385 43.1094 89.7318 43.1094 88.9922V84.6328C43.1094 83.8932 42.9349 83.2891 42.5859 82.8203C42.237 82.3464 41.6979 82.1094 40.9688 82.1094C40.2448 82.1094 39.7083 82.3464 39.3594 82.8203C39.0104 83.2891 38.8359 83.8932 38.8359 84.6328V88.9922Z" fill="#525252"/>
<rect x="83.5" y="71.5" width="31" height="31" rx="15.5" fill="#F9F9F9"/>
<rect x="83.5" y="71.5" width="31" height="31" rx="15.5" stroke="#525252"/>
<path d="M98.6797 92.5V82.7344L95.8125 83.9375V82.5078L99.9062 80.9688H100.156V92.5H98.6797Z" fill="#525252"/>
<rect x="141.5" y="71.5" width="31" height="31" rx="15.5" fill="#F9F9F9"/>
<rect x="141.5" y="71.5" width="31" height="31" rx="15.5" stroke="#525252"/>
<path d="M153.344 92.5V91.4297L157.383 87.0312C157.919 86.4635 158.326 85.9557 158.602 85.5078C158.883 85.0599 159.023 84.5755 159.023 84.0547C159.023 83.5234 158.846 83.0677 158.492 82.6875C158.138 82.3021 157.648 82.1094 157.023 82.1094C156.398 82.1094 155.87 82.3151 155.438 82.7266C155.01 83.1328 154.797 83.7031 154.797 84.4375V84.5156H153.344V84.4375C153.344 83.3958 153.695 82.5443 154.398 81.8828C155.107 81.2214 155.982 80.8906 157.023 80.8906C158.055 80.8906 158.888 81.1953 159.523 81.8047C160.159 82.4141 160.477 83.138 160.477 83.9766C160.477 84.7109 160.271 85.3802 159.859 85.9844C159.448 86.5833 158.943 87.2005 158.344 87.8359L155.164 91.2266H160.789V92.5H153.344Z" fill="#525252"/>
<rect x="199.5" y="71.5" width="31" height="31" rx="15.5" fill="#F9F9F9"/>
<rect x="199.5" y="71.5" width="31" height="31" rx="15.5" stroke="#525252"/>
<path d="M211.109 89.5312V89.4531H212.539V89.5312C212.539 90.1667 212.747 90.6562 213.164 91C213.581 91.3438 214.133 91.5156 214.82 91.5156C215.508 91.5156 216.057 91.3438 216.469 91C216.88 90.651 217.086 90.1094 217.086 89.375C217.086 88.6406 216.854 88.0885 216.391 87.7188C215.927 87.349 215.305 87.1641 214.523 87.1641H213.609V85.9766H214.445C215.159 85.9766 215.711 85.8021 216.102 85.4531C216.497 85.1042 216.695 84.612 216.695 83.9766C216.695 83.3464 216.526 82.8776 216.188 82.5703C215.849 82.263 215.393 82.1094 214.82 82.1094C214.211 82.1094 213.729 82.2656 213.375 82.5781C213.021 82.8854 212.844 83.3281 212.844 83.9062V83.9844H211.422V83.9062C211.422 83.0677 211.734 82.3568 212.359 81.7734C212.99 81.1849 213.81 80.8906 214.82 80.8906C215.799 80.8906 216.602 81.1719 217.227 81.7344C217.857 82.2917 218.172 83.013 218.172 83.8984C218.172 84.4349 218.026 84.9427 217.734 85.4219C217.448 85.8958 217.005 86.2604 216.406 86.5156V86.5469C217.057 86.7135 217.581 87.0443 217.977 87.5391C218.372 88.0286 218.57 88.6406 218.57 89.375C218.57 90.4167 218.216 91.237 217.508 91.8359C216.805 92.4349 215.909 92.7344 214.82 92.7344C213.674 92.7344 212.768 92.4349 212.102 91.8359C211.44 91.237 211.109 90.4688 211.109 89.5312Z" fill="#525252"/>
<rect x="257.5" y="71.5" width="31" height="31" rx="15.5" fill="#F9F9F9"/>
<rect x="257.5" y="71.5" width="31" height="31" rx="15.5" stroke="#525252"/>
<path d="M274.102 92.5V89.3906V89V83.4922H274.008L270.555 88.6094H274.492H275.078H277.07V89.8281H268.875V88.8516L274.164 81.125H275.484V92.5H274.102Z" fill="#525252"/>
<rect x="315.5" y="71.5" width="31" height="31" rx="15.5" fill="#F9F9F9"/>
<rect x="315.5" y="71.5" width="31" height="31" rx="15.5" stroke="#525252"/>
<path d="M327.258 89.6484V89.5625H328.672V89.6484C328.672 90.2266 328.875 90.6823 329.281 91.0156C329.688 91.349 330.229 91.5156 330.906 91.5156C331.583 91.5156 332.138 91.2865 332.57 90.8281C333.003 90.3646 333.219 89.7109 333.219 88.8672C333.219 88.0234 333.003 87.3854 332.57 86.9531C332.143 86.5156 331.591 86.2969 330.914 86.2969C330.445 86.2969 330.029 86.3828 329.664 86.5547C329.305 86.7214 328.971 86.9609 328.664 87.2734L327.648 86.8047L328.227 81.125H334.086V82.4297H329.422L329.078 85.6797C329.333 85.5182 329.635 85.3776 329.984 85.2578C330.339 85.1328 330.727 85.0703 331.148 85.0703C332.128 85.0703 332.961 85.4036 333.648 86.0703C334.336 86.7318 334.68 87.6641 334.68 88.8672C334.68 90.0703 334.323 91.0156 333.609 91.7031C332.896 92.3906 331.995 92.7344 330.906 92.7344C329.75 92.7344 328.852 92.4427 328.211 91.8594C327.576 91.276 327.258 90.5391 327.258 89.6484Z" fill="#525252"/>
<rect x="373.5" y="71.5" width="31" height="31" rx="15.5" fill="#F9F9F9"/>
<rect x="373.5" y="71.5" width="31" height="31" rx="15.5" stroke="#525252"/>
<path d="M385.18 87.7031V87.4688C385.18 85.4844 385.711 83.8932 386.773 82.6953C387.836 81.4922 389.346 80.8906 391.305 80.8906H391.461V82.1094H391.305C389.857 82.1094 388.714 82.5339 387.875 83.3828C387.036 84.2318 386.617 85.5703 386.617 87.3984V87.7812C386.617 89.1406 386.854 90.1042 387.328 90.6719C387.807 91.2344 388.411 91.5156 389.141 91.5156C389.865 91.5156 390.427 91.2865 390.828 90.8281C391.229 90.3698 391.43 89.7188 391.43 88.875C391.43 88.0417 391.229 87.3984 390.828 86.9453C390.432 86.4922 389.87 86.2656 389.141 86.2656C388.464 86.2656 387.865 86.4922 387.344 86.9453C386.828 87.3984 386.57 88.0417 386.57 88.875H386.031C386.031 87.7344 386.341 86.8125 386.961 86.1094C387.586 85.401 388.414 85.0469 389.445 85.0469C390.482 85.0469 391.315 85.401 391.945 86.1094C392.576 86.8125 392.891 87.7344 392.891 88.875C392.891 90.0208 392.536 90.9505 391.828 91.6641C391.12 92.3776 390.224 92.7344 389.141 92.7344C388.052 92.7344 387.12 92.3385 386.344 91.5469C385.568 90.7552 385.18 89.474 385.18 87.7031Z" fill="#525252"/>
<rect x="431.5" y="71.5" width="31" height="31" rx="15.5" fill="#F9F9F9"/>
<rect x="431.5" y="71.5" width="31" height="31" rx="15.5" stroke="#525252"/>
<path d="M444.773 92.5L449.102 82.3594H443.086V81.125H450.641V81.9297L446.273 92.5H444.773Z" fill="#525252"/>
<rect x="489.5" y="71.5" width="31" height="31" rx="15.5" fill="#F9F9F9"/>
<rect x="489.5" y="71.5" width="31" height="31" rx="15.5" stroke="#525252"/>
<path d="M501.289 89.4844C501.289 88.8073 501.477 88.2266 501.852 87.7422C502.227 87.2578 502.703 86.901 503.281 86.6719V86.6406C502.833 86.4167 502.448 86.0807 502.125 85.6328C501.807 85.1797 501.648 84.638 501.648 84.0078C501.648 83.0703 501.969 82.3177 502.609 81.75C503.255 81.1771 504.044 80.8906 504.977 80.8906C505.909 80.8906 506.693 81.1745 507.328 81.7422C507.969 82.3047 508.289 83.0599 508.289 84.0078C508.289 84.638 508.128 85.1797 507.805 85.6328C507.487 86.0859 507.107 86.4219 506.664 86.6406V86.6719C507.242 86.901 507.716 87.2578 508.086 87.7422C508.461 88.2214 508.648 88.8021 508.648 89.4844C508.648 90.5156 508.294 91.3151 507.586 91.8828C506.883 92.4505 506.013 92.7344 504.977 92.7344C503.94 92.7344 503.065 92.4505 502.352 91.8828C501.643 91.3151 501.289 90.5156 501.289 89.4844ZM502.727 89.4062C502.727 90.0365 502.932 90.5469 503.344 90.9375C503.755 91.3229 504.299 91.5156 504.977 91.5156C505.654 91.5156 506.193 91.3229 506.594 90.9375C507 90.5469 507.203 90.0365 507.203 89.4062C507.203 88.776 507 88.2656 506.594 87.875C506.193 87.4844 505.654 87.2891 504.977 87.2891C504.299 87.2891 503.755 87.4844 503.344 87.875C502.932 88.2656 502.727 88.776 502.727 89.4062ZM503.062 84.0781C503.062 84.6562 503.237 85.1328 503.586 85.5078C503.94 85.8828 504.404 86.0703 504.977 86.0703C505.549 86.0703 506.008 85.8828 506.352 85.5078C506.701 85.1328 506.875 84.6562 506.875 84.0781C506.875 83.5 506.703 83.0286 506.359 82.6641C506.016 82.2943 505.555 82.1094 504.977 82.1094C504.398 82.1094 503.935 82.2943 503.586 82.6641C503.237 83.0286 503.062 83.5 503.062 84.0781Z" fill="#525252"/>
<rect x="547.5" y="71.5" width="31" height="31" rx="15.5" fill="#F9F9F9"/>
<rect x="547.5" y="71.5" width="31" height="31" rx="15.5" stroke="#525252"/>
<path d="M559.055 84.6719C559.055 83.5469 559.409 82.6354 560.117 81.9375C560.826 81.2396 561.721 80.8906 562.805 80.8906C563.893 80.8906 564.826 81.2865 565.602 82.0781C566.378 82.8698 566.766 84.151 566.766 85.9219V86.1562C566.766 88.0052 566.234 89.526 565.172 90.7188C564.115 91.9115 562.607 92.5078 560.648 92.5078H560.484V91.2969H560.641C562.089 91.2969 563.232 90.875 564.07 90.0312C564.909 89.1875 565.328 87.9193 565.328 86.2266V85.8438C565.328 84.4844 565.089 83.5234 564.609 82.9609C564.135 82.3932 563.534 82.1094 562.805 82.1094C562.081 82.1094 561.518 82.3333 561.117 82.7812C560.716 83.224 560.516 83.8542 560.516 84.6719C560.516 85.4844 560.714 86.112 561.109 86.5547C561.51 86.9922 562.076 87.2109 562.805 87.2109C563.482 87.2109 564.078 86.9896 564.594 86.5469C565.115 86.1042 565.375 85.4792 565.375 84.6719H565.914C565.914 85.7969 565.602 86.7031 564.977 87.3906C564.357 88.0781 563.531 88.4219 562.5 88.4219C561.469 88.4219 560.635 88.0781 560 87.3906C559.37 86.7031 559.055 85.7969 559.055 84.6719Z" fill="#525252"/>
<rect x="605.5" y="71.5" width="31" height="31" rx="15.5" fill="#E4E4E4"/>
<rect x="605.5" y="71.5" width="31" height="31" rx="15.5" stroke="#525252"/>
<path d="M616.18 92.5V82.7344L613.312 83.9375V82.5078L617.406 80.9688H617.656V92.5H616.18ZM621.805 88.9141V84.7109C621.805 83.5599 622.122 82.6354 622.758 81.9375C623.398 81.2396 624.286 80.8906 625.422 80.8906C626.547 80.8906 627.432 81.2396 628.078 81.9375C628.724 82.6354 629.047 83.5599 629.047 84.7109V88.9141C629.047 90.0651 628.724 90.9896 628.078 91.6875C627.432 92.3854 626.547 92.7344 625.422 92.7344C624.286 92.7292 623.398 92.3802 622.758 91.6875C622.122 90.9896 621.805 90.0651 621.805 88.9141ZM623.289 88.9922C623.289 89.7318 623.464 90.3385 623.812 90.8125C624.161 91.2812 624.698 91.5156 625.422 91.5156C626.151 91.5156 626.69 91.2812 627.039 90.8125C627.388 90.3385 627.562 89.7318 627.562 88.9922V84.6328C627.562 83.8932 627.388 83.2891 627.039 82.8203C626.69 82.3464 626.151 82.1094 625.422 82.1094C624.698 82.1094 624.161 82.3464 623.812 82.8203C623.464 83.2891 623.289 83.8932 623.289 84.6328V88.9922Z" fill="#525252"/>
<path d="M64 81L68.2812 69.5469H69.625L73.9062 81H72.375L69.2656 72.3672C69.2031 72.1901 69.1484 72.0234 69.1016 71.8672C69.0547 71.7057 69.013 71.5365 68.9766 71.3594H68.8984C68.862 71.5365 68.8203 71.7057 68.7734 71.8672C68.7266 72.0234 68.6719 72.1901 68.6094 72.3672L65.4688 81H64ZM65.8359 78.0156L66.2812 76.8047H71.6016L72.0469 78.0156H65.8359Z" fill="#525252"/>
<path d="M124.312 81V69.625H127.977C129.19 69.625 130.122 69.9297 130.773 70.5391C131.43 71.1484 131.758 71.9557 131.758 72.9609C131.758 73.9714 131.43 74.7891 130.773 75.4141C130.122 76.0391 129.19 76.3516 127.977 76.3516H125.789V81H124.312ZM125.789 75.1484H127.977C128.841 75.1484 129.443 74.9375 129.781 74.5156C130.12 74.0885 130.289 73.5703 130.289 72.9609C130.289 72.3516 130.12 71.8438 129.781 71.4375C129.443 71.026 128.841 70.8203 127.977 70.8203H125.789V75.1484ZM130.719 81L127.938 75.75L129.398 75.5312L132.359 81H130.719Z" fill="#525252"/>
<path d="M182 81L186.281 69.5469H187.625L191.906 81H190.375L187.266 72.3672C187.203 72.1901 187.148 72.0234 187.102 71.8672C187.055 71.7057 187.013 71.5365 186.977 71.3594H186.898C186.862 71.5365 186.82 71.7057 186.773 71.8672C186.727 72.0234 186.672 72.1901 186.609 72.3672L183.469 81H182ZM183.836 78.0156L184.281 76.8047H189.602L190.047 78.0156H183.836Z" fill="#525252"/>
<path d="M242.312 81V69.625H245.977C247.19 69.625 248.122 69.9297 248.773 70.5391C249.43 71.1484 249.758 71.9557 249.758 72.9609C249.758 73.9714 249.43 74.7891 248.773 75.4141C248.122 76.0391 247.19 76.3516 245.977 76.3516H243.789V81H242.312ZM243.789 75.1484H245.977C246.841 75.1484 247.443 74.9375 247.781 74.5156C248.12 74.0885 248.289 73.5703 248.289 72.9609C248.289 72.3516 248.12 71.8438 247.781 71.4375C247.443 71.026 246.841 70.8203 245.977 70.8203H243.789V75.1484ZM248.719 81L245.938 75.75L247.398 75.5312L250.359 81H248.719Z" fill="#525252"/>
<path d="M297 81L301.281 69.5469H302.625L306.906 81H305.375L302.266 72.3672C302.203 72.1901 302.148 72.0234 302.102 71.8672C302.055 71.7057 302.013 71.5365 301.977 71.3594H301.898C301.862 71.5365 301.82 71.7057 301.773 71.8672C301.727 72.0234 301.672 72.1901 301.609 72.3672L298.469 81H297ZM298.836 78.0156L299.281 76.8047H304.602L305.047 78.0156H298.836Z" fill="#525252"/>
<path d="M355.891 75.6719V74.9531C355.891 73.1979 356.336 71.8333 357.227 70.8594C358.117 69.8802 359.26 69.3906 360.656 69.3906C362.052 69.3906 363.195 69.8802 364.086 70.8594C364.977 71.8333 365.422 73.1979 365.422 74.9531V75.6719C365.422 77.4271 364.977 78.7943 364.086 79.7734C363.195 80.7474 362.052 81.2344 360.656 81.2344C359.26 81.2344 358.117 80.7474 357.227 79.7734C356.336 78.7943 355.891 77.4271 355.891 75.6719ZM357.375 75.6719C357.375 77.0208 357.674 78.0755 358.273 78.8359C358.872 79.5964 359.667 79.9766 360.656 79.9766C361.641 79.9766 362.432 79.5964 363.031 78.8359C363.63 78.0755 363.93 77.0208 363.93 75.6719V74.9531C363.93 73.6042 363.63 72.5521 363.031 71.7969C362.432 71.0365 361.641 70.6562 360.656 70.6562C359.667 70.6562 358.872 71.0365 358.273 71.7969C357.674 72.5521 357.375 73.6042 357.375 74.9531V75.6719ZM364.328 82.9453L361.57 80.7031L362.523 79.75L365.32 81.9531L364.328 82.9453Z" fill="#525252"/>
<path d="M415.195 77.3203V69.625H416.672V77.3203C416.672 78.2161 416.911 78.8828 417.391 79.3203C417.87 79.7526 418.5 79.9688 419.281 79.9688C420.062 79.9688 420.693 79.7526 421.172 79.3203C421.651 78.8828 421.891 78.2161 421.891 77.3203V69.625H423.359V77.3203C423.359 78.6224 422.964 79.6016 422.172 80.2578C421.385 80.9089 420.422 81.2344 419.281 81.2344C418.141 81.2344 417.174 80.9089 416.383 80.2578C415.591 79.6016 415.195 78.6224 415.195 77.3203Z" fill="#525252"/>
<path d="M471 81L475.281 69.5469H476.625L480.906 81H479.375L476.266 72.3672C476.203 72.1901 476.148 72.0234 476.102 71.8672C476.055 71.7057 476.013 71.5365 475.977 71.3594H475.898C475.862 71.5365 475.82 71.7057 475.773 71.8672C475.727 72.0234 475.672 72.1901 475.609 72.3672L472.469 81H471ZM472.836 78.0156L473.281 76.8047H478.602L479.047 78.0156H472.836Z" fill="#525252"/>
<path d="M530.312 81V69.625H533.977C535.19 69.625 536.122 69.9297 536.773 70.5391C537.43 71.1484 537.758 71.9557 537.758 72.9609C537.758 73.9714 537.43 74.7891 536.773 75.4141C536.122 76.0391 535.19 76.3516 533.977 76.3516H531.789V81H530.312ZM531.789 75.1484H533.977C534.841 75.1484 535.443 74.9375 535.781 74.5156C536.12 74.0885 536.289 73.5703 536.289 72.9609C536.289 72.3516 536.12 71.8438 535.781 71.4375C535.443 71.026 534.841 70.8203 533.977 70.8203H531.789V75.1484ZM536.719 81L533.938 75.75L535.398 75.5312L538.359 81H536.719Z" fill="#525252"/>
<path d="M587 81L591.281 69.5469H592.625L596.906 81H595.375L592.266 72.3672C592.203 72.1901 592.148 72.0234 592.102 71.8672C592.055 71.7057 592.013 71.5365 591.977 71.3594H591.898C591.862 71.5365 591.82 71.7057 591.773 71.8672C591.727 72.0234 591.672 72.1901 591.609 72.3672L588.469 81H587ZM588.836 78.0156L589.281 76.8047H594.602L595.047 78.0156H588.836Z" fill="#525252"/>
<line x1="59" y1="88" x2="78" y2="88" stroke="#525252" stroke-width="2"/>
<line x1="116" y1="88" x2="135" y2="88" stroke="#525252" stroke-width="2"/>
<line x1="174" y1="88" x2="193" y2="88" stroke="#525252" stroke-width="2"/>
<line x1="232" y1="88" x2="251" y2="88" stroke="#525252" stroke-width="2"/>
<line x1="290" y1="88" x2="309" y2="88" stroke="#525252" stroke-width="2"/>
<line x1="348" y1="88" x2="367" y2="88" stroke="#525252" stroke-width="2"/>
<line x1="406" y1="88" x2="425" y2="88" stroke="#525252" stroke-width="2"/>
<line x1="464" y1="88" x2="483" y2="88" stroke="#525252" stroke-width="2"/>
<line x1="522" y1="88" x2="541" y2="88" stroke="#525252" stroke-width="2"/>
<line x1="580" y1="88" x2="599" y2="88" stroke="#525252" stroke-width="2"/>
<path d="M81.313 87.1146C82.0267 87.4891 82.0267 88.5109 81.313 88.8854L76.2147 91.5613C75.5489 91.9108 74.75 91.4279 74.75 90.6759L74.75 85.3241C74.75 84.5721 75.5489 84.0892 76.2147 84.4387L81.313 87.1146Z" fill="#525252"/>
<path d="M39.8854 69.313C39.5109 70.0267 38.4891 70.0267 38.1146 69.313L35.4387 64.2147C35.0892 63.5489 35.5721 62.75 36.3241 62.75L41.6759 62.75C42.4279 62.75 42.9108 63.5489 42.5613 64.2147L39.8854 69.313Z" fill="#525252"/>
<path d="M101.122 67.6173C100.557 68.1921 99.5788 67.8966 99.4266 67.105L98.3397 61.4507C98.1978 60.7122 98.8911 60.0872 99.611 60.3047L104.734 61.8526C105.454 62.0702 105.685 62.9746 105.158 63.5109L101.122 67.6173Z" fill="#525252"/>
<path d="M107.581 70.5437C106.941 71.0344 106.014 70.6056 105.973 69.8006L105.684 64.0501C105.646 63.299 106.42 62.7765 107.102 63.0921L111.96 65.3379C112.643 65.6535 112.746 66.5812 112.149 67.039L107.581 70.5437Z" fill="#525252"/>
<path d="M159.05 68.9231C158.411 69.4137 157.483 68.9849 157.443 68.1799L157.153 62.4294C157.115 61.6783 157.889 61.1559 158.572 61.4714L163.429 63.7172C164.112 64.0328 164.215 64.9606 163.618 65.4183L159.05 68.9231Z" fill="#525252"/>
<path d="M166.05 70.9231C165.411 71.4137 164.483 70.9849 164.443 70.1799L164.153 64.4294C164.115 63.6783 164.889 63.1559 165.572 63.4714L170.429 65.7172C171.112 66.0328 171.215 66.9606 170.618 67.4183L166.05 70.9231Z" fill="#525252"/>
<path d="M219.05 69.9231C218.411 70.4137 217.483 69.9849 217.443 69.1799L217.153 63.4294C217.115 62.6783 217.889 62.1559 218.572 62.4714L223.429 64.7172C224.112 65.0328 224.215 65.9606 223.618 66.4183L219.05 69.9231Z" fill="#525252"/>
<path d="M225.046 70.5662C224.298 70.8661 223.52 70.2031 223.698 69.417L224.971 63.8015C225.137 63.0681 226.023 62.7737 226.595 63.2617L230.667 66.7346C231.239 67.2226 231.088 68.1438 230.39 68.4236L225.046 70.5662Z" fill="#525252"/>
<path d="M54.7344 103.894C54.4424 103.05 55.318 102.276 56.1195 102.669L60.6115 104.871C61.2507 105.184 61.367 106.046 60.8338 106.518L57.9783 109.043C57.4451 109.515 56.6038 109.294 56.3709 108.621L54.7344 103.894Z" fill="#525252"/>
<path d="M50.7417 107.56C50.5661 106.684 51.5382 106.035 52.2794 106.533L56.4334 109.32C57.0245 109.717 57.0236 110.587 56.4316 110.982L53.2617 113.099C52.6697 113.495 51.8658 113.163 51.7258 112.465L50.7417 107.56Z" fill="#525252"/>
<path d="M44.447 109.329C44.582 108.446 45.7176 108.169 46.2435 108.891L49.1908 112.933C49.6102 113.508 49.3112 114.325 48.6196 114.494L44.9161 115.396C44.2244 115.565 43.5831 114.977 43.6907 114.274L44.447 109.329Z" fill="#525252"/>
<path d="M39.0585 110.369C39.3769 109.535 40.5455 109.505 40.907 110.321L42.933 114.895C43.2213 115.546 42.7564 116.281 42.0448 116.3L38.2341 116.399C37.5224 116.418 37.0198 115.708 37.2738 115.043L39.0585 110.369Z" fill="#525252"/>
<path d="M196.313 87.1146C197.027 87.4891 197.027 88.5109 196.313 88.8854L191.215 91.5613C190.549 91.9108 189.75 91.4279 189.75 90.6759L189.75 85.3241C189.75 84.5721 190.549 84.0892 191.215 84.4387L196.313 87.1146Z" fill="#525252"/>
<path d="M138.313 87.1146C139.027 87.4891 139.027 88.5109 138.313 88.8854L133.215 91.5613C132.549 91.9108 131.75 91.4279 131.75 90.6759L131.75 85.3241C131.75 84.5721 132.549 84.0892 133.215 84.4387L138.313 87.1146Z" fill="#525252"/>
<path d="M312.313 87.1146C313.027 87.4891 313.027 88.5109 312.313 88.8854L307.215 91.5613C306.549 91.9108 305.75 91.4279 305.75 90.6759L305.75 85.3241C305.75 84.5721 306.549 84.0892 307.215 84.4387L312.313 87.1146Z" fill="#525252"/>
<path d="M370.313 87.1146C371.027 87.4891 371.027 88.5109 370.313 88.8854L365.215 91.5613C364.549 91.9108 363.75 91.4279 363.75 90.6759L363.75 85.3241C363.75 84.5721 364.549 84.0892 365.215 84.4387L370.313 87.1146Z" fill="#525252"/>
<path d="M428.313 87.1146C429.027 87.4891 429.027 88.5109 428.313 88.8854L423.215 91.5613C422.549 91.9108 421.75 91.4279 421.75 90.6759L421.75 85.3241C421.75 84.5721 422.549 84.0892 423.215 84.4387L428.313 87.1146Z" fill="#525252"/>
<path d="M254.313 87.1146C255.027 87.4891 255.027 88.5109 254.313 88.8854L249.215 91.5613C248.549 91.9108 247.75 91.4279 247.75 90.6759L247.75 85.3241C247.75 84.5721 248.549 84.0892 249.215 84.4387L254.313 87.1146Z" fill="#525252"/>
<path d="M486.313 87.1146C487.027 87.4891 487.027 88.5109 486.313 88.8854L481.215 91.5613C480.549 91.9108 479.75 91.4279 479.75 90.6759L479.75 85.3241C479.75 84.5721 480.549 84.0892 481.215 84.4387L486.313 87.1146Z" fill="#525252"/>
<path d="M544.313 87.1146C545.027 87.4891 545.027 88.5109 544.313 88.8854L539.215 91.5613C538.549 91.9108 537.75 91.4279 537.75 90.6759L537.75 85.3241C537.75 84.5721 538.549 84.0892 539.215 84.4387L544.313 87.1146Z" fill="#525252"/>
<path d="M602.313 87.1146C603.027 87.4891 603.027 88.5109 602.313 88.8854L597.215 91.5613C596.549 91.9108 595.75 91.4279 595.75 90.6759L595.75 85.3241C595.75 84.5721 596.549 84.0892 597.215 84.4387L602.313 87.1146Z" fill="#525252"/>
<path d="M59 107C71 115 82.5 122.5 97.5 104" stroke="#525252" stroke-dasharray="8 8"/>
<path d="M24.4999 77C0.5 58.5 39.0001 42.0001 39 63.5001" stroke="#525252"/>
<path d="M55 111C77.5 133.5 132.5 144.5 155 104" stroke="#525252" stroke-dasharray="8 8"/>
<path d="M47 114.5C68 161 368.5 159 383.5 104.5" stroke="#525252" stroke-dasharray="8 8"/>
<path d="M40 116C51 178 432.5 159 438 104.5" stroke="#525252" stroke-dasharray="8 8"/>
<path d="M102 62C112.5 11 588 -9.5 618.5 68.5" stroke="#525252" stroke-dasharray="8 8"/>
<path d="M109 66C118 48 181.5 25.5 209 70" stroke="#525252" stroke-dasharray="8 8"/>
<path d="M161 64C213 -15.5 536.5 20 559 68.5" stroke="#525252" stroke-dasharray="8 8"/>
<path d="M167 66C182 49.5 235.5 23 268.5 69.5" stroke="#525252" stroke-dasharray="8 8"/>
<path d="M220 65C239 24 429 -11.5 501.5 67" stroke="#525252" stroke-dasharray="8 8"/>
<path d="M228 66C270.5 25 324 53.6543 328 68.5" stroke="#525252" stroke-dasharray="8 8"/>
</svg>
