<svg width="909" height="406" viewBox="0 0 909 406" fill="none" xmlns="http://www.w3.org/2000/svg">
<rect x="144.822" y="177.792" width="31" height="31" rx="15.5" fill="#F9F9F9"/>
<rect x="144.822" y="177.792" width="31" height="31" rx="15.5" stroke="#525252"/>
<path d="M156.673 195.206V191.003C156.673 189.852 156.991 188.927 157.626 188.229C158.267 187.531 159.155 187.182 160.29 187.182C161.415 187.182 162.301 187.531 162.947 188.229C163.592 188.927 163.915 189.852 163.915 191.003V195.206C163.915 196.357 163.592 197.281 162.947 197.979C162.301 198.677 161.415 199.026 160.29 199.026C159.155 199.021 158.267 198.672 157.626 197.979C156.991 197.281 156.673 196.357 156.673 195.206ZM158.158 195.284C158.158 196.023 158.332 196.63 158.681 197.104C159.03 197.573 159.566 197.807 160.29 197.807C161.02 197.807 161.559 197.573 161.908 197.104C162.256 196.63 162.431 196.023 162.431 195.284V190.924C162.431 190.185 162.256 189.581 161.908 189.112C161.559 188.638 161.02 188.401 160.29 188.401C159.566 188.401 159.03 188.638 158.681 189.112C158.332 189.581 158.158 190.185 158.158 190.924V195.284Z" fill="#525252"/>
<rect x="259.822" y="177.792" width="31" height="31" rx="15.5" fill="#F9F9F9"/>
<rect x="259.822" y="177.792" width="31" height="31" rx="15.5" stroke="#525252"/>
<path d="M275.001 198.792V189.026L272.134 190.229V188.799L276.228 187.26H276.478V198.792H275.001Z" fill="#525252"/>
<rect x="374.822" y="177.792" width="31" height="31" rx="15.5" fill="#F9F9F9"/>
<rect x="374.822" y="177.792" width="31" height="31" rx="15.5" stroke="#525252"/>
<path d="M386.665 198.792V197.721L390.704 193.323C391.241 192.755 391.647 192.247 391.923 191.799C392.204 191.352 392.345 190.867 392.345 190.346C392.345 189.815 392.168 189.359 391.814 188.979C391.46 188.594 390.97 188.401 390.345 188.401C389.72 188.401 389.191 188.607 388.759 189.018C388.332 189.424 388.118 189.995 388.118 190.729V190.807H386.665V190.729C386.665 189.687 387.017 188.836 387.72 188.174C388.428 187.513 389.303 187.182 390.345 187.182C391.376 187.182 392.21 187.487 392.845 188.096C393.48 188.706 393.798 189.43 393.798 190.268C393.798 191.003 393.592 191.672 393.181 192.276C392.769 192.875 392.264 193.492 391.665 194.128L388.486 197.518H394.111V198.792H386.665Z" fill="#525252"/>
<rect x="489.822" y="177.792" width="31" height="31" rx="15.5" fill="#F9F9F9"/>
<rect x="489.822" y="177.792" width="31" height="31" rx="15.5" stroke="#525252"/>
<path d="M501.431 195.823V195.745H502.861V195.823C502.861 196.458 503.069 196.948 503.486 197.292C503.902 197.635 504.454 197.807 505.142 197.807C505.829 197.807 506.379 197.635 506.79 197.292C507.202 196.943 507.407 196.401 507.407 195.667C507.407 194.932 507.176 194.38 506.712 194.01C506.249 193.641 505.626 193.456 504.845 193.456H503.931V192.268H504.767C505.48 192.268 506.032 192.094 506.423 191.745C506.819 191.396 507.017 190.904 507.017 190.268C507.017 189.638 506.848 189.169 506.509 188.862C506.17 188.555 505.715 188.401 505.142 188.401C504.532 188.401 504.051 188.557 503.697 188.87C503.342 189.177 503.165 189.62 503.165 190.198V190.276H501.743V190.198C501.743 189.359 502.056 188.648 502.681 188.065C503.311 187.477 504.131 187.182 505.142 187.182C506.121 187.182 506.923 187.464 507.548 188.026C508.178 188.583 508.493 189.305 508.493 190.19C508.493 190.727 508.348 191.234 508.056 191.714C507.769 192.187 507.327 192.552 506.728 192.807V192.839C507.379 193.005 507.902 193.336 508.298 193.831C508.694 194.32 508.892 194.932 508.892 195.667C508.892 196.708 508.538 197.529 507.829 198.128C507.126 198.727 506.23 199.026 505.142 199.026C503.996 199.026 503.09 198.727 502.423 198.128C501.762 197.529 501.431 196.76 501.431 195.823Z" fill="#525252"/>
<rect x="604.822" y="177.792" width="31" height="31" rx="15.5" fill="#F9F9F9"/>
<rect x="604.822" y="177.792" width="31" height="31" rx="15.5" stroke="#525252"/>
<path d="M621.423 198.792V195.682V195.292V189.784H621.329L617.876 194.901H621.814H622.4H624.392V196.12H616.197V195.143L621.486 187.417H622.806V198.792H621.423Z" fill="#525252"/>
<rect x="719.822" y="177.792" width="31" height="31" rx="15.5" fill="#F9F9F9"/>
<rect x="719.822" y="177.792" width="31" height="31" rx="15.5" stroke="#525252"/>
<path d="M731.579 195.94V195.854H732.993V195.94C732.993 196.518 733.197 196.974 733.603 197.307C734.009 197.641 734.551 197.807 735.228 197.807C735.905 197.807 736.46 197.578 736.892 197.12C737.324 196.656 737.54 196.003 737.54 195.159C737.54 194.315 737.324 193.677 736.892 193.245C736.465 192.807 735.913 192.589 735.236 192.589C734.767 192.589 734.35 192.674 733.986 192.846C733.626 193.013 733.293 193.253 732.986 193.565L731.97 193.096L732.548 187.417H738.407V188.721H733.743L733.4 191.971C733.655 191.81 733.957 191.669 734.306 191.549C734.66 191.424 735.048 191.362 735.47 191.362C736.449 191.362 737.282 191.695 737.97 192.362C738.657 193.023 739.001 193.956 739.001 195.159C739.001 196.362 738.644 197.307 737.931 197.995C737.217 198.682 736.316 199.026 735.228 199.026C734.072 199.026 733.173 198.734 732.532 198.151C731.897 197.568 731.579 196.831 731.579 195.94Z" fill="#525252"/>
<rect x="834.822" y="177.792" width="31" height="31" rx="15.5" fill="#E4E4E4"/>
<rect x="834.822" y="177.792" width="31" height="31" rx="15.5" stroke="#525252"/>
<path d="M846.501 193.995V193.76C846.501 191.776 847.032 190.185 848.095 188.987C849.157 187.784 850.668 187.182 852.626 187.182H852.782V188.401H852.626C851.178 188.401 850.035 188.825 849.197 189.674C848.358 190.523 847.939 191.862 847.939 193.69V194.073C847.939 195.432 848.176 196.396 848.65 196.964C849.129 197.526 849.733 197.807 850.462 197.807C851.186 197.807 851.749 197.578 852.15 197.12C852.551 196.661 852.751 196.01 852.751 195.167C852.751 194.333 852.551 193.69 852.15 193.237C851.754 192.784 851.191 192.557 850.462 192.557C849.785 192.557 849.186 192.784 848.665 193.237C848.15 193.69 847.892 194.333 847.892 195.167H847.353C847.353 194.026 847.663 193.104 848.282 192.401C848.907 191.693 849.736 191.339 850.767 191.339C851.803 191.339 852.637 191.693 853.267 192.401C853.897 193.104 854.212 194.026 854.212 195.167C854.212 196.312 853.858 197.242 853.15 197.956C852.441 198.669 851.545 199.026 850.462 199.026C849.374 199.026 848.441 198.63 847.665 197.839C846.889 197.047 846.501 195.766 846.501 193.995Z" fill="#525252"/>
<path d="M210.322 173.292L214.603 161.839H215.947L220.228 173.292H218.697L215.587 164.659C215.525 164.482 215.47 164.315 215.423 164.159C215.376 163.997 215.335 163.828 215.298 163.651H215.22C215.184 163.828 215.142 163.997 215.095 164.159C215.048 164.315 214.993 164.482 214.931 164.659L211.79 173.292H210.322ZM212.158 170.307L212.603 169.096H217.923L218.368 170.307H212.158Z" fill="#525252"/>
<path d="M328.634 173.292V161.917H332.298C333.512 161.917 334.444 162.221 335.095 162.831C335.751 163.44 336.079 164.247 336.079 165.253C336.079 166.263 335.751 167.081 335.095 167.706C334.444 168.331 333.512 168.643 332.298 168.643H330.111V173.292H328.634ZM330.111 167.44H332.298C333.163 167.44 333.764 167.229 334.103 166.807C334.441 166.38 334.611 165.862 334.611 165.253C334.611 164.643 334.441 164.135 334.103 163.729C333.764 163.318 333.163 163.112 332.298 163.112H330.111V167.44ZM335.04 173.292L332.259 168.042L333.72 167.823L336.681 173.292H335.04Z" fill="#525252"/>
<path d="M450.322 173.292L454.603 161.839H455.947L460.228 173.292H458.697L455.587 164.659C455.525 164.482 455.47 164.315 455.423 164.159C455.376 163.997 455.335 163.828 455.298 163.651H455.22C455.184 163.828 455.142 163.997 455.095 164.159C455.048 164.315 454.993 164.482 454.931 164.659L451.79 173.292H450.322ZM452.157 170.307L452.603 169.096H457.923L458.368 170.307H452.157Z" fill="#525252"/>
<path d="M563.634 173.292V161.917H565.173L570.306 169.94C570.41 170.096 570.506 170.253 570.595 170.409C570.684 170.565 570.759 170.708 570.822 170.839H570.884C570.879 170.682 570.874 170.508 570.868 170.315C570.868 170.117 570.868 169.94 570.868 169.784V161.917H572.306V173.292H570.775L565.634 165.268C565.535 165.112 565.441 164.956 565.353 164.799C565.264 164.643 565.184 164.497 565.111 164.362H565.056C565.061 164.523 565.064 164.703 565.064 164.901C565.069 165.094 565.072 165.268 565.072 165.424V173.292H563.634Z" fill="#525252"/>
<path d="M681.634 173.292V161.917H683.111V166.815H688.829V161.917H690.298V173.292H688.829V168.034H683.111V173.292H681.634Z" fill="#525252"/>
<path d="M792.322 173.292L796.603 161.839H797.947L802.228 173.292H800.697L797.587 164.659C797.525 164.482 797.47 164.315 797.423 164.159C797.376 163.997 797.335 163.828 797.298 163.651H797.22C797.184 163.828 797.142 163.997 797.095 164.159C797.048 164.315 796.993 164.482 796.931 164.659L793.79 173.292H792.322ZM794.157 170.307L794.603 169.096H799.923L800.368 170.307H794.157Z" fill="#525252"/>
<path d="M179.322 205.292C205.822 225.292 270.322 238.292 274.322 211.792" stroke="#525252" stroke-dasharray="8 8"/>
<path d="M179.322 222.292C207.322 251.792 310.822 269.292 383.322 206.792" stroke="#525252" stroke-dasharray="8 8"/>
<path d="M164.322 224.792C205.322 280.292 449.322 262.292 610.322 210.292" stroke="#525252" stroke-dasharray="8 8"/>
<path d="M155.322 226.792C165.822 311.292 708.322 261.292 730.822 212.292" stroke="#525252" stroke-dasharray="8 8"/>
<path d="M301.322 167.784C329.322 136.367 427.322 106.23 499.822 172.792" stroke="#525252" stroke-dasharray="8 8"/>
<path d="M288.322 160.784C380.822 65.2916 790.822 107.292 843.822 175.792" stroke="#525252" stroke-dasharray="8 8"/>
<path d="M141.321 180.417C108.822 167.792 156.321 122.292 159.321 170.292" stroke="#525252"/>
<line x1="178.322" y1="193.292" x2="252.322" y2="193.292" stroke="#525252" stroke-width="2"/>
<line x1="293.322" y1="193.292" x2="367.322" y2="193.292" stroke="#525252" stroke-width="2"/>
<line x1="408.322" y1="193.292" x2="482.322" y2="193.292" stroke="#525252" stroke-width="2"/>
<line x1="523.322" y1="193.292" x2="597.322" y2="193.292" stroke="#525252" stroke-width="2"/>
<line x1="639.322" y1="193.292" x2="713.322" y2="193.292" stroke="#525252" stroke-width="2"/>
<line x1="754.322" y1="193.292" x2="828.322" y2="193.292" stroke="#525252" stroke-width="2"/>
<path d="M160.866 173.769C160.609 174.574 159.531 174.716 159.074 174.006L156.133 169.442C155.736 168.825 156.116 168.005 156.843 167.909L161.441 167.303C162.169 167.207 162.748 167.901 162.524 168.6L160.866 173.769Z" fill="#525252"/>
<path d="M176.972 204.799C176.561 204.061 177.195 203.178 178.026 203.329L183.366 204.304C184.088 204.436 184.427 205.274 183.999 205.87L181.298 209.64C180.87 210.236 179.968 210.185 179.611 209.543L176.972 204.799Z" fill="#525252"/>
<path d="M255.407 191.887C256.171 192.248 256.171 193.335 255.407 193.696L250.499 196.015C249.835 196.328 249.072 195.844 249.072 195.11L249.072 190.473C249.072 189.739 249.835 189.255 250.499 189.569L255.407 191.887Z" fill="#525252"/>
<path d="M370.407 191.887C371.171 192.248 371.171 193.335 370.407 193.696L365.499 196.015C364.835 196.328 364.072 195.844 364.072 195.11L364.072 190.473C364.072 189.739 364.835 189.255 365.499 189.569L370.407 191.887Z" fill="#525252"/>
<path d="M485.407 191.887C486.171 192.248 486.171 193.335 485.407 193.696L480.499 196.015C479.835 196.328 479.072 195.844 479.072 195.11L479.072 190.473C479.072 189.739 479.835 189.255 480.499 189.569L485.407 191.887Z" fill="#525252"/>
<path d="M600.407 191.887C601.171 192.248 601.171 193.335 600.407 193.696L595.499 196.015C594.835 196.328 594.072 195.844 594.072 195.11L594.072 190.473C594.072 189.739 594.835 189.255 595.499 189.569L600.407 191.887Z" fill="#525252"/>
<path d="M716.407 191.887C717.171 192.248 717.171 193.335 716.407 193.696L711.499 196.015C710.835 196.328 710.072 195.844 710.072 195.11L710.072 190.473C710.072 189.739 710.835 189.255 711.499 189.569L716.407 191.887Z" fill="#525252"/>
<path d="M285.685 165.72C284.916 166.07 284.086 165.369 284.304 164.553L285.701 159.307C285.889 158.598 286.752 158.327 287.312 158.8L290.855 161.793C291.415 162.267 291.292 163.162 290.624 163.467L285.685 165.72Z" fill="#525252"/>
<path d="M831.407 191.887C832.171 192.248 832.171 193.335 831.407 193.696L826.499 196.015C825.835 196.328 825.072 195.844 825.072 195.11L825.072 190.473C825.072 189.739 825.835 189.255 826.499 189.569L831.407 191.887Z" fill="#525252"/>
<path d="M298.685 171.72C297.916 172.07 297.086 171.369 297.304 170.553L298.701 165.307C298.889 164.598 299.752 164.327 300.312 164.8L303.855 167.793C304.415 168.267 304.292 169.162 303.624 169.467L298.685 171.72Z" fill="#525252"/>
<path d="M174.213 218.476C173.925 217.682 174.691 216.91 175.487 217.192L180.605 219.004C181.296 219.249 181.497 220.13 180.981 220.651L177.714 223.943C177.197 224.464 176.314 224.269 176.064 223.58L174.213 218.476Z" fill="#525252"/>
<path d="M160.382 219.82C160.273 218.983 161.188 218.396 161.904 218.844L166.506 221.724C167.128 222.113 167.133 223.018 166.515 223.414L162.612 225.917C161.994 226.313 161.174 225.932 161.08 225.204L160.382 219.82Z" fill="#525252"/>
<path d="M154.057 221.625C154.356 220.835 155.44 220.749 155.86 221.483L158.557 226.194C158.922 226.83 158.499 227.63 157.768 227.688L153.145 228.052C152.413 228.11 151.871 227.386 152.131 226.701L154.057 221.625Z" fill="#525252"/>
<path d="M624.121 26.2402V23.2285C624.121 22.3496 624.367 21.6406 624.859 21.1016C625.355 20.5625 626.043 20.293 626.922 20.293C627.793 20.293 628.479 20.5625 628.979 21.1016C629.479 21.6406 629.729 22.3496 629.729 23.2285V26.2402C629.729 27.123 629.479 27.834 628.979 28.373C628.479 28.9082 627.793 29.1758 626.922 29.1758C626.043 29.1758 625.355 28.9082 624.859 28.373C624.367 27.834 624.121 27.123 624.121 26.2402ZM625.281 26.2988C625.281 26.8574 625.414 27.3184 625.68 27.6816C625.949 28.041 626.363 28.2207 626.922 28.2207C627.48 28.2207 627.895 28.041 628.164 27.6816C628.434 27.3184 628.568 26.8574 628.568 26.2988V23.1699C628.568 22.6113 628.434 22.1523 628.164 21.793C627.895 21.4297 627.48 21.248 626.922 21.248C626.363 21.248 625.949 21.4297 625.68 21.793C625.414 22.1523 625.281 22.6113 625.281 23.1699V26.2988Z" fill="#A2A2A2"/>
<path d="M622 51L626.281 39.5469H627.625L631.906 51H630.375L627.266 42.3672C627.203 42.1901 627.148 42.0234 627.102 41.8672C627.055 41.7057 627.013 41.5365 626.977 41.3594H626.898C626.862 41.5365 626.82 41.7057 626.773 41.8672C626.727 42.0234 626.672 42.1901 626.609 42.3672L623.469 51H622ZM623.836 48.0156L624.281 46.8047H629.602L630.047 48.0156H623.836Z" fill="#A2A2A2"/>
<rect x="611" y="57" width="32" height="32" fill="#F9F9F9"/>
<rect x="611" y="57" width="32" height="32" stroke="#525252"/>
<path d="M622.535 75.0469V69.7344C622.535 68.2956 622.926 67.1465 623.707 66.2871C624.495 65.4277 625.585 64.998 626.979 64.998C628.359 64.998 629.443 65.4277 630.23 66.2871C631.025 67.1465 631.422 68.2956 631.422 69.7344V75.0469C631.422 76.4857 631.025 77.6348 630.23 78.4941C629.443 79.3535 628.359 79.7832 626.979 79.7832C625.585 79.7767 624.495 79.347 623.707 78.4941C622.926 77.6348 622.535 76.4857 622.535 75.0469ZM624.312 75.1445C624.312 76.082 624.531 76.847 624.967 77.4395C625.403 78.0254 626.074 78.3184 626.979 78.3184C627.877 78.3184 628.544 78.0254 628.98 77.4395C629.417 76.847 629.635 76.082 629.635 75.1445V69.6367C629.635 68.6992 629.417 67.9375 628.98 67.3516C628.544 66.7591 627.877 66.4629 626.979 66.4629C626.074 66.4629 625.403 66.7591 624.967 67.3516C624.531 67.9375 624.312 68.6992 624.312 69.6367V75.1445Z" fill="#262626"/>
<path d="M658.693 29V21.7285L656.49 22.6367V21.5234L659.637 20.3516H659.842V29H658.693Z" fill="#A2A2A2"/>
<path d="M655.312 51V39.625H658.977C660.19 39.625 661.122 39.9297 661.773 40.5391C662.43 41.1484 662.758 41.9557 662.758 42.9609C662.758 43.9714 662.43 44.7891 661.773 45.4141C661.122 46.0391 660.19 46.3516 658.977 46.3516H656.789V51H655.312ZM656.789 45.1484H658.977C659.841 45.1484 660.443 44.9375 660.781 44.5156C661.12 44.0885 661.289 43.5703 661.289 42.9609C661.289 42.3516 661.12 41.8438 660.781 41.4375C660.443 41.026 659.841 40.8203 658.977 40.8203H656.789V45.1484ZM661.719 51L658.938 45.75L660.398 45.5312L663.359 51H661.719Z" fill="#A2A2A2"/>
<rect x="643" y="57" width="32" height="32" fill="#F9F9F9"/>
<rect x="643" y="57" width="32" height="32" stroke="#525252"/>
<path d="M654.535 75.0469V69.7344C654.535 68.2956 654.926 67.1465 655.707 66.2871C656.495 65.4277 657.585 64.998 658.979 64.998C660.359 64.998 661.443 65.4277 662.23 66.2871C663.025 67.1465 663.422 68.2956 663.422 69.7344V75.0469C663.422 76.4857 663.025 77.6348 662.23 78.4941C661.443 79.3535 660.359 79.7832 658.979 79.7832C657.585 79.7767 656.495 79.347 655.707 78.4941C654.926 77.6348 654.535 76.4857 654.535 75.0469ZM656.312 75.1445C656.312 76.082 656.531 76.847 656.967 77.4395C657.403 78.0254 658.074 78.3184 658.979 78.3184C659.877 78.3184 660.544 78.0254 660.98 77.4395C661.417 76.847 661.635 76.082 661.635 75.1445V69.6367C661.635 68.6992 661.417 67.9375 660.98 67.3516C660.544 66.7591 659.877 66.4629 658.979 66.4629C658.074 66.4629 657.403 66.7591 656.967 67.3516C656.531 67.9375 656.312 68.6992 656.312 69.6367V75.1445Z" fill="#262626"/>
<path d="M688.121 29V28.1445L691.244 24.8809C691.65 24.4629 691.959 24.0898 692.17 23.7617C692.385 23.4297 692.492 23.0703 692.492 22.6836C692.492 22.2969 692.357 21.9609 692.088 21.6758C691.818 21.3906 691.443 21.248 690.963 21.248C690.482 21.248 690.078 21.4023 689.75 21.7109C689.422 22.0156 689.258 22.4375 689.258 22.9766V23.0352H688.115V22.9766C688.115 22.1953 688.387 21.5527 688.93 21.0488C689.477 20.5449 690.154 20.293 690.963 20.293C691.764 20.293 692.408 20.5254 692.896 20.9902C693.389 21.4551 693.635 22 693.635 22.625C693.635 23.1836 693.477 23.6895 693.16 24.1426C692.844 24.5918 692.455 25.0508 691.994 25.5195L689.562 28.0156H693.869V29H688.121Z" fill="#A2A2A2"/>
<path d="M686 51L690.281 39.5469H691.625L695.906 51H694.375L691.266 42.3672C691.203 42.1901 691.148 42.0234 691.102 41.8672C691.055 41.7057 691.013 41.5365 690.977 41.3594H690.898C690.862 41.5365 690.82 41.7057 690.773 41.8672C690.727 42.0234 690.672 42.1901 690.609 42.3672L687.469 51H686ZM687.836 48.0156L688.281 46.8047H693.602L694.047 48.0156H687.836Z" fill="#A2A2A2"/>
<rect x="675" y="57" width="32" height="32" fill="#F9F9F9"/>
<rect x="675" y="57" width="32" height="32" stroke="#525252"/>
<path d="M690.637 79.5V67.2051L687.072 68.6699V66.9609L692.072 65.0859H692.404V79.5H690.637Z" fill="#262626"/>
<path d="M719.939 26.7617V26.7031H721.059V26.7617C721.059 27.2266 721.217 27.5879 721.533 27.8457C721.854 28.0996 722.277 28.2266 722.805 28.2266C723.332 28.2266 723.754 28.0996 724.07 27.8457C724.387 27.5879 724.545 27.1875 724.545 26.6445C724.545 26.1055 724.367 25.6992 724.012 25.4258C723.656 25.1523 723.18 25.0156 722.582 25.0156H721.885V24.0898H722.523C723.074 24.0898 723.498 23.9609 723.795 23.7031C724.096 23.4453 724.246 23.084 724.246 22.6191C724.246 22.1582 724.115 21.8145 723.854 21.5879C723.596 21.3574 723.246 21.2422 722.805 21.2422C722.352 21.2422 721.986 21.3574 721.709 21.5879C721.436 21.8145 721.299 22.1406 721.299 22.5664V22.625H720.18V22.5664C720.18 21.9375 720.424 21.4023 720.912 20.9609C721.4 20.5156 722.031 20.293 722.805 20.293C723.566 20.293 724.189 20.5039 724.674 20.9258C725.158 21.3477 725.4 21.8926 725.4 22.5605C725.4 22.9512 725.291 23.3262 725.072 23.6855C724.854 24.041 724.514 24.3164 724.053 24.5117V24.5352C724.553 24.6602 724.953 24.9082 725.254 25.2793C725.555 25.6504 725.705 26.1055 725.705 26.6445C725.705 27.4336 725.432 28.0527 724.885 28.502C724.338 28.9512 723.645 29.1758 722.805 29.1758C721.938 29.1758 721.242 28.9512 720.719 28.502C720.199 28.0488 719.939 27.4688 719.939 26.7617Z" fill="#A2A2A2"/>
<path d="M718.312 51V39.625H719.852L724.984 47.6484C725.089 47.8047 725.185 47.9609 725.273 48.1172C725.362 48.2734 725.438 48.4167 725.5 48.5469H725.562C725.557 48.3906 725.552 48.2161 725.547 48.0234C725.547 47.8255 725.547 47.6484 725.547 47.4922V39.625H726.984V51H725.453L720.312 42.9766C720.214 42.8203 720.12 42.6641 720.031 42.5078C719.943 42.3516 719.862 42.2057 719.789 42.0703H719.734C719.74 42.2318 719.742 42.4115 719.742 42.6094C719.747 42.8021 719.75 42.9766 719.75 43.1328V51H718.312Z" fill="#A2A2A2"/>
<rect x="707" y="57" width="32" height="32" fill="#F9F9F9"/>
<rect x="707" y="57" width="32" height="32" stroke="#525252"/>
<path d="M718.535 75.0469V69.7344C718.535 68.2956 718.926 67.1465 719.707 66.2871C720.495 65.4277 721.585 64.998 722.979 64.998C724.359 64.998 725.443 65.4277 726.23 66.2871C727.025 67.1465 727.422 68.2956 727.422 69.7344V75.0469C727.422 76.4857 727.025 77.6348 726.23 78.4941C725.443 79.3535 724.359 79.7832 722.979 79.7832C721.585 79.7767 720.495 79.347 719.707 78.4941C718.926 77.6348 718.535 76.4857 718.535 75.0469ZM720.312 75.1445C720.312 76.082 720.531 76.847 720.967 77.4395C721.403 78.0254 722.074 78.3184 722.979 78.3184C723.877 78.3184 724.544 78.0254 724.98 77.4395C725.417 76.847 725.635 76.082 725.635 75.1445V69.6367C725.635 68.6992 725.417 67.9375 724.98 67.3516C724.544 66.7591 723.877 66.4629 722.979 66.4629C722.074 66.4629 721.403 66.7591 720.967 67.3516C720.531 67.9375 720.312 68.6992 720.312 69.6367V75.1445Z" fill="#262626"/>
<path d="M755.801 29V26.668V26.3633V22.2383H755.73L753.088 26.0527H756.088H756.545H758.098V27.002H751.775V26.2285L755.836 20.4688H756.885V29H755.801Z" fill="#A2A2A2"/>
<path d="M750.312 51V39.625H751.789V44.5234H757.508V39.625H758.977V51H757.508V45.7422H751.789V51H750.312Z" fill="#A2A2A2"/>
<rect x="739" y="57" width="32" height="32" fill="#F9F9F9"/>
<rect x="739" y="57" width="32" height="32" stroke="#525252"/>
<path d="M750.535 75.0469V69.7344C750.535 68.2956 750.926 67.1465 751.707 66.2871C752.495 65.4277 753.585 64.998 754.979 64.998C756.359 64.998 757.443 65.4277 758.23 66.2871C759.025 67.1465 759.422 68.2956 759.422 69.7344V75.0469C759.422 76.4857 759.025 77.6348 758.23 78.4941C757.443 79.3535 756.359 79.7832 754.979 79.7832C753.585 79.7767 752.495 79.347 751.707 78.4941C750.926 77.6348 750.535 76.4857 750.535 75.0469ZM752.312 75.1445C752.312 76.082 752.531 76.847 752.967 77.4395C753.403 78.0254 754.074 78.3184 754.979 78.3184C755.877 78.3184 756.544 78.0254 756.98 77.4395C757.417 76.847 757.635 76.082 757.635 75.1445V69.6367C757.635 68.6992 757.417 67.9375 756.98 67.3516C756.544 66.7591 755.877 66.4629 754.979 66.4629C754.074 66.4629 753.403 66.7591 752.967 67.3516C752.531 67.9375 752.312 68.6992 752.312 69.6367V75.1445Z" fill="#262626"/>
<path d="M784.057 26.8496V26.791H785.164V26.8496C785.164 27.2754 785.318 27.6113 785.627 27.8574C785.939 28.1035 786.355 28.2266 786.875 28.2266C787.395 28.2266 787.82 28.0566 788.152 27.7168C788.484 27.373 788.65 26.8926 788.65 26.2754C788.65 25.6582 788.484 25.1875 788.152 24.8633C787.82 24.5391 787.395 24.377 786.875 24.377C786.52 24.377 786.205 24.4414 785.932 24.5703C785.658 24.6992 785.402 24.8809 785.164 25.1152L784.355 24.7285L784.789 20.4688H789.336V21.4941H785.727L785.475 23.8789C785.67 23.7578 785.902 23.6523 786.172 23.5625C786.445 23.4688 786.742 23.4219 787.062 23.4219C787.82 23.4219 788.463 23.6738 788.99 24.1777C789.521 24.6777 789.787 25.377 789.787 26.2754C789.787 27.1738 789.512 27.8828 788.961 28.4023C788.41 28.918 787.715 29.1758 786.875 29.1758C786 29.1758 785.311 28.9551 784.807 28.5137C784.307 28.0723 784.057 27.5176 784.057 26.8496Z" fill="#A2A2A2"/>
<path d="M782 51L786.281 39.5469H787.625L791.906 51H790.375L787.266 42.3672C787.203 42.1901 787.148 42.0234 787.102 41.8672C787.055 41.7057 787.013 41.5365 786.977 41.3594H786.898C786.862 41.5365 786.82 41.7057 786.773 41.8672C786.727 42.0234 786.672 42.1901 786.609 42.3672L783.469 51H782ZM783.836 48.0156L784.281 46.8047H789.602L790.047 48.0156H783.836Z" fill="#A2A2A2"/>
<rect x="771" y="57" width="32" height="32" fill="#F9F9F9"/>
<rect x="771" y="57" width="32" height="32" stroke="#525252"/>
<path d="M786.637 79.5V67.2051L783.072 68.6699V66.9609L788.072 65.0859H788.404V79.5H786.637Z" fill="#262626"/>
<path d="M138.121 307.24V304.229C138.121 303.35 138.367 302.641 138.859 302.102C139.355 301.562 140.043 301.293 140.922 301.293C141.793 301.293 142.479 301.562 142.979 302.102C143.479 302.641 143.729 303.35 143.729 304.229V307.24C143.729 308.123 143.479 308.834 142.979 309.373C142.479 309.908 141.793 310.176 140.922 310.176C140.043 310.176 139.355 309.908 138.859 309.373C138.367 308.834 138.121 308.123 138.121 307.24ZM139.281 307.299C139.281 307.857 139.414 308.318 139.68 308.682C139.949 309.041 140.363 309.221 140.922 309.221C141.48 309.221 141.895 309.041 142.164 308.682C142.434 308.318 142.568 307.857 142.568 307.299V304.17C142.568 303.611 142.434 303.152 142.164 302.793C141.895 302.43 141.48 302.248 140.922 302.248C140.363 302.248 139.949 302.43 139.68 302.793C139.414 303.152 139.281 303.611 139.281 304.17V307.299Z" fill="#A2A2A2"/>
<rect x="125" y="315" width="32" height="32" fill="#F9F9F9"/>
<rect x="125" y="315" width="32" height="32" stroke="#525252"/>
<path d="M134.49 337.5L139.744 323.193H141.404L146.658 337.5H144.822L140.955 326.602C140.877 326.38 140.809 326.169 140.75 325.967C140.698 325.765 140.646 325.557 140.594 325.342H140.506C140.454 325.557 140.398 325.765 140.34 325.967C140.281 326.169 140.213 326.38 140.135 326.602L136.248 337.5H134.49ZM136.727 333.74L137.264 332.285H143.855L144.383 333.74H136.727Z" fill="#262626"/>
<path d="M172.693 310V302.729L170.49 303.637V302.523L173.637 301.352H173.842V310H172.693Z" fill="#A2A2A2"/>
<rect x="157" y="315" width="32" height="32" fill="#F9F9F9"/>
<rect x="157" y="315" width="32" height="32" stroke="#525252"/>
<path d="M202.121 310V309.145L205.244 305.881C205.65 305.463 205.959 305.09 206.17 304.762C206.385 304.43 206.492 304.07 206.492 303.684C206.492 303.297 206.357 302.961 206.088 302.676C205.818 302.391 205.443 302.248 204.963 302.248C204.482 302.248 204.078 302.402 203.75 302.711C203.422 303.016 203.258 303.438 203.258 303.977V304.035H202.115V303.977C202.115 303.195 202.387 302.553 202.93 302.049C203.477 301.545 204.154 301.293 204.963 301.293C205.764 301.293 206.408 301.525 206.896 301.99C207.389 302.455 207.635 303 207.635 303.625C207.635 304.184 207.477 304.689 207.16 305.143C206.844 305.592 206.455 306.051 205.994 306.52L203.562 309.016H207.869V310H202.121Z" fill="#A2A2A2"/>
<rect x="189" y="315" width="32" height="32" fill="#F9F9F9"/>
<rect x="189" y="315" width="32" height="32" stroke="#525252"/>
<path d="M198.49 337.5L203.744 323.193H205.404L210.658 337.5H208.822L204.955 326.602C204.877 326.38 204.809 326.169 204.75 325.967C204.698 325.765 204.646 325.557 204.594 325.342H204.506C204.454 325.557 204.398 325.765 204.34 325.967C204.281 326.169 204.213 326.38 204.135 326.602L200.248 337.5H198.49ZM200.727 333.74L201.264 332.285H207.855L208.383 333.74H200.727Z" fill="#262626"/>
<path d="M233.939 307.762V307.703H235.059V307.762C235.059 308.227 235.217 308.588 235.533 308.846C235.854 309.1 236.277 309.227 236.805 309.227C237.332 309.227 237.754 309.1 238.07 308.846C238.387 308.588 238.545 308.188 238.545 307.645C238.545 307.105 238.367 306.699 238.012 306.426C237.656 306.152 237.18 306.016 236.582 306.016H235.885V305.09H236.523C237.074 305.09 237.498 304.961 237.795 304.703C238.096 304.445 238.246 304.084 238.246 303.619C238.246 303.158 238.115 302.814 237.854 302.588C237.596 302.357 237.246 302.242 236.805 302.242C236.352 302.242 235.986 302.357 235.709 302.588C235.436 302.814 235.299 303.141 235.299 303.566V303.625H234.18V303.566C234.18 302.938 234.424 302.402 234.912 301.961C235.4 301.516 236.031 301.293 236.805 301.293C237.566 301.293 238.189 301.504 238.674 301.926C239.158 302.348 239.4 302.893 239.4 303.561C239.4 303.951 239.291 304.326 239.072 304.686C238.854 305.041 238.514 305.316 238.053 305.512V305.535C238.553 305.66 238.953 305.908 239.254 306.279C239.555 306.65 239.705 307.105 239.705 307.645C239.705 308.434 239.432 309.053 238.885 309.502C238.338 309.951 237.645 310.176 236.805 310.176C235.938 310.176 235.242 309.951 234.719 309.502C234.199 309.049 233.939 308.469 233.939 307.762Z" fill="#A2A2A2"/>
<rect x="221" y="315" width="32" height="32" fill="#F9F9F9"/>
<rect x="221" y="315" width="32" height="32" stroke="#525252"/>
<path d="M232.611 337.5V323.281H237.094C238.585 323.281 239.73 323.662 240.531 324.424C241.339 325.179 241.742 326.185 241.742 327.441C241.742 328.698 241.339 329.717 240.531 330.498C239.73 331.273 238.585 331.66 237.094 331.66H234.379V337.5H232.611ZM234.379 330.205H237.094C238.168 330.205 238.917 329.938 239.34 329.404C239.763 328.87 239.975 328.216 239.975 327.441C239.975 326.667 239.763 326.022 239.34 325.508C238.917 324.987 238.168 324.727 237.094 324.727H234.379V330.205ZM240.502 337.5L237.025 330.938L238.793 330.674L242.475 337.5H240.502Z" fill="#262626"/>
<path d="M269.801 310V307.668V307.363V303.238H269.73L267.088 307.053H270.088H270.545H272.098V308.002H265.775V307.229L269.836 301.469H270.885V310H269.801Z" fill="#A2A2A2"/>
<rect x="253" y="315" width="32" height="32" fill="#F9F9F9"/>
<rect x="253" y="315" width="32" height="32" stroke="#525252"/>
<path d="M262.49 337.5L267.744 323.193H269.404L274.658 337.5H272.822L268.955 326.602C268.877 326.38 268.809 326.169 268.75 325.967C268.698 325.765 268.646 325.557 268.594 325.342H268.506C268.454 325.557 268.398 325.765 268.34 325.967C268.281 326.169 268.213 326.38 268.135 326.602L264.248 337.5H262.49ZM264.727 333.74L265.264 332.285H271.855L272.383 333.74H264.727Z" fill="#262626"/>
<path d="M298.057 307.85V307.791H299.164V307.85C299.164 308.275 299.318 308.611 299.627 308.857C299.939 309.104 300.355 309.227 300.875 309.227C301.395 309.227 301.82 309.057 302.152 308.717C302.484 308.373 302.65 307.893 302.65 307.275C302.65 306.658 302.484 306.188 302.152 305.863C301.82 305.539 301.395 305.377 300.875 305.377C300.52 305.377 300.205 305.441 299.932 305.57C299.658 305.699 299.402 305.881 299.164 306.115L298.355 305.729L298.789 301.469H303.336V302.494H299.727L299.475 304.879C299.67 304.758 299.902 304.652 300.172 304.562C300.445 304.469 300.742 304.422 301.062 304.422C301.82 304.422 302.463 304.674 302.99 305.178C303.521 305.678 303.787 306.377 303.787 307.275C303.787 308.174 303.512 308.883 302.961 309.402C302.41 309.918 301.715 310.176 300.875 310.176C300 310.176 299.311 309.955 298.807 309.514C298.307 309.072 298.057 308.518 298.057 307.85Z" fill="#A2A2A2"/>
<rect x="285" y="315" width="32" height="32" fill="#F9F9F9"/>
<rect x="285" y="315" width="32" height="32" stroke="#525252"/>
<path d="M295.611 337.5V323.281H297.467L303.834 333.438C303.964 333.633 304.085 333.831 304.195 334.033C304.306 334.229 304.397 334.411 304.469 334.58H304.547C304.54 334.378 304.534 334.157 304.527 333.916C304.527 333.669 304.527 333.447 304.527 333.252V323.281H306.246V337.5H304.4L298.014 327.334C297.89 327.139 297.773 326.943 297.662 326.748C297.558 326.546 297.464 326.361 297.379 326.191H297.311C297.317 326.393 297.32 326.618 297.32 326.865C297.327 327.106 297.33 327.327 297.33 327.529V337.5H295.611Z" fill="#262626"/>
<path d="M329.986 306.402V306.227C329.986 304.742 330.396 303.549 331.217 302.646C332.041 301.744 333.213 301.293 334.732 301.293H334.855V302.248H334.732C333.615 302.248 332.732 302.562 332.084 303.191C331.436 303.82 331.111 304.812 331.111 306.168V306.461C331.111 307.469 331.295 308.182 331.662 308.6C332.029 309.018 332.492 309.227 333.051 309.227C333.609 309.227 334.041 309.057 334.346 308.717C334.654 308.377 334.809 307.898 334.809 307.281C334.809 306.664 334.654 306.188 334.346 305.852C334.041 305.516 333.609 305.348 333.051 305.348C332.531 305.348 332.072 305.516 331.674 305.852C331.275 306.188 331.076 306.664 331.076 307.281H330.654C330.654 306.418 330.895 305.721 331.375 305.189C331.855 304.658 332.494 304.393 333.291 304.393C334.092 304.393 334.734 304.658 335.219 305.189C335.707 305.721 335.951 306.418 335.951 307.281C335.951 308.141 335.678 308.838 335.131 309.373C334.584 309.908 333.891 310.176 333.051 310.176C332.211 310.176 331.49 309.879 330.889 309.285C330.287 308.691 329.986 307.73 329.986 306.402Z" fill="#A2A2A2"/>
<rect x="317" y="315" width="32" height="32" fill="#F9F9F9"/>
<rect x="317" y="315" width="32" height="32" stroke="#525252"/>
<path d="M327.611 337.5V323.281H329.379V329.434H336.488V323.281H338.256V337.5H336.488V330.898H329.379V337.5H327.611Z" fill="#262626"/>
<path d="M363.24 310L366.551 302.441H361.939V301.469H367.758V302.113L364.418 310H363.24Z" fill="#A2A2A2"/>
<rect x="349" y="315" width="32" height="32" fill="#F9F9F9"/>
<rect x="349" y="315" width="32" height="32" stroke="#525252"/>
<path d="M358.49 337.5L363.744 323.193H365.404L370.658 337.5H368.822L364.955 326.602C364.877 326.38 364.809 326.169 364.75 325.967C364.698 325.765 364.646 325.557 364.594 325.342H364.506C364.454 325.557 364.398 325.765 364.34 325.967C364.281 326.169 364.213 326.38 364.135 326.602L360.248 337.5H358.49ZM360.727 333.74L361.264 332.285H367.855L368.383 333.74H360.727Z" fill="#262626"/>
<path d="M394.08 307.738C394.08 307.23 394.223 306.797 394.508 306.438C394.793 306.078 395.158 305.811 395.604 305.635V305.611C395.26 305.443 394.965 305.189 394.719 304.85C394.477 304.506 394.355 304.1 394.355 303.631C394.355 302.928 394.604 302.363 395.1 301.938C395.6 301.508 396.209 301.293 396.928 301.293C397.646 301.293 398.252 301.506 398.744 301.932C399.24 302.357 399.488 302.924 399.488 303.631C399.488 304.1 399.367 304.506 399.125 304.85C398.883 305.189 398.59 305.443 398.246 305.611V305.635C398.691 305.811 399.055 306.078 399.336 306.438C399.621 306.797 399.764 307.23 399.764 307.738C399.764 308.512 399.49 309.111 398.943 309.537C398.396 309.963 397.725 310.176 396.928 310.176C396.131 310.176 395.457 309.963 394.906 309.537C394.355 309.111 394.08 308.512 394.08 307.738ZM395.211 307.674C395.211 308.139 395.367 308.514 395.68 308.799C395.996 309.084 396.412 309.227 396.928 309.227C397.443 309.227 397.857 309.084 398.17 308.799C398.482 308.514 398.639 308.139 398.639 307.674C398.639 307.209 398.482 306.832 398.17 306.543C397.857 306.254 397.443 306.109 396.928 306.109C396.412 306.109 395.996 306.254 395.68 306.543C395.367 306.832 395.211 307.209 395.211 307.674ZM395.463 303.695C395.463 304.121 395.598 304.473 395.867 304.75C396.137 305.023 396.49 305.16 396.928 305.16C397.365 305.16 397.717 305.023 397.982 304.75C398.252 304.473 398.387 304.121 398.387 303.695C398.387 303.27 398.252 302.922 397.982 302.652C397.717 302.379 397.365 302.242 396.928 302.242C396.49 302.242 396.137 302.379 395.867 302.652C395.598 302.922 395.463 303.27 395.463 303.695Z" fill="#A2A2A2"/>
<rect x="381" y="315" width="32" height="32" fill="#F9F9F9"/>
<rect x="381" y="315" width="32" height="32" stroke="#525252"/>
<path d="M425.893 304.129C425.893 303.285 426.166 302.602 426.713 302.078C427.264 301.555 427.957 301.293 428.793 301.293C429.633 301.293 430.354 301.59 430.955 302.184C431.561 302.777 431.863 303.738 431.863 305.066V305.242C431.863 306.656 431.451 307.812 430.627 308.711C429.807 309.609 428.637 310.059 427.117 310.059H426.994V309.104H427.111C428.232 309.104 429.115 308.791 429.76 308.166C430.408 307.541 430.732 306.586 430.732 305.301V305.008C430.732 304 430.549 303.287 430.182 302.869C429.814 302.451 429.352 302.242 428.793 302.242C428.234 302.242 427.801 302.408 427.492 302.74C427.188 303.068 427.035 303.531 427.035 304.129C427.035 304.727 427.188 305.189 427.492 305.518C427.801 305.842 428.234 306.004 428.793 306.004C429.312 306.004 429.771 305.842 430.17 305.518C430.568 305.189 430.768 304.727 430.768 304.129H431.189C431.189 304.977 430.949 305.66 430.469 306.18C429.992 306.699 429.354 306.959 428.553 306.959C427.76 306.959 427.117 306.699 426.625 306.18C426.137 305.66 425.893 304.977 425.893 304.129Z" fill="#A2A2A2"/>
<rect x="413" y="315" width="32" height="32" fill="#F9F9F9"/>
<rect x="413" y="315" width="32" height="32" stroke="#525252"/>
<path d="M422.49 337.5L427.744 323.193H429.404L434.658 337.5H432.822L428.955 326.602C428.877 326.38 428.809 326.169 428.75 325.967C428.698 325.765 428.646 325.557 428.594 325.342H428.506C428.454 325.557 428.398 325.765 428.34 325.967C428.281 326.169 428.213 326.38 428.135 326.602L424.248 337.5H422.49ZM424.727 333.74L425.264 332.285H431.855L432.383 333.74H424.727Z" fill="#262626"/>
<path d="M457.193 310V302.729L454.99 303.637V302.523L458.137 301.352H458.342V310H457.193ZM461.465 307.24V304.229C461.465 303.35 461.711 302.641 462.203 302.102C462.699 301.562 463.387 301.293 464.266 301.293C465.137 301.293 465.822 301.562 466.322 302.102C466.822 302.641 467.072 303.35 467.072 304.229V307.24C467.072 308.123 466.822 308.834 466.322 309.373C465.822 309.908 465.137 310.176 464.266 310.176C463.387 310.176 462.699 309.908 462.203 309.373C461.711 308.834 461.465 308.123 461.465 307.24ZM462.625 307.299C462.625 307.857 462.758 308.318 463.023 308.682C463.293 309.041 463.707 309.221 464.266 309.221C464.824 309.221 465.238 309.041 465.508 308.682C465.777 308.318 465.912 307.857 465.912 307.299V304.17C465.912 303.611 465.777 303.152 465.508 302.793C465.238 302.43 464.824 302.248 464.266 302.248C463.707 302.248 463.293 302.43 463.023 302.793C462.758 303.152 462.625 303.611 462.625 304.17V307.299Z" fill="#A2A2A2"/>
<rect x="445" y="315" width="32" height="32" fill="#F9F9F9"/>
<rect x="445" y="315" width="32" height="32" stroke="#525252"/>
<path d="M456.611 337.5V323.281H461.094C462.585 323.281 463.73 323.662 464.531 324.424C465.339 325.179 465.742 326.185 465.742 327.441C465.742 328.698 465.339 329.717 464.531 330.498C463.73 331.273 462.585 331.66 461.094 331.66H458.379V337.5H456.611ZM458.379 330.205H461.094C462.168 330.205 462.917 329.938 463.34 329.404C463.763 328.87 463.975 328.216 463.975 327.441C463.975 326.667 463.763 326.022 463.34 325.508C462.917 324.987 462.168 324.727 461.094 324.727H458.379V330.205ZM464.502 337.5L461.025 330.938L462.793 330.674L466.475 337.5H464.502Z" fill="#262626"/>
<path d="M489.193 310V302.729L486.99 303.637V302.523L490.137 301.352H490.342V310H489.193ZM496.037 310V302.729L493.834 303.637V302.523L496.98 301.352H497.186V310H496.037Z" fill="#A2A2A2"/>
<rect x="477" y="315" width="32" height="32" fill="#F9F9F9"/>
<rect x="477" y="315" width="32" height="32" stroke="#525252"/>
<path d="M488.611 337.5V323.281H493.094C494.585 323.281 495.73 323.662 496.531 324.424C497.339 325.179 497.742 326.185 497.742 327.441C497.742 328.698 497.339 329.717 496.531 330.498C495.73 331.273 494.585 331.66 493.094 331.66H490.379V337.5H488.611ZM490.379 330.205H493.094C494.168 330.205 494.917 329.938 495.34 329.404C495.763 328.87 495.975 328.216 495.975 327.441C495.975 326.667 495.763 326.022 495.34 325.508C494.917 324.987 494.168 324.727 493.094 324.727H490.379V330.205ZM496.502 337.5L493.025 330.938L494.793 330.674L498.475 337.5H496.502Z" fill="#262626"/>
<path d="M521.193 310V302.729L518.99 303.637V302.523L522.137 301.352H522.342V310H521.193ZM525.465 310V309.145L528.588 305.881C528.994 305.463 529.303 305.09 529.514 304.762C529.729 304.43 529.836 304.07 529.836 303.684C529.836 303.297 529.701 302.961 529.432 302.676C529.162 302.391 528.787 302.248 528.307 302.248C527.826 302.248 527.422 302.402 527.094 302.711C526.766 303.016 526.602 303.438 526.602 303.977V304.035H525.459V303.977C525.459 303.195 525.73 302.553 526.273 302.049C526.82 301.545 527.498 301.293 528.307 301.293C529.107 301.293 529.752 301.525 530.24 301.99C530.732 302.455 530.979 303 530.979 303.625C530.979 304.184 530.82 304.689 530.504 305.143C530.188 305.592 529.799 306.051 529.338 306.52L526.906 309.016H531.213V310H525.465Z" fill="#A2A2A2"/>
<rect x="509" y="315" width="32" height="32" fill="#F9F9F9"/>
<rect x="509" y="315" width="32" height="32" stroke="#525252"/>
<path d="M518.49 337.5L523.744 323.193H525.404L530.658 337.5H528.822L524.955 326.602C524.877 326.38 524.809 326.169 524.75 325.967C524.698 325.765 524.646 325.557 524.594 325.342H524.506C524.454 325.557 524.398 325.765 524.34 325.967C524.281 326.169 524.213 326.38 524.135 326.602L520.248 337.5H518.49ZM520.727 333.74L521.264 332.285H527.855L528.383 333.74H520.727Z" fill="#262626"/>
<path d="M553.193 310V302.729L550.99 303.637V302.523L554.137 301.352H554.342V310H553.193ZM557.283 307.762V307.703H558.402V307.762C558.402 308.227 558.561 308.588 558.877 308.846C559.197 309.1 559.621 309.227 560.148 309.227C560.676 309.227 561.098 309.1 561.414 308.846C561.73 308.588 561.889 308.188 561.889 307.645C561.889 307.105 561.711 306.699 561.355 306.426C561 306.152 560.523 306.016 559.926 306.016H559.229V305.09H559.867C560.418 305.09 560.842 304.961 561.139 304.703C561.439 304.445 561.59 304.084 561.59 303.619C561.59 303.158 561.459 302.814 561.197 302.588C560.939 302.357 560.59 302.242 560.148 302.242C559.695 302.242 559.33 302.357 559.053 302.588C558.779 302.814 558.643 303.141 558.643 303.566V303.625H557.523V303.566C557.523 302.938 557.768 302.402 558.256 301.961C558.744 301.516 559.375 301.293 560.148 301.293C560.91 301.293 561.533 301.504 562.018 301.926C562.502 302.348 562.744 302.893 562.744 303.561C562.744 303.951 562.635 304.326 562.416 304.686C562.197 305.041 561.857 305.316 561.396 305.512V305.535C561.896 305.66 562.297 305.908 562.598 306.279C562.898 306.65 563.049 307.105 563.049 307.645C563.049 308.434 562.775 309.053 562.229 309.502C561.682 309.951 560.988 310.176 560.148 310.176C559.281 310.176 558.586 309.951 558.062 309.502C557.543 309.049 557.283 308.469 557.283 307.762Z" fill="#A2A2A2"/>
<rect x="541" y="315" width="32" height="32" fill="#F9F9F9"/>
<rect x="541" y="315" width="32" height="32" stroke="#525252"/>
<path d="M551.611 337.5V323.281H553.467L559.834 333.438C559.964 333.633 560.085 333.831 560.195 334.033C560.306 334.229 560.397 334.411 560.469 334.58H560.547C560.54 334.378 560.534 334.157 560.527 333.916C560.527 333.669 560.527 333.447 560.527 333.252V323.281H562.246V337.5H560.4L554.014 327.334C553.89 327.139 553.773 326.943 553.662 326.748C553.558 326.546 553.464 326.361 553.379 326.191H553.311C553.317 326.393 553.32 326.618 553.32 326.865C553.327 327.106 553.33 327.327 553.33 327.529V337.5H551.611Z" fill="#262626"/>
<path d="M585.193 310V302.729L582.99 303.637V302.523L586.137 301.352H586.342V310H585.193ZM593.145 310V307.668V307.363V303.238H593.074L590.432 307.053H593.432H593.889H595.441V308.002H589.119V307.229L593.18 301.469H594.229V310H593.145Z" fill="#A2A2A2"/>
<rect x="573" y="315" width="32" height="32" fill="#F9F9F9"/>
<rect x="573" y="315" width="32" height="32" stroke="#525252"/>
<path d="M583.611 337.5V323.281H585.379V329.434H592.488V323.281H594.256V337.5H592.488V330.898H585.379V337.5H583.611Z" fill="#262626"/>
<path d="M617.193 310V302.729L614.99 303.637V302.523L618.137 301.352H618.342V310H617.193ZM621.4 307.85V307.791H622.508V307.85C622.508 308.275 622.662 308.611 622.971 308.857C623.283 309.104 623.699 309.227 624.219 309.227C624.738 309.227 625.164 309.057 625.496 308.717C625.828 308.373 625.994 307.893 625.994 307.275C625.994 306.658 625.828 306.188 625.496 305.863C625.164 305.539 624.738 305.377 624.219 305.377C623.863 305.377 623.549 305.441 623.275 305.57C623.002 305.699 622.746 305.881 622.508 306.115L621.699 305.729L622.133 301.469H626.68V302.494H623.07L622.818 304.879C623.014 304.758 623.246 304.652 623.516 304.562C623.789 304.469 624.086 304.422 624.406 304.422C625.164 304.422 625.807 304.674 626.334 305.178C626.865 305.678 627.131 306.377 627.131 307.275C627.131 308.174 626.855 308.883 626.305 309.402C625.754 309.918 625.059 310.176 624.219 310.176C623.344 310.176 622.654 309.955 622.15 309.514C621.65 309.072 621.4 308.518 621.4 307.85Z" fill="#A2A2A2"/>
<rect x="605" y="315" width="32" height="32" fill="#F9F9F9"/>
<rect x="605" y="315" width="32" height="32" stroke="#525252"/>
<path d="M614.49 337.5L619.744 323.193H621.404L626.658 337.5H624.822L620.955 326.602C620.877 326.38 620.809 326.169 620.75 325.967C620.698 325.765 620.646 325.557 620.594 325.342H620.506C620.454 325.557 620.398 325.765 620.34 325.967C620.281 326.169 620.213 326.38 620.135 326.602L616.248 337.5H614.49ZM616.727 333.74L617.264 332.285H623.855L624.383 333.74H616.727Z" fill="#262626"/>
<path d="M649.193 310V302.729L646.99 303.637V302.523L650.137 301.352H650.342V310H649.193ZM653.33 306.402V306.227C653.33 304.742 653.74 303.549 654.561 302.646C655.385 301.744 656.557 301.293 658.076 301.293H658.199V302.248H658.076C656.959 302.248 656.076 302.562 655.428 303.191C654.779 303.82 654.455 304.812 654.455 306.168V306.461C654.455 307.469 654.639 308.182 655.006 308.6C655.373 309.018 655.836 309.227 656.395 309.227C656.953 309.227 657.385 309.057 657.689 308.717C657.998 308.377 658.152 307.898 658.152 307.281C658.152 306.664 657.998 306.188 657.689 305.852C657.385 305.516 656.953 305.348 656.395 305.348C655.875 305.348 655.416 305.516 655.018 305.852C654.619 306.188 654.42 306.664 654.42 307.281H653.998C653.998 306.418 654.238 305.721 654.719 305.189C655.199 304.658 655.838 304.393 656.635 304.393C657.436 304.393 658.078 304.658 658.562 305.189C659.051 305.721 659.295 306.418 659.295 307.281C659.295 308.141 659.021 308.838 658.475 309.373C657.928 309.908 657.234 310.176 656.395 310.176C655.555 310.176 654.834 309.879 654.232 309.285C653.631 308.691 653.33 307.73 653.33 306.402Z" fill="#A2A2A2"/>
<rect x="637" y="315" width="32" height="32" fill="#F9F9F9"/>
<rect x="637" y="315" width="32" height="32" stroke="#525252"/>
<path d="M681.193 310V302.729L678.99 303.637V302.523L682.137 301.352H682.342V310H681.193ZM686.584 310L689.895 302.441H685.283V301.469H691.102V302.113L687.762 310H686.584Z" fill="#A2A2A2"/>
<rect x="669" y="315" width="32" height="32" fill="#F9F9F9"/>
<rect x="669" y="315" width="32" height="32" stroke="#525252"/>
<path d="M678.49 337.5L683.744 323.193H685.404L690.658 337.5H688.822L684.955 326.602C684.877 326.38 684.809 326.169 684.75 325.967C684.698 325.765 684.646 325.557 684.594 325.342H684.506C684.454 325.557 684.398 325.765 684.34 325.967C684.281 326.169 684.213 326.38 684.135 326.602L680.248 337.5H678.49ZM680.727 333.74L681.264 332.285H687.855L688.383 333.74H680.727Z" fill="#262626"/>
<path d="M713.193 310V302.729L710.99 303.637V302.523L714.137 301.352H714.342V310H713.193ZM717.424 307.738C717.424 307.23 717.566 306.797 717.852 306.438C718.137 306.078 718.502 305.811 718.947 305.635V305.611C718.604 305.443 718.309 305.189 718.062 304.85C717.82 304.506 717.699 304.1 717.699 303.631C717.699 302.928 717.947 302.363 718.443 301.938C718.943 301.508 719.553 301.293 720.271 301.293C720.99 301.293 721.596 301.506 722.088 301.932C722.584 302.357 722.832 302.924 722.832 303.631C722.832 304.1 722.711 304.506 722.469 304.85C722.227 305.189 721.934 305.443 721.59 305.611V305.635C722.035 305.811 722.398 306.078 722.68 306.438C722.965 306.797 723.107 307.23 723.107 307.738C723.107 308.512 722.834 309.111 722.287 309.537C721.74 309.963 721.068 310.176 720.271 310.176C719.475 310.176 718.801 309.963 718.25 309.537C717.699 309.111 717.424 308.512 717.424 307.738ZM718.555 307.674C718.555 308.139 718.711 308.514 719.023 308.799C719.34 309.084 719.756 309.227 720.271 309.227C720.787 309.227 721.201 309.084 721.514 308.799C721.826 308.514 721.982 308.139 721.982 307.674C721.982 307.209 721.826 306.832 721.514 306.543C721.201 306.254 720.787 306.109 720.271 306.109C719.756 306.109 719.34 306.254 719.023 306.543C718.711 306.832 718.555 307.209 718.555 307.674ZM718.807 303.695C718.807 304.121 718.941 304.473 719.211 304.75C719.48 305.023 719.834 305.16 720.271 305.16C720.709 305.16 721.061 305.023 721.326 304.75C721.596 304.473 721.73 304.121 721.73 303.695C721.73 303.27 721.596 302.922 721.326 302.652C721.061 302.379 720.709 302.242 720.271 302.242C719.834 302.242 719.48 302.379 719.211 302.652C718.941 302.922 718.807 303.27 718.807 303.695Z" fill="#A2A2A2"/>
<rect x="701" y="315" width="32" height="32" fill="#F9F9F9"/>
<rect x="701" y="315" width="32" height="32" stroke="#525252"/>
<path d="M745.193 310V302.729L742.99 303.637V302.523L746.137 301.352H746.342V310H745.193ZM749.236 304.129C749.236 303.285 749.51 302.602 750.057 302.078C750.607 301.555 751.301 301.293 752.137 301.293C752.977 301.293 753.697 301.59 754.299 302.184C754.904 302.777 755.207 303.738 755.207 305.066V305.242C755.207 306.656 754.795 307.812 753.971 308.711C753.15 309.609 751.98 310.059 750.461 310.059H750.338V309.104H750.455C751.576 309.104 752.459 308.791 753.104 308.166C753.752 307.541 754.076 306.586 754.076 305.301V305.008C754.076 304 753.893 303.287 753.525 302.869C753.158 302.451 752.695 302.242 752.137 302.242C751.578 302.242 751.145 302.408 750.836 302.74C750.531 303.068 750.379 303.531 750.379 304.129C750.379 304.727 750.531 305.189 750.836 305.518C751.145 305.842 751.578 306.004 752.137 306.004C752.656 306.004 753.115 305.842 753.514 305.518C753.912 305.189 754.111 304.727 754.111 304.129H754.533C754.533 304.977 754.293 305.66 753.812 306.18C753.336 306.699 752.697 306.959 751.896 306.959C751.104 306.959 750.461 306.699 749.969 306.18C749.48 305.66 749.236 304.977 749.236 304.129Z" fill="#A2A2A2"/>
<rect x="733" y="315" width="32" height="32" fill="#F9F9F9"/>
<rect x="733" y="315" width="32" height="32" stroke="#525252"/>
<path d="M743.744 333.604V333.477H745.512V333.574C745.512 334.453 745.74 335.124 746.195 335.586C746.651 336.042 747.286 336.27 748.1 336.27C748.913 336.27 749.548 336.019 750.004 335.518C750.466 335.016 750.697 334.284 750.697 333.32V323.281H752.465V333.33C752.465 334.71 752.064 335.798 751.264 336.592C750.469 337.386 749.415 337.783 748.1 337.783C746.798 337.783 745.746 337.412 744.945 336.67C744.145 335.921 743.744 334.899 743.744 333.604Z" fill="#262626"/>
<path d="M774.621 310V309.145L777.744 305.881C778.15 305.463 778.459 305.09 778.67 304.762C778.885 304.43 778.992 304.07 778.992 303.684C778.992 303.297 778.857 302.961 778.588 302.676C778.318 302.391 777.943 302.248 777.463 302.248C776.982 302.248 776.578 302.402 776.25 302.711C775.922 303.016 775.758 303.438 775.758 303.977V304.035H774.615V303.977C774.615 303.195 774.887 302.553 775.43 302.049C775.977 301.545 776.654 301.293 777.463 301.293C778.264 301.293 778.908 301.525 779.396 301.99C779.889 302.455 780.135 303 780.135 303.625C780.135 304.184 779.977 304.689 779.66 305.143C779.344 305.592 778.955 306.051 778.494 306.52L776.062 309.016H780.369V310H774.621ZM781.465 307.24V304.229C781.465 303.35 781.711 302.641 782.203 302.102C782.699 301.562 783.387 301.293 784.266 301.293C785.137 301.293 785.822 301.562 786.322 302.102C786.822 302.641 787.072 303.35 787.072 304.229V307.24C787.072 308.123 786.822 308.834 786.322 309.373C785.822 309.908 785.137 310.176 784.266 310.176C783.387 310.176 782.699 309.908 782.203 309.373C781.711 308.834 781.465 308.123 781.465 307.24ZM782.625 307.299C782.625 307.857 782.758 308.318 783.023 308.682C783.293 309.041 783.707 309.221 784.266 309.221C784.824 309.221 785.238 309.041 785.508 308.682C785.777 308.318 785.912 307.857 785.912 307.299V304.17C785.912 303.611 785.777 303.152 785.508 302.793C785.238 302.43 784.824 302.248 784.266 302.248C783.707 302.248 783.293 302.43 783.023 302.793C782.758 303.152 782.625 303.611 782.625 304.17V307.299Z" fill="#A2A2A2"/>
<rect x="765" y="315" width="32" height="32" fill="#F9F9F9"/>
<rect x="765" y="315" width="32" height="32" stroke="#525252"/>
<path d="M774.49 337.5L779.744 323.193H781.404L786.658 337.5H784.822L780.955 326.602C780.877 326.38 780.809 326.169 780.75 325.967C780.698 325.765 780.646 325.557 780.594 325.342H780.506C780.454 325.557 780.398 325.765 780.34 325.967C780.281 326.169 780.213 326.38 780.135 326.602L776.248 337.5H774.49ZM776.727 333.74L777.264 332.285H783.855L784.383 333.74H776.727Z" fill="#262626"/>
<path d="M806.621 310V309.145L809.744 305.881C810.15 305.463 810.459 305.09 810.67 304.762C810.885 304.43 810.992 304.07 810.992 303.684C810.992 303.297 810.857 302.961 810.588 302.676C810.318 302.391 809.943 302.248 809.463 302.248C808.982 302.248 808.578 302.402 808.25 302.711C807.922 303.016 807.758 303.438 807.758 303.977V304.035H806.615V303.977C806.615 303.195 806.887 302.553 807.43 302.049C807.977 301.545 808.654 301.293 809.463 301.293C810.264 301.293 810.908 301.525 811.396 301.99C811.889 302.455 812.135 303 812.135 303.625C812.135 304.184 811.977 304.689 811.66 305.143C811.344 305.592 810.955 306.051 810.494 306.52L808.062 309.016H812.369V310H806.621ZM816.037 310V302.729L813.834 303.637V302.523L816.98 301.352H817.186V310H816.037Z" fill="#A2A2A2"/>
<rect x="797" y="315" width="32" height="32" fill="#F9F9F9"/>
<rect x="797" y="315" width="32" height="32" stroke="#525252"/>
<path d="M808.611 337.5V323.281H813.094C814.585 323.281 815.73 323.662 816.531 324.424C817.339 325.179 817.742 326.185 817.742 327.441C817.742 328.698 817.339 329.717 816.531 330.498C815.73 331.273 814.585 331.66 813.094 331.66H810.379V337.5H808.611ZM810.379 330.205H813.094C814.168 330.205 814.917 329.938 815.34 329.404C815.763 328.87 815.975 328.216 815.975 327.441C815.975 326.667 815.763 326.022 815.34 325.508C814.917 324.987 814.168 324.727 813.094 324.727H810.379V330.205ZM816.502 337.5L813.025 330.938L814.793 330.674L818.475 337.5H816.502Z" fill="#262626"/>
<path d="M838.621 310V309.145L841.744 305.881C842.15 305.463 842.459 305.09 842.67 304.762C842.885 304.43 842.992 304.07 842.992 303.684C842.992 303.297 842.857 302.961 842.588 302.676C842.318 302.391 841.943 302.248 841.463 302.248C840.982 302.248 840.578 302.402 840.25 302.711C839.922 303.016 839.758 303.438 839.758 303.977V304.035H838.615V303.977C838.615 303.195 838.887 302.553 839.43 302.049C839.977 301.545 840.654 301.293 841.463 301.293C842.264 301.293 842.908 301.525 843.396 301.99C843.889 302.455 844.135 303 844.135 303.625C844.135 304.184 843.977 304.689 843.66 305.143C843.344 305.592 842.955 306.051 842.494 306.52L840.062 309.016H844.369V310H838.621ZM845.465 310V309.145L848.588 305.881C848.994 305.463 849.303 305.09 849.514 304.762C849.729 304.43 849.836 304.07 849.836 303.684C849.836 303.297 849.701 302.961 849.432 302.676C849.162 302.391 848.787 302.248 848.307 302.248C847.826 302.248 847.422 302.402 847.094 302.711C846.766 303.016 846.602 303.438 846.602 303.977V304.035H845.459V303.977C845.459 303.195 845.73 302.553 846.273 302.049C846.82 301.545 847.498 301.293 848.307 301.293C849.107 301.293 849.752 301.525 850.24 301.99C850.732 302.455 850.979 303 850.979 303.625C850.979 304.184 850.82 304.689 850.504 305.143C850.188 305.592 849.799 306.051 849.338 306.52L846.906 309.016H851.213V310H845.465Z" fill="#A2A2A2"/>
<rect x="829" y="315" width="32" height="32" fill="#F9F9F9"/>
<rect x="829" y="315" width="32" height="32" stroke="#525252"/>
<path d="M840.611 337.5V323.281H845.094C846.585 323.281 847.73 323.662 848.531 324.424C849.339 325.179 849.742 326.185 849.742 327.441C849.742 328.698 849.339 329.717 848.531 330.498C847.73 331.273 846.585 331.66 845.094 331.66H842.379V337.5H840.611ZM842.379 330.205H845.094C846.168 330.205 846.917 329.938 847.34 329.404C847.763 328.87 847.975 328.216 847.975 327.441C847.975 326.667 847.763 326.022 847.34 325.508C846.917 324.987 846.168 324.727 845.094 324.727H842.379V330.205ZM848.502 337.5L845.025 330.938L846.793 330.674L850.475 337.5H848.502Z" fill="#262626"/>
<path d="M870.621 310V309.145L873.744 305.881C874.15 305.463 874.459 305.09 874.67 304.762C874.885 304.43 874.992 304.07 874.992 303.684C874.992 303.297 874.857 302.961 874.588 302.676C874.318 302.391 873.943 302.248 873.463 302.248C872.982 302.248 872.578 302.402 872.25 302.711C871.922 303.016 871.758 303.438 871.758 303.977V304.035H870.615V303.977C870.615 303.195 870.887 302.553 871.43 302.049C871.977 301.545 872.654 301.293 873.463 301.293C874.264 301.293 874.908 301.525 875.396 301.99C875.889 302.455 876.135 303 876.135 303.625C876.135 304.184 875.977 304.689 875.66 305.143C875.344 305.592 874.955 306.051 874.494 306.52L872.062 309.016H876.369V310H870.621ZM877.283 307.762V307.703H878.402V307.762C878.402 308.227 878.561 308.588 878.877 308.846C879.197 309.1 879.621 309.227 880.148 309.227C880.676 309.227 881.098 309.1 881.414 308.846C881.73 308.588 881.889 308.188 881.889 307.645C881.889 307.105 881.711 306.699 881.355 306.426C881 306.152 880.523 306.016 879.926 306.016H879.229V305.09H879.867C880.418 305.09 880.842 304.961 881.139 304.703C881.439 304.445 881.59 304.084 881.59 303.619C881.59 303.158 881.459 302.814 881.197 302.588C880.939 302.357 880.59 302.242 880.148 302.242C879.695 302.242 879.33 302.357 879.053 302.588C878.779 302.814 878.643 303.141 878.643 303.566V303.625H877.523V303.566C877.523 302.938 877.768 302.402 878.256 301.961C878.744 301.516 879.375 301.293 880.148 301.293C880.91 301.293 881.533 301.504 882.018 301.926C882.502 302.348 882.744 302.893 882.744 303.561C882.744 303.951 882.635 304.326 882.416 304.686C882.197 305.041 881.857 305.316 881.396 305.512V305.535C881.896 305.66 882.297 305.908 882.598 306.279C882.898 306.65 883.049 307.105 883.049 307.645C883.049 308.434 882.775 309.053 882.229 309.502C881.682 309.951 880.988 310.176 880.148 310.176C879.281 310.176 878.586 309.951 878.062 309.502C877.543 309.049 877.283 308.469 877.283 307.762Z" fill="#A2A2A2"/>
<rect x="861" y="315" width="32" height="32" fill="#F9F9F9"/>
<rect x="861" y="315" width="32" height="32" stroke="#525252"/>
<path d="M870.49 337.5L875.744 323.193H877.404L882.658 337.5H880.822L876.955 326.602C876.877 326.38 876.809 326.169 876.75 325.967C876.698 325.765 876.646 325.557 876.594 325.342H876.506C876.454 325.557 876.398 325.765 876.34 325.967C876.281 326.169 876.213 326.38 876.135 326.602L872.248 337.5H870.49ZM872.727 333.74L873.264 332.285H879.855L880.383 333.74H872.727Z" fill="#262626"/>
<rect x="93" y="358" width="32" height="32" fill="#F9F9F9"/>
<rect x="93" y="358" width="32" height="32" stroke="#525252"/>
<path d="M104.535 376.047V370.734C104.535 369.296 104.926 368.146 105.707 367.287C106.495 366.428 107.585 365.998 108.979 365.998C110.359 365.998 111.443 366.428 112.23 367.287C113.025 368.146 113.422 369.296 113.422 370.734V376.047C113.422 377.486 113.025 378.635 112.23 379.494C111.443 380.354 110.359 380.783 108.979 380.783C107.585 380.777 106.495 380.347 105.707 379.494C104.926 378.635 104.535 377.486 104.535 376.047ZM106.312 376.145C106.312 377.082 106.531 377.847 106.967 378.439C107.403 379.025 108.074 379.318 108.979 379.318C109.877 379.318 110.544 379.025 110.98 378.439C111.417 377.847 111.635 377.082 111.635 376.145V370.637C111.635 369.699 111.417 368.938 110.98 368.352C110.544 367.759 109.877 367.463 108.979 367.463C108.074 367.463 107.403 367.759 106.967 368.352C106.531 368.938 106.312 369.699 106.312 370.637V376.145Z" fill="#262626"/>
<rect x="125" y="358" width="32" height="32" fill="#F9F9F9"/>
<rect x="125" y="358" width="32" height="32" stroke="#525252"/>
<path d="M140.637 380.5V368.205L137.072 369.67V367.961L142.072 366.086H142.404V380.5H140.637Z" fill="#262626"/>
<rect x="157" y="358" width="32" height="32" fill="#F9F9F9"/>
<rect x="157" y="358" width="32" height="32" stroke="#525252"/>
<path d="M168.535 376.047V370.734C168.535 369.296 168.926 368.146 169.707 367.287C170.495 366.428 171.585 365.998 172.979 365.998C174.359 365.998 175.443 366.428 176.23 367.287C177.025 368.146 177.422 369.296 177.422 370.734V376.047C177.422 377.486 177.025 378.635 176.23 379.494C175.443 380.354 174.359 380.783 172.979 380.783C171.585 380.777 170.495 380.347 169.707 379.494C168.926 378.635 168.535 377.486 168.535 376.047ZM170.312 376.145C170.312 377.082 170.531 377.847 170.967 378.439C171.403 379.025 172.074 379.318 172.979 379.318C173.877 379.318 174.544 379.025 174.98 378.439C175.417 377.847 175.635 377.082 175.635 376.145V370.637C175.635 369.699 175.417 368.938 174.98 368.352C174.544 367.759 173.877 367.463 172.979 367.463C172.074 367.463 171.403 367.759 170.967 368.352C170.531 368.938 170.312 369.699 170.312 370.637V376.145Z" fill="#262626"/>
<rect x="189" y="358" width="32" height="32" fill="#F9F9F9"/>
<rect x="189" y="358" width="32" height="32" stroke="#525252"/>
<path d="M204.637 380.5V368.205L201.072 369.67V367.961L206.072 366.086H206.404V380.5H204.637Z" fill="#262626"/>
<rect x="221" y="358" width="32" height="32" fill="#F9F9F9"/>
<rect x="221" y="358" width="32" height="32" stroke="#525252"/>
<path d="M232.506 380.5V379.211L237.496 373.674C238.154 372.964 238.658 372.323 239.01 371.75C239.361 371.177 239.537 370.565 239.537 369.914C239.537 369.23 239.312 368.651 238.863 368.176C238.421 367.701 237.812 367.463 237.037 367.463C236.262 367.463 235.605 367.717 235.064 368.225C234.531 368.726 234.264 369.445 234.264 370.383V370.49H232.506V370.383C232.506 369.081 232.939 368.026 233.805 367.219C234.677 366.405 235.755 365.998 237.037 365.998C238.307 365.998 239.332 366.372 240.113 367.121C240.901 367.87 241.295 368.768 241.295 369.816C241.295 370.721 241.044 371.548 240.543 372.297C240.042 373.039 239.417 373.817 238.668 374.631L234.693 378.967H241.676V380.5H232.506Z" fill="#262626"/>
<rect x="253" y="358" width="32" height="32" fill="#F9F9F9"/>
<rect x="253" y="358" width="32" height="32" stroke="#525252"/>
<path d="M264.223 376.799V376.682H265.932V376.799C265.932 377.606 266.195 378.228 266.723 378.664C267.25 379.1 267.94 379.318 268.793 379.318C269.659 379.318 270.349 379.1 270.863 378.664C271.378 378.221 271.635 377.535 271.635 376.604C271.635 375.673 271.342 374.973 270.756 374.504C270.17 374.035 269.392 373.801 268.422 373.801H267.25V372.375H268.334C269.219 372.375 269.91 372.157 270.404 371.721C270.906 371.285 271.156 370.653 271.156 369.826C271.156 369.032 270.941 368.439 270.512 368.049C270.089 367.658 269.516 367.463 268.793 367.463C268.031 367.463 267.429 367.661 266.986 368.059C266.544 368.456 266.322 369.019 266.322 369.748V369.865H264.604V369.748C264.604 368.693 264.991 367.805 265.766 367.082C266.547 366.359 267.556 365.998 268.793 365.998C269.997 365.998 270.987 366.343 271.762 367.033C272.536 367.723 272.924 368.625 272.924 369.738C272.924 370.435 272.742 371.079 272.377 371.672C272.019 372.258 271.472 372.707 270.736 373.02V373.059C271.537 373.26 272.185 373.671 272.68 374.289C273.174 374.901 273.422 375.673 273.422 376.604C273.422 377.899 272.986 378.921 272.113 379.67C271.247 380.412 270.141 380.783 268.793 380.783C267.387 380.783 266.273 380.412 265.453 379.67C264.633 378.928 264.223 377.971 264.223 376.799Z" fill="#262626"/>
<rect x="285" y="358" width="32" height="32" fill="#F9F9F9"/>
<rect x="285" y="358" width="32" height="32" stroke="#525252"/>
<path d="M302.365 380.5V376.623V376.164V369.152H302.258L297.941 375.686H302.834H303.518H306.008V377.15H295.93V375.949L302.434 366.281H304.025V380.5H302.365Z" fill="#262626"/>
<rect x="317" y="358" width="32" height="32" fill="#F9F9F9"/>
<rect x="317" y="358" width="32" height="32" stroke="#525252"/>
<path d="M328.389 376.926V376.818H330.088V376.926C330.088 377.674 330.342 378.26 330.85 378.684C331.357 379.107 332.038 379.318 332.891 379.318C333.743 379.318 334.44 379.029 334.98 378.449C335.521 377.863 335.791 377.033 335.791 375.959C335.791 374.885 335.521 374.077 334.98 373.537C334.447 372.99 333.76 372.717 332.92 372.717C332.334 372.717 331.81 372.827 331.348 373.049C330.892 373.264 330.482 373.563 330.117 373.947L328.877 373.391L329.6 366.281H336.816V367.844H331.045L330.596 372.023C330.915 371.815 331.296 371.633 331.738 371.477C332.188 371.32 332.676 371.242 333.203 371.242C334.401 371.242 335.423 371.652 336.27 372.473C337.116 373.286 337.539 374.449 337.539 375.959C337.539 377.469 337.1 378.651 336.221 379.504C335.348 380.357 334.238 380.783 332.891 380.783C331.471 380.783 330.365 380.422 329.57 379.699C328.783 378.977 328.389 378.052 328.389 376.926Z" fill="#262626"/>
<rect x="349" y="358" width="32" height="32" fill="#F9F9F9"/>
<rect x="349" y="358" width="32" height="32" stroke="#525252"/>
<path d="M360.32 374.504V374.211C360.32 371.724 360.975 369.735 362.283 368.244C363.592 366.747 365.441 365.998 367.83 365.998H368.025V367.463H367.83C366.046 367.463 364.637 368.003 363.602 369.084C362.566 370.158 362.049 371.844 362.049 374.143V374.592C362.049 376.311 362.342 377.528 362.928 378.244C363.52 378.96 364.272 379.318 365.184 379.318C366.082 379.318 366.782 379.032 367.283 378.459C367.785 377.88 368.035 377.053 368.035 375.979C368.035 374.924 367.785 374.113 367.283 373.547C366.788 372.98 366.089 372.697 365.184 372.697C364.344 372.697 363.602 372.984 362.957 373.557C362.319 374.13 362 374.934 362 375.969H361.326C361.326 374.556 361.71 373.413 362.479 372.541C363.253 371.662 364.275 371.223 365.545 371.223C366.827 371.223 367.853 371.659 368.621 372.531C369.396 373.404 369.783 374.553 369.783 375.979C369.783 377.411 369.35 378.57 368.484 379.455C367.618 380.34 366.515 380.783 365.174 380.783C363.826 380.783 362.68 380.292 361.736 379.309C360.792 378.319 360.32 376.717 360.32 374.504Z" fill="#262626"/>
<rect x="381" y="358" width="32" height="32" fill="#F9F9F9"/>
<rect x="381" y="358" width="32" height="32" stroke="#525252"/>
<path d="M392.535 376.047V370.734C392.535 369.296 392.926 368.146 393.707 367.287C394.495 366.428 395.585 365.998 396.979 365.998C398.359 365.998 399.443 366.428 400.23 367.287C401.025 368.146 401.422 369.296 401.422 370.734V376.047C401.422 377.486 401.025 378.635 400.23 379.494C399.443 380.354 398.359 380.783 396.979 380.783C395.585 380.777 394.495 380.347 393.707 379.494C392.926 378.635 392.535 377.486 392.535 376.047ZM394.312 376.145C394.312 377.082 394.531 377.847 394.967 378.439C395.403 379.025 396.074 379.318 396.979 379.318C397.877 379.318 398.544 379.025 398.98 378.439C399.417 377.847 399.635 377.082 399.635 376.145V370.637C399.635 369.699 399.417 368.938 398.98 368.352C398.544 367.759 397.877 367.463 396.979 367.463C396.074 367.463 395.403 367.759 394.967 368.352C394.531 368.938 394.312 369.699 394.312 370.637V376.145Z" fill="#262626"/>
<rect x="413" y="358" width="32" height="32" fill="#F9F9F9"/>
<rect x="413" y="358" width="32" height="32" stroke="#525252"/>
<path d="M428.637 380.5V368.205L425.072 369.67V367.961L430.072 366.086H430.404V380.5H428.637Z" fill="#262626"/>
<rect x="445" y="358" width="32" height="32" fill="#F9F9F9"/>
<rect x="445" y="358" width="32" height="32" stroke="#525252"/>
<path d="M456.506 380.5V379.211L461.496 373.674C462.154 372.964 462.658 372.323 463.01 371.75C463.361 371.177 463.537 370.565 463.537 369.914C463.537 369.23 463.312 368.651 462.863 368.176C462.421 367.701 461.812 367.463 461.037 367.463C460.262 367.463 459.605 367.717 459.064 368.225C458.531 368.726 458.264 369.445 458.264 370.383V370.49H456.506V370.383C456.506 369.081 456.939 368.026 457.805 367.219C458.677 366.405 459.755 365.998 461.037 365.998C462.307 365.998 463.332 366.372 464.113 367.121C464.901 367.87 465.295 368.768 465.295 369.816C465.295 370.721 465.044 371.548 464.543 372.297C464.042 373.039 463.417 373.817 462.668 374.631L458.693 378.967H465.676V380.5H456.506Z" fill="#262626"/>
<rect x="477" y="358" width="32" height="32" fill="#F9F9F9"/>
<rect x="477" y="358" width="32" height="32" stroke="#525252"/>
<path d="M488.535 376.047V370.734C488.535 369.296 488.926 368.146 489.707 367.287C490.495 366.428 491.585 365.998 492.979 365.998C494.359 365.998 495.443 366.428 496.23 367.287C497.025 368.146 497.422 369.296 497.422 370.734V376.047C497.422 377.486 497.025 378.635 496.23 379.494C495.443 380.354 494.359 380.783 492.979 380.783C491.585 380.777 490.495 380.347 489.707 379.494C488.926 378.635 488.535 377.486 488.535 376.047ZM490.312 376.145C490.312 377.082 490.531 377.847 490.967 378.439C491.403 379.025 492.074 379.318 492.979 379.318C493.877 379.318 494.544 379.025 494.98 378.439C495.417 377.847 495.635 377.082 495.635 376.145V370.637C495.635 369.699 495.417 368.938 494.98 368.352C494.544 367.759 493.877 367.463 492.979 367.463C492.074 367.463 491.403 367.759 490.967 368.352C490.531 368.938 490.312 369.699 490.312 370.637V376.145Z" fill="#262626"/>
<rect x="509" y="358" width="32" height="32" fill="#F9F9F9"/>
<rect x="509" y="358" width="32" height="32" stroke="#525252"/>
<path d="M524.637 380.5V368.205L521.072 369.67V367.961L526.072 366.086H526.404V380.5H524.637Z" fill="#262626"/>
<rect x="541" y="358" width="32" height="32" fill="#F9F9F9"/>
<rect x="541" y="358" width="32" height="32" stroke="#525252"/>
<path d="M552.535 376.047V370.734C552.535 369.296 552.926 368.146 553.707 367.287C554.495 366.428 555.585 365.998 556.979 365.998C558.359 365.998 559.443 366.428 560.23 367.287C561.025 368.146 561.422 369.296 561.422 370.734V376.047C561.422 377.486 561.025 378.635 560.23 379.494C559.443 380.354 558.359 380.783 556.979 380.783C555.585 380.777 554.495 380.347 553.707 379.494C552.926 378.635 552.535 377.486 552.535 376.047ZM554.312 376.145C554.312 377.082 554.531 377.847 554.967 378.439C555.403 379.025 556.074 379.318 556.979 379.318C557.877 379.318 558.544 379.025 558.98 378.439C559.417 377.847 559.635 377.082 559.635 376.145V370.637C559.635 369.699 559.417 368.938 558.98 368.352C558.544 367.759 557.877 367.463 556.979 367.463C556.074 367.463 555.403 367.759 554.967 368.352C554.531 368.938 554.312 369.699 554.312 370.637V376.145Z" fill="#262626"/>
<rect x="573" y="358" width="32" height="32" fill="#F9F9F9"/>
<rect x="573" y="358" width="32" height="32" stroke="#525252"/>
<path d="M584.535 376.047V370.734C584.535 369.296 584.926 368.146 585.707 367.287C586.495 366.428 587.585 365.998 588.979 365.998C590.359 365.998 591.443 366.428 592.23 367.287C593.025 368.146 593.422 369.296 593.422 370.734V376.047C593.422 377.486 593.025 378.635 592.23 379.494C591.443 380.354 590.359 380.783 588.979 380.783C587.585 380.777 586.495 380.347 585.707 379.494C584.926 378.635 584.535 377.486 584.535 376.047ZM586.312 376.145C586.312 377.082 586.531 377.847 586.967 378.439C587.403 379.025 588.074 379.318 588.979 379.318C589.877 379.318 590.544 379.025 590.98 378.439C591.417 377.847 591.635 377.082 591.635 376.145V370.637C591.635 369.699 591.417 368.938 590.98 368.352C590.544 367.759 589.877 367.463 588.979 367.463C588.074 367.463 587.403 367.759 586.967 368.352C586.531 368.938 586.312 369.699 586.312 370.637V376.145Z" fill="#262626"/>
<rect x="605" y="358" width="32" height="32" fill="#F9F9F9"/>
<rect x="605" y="358" width="32" height="32" stroke="#525252"/>
<path d="M620.637 380.5V368.205L617.072 369.67V367.961L622.072 366.086H622.404V380.5H620.637Z" fill="#262626"/>
<rect x="637" y="358" width="32" height="32" fill="#F9F9F9"/>
<rect x="637" y="358" width="32" height="32" stroke="#525252"/>
<path d="M648.535 376.047V370.734C648.535 369.296 648.926 368.146 649.707 367.287C650.495 366.428 651.585 365.998 652.979 365.998C654.359 365.998 655.443 366.428 656.23 367.287C657.025 368.146 657.422 369.296 657.422 370.734V376.047C657.422 377.486 657.025 378.635 656.23 379.494C655.443 380.354 654.359 380.783 652.979 380.783C651.585 380.777 650.495 380.347 649.707 379.494C648.926 378.635 648.535 377.486 648.535 376.047ZM650.312 376.145C650.312 377.082 650.531 377.847 650.967 378.439C651.403 379.025 652.074 379.318 652.979 379.318C653.877 379.318 654.544 379.025 654.98 378.439C655.417 377.847 655.635 377.082 655.635 376.145V370.637C655.635 369.699 655.417 368.938 654.98 368.352C654.544 367.759 653.877 367.463 652.979 367.463C652.074 367.463 651.403 367.759 650.967 368.352C650.531 368.938 650.312 369.699 650.312 370.637V376.145Z" fill="#262626"/>
<rect x="669" y="358" width="32" height="32" fill="#F9F9F9"/>
<rect x="669" y="358" width="32" height="32" stroke="#525252"/>
<path d="M684.637 380.5V368.205L681.072 369.67V367.961L686.072 366.086H686.404V380.5H684.637Z" fill="#262626"/>
<rect x="701" y="358" width="32" height="32" fill="#F9F9F9"/>
<rect x="701" y="358" width="32" height="32" stroke="#525252"/>
<path d="M712.535 376.047V370.734C712.535 369.296 712.926 368.146 713.707 367.287C714.495 366.428 715.585 365.998 716.979 365.998C718.359 365.998 719.443 366.428 720.23 367.287C721.025 368.146 721.422 369.296 721.422 370.734V376.047C721.422 377.486 721.025 378.635 720.23 379.494C719.443 380.354 718.359 380.783 716.979 380.783C715.585 380.777 714.495 380.347 713.707 379.494C712.926 378.635 712.535 377.486 712.535 376.047ZM714.312 376.145C714.312 377.082 714.531 377.847 714.967 378.439C715.403 379.025 716.074 379.318 716.979 379.318C717.877 379.318 718.544 379.025 718.98 378.439C719.417 377.847 719.635 377.082 719.635 376.145V370.637C719.635 369.699 719.417 368.938 718.98 368.352C718.544 367.759 717.877 367.463 716.979 367.463C716.074 367.463 715.403 367.759 714.967 368.352C714.531 368.938 714.312 369.699 714.312 370.637V376.145Z" fill="#262626"/>
<rect x="733" y="358" width="32" height="32" fill="#A2A2A2"/>
<rect x="733" y="358" width="32" height="32" stroke="#525252"/>
<rect x="765" y="358" width="32" height="32" fill="#A2A2A2"/>
<rect x="765" y="358" width="32" height="32" stroke="#525252"/>
<rect x="797" y="358" width="32" height="32" fill="#A2A2A2"/>
<rect x="797" y="358" width="32" height="32" stroke="#525252"/>
<rect x="829" y="358" width="32" height="32" fill="#A2A2A2"/>
<rect x="829" y="358" width="32" height="32" stroke="#525252"/>
<rect x="861" y="358" width="32" height="32" fill="#A2A2A2"/>
<rect x="861" y="358" width="32" height="32" stroke="#525252"/>
<path d="M17.6113 380V365.781H26.2832V367.246H19.3789V371.934H25.3848V373.398H19.3789V378.535H26.3809V380H17.6113ZM27.8066 377.002H29.5254V377.08C29.5254 377.679 29.7402 378.128 30.1699 378.428C30.5996 378.721 31.1693 378.867 31.8789 378.867C32.5951 378.867 33.1582 378.727 33.5684 378.447C33.9785 378.161 34.1836 377.786 34.1836 377.324C34.1836 376.862 34.0143 376.51 33.6758 376.27C33.3438 376.022 32.6374 375.768 31.5566 375.508C30.4694 375.247 29.6133 374.889 28.9883 374.434C28.3633 373.971 28.0508 373.327 28.0508 372.5C28.0508 371.667 28.3893 370.98 29.0664 370.439C29.75 369.899 30.6615 369.629 31.8008 369.629C32.9401 369.629 33.8581 369.899 34.5547 370.439C35.2513 370.98 35.5996 371.719 35.5996 372.656V372.725H33.8906V372.627C33.8906 372.119 33.7181 371.729 33.373 371.455C33.028 371.182 32.5039 371.045 31.8008 371.045C31.0977 371.045 30.5801 371.172 30.248 371.426C29.916 371.68 29.75 372.008 29.75 372.412C29.75 372.803 29.9355 373.115 30.3066 373.35C30.6777 373.577 31.4036 373.822 32.4844 374.082C33.5651 374.342 34.3984 374.71 34.9844 375.186C35.5768 375.654 35.873 376.331 35.873 377.217C35.873 378.115 35.541 378.851 34.877 379.424C34.2129 379.997 33.2168 380.283 31.8887 380.283C30.554 380.283 29.5384 379.993 28.8418 379.414C28.1517 378.835 27.8066 378.057 27.8066 377.08V377.002ZM36.6641 371.24V369.912H42.3867V371.24H36.6641ZM38.4707 377.471V370.693V370.42V367.236H40.1797V377.471C40.1797 377.965 40.2708 378.311 40.4531 378.506C40.6419 378.701 40.9349 378.799 41.332 378.799C41.5078 378.799 41.6803 378.783 41.8496 378.75C42.0254 378.711 42.2012 378.659 42.377 378.594V380C42.2142 380.078 42.0026 380.143 41.7422 380.195C41.4818 380.254 41.1953 380.283 40.8828 380.283C40.1471 380.283 39.5612 380.062 39.125 379.619C38.6888 379.17 38.4707 378.454 38.4707 377.471ZM43.6758 377.041C43.6758 376.025 44.0762 375.231 44.877 374.658C45.6842 374.085 46.7161 373.799 47.9727 373.799H50.2773V373.066C50.2773 372.448 50.1146 371.95 49.7891 371.572C49.4701 371.195 48.9264 371.006 48.1582 371.006C47.3835 371.006 46.8236 371.165 46.4785 371.484C46.14 371.797 45.9707 372.171 45.9707 372.607V372.686H44.2617V372.588C44.2617 371.794 44.6133 371.104 45.3164 370.518C46.026 369.925 46.9863 369.629 48.1973 369.629C49.4017 369.629 50.3327 369.915 50.9902 370.488C51.6543 371.055 51.9863 371.914 51.9863 373.066V377.656C51.9863 378.079 52.0189 378.48 52.084 378.857C52.1491 379.229 52.2402 379.557 52.3574 379.844V380H50.707C50.6159 379.837 50.5312 379.626 50.4531 379.365C50.3815 379.105 50.3359 378.844 50.3164 378.584C50.0755 379.001 49.6882 379.372 49.1543 379.697C48.627 380.023 47.9434 380.186 47.1035 380.186C46.14 380.186 45.3262 379.915 44.6621 379.375C44.0046 378.835 43.6758 378.057 43.6758 377.041ZM45.3848 376.953C45.3848 377.539 45.554 377.995 45.8926 378.32C46.2376 378.646 46.7617 378.809 47.4648 378.809C48.181 378.809 48.8288 378.564 49.4082 378.076C49.9876 377.581 50.2773 377.054 50.2773 376.494V375.039H48.168C47.25 375.039 46.5566 375.212 46.0879 375.557C45.6191 375.902 45.3848 376.367 45.3848 376.953ZM54.1348 375.107V374.795C54.1348 373.324 54.5156 372.109 55.2773 371.152C56.0456 370.195 57.0677 369.717 58.3438 369.717C59.0534 369.717 59.6556 369.844 60.1504 370.098C60.6517 370.345 61.0488 370.677 61.3418 371.094V365.107H63.0605V380H61.5078L61.4395 378.672H61.3809C61.1204 379.089 60.7266 379.447 60.1992 379.746C59.6719 380.046 59.0534 380.195 58.3438 380.195C57.0612 380.195 56.0391 379.717 55.2773 378.76C54.5156 377.796 54.1348 376.579 54.1348 375.107ZM55.8828 375.107C55.8828 376.149 56.1107 377.021 56.5664 377.725C57.0221 378.428 57.735 378.779 58.7051 378.779C59.3561 378.779 59.9062 378.604 60.3555 378.252C60.8112 377.894 61.14 377.487 61.3418 377.031V372.861C61.1465 372.406 60.821 372.002 60.3652 371.65C59.9095 371.299 59.3561 371.123 58.7051 371.123C57.735 371.123 57.0221 371.475 56.5664 372.178C56.1107 372.881 55.8828 373.753 55.8828 374.795V375.107ZM65.2676 375.107V374.795C65.2676 373.271 65.6973 372.031 66.5566 371.074C67.416 370.111 68.5618 369.629 69.9941 369.629C71.4329 369.629 72.5788 370.111 73.4316 371.074C74.291 372.031 74.7207 373.271 74.7207 374.795V375.107C74.7207 376.631 74.291 377.874 73.4316 378.838C72.5788 379.801 71.4329 380.283 69.9941 380.283C68.5618 380.283 67.416 379.801 66.5566 378.838C65.6973 377.874 65.2676 376.631 65.2676 375.107ZM67.0156 374.795V375.107C67.0156 376.169 67.2663 377.061 67.7676 377.783C68.2689 378.506 69.0111 378.867 69.9941 378.867C70.9772 378.867 71.7194 378.506 72.2207 377.783C72.722 377.061 72.9727 376.169 72.9727 375.107V374.795C72.9727 373.74 72.722 372.852 72.2207 372.129C71.7194 371.406 70.9772 371.045 69.9941 371.045C69.0111 371.045 68.2689 371.406 67.7676 372.129C67.2663 372.852 67.0156 373.74 67.0156 374.795ZM76.3223 377.002H78.041V377.08C78.041 377.679 78.2559 378.128 78.6855 378.428C79.1152 378.721 79.6849 378.867 80.3945 378.867C81.1107 378.867 81.6738 378.727 82.084 378.447C82.4941 378.161 82.6992 377.786 82.6992 377.324C82.6992 376.862 82.5299 376.51 82.1914 376.27C81.8594 376.022 81.153 375.768 80.0723 375.508C78.985 375.247 78.1289 374.889 77.5039 374.434C76.8789 373.971 76.5664 373.327 76.5664 372.5C76.5664 371.667 76.9049 370.98 77.582 370.439C78.2656 369.899 79.1771 369.629 80.3164 369.629C81.4557 369.629 82.3737 369.899 83.0703 370.439C83.7669 370.98 84.1152 371.719 84.1152 372.656V372.725H82.4062V372.627C82.4062 372.119 82.2337 371.729 81.8887 371.455C81.5436 371.182 81.0195 371.045 80.3164 371.045C79.6133 371.045 79.0957 371.172 78.7637 371.426C78.4316 371.68 78.2656 372.008 78.2656 372.412C78.2656 372.803 78.4512 373.115 78.8223 373.35C79.1934 373.577 79.9193 373.822 81 374.082C82.0807 374.342 82.9141 374.71 83.5 375.186C84.0924 375.654 84.3887 376.331 84.3887 377.217C84.3887 378.115 84.0566 378.851 83.3926 379.424C82.7285 379.997 81.7324 380.283 80.4043 380.283C79.0697 380.283 78.054 379.993 77.3574 379.414C76.6673 378.835 76.3223 378.057 76.3223 377.08V377.002Z" fill="#262626"/>
</svg>
