<svg width="775" height="162" viewBox="0 0 775 162" fill="none" xmlns="http://www.w3.org/2000/svg">
<g clip-path="url(#clip0_46_668)">
<path d="M188.121 26.2402V23.2285C188.121 22.3496 188.367 21.6406 188.859 21.1016C189.355 20.5625 190.043 20.293 190.922 20.293C191.793 20.293 192.479 20.5625 192.979 21.1016C193.479 21.6406 193.729 22.3496 193.729 23.2285V26.2402C193.729 27.123 193.479 27.834 192.979 28.373C192.479 28.9082 191.793 29.1758 190.922 29.1758C190.043 29.1758 189.355 28.9082 188.859 28.373C188.367 27.834 188.121 27.123 188.121 26.2402ZM189.281 26.2988C189.281 26.8574 189.414 27.3184 189.68 27.6816C189.949 28.041 190.363 28.2207 190.922 28.2207C191.48 28.2207 191.895 28.041 192.164 27.6816C192.434 27.3184 192.568 26.8574 192.568 26.2988V23.1699C192.568 22.6113 192.434 22.1523 192.164 21.793C191.895 21.4297 191.48 21.248 190.922 21.248C190.363 21.248 189.949 21.4297 189.68 21.793C189.414 22.1523 189.281 22.6113 189.281 23.1699V26.2988Z" fill="#A2A2A2"/>
<rect x="175" y="34" width="32" height="32" fill="#F9F9F9"/>
<rect x="175" y="34" width="32" height="32" stroke="#525252"/>
<path d="M222.693 29V21.7285L220.49 22.6367V21.5234L223.637 20.3516H223.842V29H222.693Z" fill="#A2A2A2"/>
<rect x="207" y="34" width="32" height="32" fill="#F9F9F9"/>
<rect x="207" y="34" width="32" height="32" stroke="#525252"/>
<path d="M252.121 29V28.1445L255.244 24.8809C255.65 24.4629 255.959 24.0898 256.17 23.7617C256.385 23.4297 256.492 23.0703 256.492 22.6836C256.492 22.2969 256.357 21.9609 256.088 21.6758C255.818 21.3906 255.443 21.248 254.963 21.248C254.482 21.248 254.078 21.4023 253.75 21.7109C253.422 22.0156 253.258 22.4375 253.258 22.9766V23.0352H252.115V22.9766C252.115 22.1953 252.387 21.5527 252.93 21.0488C253.477 20.5449 254.154 20.293 254.963 20.293C255.764 20.293 256.408 20.5254 256.896 20.9902C257.389 21.4551 257.635 22 257.635 22.625C257.635 23.1836 257.477 23.6895 257.16 24.1426C256.844 24.5918 256.455 25.0508 255.994 25.5195L253.562 28.0156H257.869V29H252.121Z" fill="#A2A2A2"/>
<rect x="239" y="34" width="32" height="32" fill="#F9F9F9"/>
<rect x="239" y="34" width="32" height="32" stroke="#525252"/>
<path d="M283.939 26.7617V26.7031H285.059V26.7617C285.059 27.2266 285.217 27.5879 285.533 27.8457C285.854 28.0996 286.277 28.2266 286.805 28.2266C287.332 28.2266 287.754 28.0996 288.07 27.8457C288.387 27.5879 288.545 27.1875 288.545 26.6445C288.545 26.1055 288.367 25.6992 288.012 25.4258C287.656 25.1523 287.18 25.0156 286.582 25.0156H285.885V24.0898H286.523C287.074 24.0898 287.498 23.9609 287.795 23.7031C288.096 23.4453 288.246 23.084 288.246 22.6191C288.246 22.1582 288.115 21.8145 287.854 21.5879C287.596 21.3574 287.246 21.2422 286.805 21.2422C286.352 21.2422 285.986 21.3574 285.709 21.5879C285.436 21.8145 285.299 22.1406 285.299 22.5664V22.625H284.18V22.5664C284.18 21.9375 284.424 21.4023 284.912 20.9609C285.4 20.5156 286.031 20.293 286.805 20.293C287.566 20.293 288.189 20.5039 288.674 20.9258C289.158 21.3477 289.4 21.8926 289.4 22.5605C289.4 22.9512 289.291 23.3262 289.072 23.6855C288.854 24.041 288.514 24.3164 288.053 24.5117V24.5352C288.553 24.6602 288.953 24.9082 289.254 25.2793C289.555 25.6504 289.705 26.1055 289.705 26.6445C289.705 27.4336 289.432 28.0527 288.885 28.502C288.338 28.9512 287.645 29.1758 286.805 29.1758C285.938 29.1758 285.242 28.9512 284.719 28.502C284.199 28.0488 283.939 27.4688 283.939 26.7617Z" fill="#A2A2A2"/>
<rect x="271" y="34" width="32" height="32" fill="#F9F9F9"/>
<rect x="271" y="34" width="32" height="32" stroke="#525252"/>
<path d="M319.801 29V26.668V26.3633V22.2383H319.73L317.088 26.0527H320.088H320.545H322.098V27.002H315.775V26.2285L319.836 20.4688H320.885V29H319.801Z" fill="#A2A2A2"/>
<rect x="303" y="34" width="32" height="32" fill="#F9F9F9"/>
<rect x="303" y="34" width="32" height="32" stroke="#525252"/>
<path d="M348.057 26.8496V26.791H349.164V26.8496C349.164 27.2754 349.318 27.6113 349.627 27.8574C349.939 28.1035 350.355 28.2266 350.875 28.2266C351.395 28.2266 351.82 28.0566 352.152 27.7168C352.484 27.373 352.65 26.8926 352.65 26.2754C352.65 25.6582 352.484 25.1875 352.152 24.8633C351.82 24.5391 351.395 24.377 350.875 24.377C350.52 24.377 350.205 24.4414 349.932 24.5703C349.658 24.6992 349.402 24.8809 349.164 25.1152L348.355 24.7285L348.789 20.4688H353.336V21.4941H349.727L349.475 23.8789C349.67 23.7578 349.902 23.6523 350.172 23.5625C350.445 23.4688 350.742 23.4219 351.062 23.4219C351.82 23.4219 352.463 23.6738 352.99 24.1777C353.521 24.6777 353.787 25.377 353.787 26.2754C353.787 27.1738 353.512 27.8828 352.961 28.4023C352.41 28.918 351.715 29.1758 350.875 29.1758C350 29.1758 349.311 28.9551 348.807 28.5137C348.307 28.0723 348.057 27.5176 348.057 26.8496Z" fill="#A2A2A2"/>
<rect x="335" y="34" width="32" height="32" fill="#F9F9F9"/>
<rect x="335" y="34" width="32" height="32" stroke="#525252"/>
</g>
<rect x="174.5" y="15.5" width="193" height="51" stroke="#4F46E4"/>
<path d="M516.121 26.2402V23.2285C516.121 22.3496 516.367 21.6406 516.859 21.1016C517.355 20.5625 518.043 20.293 518.922 20.293C519.793 20.293 520.479 20.5625 520.979 21.1016C521.479 21.6406 521.729 22.3496 521.729 23.2285V26.2402C521.729 27.123 521.479 27.834 520.979 28.373C520.479 28.9082 519.793 29.1758 518.922 29.1758C518.043 29.1758 517.355 28.9082 516.859 28.373C516.367 27.834 516.121 27.123 516.121 26.2402ZM517.281 26.2988C517.281 26.8574 517.414 27.3184 517.68 27.6816C517.949 28.041 518.363 28.2207 518.922 28.2207C519.48 28.2207 519.895 28.041 520.164 27.6816C520.434 27.3184 520.568 26.8574 520.568 26.2988V23.1699C520.568 22.6113 520.434 22.1523 520.164 21.793C519.895 21.4297 519.48 21.248 518.922 21.248C518.363 21.248 517.949 21.4297 517.68 21.793C517.414 22.1523 517.281 22.6113 517.281 23.1699V26.2988Z" fill="#A2A2A2"/>
<rect x="503" y="34" width="32" height="32" fill="#F9F9F9"/>
<rect x="503" y="34" width="32" height="32" stroke="#525252"/>
<path d="M514.906 56.5V46.4121H516.459L516.527 47.7207H516.576C516.941 47.252 517.387 46.8841 517.914 46.6172C518.448 46.3503 519.04 46.2168 519.691 46.2168C520.701 46.2168 521.505 46.5033 522.104 47.0762C522.702 47.6491 523.002 48.6126 523.002 49.9668V56.5H521.293V49.957C521.293 49.1367 521.107 48.5508 520.736 48.1992C520.372 47.8411 519.851 47.6621 519.174 47.6621C518.601 47.6621 518.093 47.8184 517.65 48.1309C517.208 48.4434 516.863 48.8503 516.615 49.3516V56.5H514.906Z" fill="#262626"/>
<path d="M550.693 29V21.7285L548.49 22.6367V21.5234L551.637 20.3516H551.842V29H550.693Z" fill="#A2A2A2"/>
<rect x="535" y="34" width="32" height="32" fill="#F9F9F9"/>
<rect x="535" y="34" width="32" height="32" stroke="#525252"/>
<path d="M546.34 53.541C546.34 52.5254 546.74 51.7311 547.541 51.1582C548.348 50.5853 549.38 50.2988 550.637 50.2988H552.941V49.5664C552.941 48.9479 552.779 48.4499 552.453 48.0723C552.134 47.6947 551.59 47.5059 550.822 47.5059C550.048 47.5059 549.488 47.6654 549.143 47.9844C548.804 48.2969 548.635 48.6712 548.635 49.1074V49.1855H546.926V49.0879C546.926 48.2936 547.277 47.6035 547.98 47.0176C548.69 46.4251 549.65 46.1289 550.861 46.1289C552.066 46.1289 552.997 46.4154 553.654 46.9883C554.318 47.5547 554.65 48.4141 554.65 49.5664V54.1562C554.65 54.5794 554.683 54.9798 554.748 55.3574C554.813 55.7285 554.904 56.0573 555.021 56.3438V56.5H553.371C553.28 56.3372 553.195 56.1257 553.117 55.8652C553.046 55.6048 553 55.3444 552.98 55.084C552.74 55.5007 552.352 55.8717 551.818 56.1973C551.291 56.5228 550.607 56.6855 549.768 56.6855C548.804 56.6855 547.99 56.4154 547.326 55.875C546.669 55.3346 546.34 54.5566 546.34 53.541ZM548.049 53.4531C548.049 54.0391 548.218 54.4948 548.557 54.8203C548.902 55.1458 549.426 55.3086 550.129 55.3086C550.845 55.3086 551.493 55.0645 552.072 54.5762C552.652 54.0814 552.941 53.554 552.941 52.9941V51.5391H550.832C549.914 51.5391 549.221 51.7116 548.752 52.0566C548.283 52.4017 548.049 52.8672 548.049 53.4531Z" fill="#262626"/>
<path d="M580.121 29V28.1445L583.244 24.8809C583.65 24.4629 583.959 24.0898 584.17 23.7617C584.385 23.4297 584.492 23.0703 584.492 22.6836C584.492 22.2969 584.357 21.9609 584.088 21.6758C583.818 21.3906 583.443 21.248 582.963 21.248C582.482 21.248 582.078 21.4023 581.75 21.7109C581.422 22.0156 581.258 22.4375 581.258 22.9766V23.0352H580.115V22.9766C580.115 22.1953 580.387 21.5527 580.93 21.0488C581.477 20.5449 582.154 20.293 582.963 20.293C583.764 20.293 584.408 20.5254 584.896 20.9902C585.389 21.4551 585.635 22 585.635 22.625C585.635 23.1836 585.477 23.6895 585.16 24.1426C584.844 24.5918 584.455 25.0508 583.994 25.5195L581.562 28.0156H585.869V29H580.121Z" fill="#A2A2A2"/>
<rect x="567" y="34" width="32" height="32" fill="#F9F9F9"/>
<rect x="567" y="34" width="32" height="32" stroke="#525252"/>
<path d="M578.611 56.5V42.2812H583.162C584.555 42.2812 585.649 42.584 586.443 43.1895C587.244 43.7884 587.645 44.7324 587.645 46.0215C587.645 46.8092 587.449 47.4538 587.059 47.9551C586.674 48.4499 586.193 48.7982 585.613 49V49.0391C586.323 49.2409 586.902 49.6283 587.352 50.2012C587.801 50.7676 588.025 51.5098 588.025 52.4277C588.025 53.7233 587.609 54.7259 586.775 55.4355C585.942 56.1452 584.835 56.5 583.455 56.5H578.611ZM580.34 55.0352H583.455C584.425 55.0352 585.135 54.8008 585.584 54.332C586.04 53.8633 586.268 53.2285 586.268 52.4277C586.268 51.627 586.04 50.9922 585.584 50.5234C585.135 50.0547 584.425 49.8203 583.455 49.8203H580.34V55.0352ZM580.34 48.375H583.162C584.132 48.375 584.829 48.1699 585.252 47.7598C585.682 47.3431 585.896 46.7669 585.896 46.0312C585.896 45.2891 585.682 44.7227 585.252 44.332C584.829 43.9414 584.132 43.7461 583.162 43.7461H580.34V48.375Z" fill="#262626"/>
<path d="M611.939 26.7617V26.7031H613.059V26.7617C613.059 27.2266 613.217 27.5879 613.533 27.8457C613.854 28.0996 614.277 28.2266 614.805 28.2266C615.332 28.2266 615.754 28.0996 616.07 27.8457C616.387 27.5879 616.545 27.1875 616.545 26.6445C616.545 26.1055 616.367 25.6992 616.012 25.4258C615.656 25.1523 615.18 25.0156 614.582 25.0156H613.885V24.0898H614.523C615.074 24.0898 615.498 23.9609 615.795 23.7031C616.096 23.4453 616.246 23.084 616.246 22.6191C616.246 22.1582 616.115 21.8145 615.854 21.5879C615.596 21.3574 615.246 21.2422 614.805 21.2422C614.352 21.2422 613.986 21.3574 613.709 21.5879C613.436 21.8145 613.299 22.1406 613.299 22.5664V22.625H612.18V22.5664C612.18 21.9375 612.424 21.4023 612.912 20.9609C613.4 20.5156 614.031 20.293 614.805 20.293C615.566 20.293 616.189 20.5039 616.674 20.9258C617.158 21.3477 617.4 21.8926 617.4 22.5605C617.4 22.9512 617.291 23.3262 617.072 23.6855C616.854 24.041 616.514 24.3164 616.053 24.5117V24.5352C616.553 24.6602 616.953 24.9082 617.254 25.2793C617.555 25.6504 617.705 26.1055 617.705 26.6445C617.705 27.4336 617.432 28.0527 616.885 28.502C616.338 28.9512 615.645 29.1758 614.805 29.1758C613.938 29.1758 613.242 28.9512 612.719 28.502C612.199 28.0488 611.939 27.4688 611.939 26.7617Z" fill="#A2A2A2"/>
<rect x="599" y="34" width="32" height="32" fill="#F9F9F9"/>
<rect x="599" y="34" width="32" height="32" stroke="#525252"/>
<path d="M610.34 53.541C610.34 52.5254 610.74 51.7311 611.541 51.1582C612.348 50.5853 613.38 50.2988 614.637 50.2988H616.941V49.5664C616.941 48.9479 616.779 48.4499 616.453 48.0723C616.134 47.6947 615.59 47.5059 614.822 47.5059C614.048 47.5059 613.488 47.6654 613.143 47.9844C612.804 48.2969 612.635 48.6712 612.635 49.1074V49.1855H610.926V49.0879C610.926 48.2936 611.277 47.6035 611.98 47.0176C612.69 46.4251 613.65 46.1289 614.861 46.1289C616.066 46.1289 616.997 46.4154 617.654 46.9883C618.318 47.5547 618.65 48.4141 618.65 49.5664V54.1562C618.65 54.5794 618.683 54.9798 618.748 55.3574C618.813 55.7285 618.904 56.0573 619.021 56.3438V56.5H617.371C617.28 56.3372 617.195 56.1257 617.117 55.8652C617.046 55.6048 617 55.3444 616.98 55.084C616.74 55.5007 616.352 55.8717 615.818 56.1973C615.291 56.5228 614.607 56.6855 613.768 56.6855C612.804 56.6855 611.99 56.4154 611.326 55.875C610.669 55.3346 610.34 54.5566 610.34 53.541ZM612.049 53.4531C612.049 54.0391 612.218 54.4948 612.557 54.8203C612.902 55.1458 613.426 55.3086 614.129 55.3086C614.845 55.3086 615.493 55.0645 616.072 54.5762C616.652 54.0814 616.941 53.554 616.941 52.9941V51.5391H614.832C613.914 51.5391 613.221 51.7116 612.752 52.0566C612.283 52.4017 612.049 52.8672 612.049 53.4531Z" fill="#262626"/>
<path d="M647.801 29V26.668V26.3633V22.2383H647.73L645.088 26.0527H648.088H648.545H650.098V27.002H643.775V26.2285L647.836 20.4688H648.885V29H647.801Z" fill="#A2A2A2"/>
<rect x="631" y="34" width="32" height="32" fill="#F9F9F9"/>
<rect x="631" y="34" width="32" height="32" stroke="#525252"/>
<path d="M642.291 51.6074V51.2949C642.291 49.765 642.701 48.5215 643.521 47.5645C644.348 46.6074 645.478 46.1289 646.91 46.1289C648.251 46.1289 649.267 46.487 649.957 47.2031C650.647 47.9193 650.992 48.7363 650.992 49.6543V49.7129H649.332V49.6543C649.332 49.0814 649.137 48.5866 648.746 48.1699C648.362 47.7533 647.753 47.5449 646.92 47.5449C645.943 47.5449 645.217 47.903 644.742 48.6191C644.273 49.3288 644.039 50.2207 644.039 51.2949V51.6074C644.039 52.6686 644.273 53.5605 644.742 54.2832C645.217 55.0059 645.94 55.3672 646.91 55.3672C647.75 55.3672 648.362 55.1589 648.746 54.7422C649.137 54.319 649.332 53.8177 649.332 53.2383V53.1797H650.992V53.2383C650.992 54.1562 650.644 54.9766 649.947 55.6992C649.257 56.4219 648.245 56.7832 646.91 56.7832C645.478 56.7832 644.348 56.3047 643.521 55.3477C642.701 54.3841 642.291 53.1374 642.291 51.6074Z" fill="#262626"/>
<path d="M676.057 26.8496V26.791H677.164V26.8496C677.164 27.2754 677.318 27.6113 677.627 27.8574C677.939 28.1035 678.355 28.2266 678.875 28.2266C679.395 28.2266 679.82 28.0566 680.152 27.7168C680.484 27.373 680.65 26.8926 680.65 26.2754C680.65 25.6582 680.484 25.1875 680.152 24.8633C679.82 24.5391 679.395 24.377 678.875 24.377C678.52 24.377 678.205 24.4414 677.932 24.5703C677.658 24.6992 677.402 24.8809 677.164 25.1152L676.355 24.7285L676.789 20.4688H681.336V21.4941H677.727L677.475 23.8789C677.67 23.7578 677.902 23.6523 678.172 23.5625C678.445 23.4688 678.742 23.4219 679.062 23.4219C679.82 23.4219 680.463 23.6738 680.99 24.1777C681.521 24.6777 681.787 25.377 681.787 26.2754C681.787 27.1738 681.512 27.8828 680.961 28.4023C680.41 28.918 679.715 29.1758 678.875 29.1758C678 29.1758 677.311 28.9551 676.807 28.5137C676.307 28.0723 676.057 27.5176 676.057 26.8496Z" fill="#A2A2A2"/>
<rect x="663" y="34" width="32" height="32" fill="#F9F9F9"/>
<rect x="663" y="34" width="32" height="32" stroke="#525252"/>
<path d="M674.34 53.541C674.34 52.5254 674.74 51.7311 675.541 51.1582C676.348 50.5853 677.38 50.2988 678.637 50.2988H680.941V49.5664C680.941 48.9479 680.779 48.4499 680.453 48.0723C680.134 47.6947 679.59 47.5059 678.822 47.5059C678.048 47.5059 677.488 47.6654 677.143 47.9844C676.804 48.2969 676.635 48.6712 676.635 49.1074V49.1855H674.926V49.0879C674.926 48.2936 675.277 47.6035 675.98 47.0176C676.69 46.4251 677.65 46.1289 678.861 46.1289C680.066 46.1289 680.997 46.4154 681.654 46.9883C682.318 47.5547 682.65 48.4141 682.65 49.5664V54.1562C682.65 54.5794 682.683 54.9798 682.748 55.3574C682.813 55.7285 682.904 56.0573 683.021 56.3438V56.5H681.371C681.28 56.3372 681.195 56.1257 681.117 55.8652C681.046 55.6048 681 55.3444 680.98 55.084C680.74 55.5007 680.352 55.8717 679.818 56.1973C679.291 56.5228 678.607 56.6855 677.768 56.6855C676.804 56.6855 675.99 56.4154 675.326 55.875C674.669 55.3346 674.34 54.5566 674.34 53.541ZM676.049 53.4531C676.049 54.0391 676.218 54.4948 676.557 54.8203C676.902 55.1458 677.426 55.3086 678.129 55.3086C678.845 55.3086 679.493 55.0645 680.072 54.5762C680.652 54.0814 680.941 53.554 680.941 52.9941V51.5391H678.832C677.914 51.5391 677.221 51.7116 676.752 52.0566C676.283 52.4017 676.049 52.8672 676.049 53.4531Z" fill="#262626"/>
<path d="M707.986 25.4023V25.2266C707.986 23.7422 708.396 22.5488 709.217 21.6465C710.041 20.7441 711.213 20.293 712.732 20.293H712.855V21.248H712.732C711.615 21.248 710.732 21.5625 710.084 22.1914C709.436 22.8203 709.111 23.8125 709.111 25.168V25.4609C709.111 26.4688 709.295 27.1816 709.662 27.5996C710.029 28.0176 710.492 28.2266 711.051 28.2266C711.609 28.2266 712.041 28.0566 712.346 27.7168C712.654 27.377 712.809 26.8984 712.809 26.2812C712.809 25.6641 712.654 25.1875 712.346 24.8516C712.041 24.5156 711.609 24.3477 711.051 24.3477C710.531 24.3477 710.072 24.5156 709.674 24.8516C709.275 25.1875 709.076 25.6641 709.076 26.2812H708.654C708.654 25.418 708.895 24.7207 709.375 24.1895C709.855 23.6582 710.494 23.3926 711.291 23.3926C712.092 23.3926 712.734 23.6582 713.219 24.1895C713.707 24.7207 713.951 25.418 713.951 26.2812C713.951 27.1406 713.678 27.8379 713.131 28.373C712.584 28.9082 711.891 29.1758 711.051 29.1758C710.211 29.1758 709.49 28.8789 708.889 28.2852C708.287 27.6914 707.986 26.7305 707.986 25.4023Z" fill="#A2A2A2"/>
<rect x="695" y="34" width="32" height="32" fill="#F9F9F9"/>
<rect x="695" y="34" width="32" height="32" stroke="#525252"/>
<path d="M706.906 56.5V46.4121H708.459L708.527 47.7207H708.576C708.941 47.252 709.387 46.8841 709.914 46.6172C710.448 46.3503 711.04 46.2168 711.691 46.2168C712.701 46.2168 713.505 46.5033 714.104 47.0762C714.702 47.6491 715.002 48.6126 715.002 49.9668V56.5H713.293V49.957C713.293 49.1367 713.107 48.5508 712.736 48.1992C712.372 47.8411 711.851 47.6621 711.174 47.6621C710.601 47.6621 710.093 47.8184 709.65 48.1309C709.208 48.4434 708.863 48.8503 708.615 49.3516V56.5H706.906Z" fill="#262626"/>
<path d="M741.24 29L744.551 21.4414H739.939V20.4688H745.758V21.1133L742.418 29H741.24Z" fill="#A2A2A2"/>
<rect x="727" y="34" width="32" height="32" fill="#F9F9F9"/>
<rect x="727" y="34" width="32" height="32" stroke="#525252"/>
<path d="M738.34 53.541C738.34 52.5254 738.74 51.7311 739.541 51.1582C740.348 50.5853 741.38 50.2988 742.637 50.2988H744.941V49.5664C744.941 48.9479 744.779 48.4499 744.453 48.0723C744.134 47.6947 743.59 47.5059 742.822 47.5059C742.048 47.5059 741.488 47.6654 741.143 47.9844C740.804 48.2969 740.635 48.6712 740.635 49.1074V49.1855H738.926V49.0879C738.926 48.2936 739.277 47.6035 739.98 47.0176C740.69 46.4251 741.65 46.1289 742.861 46.1289C744.066 46.1289 744.997 46.4154 745.654 46.9883C746.318 47.5547 746.65 48.4141 746.65 49.5664V54.1562C746.65 54.5794 746.683 54.9798 746.748 55.3574C746.813 55.7285 746.904 56.0573 747.021 56.3438V56.5H745.371C745.28 56.3372 745.195 56.1257 745.117 55.8652C745.046 55.6048 745 55.3444 744.98 55.084C744.74 55.5007 744.352 55.8717 743.818 56.1973C743.291 56.5228 742.607 56.6855 741.768 56.6855C740.804 56.6855 739.99 56.4154 739.326 55.875C738.669 55.3346 738.34 54.5566 738.34 53.541ZM740.049 53.4531C740.049 54.0391 740.218 54.4948 740.557 54.8203C740.902 55.1458 741.426 55.3086 742.129 55.3086C742.845 55.3086 743.493 55.0645 744.072 54.5762C744.652 54.0814 744.941 53.554 744.941 52.9941V51.5391H742.832C741.914 51.5391 741.221 51.7116 740.752 52.0566C740.283 52.4017 740.049 52.8672 740.049 53.4531Z" fill="#262626"/>
<g clip-path="url(#clip1_46_668)">
<path d="M384.121 26.2402V23.2285C384.121 22.3496 384.367 21.6406 384.859 21.1016C385.355 20.5625 386.043 20.293 386.922 20.293C387.793 20.293 388.479 20.5625 388.979 21.1016C389.479 21.6406 389.729 22.3496 389.729 23.2285V26.2402C389.729 27.123 389.479 27.834 388.979 28.373C388.479 28.9082 387.793 29.1758 386.922 29.1758C386.043 29.1758 385.355 28.9082 384.859 28.373C384.367 27.834 384.121 27.123 384.121 26.2402ZM385.281 26.2988C385.281 26.8574 385.414 27.3184 385.68 27.6816C385.949 28.041 386.363 28.2207 386.922 28.2207C387.48 28.2207 387.895 28.041 388.164 27.6816C388.434 27.3184 388.568 26.8574 388.568 26.2988V23.1699C388.568 22.6113 388.434 22.1523 388.164 21.793C387.895 21.4297 387.48 21.248 386.922 21.248C386.363 21.248 385.949 21.4297 385.68 21.793C385.414 22.1523 385.281 22.6113 385.281 23.1699V26.2988Z" fill="#A2A2A2"/>
<rect x="371" y="34" width="32" height="32" fill="#F9F9F9"/>
<rect x="371" y="34" width="32" height="32" stroke="#525252"/>
<path d="M382.611 56.5V42.2812H387.162C388.555 42.2812 389.649 42.584 390.443 43.1895C391.244 43.7884 391.645 44.7324 391.645 46.0215C391.645 46.8092 391.449 47.4538 391.059 47.9551C390.674 48.4499 390.193 48.7982 389.613 49V49.0391C390.323 49.2409 390.902 49.6283 391.352 50.2012C391.801 50.7676 392.025 51.5098 392.025 52.4277C392.025 53.7233 391.609 54.7259 390.775 55.4355C389.942 56.1452 388.835 56.5 387.455 56.5H382.611ZM384.34 55.0352H387.455C388.425 55.0352 389.135 54.8008 389.584 54.332C390.04 53.8633 390.268 53.2285 390.268 52.4277C390.268 51.627 390.04 50.9922 389.584 50.5234C389.135 50.0547 388.425 49.8203 387.455 49.8203H384.34V55.0352ZM384.34 48.375H387.162C388.132 48.375 388.829 48.1699 389.252 47.7598C389.682 47.3431 389.896 46.7669 389.896 46.0312C389.896 45.2891 389.682 44.7227 389.252 44.332C388.829 43.9414 388.132 43.7461 387.162 43.7461H384.34V48.375Z" fill="#262626"/>
<path d="M418.693 29V21.7285L416.49 22.6367V21.5234L419.637 20.3516H419.842V29H418.693Z" fill="#A2A2A2"/>
<rect x="403" y="34" width="32" height="32" fill="#F9F9F9"/>
<rect x="403" y="34" width="32" height="32" stroke="#525252"/>
<path d="M414.34 53.541C414.34 52.5254 414.74 51.7311 415.541 51.1582C416.348 50.5853 417.38 50.2988 418.637 50.2988H420.941V49.5664C420.941 48.9479 420.779 48.4499 420.453 48.0723C420.134 47.6947 419.59 47.5059 418.822 47.5059C418.048 47.5059 417.488 47.6654 417.143 47.9844C416.804 48.2969 416.635 48.6712 416.635 49.1074V49.1855H414.926V49.0879C414.926 48.2936 415.277 47.6035 415.98 47.0176C416.69 46.4251 417.65 46.1289 418.861 46.1289C420.066 46.1289 420.997 46.4154 421.654 46.9883C422.318 47.5547 422.65 48.4141 422.65 49.5664V54.1562C422.65 54.5794 422.683 54.9798 422.748 55.3574C422.813 55.7285 422.904 56.0573 423.021 56.3438V56.5H421.371C421.28 56.3372 421.195 56.1257 421.117 55.8652C421.046 55.6048 421 55.3444 420.98 55.084C420.74 55.5007 420.352 55.8717 419.818 56.1973C419.291 56.5228 418.607 56.6855 417.768 56.6855C416.804 56.6855 415.99 56.4154 415.326 55.875C414.669 55.3346 414.34 54.5566 414.34 53.541ZM416.049 53.4531C416.049 54.0391 416.218 54.4948 416.557 54.8203C416.902 55.1458 417.426 55.3086 418.129 55.3086C418.845 55.3086 419.493 55.0645 420.072 54.5762C420.652 54.0814 420.941 53.554 420.941 52.9941V51.5391H418.832C417.914 51.5391 417.221 51.7116 416.752 52.0566C416.283 52.4017 416.049 52.8672 416.049 53.4531Z" fill="#262626"/>
<path d="M448.121 29V28.1445L451.244 24.8809C451.65 24.4629 451.959 24.0898 452.17 23.7617C452.385 23.4297 452.492 23.0703 452.492 22.6836C452.492 22.2969 452.357 21.9609 452.088 21.6758C451.818 21.3906 451.443 21.248 450.963 21.248C450.482 21.248 450.078 21.4023 449.75 21.7109C449.422 22.0156 449.258 22.4375 449.258 22.9766V23.0352H448.115V22.9766C448.115 22.1953 448.387 21.5527 448.93 21.0488C449.477 20.5449 450.154 20.293 450.963 20.293C451.764 20.293 452.408 20.5254 452.896 20.9902C453.389 21.4551 453.635 22 453.635 22.625C453.635 23.1836 453.477 23.6895 453.16 24.1426C452.844 24.5918 452.455 25.0508 451.994 25.5195L449.562 28.0156H453.869V29H448.121Z" fill="#A2A2A2"/>
<rect x="435" y="34" width="32" height="32" fill="#F9F9F9"/>
<rect x="435" y="34" width="32" height="32" stroke="#525252"/>
<path d="M446.906 56.5V46.4121H448.459L448.527 47.7207H448.576C448.941 47.252 449.387 46.8841 449.914 46.6172C450.448 46.3503 451.04 46.2168 451.691 46.2168C452.701 46.2168 453.505 46.5033 454.104 47.0762C454.702 47.6491 455.002 48.6126 455.002 49.9668V56.5H453.293V49.957C453.293 49.1367 453.107 48.5508 452.736 48.1992C452.372 47.8411 451.851 47.6621 451.174 47.6621C450.601 47.6621 450.093 47.8184 449.65 48.1309C449.208 48.4434 448.863 48.8503 448.615 49.3516V56.5H446.906Z" fill="#262626"/>
<path d="M479.939 26.7617V26.7031H481.059V26.7617C481.059 27.2266 481.217 27.5879 481.533 27.8457C481.854 28.0996 482.277 28.2266 482.805 28.2266C483.332 28.2266 483.754 28.0996 484.07 27.8457C484.387 27.5879 484.545 27.1875 484.545 26.6445C484.545 26.1055 484.367 25.6992 484.012 25.4258C483.656 25.1523 483.18 25.0156 482.582 25.0156H481.885V24.0898H482.523C483.074 24.0898 483.498 23.9609 483.795 23.7031C484.096 23.4453 484.246 23.084 484.246 22.6191C484.246 22.1582 484.115 21.8145 483.854 21.5879C483.596 21.3574 483.246 21.2422 482.805 21.2422C482.352 21.2422 481.986 21.3574 481.709 21.5879C481.436 21.8145 481.299 22.1406 481.299 22.5664V22.625H480.18V22.5664C480.18 21.9375 480.424 21.4023 480.912 20.9609C481.4 20.5156 482.031 20.293 482.805 20.293C483.566 20.293 484.189 20.5039 484.674 20.9258C485.158 21.3477 485.4 21.8926 485.4 22.5605C485.4 22.9512 485.291 23.3262 485.072 23.6855C484.854 24.041 484.514 24.3164 484.053 24.5117V24.5352C484.553 24.6602 484.953 24.9082 485.254 25.2793C485.555 25.6504 485.705 26.1055 485.705 26.6445C485.705 27.4336 485.432 28.0527 484.885 28.502C484.338 28.9512 483.645 29.1758 482.805 29.1758C481.938 29.1758 481.242 28.9512 480.719 28.502C480.199 28.0488 479.939 27.4688 479.939 26.7617Z" fill="#A2A2A2"/>
<rect x="467" y="34" width="32" height="32" fill="#F9F9F9"/>
<rect x="467" y="34" width="32" height="32" stroke="#525252"/>
<path d="M478.34 53.541C478.34 52.5254 478.74 51.7311 479.541 51.1582C480.348 50.5853 481.38 50.2988 482.637 50.2988H484.941V49.5664C484.941 48.9479 484.779 48.4499 484.453 48.0723C484.134 47.6947 483.59 47.5059 482.822 47.5059C482.048 47.5059 481.488 47.6654 481.143 47.9844C480.804 48.2969 480.635 48.6712 480.635 49.1074V49.1855H478.926V49.0879C478.926 48.2936 479.277 47.6035 479.98 47.0176C480.69 46.4251 481.65 46.1289 482.861 46.1289C484.066 46.1289 484.997 46.4154 485.654 46.9883C486.318 47.5547 486.65 48.4141 486.65 49.5664V54.1562C486.65 54.5794 486.683 54.9798 486.748 55.3574C486.813 55.7285 486.904 56.0573 487.021 56.3438V56.5H485.371C485.28 56.3372 485.195 56.1257 485.117 55.8652C485.046 55.6048 485 55.3444 484.98 55.084C484.74 55.5007 484.352 55.8717 483.818 56.1973C483.291 56.5228 482.607 56.6855 481.768 56.6855C480.804 56.6855 479.99 56.4154 479.326 55.875C478.669 55.3346 478.34 54.5566 478.34 53.541ZM480.049 53.4531C480.049 54.0391 480.218 54.4948 480.557 54.8203C480.902 55.1458 481.426 55.3086 482.129 55.3086C482.845 55.3086 483.493 55.0645 484.072 54.5762C484.652 54.0814 484.941 53.554 484.941 52.9941V51.5391H482.832C481.914 51.5391 481.221 51.7116 480.752 52.0566C480.283 52.4017 480.049 52.8672 480.049 53.4531Z" fill="#262626"/>
</g>
<rect x="370.5" y="15.5" width="129" height="51" stroke="#9233E9"/>
<rect x="16" y="16" width="16" height="16" rx="4" fill="#4F46E4"/>
<rect x="16" y="36" width="16" height="16" rx="4" fill="#9233E9"/>
<path d="M24.7071 59.2929C24.3166 58.9024 23.6834 58.9024 23.2929 59.2929L16.9289 65.6569C16.5384 66.0474 16.5384 66.6805 16.9289 67.0711C17.3195 67.4616 17.9526 67.4616 18.3431 67.0711L24 61.4142L29.6569 67.0711C30.0474 67.4616 30.6805 67.4616 31.0711 67.0711C31.4616 66.6805 31.4616 66.0474 31.0711 65.6569L24.7071 59.2929ZM25 80L25 60L23 60L23 80L25 80Z" fill="#525252"/>
<path d="M386.707 72.2929C386.317 71.9024 385.683 71.9024 385.293 72.2929L378.929 78.6569C378.538 79.0474 378.538 79.6805 378.929 80.0711C379.319 80.4616 379.953 80.4616 380.343 80.0711L386 74.4142L391.657 80.0711C392.047 80.4616 392.681 80.4616 393.071 80.0711C393.462 79.6805 393.462 79.0474 393.071 78.6569L386.707 72.2929ZM387 93L387 73L385 73L385 93L387 93Z" fill="#525252"/>
<path d="M39.9375 28V19.4688H42.8262C43.998 19.4688 44.9785 19.8242 45.7676 20.5352C46.5605 21.2461 46.957 22.2266 46.957 23.4766V23.9922C46.957 25.2422 46.5605 26.2227 45.7676 26.9336C44.9785 27.6445 43.998 28 42.8262 28H39.9375ZM41.6719 26.7109H42.8086C43.5195 26.7109 44.0918 26.4805 44.5254 26.0195C44.959 25.5547 45.1758 24.8867 45.1758 24.0156V23.4531C45.1758 22.582 44.959 21.916 44.5254 21.4551C44.0918 20.9941 43.5195 20.7637 42.8086 20.7637H41.6719V26.7109ZM48.3926 28V21.7246H50.0859V28H48.3926ZM48.2461 20.0137C48.2461 19.7598 48.332 19.5469 48.5039 19.375C48.6758 19.2031 48.9199 19.1172 49.2363 19.1172C49.5566 19.1172 49.8008 19.2031 49.9688 19.375C50.1406 19.5469 50.2266 19.7598 50.2266 20.0137C50.2266 20.2715 50.1406 20.4863 49.9688 20.6582C49.8008 20.8301 49.5566 20.916 49.2363 20.916C48.9199 20.916 48.6758 20.8301 48.5039 20.6582C48.332 20.4863 48.2461 20.2715 48.2461 20.0137ZM51.3574 24.9531V24.7656C51.3574 23.793 51.6465 23.0137 52.2246 22.4277C52.8066 21.8418 53.5859 21.5488 54.5625 21.5488C55.4844 21.5488 56.1855 21.7773 56.666 22.2344C57.1504 22.6875 57.4043 23.2168 57.4277 23.8223L57.4336 23.9043H55.7754V23.8457C55.7754 23.5527 55.6738 23.3047 55.4707 23.1016C55.2715 22.8945 54.9648 22.791 54.5508 22.791C54.0625 22.791 53.6953 22.9688 53.4492 23.3242C53.207 23.6758 53.0859 24.1348 53.0859 24.7012V25.0176C53.0859 25.584 53.2051 26.0449 53.4434 26.4004C53.6816 26.7559 54.0488 26.9336 54.5449 26.9336C54.9863 26.9336 55.3008 26.8281 55.4883 26.6172C55.6797 26.4023 55.7754 26.1543 55.7754 25.873V25.8203H57.4277V25.8789C57.4277 26.4844 57.1797 27.0195 56.6836 27.4844C56.1914 27.9453 55.4844 28.1758 54.5625 28.1758C53.5859 28.1758 52.8066 27.8828 52.2246 27.2969C51.6465 26.7109 51.3574 25.9297 51.3574 24.9531ZM58.5879 28V21.7246H60.2812V28H58.5879ZM58.4414 20.0137C58.4414 19.7598 58.5273 19.5469 58.6992 19.375C58.8711 19.2031 59.1152 19.1172 59.4316 19.1172C59.752 19.1172 59.9961 19.2031 60.1641 19.375C60.3359 19.5469 60.4219 19.7598 60.4219 20.0137C60.4219 20.2715 60.3359 20.4863 60.1641 20.6582C59.9961 20.8301 59.752 20.916 59.4316 20.916C59.1152 20.916 58.8711 20.8301 58.6992 20.6582C58.5273 20.4863 58.4414 20.2715 58.4414 20.0137ZM61.5527 24.9531V24.7656C61.5527 23.793 61.8516 23.0137 62.4492 22.4277C63.0469 21.8418 63.8301 21.5488 64.7988 21.5488C65.7715 21.5488 66.5566 21.8418 67.1543 22.4277C67.752 23.0137 68.0508 23.793 68.0508 24.7656V24.9531C68.0508 25.9258 67.752 26.707 67.1543 27.2969C66.5566 27.8828 65.7715 28.1758 64.7988 28.1758C63.8301 28.1758 63.0469 27.8828 62.4492 27.2969C61.8516 26.707 61.5527 25.9258 61.5527 24.9531ZM63.2812 24.7012V25.0176C63.2812 25.6035 63.4121 26.0645 63.6738 26.4004C63.9355 26.7363 64.3105 26.9043 64.7988 26.9043C65.291 26.9043 65.666 26.7363 65.9238 26.4004C66.1855 26.0645 66.3164 25.6035 66.3164 25.0176V24.7012C66.3164 24.1191 66.1836 23.6602 65.918 23.3242C65.6562 22.9883 65.2832 22.8203 64.7988 22.8203C64.3145 22.8203 63.9395 22.9883 63.6738 23.3242C63.4121 23.6602 63.2812 24.1191 63.2812 24.7012ZM69.3047 28V21.7246H70.8984L70.9395 22.4512H70.9746C71.1543 22.1934 71.4062 21.9883 71.7305 21.8359C72.0586 21.6797 72.418 21.6016 72.8086 21.6016C73.4688 21.6016 74.0039 21.7891 74.4141 22.1641C74.8242 22.5352 75.0293 23.1797 75.0293 24.0977V28H73.3418V24.0566C73.3418 23.6309 73.25 23.3301 73.0664 23.1543C72.8828 22.9785 72.623 22.8906 72.2871 22.8906C72.0098 22.8906 71.7559 22.9707 71.5254 23.1309C71.2949 23.2871 71.1172 23.502 70.9922 23.7754V28H69.3047ZM76.248 26.1543C76.248 25.4707 76.5234 24.9531 77.0742 24.6016C77.625 24.2461 78.3184 24.0664 79.1543 24.0625H80.4023V23.6699C80.4023 23.3809 80.3223 23.1484 80.1621 22.9727C80.0059 22.793 79.7324 22.7031 79.3418 22.7031C78.9512 22.7031 78.6719 22.7812 78.5039 22.9375C78.3398 23.0898 78.2578 23.2734 78.2578 23.4883V23.5586H76.582V23.4883C76.582 22.9414 76.8398 22.4824 77.3555 22.1113C77.875 21.7363 78.5566 21.5488 79.4004 21.5488C80.2441 21.5488 80.9043 21.7246 81.3809 22.0762C81.8574 22.4238 82.0957 22.957 82.0957 23.6758V26.6055C82.0957 26.8594 82.1172 27.0996 82.1602 27.3262C82.2031 27.5488 82.2617 27.7422 82.3359 27.9062V28H80.6777C80.6309 27.9062 80.5879 27.7852 80.5488 27.6367C80.5098 27.4844 80.4824 27.3359 80.4668 27.1914C80.3418 27.4336 80.1055 27.6484 79.7578 27.8359C79.4141 28.0234 78.9844 28.1172 78.4688 28.1172C77.8477 28.1172 77.3223 27.9531 76.8926 27.625C76.4629 27.293 76.248 26.8027 76.248 26.1543ZM77.9414 26.0312C77.9414 26.3164 78.0254 26.543 78.1934 26.7109C78.3613 26.8789 78.625 26.9629 78.9844 26.9629C79.3711 26.9629 79.7031 26.8418 79.9805 26.5996C80.2617 26.3535 80.4023 26.0723 80.4023 25.7559V25.0938H79.3535C78.8809 25.0938 78.5273 25.1777 78.293 25.3457C78.0586 25.5098 77.9414 25.7383 77.9414 26.0312ZM78.1055 20.0488L79.6055 18.1152L80.8828 18.9883L79.0254 20.7344L78.1055 20.0488ZM83.7305 28V21.7246H85.3301L85.3711 22.4277H85.4004C85.5332 22.1934 85.7129 21.9902 85.9395 21.8184C86.1699 21.6426 86.4336 21.5547 86.7305 21.5547C86.8125 21.5547 86.8965 21.5645 86.9824 21.584C87.0684 21.6035 87.1289 21.6211 87.1641 21.6367V23.0898C87.0938 23.0742 87.0176 23.0625 86.9355 23.0547C86.8574 23.043 86.7715 23.0371 86.6777 23.0371C86.3848 23.0371 86.127 23.1211 85.9043 23.2891C85.6855 23.4531 85.5254 23.6582 85.4238 23.9043V28H83.7305ZM88.1777 28V21.7246H89.8711V28H88.1777ZM88.0312 20.0137C88.0312 19.7598 88.1172 19.5469 88.2891 19.375C88.4609 19.2031 88.7051 19.1172 89.0215 19.1172C89.3418 19.1172 89.5859 19.2031 89.7539 19.375C89.9258 19.5469 90.0117 19.7598 90.0117 20.0137C90.0117 20.2715 89.9258 20.4863 89.7539 20.6582C89.5859 20.8301 89.3418 20.916 89.0215 20.916C88.7051 20.916 88.4609 20.8301 88.2891 20.6582C88.1172 20.4863 88.0312 20.2715 88.0312 20.0137ZM91.1426 24.9531V24.7656C91.1426 23.793 91.4414 23.0137 92.0391 22.4277C92.6367 21.8418 93.4199 21.5488 94.3887 21.5488C95.3613 21.5488 96.1465 21.8418 96.7441 22.4277C97.3418 23.0137 97.6406 23.793 97.6406 24.7656V24.9531C97.6406 25.9258 97.3418 26.707 96.7441 27.2969C96.1465 27.8828 95.3613 28.1758 94.3887 28.1758C93.4199 28.1758 92.6367 27.8828 92.0391 27.2969C91.4414 26.707 91.1426 25.9258 91.1426 24.9531ZM92.8711 24.7012V25.0176C92.8711 25.6035 93.002 26.0645 93.2637 26.4004C93.5254 26.7363 93.9004 26.9043 94.3887 26.9043C94.8809 26.9043 95.2559 26.7363 95.5137 26.4004C95.7754 26.0645 95.9062 25.6035 95.9062 25.0176V24.7012C95.9062 24.1191 95.7734 23.6602 95.5078 23.3242C95.2461 22.9883 94.873 22.8203 94.3887 22.8203C93.9043 22.8203 93.5293 22.9883 93.2637 23.3242C93.002 23.6602 92.8711 24.1191 92.8711 24.7012Z" fill="#4F46E4"/>
<path d="M39.9375 48V39.4688H43.1309C44.0957 39.4688 44.8535 39.6523 45.4043 40.0195C45.9551 40.3828 46.2305 40.9512 46.2305 41.7246C46.2305 42.1934 46.1191 42.5781 45.8965 42.8789C45.6777 43.1797 45.4043 43.3867 45.0762 43.5V43.5234C45.4785 43.6406 45.8086 43.8691 46.0664 44.209C46.3281 44.5449 46.459 44.9883 46.459 45.5391C46.459 46.3203 46.1699 46.9258 45.5918 47.3555C45.0137 47.7852 44.252 48 43.3066 48H39.9375ZM41.666 46.7695H43.2773C43.7773 46.7695 44.1426 46.6523 44.373 46.418C44.6074 46.1797 44.7246 45.8594 44.7246 45.457C44.7246 45.0586 44.6074 44.7422 44.373 44.5078C44.1426 44.2734 43.7773 44.1562 43.2773 44.1562H41.666V46.7695ZM41.666 42.9844H43.1074C43.6035 42.9844 43.959 42.8828 44.1738 42.6797C44.3926 42.4766 44.502 42.1953 44.502 41.8359C44.502 41.4727 44.3926 41.1934 44.1738 40.998C43.9551 40.8027 43.5996 40.7051 43.1074 40.7051H41.666V42.9844ZM47.7422 45.5625V41.7246H49.4297V45.6035C49.4297 46.0566 49.5234 46.375 49.7109 46.5586C49.8984 46.7422 50.1562 46.834 50.4844 46.834C50.7734 46.834 51.0312 46.752 51.2578 46.5879C51.4844 46.4199 51.6582 46.209 51.7793 45.9551V41.7246H53.4668V48H51.873L51.8262 47.2734H51.7969C51.6016 47.5391 51.3398 47.7461 51.0117 47.8945C50.6836 48.043 50.3223 48.1172 49.9277 48.1172C49.2793 48.1172 48.752 47.9219 48.3457 47.5312C47.9434 47.1367 47.7422 46.4805 47.7422 45.5625ZM55.2832 48V41.2969C55.2832 40.5039 55.5078 39.9062 55.957 39.5039C56.4102 39.1016 56.998 38.9004 57.7207 38.9004C57.8613 38.9004 57.998 38.9082 58.1309 38.9238C58.2676 38.9395 58.3926 38.9629 58.5059 38.9941L58.4531 40.2246C58.375 40.209 58.291 40.1953 58.2012 40.1836C58.1113 40.1719 58.0176 40.166 57.9199 40.166C57.623 40.166 57.3906 40.2617 57.2227 40.4531C57.0547 40.6445 56.9707 40.9336 56.9707 41.3203V42.2402V42.3691V48H55.2832ZM54.4102 42.9434V41.7246H55.9453H56.1855H58.1426V42.9434H54.4102ZM59.1035 48V41.2969C59.1035 40.5039 59.3281 39.9062 59.7773 39.5039C60.2305 39.1016 60.8184 38.9004 61.541 38.9004C61.6816 38.9004 61.8184 38.9082 61.9512 38.9238C62.0879 38.9395 62.2129 38.9629 62.3262 38.9941L62.2734 40.2246C62.1953 40.209 62.1113 40.1953 62.0215 40.1836C61.9316 40.1719 61.8379 40.166 61.7402 40.166C61.4434 40.166 61.2109 40.2617 61.043 40.4531C60.875 40.6445 60.791 40.9336 60.791 41.3203V42.2402V42.3691V48H59.1035ZM58.2305 42.9434V41.7246H59.7656H60.0059H61.9629V42.9434H58.2305ZM62.3262 44.9531V44.7656C62.3262 43.8047 62.6172 43.0293 63.1992 42.4395C63.7812 41.8457 64.5312 41.5488 65.4492 41.5488C66.375 41.5488 67.0977 41.8262 67.6172 42.3809C68.1406 42.9355 68.4023 43.6973 68.4023 44.666V45.2754H63.4863V44.1914H66.7207V44.0859C66.7168 43.7344 66.6094 43.4258 66.3984 43.1602C66.1875 42.8945 65.8672 42.7617 65.4375 42.7617C64.9766 42.7617 64.623 42.9414 64.377 43.3008C64.1309 43.6562 64.0078 44.125 64.0078 44.707V45.0117C64.0078 45.5859 64.1387 46.0527 64.4004 46.4121C64.666 46.7676 65.0605 46.9453 65.584 46.9453C65.9316 46.9453 66.2344 46.8613 66.4922 46.6934C66.75 46.5254 66.959 46.332 67.1191 46.1133L68.2793 46.9102C68.0801 47.2617 67.7441 47.5605 67.2715 47.8066C66.8027 48.0527 66.2461 48.1758 65.6016 48.1758C64.5703 48.1758 63.7656 47.8809 63.1875 47.291C62.6133 46.6973 62.3262 45.918 62.3262 44.9531ZM69.5625 48V41.7246H71.1621L71.2031 42.4277H71.2324C71.3652 42.1934 71.5449 41.9902 71.7715 41.8184C72.002 41.6426 72.2656 41.5547 72.5625 41.5547C72.6445 41.5547 72.7285 41.5645 72.8145 41.584C72.9004 41.6035 72.9609 41.6211 72.9961 41.6367V43.0898C72.9258 43.0742 72.8496 43.0625 72.7676 43.0547C72.6895 43.043 72.6035 43.0371 72.5098 43.0371C72.2168 43.0371 71.959 43.1211 71.7363 43.2891C71.5176 43.4531 71.3574 43.6582 71.2559 43.9043V48H69.5625Z" fill="#9233E9"/>
<path d="M39.9375 74V65.4688H43.1836C44.2031 65.4688 44.9883 65.709 45.5391 66.1895C46.0898 66.6699 46.3652 67.3418 46.3652 68.2051C46.3652 69.0684 46.0898 69.7461 45.5391 70.2383C44.9922 70.7266 44.207 70.9707 43.1836 70.9707H41.6777V74H39.9375ZM41.6777 69.6758H43.0723C43.6504 69.6758 44.0527 69.543 44.2793 69.2773C44.5059 69.0078 44.6191 68.6523 44.6191 68.2109C44.6191 67.7695 44.5059 67.418 44.2793 67.1562C44.0527 66.8945 43.6504 66.7637 43.0723 66.7637H41.6777V69.6758ZM47.1035 70.9531V70.7656C47.1035 69.793 47.4023 69.0137 48 68.4277C48.5977 67.8418 49.3809 67.5488 50.3496 67.5488C51.3223 67.5488 52.1074 67.8418 52.7051 68.4277C53.3027 69.0137 53.6016 69.793 53.6016 70.7656V70.9531C53.6016 71.9258 53.3027 72.707 52.7051 73.2969C52.1074 73.8828 51.3223 74.1758 50.3496 74.1758C49.3809 74.1758 48.5977 73.8828 48 73.2969C47.4023 72.707 47.1035 71.9258 47.1035 70.9531ZM48.832 70.7012V71.0176C48.832 71.6035 48.9629 72.0645 49.2246 72.4004C49.4863 72.7363 49.8613 72.9043 50.3496 72.9043C50.8418 72.9043 51.2168 72.7363 51.4746 72.4004C51.7363 72.0645 51.8672 71.6035 51.8672 71.0176V70.7012C51.8672 70.1191 51.7344 69.6602 51.4688 69.3242C51.207 68.9883 50.834 68.8203 50.3496 68.8203C49.8652 68.8203 49.4902 68.9883 49.2246 69.3242C48.9629 69.6602 48.832 70.1191 48.832 70.7012ZM54.8555 74V67.7246H56.4492L56.4902 68.4512H56.5254C56.7051 68.1934 56.957 67.9883 57.2812 67.8359C57.6094 67.6797 57.9688 67.6016 58.3594 67.6016C59.0195 67.6016 59.5547 67.7891 59.9648 68.1641C60.375 68.5352 60.5801 69.1797 60.5801 70.0977V74H58.8926V70.0566C58.8926 69.6309 58.8008 69.3301 58.6172 69.1543C58.4336 68.9785 58.1738 68.8906 57.8379 68.8906C57.5605 68.8906 57.3066 68.9707 57.0762 69.1309C56.8457 69.2871 56.668 69.502 56.543 69.7754V74H54.8555ZM61.3242 68.9434V67.7246H65.1855V68.9434H61.3242ZM62.2969 72.1836V68.3809L62.3027 68.2109V66.3477H63.9844V72.1602C63.9844 72.4375 64.0371 72.6328 64.1426 72.7461C64.248 72.8555 64.3984 72.9102 64.5938 72.9102C64.6914 72.9102 64.7871 72.8984 64.8809 72.875C64.9746 72.8516 65.0664 72.8223 65.1562 72.7871V73.9941C65.0625 74.041 64.9336 74.082 64.7695 74.1172C64.6055 74.1562 64.4277 74.1758 64.2363 74.1758C63.6504 74.1758 63.1797 74.0156 62.8242 73.6953C62.4727 73.375 62.2969 72.8711 62.2969 72.1836ZM65.9004 70.9531V70.7656C65.9004 69.8047 66.1914 69.0293 66.7734 68.4395C67.3555 67.8457 68.1055 67.5488 69.0234 67.5488C69.9492 67.5488 70.6719 67.8262 71.1914 68.3809C71.7148 68.9355 71.9766 69.6973 71.9766 70.666V71.2754H67.0605V70.1914H70.2949V70.0859C70.291 69.7344 70.1836 69.4258 69.9727 69.1602C69.7617 68.8945 69.4414 68.7617 69.0117 68.7617C68.5508 68.7617 68.1973 68.9414 67.9512 69.3008C67.7051 69.6562 67.582 70.125 67.582 70.707V71.0117C67.582 71.5859 67.7129 72.0527 67.9746 72.4121C68.2402 72.7676 68.6348 72.9453 69.1582 72.9453C69.5059 72.9453 69.8086 72.8613 70.0664 72.6934C70.3242 72.5254 70.5332 72.332 70.6934 72.1133L71.8535 72.9102C71.6543 73.2617 71.3184 73.5605 70.8457 73.8066C70.377 74.0527 69.8203 74.1758 69.1758 74.1758C68.1445 74.1758 67.3398 73.8809 66.7617 73.291C66.1875 72.6973 65.9004 71.918 65.9004 70.9531ZM73.166 74V67.7246H74.8594V74H73.166ZM73.0195 66.0137C73.0195 65.7598 73.1055 65.5469 73.2773 65.375C73.4492 65.2031 73.6934 65.1172 74.0098 65.1172C74.3301 65.1172 74.5742 65.2031 74.7422 65.375C74.9141 65.5469 75 65.7598 75 66.0137C75 66.2715 74.9141 66.4863 74.7422 66.6582C74.5742 66.8301 74.3301 66.916 74.0098 66.916C73.6934 66.916 73.4492 66.8301 73.2773 66.6582C73.1055 66.4863 73.0195 66.2715 73.0195 66.0137ZM76.4766 74V67.7246H78.0762L78.1172 68.4277H78.1465C78.2793 68.1934 78.459 67.9902 78.6855 67.8184C78.916 67.6426 79.1797 67.5547 79.4766 67.5547C79.5586 67.5547 79.6426 67.5645 79.7285 67.584C79.8145 67.6035 79.875 67.6211 79.9102 67.6367V69.0898C79.8398 69.0742 79.7637 69.0625 79.6816 69.0547C79.6035 69.043 79.5176 69.0371 79.4238 69.0371C79.1309 69.0371 78.873 69.1211 78.6504 69.2891C78.4316 69.4531 78.2715 69.6582 78.1699 69.9043V74H76.4766ZM80.4316 70.9531V70.7656C80.4316 69.793 80.7305 69.0137 81.3281 68.4277C81.9258 67.8418 82.709 67.5488 83.6777 67.5488C84.6504 67.5488 85.4355 67.8418 86.0332 68.4277C86.6309 69.0137 86.9297 69.793 86.9297 70.7656V70.9531C86.9297 71.9258 86.6309 72.707 86.0332 73.2969C85.4355 73.8828 84.6504 74.1758 83.6777 74.1758C82.709 74.1758 81.9258 73.8828 81.3281 73.2969C80.7305 72.707 80.4316 71.9258 80.4316 70.9531ZM82.1602 70.7012V71.0176C82.1602 71.6035 82.291 72.0645 82.5527 72.4004C82.8145 72.7363 83.1895 72.9043 83.6777 72.9043C84.1699 72.9043 84.5449 72.7363 84.8027 72.4004C85.0645 72.0645 85.1953 71.6035 85.1953 71.0176V70.7012C85.1953 70.1191 85.0625 69.6602 84.7969 69.3242C84.5352 68.9883 84.1621 68.8203 83.6777 68.8203C83.1934 68.8203 82.8184 68.9883 82.5527 69.3242C82.291 69.6602 82.1602 70.1191 82.1602 70.7012Z" fill="#525252"/>
<path d="M190.945 138.812L182.977 135.102V133.773L190.945 130.062V131.82L185.018 134.389L190.945 136.967V138.812ZM193.035 136.547V131.234C193.035 129.796 193.426 128.646 194.207 127.787C194.995 126.928 196.085 126.498 197.479 126.498C198.859 126.498 199.943 126.928 200.73 127.787C201.525 128.646 201.922 129.796 201.922 131.234V136.547C201.922 137.986 201.525 139.135 200.73 139.994C199.943 140.854 198.859 141.283 197.479 141.283C196.085 141.277 194.995 140.847 194.207 139.994C193.426 139.135 193.035 137.986 193.035 136.547ZM194.812 136.645C194.812 137.582 195.031 138.347 195.467 138.939C195.903 139.525 196.574 139.818 197.479 139.818C198.377 139.818 199.044 139.525 199.48 138.939C199.917 138.347 200.135 137.582 200.135 136.645V131.137C200.135 130.199 199.917 129.438 199.48 128.852C199.044 128.259 198.377 127.963 197.479 127.963C196.574 127.963 195.903 128.259 195.467 128.852C195.031 129.438 194.812 130.199 194.812 131.137V136.645ZM204.08 143.031C204.38 142.634 204.611 142.227 204.773 141.811C204.936 141.394 205.018 140.906 205.018 140.346V138.939H206.678V140.346C206.678 141.029 206.531 141.654 206.238 142.221C205.945 142.787 205.555 143.282 205.066 143.705L204.08 143.031ZM209.578 136.547V131.234C209.578 129.796 209.969 128.646 210.75 127.787C211.538 126.928 212.628 126.498 214.021 126.498C215.402 126.498 216.486 126.928 217.273 127.787C218.068 128.646 218.465 129.796 218.465 131.234V136.547C218.465 137.986 218.068 139.135 217.273 139.994C216.486 140.854 215.402 141.283 214.021 141.283C212.628 141.277 211.538 140.847 210.75 139.994C209.969 139.135 209.578 137.986 209.578 136.547ZM211.355 136.645C211.355 137.582 211.574 138.347 212.01 138.939C212.446 139.525 213.117 139.818 214.021 139.818C214.92 139.818 215.587 139.525 216.023 138.939C216.46 138.347 216.678 137.582 216.678 136.645V131.137C216.678 130.199 216.46 129.438 216.023 128.852C215.587 128.259 214.92 127.963 214.021 127.963C213.117 127.963 212.446 128.259 212.01 128.852C211.574 129.438 211.355 130.199 211.355 131.137V136.645ZM220.623 143.031C220.923 142.634 221.154 142.227 221.316 141.811C221.479 141.394 221.561 140.906 221.561 140.346V138.939H223.221V140.346C223.221 141.029 223.074 141.654 222.781 142.221C222.488 142.787 222.098 143.282 221.609 143.705L220.623 143.031ZM226.697 141V126.781H231.248C232.641 126.781 233.735 127.084 234.529 127.689C235.33 128.288 235.73 129.232 235.73 130.521C235.73 131.309 235.535 131.954 235.145 132.455C234.76 132.95 234.279 133.298 233.699 133.5V133.539C234.409 133.741 234.988 134.128 235.438 134.701C235.887 135.268 236.111 136.01 236.111 136.928C236.111 138.223 235.695 139.226 234.861 139.936C234.028 140.645 232.921 141 231.541 141H226.697ZM228.426 139.535H231.541C232.511 139.535 233.221 139.301 233.67 138.832C234.126 138.363 234.354 137.729 234.354 136.928C234.354 136.127 234.126 135.492 233.67 135.023C233.221 134.555 232.511 134.32 231.541 134.32H228.426V139.535ZM228.426 132.875H231.248C232.218 132.875 232.915 132.67 233.338 132.26C233.768 131.843 233.982 131.267 233.982 130.531C233.982 129.789 233.768 129.223 233.338 128.832C232.915 128.441 232.218 128.246 231.248 128.246H228.426V132.875ZM238.094 138.812V137.045L244.021 134.477L238.094 131.908V130.062L246.062 133.773V135.102L238.094 138.812Z" fill="#262626"/>
<path d="M199.635 110.418V109.469H206.373V110.418H203.578V118H202.43V110.418H199.635ZM206.643 118V111.766H207.65L207.697 112.568H207.732C207.893 112.307 208.104 112.078 208.365 111.883C208.631 111.688 208.945 111.59 209.309 111.59C209.395 111.59 209.484 111.6 209.578 111.619C209.676 111.639 209.744 111.656 209.783 111.672V112.709C209.705 112.693 209.621 112.682 209.531 112.674C209.445 112.666 209.35 112.662 209.244 112.662C208.881 112.662 208.572 112.756 208.318 112.943C208.064 113.131 207.877 113.361 207.756 113.635V118H206.643ZM210.879 118V111.766H211.992V118H210.879ZM210.75 109.914C210.75 109.73 210.809 109.576 210.926 109.451C211.047 109.322 211.217 109.258 211.436 109.258C211.654 109.258 211.822 109.322 211.939 109.451C212.061 109.576 212.121 109.73 212.121 109.914C212.121 110.102 212.061 110.26 211.939 110.389C211.822 110.514 211.654 110.576 211.436 110.576C211.217 110.576 211.047 110.514 210.926 110.389C210.809 110.26 210.75 110.102 210.75 109.914ZM213.779 120.438V111.766H214.787L214.834 112.574H214.869C215.029 112.32 215.275 112.104 215.607 111.924C215.943 111.74 216.334 111.648 216.779 111.648C217.58 111.648 218.221 111.945 218.701 112.539C219.182 113.129 219.422 113.879 219.422 114.789V114.977C219.422 115.883 219.182 116.633 218.701 117.227C218.221 117.82 217.58 118.117 216.779 118.117C216.334 118.117 215.955 118.039 215.643 117.883C215.33 117.727 215.08 117.52 214.893 117.262V120.438H213.779ZM214.893 116.137C215.018 116.41 215.221 116.656 215.502 116.875C215.787 117.09 216.131 117.197 216.533 117.197C217.139 117.197 217.582 116.984 217.863 116.559C218.145 116.129 218.285 115.602 218.285 114.977V114.789C218.285 114.16 218.145 113.633 217.863 113.207C217.582 112.777 217.139 112.562 216.533 112.562C216.131 112.562 215.787 112.672 215.502 112.891C215.221 113.105 215.018 113.352 214.893 113.629V116.137ZM220.834 118V109H221.947V118H220.834ZM223.389 116.166C223.389 115.533 223.643 115.041 224.15 114.689C224.662 114.334 225.312 114.156 226.102 114.156H227.543V113.711C227.543 113.344 227.443 113.047 227.244 112.82C227.045 112.59 226.703 112.475 226.219 112.475C225.734 112.475 225.387 112.572 225.176 112.768C224.969 112.963 224.865 113.189 224.865 113.447V113.477H223.758V113.447C223.758 112.951 223.982 112.518 224.432 112.146C224.881 111.775 225.486 111.59 226.248 111.59C227.014 111.59 227.605 111.768 228.023 112.123C228.445 112.479 228.656 113.008 228.656 113.711V116.594C228.656 116.848 228.676 117.088 228.715 117.314C228.754 117.537 228.811 117.734 228.885 117.906V118H227.807C227.748 117.902 227.695 117.773 227.648 117.613C227.605 117.453 227.578 117.295 227.566 117.139C227.418 117.396 227.176 117.625 226.84 117.824C226.508 118.02 226.078 118.117 225.551 118.117C224.953 118.117 224.443 117.949 224.021 117.613C223.6 117.277 223.389 116.795 223.389 116.166ZM224.502 116.107C224.502 116.459 224.607 116.734 224.818 116.934C225.029 117.129 225.355 117.227 225.797 117.227C226.242 117.227 226.645 117.078 227.004 116.781C227.363 116.484 227.543 116.17 227.543 115.838V114.953H226.219C225.656 114.953 225.229 115.057 224.936 115.264C224.646 115.471 224.502 115.752 224.502 116.107Z" fill="#262626"/>
<defs>
<clipPath id="clip0_46_668">
<rect x="175" y="16" width="192" height="50" fill="white"/>
</clipPath>
<clipPath id="clip1_46_668">
<rect x="371" y="16" width="128" height="50" fill="white"/>
</clipPath>
</defs>
</svg>
