<svg width="711" height="162" viewBox="0 0 711 162" fill="none" xmlns="http://www.w3.org/2000/svg">
<path d="M401.996 87V78.4688H404.885C405.842 78.4688 406.576 78.7051 407.088 79.1777C407.604 79.6504 407.861 80.2793 407.861 81.0645C407.861 81.8496 407.604 82.4824 407.088 82.9629C406.576 83.4434 405.842 83.6836 404.885 83.6836H403.145V87H401.996ZM403.145 82.7344H404.885C405.561 82.7344 406.033 82.5723 406.303 82.248C406.576 81.9238 406.713 81.5293 406.713 81.0645C406.713 80.5996 406.576 80.209 406.303 79.8926C406.033 79.5762 405.561 79.418 404.885 79.418H403.145V82.7344ZM408.6 83.9766V83.7891C408.6 82.8477 408.871 82.0801 409.414 81.4863C409.957 80.8887 410.682 80.5898 411.588 80.5898C412.494 80.5898 413.219 80.8887 413.762 81.4863C414.305 82.0801 414.576 82.8477 414.576 83.7891V83.9766C414.576 84.918 414.305 85.6875 413.762 86.2852C413.219 86.8789 412.494 87.1758 411.588 87.1758C410.682 87.1758 409.957 86.8789 409.414 86.2852C408.871 85.6875 408.6 84.918 408.6 83.9766ZM409.736 83.7891V83.9766C409.736 84.6133 409.891 85.1523 410.199 85.5938C410.512 86.0352 410.975 86.2559 411.588 86.2559C412.201 86.2559 412.662 86.0352 412.971 85.5938C413.279 85.1523 413.434 84.6133 413.434 83.9766V83.7891C413.434 83.1484 413.279 82.6074 412.971 82.166C412.662 81.7246 412.201 81.5039 411.588 81.5039C410.975 81.5039 410.512 81.7246 410.199 82.166C409.891 82.6074 409.736 83.1484 409.736 83.7891ZM415.941 87V80.7656H416.949L416.996 81.5742H417.031C417.262 81.2812 417.543 81.0547 417.875 80.8945C418.207 80.7305 418.576 80.6484 418.982 80.6484C419.619 80.6484 420.127 80.8301 420.506 81.1934C420.889 81.5527 421.08 82.1582 421.08 83.0098V87H419.961V82.998C419.961 82.4941 419.846 82.1328 419.615 81.9141C419.389 81.6953 419.066 81.5859 418.648 81.5859C418.289 81.5859 417.973 81.6816 417.699 81.873C417.426 82.0645 417.211 82.3105 417.055 82.6113V87H415.941ZM421.895 81.6211V80.7656H425.504V81.6211H421.895ZM423.025 85.4531V81.2812V81.1055V79.3125H424.139V85.4531C424.139 85.7266 424.193 85.9219 424.303 86.0391C424.416 86.1562 424.594 86.2148 424.836 86.2148C424.945 86.2148 425.053 86.2031 425.158 86.1797C425.268 86.1562 425.379 86.125 425.492 86.0859V87C425.387 87.0469 425.25 87.0879 425.082 87.123C424.918 87.1582 424.736 87.1758 424.537 87.1758C424.076 87.1758 423.709 87.0371 423.436 86.7598C423.162 86.4824 423.025 86.0469 423.025 85.4531ZM426.295 83.9766V83.7891C426.295 82.8477 426.557 82.0801 427.08 81.4863C427.604 80.8887 428.297 80.5898 429.16 80.5898C430.023 80.5898 430.688 80.8691 431.152 81.4277C431.621 81.9824 431.855 82.7344 431.855 83.6836V84.1406H426.98V83.2559H430.73V83.168C430.73 82.6992 430.604 82.3047 430.35 81.9844C430.096 81.6641 429.709 81.5039 429.189 81.5039C428.607 81.5039 428.168 81.7246 427.871 82.166C427.578 82.6074 427.432 83.1484 427.432 83.7891V83.9766C427.432 84.6172 427.586 85.1582 427.895 85.5996C428.207 86.041 428.689 86.2617 429.342 86.2617C429.744 86.2617 430.09 86.1758 430.379 86.0039C430.668 85.832 430.902 85.6289 431.082 85.3945L431.803 85.9746C431.604 86.2676 431.293 86.541 430.871 86.7949C430.453 87.0488 429.943 87.1758 429.342 87.1758C428.357 87.1758 427.604 86.8789 427.08 86.2852C426.557 85.6875 426.295 84.918 426.295 83.9766ZM433.244 87V80.7656H434.357V87H433.244ZM433.115 78.9141C433.115 78.7305 433.174 78.5762 433.291 78.4512C433.412 78.3223 433.582 78.2578 433.801 78.2578C434.02 78.2578 434.188 78.3223 434.305 78.4512C434.426 78.5762 434.486 78.7305 434.486 78.9141C434.486 79.1016 434.426 79.2598 434.305 79.3887C434.188 79.5137 434.02 79.5762 433.801 79.5762C433.582 79.5762 433.412 79.5137 433.291 79.3887C433.174 79.2598 433.115 79.1016 433.115 78.9141ZM436.145 87V80.7656H437.152L437.199 81.5684H437.234C437.395 81.3066 437.605 81.0781 437.867 80.8828C438.133 80.6875 438.447 80.5898 438.811 80.5898C438.896 80.5898 438.986 80.5996 439.08 80.6191C439.178 80.6387 439.246 80.6562 439.285 80.6719V81.709C439.207 81.6934 439.123 81.6816 439.033 81.6738C438.947 81.666 438.852 81.6621 438.746 81.6621C438.383 81.6621 438.074 81.7559 437.82 81.9434C437.566 82.1309 437.379 82.3613 437.258 82.6348V87H436.145ZM439.842 83.9766V83.7891C439.842 82.8477 440.113 82.0801 440.656 81.4863C441.199 80.8887 441.924 80.5898 442.83 80.5898C443.736 80.5898 444.461 80.8887 445.004 81.4863C445.547 82.0801 445.818 82.8477 445.818 83.7891V83.9766C445.818 84.918 445.547 85.6875 445.004 86.2852C444.461 86.8789 443.736 87.1758 442.83 87.1758C441.924 87.1758 441.199 86.8789 440.656 86.2852C440.113 85.6875 439.842 84.918 439.842 83.9766ZM440.979 83.7891V83.9766C440.979 84.6133 441.133 85.1523 441.441 85.5938C441.754 86.0352 442.217 86.2559 442.83 86.2559C443.443 86.2559 443.904 86.0352 444.213 85.5938C444.521 85.1523 444.676 84.6133 444.676 83.9766V83.7891C444.676 83.1484 444.521 82.6074 444.213 82.166C443.904 81.7246 443.443 81.5039 442.83 81.5039C442.217 81.5039 441.754 81.7246 441.441 82.166C441.133 82.6074 440.979 83.1484 440.979 83.7891ZM450.113 87V80.7656H451.121L451.168 81.5742H451.203C451.43 81.2852 451.703 81.0586 452.023 80.8945C452.344 80.7305 452.701 80.6484 453.096 80.6484C453.521 80.6484 453.889 80.7324 454.197 80.9004C454.506 81.0645 454.74 81.332 454.9 81.7031H454.936C455.201 81.332 455.496 81.0645 455.82 80.9004C456.148 80.7324 456.521 80.6484 456.939 80.6484C457.596 80.6484 458.109 80.8301 458.48 81.1934C458.852 81.5527 459.037 82.1582 459.037 83.0098V87H457.924V82.998C457.924 82.4941 457.814 82.1328 457.596 81.9141C457.377 81.6953 457.066 81.5859 456.664 81.5859C456.316 81.5859 456.012 81.6816 455.75 81.873C455.492 82.0645 455.287 82.3105 455.135 82.6113V87H454.016V82.998C454.016 82.4941 453.906 82.1328 453.688 81.9141C453.469 81.6953 453.16 81.5859 452.762 81.5859C452.414 81.5859 452.109 81.6816 451.848 81.873C451.59 82.0645 451.383 82.3105 451.227 82.6113V87H450.113ZM460.35 83.9766V83.7891C460.35 82.8477 460.621 82.0801 461.164 81.4863C461.707 80.8887 462.432 80.5898 463.338 80.5898C464.244 80.5898 464.969 80.8887 465.512 81.4863C466.055 82.0801 466.326 82.8477 466.326 83.7891V83.9766C466.326 84.918 466.055 85.6875 465.512 86.2852C464.969 86.8789 464.244 87.1758 463.338 87.1758C462.432 87.1758 461.707 86.8789 461.164 86.2852C460.621 85.6875 460.35 84.918 460.35 83.9766ZM461.486 83.7891V83.9766C461.486 84.6133 461.641 85.1523 461.949 85.5938C462.262 86.0352 462.725 86.2559 463.338 86.2559C463.951 86.2559 464.412 86.0352 464.721 85.5938C465.029 85.1523 465.184 84.6133 465.184 83.9766V83.7891C465.184 83.1484 465.029 82.6074 464.721 82.166C464.412 81.7246 463.951 81.5039 463.338 81.5039C462.725 81.5039 462.262 81.7246 461.949 82.166C461.641 82.6074 461.486 83.1484 461.486 83.7891ZM466.73 80.7656H467.82L469.332 84.9082C469.391 85.0645 469.439 85.2109 469.479 85.3477C469.518 85.4844 469.547 85.6035 469.566 85.7051H469.602C469.621 85.6035 469.65 85.4844 469.689 85.3477C469.729 85.2109 469.775 85.0645 469.83 84.9082L471.336 80.7656H472.391L469.994 87H469.127L466.73 80.7656ZM472.807 83.9766V83.7891C472.807 82.8477 473.068 82.0801 473.592 81.4863C474.115 80.8887 474.809 80.5898 475.672 80.5898C476.535 80.5898 477.199 80.8691 477.664 81.4277C478.133 81.9824 478.367 82.7344 478.367 83.6836V84.1406H473.492V83.2559H477.242V83.168C477.242 82.6992 477.115 82.3047 476.861 81.9844C476.607 81.6641 476.221 81.5039 475.701 81.5039C475.119 81.5039 474.68 81.7246 474.383 82.166C474.09 82.6074 473.943 83.1484 473.943 83.7891V83.9766C473.943 84.6172 474.098 85.1582 474.406 85.5996C474.719 86.041 475.201 86.2617 475.854 86.2617C476.256 86.2617 476.602 86.1758 476.891 86.0039C477.18 85.832 477.414 85.6289 477.594 85.3945L478.314 85.9746C478.115 86.2676 477.805 86.541 477.383 86.7949C476.965 87.0488 476.455 87.1758 475.854 87.1758C474.869 87.1758 474.115 86.8789 473.592 86.2852C473.068 85.6875 472.807 84.918 472.807 83.9766ZM479.58 83.8242V82.793H482.943V83.8242H479.58ZM483.84 85.166H484.953V85.1953C484.953 85.5508 485.088 85.8203 485.357 86.0039C485.631 86.1836 485.988 86.2734 486.43 86.2734C486.875 86.2734 487.225 86.1875 487.479 86.0156C487.732 85.8398 487.859 85.6152 487.859 85.3418C487.859 85.0645 487.758 84.8516 487.555 84.7031C487.352 84.5547 486.906 84.4043 486.219 84.252C485.527 84.0996 484.986 83.8789 484.596 83.5898C484.209 83.2969 484.016 82.8926 484.016 82.377C484.016 81.8652 484.23 81.4395 484.66 81.0996C485.09 80.7598 485.668 80.5898 486.395 80.5898C487.121 80.5898 487.703 80.7617 488.141 81.1055C488.582 81.4453 488.803 81.9023 488.803 82.4766V82.5059H487.695V82.459C487.695 82.1582 487.59 81.9219 487.379 81.75C487.168 81.5781 486.84 81.4922 486.395 81.4922C485.949 81.4922 485.625 81.5723 485.422 81.7324C485.219 81.8887 485.117 82.084 485.117 82.3184C485.117 82.5566 485.229 82.7461 485.451 82.8867C485.678 83.0234 486.135 83.168 486.822 83.3203C487.514 83.4727 488.043 83.6992 488.41 84C488.781 84.3008 488.967 84.7266 488.967 85.2773C488.967 85.832 488.754 86.2871 488.328 86.6426C487.906 86.998 487.273 87.1758 486.43 87.1758C485.586 87.1758 484.943 86.9961 484.502 86.6367C484.061 86.2734 483.84 85.793 483.84 85.1953V85.166ZM489.939 83.9766V83.7891C489.939 82.8477 490.201 82.0801 490.725 81.4863C491.248 80.8887 491.941 80.5898 492.805 80.5898C493.668 80.5898 494.332 80.8691 494.797 81.4277C495.266 81.9824 495.5 82.7344 495.5 83.6836V84.1406H490.625V83.2559H494.375V83.168C494.375 82.6992 494.248 82.3047 493.994 81.9844C493.74 81.6641 493.354 81.5039 492.834 81.5039C492.252 81.5039 491.812 81.7246 491.516 82.166C491.223 82.6074 491.076 83.1484 491.076 83.7891V83.9766C491.076 84.6172 491.23 85.1582 491.539 85.5996C491.852 86.041 492.334 86.2617 492.986 86.2617C493.389 86.2617 493.734 86.1758 494.023 86.0039C494.312 85.832 494.547 85.6289 494.727 85.3945L495.447 85.9746C495.248 86.2676 494.938 86.541 494.516 86.7949C494.098 87.0488 493.588 87.1758 492.986 87.1758C492.002 87.1758 491.248 86.8789 490.725 86.2852C490.201 85.6875 489.939 84.918 489.939 83.9766ZM499.766 89.4375V80.7656H500.773L500.82 81.5742H500.855C501.016 81.3203 501.262 81.1035 501.594 80.9238C501.93 80.7402 502.32 80.6484 502.766 80.6484C503.566 80.6484 504.207 80.9453 504.688 81.5391C505.168 82.1289 505.408 82.8789 505.408 83.7891V83.9766C505.408 84.8828 505.168 85.6328 504.688 86.2266C504.207 86.8203 503.566 87.1172 502.766 87.1172C502.32 87.1172 501.941 87.0391 501.629 86.8828C501.316 86.7266 501.066 86.5195 500.879 86.2617V89.4375H499.766ZM500.879 85.1367C501.004 85.4102 501.207 85.6562 501.488 85.875C501.773 86.0898 502.117 86.1973 502.52 86.1973C503.125 86.1973 503.568 85.9844 503.85 85.5586C504.131 85.1289 504.271 84.6016 504.271 83.9766V83.7891C504.271 83.1602 504.131 82.6328 503.85 82.207C503.568 81.7773 503.125 81.5625 502.52 81.5625C502.117 81.5625 501.773 81.6719 501.488 81.8906C501.207 82.1055 501.004 82.3516 500.879 82.6289V85.1367ZM506.434 85.166C506.434 84.5332 506.688 84.041 507.195 83.6895C507.707 83.334 508.357 83.1562 509.146 83.1562H510.588V82.7109C510.588 82.3438 510.488 82.0469 510.289 81.8203C510.09 81.5898 509.748 81.4746 509.264 81.4746C508.779 81.4746 508.432 81.5723 508.221 81.7676C508.014 81.9629 507.91 82.1895 507.91 82.4473V82.4766H506.803V82.4473C506.803 81.9512 507.027 81.5176 507.477 81.1465C507.926 80.7754 508.531 80.5898 509.293 80.5898C510.059 80.5898 510.65 80.7676 511.068 81.123C511.49 81.4785 511.701 82.0078 511.701 82.7109V85.5938C511.701 85.8477 511.721 86.0879 511.76 86.3145C511.799 86.5371 511.855 86.7344 511.93 86.9062V87H510.852C510.793 86.9023 510.74 86.7734 510.693 86.6133C510.65 86.4531 510.623 86.2949 510.611 86.1387C510.463 86.3965 510.221 86.625 509.885 86.8242C509.553 87.0195 509.123 87.1172 508.596 87.1172C507.998 87.1172 507.488 86.9492 507.066 86.6133C506.645 86.2773 506.434 85.7949 506.434 85.166ZM507.547 85.1074C507.547 85.459 507.652 85.7344 507.863 85.9336C508.074 86.1289 508.4 86.2266 508.842 86.2266C509.287 86.2266 509.689 86.0781 510.049 85.7812C510.408 85.4844 510.588 85.1699 510.588 84.8379V83.9531H509.264C508.701 83.9531 508.273 84.0566 507.98 84.2637C507.691 84.4707 507.547 84.752 507.547 85.1074ZM513.418 87V80.7656H514.426L514.473 81.5684H514.508C514.668 81.3066 514.879 81.0781 515.141 80.8828C515.406 80.6875 515.721 80.5898 516.084 80.5898C516.17 80.5898 516.26 80.5996 516.354 80.6191C516.451 80.6387 516.52 80.6562 516.559 80.6719V81.709C516.48 81.6934 516.396 81.6816 516.307 81.6738C516.221 81.666 516.125 81.6621 516.02 81.6621C515.656 81.6621 515.348 81.7559 515.094 81.9434C514.84 82.1309 514.652 82.3613 514.531 82.6348V87H513.418ZM517.027 85.166C517.027 84.5332 517.281 84.041 517.789 83.6895C518.301 83.334 518.951 83.1562 519.74 83.1562H521.182V82.7109C521.182 82.3438 521.082 82.0469 520.883 81.8203C520.684 81.5898 520.342 81.4746 519.857 81.4746C519.373 81.4746 519.025 81.5723 518.814 81.7676C518.607 81.9629 518.504 82.1895 518.504 82.4473V82.4766H517.396V82.4473C517.396 81.9512 517.621 81.5176 518.07 81.1465C518.52 80.7754 519.125 80.5898 519.887 80.5898C520.652 80.5898 521.244 80.7676 521.662 81.123C522.084 81.4785 522.295 82.0078 522.295 82.7109V85.5938C522.295 85.8477 522.314 86.0879 522.354 86.3145C522.393 86.5371 522.449 86.7344 522.523 86.9062V87H521.445C521.387 86.9023 521.334 86.7734 521.287 86.6133C521.244 86.4531 521.217 86.2949 521.205 86.1387C521.057 86.3965 520.814 86.625 520.479 86.8242C520.146 87.0195 519.717 87.1172 519.189 87.1172C518.592 87.1172 518.082 86.9492 517.66 86.6133C517.238 86.2773 517.027 85.7949 517.027 85.166ZM518.141 85.1074C518.141 85.459 518.246 85.7344 518.457 85.9336C518.668 86.1289 518.994 86.2266 519.436 86.2266C519.881 86.2266 520.283 86.0781 520.643 85.7812C521.002 85.4844 521.182 85.1699 521.182 84.8379V83.9531H519.857C519.295 83.9531 518.867 84.0566 518.574 84.2637C518.285 84.4707 518.141 84.752 518.141 85.1074ZM526.572 83.9766V83.7891C526.572 82.8477 526.844 82.0801 527.387 81.4863C527.93 80.8887 528.654 80.5898 529.561 80.5898C530.467 80.5898 531.191 80.8887 531.734 81.4863C532.277 82.0801 532.549 82.8477 532.549 83.7891V83.9766C532.549 84.918 532.277 85.6875 531.734 86.2852C531.191 86.8789 530.467 87.1758 529.561 87.1758C528.654 87.1758 527.93 86.8789 527.387 86.2852C526.844 85.6875 526.572 84.918 526.572 83.9766ZM527.709 83.7891V83.9766C527.709 84.6133 527.863 85.1523 528.172 85.5938C528.484 86.0352 528.947 86.2559 529.561 86.2559C530.174 86.2559 530.635 86.0352 530.943 85.5938C531.252 85.1523 531.406 84.6133 531.406 83.9766V83.7891C531.406 83.1484 531.252 82.6074 530.943 82.166C530.635 81.7246 530.174 81.5039 529.561 81.5039C528.947 81.5039 528.484 81.7246 528.172 82.166C527.863 82.6074 527.709 83.1484 527.709 83.7891ZM536.844 89.4375V80.7656H537.852L537.898 81.5742H537.934C538.094 81.3203 538.34 81.1035 538.672 80.9238C539.008 80.7402 539.398 80.6484 539.844 80.6484C540.645 80.6484 541.285 80.9453 541.766 81.5391C542.246 82.1289 542.486 82.8789 542.486 83.7891V83.9766C542.486 84.8828 542.246 85.6328 541.766 86.2266C541.285 86.8203 540.645 87.1172 539.844 87.1172C539.398 87.1172 539.02 87.0391 538.707 86.8828C538.395 86.7266 538.145 86.5195 537.957 86.2617V89.4375H536.844ZM537.957 85.1367C538.082 85.4102 538.285 85.6562 538.566 85.875C538.852 86.0898 539.195 86.1973 539.598 86.1973C540.203 86.1973 540.646 85.9844 540.928 85.5586C541.209 85.1289 541.35 84.6016 541.35 83.9766V83.7891C541.35 83.1602 541.209 82.6328 540.928 82.207C540.646 81.7773 540.203 81.5625 539.598 81.5625C539.195 81.5625 538.852 81.6719 538.566 81.8906C538.285 82.1055 538.082 82.3516 537.957 82.6289V85.1367ZM543.852 87V80.7656H544.859L544.906 81.5684H544.941C545.102 81.3066 545.312 81.0781 545.574 80.8828C545.84 80.6875 546.154 80.5898 546.518 80.5898C546.604 80.5898 546.693 80.5996 546.787 80.6191C546.885 80.6387 546.953 80.6562 546.992 80.6719V81.709C546.914 81.6934 546.83 81.6816 546.74 81.6738C546.654 81.666 546.559 81.6621 546.453 81.6621C546.09 81.6621 545.781 81.7559 545.527 81.9434C545.273 82.1309 545.086 82.3613 544.965 82.6348V87H543.852ZM547.549 83.9766V83.7891C547.549 82.8477 547.82 82.0801 548.363 81.4863C548.906 80.8887 549.631 80.5898 550.537 80.5898C551.443 80.5898 552.168 80.8887 552.711 81.4863C553.254 82.0801 553.525 82.8477 553.525 83.7891V83.9766C553.525 84.918 553.254 85.6875 552.711 86.2852C552.168 86.8789 551.443 87.1758 550.537 87.1758C549.631 87.1758 548.906 86.8789 548.363 86.2852C547.82 85.6875 547.549 84.918 547.549 83.9766ZM548.686 83.7891V83.9766C548.686 84.6133 548.84 85.1523 549.148 85.5938C549.461 86.0352 549.924 86.2559 550.537 86.2559C551.15 86.2559 551.611 86.0352 551.92 85.5938C552.229 85.1523 552.383 84.6133 552.383 83.9766V83.7891C552.383 83.1484 552.229 82.6074 551.92 82.166C551.611 81.7246 551.15 81.5039 550.537 81.5039C549.924 81.5039 549.461 81.7246 549.148 82.166C548.84 82.6074 548.686 83.1484 548.686 83.7891ZM549.576 79.2305L551.018 77.4258L551.932 78.1055L550.162 79.7344L549.576 79.2305ZM554.059 87L556.449 83.5547H556.525L558.307 80.7656H559.566L557.293 84.1289H557.211L555.318 87H554.059ZM554.176 80.7656H555.465L557.24 83.5547H557.299L559.684 87H558.4L556.508 84.1289H556.455L554.176 80.7656ZM560.721 87V80.7656H561.834V87H560.721ZM560.592 78.9141C560.592 78.7305 560.65 78.5762 560.768 78.4512C560.889 78.3223 561.059 78.2578 561.277 78.2578C561.496 78.2578 561.664 78.3223 561.781 78.4512C561.902 78.5762 561.963 78.7305 561.963 78.9141C561.963 79.1016 561.902 79.2598 561.781 79.3887C561.664 79.5137 561.496 79.5762 561.277 79.5762C561.059 79.5762 560.889 79.5137 560.768 79.3887C560.65 79.2598 560.592 79.1016 560.592 78.9141ZM563.621 87V80.7656H564.629L564.676 81.5742H564.711C564.938 81.2852 565.211 81.0586 565.531 80.8945C565.852 80.7305 566.209 80.6484 566.604 80.6484C567.029 80.6484 567.396 80.7324 567.705 80.9004C568.014 81.0645 568.248 81.332 568.408 81.7031H568.443C568.709 81.332 569.004 81.0645 569.328 80.9004C569.656 80.7324 570.029 80.6484 570.447 80.6484C571.104 80.6484 571.617 80.8301 571.988 81.1934C572.359 81.5527 572.545 82.1582 572.545 83.0098V87H571.432V82.998C571.432 82.4941 571.322 82.1328 571.104 81.9141C570.885 81.6953 570.574 81.5859 570.172 81.5859C569.824 81.5859 569.52 81.6816 569.258 81.873C569 82.0645 568.795 82.3105 568.643 82.6113V87H567.523V82.998C567.523 82.4941 567.414 82.1328 567.195 81.9141C566.977 81.6953 566.668 81.5859 566.27 81.5859C565.922 81.5859 565.617 81.6816 565.355 81.873C565.098 82.0645 564.891 82.3105 564.734 82.6113V87H563.621ZM573.857 83.9766V83.7891C573.857 82.8477 574.129 82.0801 574.672 81.4863C575.215 80.8887 575.939 80.5898 576.846 80.5898C577.752 80.5898 578.477 80.8887 579.02 81.4863C579.562 82.0801 579.834 82.8477 579.834 83.7891V83.9766C579.834 84.918 579.562 85.6875 579.02 86.2852C578.477 86.8789 577.752 87.1758 576.846 87.1758C575.939 87.1758 575.215 86.8789 574.672 86.2852C574.129 85.6875 573.857 84.918 573.857 83.9766ZM574.994 83.7891V83.9766C574.994 84.6133 575.148 85.1523 575.457 85.5938C575.77 86.0352 576.232 86.2559 576.846 86.2559C577.459 86.2559 577.92 86.0352 578.229 85.5938C578.537 85.1523 578.691 84.6133 578.691 83.9766V83.7891C578.691 83.1484 578.537 82.6074 578.229 82.166C577.92 81.7246 577.459 81.5039 576.846 81.5039C576.232 81.5039 575.77 81.7246 575.457 82.166C575.148 82.6074 574.994 83.1484 574.994 83.7891ZM583.76 83.9766V83.7891C583.76 82.8477 584.02 82.0801 584.539 81.4863C585.059 80.8887 585.775 80.5898 586.689 80.5898C587.533 80.5898 588.174 80.8145 588.611 81.2637C589.049 81.709 589.268 82.207 589.268 82.7578V82.7871H588.189V82.7578C588.189 82.4297 588.07 82.1387 587.832 81.8848C587.594 81.6309 587.213 81.5039 586.689 81.5039C586.076 81.5039 585.623 81.7246 585.33 82.166C585.041 82.6074 584.896 83.1484 584.896 83.7891V83.9766C584.896 84.6172 585.041 85.1582 585.33 85.5996C585.623 86.041 586.076 86.2617 586.689 86.2617C587.213 86.2617 587.594 86.1348 587.832 85.8809C588.07 85.627 588.189 85.334 588.189 85.002V84.9727H589.268V85.002C589.268 85.5566 589.049 86.0586 588.611 86.5078C588.174 86.9531 587.533 87.1758 586.689 87.1758C585.775 87.1758 585.059 86.8789 584.539 86.2852C584.02 85.6875 583.76 84.918 583.76 83.9766ZM590.211 85.166C590.211 84.5332 590.465 84.041 590.973 83.6895C591.484 83.334 592.135 83.1562 592.924 83.1562H594.365V82.7109C594.365 82.3438 594.266 82.0469 594.066 81.8203C593.867 81.5898 593.525 81.4746 593.041 81.4746C592.557 81.4746 592.209 81.5723 591.998 81.7676C591.791 81.9629 591.688 82.1895 591.688 82.4473V82.4766H590.58V82.4473C590.58 81.9512 590.805 81.5176 591.254 81.1465C591.703 80.7754 592.309 80.5898 593.07 80.5898C593.836 80.5898 594.428 80.7676 594.846 81.123C595.268 81.4785 595.479 82.0078 595.479 82.7109V85.5938C595.479 85.8477 595.498 86.0879 595.537 86.3145C595.576 86.5371 595.633 86.7344 595.707 86.9062V87H594.629C594.57 86.9023 594.518 86.7734 594.471 86.6133C594.428 86.4531 594.4 86.2949 594.389 86.1387C594.24 86.3965 593.998 86.625 593.662 86.8242C593.33 87.0195 592.9 87.1172 592.373 87.1172C591.775 87.1172 591.266 86.9492 590.844 86.6133C590.422 86.2773 590.211 85.7949 590.211 85.166ZM591.324 85.1074C591.324 85.459 591.43 85.7344 591.641 85.9336C591.852 86.1289 592.178 86.2266 592.619 86.2266C593.064 86.2266 593.467 86.0781 593.826 85.7812C594.186 85.4844 594.365 85.1699 594.365 84.8379V83.9531H593.041C592.479 83.9531 592.051 84.0566 591.758 84.2637C591.469 84.4707 591.324 84.752 591.324 85.1074ZM597.195 87V80.7656H598.203L598.25 81.5684H598.285C598.445 81.3066 598.656 81.0781 598.918 80.8828C599.184 80.6875 599.498 80.5898 599.861 80.5898C599.947 80.5898 600.037 80.5996 600.131 80.6191C600.229 80.6387 600.297 80.6562 600.336 80.6719V81.709C600.258 81.6934 600.174 81.6816 600.084 81.6738C599.998 81.666 599.902 81.6621 599.797 81.6621C599.434 81.6621 599.125 81.7559 598.871 81.9434C598.617 82.1309 598.43 82.3613 598.309 82.6348V87H597.195ZM600.805 85.166C600.805 84.5332 601.059 84.041 601.566 83.6895C602.078 83.334 602.729 83.1562 603.518 83.1562H604.959V82.7109C604.959 82.3438 604.859 82.0469 604.66 81.8203C604.461 81.5898 604.119 81.4746 603.635 81.4746C603.15 81.4746 602.803 81.5723 602.592 81.7676C602.385 81.9629 602.281 82.1895 602.281 82.4473V82.4766H601.174V82.4473C601.174 81.9512 601.398 81.5176 601.848 81.1465C602.297 80.7754 602.902 80.5898 603.664 80.5898C604.43 80.5898 605.021 80.7676 605.439 81.123C605.861 81.4785 606.072 82.0078 606.072 82.7109V85.5938C606.072 85.8477 606.092 86.0879 606.131 86.3145C606.17 86.5371 606.227 86.7344 606.301 86.9062V87H605.223C605.164 86.9023 605.111 86.7734 605.064 86.6133C605.021 86.4531 604.994 86.2949 604.982 86.1387C604.834 86.3965 604.592 86.625 604.256 86.8242C603.924 87.0195 603.494 87.1172 602.967 87.1172C602.369 87.1172 601.859 86.9492 601.438 86.6133C601.016 86.2773 600.805 85.7949 600.805 85.166ZM601.918 85.1074C601.918 85.459 602.023 85.7344 602.234 85.9336C602.445 86.1289 602.771 86.2266 603.213 86.2266C603.658 86.2266 604.061 86.0781 604.42 85.7812C604.779 85.4844 604.959 85.1699 604.959 84.8379V83.9531H603.635C603.072 83.9531 602.645 84.0566 602.352 84.2637C602.062 84.4707 601.918 84.752 601.918 85.1074ZM607.42 83.9766V83.7891C607.42 82.8477 607.68 82.0801 608.199 81.4863C608.719 80.8887 609.436 80.5898 610.35 80.5898C611.193 80.5898 611.834 80.8145 612.271 81.2637C612.709 81.709 612.928 82.207 612.928 82.7578V82.7871H611.85V82.7578C611.85 82.4297 611.73 82.1387 611.492 81.8848C611.254 81.6309 610.873 81.5039 610.35 81.5039C609.736 81.5039 609.283 81.7246 608.99 82.166C608.701 82.6074 608.557 83.1484 608.557 83.7891V83.9766C608.557 84.6172 608.701 85.1582 608.99 85.5996C609.283 86.041 609.736 86.2617 610.35 86.2617C610.873 86.2617 611.254 86.1348 611.492 85.8809C611.73 85.627 611.85 85.334 611.85 85.002V84.9727H612.928V85.002C612.928 85.5566 612.709 86.0586 612.271 86.5078C611.834 86.9531 611.193 87.1758 610.35 87.1758C609.436 87.1758 608.719 86.8789 608.199 86.2852C607.68 85.6875 607.42 84.918 607.42 83.9766ZM613.344 81.6211V80.7656H616.953V81.6211H613.344ZM614.475 85.4531V81.2812V81.1055V79.3125H615.588V85.4531C615.588 85.7266 615.643 85.9219 615.752 86.0391C615.865 86.1562 616.043 86.2148 616.285 86.2148C616.395 86.2148 616.502 86.2031 616.607 86.1797C616.717 86.1562 616.828 86.125 616.941 86.0859V87C616.836 87.0469 616.699 87.0879 616.531 87.123C616.367 87.1582 616.186 87.1758 615.986 87.1758C615.525 87.1758 615.158 87.0371 614.885 86.7598C614.611 86.4824 614.475 86.0469 614.475 85.4531ZM617.744 83.9766V83.7891C617.744 82.8477 618.006 82.0801 618.529 81.4863C619.053 80.8887 619.746 80.5898 620.609 80.5898C621.473 80.5898 622.137 80.8691 622.602 81.4277C623.07 81.9824 623.305 82.7344 623.305 83.6836V84.1406H618.43V83.2559H622.18V83.168C622.18 82.6992 622.053 82.3047 621.799 81.9844C621.545 81.6641 621.158 81.5039 620.639 81.5039C620.057 81.5039 619.617 81.7246 619.32 82.166C619.027 82.6074 618.881 83.1484 618.881 83.7891V83.9766C618.881 84.6172 619.035 85.1582 619.344 85.5996C619.656 86.041 620.139 86.2617 620.791 86.2617C621.193 86.2617 621.539 86.1758 621.828 86.0039C622.117 85.832 622.352 85.6289 622.531 85.3945L623.252 85.9746C623.053 86.2676 622.742 86.541 622.32 86.7949C621.902 87.0488 621.393 87.1758 620.791 87.1758C619.807 87.1758 619.053 86.8789 618.529 86.2852C618.006 85.6875 617.744 84.918 617.744 83.9766ZM624.641 87V80.7656H625.648L625.695 81.5684H625.73C625.891 81.3066 626.102 81.0781 626.363 80.8828C626.629 80.6875 626.943 80.5898 627.307 80.5898C627.393 80.5898 627.482 80.5996 627.576 80.6191C627.674 80.6387 627.742 80.6562 627.781 80.6719V81.709C627.703 81.6934 627.619 81.6816 627.529 81.6738C627.443 81.666 627.348 81.6621 627.242 81.6621C626.879 81.6621 626.57 81.7559 626.316 81.9434C626.062 82.1309 625.875 82.3613 625.754 82.6348V87H624.641ZM628.338 83.9766V83.7891C628.338 82.8477 628.6 82.0801 629.123 81.4863C629.646 80.8887 630.34 80.5898 631.203 80.5898C632.066 80.5898 632.73 80.8691 633.195 81.4277C633.664 81.9824 633.898 82.7344 633.898 83.6836V84.1406H629.023V83.2559H632.773V83.168C632.773 82.6992 632.646 82.3047 632.393 81.9844C632.139 81.6641 631.752 81.5039 631.232 81.5039C630.65 81.5039 630.211 81.7246 629.914 82.166C629.621 82.6074 629.475 83.1484 629.475 83.7891V83.9766C629.475 84.6172 629.629 85.1582 629.938 85.5996C630.25 86.041 630.732 86.2617 631.385 86.2617C631.787 86.2617 632.133 86.1758 632.422 86.0039C632.711 85.832 632.945 85.6289 633.125 85.3945L633.846 85.9746C633.646 86.2676 633.336 86.541 632.914 86.7949C632.496 87.0488 631.986 87.1758 631.385 87.1758C630.4 87.1758 629.646 86.8789 629.123 86.2852C628.6 85.6875 628.338 84.918 628.338 83.9766Z" fill="#525252"/>
<g clip-path="url(#clip0_46_670)">
<path d="M188.121 26.2402V23.2285C188.121 22.3496 188.367 21.6406 188.859 21.1016C189.355 20.5625 190.043 20.293 190.922 20.293C191.793 20.293 192.479 20.5625 192.979 21.1016C193.479 21.6406 193.729 22.3496 193.729 23.2285V26.2402C193.729 27.123 193.479 27.834 192.979 28.373C192.479 28.9082 191.793 29.1758 190.922 29.1758C190.043 29.1758 189.355 28.9082 188.859 28.373C188.367 27.834 188.121 27.123 188.121 26.2402ZM189.281 26.2988C189.281 26.8574 189.414 27.3184 189.68 27.6816C189.949 28.041 190.363 28.2207 190.922 28.2207C191.48 28.2207 191.895 28.041 192.164 27.6816C192.434 27.3184 192.568 26.8574 192.568 26.2988V23.1699C192.568 22.6113 192.434 22.1523 192.164 21.793C191.895 21.4297 191.48 21.248 190.922 21.248C190.363 21.248 189.949 21.4297 189.68 21.793C189.414 22.1523 189.281 22.6113 189.281 23.1699V26.2988Z" fill="#A2A2A2"/>
<rect x="175" y="34" width="32" height="32" fill="#F9F9F9"/>
<rect x="175" y="34" width="32" height="32" stroke="#525252"/>
<path d="M222.693 29V21.7285L220.49 22.6367V21.5234L223.637 20.3516H223.842V29H222.693Z" fill="#A2A2A2"/>
<rect x="207" y="34" width="32" height="32" fill="#F9F9F9"/>
<rect x="207" y="34" width="32" height="32" stroke="#525252"/>
<path d="M252.121 29V28.1445L255.244 24.8809C255.65 24.4629 255.959 24.0898 256.17 23.7617C256.385 23.4297 256.492 23.0703 256.492 22.6836C256.492 22.2969 256.357 21.9609 256.088 21.6758C255.818 21.3906 255.443 21.248 254.963 21.248C254.482 21.248 254.078 21.4023 253.75 21.7109C253.422 22.0156 253.258 22.4375 253.258 22.9766V23.0352H252.115V22.9766C252.115 22.1953 252.387 21.5527 252.93 21.0488C253.477 20.5449 254.154 20.293 254.963 20.293C255.764 20.293 256.408 20.5254 256.896 20.9902C257.389 21.4551 257.635 22 257.635 22.625C257.635 23.1836 257.477 23.6895 257.16 24.1426C256.844 24.5918 256.455 25.0508 255.994 25.5195L253.562 28.0156H257.869V29H252.121Z" fill="#A2A2A2"/>
<rect x="239" y="34" width="32" height="32" fill="#F9F9F9"/>
<rect x="239" y="34" width="32" height="32" stroke="#525252"/>
<path d="M283.939 26.7617V26.7031H285.059V26.7617C285.059 27.2266 285.217 27.5879 285.533 27.8457C285.854 28.0996 286.277 28.2266 286.805 28.2266C287.332 28.2266 287.754 28.0996 288.07 27.8457C288.387 27.5879 288.545 27.1875 288.545 26.6445C288.545 26.1055 288.367 25.6992 288.012 25.4258C287.656 25.1523 287.18 25.0156 286.582 25.0156H285.885V24.0898H286.523C287.074 24.0898 287.498 23.9609 287.795 23.7031C288.096 23.4453 288.246 23.084 288.246 22.6191C288.246 22.1582 288.115 21.8145 287.854 21.5879C287.596 21.3574 287.246 21.2422 286.805 21.2422C286.352 21.2422 285.986 21.3574 285.709 21.5879C285.436 21.8145 285.299 22.1406 285.299 22.5664V22.625H284.18V22.5664C284.18 21.9375 284.424 21.4023 284.912 20.9609C285.4 20.5156 286.031 20.293 286.805 20.293C287.566 20.293 288.189 20.5039 288.674 20.9258C289.158 21.3477 289.4 21.8926 289.4 22.5605C289.4 22.9512 289.291 23.3262 289.072 23.6855C288.854 24.041 288.514 24.3164 288.053 24.5117V24.5352C288.553 24.6602 288.953 24.9082 289.254 25.2793C289.555 25.6504 289.705 26.1055 289.705 26.6445C289.705 27.4336 289.432 28.0527 288.885 28.502C288.338 28.9512 287.645 29.1758 286.805 29.1758C285.938 29.1758 285.242 28.9512 284.719 28.502C284.199 28.0488 283.939 27.4688 283.939 26.7617Z" fill="#A2A2A2"/>
<rect x="271" y="34" width="32" height="32" fill="#F9F9F9"/>
<rect x="271" y="34" width="32" height="32" stroke="#525252"/>
<path d="M319.801 29V26.668V26.3633V22.2383H319.73L317.088 26.0527H320.088H320.545H322.098V27.002H315.775V26.2285L319.836 20.4688H320.885V29H319.801Z" fill="#A2A2A2"/>
<rect x="303" y="34" width="32" height="32" fill="#F9F9F9"/>
<rect x="303" y="34" width="32" height="32" stroke="#525252"/>
<path d="M314.611 56.5V42.2812H319.162C320.555 42.2812 321.649 42.584 322.443 43.1895C323.244 43.7884 323.645 44.7324 323.645 46.0215C323.645 46.8092 323.449 47.4538 323.059 47.9551C322.674 48.4499 322.193 48.7982 321.613 49V49.0391C322.323 49.2409 322.902 49.6283 323.352 50.2012C323.801 50.7676 324.025 51.5098 324.025 52.4277C324.025 53.7233 323.609 54.7259 322.775 55.4355C321.942 56.1452 320.835 56.5 319.455 56.5H314.611ZM316.34 55.0352H319.455C320.425 55.0352 321.135 54.8008 321.584 54.332C322.04 53.8633 322.268 53.2285 322.268 52.4277C322.268 51.627 322.04 50.9922 321.584 50.5234C321.135 50.0547 320.425 49.8203 319.455 49.8203H316.34V55.0352ZM316.34 48.375H319.162C320.132 48.375 320.829 48.1699 321.252 47.7598C321.682 47.3431 321.896 46.7669 321.896 46.0312C321.896 45.2891 321.682 44.7227 321.252 44.332C320.829 43.9414 320.132 43.7461 319.162 43.7461H316.34V48.375Z" fill="#262626"/>
<path d="M348.057 26.8496V26.791H349.164V26.8496C349.164 27.2754 349.318 27.6113 349.627 27.8574C349.939 28.1035 350.355 28.2266 350.875 28.2266C351.395 28.2266 351.82 28.0566 352.152 27.7168C352.484 27.373 352.65 26.8926 352.65 26.2754C352.65 25.6582 352.484 25.1875 352.152 24.8633C351.82 24.5391 351.395 24.377 350.875 24.377C350.52 24.377 350.205 24.4414 349.932 24.5703C349.658 24.6992 349.402 24.8809 349.164 25.1152L348.355 24.7285L348.789 20.4688H353.336V21.4941H349.727L349.475 23.8789C349.67 23.7578 349.902 23.6523 350.172 23.5625C350.445 23.4688 350.742 23.4219 351.062 23.4219C351.82 23.4219 352.463 23.6738 352.99 24.1777C353.521 24.6777 353.787 25.377 353.787 26.2754C353.787 27.1738 353.512 27.8828 352.961 28.4023C352.41 28.918 351.715 29.1758 350.875 29.1758C350 29.1758 349.311 28.9551 348.807 28.5137C348.307 28.0723 348.057 27.5176 348.057 26.8496Z" fill="#A2A2A2"/>
<rect x="335" y="34" width="32" height="32" fill="#F9F9F9"/>
<rect x="335" y="34" width="32" height="32" stroke="#525252"/>
<path d="M346.34 53.541C346.34 52.5254 346.74 51.7311 347.541 51.1582C348.348 50.5853 349.38 50.2988 350.637 50.2988H352.941V49.5664C352.941 48.9479 352.779 48.4499 352.453 48.0723C352.134 47.6947 351.59 47.5059 350.822 47.5059C350.048 47.5059 349.488 47.6654 349.143 47.9844C348.804 48.2969 348.635 48.6712 348.635 49.1074V49.1855H346.926V49.0879C346.926 48.2936 347.277 47.6035 347.98 47.0176C348.69 46.4251 349.65 46.1289 350.861 46.1289C352.066 46.1289 352.997 46.4154 353.654 46.9883C354.318 47.5547 354.65 48.4141 354.65 49.5664V54.1562C354.65 54.5794 354.683 54.9798 354.748 55.3574C354.813 55.7285 354.904 56.0573 355.021 56.3438V56.5H353.371C353.28 56.3372 353.195 56.1257 353.117 55.8652C353.046 55.6048 353 55.3444 352.98 55.084C352.74 55.5007 352.352 55.8717 351.818 56.1973C351.291 56.5228 350.607 56.6855 349.768 56.6855C348.804 56.6855 347.99 56.4154 347.326 55.875C346.669 55.3346 346.34 54.5566 346.34 53.541ZM348.049 53.4531C348.049 54.0391 348.218 54.4948 348.557 54.8203C348.902 55.1458 349.426 55.3086 350.129 55.3086C350.845 55.3086 351.493 55.0645 352.072 54.5762C352.652 54.0814 352.941 53.554 352.941 52.9941V51.5391H350.832C349.914 51.5391 349.221 51.7116 348.752 52.0566C348.283 52.4017 348.049 52.8672 348.049 53.4531Z" fill="#262626"/>
</g>
<rect x="174.5" y="15.5" width="193" height="51" stroke="#4F46E4"/>
<path d="M516.121 26.2402V23.2285C516.121 22.3496 516.367 21.6406 516.859 21.1016C517.355 20.5625 518.043 20.293 518.922 20.293C519.793 20.293 520.479 20.5625 520.979 21.1016C521.479 21.6406 521.729 22.3496 521.729 23.2285V26.2402C521.729 27.123 521.479 27.834 520.979 28.373C520.479 28.9082 519.793 29.1758 518.922 29.1758C518.043 29.1758 517.355 28.9082 516.859 28.373C516.367 27.834 516.121 27.123 516.121 26.2402ZM517.281 26.2988C517.281 26.8574 517.414 27.3184 517.68 27.6816C517.949 28.041 518.363 28.2207 518.922 28.2207C519.48 28.2207 519.895 28.041 520.164 27.6816C520.434 27.3184 520.568 26.8574 520.568 26.2988V23.1699C520.568 22.6113 520.434 22.1523 520.164 21.793C519.895 21.4297 519.48 21.248 518.922 21.248C518.363 21.248 517.949 21.4297 517.68 21.793C517.414 22.1523 517.281 22.6113 517.281 23.1699V26.2988Z" fill="#A2A2A2"/>
<rect x="503" y="34" width="32" height="32" fill="#F9F9F9"/>
<rect x="503" y="34" width="32" height="32" stroke="#525252"/>
<path d="M514.611 56.5V42.2812H519.162C520.555 42.2812 521.649 42.584 522.443 43.1895C523.244 43.7884 523.645 44.7324 523.645 46.0215C523.645 46.8092 523.449 47.4538 523.059 47.9551C522.674 48.4499 522.193 48.7982 521.613 49V49.0391C522.323 49.2409 522.902 49.6283 523.352 50.2012C523.801 50.7676 524.025 51.5098 524.025 52.4277C524.025 53.7233 523.609 54.7259 522.775 55.4355C521.942 56.1452 520.835 56.5 519.455 56.5H514.611ZM516.34 55.0352H519.455C520.425 55.0352 521.135 54.8008 521.584 54.332C522.04 53.8633 522.268 53.2285 522.268 52.4277C522.268 51.627 522.04 50.9922 521.584 50.5234C521.135 50.0547 520.425 49.8203 519.455 49.8203H516.34V55.0352ZM516.34 48.375H519.162C520.132 48.375 520.829 48.1699 521.252 47.7598C521.682 47.3431 521.896 46.7669 521.896 46.0312C521.896 45.2891 521.682 44.7227 521.252 44.332C520.829 43.9414 520.132 43.7461 519.162 43.7461H516.34V48.375Z" fill="#262626"/>
<path d="M550.693 29V21.7285L548.49 22.6367V21.5234L551.637 20.3516H551.842V29H550.693Z" fill="#A2A2A2"/>
<rect x="535" y="34" width="32" height="32" fill="#F9F9F9"/>
<rect x="535" y="34" width="32" height="32" stroke="#525252"/>
<path d="M546.34 53.541C546.34 52.5254 546.74 51.7311 547.541 51.1582C548.348 50.5853 549.38 50.2988 550.637 50.2988H552.941V49.5664C552.941 48.9479 552.779 48.4499 552.453 48.0723C552.134 47.6947 551.59 47.5059 550.822 47.5059C550.048 47.5059 549.488 47.6654 549.143 47.9844C548.804 48.2969 548.635 48.6712 548.635 49.1074V49.1855H546.926V49.0879C546.926 48.2936 547.277 47.6035 547.98 47.0176C548.69 46.4251 549.65 46.1289 550.861 46.1289C552.066 46.1289 552.997 46.4154 553.654 46.9883C554.318 47.5547 554.65 48.4141 554.65 49.5664V54.1562C554.65 54.5794 554.683 54.9798 554.748 55.3574C554.813 55.7285 554.904 56.0573 555.021 56.3438V56.5H553.371C553.28 56.3372 553.195 56.1257 553.117 55.8652C553.046 55.6048 553 55.3444 552.98 55.084C552.74 55.5007 552.352 55.8717 551.818 56.1973C551.291 56.5228 550.607 56.6855 549.768 56.6855C548.804 56.6855 547.99 56.4154 547.326 55.875C546.669 55.3346 546.34 54.5566 546.34 53.541ZM548.049 53.4531C548.049 54.0391 548.218 54.4948 548.557 54.8203C548.902 55.1458 549.426 55.3086 550.129 55.3086C550.845 55.3086 551.493 55.0645 552.072 54.5762C552.652 54.0814 552.941 53.554 552.941 52.9941V51.5391H550.832C549.914 51.5391 549.221 51.7116 548.752 52.0566C548.283 52.4017 548.049 52.8672 548.049 53.4531Z" fill="#262626"/>
<path d="M580.121 29V28.1445L583.244 24.8809C583.65 24.4629 583.959 24.0898 584.17 23.7617C584.385 23.4297 584.492 23.0703 584.492 22.6836C584.492 22.2969 584.357 21.9609 584.088 21.6758C583.818 21.3906 583.443 21.248 582.963 21.248C582.482 21.248 582.078 21.4023 581.75 21.7109C581.422 22.0156 581.258 22.4375 581.258 22.9766V23.0352H580.115V22.9766C580.115 22.1953 580.387 21.5527 580.93 21.0488C581.477 20.5449 582.154 20.293 582.963 20.293C583.764 20.293 584.408 20.5254 584.896 20.9902C585.389 21.4551 585.635 22 585.635 22.625C585.635 23.1836 585.477 23.6895 585.16 24.1426C584.844 24.5918 584.455 25.0508 583.994 25.5195L581.562 28.0156H585.869V29H580.121Z" fill="#A2A2A2"/>
<rect x="567" y="34" width="32" height="32" fill="#F9F9F9"/>
<rect x="567" y="34" width="32" height="32" stroke="#525252"/>
<path d="M578.291 51.6074V51.2949C578.291 49.765 578.701 48.5215 579.521 47.5645C580.348 46.6074 581.478 46.1289 582.91 46.1289C584.251 46.1289 585.267 46.487 585.957 47.2031C586.647 47.9193 586.992 48.7363 586.992 49.6543V49.7129H585.332V49.6543C585.332 49.0814 585.137 48.5866 584.746 48.1699C584.362 47.7533 583.753 47.5449 582.92 47.5449C581.943 47.5449 581.217 47.903 580.742 48.6191C580.273 49.3288 580.039 50.2207 580.039 51.2949V51.6074C580.039 52.6686 580.273 53.5605 580.742 54.2832C581.217 55.0059 581.94 55.3672 582.91 55.3672C583.75 55.3672 584.362 55.1589 584.746 54.7422C585.137 54.319 585.332 53.8177 585.332 53.2383V53.1797H586.992V53.2383C586.992 54.1562 586.644 54.9766 585.947 55.6992C585.257 56.4219 584.245 56.7832 582.91 56.7832C581.478 56.7832 580.348 56.3047 579.521 55.3477C578.701 54.3841 578.291 53.1374 578.291 51.6074Z" fill="#262626"/>
<path d="M611.939 26.7617V26.7031H613.059V26.7617C613.059 27.2266 613.217 27.5879 613.533 27.8457C613.854 28.0996 614.277 28.2266 614.805 28.2266C615.332 28.2266 615.754 28.0996 616.07 27.8457C616.387 27.5879 616.545 27.1875 616.545 26.6445C616.545 26.1055 616.367 25.6992 616.012 25.4258C615.656 25.1523 615.18 25.0156 614.582 25.0156H613.885V24.0898H614.523C615.074 24.0898 615.498 23.9609 615.795 23.7031C616.096 23.4453 616.246 23.084 616.246 22.6191C616.246 22.1582 616.115 21.8145 615.854 21.5879C615.596 21.3574 615.246 21.2422 614.805 21.2422C614.352 21.2422 613.986 21.3574 613.709 21.5879C613.436 21.8145 613.299 22.1406 613.299 22.5664V22.625H612.18V22.5664C612.18 21.9375 612.424 21.4023 612.912 20.9609C613.4 20.5156 614.031 20.293 614.805 20.293C615.566 20.293 616.189 20.5039 616.674 20.9258C617.158 21.3477 617.4 21.8926 617.4 22.5605C617.4 22.9512 617.291 23.3262 617.072 23.6855C616.854 24.041 616.514 24.3164 616.053 24.5117V24.5352C616.553 24.6602 616.953 24.9082 617.254 25.2793C617.555 25.6504 617.705 26.1055 617.705 26.6445C617.705 27.4336 617.432 28.0527 616.885 28.502C616.338 28.9512 615.645 29.1758 614.805 29.1758C613.938 29.1758 613.242 28.9512 612.719 28.502C612.199 28.0488 611.939 27.4688 611.939 26.7617Z" fill="#A2A2A2"/>
<rect x="599" y="34" width="32" height="32" fill="#F9F9F9"/>
<rect x="599" y="34" width="32" height="32" stroke="#525252"/>
<path d="M610.34 53.541C610.34 52.5254 610.74 51.7311 611.541 51.1582C612.348 50.5853 613.38 50.2988 614.637 50.2988H616.941V49.5664C616.941 48.9479 616.779 48.4499 616.453 48.0723C616.134 47.6947 615.59 47.5059 614.822 47.5059C614.048 47.5059 613.488 47.6654 613.143 47.9844C612.804 48.2969 612.635 48.6712 612.635 49.1074V49.1855H610.926V49.0879C610.926 48.2936 611.277 47.6035 611.98 47.0176C612.69 46.4251 613.65 46.1289 614.861 46.1289C616.066 46.1289 616.997 46.4154 617.654 46.9883C618.318 47.5547 618.65 48.4141 618.65 49.5664V54.1562C618.65 54.5794 618.683 54.9798 618.748 55.3574C618.813 55.7285 618.904 56.0573 619.021 56.3438V56.5H617.371C617.28 56.3372 617.195 56.1257 617.117 55.8652C617.046 55.6048 617 55.3444 616.98 55.084C616.74 55.5007 616.352 55.8717 615.818 56.1973C615.291 56.5228 614.607 56.6855 613.768 56.6855C612.804 56.6855 611.99 56.4154 611.326 55.875C610.669 55.3346 610.34 54.5566 610.34 53.541ZM612.049 53.4531C612.049 54.0391 612.218 54.4948 612.557 54.8203C612.902 55.1458 613.426 55.3086 614.129 55.3086C614.845 55.3086 615.493 55.0645 616.072 54.5762C616.652 54.0814 616.941 53.554 616.941 52.9941V51.5391H614.832C613.914 51.5391 613.221 51.7116 612.752 52.0566C612.283 52.4017 612.049 52.8672 612.049 53.4531Z" fill="#262626"/>
<path d="M647.801 29V26.668V26.3633V22.2383H647.73L645.088 26.0527H648.088H648.545H650.098V27.002H643.775V26.2285L647.836 20.4688H648.885V29H647.801Z" fill="#A2A2A2"/>
<rect x="631" y="34" width="32" height="32" fill="#F9F9F9"/>
<rect x="631" y="34" width="32" height="32" stroke="#525252"/>
<path d="M642.906 56.5V46.4121H644.459L644.527 47.7207H644.576C644.941 47.252 645.387 46.8841 645.914 46.6172C646.448 46.3503 647.04 46.2168 647.691 46.2168C648.701 46.2168 649.505 46.5033 650.104 47.0762C650.702 47.6491 651.002 48.6126 651.002 49.9668V56.5H649.293V49.957C649.293 49.1367 649.107 48.5508 648.736 48.1992C648.372 47.8411 647.851 47.6621 647.174 47.6621C646.601 47.6621 646.093 47.8184 645.65 48.1309C645.208 48.4434 644.863 48.8503 644.615 49.3516V56.5H642.906Z" fill="#262626"/>
<path d="M676.057 26.8496V26.791H677.164V26.8496C677.164 27.2754 677.318 27.6113 677.627 27.8574C677.939 28.1035 678.355 28.2266 678.875 28.2266C679.395 28.2266 679.82 28.0566 680.152 27.7168C680.484 27.373 680.65 26.8926 680.65 26.2754C680.65 25.6582 680.484 25.1875 680.152 24.8633C679.82 24.5391 679.395 24.377 678.875 24.377C678.52 24.377 678.205 24.4414 677.932 24.5703C677.658 24.6992 677.402 24.8809 677.164 25.1152L676.355 24.7285L676.789 20.4688H681.336V21.4941H677.727L677.475 23.8789C677.67 23.7578 677.902 23.6523 678.172 23.5625C678.445 23.4688 678.742 23.4219 679.062 23.4219C679.82 23.4219 680.463 23.6738 680.99 24.1777C681.521 24.6777 681.787 25.377 681.787 26.2754C681.787 27.1738 681.512 27.8828 680.961 28.4023C680.41 28.918 679.715 29.1758 678.875 29.1758C678 29.1758 677.311 28.9551 676.807 28.5137C676.307 28.0723 676.057 27.5176 676.057 26.8496Z" fill="#A2A2A2"/>
<rect x="663" y="34" width="32" height="32" fill="#F9F9F9"/>
<rect x="663" y="34" width="32" height="32" stroke="#525252"/>
<path d="M674.34 53.541C674.34 52.5254 674.74 51.7311 675.541 51.1582C676.348 50.5853 677.38 50.2988 678.637 50.2988H680.941V49.5664C680.941 48.9479 680.779 48.4499 680.453 48.0723C680.134 47.6947 679.59 47.5059 678.822 47.5059C678.048 47.5059 677.488 47.6654 677.143 47.9844C676.804 48.2969 676.635 48.6712 676.635 49.1074V49.1855H674.926V49.0879C674.926 48.2936 675.277 47.6035 675.98 47.0176C676.69 46.4251 677.65 46.1289 678.861 46.1289C680.066 46.1289 680.997 46.4154 681.654 46.9883C682.318 47.5547 682.65 48.4141 682.65 49.5664V54.1562C682.65 54.5794 682.683 54.9798 682.748 55.3574C682.813 55.7285 682.904 56.0573 683.021 56.3438V56.5H681.371C681.28 56.3372 681.195 56.1257 681.117 55.8652C681.046 55.6048 681 55.3444 680.98 55.084C680.74 55.5007 680.352 55.8717 679.818 56.1973C679.291 56.5228 678.607 56.6855 677.768 56.6855C676.804 56.6855 675.99 56.4154 675.326 55.875C674.669 55.3346 674.34 54.5566 674.34 53.541ZM676.049 53.4531C676.049 54.0391 676.218 54.4948 676.557 54.8203C676.902 55.1458 677.426 55.3086 678.129 55.3086C678.845 55.3086 679.493 55.0645 680.072 54.5762C680.652 54.0814 680.941 53.554 680.941 52.9941V51.5391H678.832C677.914 51.5391 677.221 51.7116 676.752 52.0566C676.283 52.4017 676.049 52.8672 676.049 53.4531Z" fill="#262626"/>
<g clip-path="url(#clip1_46_670)">
<path d="M384.121 26.2402V23.2285C384.121 22.3496 384.367 21.6406 384.859 21.1016C385.355 20.5625 386.043 20.293 386.922 20.293C387.793 20.293 388.479 20.5625 388.979 21.1016C389.479 21.6406 389.729 22.3496 389.729 23.2285V26.2402C389.729 27.123 389.479 27.834 388.979 28.373C388.479 28.9082 387.793 29.1758 386.922 29.1758C386.043 29.1758 385.355 28.9082 384.859 28.373C384.367 27.834 384.121 27.123 384.121 26.2402ZM385.281 26.2988C385.281 26.8574 385.414 27.3184 385.68 27.6816C385.949 28.041 386.363 28.2207 386.922 28.2207C387.48 28.2207 387.895 28.041 388.164 27.6816C388.434 27.3184 388.568 26.8574 388.568 26.2988V23.1699C388.568 22.6113 388.434 22.1523 388.164 21.793C387.895 21.4297 387.48 21.248 386.922 21.248C386.363 21.248 385.949 21.4297 385.68 21.793C385.414 22.1523 385.281 22.6113 385.281 23.1699V26.2988Z" fill="#A2A2A2"/>
<rect x="371" y="34" width="32" height="32" fill="#F9F9F9"/>
<rect x="371" y="34" width="32" height="32" stroke="#525252"/>
<path d="M382.906 56.5V46.4121H384.459L384.527 47.7207H384.576C384.941 47.252 385.387 46.8841 385.914 46.6172C386.448 46.3503 387.04 46.2168 387.691 46.2168C388.701 46.2168 389.505 46.5033 390.104 47.0762C390.702 47.6491 391.002 48.6126 391.002 49.9668V56.5H389.293V49.957C389.293 49.1367 389.107 48.5508 388.736 48.1992C388.372 47.8411 387.851 47.6621 387.174 47.6621C386.601 47.6621 386.093 47.8184 385.65 48.1309C385.208 48.4434 384.863 48.8503 384.615 49.3516V56.5H382.906Z" fill="#262626"/>
<path d="M418.693 29V21.7285L416.49 22.6367V21.5234L419.637 20.3516H419.842V29H418.693Z" fill="#A2A2A2"/>
<rect x="403" y="34" width="32" height="32" fill="#F9F9F9"/>
<rect x="403" y="34" width="32" height="32" stroke="#525252"/>
<path d="M414.34 53.541C414.34 52.5254 414.74 51.7311 415.541 51.1582C416.348 50.5853 417.38 50.2988 418.637 50.2988H420.941V49.5664C420.941 48.9479 420.779 48.4499 420.453 48.0723C420.134 47.6947 419.59 47.5059 418.822 47.5059C418.048 47.5059 417.488 47.6654 417.143 47.9844C416.804 48.2969 416.635 48.6712 416.635 49.1074V49.1855H414.926V49.0879C414.926 48.2936 415.277 47.6035 415.98 47.0176C416.69 46.4251 417.65 46.1289 418.861 46.1289C420.066 46.1289 420.997 46.4154 421.654 46.9883C422.318 47.5547 422.65 48.4141 422.65 49.5664V54.1562C422.65 54.5794 422.683 54.9798 422.748 55.3574C422.813 55.7285 422.904 56.0573 423.021 56.3438V56.5H421.371C421.28 56.3372 421.195 56.1257 421.117 55.8652C421.046 55.6048 421 55.3444 420.98 55.084C420.74 55.5007 420.352 55.8717 419.818 56.1973C419.291 56.5228 418.607 56.6855 417.768 56.6855C416.804 56.6855 415.99 56.4154 415.326 55.875C414.669 55.3346 414.34 54.5566 414.34 53.541ZM416.049 53.4531C416.049 54.0391 416.218 54.4948 416.557 54.8203C416.902 55.1458 417.426 55.3086 418.129 55.3086C418.845 55.3086 419.493 55.0645 420.072 54.5762C420.652 54.0814 420.941 53.554 420.941 52.9941V51.5391H418.832C417.914 51.5391 417.221 51.7116 416.752 52.0566C416.283 52.4017 416.049 52.8672 416.049 53.4531Z" fill="#262626"/>
<path d="M448.121 29V28.1445L451.244 24.8809C451.65 24.4629 451.959 24.0898 452.17 23.7617C452.385 23.4297 452.492 23.0703 452.492 22.6836C452.492 22.2969 452.357 21.9609 452.088 21.6758C451.818 21.3906 451.443 21.248 450.963 21.248C450.482 21.248 450.078 21.4023 449.75 21.7109C449.422 22.0156 449.258 22.4375 449.258 22.9766V23.0352H448.115V22.9766C448.115 22.1953 448.387 21.5527 448.93 21.0488C449.477 20.5449 450.154 20.293 450.963 20.293C451.764 20.293 452.408 20.5254 452.896 20.9902C453.389 21.4551 453.635 22 453.635 22.625C453.635 23.1836 453.477 23.6895 453.16 24.1426C452.844 24.5918 452.455 25.0508 451.994 25.5195L449.562 28.0156H453.869V29H448.121Z" fill="#A2A2A2"/>
<rect x="435" y="34" width="32" height="32" fill="#F9F9F9"/>
<rect x="435" y="34" width="32" height="32" stroke="#525252"/>
<path d="M446.906 56.5V46.4121H448.459L448.527 47.7207H448.576C448.941 47.252 449.387 46.8841 449.914 46.6172C450.448 46.3503 451.04 46.2168 451.691 46.2168C452.701 46.2168 453.505 46.5033 454.104 47.0762C454.702 47.6491 455.002 48.6126 455.002 49.9668V56.5H453.293V49.957C453.293 49.1367 453.107 48.5508 452.736 48.1992C452.372 47.8411 451.851 47.6621 451.174 47.6621C450.601 47.6621 450.093 47.8184 449.65 48.1309C449.208 48.4434 448.863 48.8503 448.615 49.3516V56.5H446.906Z" fill="#262626"/>
<path d="M479.939 26.7617V26.7031H481.059V26.7617C481.059 27.2266 481.217 27.5879 481.533 27.8457C481.854 28.0996 482.277 28.2266 482.805 28.2266C483.332 28.2266 483.754 28.0996 484.07 27.8457C484.387 27.5879 484.545 27.1875 484.545 26.6445C484.545 26.1055 484.367 25.6992 484.012 25.4258C483.656 25.1523 483.18 25.0156 482.582 25.0156H481.885V24.0898H482.523C483.074 24.0898 483.498 23.9609 483.795 23.7031C484.096 23.4453 484.246 23.084 484.246 22.6191C484.246 22.1582 484.115 21.8145 483.854 21.5879C483.596 21.3574 483.246 21.2422 482.805 21.2422C482.352 21.2422 481.986 21.3574 481.709 21.5879C481.436 21.8145 481.299 22.1406 481.299 22.5664V22.625H480.18V22.5664C480.18 21.9375 480.424 21.4023 480.912 20.9609C481.4 20.5156 482.031 20.293 482.805 20.293C483.566 20.293 484.189 20.5039 484.674 20.9258C485.158 21.3477 485.4 21.8926 485.4 22.5605C485.4 22.9512 485.291 23.3262 485.072 23.6855C484.854 24.041 484.514 24.3164 484.053 24.5117V24.5352C484.553 24.6602 484.953 24.9082 485.254 25.2793C485.555 25.6504 485.705 26.1055 485.705 26.6445C485.705 27.4336 485.432 28.0527 484.885 28.502C484.338 28.9512 483.645 29.1758 482.805 29.1758C481.938 29.1758 481.242 28.9512 480.719 28.502C480.199 28.0488 479.939 27.4688 479.939 26.7617Z" fill="#A2A2A2"/>
<rect x="467" y="34" width="32" height="32" fill="#F9F9F9"/>
<rect x="467" y="34" width="32" height="32" stroke="#525252"/>
<path d="M478.34 53.541C478.34 52.5254 478.74 51.7311 479.541 51.1582C480.348 50.5853 481.38 50.2988 482.637 50.2988H484.941V49.5664C484.941 48.9479 484.779 48.4499 484.453 48.0723C484.134 47.6947 483.59 47.5059 482.822 47.5059C482.048 47.5059 481.488 47.6654 481.143 47.9844C480.804 48.2969 480.635 48.6712 480.635 49.1074V49.1855H478.926V49.0879C478.926 48.2936 479.277 47.6035 479.98 47.0176C480.69 46.4251 481.65 46.1289 482.861 46.1289C484.066 46.1289 484.997 46.4154 485.654 46.9883C486.318 47.5547 486.65 48.4141 486.65 49.5664V54.1562C486.65 54.5794 486.683 54.9798 486.748 55.3574C486.813 55.7285 486.904 56.0573 487.021 56.3438V56.5H485.371C485.28 56.3372 485.195 56.1257 485.117 55.8652C485.046 55.6048 485 55.3444 484.98 55.084C484.74 55.5007 484.352 55.8717 483.818 56.1973C483.291 56.5228 482.607 56.6855 481.768 56.6855C480.804 56.6855 479.99 56.4154 479.326 55.875C478.669 55.3346 478.34 54.5566 478.34 53.541ZM480.049 53.4531C480.049 54.0391 480.218 54.4948 480.557 54.8203C480.902 55.1458 481.426 55.3086 482.129 55.3086C482.845 55.3086 483.493 55.0645 484.072 54.5762C484.652 54.0814 484.941 53.554 484.941 52.9941V51.5391H482.832C481.914 51.5391 481.221 51.7116 480.752 52.0566C480.283 52.4017 480.049 52.8672 480.049 53.4531Z" fill="#262626"/>
</g>
<rect x="370.5" y="15.5" width="129" height="51" stroke="#9233E9"/>
<rect x="16" y="16" width="16" height="16" rx="4" fill="#4F46E4"/>
<rect x="16" y="36" width="16" height="16" rx="4" fill="#9233E9"/>
<path d="M24.7071 59.2929C24.3166 58.9024 23.6834 58.9024 23.2929 59.2929L16.9289 65.6569C16.5384 66.0474 16.5384 66.6805 16.9289 67.0711C17.3195 67.4616 17.9526 67.4616 18.3431 67.0711L24 61.4142L29.6569 67.0711C30.0474 67.4616 30.6805 67.4616 31.0711 67.0711C31.4616 66.6805 31.4616 66.0474 31.0711 65.6569L24.7071 59.2929ZM25 80L25 60L23 60L23 80L25 80Z" fill="#525252"/>
<path d="M386.707 72.2929C386.317 71.9024 385.683 71.9024 385.293 72.2929L378.929 78.6569C378.538 79.0474 378.538 79.6805 378.929 80.0711C379.319 80.4616 379.953 80.4616 380.343 80.0711L386 74.4142L391.657 80.0711C392.047 80.4616 392.681 80.4616 393.071 80.0711C393.462 79.6805 393.462 79.0474 393.071 78.6569L386.707 72.2929ZM387 93L387 73L385 73L385 93L387 93Z" fill="#525252"/>
<path d="M39.9375 28V19.4688H42.8262C43.998 19.4688 44.9785 19.8242 45.7676 20.5352C46.5605 21.2461 46.957 22.2266 46.957 23.4766V23.9922C46.957 25.2422 46.5605 26.2227 45.7676 26.9336C44.9785 27.6445 43.998 28 42.8262 28H39.9375ZM41.6719 26.7109H42.8086C43.5195 26.7109 44.0918 26.4805 44.5254 26.0195C44.959 25.5547 45.1758 24.8867 45.1758 24.0156V23.4531C45.1758 22.582 44.959 21.916 44.5254 21.4551C44.0918 20.9941 43.5195 20.7637 42.8086 20.7637H41.6719V26.7109ZM48.3926 28V21.7246H50.0859V28H48.3926ZM48.2461 20.0137C48.2461 19.7598 48.332 19.5469 48.5039 19.375C48.6758 19.2031 48.9199 19.1172 49.2363 19.1172C49.5566 19.1172 49.8008 19.2031 49.9688 19.375C50.1406 19.5469 50.2266 19.7598 50.2266 20.0137C50.2266 20.2715 50.1406 20.4863 49.9688 20.6582C49.8008 20.8301 49.5566 20.916 49.2363 20.916C48.9199 20.916 48.6758 20.8301 48.5039 20.6582C48.332 20.4863 48.2461 20.2715 48.2461 20.0137ZM51.3574 24.9531V24.7656C51.3574 23.793 51.6465 23.0137 52.2246 22.4277C52.8066 21.8418 53.5859 21.5488 54.5625 21.5488C55.4844 21.5488 56.1855 21.7773 56.666 22.2344C57.1504 22.6875 57.4043 23.2168 57.4277 23.8223L57.4336 23.9043H55.7754V23.8457C55.7754 23.5527 55.6738 23.3047 55.4707 23.1016C55.2715 22.8945 54.9648 22.791 54.5508 22.791C54.0625 22.791 53.6953 22.9688 53.4492 23.3242C53.207 23.6758 53.0859 24.1348 53.0859 24.7012V25.0176C53.0859 25.584 53.2051 26.0449 53.4434 26.4004C53.6816 26.7559 54.0488 26.9336 54.5449 26.9336C54.9863 26.9336 55.3008 26.8281 55.4883 26.6172C55.6797 26.4023 55.7754 26.1543 55.7754 25.873V25.8203H57.4277V25.8789C57.4277 26.4844 57.1797 27.0195 56.6836 27.4844C56.1914 27.9453 55.4844 28.1758 54.5625 28.1758C53.5859 28.1758 52.8066 27.8828 52.2246 27.2969C51.6465 26.7109 51.3574 25.9297 51.3574 24.9531ZM58.5879 28V21.7246H60.2812V28H58.5879ZM58.4414 20.0137C58.4414 19.7598 58.5273 19.5469 58.6992 19.375C58.8711 19.2031 59.1152 19.1172 59.4316 19.1172C59.752 19.1172 59.9961 19.2031 60.1641 19.375C60.3359 19.5469 60.4219 19.7598 60.4219 20.0137C60.4219 20.2715 60.3359 20.4863 60.1641 20.6582C59.9961 20.8301 59.752 20.916 59.4316 20.916C59.1152 20.916 58.8711 20.8301 58.6992 20.6582C58.5273 20.4863 58.4414 20.2715 58.4414 20.0137ZM61.5527 24.9531V24.7656C61.5527 23.793 61.8516 23.0137 62.4492 22.4277C63.0469 21.8418 63.8301 21.5488 64.7988 21.5488C65.7715 21.5488 66.5566 21.8418 67.1543 22.4277C67.752 23.0137 68.0508 23.793 68.0508 24.7656V24.9531C68.0508 25.9258 67.752 26.707 67.1543 27.2969C66.5566 27.8828 65.7715 28.1758 64.7988 28.1758C63.8301 28.1758 63.0469 27.8828 62.4492 27.2969C61.8516 26.707 61.5527 25.9258 61.5527 24.9531ZM63.2812 24.7012V25.0176C63.2812 25.6035 63.4121 26.0645 63.6738 26.4004C63.9355 26.7363 64.3105 26.9043 64.7988 26.9043C65.291 26.9043 65.666 26.7363 65.9238 26.4004C66.1855 26.0645 66.3164 25.6035 66.3164 25.0176V24.7012C66.3164 24.1191 66.1836 23.6602 65.918 23.3242C65.6562 22.9883 65.2832 22.8203 64.7988 22.8203C64.3145 22.8203 63.9395 22.9883 63.6738 23.3242C63.4121 23.6602 63.2812 24.1191 63.2812 24.7012ZM69.3047 28V21.7246H70.8984L70.9395 22.4512H70.9746C71.1543 22.1934 71.4062 21.9883 71.7305 21.8359C72.0586 21.6797 72.418 21.6016 72.8086 21.6016C73.4688 21.6016 74.0039 21.7891 74.4141 22.1641C74.8242 22.5352 75.0293 23.1797 75.0293 24.0977V28H73.3418V24.0566C73.3418 23.6309 73.25 23.3301 73.0664 23.1543C72.8828 22.9785 72.623 22.8906 72.2871 22.8906C72.0098 22.8906 71.7559 22.9707 71.5254 23.1309C71.2949 23.2871 71.1172 23.502 70.9922 23.7754V28H69.3047ZM76.248 26.1543C76.248 25.4707 76.5234 24.9531 77.0742 24.6016C77.625 24.2461 78.3184 24.0664 79.1543 24.0625H80.4023V23.6699C80.4023 23.3809 80.3223 23.1484 80.1621 22.9727C80.0059 22.793 79.7324 22.7031 79.3418 22.7031C78.9512 22.7031 78.6719 22.7812 78.5039 22.9375C78.3398 23.0898 78.2578 23.2734 78.2578 23.4883V23.5586H76.582V23.4883C76.582 22.9414 76.8398 22.4824 77.3555 22.1113C77.875 21.7363 78.5566 21.5488 79.4004 21.5488C80.2441 21.5488 80.9043 21.7246 81.3809 22.0762C81.8574 22.4238 82.0957 22.957 82.0957 23.6758V26.6055C82.0957 26.8594 82.1172 27.0996 82.1602 27.3262C82.2031 27.5488 82.2617 27.7422 82.3359 27.9062V28H80.6777C80.6309 27.9062 80.5879 27.7852 80.5488 27.6367C80.5098 27.4844 80.4824 27.3359 80.4668 27.1914C80.3418 27.4336 80.1055 27.6484 79.7578 27.8359C79.4141 28.0234 78.9844 28.1172 78.4688 28.1172C77.8477 28.1172 77.3223 27.9531 76.8926 27.625C76.4629 27.293 76.248 26.8027 76.248 26.1543ZM77.9414 26.0312C77.9414 26.3164 78.0254 26.543 78.1934 26.7109C78.3613 26.8789 78.625 26.9629 78.9844 26.9629C79.3711 26.9629 79.7031 26.8418 79.9805 26.5996C80.2617 26.3535 80.4023 26.0723 80.4023 25.7559V25.0938H79.3535C78.8809 25.0938 78.5273 25.1777 78.293 25.3457C78.0586 25.5098 77.9414 25.7383 77.9414 26.0312ZM78.1055 20.0488L79.6055 18.1152L80.8828 18.9883L79.0254 20.7344L78.1055 20.0488ZM83.7305 28V21.7246H85.3301L85.3711 22.4277H85.4004C85.5332 22.1934 85.7129 21.9902 85.9395 21.8184C86.1699 21.6426 86.4336 21.5547 86.7305 21.5547C86.8125 21.5547 86.8965 21.5645 86.9824 21.584C87.0684 21.6035 87.1289 21.6211 87.1641 21.6367V23.0898C87.0938 23.0742 87.0176 23.0625 86.9355 23.0547C86.8574 23.043 86.7715 23.0371 86.6777 23.0371C86.3848 23.0371 86.127 23.1211 85.9043 23.2891C85.6855 23.4531 85.5254 23.6582 85.4238 23.9043V28H83.7305ZM88.1777 28V21.7246H89.8711V28H88.1777ZM88.0312 20.0137C88.0312 19.7598 88.1172 19.5469 88.2891 19.375C88.4609 19.2031 88.7051 19.1172 89.0215 19.1172C89.3418 19.1172 89.5859 19.2031 89.7539 19.375C89.9258 19.5469 90.0117 19.7598 90.0117 20.0137C90.0117 20.2715 89.9258 20.4863 89.7539 20.6582C89.5859 20.8301 89.3418 20.916 89.0215 20.916C88.7051 20.916 88.4609 20.8301 88.2891 20.6582C88.1172 20.4863 88.0312 20.2715 88.0312 20.0137ZM91.1426 24.9531V24.7656C91.1426 23.793 91.4414 23.0137 92.0391 22.4277C92.6367 21.8418 93.4199 21.5488 94.3887 21.5488C95.3613 21.5488 96.1465 21.8418 96.7441 22.4277C97.3418 23.0137 97.6406 23.793 97.6406 24.7656V24.9531C97.6406 25.9258 97.3418 26.707 96.7441 27.2969C96.1465 27.8828 95.3613 28.1758 94.3887 28.1758C93.4199 28.1758 92.6367 27.8828 92.0391 27.2969C91.4414 26.707 91.1426 25.9258 91.1426 24.9531ZM92.8711 24.7012V25.0176C92.8711 25.6035 93.002 26.0645 93.2637 26.4004C93.5254 26.7363 93.9004 26.9043 94.3887 26.9043C94.8809 26.9043 95.2559 26.7363 95.5137 26.4004C95.7754 26.0645 95.9062 25.6035 95.9062 25.0176V24.7012C95.9062 24.1191 95.7734 23.6602 95.5078 23.3242C95.2461 22.9883 94.873 22.8203 94.3887 22.8203C93.9043 22.8203 93.5293 22.9883 93.2637 23.3242C93.002 23.6602 92.8711 24.1191 92.8711 24.7012Z" fill="#4F46E4"/>
<path d="M39.9375 48V39.4688H43.1309C44.0957 39.4688 44.8535 39.6523 45.4043 40.0195C45.9551 40.3828 46.2305 40.9512 46.2305 41.7246C46.2305 42.1934 46.1191 42.5781 45.8965 42.8789C45.6777 43.1797 45.4043 43.3867 45.0762 43.5V43.5234C45.4785 43.6406 45.8086 43.8691 46.0664 44.209C46.3281 44.5449 46.459 44.9883 46.459 45.5391C46.459 46.3203 46.1699 46.9258 45.5918 47.3555C45.0137 47.7852 44.252 48 43.3066 48H39.9375ZM41.666 46.7695H43.2773C43.7773 46.7695 44.1426 46.6523 44.373 46.418C44.6074 46.1797 44.7246 45.8594 44.7246 45.457C44.7246 45.0586 44.6074 44.7422 44.373 44.5078C44.1426 44.2734 43.7773 44.1562 43.2773 44.1562H41.666V46.7695ZM41.666 42.9844H43.1074C43.6035 42.9844 43.959 42.8828 44.1738 42.6797C44.3926 42.4766 44.502 42.1953 44.502 41.8359C44.502 41.4727 44.3926 41.1934 44.1738 40.998C43.9551 40.8027 43.5996 40.7051 43.1074 40.7051H41.666V42.9844ZM47.7422 45.5625V41.7246H49.4297V45.6035C49.4297 46.0566 49.5234 46.375 49.7109 46.5586C49.8984 46.7422 50.1562 46.834 50.4844 46.834C50.7734 46.834 51.0312 46.752 51.2578 46.5879C51.4844 46.4199 51.6582 46.209 51.7793 45.9551V41.7246H53.4668V48H51.873L51.8262 47.2734H51.7969C51.6016 47.5391 51.3398 47.7461 51.0117 47.8945C50.6836 48.043 50.3223 48.1172 49.9277 48.1172C49.2793 48.1172 48.752 47.9219 48.3457 47.5312C47.9434 47.1367 47.7422 46.4805 47.7422 45.5625ZM55.2832 48V41.2969C55.2832 40.5039 55.5078 39.9062 55.957 39.5039C56.4102 39.1016 56.998 38.9004 57.7207 38.9004C57.8613 38.9004 57.998 38.9082 58.1309 38.9238C58.2676 38.9395 58.3926 38.9629 58.5059 38.9941L58.4531 40.2246C58.375 40.209 58.291 40.1953 58.2012 40.1836C58.1113 40.1719 58.0176 40.166 57.9199 40.166C57.623 40.166 57.3906 40.2617 57.2227 40.4531C57.0547 40.6445 56.9707 40.9336 56.9707 41.3203V42.2402V42.3691V48H55.2832ZM54.4102 42.9434V41.7246H55.9453H56.1855H58.1426V42.9434H54.4102ZM59.1035 48V41.2969C59.1035 40.5039 59.3281 39.9062 59.7773 39.5039C60.2305 39.1016 60.8184 38.9004 61.541 38.9004C61.6816 38.9004 61.8184 38.9082 61.9512 38.9238C62.0879 38.9395 62.2129 38.9629 62.3262 38.9941L62.2734 40.2246C62.1953 40.209 62.1113 40.1953 62.0215 40.1836C61.9316 40.1719 61.8379 40.166 61.7402 40.166C61.4434 40.166 61.2109 40.2617 61.043 40.4531C60.875 40.6445 60.791 40.9336 60.791 41.3203V42.2402V42.3691V48H59.1035ZM58.2305 42.9434V41.7246H59.7656H60.0059H61.9629V42.9434H58.2305ZM62.3262 44.9531V44.7656C62.3262 43.8047 62.6172 43.0293 63.1992 42.4395C63.7812 41.8457 64.5312 41.5488 65.4492 41.5488C66.375 41.5488 67.0977 41.8262 67.6172 42.3809C68.1406 42.9355 68.4023 43.6973 68.4023 44.666V45.2754H63.4863V44.1914H66.7207V44.0859C66.7168 43.7344 66.6094 43.4258 66.3984 43.1602C66.1875 42.8945 65.8672 42.7617 65.4375 42.7617C64.9766 42.7617 64.623 42.9414 64.377 43.3008C64.1309 43.6562 64.0078 44.125 64.0078 44.707V45.0117C64.0078 45.5859 64.1387 46.0527 64.4004 46.4121C64.666 46.7676 65.0605 46.9453 65.584 46.9453C65.9316 46.9453 66.2344 46.8613 66.4922 46.6934C66.75 46.5254 66.959 46.332 67.1191 46.1133L68.2793 46.9102C68.0801 47.2617 67.7441 47.5605 67.2715 47.8066C66.8027 48.0527 66.2461 48.1758 65.6016 48.1758C64.5703 48.1758 63.7656 47.8809 63.1875 47.291C62.6133 46.6973 62.3262 45.918 62.3262 44.9531ZM69.5625 48V41.7246H71.1621L71.2031 42.4277H71.2324C71.3652 42.1934 71.5449 41.9902 71.7715 41.8184C72.002 41.6426 72.2656 41.5547 72.5625 41.5547C72.6445 41.5547 72.7285 41.5645 72.8145 41.584C72.9004 41.6035 72.9609 41.6211 72.9961 41.6367V43.0898C72.9258 43.0742 72.8496 43.0625 72.7676 43.0547C72.6895 43.043 72.6035 43.0371 72.5098 43.0371C72.2168 43.0371 71.959 43.1211 71.7363 43.2891C71.5176 43.4531 71.3574 43.6582 71.2559 43.9043V48H69.5625Z" fill="#9233E9"/>
<path d="M39.9375 74V65.4688H43.1836C44.2031 65.4688 44.9883 65.709 45.5391 66.1895C46.0898 66.6699 46.3652 67.3418 46.3652 68.2051C46.3652 69.0684 46.0898 69.7461 45.5391 70.2383C44.9922 70.7266 44.207 70.9707 43.1836 70.9707H41.6777V74H39.9375ZM41.6777 69.6758H43.0723C43.6504 69.6758 44.0527 69.543 44.2793 69.2773C44.5059 69.0078 44.6191 68.6523 44.6191 68.2109C44.6191 67.7695 44.5059 67.418 44.2793 67.1562C44.0527 66.8945 43.6504 66.7637 43.0723 66.7637H41.6777V69.6758ZM47.1035 70.9531V70.7656C47.1035 69.793 47.4023 69.0137 48 68.4277C48.5977 67.8418 49.3809 67.5488 50.3496 67.5488C51.3223 67.5488 52.1074 67.8418 52.7051 68.4277C53.3027 69.0137 53.6016 69.793 53.6016 70.7656V70.9531C53.6016 71.9258 53.3027 72.707 52.7051 73.2969C52.1074 73.8828 51.3223 74.1758 50.3496 74.1758C49.3809 74.1758 48.5977 73.8828 48 73.2969C47.4023 72.707 47.1035 71.9258 47.1035 70.9531ZM48.832 70.7012V71.0176C48.832 71.6035 48.9629 72.0645 49.2246 72.4004C49.4863 72.7363 49.8613 72.9043 50.3496 72.9043C50.8418 72.9043 51.2168 72.7363 51.4746 72.4004C51.7363 72.0645 51.8672 71.6035 51.8672 71.0176V70.7012C51.8672 70.1191 51.7344 69.6602 51.4688 69.3242C51.207 68.9883 50.834 68.8203 50.3496 68.8203C49.8652 68.8203 49.4902 68.9883 49.2246 69.3242C48.9629 69.6602 48.832 70.1191 48.832 70.7012ZM54.8555 74V67.7246H56.4492L56.4902 68.4512H56.5254C56.7051 68.1934 56.957 67.9883 57.2812 67.8359C57.6094 67.6797 57.9688 67.6016 58.3594 67.6016C59.0195 67.6016 59.5547 67.7891 59.9648 68.1641C60.375 68.5352 60.5801 69.1797 60.5801 70.0977V74H58.8926V70.0566C58.8926 69.6309 58.8008 69.3301 58.6172 69.1543C58.4336 68.9785 58.1738 68.8906 57.8379 68.8906C57.5605 68.8906 57.3066 68.9707 57.0762 69.1309C56.8457 69.2871 56.668 69.502 56.543 69.7754V74H54.8555ZM61.3242 68.9434V67.7246H65.1855V68.9434H61.3242ZM62.2969 72.1836V68.3809L62.3027 68.2109V66.3477H63.9844V72.1602C63.9844 72.4375 64.0371 72.6328 64.1426 72.7461C64.248 72.8555 64.3984 72.9102 64.5938 72.9102C64.6914 72.9102 64.7871 72.8984 64.8809 72.875C64.9746 72.8516 65.0664 72.8223 65.1562 72.7871V73.9941C65.0625 74.041 64.9336 74.082 64.7695 74.1172C64.6055 74.1562 64.4277 74.1758 64.2363 74.1758C63.6504 74.1758 63.1797 74.0156 62.8242 73.6953C62.4727 73.375 62.2969 72.8711 62.2969 72.1836ZM65.9004 70.9531V70.7656C65.9004 69.8047 66.1914 69.0293 66.7734 68.4395C67.3555 67.8457 68.1055 67.5488 69.0234 67.5488C69.9492 67.5488 70.6719 67.8262 71.1914 68.3809C71.7148 68.9355 71.9766 69.6973 71.9766 70.666V71.2754H67.0605V70.1914H70.2949V70.0859C70.291 69.7344 70.1836 69.4258 69.9727 69.1602C69.7617 68.8945 69.4414 68.7617 69.0117 68.7617C68.5508 68.7617 68.1973 68.9414 67.9512 69.3008C67.7051 69.6562 67.582 70.125 67.582 70.707V71.0117C67.582 71.5859 67.7129 72.0527 67.9746 72.4121C68.2402 72.7676 68.6348 72.9453 69.1582 72.9453C69.5059 72.9453 69.8086 72.8613 70.0664 72.6934C70.3242 72.5254 70.5332 72.332 70.6934 72.1133L71.8535 72.9102C71.6543 73.2617 71.3184 73.5605 70.8457 73.8066C70.377 74.0527 69.8203 74.1758 69.1758 74.1758C68.1445 74.1758 67.3398 73.8809 66.7617 73.291C66.1875 72.6973 65.9004 71.918 65.9004 70.9531ZM73.166 74V67.7246H74.8594V74H73.166ZM73.0195 66.0137C73.0195 65.7598 73.1055 65.5469 73.2773 65.375C73.4492 65.2031 73.6934 65.1172 74.0098 65.1172C74.3301 65.1172 74.5742 65.2031 74.7422 65.375C74.9141 65.5469 75 65.7598 75 66.0137C75 66.2715 74.9141 66.4863 74.7422 66.6582C74.5742 66.8301 74.3301 66.916 74.0098 66.916C73.6934 66.916 73.4492 66.8301 73.2773 66.6582C73.1055 66.4863 73.0195 66.2715 73.0195 66.0137ZM76.4766 74V67.7246H78.0762L78.1172 68.4277H78.1465C78.2793 68.1934 78.459 67.9902 78.6855 67.8184C78.916 67.6426 79.1797 67.5547 79.4766 67.5547C79.5586 67.5547 79.6426 67.5645 79.7285 67.584C79.8145 67.6035 79.875 67.6211 79.9102 67.6367V69.0898C79.8398 69.0742 79.7637 69.0625 79.6816 69.0547C79.6035 69.043 79.5176 69.0371 79.4238 69.0371C79.1309 69.0371 78.873 69.1211 78.6504 69.2891C78.4316 69.4531 78.2715 69.6582 78.1699 69.9043V74H76.4766ZM80.4316 70.9531V70.7656C80.4316 69.793 80.7305 69.0137 81.3281 68.4277C81.9258 67.8418 82.709 67.5488 83.6777 67.5488C84.6504 67.5488 85.4355 67.8418 86.0332 68.4277C86.6309 69.0137 86.9297 69.793 86.9297 70.7656V70.9531C86.9297 71.9258 86.6309 72.707 86.0332 73.2969C85.4355 73.8828 84.6504 74.1758 83.6777 74.1758C82.709 74.1758 81.9258 73.8828 81.3281 73.2969C80.7305 72.707 80.4316 71.9258 80.4316 70.9531ZM82.1602 70.7012V71.0176C82.1602 71.6035 82.291 72.0645 82.5527 72.4004C82.8145 72.7363 83.1895 72.9043 83.6777 72.9043C84.1699 72.9043 84.5449 72.7363 84.8027 72.4004C85.0645 72.0645 85.1953 71.6035 85.1953 71.0176V70.7012C85.1953 70.1191 85.0625 69.6602 84.7969 69.3242C84.5352 68.9883 84.1621 68.8203 83.6777 68.8203C83.1934 68.8203 82.8184 68.9883 82.5527 69.3242C82.291 69.6602 82.1602 70.1191 82.1602 70.7012Z" fill="#525252"/>
<path d="M190.945 138.812L182.977 135.102V133.773L190.945 130.062V131.82L185.018 134.389L190.945 136.967V138.812ZM193.035 136.547V131.234C193.035 129.796 193.426 128.646 194.207 127.787C194.995 126.928 196.085 126.498 197.479 126.498C198.859 126.498 199.943 126.928 200.73 127.787C201.525 128.646 201.922 129.796 201.922 131.234V136.547C201.922 137.986 201.525 139.135 200.73 139.994C199.943 140.854 198.859 141.283 197.479 141.283C196.085 141.277 194.995 140.847 194.207 139.994C193.426 139.135 193.035 137.986 193.035 136.547ZM194.812 136.645C194.812 137.582 195.031 138.347 195.467 138.939C195.903 139.525 196.574 139.818 197.479 139.818C198.377 139.818 199.044 139.525 199.48 138.939C199.917 138.347 200.135 137.582 200.135 136.645V131.137C200.135 130.199 199.917 129.438 199.48 128.852C199.044 128.259 198.377 127.963 197.479 127.963C196.574 127.963 195.903 128.259 195.467 128.852C195.031 129.438 194.812 130.199 194.812 131.137V136.645ZM204.08 143.031C204.38 142.634 204.611 142.227 204.773 141.811C204.936 141.394 205.018 140.906 205.018 140.346V138.939H206.678V140.346C206.678 141.029 206.531 141.654 206.238 142.221C205.945 142.787 205.555 143.282 205.066 143.705L204.08 143.031ZM209.578 136.547V131.234C209.578 129.796 209.969 128.646 210.75 127.787C211.538 126.928 212.628 126.498 214.021 126.498C215.402 126.498 216.486 126.928 217.273 127.787C218.068 128.646 218.465 129.796 218.465 131.234V136.547C218.465 137.986 218.068 139.135 217.273 139.994C216.486 140.854 215.402 141.283 214.021 141.283C212.628 141.277 211.538 140.847 210.75 139.994C209.969 139.135 209.578 137.986 209.578 136.547ZM211.355 136.645C211.355 137.582 211.574 138.347 212.01 138.939C212.446 139.525 213.117 139.818 214.021 139.818C214.92 139.818 215.587 139.525 216.023 138.939C216.46 138.347 216.678 137.582 216.678 136.645V131.137C216.678 130.199 216.46 129.438 216.023 128.852C215.587 128.259 214.92 127.963 214.021 127.963C213.117 127.963 212.446 128.259 212.01 128.852C211.574 129.438 211.355 130.199 211.355 131.137V136.645ZM220.623 143.031C220.923 142.634 221.154 142.227 221.316 141.811C221.479 141.394 221.561 140.906 221.561 140.346V138.939H223.221V140.346C223.221 141.029 223.074 141.654 222.781 142.221C222.488 142.787 222.098 143.282 221.609 143.705L220.623 143.031ZM226.697 141V126.781H231.248C232.641 126.781 233.735 127.084 234.529 127.689C235.33 128.288 235.73 129.232 235.73 130.521C235.73 131.309 235.535 131.954 235.145 132.455C234.76 132.95 234.279 133.298 233.699 133.5V133.539C234.409 133.741 234.988 134.128 235.438 134.701C235.887 135.268 236.111 136.01 236.111 136.928C236.111 138.223 235.695 139.226 234.861 139.936C234.028 140.645 232.921 141 231.541 141H226.697ZM228.426 139.535H231.541C232.511 139.535 233.221 139.301 233.67 138.832C234.126 138.363 234.354 137.729 234.354 136.928C234.354 136.127 234.126 135.492 233.67 135.023C233.221 134.555 232.511 134.32 231.541 134.32H228.426V139.535ZM228.426 132.875H231.248C232.218 132.875 232.915 132.67 233.338 132.26C233.768 131.843 233.982 131.267 233.982 130.531C233.982 129.789 233.768 129.223 233.338 128.832C232.915 128.441 232.218 128.246 231.248 128.246H228.426V132.875ZM238.094 138.812V137.045L244.021 134.477L238.094 131.908V130.062L246.062 133.773V135.102L238.094 138.812ZM248.162 143.031C248.462 142.634 248.693 142.227 248.855 141.811C249.018 141.394 249.1 140.906 249.1 140.346V138.939H250.76V140.346C250.76 141.029 250.613 141.654 250.32 142.221C250.027 142.787 249.637 143.282 249.148 143.705L248.162 143.031ZM261.57 138.812L253.602 135.102V133.773L261.57 130.062V131.82L255.643 134.389L261.57 136.967V138.812ZM263.66 136.547V131.234C263.66 129.796 264.051 128.646 264.832 127.787C265.62 126.928 266.71 126.498 268.104 126.498C269.484 126.498 270.568 126.928 271.355 127.787C272.15 128.646 272.547 129.796 272.547 131.234V136.547C272.547 137.986 272.15 139.135 271.355 139.994C270.568 140.854 269.484 141.283 268.104 141.283C266.71 141.277 265.62 140.847 264.832 139.994C264.051 139.135 263.66 137.986 263.66 136.547ZM265.438 136.645C265.438 137.582 265.656 138.347 266.092 138.939C266.528 139.525 267.199 139.818 268.104 139.818C269.002 139.818 269.669 139.525 270.105 138.939C270.542 138.347 270.76 137.582 270.76 136.645V131.137C270.76 130.199 270.542 129.438 270.105 128.852C269.669 128.259 269.002 127.963 268.104 127.963C267.199 127.963 266.528 128.259 266.092 128.852C265.656 129.438 265.438 130.199 265.438 131.137V136.645ZM274.705 143.031C275.005 142.634 275.236 142.227 275.398 141.811C275.561 141.394 275.643 140.906 275.643 140.346V138.939H277.303V140.346C277.303 141.029 277.156 141.654 276.863 142.221C276.57 142.787 276.18 143.282 275.691 143.705L274.705 143.031ZM280.203 136.547V131.234C280.203 129.796 280.594 128.646 281.375 127.787C282.163 126.928 283.253 126.498 284.646 126.498C286.027 126.498 287.111 126.928 287.898 127.787C288.693 128.646 289.09 129.796 289.09 131.234V136.547C289.09 137.986 288.693 139.135 287.898 139.994C287.111 140.854 286.027 141.283 284.646 141.283C283.253 141.277 282.163 140.847 281.375 139.994C280.594 139.135 280.203 137.986 280.203 136.547ZM281.98 136.645C281.98 137.582 282.199 138.347 282.635 138.939C283.071 139.525 283.742 139.818 284.646 139.818C285.545 139.818 286.212 139.525 286.648 138.939C287.085 138.347 287.303 137.582 287.303 136.645V131.137C287.303 130.199 287.085 129.438 286.648 128.852C286.212 128.259 285.545 127.963 284.646 127.963C283.742 127.963 283.071 128.259 282.635 128.852C282.199 129.438 281.98 130.199 281.98 131.137V136.645ZM291.248 143.031C291.548 142.634 291.779 142.227 291.941 141.811C292.104 141.394 292.186 140.906 292.186 140.346V138.939H293.846V140.346C293.846 141.029 293.699 141.654 293.406 142.221C293.113 142.787 292.723 143.282 292.234 143.705L291.248 143.031ZM296.551 138.041C296.551 137.025 296.951 136.231 297.752 135.658C298.559 135.085 299.591 134.799 300.848 134.799H303.152V134.066C303.152 133.448 302.99 132.95 302.664 132.572C302.345 132.195 301.801 132.006 301.033 132.006C300.258 132.006 299.699 132.165 299.354 132.484C299.015 132.797 298.846 133.171 298.846 133.607V133.686H297.137V133.588C297.137 132.794 297.488 132.104 298.191 131.518C298.901 130.925 299.861 130.629 301.072 130.629C302.277 130.629 303.208 130.915 303.865 131.488C304.529 132.055 304.861 132.914 304.861 134.066V138.656C304.861 139.079 304.894 139.48 304.959 139.857C305.024 140.229 305.115 140.557 305.232 140.844V141H303.582C303.491 140.837 303.406 140.626 303.328 140.365C303.257 140.105 303.211 139.844 303.191 139.584C302.951 140.001 302.563 140.372 302.029 140.697C301.502 141.023 300.818 141.186 299.979 141.186C299.015 141.186 298.201 140.915 297.537 140.375C296.88 139.835 296.551 139.057 296.551 138.041ZM298.26 137.953C298.26 138.539 298.429 138.995 298.768 139.32C299.113 139.646 299.637 139.809 300.34 139.809C301.056 139.809 301.704 139.564 302.283 139.076C302.863 138.581 303.152 138.054 303.152 137.494V136.039H301.043C300.125 136.039 299.432 136.212 298.963 136.557C298.494 136.902 298.26 137.367 298.26 137.953ZM307.273 138.812V137.045L313.201 134.477L307.273 131.908V130.062L315.242 133.773V135.102L307.273 138.812ZM317.342 143.031C317.641 142.634 317.872 142.227 318.035 141.811C318.198 141.394 318.279 140.906 318.279 140.346V138.939H319.939V140.346C319.939 141.029 319.793 141.654 319.5 142.221C319.207 142.787 318.816 143.282 318.328 143.705L317.342 143.031ZM330.75 138.812L322.781 135.102V133.773L330.75 130.062V131.82L324.822 134.389L330.75 136.967V138.812ZM332.84 136.547V131.234C332.84 129.796 333.23 128.646 334.012 127.787C334.799 126.928 335.89 126.498 337.283 126.498C338.663 126.498 339.747 126.928 340.535 127.787C341.329 128.646 341.727 129.796 341.727 131.234V136.547C341.727 137.986 341.329 139.135 340.535 139.994C339.747 140.854 338.663 141.283 337.283 141.283C335.89 141.277 334.799 140.847 334.012 139.994C333.23 139.135 332.84 137.986 332.84 136.547ZM334.617 136.645C334.617 137.582 334.835 138.347 335.271 138.939C335.708 139.525 336.378 139.818 337.283 139.818C338.182 139.818 338.849 139.525 339.285 138.939C339.721 138.347 339.939 137.582 339.939 136.645V131.137C339.939 130.199 339.721 129.438 339.285 128.852C338.849 128.259 338.182 127.963 337.283 127.963C336.378 127.963 335.708 128.259 335.271 128.852C334.835 129.438 334.617 130.199 334.617 131.137V136.645ZM343.885 143.031C344.184 142.634 344.415 142.227 344.578 141.811C344.741 141.394 344.822 140.906 344.822 140.346V138.939H346.482V140.346C346.482 141.029 346.336 141.654 346.043 142.221C345.75 142.787 345.359 143.282 344.871 143.705L343.885 143.031ZM349.383 136.547V131.234C349.383 129.796 349.773 128.646 350.555 127.787C351.342 126.928 352.433 126.498 353.826 126.498C355.206 126.498 356.29 126.928 357.078 127.787C357.872 128.646 358.27 129.796 358.27 131.234V136.547C358.27 137.986 357.872 139.135 357.078 139.994C356.29 140.854 355.206 141.283 353.826 141.283C352.433 141.277 351.342 140.847 350.555 139.994C349.773 139.135 349.383 137.986 349.383 136.547ZM351.16 136.645C351.16 137.582 351.378 138.347 351.814 138.939C352.251 139.525 352.921 139.818 353.826 139.818C354.725 139.818 355.392 139.525 355.828 138.939C356.264 138.347 356.482 137.582 356.482 136.645V131.137C356.482 130.199 356.264 129.438 355.828 128.852C355.392 128.259 354.725 127.963 353.826 127.963C352.921 127.963 352.251 128.259 351.814 128.852C351.378 129.438 351.16 130.199 351.16 131.137V136.645ZM360.428 143.031C360.727 142.634 360.958 142.227 361.121 141.811C361.284 141.394 361.365 140.906 361.365 140.346V138.939H363.025V140.346C363.025 141.029 362.879 141.654 362.586 142.221C362.293 142.787 361.902 143.282 361.414 143.705L360.428 143.031ZM366.297 141V130.912H367.85L367.918 132.221H367.967C368.331 131.752 368.777 131.384 369.305 131.117C369.839 130.85 370.431 130.717 371.082 130.717C372.091 130.717 372.895 131.003 373.494 131.576C374.093 132.149 374.393 133.113 374.393 134.467V141H372.684V134.457C372.684 133.637 372.498 133.051 372.127 132.699C371.762 132.341 371.242 132.162 370.564 132.162C369.992 132.162 369.484 132.318 369.041 132.631C368.598 132.943 368.253 133.35 368.006 133.852V141H366.297ZM376.766 138.812V137.045L382.693 134.477L376.766 131.908V130.062L384.734 133.773V135.102L376.766 138.812Z" fill="#262626"/>
<path d="M199.635 110.418V109.469H206.373V110.418H203.578V118H202.43V110.418H199.635ZM206.643 118V111.766H207.65L207.697 112.568H207.732C207.893 112.307 208.104 112.078 208.365 111.883C208.631 111.688 208.945 111.59 209.309 111.59C209.395 111.59 209.484 111.6 209.578 111.619C209.676 111.639 209.744 111.656 209.783 111.672V112.709C209.705 112.693 209.621 112.682 209.531 112.674C209.445 112.666 209.35 112.662 209.244 112.662C208.881 112.662 208.572 112.756 208.318 112.943C208.064 113.131 207.877 113.361 207.756 113.635V118H206.643ZM210.879 118V111.766H211.992V118H210.879ZM210.75 109.914C210.75 109.73 210.809 109.576 210.926 109.451C211.047 109.322 211.217 109.258 211.436 109.258C211.654 109.258 211.822 109.322 211.939 109.451C212.061 109.576 212.121 109.73 212.121 109.914C212.121 110.102 212.061 110.26 211.939 110.389C211.822 110.514 211.654 110.576 211.436 110.576C211.217 110.576 211.047 110.514 210.926 110.389C210.809 110.26 210.75 110.102 210.75 109.914ZM213.779 120.438V111.766H214.787L214.834 112.574H214.869C215.029 112.32 215.275 112.104 215.607 111.924C215.943 111.74 216.334 111.648 216.779 111.648C217.58 111.648 218.221 111.945 218.701 112.539C219.182 113.129 219.422 113.879 219.422 114.789V114.977C219.422 115.883 219.182 116.633 218.701 117.227C218.221 117.82 217.58 118.117 216.779 118.117C216.334 118.117 215.955 118.039 215.643 117.883C215.33 117.727 215.08 117.52 214.893 117.262V120.438H213.779ZM214.893 116.137C215.018 116.41 215.221 116.656 215.502 116.875C215.787 117.09 216.131 117.197 216.533 117.197C217.139 117.197 217.582 116.984 217.863 116.559C218.145 116.129 218.285 115.602 218.285 114.977V114.789C218.285 114.16 218.145 113.633 217.863 113.207C217.582 112.777 217.139 112.562 216.533 112.562C216.131 112.562 215.787 112.672 215.502 112.891C215.221 113.105 215.018 113.352 214.893 113.629V116.137ZM220.834 118V109H221.947V118H220.834ZM223.389 116.166C223.389 115.533 223.643 115.041 224.15 114.689C224.662 114.334 225.312 114.156 226.102 114.156H227.543V113.711C227.543 113.344 227.443 113.047 227.244 112.82C227.045 112.59 226.703 112.475 226.219 112.475C225.734 112.475 225.387 112.572 225.176 112.768C224.969 112.963 224.865 113.189 224.865 113.447V113.477H223.758V113.447C223.758 112.951 223.982 112.518 224.432 112.146C224.881 111.775 225.486 111.59 226.248 111.59C227.014 111.59 227.605 111.768 228.023 112.123C228.445 112.479 228.656 113.008 228.656 113.711V116.594C228.656 116.848 228.676 117.088 228.715 117.314C228.754 117.537 228.811 117.734 228.885 117.906V118H227.807C227.748 117.902 227.695 117.773 227.648 117.613C227.605 117.453 227.578 117.295 227.566 117.139C227.418 117.396 227.176 117.625 226.84 117.824C226.508 118.02 226.078 118.117 225.551 118.117C224.953 118.117 224.443 117.949 224.021 117.613C223.6 117.277 223.389 116.795 223.389 116.166ZM224.502 116.107C224.502 116.459 224.607 116.734 224.818 116.934C225.029 117.129 225.355 117.227 225.797 117.227C226.242 117.227 226.645 117.078 227.004 116.781C227.363 116.484 227.543 116.17 227.543 115.838V114.953H226.219C225.656 114.953 225.229 115.057 224.936 115.264C224.646 115.471 224.502 115.752 224.502 116.107Z" fill="#262626"/>
<defs>
<clipPath id="clip0_46_670">
<rect x="175" y="16" width="192" height="50" fill="white"/>
</clipPath>
<clipPath id="clip1_46_670">
<rect x="371" y="16" width="128" height="50" fill="white"/>
</clipPath>
</defs>
</svg>
