<svg width="879" height="209" viewBox="0 0 879 209" fill="none" xmlns="http://www.w3.org/2000/svg">
<path d="M662.639 173.656V173.586H663.787V173.656C663.787 174.168 663.965 174.553 664.32 174.811C664.676 175.064 665.172 175.191 665.809 175.191C666.449 175.191 666.938 175.061 667.273 174.799C667.613 174.533 667.783 174.189 667.783 173.768C667.783 173.381 667.623 173.072 667.303 172.842C666.982 172.607 666.355 172.363 665.422 172.109C664.469 171.844 663.795 171.531 663.4 171.172C663.01 170.809 662.814 170.293 662.814 169.625C662.814 168.957 663.074 168.402 663.594 167.961C664.113 167.516 664.832 167.293 665.75 167.293C666.668 167.293 667.398 167.529 667.941 168.002C668.484 168.475 668.756 169.066 668.756 169.777V169.848H667.607V169.777C667.607 169.328 667.451 168.967 667.139 168.693C666.83 168.416 666.367 168.277 665.75 168.277C665.137 168.277 664.684 168.396 664.391 168.635C664.102 168.869 663.957 169.182 663.957 169.572C663.957 169.947 664.105 170.242 664.402 170.457C664.699 170.672 665.299 170.902 666.201 171.148C667.146 171.402 667.836 171.725 668.27 172.115C668.707 172.506 668.926 173.055 668.926 173.762C668.926 174.469 668.645 175.049 668.082 175.502C667.523 175.951 666.766 176.176 665.809 176.176C664.852 176.176 664.084 175.951 663.506 175.502C662.928 175.049 662.639 174.434 662.639 173.656ZM669.898 172.977V172.789C669.898 171.848 670.16 171.08 670.684 170.486C671.207 169.889 671.9 169.59 672.764 169.59C673.627 169.59 674.291 169.869 674.756 170.428C675.225 170.982 675.459 171.734 675.459 172.684V173.141H670.584V172.256H674.334V172.168C674.334 171.699 674.207 171.305 673.953 170.984C673.699 170.664 673.312 170.504 672.793 170.504C672.211 170.504 671.771 170.725 671.475 171.166C671.182 171.607 671.035 172.148 671.035 172.789V172.977C671.035 173.617 671.189 174.158 671.498 174.6C671.811 175.041 672.293 175.262 672.945 175.262C673.348 175.262 673.693 175.176 673.982 175.004C674.271 174.832 674.506 174.629 674.686 174.395L675.406 174.975C675.207 175.268 674.896 175.541 674.475 175.795C674.057 176.049 673.547 176.176 672.945 176.176C671.961 176.176 671.207 175.879 670.684 175.285C670.16 174.688 669.898 173.918 669.898 172.977ZM676.426 172.977V172.789C676.426 171.879 676.666 171.129 677.146 170.539C677.627 169.945 678.27 169.648 679.074 169.648C679.516 169.648 679.902 169.74 680.234 169.924C680.57 170.104 680.818 170.32 680.979 170.574H681.014L681.061 169.766H682.068V178.438H680.955V175.262C680.771 175.52 680.521 175.727 680.205 175.883C679.893 176.039 679.516 176.117 679.074 176.117C678.27 176.117 677.627 175.82 677.146 175.227C676.666 174.633 676.426 173.883 676.426 172.977ZM677.562 172.977C677.562 173.602 677.703 174.129 677.984 174.559C678.27 174.984 678.713 175.197 679.314 175.197C679.721 175.197 680.064 175.09 680.346 174.875C680.627 174.656 680.83 174.41 680.955 174.137V171.629C680.83 171.352 680.627 171.105 680.346 170.891C680.064 170.672 679.721 170.562 679.314 170.562C678.713 170.562 678.27 170.777 677.984 171.207C677.703 171.633 677.562 172.16 677.562 172.789V172.977ZM683.744 173.756V169.766H684.857V173.768C684.857 174.271 684.971 174.633 685.197 174.852C685.428 175.066 685.754 175.174 686.176 175.174C686.535 175.174 686.852 175.08 687.125 174.893C687.398 174.701 687.611 174.453 687.764 174.148V169.766H688.883V176H687.869L687.822 175.191H687.793C687.559 175.48 687.275 175.707 686.943 175.871C686.611 176.035 686.244 176.117 685.842 176.117C685.201 176.117 684.691 175.936 684.312 175.572C683.934 175.209 683.744 174.604 683.744 173.756ZM690.254 172.977V172.789C690.254 171.848 690.516 171.08 691.039 170.486C691.562 169.889 692.256 169.59 693.119 169.59C693.982 169.59 694.646 169.869 695.111 170.428C695.58 170.982 695.814 171.734 695.814 172.684V173.141H690.939V172.256H694.689V172.168C694.689 171.699 694.562 171.305 694.309 170.984C694.055 170.664 693.668 170.504 693.148 170.504C692.566 170.504 692.127 170.725 691.83 171.166C691.537 171.607 691.391 172.148 691.391 172.789V172.977C691.391 173.617 691.545 174.158 691.854 174.6C692.166 175.041 692.648 175.262 693.301 175.262C693.703 175.262 694.049 175.176 694.338 175.004C694.627 174.832 694.861 174.629 695.041 174.395L695.762 174.975C695.562 175.268 695.252 175.541 694.83 175.795C694.412 176.049 693.902 176.176 693.301 176.176C692.316 176.176 691.562 175.879 691.039 175.285C690.516 174.688 690.254 173.918 690.254 172.977ZM693.453 166.836L694.953 168.734H694.021L693.113 167.773L692.211 168.734H691.291L692.773 166.836H693.453ZM697.15 176V169.766H698.158L698.205 170.574H698.24C698.471 170.281 698.752 170.055 699.084 169.895C699.416 169.73 699.785 169.648 700.191 169.648C700.828 169.648 701.336 169.83 701.715 170.193C702.098 170.553 702.289 171.158 702.289 172.01V176H701.17V171.998C701.17 171.494 701.055 171.133 700.824 170.914C700.598 170.695 700.275 170.586 699.857 170.586C699.498 170.586 699.182 170.682 698.908 170.873C698.635 171.064 698.42 171.311 698.264 171.611V176H697.15ZM703.602 172.977V172.789C703.602 171.848 703.861 171.08 704.381 170.486C704.9 169.889 705.617 169.59 706.531 169.59C707.375 169.59 708.016 169.814 708.453 170.264C708.891 170.709 709.109 171.207 709.109 171.758V171.787H708.031V171.758C708.031 171.43 707.912 171.139 707.674 170.885C707.436 170.631 707.055 170.504 706.531 170.504C705.918 170.504 705.465 170.725 705.172 171.166C704.883 171.607 704.738 172.148 704.738 172.789V172.977C704.738 173.617 704.883 174.158 705.172 174.6C705.465 175.041 705.918 175.262 706.531 175.262C707.055 175.262 707.436 175.135 707.674 174.881C707.912 174.627 708.031 174.334 708.031 174.002V173.973H709.109V174.002C709.109 174.557 708.891 175.059 708.453 175.508C708.016 175.953 707.375 176.176 706.531 176.176C705.617 176.176 704.9 175.879 704.381 175.285C703.861 174.688 703.602 173.918 703.602 172.977ZM710.445 176V169.766H711.559V176H710.445ZM710.316 167.914C710.316 167.73 710.375 167.576 710.492 167.451C710.613 167.322 710.783 167.258 711.002 167.258C711.221 167.258 711.389 167.322 711.506 167.451C711.627 167.576 711.688 167.73 711.688 167.914C711.688 168.102 711.627 168.26 711.506 168.389C711.389 168.514 711.221 168.576 711.002 168.576C710.783 168.576 710.613 168.514 710.492 168.389C710.375 168.26 710.316 168.102 710.316 167.914ZM713.006 174.166C713.006 173.533 713.26 173.041 713.768 172.689C714.279 172.334 714.93 172.156 715.719 172.156H717.16V171.711C717.16 171.344 717.061 171.047 716.861 170.82C716.662 170.59 716.32 170.475 715.836 170.475C715.352 170.475 715.004 170.572 714.793 170.768C714.586 170.963 714.482 171.189 714.482 171.447V171.477H713.375V171.447C713.375 170.951 713.6 170.518 714.049 170.146C714.498 169.775 715.104 169.59 715.865 169.59C716.631 169.59 717.223 169.768 717.641 170.123C718.062 170.479 718.273 171.008 718.273 171.711V174.594C718.273 174.848 718.293 175.088 718.332 175.314C718.371 175.537 718.428 175.734 718.502 175.906V176H717.424C717.365 175.902 717.312 175.773 717.266 175.613C717.223 175.453 717.195 175.295 717.184 175.139C717.035 175.396 716.793 175.625 716.457 175.824C716.125 176.02 715.695 176.117 715.168 176.117C714.57 176.117 714.061 175.949 713.639 175.613C713.217 175.277 713.006 174.795 713.006 174.166ZM714.119 174.107C714.119 174.459 714.225 174.734 714.436 174.934C714.646 175.129 714.973 175.227 715.414 175.227C715.859 175.227 716.262 175.078 716.621 174.781C716.98 174.484 717.16 174.17 717.16 173.838V172.953H715.836C715.273 172.953 714.846 173.057 714.553 173.264C714.264 173.471 714.119 173.752 714.119 174.107ZM722.592 169.713V169.033C722.592 168.65 722.68 168.264 722.855 167.873C723.035 167.482 723.287 167.152 723.611 166.883L724.238 167.322C724.055 167.58 723.916 167.846 723.822 168.119C723.729 168.389 723.68 168.689 723.676 169.021V169.713H722.592ZM725.053 169.713V169.033C725.053 168.65 725.141 168.264 725.316 167.873C725.496 167.482 725.748 167.152 726.072 166.883L726.699 167.322C726.516 167.58 726.377 167.846 726.283 168.119C726.189 168.389 726.141 168.689 726.137 169.021V169.713H725.053ZM727.139 174.166C727.139 173.533 727.393 173.041 727.9 172.689C728.412 172.334 729.062 172.156 729.852 172.156H731.293V171.711C731.293 171.344 731.193 171.047 730.994 170.82C730.795 170.59 730.453 170.475 729.969 170.475C729.484 170.475 729.137 170.572 728.926 170.768C728.719 170.963 728.615 171.189 728.615 171.447V171.477H727.508V171.447C727.508 170.951 727.732 170.518 728.182 170.146C728.631 169.775 729.236 169.59 729.998 169.59C730.764 169.59 731.355 169.768 731.773 170.123C732.195 170.479 732.406 171.008 732.406 171.711V174.594C732.406 174.848 732.426 175.088 732.465 175.314C732.504 175.537 732.561 175.734 732.635 175.906V176H731.557C731.498 175.902 731.445 175.773 731.398 175.613C731.355 175.453 731.328 175.295 731.316 175.139C731.168 175.396 730.926 175.625 730.59 175.824C730.258 176.02 729.828 176.117 729.301 176.117C728.703 176.117 728.193 175.949 727.771 175.613C727.35 175.277 727.139 174.795 727.139 174.166ZM728.252 174.107C728.252 174.459 728.357 174.734 728.568 174.934C728.779 175.129 729.105 175.227 729.547 175.227C729.992 175.227 730.395 175.078 730.754 174.781C731.113 174.484 731.293 174.17 731.293 173.838V172.953H729.969C729.406 172.953 728.979 173.057 728.686 173.264C728.396 173.471 728.252 173.752 728.252 174.107ZM734.123 176V169.766H735.131L735.178 170.574H735.213C735.443 170.281 735.725 170.055 736.057 169.895C736.389 169.73 736.758 169.648 737.164 169.648C737.801 169.648 738.309 169.83 738.688 170.193C739.07 170.553 739.262 171.158 739.262 172.01V176H738.143V171.998C738.143 171.494 738.027 171.133 737.797 170.914C737.57 170.695 737.248 170.586 736.83 170.586C736.471 170.586 736.154 170.682 735.881 170.873C735.607 171.064 735.393 171.311 735.236 171.611V176H734.123ZM740.604 174.166C740.604 173.533 740.857 173.041 741.365 172.689C741.877 172.334 742.527 172.156 743.316 172.156H744.758V171.711C744.758 171.344 744.658 171.047 744.459 170.82C744.26 170.59 743.918 170.475 743.434 170.475C742.949 170.475 742.602 170.572 742.391 170.768C742.184 170.963 742.08 171.189 742.08 171.447V171.477H740.973V171.447C740.973 170.951 741.197 170.518 741.646 170.146C742.096 169.775 742.701 169.59 743.463 169.59C744.229 169.59 744.82 169.768 745.238 170.123C745.66 170.479 745.871 171.008 745.871 171.711V174.594C745.871 174.848 745.891 175.088 745.93 175.314C745.969 175.537 746.025 175.734 746.1 175.906V176H745.021C744.963 175.902 744.91 175.773 744.863 175.613C744.82 175.453 744.793 175.295 744.781 175.139C744.633 175.396 744.391 175.625 744.055 175.824C743.723 176.02 743.293 176.117 742.766 176.117C742.168 176.117 741.658 175.949 741.236 175.613C740.814 175.277 740.604 174.795 740.604 174.166ZM741.717 174.107C741.717 174.459 741.822 174.734 742.033 174.934C742.244 175.129 742.57 175.227 743.012 175.227C743.457 175.227 743.859 175.078 744.219 174.781C744.578 174.484 744.758 174.17 744.758 173.838V172.953H743.434C742.871 172.953 742.443 173.057 742.15 173.264C741.861 173.471 741.717 173.752 741.717 174.107ZM748.244 167.457V168.166C748.244 168.549 748.154 168.936 747.975 169.326C747.799 169.717 747.551 170.047 747.23 170.316L746.598 169.871C746.785 169.613 746.924 169.35 747.014 169.08C747.107 168.811 747.154 168.51 747.154 168.178V167.457H748.244ZM750.705 167.457V168.166C750.705 168.549 750.615 168.936 750.436 169.326C750.26 169.717 750.012 170.047 749.691 170.316L749.059 169.871C749.246 169.613 749.385 169.35 749.475 169.08C749.568 168.811 749.615 168.51 749.615 168.178V167.457H750.705ZM754.66 172.977V172.789C754.66 171.848 754.922 171.08 755.445 170.486C755.969 169.889 756.662 169.59 757.525 169.59C758.389 169.59 759.053 169.869 759.518 170.428C759.986 170.982 760.221 171.734 760.221 172.684V173.141H755.346V172.256H759.096V172.168C759.096 171.699 758.969 171.305 758.715 170.984C758.461 170.664 758.074 170.504 757.555 170.504C756.973 170.504 756.533 170.725 756.236 171.166C755.943 171.607 755.797 172.148 755.797 172.789V172.977C755.797 173.617 755.951 174.158 756.26 174.6C756.572 175.041 757.055 175.262 757.707 175.262C758.109 175.262 758.455 175.176 758.744 175.004C759.033 174.832 759.268 174.629 759.447 174.395L760.168 174.975C759.969 175.268 759.658 175.541 759.236 175.795C758.818 176.049 758.309 176.176 757.707 176.176C756.723 176.176 755.969 175.879 755.445 175.285C754.922 174.688 754.66 173.918 754.66 172.977ZM760.807 176L763.197 172.555H763.273L765.055 169.766H766.314L764.041 173.129H763.959L762.066 176H760.807ZM760.924 169.766H762.213L763.988 172.555H764.047L766.432 176H765.148L763.256 173.129H763.203L760.924 169.766ZM767.469 176V169.766H768.582V176H767.469ZM767.34 167.914C767.34 167.73 767.398 167.576 767.516 167.451C767.637 167.322 767.807 167.258 768.025 167.258C768.244 167.258 768.412 167.322 768.529 167.451C768.65 167.576 768.711 167.73 768.711 167.914C768.711 168.102 768.65 168.26 768.529 168.389C768.412 168.514 768.244 168.576 768.025 168.576C767.807 168.576 767.637 168.514 767.516 168.389C767.398 168.26 767.34 168.102 767.34 167.914ZM769.971 174.166H771.084V174.195C771.084 174.551 771.219 174.82 771.488 175.004C771.762 175.184 772.119 175.273 772.561 175.273C773.006 175.273 773.355 175.188 773.609 175.016C773.863 174.84 773.99 174.615 773.99 174.342C773.99 174.064 773.889 173.852 773.686 173.703C773.482 173.555 773.037 173.404 772.35 173.252C771.658 173.1 771.117 172.879 770.727 172.59C770.34 172.297 770.146 171.893 770.146 171.377C770.146 170.865 770.361 170.439 770.791 170.1C771.221 169.76 771.799 169.59 772.525 169.59C773.252 169.59 773.834 169.762 774.271 170.105C774.713 170.445 774.934 170.902 774.934 171.477V171.506H773.826V171.459C773.826 171.158 773.721 170.922 773.51 170.75C773.299 170.578 772.971 170.492 772.525 170.492C772.08 170.492 771.756 170.572 771.553 170.732C771.35 170.889 771.248 171.084 771.248 171.318C771.248 171.557 771.359 171.746 771.582 171.887C771.809 172.023 772.266 172.168 772.953 172.32C773.645 172.473 774.174 172.699 774.541 173C774.912 173.301 775.098 173.727 775.098 174.277C775.098 174.832 774.885 175.287 774.459 175.643C774.037 175.998 773.404 176.176 772.561 176.176C771.717 176.176 771.074 175.996 770.633 175.637C770.191 175.273 769.971 174.793 769.971 174.195V174.166ZM775.572 170.621V169.766H779.182V170.621H775.572ZM776.703 174.453V170.281V170.105V168.312H777.816V174.453C777.816 174.727 777.871 174.922 777.98 175.039C778.094 175.156 778.271 175.215 778.514 175.215C778.623 175.215 778.73 175.203 778.836 175.18C778.945 175.156 779.057 175.125 779.17 175.086V176C779.064 176.047 778.928 176.088 778.76 176.123C778.596 176.158 778.414 176.176 778.215 176.176C777.754 176.176 777.387 176.037 777.113 175.76C776.84 175.482 776.703 175.047 776.703 174.453ZM779.973 172.977V172.789C779.973 171.848 780.234 171.08 780.758 170.486C781.281 169.889 781.975 169.59 782.838 169.59C783.701 169.59 784.365 169.869 784.83 170.428C785.299 170.982 785.533 171.734 785.533 172.684V173.141H780.658V172.256H784.408V172.168C784.408 171.699 784.281 171.305 784.027 170.984C783.773 170.664 783.387 170.504 782.867 170.504C782.285 170.504 781.846 170.725 781.549 171.166C781.256 171.607 781.109 172.148 781.109 172.789V172.977C781.109 173.617 781.264 174.158 781.572 174.6C781.885 175.041 782.367 175.262 783.02 175.262C783.422 175.262 783.768 175.176 784.057 175.004C784.346 174.832 784.58 174.629 784.76 174.395L785.48 174.975C785.281 175.268 784.971 175.541 784.549 175.795C784.131 176.049 783.621 176.176 783.02 176.176C782.035 176.176 781.281 175.879 780.758 175.285C780.234 174.688 779.973 173.918 779.973 172.977ZM789.799 176V169.766H790.807L790.854 170.574H790.889C791.119 170.281 791.4 170.055 791.732 169.895C792.064 169.73 792.434 169.648 792.84 169.648C793.477 169.648 793.984 169.83 794.363 170.193C794.746 170.553 794.938 171.158 794.938 172.01V176H793.818V171.998C793.818 171.494 793.703 171.133 793.473 170.914C793.246 170.695 792.924 170.586 792.506 170.586C792.146 170.586 791.83 170.682 791.557 170.873C791.283 171.064 791.068 171.311 790.912 171.611V176H789.799ZM796.25 172.977V172.789C796.25 171.848 796.521 171.08 797.064 170.486C797.607 169.889 798.332 169.59 799.238 169.59C800.145 169.59 800.869 169.889 801.412 170.486C801.955 171.08 802.227 171.848 802.227 172.789V172.977C802.227 173.918 801.955 174.688 801.412 175.285C800.869 175.879 800.145 176.176 799.238 176.176C798.332 176.176 797.607 175.879 797.064 175.285C796.521 174.688 796.25 173.918 796.25 172.977ZM797.387 172.789V172.977C797.387 173.613 797.541 174.152 797.85 174.594C798.162 175.035 798.625 175.256 799.238 175.256C799.852 175.256 800.312 175.035 800.621 174.594C800.93 174.152 801.084 173.613 801.084 172.977V172.789C801.084 172.148 800.93 171.607 800.621 171.166C800.312 170.725 799.852 170.504 799.238 170.504C798.625 170.504 798.162 170.725 797.85 171.166C797.541 171.607 797.387 172.148 797.387 172.789ZM806.152 172.977V172.789C806.152 171.879 806.393 171.129 806.873 170.539C807.354 169.945 807.996 169.648 808.801 169.648C809.242 169.648 809.619 169.727 809.932 169.883C810.248 170.035 810.498 170.24 810.682 170.498V167H811.795V176H810.787L810.74 175.186H810.705C810.545 175.443 810.297 175.664 809.961 175.848C809.629 176.027 809.242 176.117 808.801 176.117C807.996 176.117 807.354 175.82 806.873 175.227C806.393 174.633 806.152 173.883 806.152 172.977ZM807.289 172.977C807.289 173.602 807.43 174.129 807.711 174.559C807.996 174.984 808.439 175.197 809.041 175.197C809.447 175.197 809.791 175.09 810.072 174.875C810.354 174.656 810.557 174.41 810.682 174.137V171.629C810.557 171.352 810.354 171.105 810.072 170.891C809.791 170.672 809.447 170.562 809.041 170.562C808.439 170.562 807.996 170.777 807.711 171.207C807.43 171.633 807.289 172.16 807.289 172.789V172.977ZM813.582 176V169.766H814.695V176H813.582ZM813.453 167.914C813.453 167.73 813.512 167.576 813.629 167.451C813.75 167.322 813.92 167.258 814.139 167.258C814.357 167.258 814.525 167.322 814.643 167.451C814.764 167.576 814.824 167.73 814.824 167.914C814.824 168.102 814.764 168.26 814.643 168.389C814.525 168.514 814.357 168.576 814.139 168.576C813.92 168.576 813.75 168.514 813.629 168.389C813.512 168.26 813.453 168.102 813.453 167.914ZM816.113 172.977V172.789C816.113 171.848 816.373 171.08 816.893 170.486C817.412 169.889 818.129 169.59 819.043 169.59C819.887 169.59 820.527 169.814 820.965 170.264C821.402 170.709 821.621 171.207 821.621 171.758V171.787H820.543V171.758C820.543 171.43 820.424 171.139 820.186 170.885C819.947 170.631 819.566 170.504 819.043 170.504C818.43 170.504 817.977 170.725 817.684 171.166C817.395 171.607 817.25 172.148 817.25 172.789V172.977C817.25 173.617 817.395 174.158 817.684 174.6C817.977 175.041 818.43 175.262 819.043 175.262C819.566 175.262 819.947 175.135 820.186 174.881C820.424 174.627 820.543 174.334 820.543 174.002V173.973H821.621V174.002C821.621 174.557 821.402 175.059 820.965 175.508C820.527 175.953 819.887 176.176 819.043 176.176C818.129 176.176 817.412 175.879 816.893 175.285C816.373 174.688 816.113 173.918 816.113 172.977ZM822.957 176V169.766H824.07V176H822.957ZM822.828 167.914C822.828 167.73 822.887 167.576 823.004 167.451C823.125 167.322 823.295 167.258 823.514 167.258C823.732 167.258 823.9 167.322 824.018 167.451C824.139 167.576 824.199 167.73 824.199 167.914C824.199 168.102 824.139 168.26 824.018 168.389C823.9 168.514 823.732 168.576 823.514 168.576C823.295 168.576 823.125 168.514 823.004 168.389C822.887 168.26 822.828 168.102 822.828 167.914ZM825.488 172.977V172.789C825.488 171.848 825.76 171.08 826.303 170.486C826.846 169.889 827.57 169.59 828.477 169.59C829.383 169.59 830.107 169.889 830.65 170.486C831.193 171.08 831.465 171.848 831.465 172.789V172.977C831.465 173.918 831.193 174.688 830.65 175.285C830.107 175.879 829.383 176.176 828.477 176.176C827.57 176.176 826.846 175.879 826.303 175.285C825.76 174.688 825.488 173.918 825.488 172.977ZM826.625 172.789V172.977C826.625 173.613 826.779 174.152 827.088 174.594C827.4 175.035 827.863 175.256 828.477 175.256C829.09 175.256 829.551 175.035 829.859 174.594C830.168 174.152 830.322 173.613 830.322 172.977V172.789C830.322 172.148 830.168 171.607 829.859 171.166C829.551 170.725 829.09 170.504 828.477 170.504C827.863 170.504 827.4 170.725 827.088 171.166C826.779 171.607 826.625 172.148 826.625 172.789ZM832.83 176V169.766H833.838L833.885 170.574H833.92C834.15 170.281 834.432 170.055 834.764 169.895C835.096 169.73 835.465 169.648 835.871 169.648C836.508 169.648 837.016 169.83 837.395 170.193C837.777 170.553 837.969 171.158 837.969 172.01V176H836.85V171.998C836.85 171.494 836.734 171.133 836.504 170.914C836.277 170.695 835.955 170.586 835.537 170.586C835.178 170.586 834.861 170.682 834.588 170.873C834.314 171.064 834.1 171.311 833.943 171.611V176H832.83ZM839.311 174.166C839.311 173.533 839.564 173.041 840.072 172.689C840.584 172.334 841.234 172.156 842.023 172.156H843.465V171.711C843.465 171.344 843.365 171.047 843.166 170.82C842.967 170.59 842.625 170.475 842.141 170.475C841.656 170.475 841.309 170.572 841.098 170.768C840.891 170.963 840.787 171.189 840.787 171.447V171.477H839.68V171.447C839.68 170.951 839.904 170.518 840.354 170.146C840.803 169.775 841.408 169.59 842.17 169.59C842.936 169.59 843.527 169.768 843.945 170.123C844.367 170.479 844.578 171.008 844.578 171.711V174.594C844.578 174.848 844.598 175.088 844.637 175.314C844.676 175.537 844.732 175.734 844.807 175.906V176H843.729C843.67 175.902 843.617 175.773 843.57 175.613C843.527 175.453 843.5 175.295 843.488 175.139C843.34 175.396 843.098 175.625 842.762 175.824C842.43 176.02 842 176.117 841.473 176.117C840.875 176.117 840.365 175.949 839.943 175.613C839.521 175.277 839.311 174.795 839.311 174.166ZM840.424 174.107C840.424 174.459 840.529 174.734 840.74 174.934C840.951 175.129 841.277 175.227 841.719 175.227C842.164 175.227 842.566 175.078 842.926 174.781C843.285 174.484 843.465 174.17 843.465 173.838V172.953H842.141C841.578 172.953 841.15 173.057 840.857 173.264C840.568 173.471 840.424 173.752 840.424 174.107ZM841.156 168.23L842.598 166.426L843.512 167.105L841.742 168.734L841.156 168.23ZM846.295 176V169.766H847.303L847.35 170.568H847.385C847.545 170.307 847.756 170.078 848.018 169.883C848.283 169.688 848.598 169.59 848.961 169.59C849.047 169.59 849.137 169.6 849.23 169.619C849.328 169.639 849.396 169.656 849.436 169.672V170.709C849.357 170.693 849.273 170.682 849.184 170.674C849.098 170.666 849.002 170.662 848.896 170.662C848.533 170.662 848.225 170.756 847.971 170.943C847.717 171.131 847.529 171.361 847.408 171.635V176H846.295ZM850.531 176V169.766H851.645V176H850.531ZM850.402 167.914C850.402 167.73 850.461 167.576 850.578 167.451C850.699 167.322 850.869 167.258 851.088 167.258C851.307 167.258 851.475 167.322 851.592 167.451C851.713 167.576 851.773 167.73 851.773 167.914C851.773 168.102 851.713 168.26 851.592 168.389C851.475 168.514 851.307 168.576 851.088 168.576C850.869 168.576 850.699 168.514 850.578 168.389C850.461 168.26 850.402 168.102 850.402 167.914ZM853.062 172.977V172.789C853.062 171.848 853.334 171.08 853.877 170.486C854.42 169.889 855.145 169.59 856.051 169.59C856.957 169.59 857.682 169.889 858.225 170.486C858.768 171.08 859.039 171.848 859.039 172.789V172.977C859.039 173.918 858.768 174.688 858.225 175.285C857.682 175.879 856.957 176.176 856.051 176.176C855.145 176.176 854.42 175.879 853.877 175.285C853.334 174.688 853.062 173.918 853.062 172.977ZM854.199 172.789V172.977C854.199 173.613 854.354 174.152 854.662 174.594C854.975 175.035 855.438 175.256 856.051 175.256C856.664 175.256 857.125 175.035 857.434 174.594C857.742 174.152 857.896 173.613 857.896 172.977V172.789C857.896 172.148 857.742 171.607 857.434 171.166C857.125 170.725 856.664 170.504 856.051 170.504C855.438 170.504 854.975 170.725 854.662 171.166C854.354 171.607 854.199 172.148 854.199 172.789ZM860.393 175.379C860.393 175.172 860.459 174.996 860.592 174.852C860.725 174.703 860.916 174.629 861.166 174.629C861.42 174.629 861.613 174.703 861.746 174.852C861.879 174.996 861.945 175.172 861.945 175.379C861.945 175.586 861.879 175.764 861.746 175.912C861.613 176.057 861.42 176.129 861.166 176.129C860.916 176.129 860.725 176.057 860.592 175.912C860.459 175.764 860.393 175.586 860.393 175.379ZM680.105 190V181.469H685.572V182.418H681.254V185.125H685.027V186.074H681.254V189.051H685.631V190H680.105ZM686.709 185.992V185.477C686.709 184.16 687.053 183.135 687.74 182.4C688.428 181.662 689.311 181.293 690.389 181.293C691.463 181.293 692.344 181.662 693.031 182.4C693.719 183.135 694.062 184.16 694.062 185.477V185.992C694.062 187.309 693.719 188.336 693.031 189.074C692.344 189.809 691.463 190.176 690.389 190.176C689.311 190.176 688.428 189.809 687.74 189.074C687.053 188.336 686.709 187.309 686.709 185.992ZM687.869 185.992C687.869 186.988 688.1 187.77 688.561 188.336C689.021 188.902 689.631 189.186 690.389 189.186C691.143 189.186 691.75 188.902 692.211 188.336C692.672 187.77 692.902 186.988 692.902 185.992V185.477C692.902 184.48 692.672 183.699 692.211 183.133C691.75 182.566 691.143 182.283 690.389 182.283C689.631 182.283 689.021 182.566 688.561 183.133C688.1 183.699 687.869 184.48 687.869 185.477V185.992ZM695.738 190V181.469H701.135V182.418H696.887V185.307H700.549V186.256H696.887V190H695.738ZM705.277 190V183.766H706.285L706.332 184.568H706.367C706.527 184.307 706.738 184.078 707 183.883C707.266 183.688 707.58 183.59 707.943 183.59C708.029 183.59 708.119 183.6 708.213 183.619C708.311 183.639 708.379 183.656 708.418 183.672V184.709C708.34 184.693 708.256 184.682 708.166 184.674C708.08 184.666 707.984 184.662 707.879 184.662C707.516 184.662 707.207 184.756 706.953 184.943C706.699 185.131 706.512 185.361 706.391 185.635V190H705.277ZM708.975 186.977V186.789C708.975 185.848 709.236 185.08 709.76 184.486C710.283 183.889 710.977 183.59 711.84 183.59C712.703 183.59 713.367 183.869 713.832 184.428C714.301 184.982 714.535 185.734 714.535 186.684V187.141H709.66V186.256H713.41V186.168C713.41 185.699 713.283 185.305 713.029 184.984C712.775 184.664 712.389 184.504 711.869 184.504C711.287 184.504 710.848 184.725 710.551 185.166C710.258 185.607 710.111 186.148 710.111 186.789V186.977C710.111 187.617 710.266 188.158 710.574 188.6C710.887 189.041 711.369 189.262 712.021 189.262C712.424 189.262 712.77 189.176 713.059 189.004C713.348 188.832 713.582 188.629 713.762 188.395L714.482 188.975C714.283 189.268 713.973 189.541 713.551 189.795C713.133 190.049 712.623 190.176 712.021 190.176C711.037 190.176 710.283 189.879 709.76 189.285C709.236 188.688 708.975 187.918 708.975 186.977ZM715.871 192.438V183.766H716.879L716.926 184.574H716.961C717.121 184.32 717.367 184.104 717.699 183.924C718.035 183.74 718.426 183.648 718.871 183.648C719.672 183.648 720.312 183.945 720.793 184.539C721.273 185.129 721.514 185.879 721.514 186.789V186.977C721.514 187.883 721.273 188.633 720.793 189.227C720.312 189.82 719.672 190.117 718.871 190.117C718.426 190.117 718.047 190.039 717.734 189.883C717.422 189.727 717.172 189.52 716.984 189.262V192.438H715.871ZM716.984 188.137C717.109 188.41 717.312 188.656 717.594 188.875C717.879 189.09 718.223 189.197 718.625 189.197C719.23 189.197 719.674 188.984 719.955 188.559C720.236 188.129 720.377 187.602 720.377 186.977V186.789C720.377 186.16 720.236 185.633 719.955 185.207C719.674 184.777 719.23 184.562 718.625 184.562C718.223 184.562 717.879 184.672 717.594 184.891C717.312 185.105 717.109 185.352 716.984 185.629V188.137ZM722.879 190V183.766H723.887L723.934 184.568H723.969C724.129 184.307 724.34 184.078 724.602 183.883C724.867 183.688 725.182 183.59 725.545 183.59C725.631 183.59 725.721 183.6 725.814 183.619C725.912 183.639 725.98 183.656 726.02 183.672V184.709C725.941 184.693 725.857 184.682 725.768 184.674C725.682 184.666 725.586 184.662 725.48 184.662C725.117 184.662 724.809 184.756 724.555 184.943C724.301 185.131 724.113 185.361 723.992 185.635V190H722.879ZM726.576 186.977V186.789C726.576 185.848 726.838 185.08 727.361 184.486C727.885 183.889 728.578 183.59 729.441 183.59C730.305 183.59 730.969 183.869 731.434 184.428C731.902 184.982 732.137 185.734 732.137 186.684V187.141H727.262V186.256H731.012V186.168C731.012 185.699 730.885 185.305 730.631 184.984C730.377 184.664 729.99 184.504 729.471 184.504C728.889 184.504 728.449 184.725 728.152 185.166C727.859 185.607 727.713 186.148 727.713 186.789V186.977C727.713 187.617 727.867 188.158 728.176 188.6C728.488 189.041 728.971 189.262 729.623 189.262C730.025 189.262 730.371 189.176 730.66 189.004C730.949 188.832 731.184 188.629 731.363 188.395L732.084 188.975C731.885 189.268 731.574 189.541 731.152 189.795C730.734 190.049 730.225 190.176 729.623 190.176C728.639 190.176 727.885 189.879 727.361 189.285C726.838 188.688 726.576 187.918 726.576 186.977ZM733.074 188.166H734.188V188.195C734.188 188.551 734.322 188.82 734.592 189.004C734.865 189.184 735.223 189.273 735.664 189.273C736.109 189.273 736.459 189.188 736.713 189.016C736.967 188.84 737.094 188.615 737.094 188.342C737.094 188.064 736.992 187.852 736.789 187.703C736.586 187.555 736.141 187.404 735.453 187.252C734.762 187.1 734.221 186.879 733.83 186.59C733.443 186.297 733.25 185.893 733.25 185.377C733.25 184.865 733.465 184.439 733.895 184.1C734.324 183.76 734.902 183.59 735.629 183.59C736.355 183.59 736.938 183.762 737.375 184.105C737.816 184.445 738.037 184.902 738.037 185.477V185.506H736.93V185.459C736.93 185.158 736.824 184.922 736.613 184.75C736.402 184.578 736.074 184.492 735.629 184.492C735.184 184.492 734.859 184.572 734.656 184.732C734.453 184.889 734.352 185.084 734.352 185.318C734.352 185.557 734.463 185.746 734.686 185.887C734.912 186.023 735.369 186.168 736.057 186.32C736.748 186.473 737.277 186.699 737.645 187C738.016 187.301 738.201 187.727 738.201 188.277C738.201 188.832 737.988 189.287 737.562 189.643C737.141 189.998 736.508 190.176 735.664 190.176C734.82 190.176 734.178 189.996 733.736 189.637C733.295 189.273 733.074 188.793 733.074 188.195V188.166ZM739.174 186.977V186.789C739.174 185.848 739.436 185.08 739.959 184.486C740.482 183.889 741.176 183.59 742.039 183.59C742.902 183.59 743.566 183.869 744.031 184.428C744.5 184.982 744.734 185.734 744.734 186.684V187.141H739.859V186.256H743.609V186.168C743.609 185.699 743.482 185.305 743.229 184.984C742.975 184.664 742.588 184.504 742.068 184.504C741.486 184.504 741.047 184.725 740.75 185.166C740.457 185.607 740.311 186.148 740.311 186.789V186.977C740.311 187.617 740.465 188.158 740.773 188.6C741.086 189.041 741.568 189.262 742.221 189.262C742.623 189.262 742.969 189.176 743.258 189.004C743.547 188.832 743.781 188.629 743.961 188.395L744.682 188.975C744.482 189.268 744.172 189.541 743.75 189.795C743.332 190.049 742.822 190.176 742.221 190.176C741.236 190.176 740.482 189.879 739.959 189.285C739.436 188.688 739.174 187.918 739.174 186.977ZM746.07 190V183.766H747.078L747.125 184.574H747.16C747.391 184.281 747.672 184.055 748.004 183.895C748.336 183.73 748.705 183.648 749.111 183.648C749.748 183.648 750.256 183.83 750.635 184.193C751.018 184.553 751.209 185.158 751.209 186.01V190H750.09V185.998C750.09 185.494 749.975 185.133 749.744 184.914C749.518 184.695 749.195 184.586 748.777 184.586C748.418 184.586 748.102 184.682 747.828 184.873C747.555 185.064 747.34 185.311 747.184 185.611V190H746.07ZM752.023 184.621V183.766H755.633V184.621H752.023ZM753.154 188.453V184.281V184.105V182.312H754.268V188.453C754.268 188.727 754.322 188.922 754.432 189.039C754.545 189.156 754.723 189.215 754.965 189.215C755.074 189.215 755.182 189.203 755.287 189.18C755.396 189.156 755.508 189.125 755.621 189.086V190C755.516 190.047 755.379 190.088 755.211 190.123C755.047 190.158 754.865 190.176 754.666 190.176C754.205 190.176 753.838 190.037 753.564 189.76C753.291 189.482 753.154 189.047 753.154 188.453ZM756.453 188.166C756.453 187.533 756.707 187.041 757.215 186.689C757.727 186.334 758.377 186.156 759.166 186.156H760.607V185.711C760.607 185.344 760.508 185.047 760.309 184.82C760.109 184.59 759.768 184.475 759.283 184.475C758.799 184.475 758.451 184.572 758.24 184.768C758.033 184.963 757.93 185.189 757.93 185.447V185.477H756.822V185.447C756.822 184.951 757.047 184.518 757.496 184.146C757.945 183.775 758.551 183.59 759.312 183.59C760.078 183.59 760.67 183.768 761.088 184.123C761.51 184.479 761.721 185.008 761.721 185.711V188.594C761.721 188.848 761.74 189.088 761.779 189.314C761.818 189.537 761.875 189.734 761.949 189.906V190H760.871C760.812 189.902 760.76 189.773 760.713 189.613C760.67 189.453 760.643 189.295 760.631 189.139C760.482 189.396 760.24 189.625 759.904 189.824C759.572 190.02 759.143 190.117 758.615 190.117C758.018 190.117 757.508 189.949 757.086 189.613C756.664 189.277 756.453 188.795 756.453 188.166ZM757.566 188.107C757.566 188.459 757.672 188.734 757.883 188.934C758.094 189.129 758.42 189.227 758.861 189.227C759.307 189.227 759.709 189.078 760.068 188.781C760.428 188.484 760.607 188.17 760.607 187.838V186.953H759.283C758.721 186.953 758.293 187.057 758 187.264C757.711 187.471 757.566 187.752 757.566 188.107ZM766.678 190V183.004C766.678 182.312 766.867 181.787 767.246 181.428C767.629 181.064 768.148 180.883 768.805 180.883C768.934 180.883 769.062 180.891 769.191 180.906C769.324 180.922 769.451 180.945 769.572 180.977L769.508 181.879C769.422 181.863 769.328 181.85 769.227 181.838C769.129 181.826 769.029 181.82 768.928 181.82C768.564 181.82 768.283 181.92 768.084 182.119C767.889 182.314 767.791 182.609 767.791 183.004V184.129V184.258V190H766.678ZM765.646 184.621V183.766H767.094H767.375H769.162V184.621H765.646ZM770.023 190V183.766H771.137V190H770.023ZM769.895 181.914C769.895 181.73 769.953 181.576 770.07 181.451C770.191 181.322 770.361 181.258 770.58 181.258C770.799 181.258 770.967 181.322 771.084 181.451C771.205 181.576 771.266 181.73 771.266 181.914C771.266 182.102 771.205 182.26 771.084 182.389C770.967 182.514 770.799 182.576 770.58 182.576C770.361 182.576 770.191 182.514 770.07 182.389C769.953 182.26 769.895 182.102 769.895 181.914ZM772.93 190V183.766H773.938L773.984 184.574H774.02C774.246 184.285 774.52 184.059 774.84 183.895C775.16 183.73 775.518 183.648 775.912 183.648C776.338 183.648 776.705 183.732 777.014 183.9C777.322 184.064 777.557 184.332 777.717 184.703H777.752C778.018 184.332 778.312 184.064 778.637 183.9C778.965 183.732 779.338 183.648 779.756 183.648C780.412 183.648 780.926 183.83 781.297 184.193C781.668 184.553 781.854 185.158 781.854 186.01V190H780.74V185.998C780.74 185.494 780.631 185.133 780.412 184.914C780.193 184.695 779.883 184.586 779.48 184.586C779.133 184.586 778.828 184.682 778.566 184.873C778.309 185.064 778.104 185.311 777.951 185.611V190H776.832V185.998C776.832 185.494 776.723 185.133 776.504 184.914C776.285 184.695 775.977 184.586 775.578 184.586C775.23 184.586 774.926 184.682 774.664 184.873C774.406 185.064 774.199 185.311 774.043 185.611V190H772.93ZM786.096 186.977V186.789C786.096 185.879 786.336 185.129 786.816 184.539C787.297 183.945 787.939 183.648 788.744 183.648C789.186 183.648 789.562 183.727 789.875 183.883C790.191 184.035 790.441 184.24 790.625 184.498V181H791.738V190H790.73L790.684 189.186H790.648C790.488 189.443 790.24 189.664 789.904 189.848C789.572 190.027 789.186 190.117 788.744 190.117C787.939 190.117 787.297 189.82 786.816 189.227C786.336 188.633 786.096 187.883 786.096 186.977ZM787.232 186.977C787.232 187.602 787.373 188.129 787.654 188.559C787.939 188.984 788.383 189.197 788.984 189.197C789.391 189.197 789.734 189.09 790.016 188.875C790.297 188.656 790.5 188.41 790.625 188.137V185.629C790.5 185.352 790.297 185.105 790.016 184.891C789.734 184.672 789.391 184.562 788.984 184.562C788.383 184.562 787.939 184.777 787.654 185.207C787.373 185.633 787.232 186.16 787.232 186.789V186.977ZM793.104 186.977V186.789C793.104 185.848 793.375 185.08 793.918 184.486C794.461 183.889 795.186 183.59 796.092 183.59C796.998 183.59 797.723 183.889 798.266 184.486C798.809 185.08 799.08 185.848 799.08 186.789V186.977C799.08 187.918 798.809 188.688 798.266 189.285C797.723 189.879 796.998 190.176 796.092 190.176C795.186 190.176 794.461 189.879 793.918 189.285C793.375 188.688 793.104 187.918 793.104 186.977ZM794.24 186.789V186.977C794.24 187.613 794.395 188.152 794.703 188.594C795.016 189.035 795.479 189.256 796.092 189.256C796.705 189.256 797.166 189.035 797.475 188.594C797.783 188.152 797.938 187.613 797.938 186.977V186.789C797.938 186.148 797.783 185.607 797.475 185.166C797.166 184.725 796.705 184.504 796.092 184.504C795.479 184.504 795.016 184.725 794.703 185.166C794.395 185.607 794.24 186.148 794.24 186.789ZM803.035 188.166C803.035 187.533 803.289 187.041 803.797 186.689C804.309 186.334 804.959 186.156 805.748 186.156H807.189V185.711C807.189 185.344 807.09 185.047 806.891 184.82C806.691 184.59 806.35 184.475 805.865 184.475C805.381 184.475 805.033 184.572 804.822 184.768C804.615 184.963 804.512 185.189 804.512 185.447V185.477H803.404V185.447C803.404 184.951 803.629 184.518 804.078 184.146C804.527 183.775 805.133 183.59 805.895 183.59C806.66 183.59 807.252 183.768 807.67 184.123C808.092 184.479 808.303 185.008 808.303 185.711V188.594C808.303 188.848 808.322 189.088 808.361 189.314C808.4 189.537 808.457 189.734 808.531 189.906V190H807.453C807.395 189.902 807.342 189.773 807.295 189.613C807.252 189.453 807.225 189.295 807.213 189.139C807.064 189.396 806.822 189.625 806.486 189.824C806.154 190.02 805.725 190.117 805.197 190.117C804.6 190.117 804.09 189.949 803.668 189.613C803.246 189.277 803.035 188.795 803.035 188.166ZM804.148 188.107C804.148 188.459 804.254 188.734 804.465 188.934C804.676 189.129 805.002 189.227 805.443 189.227C805.889 189.227 806.291 189.078 806.65 188.781C807.01 188.484 807.189 188.17 807.189 187.838V186.953H805.865C805.303 186.953 804.875 187.057 804.582 187.264C804.293 187.471 804.148 187.752 804.148 188.107ZM810.02 190V183.766H811.027L811.074 184.568H811.109C811.27 184.307 811.48 184.078 811.742 183.883C812.008 183.688 812.322 183.59 812.686 183.59C812.771 183.59 812.861 183.6 812.955 183.619C813.053 183.639 813.121 183.656 813.16 183.672V184.709C813.082 184.693 812.998 184.682 812.908 184.674C812.822 184.666 812.727 184.662 812.621 184.662C812.258 184.662 811.949 184.756 811.695 184.943C811.441 185.131 811.254 185.361 811.133 185.635V190H810.02ZM813.717 186.977V186.789C813.717 185.879 813.957 185.129 814.438 184.539C814.918 183.945 815.561 183.648 816.365 183.648C816.807 183.648 817.193 183.74 817.525 183.924C817.861 184.104 818.109 184.32 818.27 184.574H818.305L818.352 183.766H819.359V192.438H818.246V189.262C818.062 189.52 817.812 189.727 817.496 189.883C817.184 190.039 816.807 190.117 816.365 190.117C815.561 190.117 814.918 189.82 814.438 189.227C813.957 188.633 813.717 187.883 813.717 186.977ZM814.854 186.977C814.854 187.602 814.994 188.129 815.275 188.559C815.561 188.984 816.004 189.197 816.605 189.197C817.012 189.197 817.355 189.09 817.637 188.875C817.918 188.656 818.121 188.41 818.246 188.137V185.629C818.121 185.352 817.918 185.105 817.637 184.891C817.355 184.672 817.012 184.562 816.605 184.562C816.004 184.562 815.561 184.777 815.275 185.207C814.994 185.633 814.854 186.16 814.854 186.789V186.977ZM821.035 187.756V183.766H822.148V187.768C822.148 188.271 822.262 188.633 822.488 188.852C822.719 189.066 823.045 189.174 823.467 189.174C823.826 189.174 824.143 189.08 824.416 188.893C824.689 188.701 824.902 188.453 825.055 188.148V183.766H826.174V190H825.16L825.113 189.191H825.084C824.85 189.48 824.566 189.707 824.234 189.871C823.902 190.035 823.535 190.117 823.133 190.117C822.492 190.117 821.982 189.936 821.604 189.572C821.225 189.209 821.035 188.604 821.035 187.756ZM827.967 190V183.766H829.08V190H827.967ZM827.838 181.914C827.838 181.73 827.896 181.576 828.014 181.451C828.135 181.322 828.305 181.258 828.523 181.258C828.742 181.258 828.91 181.322 829.027 181.451C829.148 181.576 829.209 181.73 829.209 181.914C829.209 182.102 829.148 182.26 829.027 182.389C828.91 182.514 828.742 182.576 828.523 182.576C828.305 182.576 828.135 182.514 828.014 182.389C827.896 182.26 827.838 182.102 827.838 181.914ZM830 183.766H831.09L832.602 187.908C832.66 188.064 832.709 188.211 832.748 188.348C832.787 188.484 832.816 188.604 832.836 188.705H832.871C832.891 188.604 832.92 188.484 832.959 188.348C832.998 188.211 833.045 188.064 833.1 187.908L834.605 183.766H835.66L833.264 190H832.396L830 183.766ZM836.064 186.977V186.789C836.064 185.848 836.336 185.08 836.879 184.486C837.422 183.889 838.146 183.59 839.053 183.59C839.959 183.59 840.684 183.889 841.227 184.486C841.77 185.08 842.041 185.848 842.041 186.789V186.977C842.041 187.918 841.77 188.688 841.227 189.285C840.684 189.879 839.959 190.176 839.053 190.176C838.146 190.176 837.422 189.879 836.879 189.285C836.336 188.688 836.064 187.918 836.064 186.977ZM837.201 186.789V186.977C837.201 187.613 837.355 188.152 837.664 188.594C837.977 189.035 838.439 189.256 839.053 189.256C839.666 189.256 840.127 189.035 840.436 188.594C840.744 188.152 840.898 187.613 840.898 186.977V186.789C840.898 186.148 840.744 185.607 840.436 185.166C840.127 184.725 839.666 184.504 839.053 184.504C838.439 184.504 837.977 184.725 837.664 185.166C837.355 185.607 837.201 186.148 837.201 186.789ZM843.395 189.379C843.395 189.172 843.461 188.996 843.594 188.852C843.727 188.703 843.918 188.629 844.168 188.629C844.422 188.629 844.615 188.703 844.748 188.852C844.881 188.996 844.947 189.172 844.947 189.379C844.947 189.586 844.881 189.764 844.748 189.912C844.615 190.057 844.422 190.129 844.168 190.129C843.918 190.129 843.727 190.057 843.594 189.912C843.461 189.764 843.395 189.586 843.395 189.379Z" fill="#475569"/>
<path d="M622.862 146.519C622.597 146.596 622.443 146.873 622.52 147.138L623.762 151.463C623.839 151.728 624.116 151.882 624.381 151.806C624.646 151.729 624.8 151.452 624.723 151.187L623.619 147.342L627.463 146.238C627.729 146.162 627.882 145.885 627.806 145.619C627.729 145.354 627.452 145.2 627.187 145.277L622.862 146.519ZM659.247 166.494L623.242 146.563L622.758 147.437L658.763 167.369L659.247 166.494Z" fill="#475569"/>
<g clip-path="url(#clip0_46_673)">
<path d="M188.121 26.2402V23.2285C188.121 22.3496 188.367 21.6406 188.859 21.1016C189.355 20.5625 190.043 20.293 190.922 20.293C191.793 20.293 192.479 20.5625 192.979 21.1016C193.479 21.6406 193.729 22.3496 193.729 23.2285V26.2402C193.729 27.123 193.479 27.834 192.979 28.373C192.479 28.9082 191.793 29.1758 190.922 29.1758C190.043 29.1758 189.355 28.9082 188.859 28.373C188.367 27.834 188.121 27.123 188.121 26.2402ZM189.281 26.2988C189.281 26.8574 189.414 27.3184 189.68 27.6816C189.949 28.041 190.363 28.2207 190.922 28.2207C191.48 28.2207 191.895 28.041 192.164 27.6816C192.434 27.3184 192.568 26.8574 192.568 26.2988V23.1699C192.568 22.6113 192.434 22.1523 192.164 21.793C191.895 21.4297 191.48 21.248 190.922 21.248C190.363 21.248 189.949 21.4297 189.68 21.793C189.414 22.1523 189.281 22.6113 189.281 23.1699V26.2988Z" fill="#A2A2A2"/>
<rect x="175" y="34" width="32" height="32" fill="#F9F9F9"/>
<rect x="175" y="34" width="32" height="32" stroke="#525252"/>
<path d="M186.34 53.541C186.34 52.5254 186.74 51.7311 187.541 51.1582C188.348 50.5853 189.38 50.2988 190.637 50.2988H192.941V49.5664C192.941 48.9479 192.779 48.4499 192.453 48.0723C192.134 47.6947 191.59 47.5059 190.822 47.5059C190.048 47.5059 189.488 47.6654 189.143 47.9844C188.804 48.2969 188.635 48.6712 188.635 49.1074V49.1855H186.926V49.0879C186.926 48.2936 187.277 47.6035 187.98 47.0176C188.69 46.4251 189.65 46.1289 190.861 46.1289C192.066 46.1289 192.997 46.4154 193.654 46.9883C194.318 47.5547 194.65 48.4141 194.65 49.5664V54.1562C194.65 54.5794 194.683 54.9798 194.748 55.3574C194.813 55.7285 194.904 56.0573 195.021 56.3438V56.5H193.371C193.28 56.3372 193.195 56.1257 193.117 55.8652C193.046 55.6048 193 55.3444 192.98 55.084C192.74 55.5007 192.352 55.8717 191.818 56.1973C191.291 56.5228 190.607 56.6855 189.768 56.6855C188.804 56.6855 187.99 56.4154 187.326 55.875C186.669 55.3346 186.34 54.5566 186.34 53.541ZM188.049 53.4531C188.049 54.0391 188.218 54.4948 188.557 54.8203C188.902 55.1458 189.426 55.3086 190.129 55.3086C190.845 55.3086 191.493 55.0645 192.072 54.5762C192.652 54.0814 192.941 53.554 192.941 52.9941V51.5391H190.832C189.914 51.5391 189.221 51.7116 188.752 52.0566C188.283 52.4017 188.049 52.8672 188.049 53.4531Z" fill="#262626"/>
<path d="M222.693 29V21.7285L220.49 22.6367V21.5234L223.637 20.3516H223.842V29H222.693Z" fill="#A2A2A2"/>
<rect x="207" y="34" width="32" height="32" fill="#F9F9F9"/>
<rect x="207" y="34" width="32" height="32" stroke="#525252"/>
<path d="M218.906 56.5V46.4121H220.459L220.527 47.7207H220.576C220.941 47.252 221.387 46.8841 221.914 46.6172C222.448 46.3503 223.04 46.2168 223.691 46.2168C224.701 46.2168 225.505 46.5033 226.104 47.0762C226.702 47.6491 227.002 48.6126 227.002 49.9668V56.5H225.293V49.957C225.293 49.1367 225.107 48.5508 224.736 48.1992C224.372 47.8411 223.851 47.6621 223.174 47.6621C222.601 47.6621 222.093 47.8184 221.65 48.1309C221.208 48.4434 220.863 48.8503 220.615 49.3516V56.5H218.906Z" fill="#262626"/>
<path d="M252.121 29V28.1445L255.244 24.8809C255.65 24.4629 255.959 24.0898 256.17 23.7617C256.385 23.4297 256.492 23.0703 256.492 22.6836C256.492 22.2969 256.357 21.9609 256.088 21.6758C255.818 21.3906 255.443 21.248 254.963 21.248C254.482 21.248 254.078 21.4023 253.75 21.7109C253.422 22.0156 253.258 22.4375 253.258 22.9766V23.0352H252.115V22.9766C252.115 22.1953 252.387 21.5527 252.93 21.0488C253.477 20.5449 254.154 20.293 254.963 20.293C255.764 20.293 256.408 20.5254 256.896 20.9902C257.389 21.4551 257.635 22 257.635 22.625C257.635 23.1836 257.477 23.6895 257.16 24.1426C256.844 24.5918 256.455 25.0508 255.994 25.5195L253.562 28.0156H257.869V29H252.121Z" fill="#A2A2A2"/>
<rect x="239" y="34" width="32" height="32" fill="#F9F9F9"/>
<rect x="239" y="34" width="32" height="32" stroke="#525252"/>
<path d="M250.34 53.541C250.34 52.5254 250.74 51.7311 251.541 51.1582C252.348 50.5853 253.38 50.2988 254.637 50.2988H256.941V49.5664C256.941 48.9479 256.779 48.4499 256.453 48.0723C256.134 47.6947 255.59 47.5059 254.822 47.5059C254.048 47.5059 253.488 47.6654 253.143 47.9844C252.804 48.2969 252.635 48.6712 252.635 49.1074V49.1855H250.926V49.0879C250.926 48.2936 251.277 47.6035 251.98 47.0176C252.69 46.4251 253.65 46.1289 254.861 46.1289C256.066 46.1289 256.997 46.4154 257.654 46.9883C258.318 47.5547 258.65 48.4141 258.65 49.5664V54.1562C258.65 54.5794 258.683 54.9798 258.748 55.3574C258.813 55.7285 258.904 56.0573 259.021 56.3438V56.5H257.371C257.28 56.3372 257.195 56.1257 257.117 55.8652C257.046 55.6048 257 55.3444 256.98 55.084C256.74 55.5007 256.352 55.8717 255.818 56.1973C255.291 56.5228 254.607 56.6855 253.768 56.6855C252.804 56.6855 251.99 56.4154 251.326 55.875C250.669 55.3346 250.34 54.5566 250.34 53.541ZM252.049 53.4531C252.049 54.0391 252.218 54.4948 252.557 54.8203C252.902 55.1458 253.426 55.3086 254.129 55.3086C254.845 55.3086 255.493 55.0645 256.072 54.5762C256.652 54.0814 256.941 53.554 256.941 52.9941V51.5391H254.832C253.914 51.5391 253.221 51.7116 252.752 52.0566C252.283 52.4017 252.049 52.8672 252.049 53.4531Z" fill="#262626"/>
<path d="M283.939 26.7617V26.7031H285.059V26.7617C285.059 27.2266 285.217 27.5879 285.533 27.8457C285.854 28.0996 286.277 28.2266 286.805 28.2266C287.332 28.2266 287.754 28.0996 288.07 27.8457C288.387 27.5879 288.545 27.1875 288.545 26.6445C288.545 26.1055 288.367 25.6992 288.012 25.4258C287.656 25.1523 287.18 25.0156 286.582 25.0156H285.885V24.0898H286.523C287.074 24.0898 287.498 23.9609 287.795 23.7031C288.096 23.4453 288.246 23.084 288.246 22.6191C288.246 22.1582 288.115 21.8145 287.854 21.5879C287.596 21.3574 287.246 21.2422 286.805 21.2422C286.352 21.2422 285.986 21.3574 285.709 21.5879C285.436 21.8145 285.299 22.1406 285.299 22.5664V22.625H284.18V22.5664C284.18 21.9375 284.424 21.4023 284.912 20.9609C285.4 20.5156 286.031 20.293 286.805 20.293C287.566 20.293 288.189 20.5039 288.674 20.9258C289.158 21.3477 289.4 21.8926 289.4 22.5605C289.4 22.9512 289.291 23.3262 289.072 23.6855C288.854 24.041 288.514 24.3164 288.053 24.5117V24.5352C288.553 24.6602 288.953 24.9082 289.254 25.2793C289.555 25.6504 289.705 26.1055 289.705 26.6445C289.705 27.4336 289.432 28.0527 288.885 28.502C288.338 28.9512 287.645 29.1758 286.805 29.1758C285.938 29.1758 285.242 28.9512 284.719 28.502C284.199 28.0488 283.939 27.4688 283.939 26.7617Z" fill="#A2A2A2"/>
<rect x="271" y="34" width="32" height="32" fill="#F9F9F9"/>
<rect x="271" y="34" width="32" height="32" stroke="#525252"/>
<path d="M282.611 56.5V42.2812H287.162C288.555 42.2812 289.649 42.584 290.443 43.1895C291.244 43.7884 291.645 44.7324 291.645 46.0215C291.645 46.8092 291.449 47.4538 291.059 47.9551C290.674 48.4499 290.193 48.7982 289.613 49V49.0391C290.323 49.2409 290.902 49.6283 291.352 50.2012C291.801 50.7676 292.025 51.5098 292.025 52.4277C292.025 53.7233 291.609 54.7259 290.775 55.4355C289.942 56.1452 288.835 56.5 287.455 56.5H282.611ZM284.34 55.0352H287.455C288.425 55.0352 289.135 54.8008 289.584 54.332C290.04 53.8633 290.268 53.2285 290.268 52.4277C290.268 51.627 290.04 50.9922 289.584 50.5234C289.135 50.0547 288.425 49.8203 287.455 49.8203H284.34V55.0352ZM284.34 48.375H287.162C288.132 48.375 288.829 48.1699 289.252 47.7598C289.682 47.3431 289.896 46.7669 289.896 46.0312C289.896 45.2891 289.682 44.7227 289.252 44.332C288.829 43.9414 288.132 43.7461 287.162 43.7461H284.34V48.375Z" fill="#262626"/>
<path d="M319.801 29V26.668V26.3633V22.2383H319.73L317.088 26.0527H320.088H320.545H322.098V27.002H315.775V26.2285L319.836 20.4688H320.885V29H319.801Z" fill="#A2A2A2"/>
<rect x="303" y="34" width="32" height="32" fill="#F9F9F9"/>
<rect x="303" y="34" width="32" height="32" stroke="#525252"/>
<path d="M314.34 53.541C314.34 52.5254 314.74 51.7311 315.541 51.1582C316.348 50.5853 317.38 50.2988 318.637 50.2988H320.941V49.5664C320.941 48.9479 320.779 48.4499 320.453 48.0723C320.134 47.6947 319.59 47.5059 318.822 47.5059C318.048 47.5059 317.488 47.6654 317.143 47.9844C316.804 48.2969 316.635 48.6712 316.635 49.1074V49.1855H314.926V49.0879C314.926 48.2936 315.277 47.6035 315.98 47.0176C316.69 46.4251 317.65 46.1289 318.861 46.1289C320.066 46.1289 320.997 46.4154 321.654 46.9883C322.318 47.5547 322.65 48.4141 322.65 49.5664V54.1562C322.65 54.5794 322.683 54.9798 322.748 55.3574C322.813 55.7285 322.904 56.0573 323.021 56.3438V56.5H321.371C321.28 56.3372 321.195 56.1257 321.117 55.8652C321.046 55.6048 321 55.3444 320.98 55.084C320.74 55.5007 320.352 55.8717 319.818 56.1973C319.291 56.5228 318.607 56.6855 317.768 56.6855C316.804 56.6855 315.99 56.4154 315.326 55.875C314.669 55.3346 314.34 54.5566 314.34 53.541ZM316.049 53.4531C316.049 54.0391 316.218 54.4948 316.557 54.8203C316.902 55.1458 317.426 55.3086 318.129 55.3086C318.845 55.3086 319.493 55.0645 320.072 54.5762C320.652 54.0814 320.941 53.554 320.941 52.9941V51.5391H318.832C317.914 51.5391 317.221 51.7116 316.752 52.0566C316.283 52.4017 316.049 52.8672 316.049 53.4531Z" fill="#262626"/>
<path d="M348.057 26.8496V26.791H349.164V26.8496C349.164 27.2754 349.318 27.6113 349.627 27.8574C349.939 28.1035 350.355 28.2266 350.875 28.2266C351.395 28.2266 351.82 28.0566 352.152 27.7168C352.484 27.373 352.65 26.8926 352.65 26.2754C352.65 25.6582 352.484 25.1875 352.152 24.8633C351.82 24.5391 351.395 24.377 350.875 24.377C350.52 24.377 350.205 24.4414 349.932 24.5703C349.658 24.6992 349.402 24.8809 349.164 25.1152L348.355 24.7285L348.789 20.4688H353.336V21.4941H349.727L349.475 23.8789C349.67 23.7578 349.902 23.6523 350.172 23.5625C350.445 23.4688 350.742 23.4219 351.062 23.4219C351.82 23.4219 352.463 23.6738 352.99 24.1777C353.521 24.6777 353.787 25.377 353.787 26.2754C353.787 27.1738 353.512 27.8828 352.961 28.4023C352.41 28.918 351.715 29.1758 350.875 29.1758C350 29.1758 349.311 28.9551 348.807 28.5137C348.307 28.0723 348.057 27.5176 348.057 26.8496Z" fill="#A2A2A2"/>
<rect x="335" y="34" width="32" height="32" fill="#F9F9F9"/>
<rect x="335" y="34" width="32" height="32" stroke="#525252"/>
<path d="M346.291 51.6074V51.2949C346.291 49.765 346.701 48.5215 347.521 47.5645C348.348 46.6074 349.478 46.1289 350.91 46.1289C352.251 46.1289 353.267 46.487 353.957 47.2031C354.647 47.9193 354.992 48.7363 354.992 49.6543V49.7129H353.332V49.6543C353.332 49.0814 353.137 48.5866 352.746 48.1699C352.362 47.7533 351.753 47.5449 350.92 47.5449C349.943 47.5449 349.217 47.903 348.742 48.6191C348.273 49.3288 348.039 50.2207 348.039 51.2949V51.6074C348.039 52.6686 348.273 53.5605 348.742 54.2832C349.217 55.0059 349.94 55.3672 350.91 55.3672C351.75 55.3672 352.362 55.1589 352.746 54.7422C353.137 54.319 353.332 53.8177 353.332 53.2383V53.1797H354.992V53.2383C354.992 54.1562 354.644 54.9766 353.947 55.6992C353.257 56.4219 352.245 56.7832 350.91 56.7832C349.478 56.7832 348.348 56.3047 347.521 55.3477C346.701 54.3841 346.291 53.1374 346.291 51.6074Z" fill="#262626"/>
</g>
<rect x="174.5" y="15.5" width="193" height="51" stroke="#4F46E4"/>
<g clip-path="url(#clip1_46_673)">
<path d="M384.121 26.2402V23.2285C384.121 22.3496 384.367 21.6406 384.859 21.1016C385.355 20.5625 386.043 20.293 386.922 20.293C387.793 20.293 388.479 20.5625 388.979 21.1016C389.479 21.6406 389.729 22.3496 389.729 23.2285V26.2402C389.729 27.123 389.479 27.834 388.979 28.373C388.479 28.9082 387.793 29.1758 386.922 29.1758C386.043 29.1758 385.355 28.9082 384.859 28.373C384.367 27.834 384.121 27.123 384.121 26.2402ZM385.281 26.2988C385.281 26.8574 385.414 27.3184 385.68 27.6816C385.949 28.041 386.363 28.2207 386.922 28.2207C387.48 28.2207 387.895 28.041 388.164 27.6816C388.434 27.3184 388.568 26.8574 388.568 26.2988V23.1699C388.568 22.6113 388.434 22.1523 388.164 21.793C387.895 21.4297 387.48 21.248 386.922 21.248C386.363 21.248 385.949 21.4297 385.68 21.793C385.414 22.1523 385.281 22.6113 385.281 23.1699V26.2988Z" fill="#A2A2A2"/>
<rect x="371" y="34" width="32" height="32" fill="#F9F9F9"/>
<rect x="371" y="34" width="32" height="32" stroke="#525252"/>
<path d="M382.34 53.541C382.34 52.5254 382.74 51.7311 383.541 51.1582C384.348 50.5853 385.38 50.2988 386.637 50.2988H388.941V49.5664C388.941 48.9479 388.779 48.4499 388.453 48.0723C388.134 47.6947 387.59 47.5059 386.822 47.5059C386.048 47.5059 385.488 47.6654 385.143 47.9844C384.804 48.2969 384.635 48.6712 384.635 49.1074V49.1855H382.926V49.0879C382.926 48.2936 383.277 47.6035 383.98 47.0176C384.69 46.4251 385.65 46.1289 386.861 46.1289C388.066 46.1289 388.997 46.4154 389.654 46.9883C390.318 47.5547 390.65 48.4141 390.65 49.5664V54.1562C390.65 54.5794 390.683 54.9798 390.748 55.3574C390.813 55.7285 390.904 56.0573 391.021 56.3438V56.5H389.371C389.28 56.3372 389.195 56.1257 389.117 55.8652C389.046 55.6048 389 55.3444 388.98 55.084C388.74 55.5007 388.352 55.8717 387.818 56.1973C387.291 56.5228 386.607 56.6855 385.768 56.6855C384.804 56.6855 383.99 56.4154 383.326 55.875C382.669 55.3346 382.34 54.5566 382.34 53.541ZM384.049 53.4531C384.049 54.0391 384.218 54.4948 384.557 54.8203C384.902 55.1458 385.426 55.3086 386.129 55.3086C386.845 55.3086 387.493 55.0645 388.072 54.5762C388.652 54.0814 388.941 53.554 388.941 52.9941V51.5391H386.832C385.914 51.5391 385.221 51.7116 384.752 52.0566C384.283 52.4017 384.049 52.8672 384.049 53.4531Z" fill="#262626"/>
<path d="M418.693 29V21.7285L416.49 22.6367V21.5234L419.637 20.3516H419.842V29H418.693Z" fill="#A2A2A2"/>
<rect x="403" y="34" width="32" height="32" fill="#F9F9F9"/>
<rect x="403" y="34" width="32" height="32" stroke="#525252"/>
<path d="M414.906 56.5V46.4121H416.459L416.527 47.7207H416.576C416.941 47.252 417.387 46.8841 417.914 46.6172C418.448 46.3503 419.04 46.2168 419.691 46.2168C420.701 46.2168 421.505 46.5033 422.104 47.0762C422.702 47.6491 423.002 48.6126 423.002 49.9668V56.5H421.293V49.957C421.293 49.1367 421.107 48.5508 420.736 48.1992C420.372 47.8411 419.851 47.6621 419.174 47.6621C418.601 47.6621 418.093 47.8184 417.65 48.1309C417.208 48.4434 416.863 48.8503 416.615 49.3516V56.5H414.906Z" fill="#262626"/>
<path d="M448.121 29V28.1445L451.244 24.8809C451.65 24.4629 451.959 24.0898 452.17 23.7617C452.385 23.4297 452.492 23.0703 452.492 22.6836C452.492 22.2969 452.357 21.9609 452.088 21.6758C451.818 21.3906 451.443 21.248 450.963 21.248C450.482 21.248 450.078 21.4023 449.75 21.7109C449.422 22.0156 449.258 22.4375 449.258 22.9766V23.0352H448.115V22.9766C448.115 22.1953 448.387 21.5527 448.93 21.0488C449.477 20.5449 450.154 20.293 450.963 20.293C451.764 20.293 452.408 20.5254 452.896 20.9902C453.389 21.4551 453.635 22 453.635 22.625C453.635 23.1836 453.477 23.6895 453.16 24.1426C452.844 24.5918 452.455 25.0508 451.994 25.5195L449.562 28.0156H453.869V29H448.121Z" fill="#A2A2A2"/>
<rect x="435" y="34" width="32" height="32" fill="#F9F9F9"/>
<rect x="435" y="34" width="32" height="32" stroke="#525252"/>
<path d="M446.34 53.541C446.34 52.5254 446.74 51.7311 447.541 51.1582C448.348 50.5853 449.38 50.2988 450.637 50.2988H452.941V49.5664C452.941 48.9479 452.779 48.4499 452.453 48.0723C452.134 47.6947 451.59 47.5059 450.822 47.5059C450.048 47.5059 449.488 47.6654 449.143 47.9844C448.804 48.2969 448.635 48.6712 448.635 49.1074V49.1855H446.926V49.0879C446.926 48.2936 447.277 47.6035 447.98 47.0176C448.69 46.4251 449.65 46.1289 450.861 46.1289C452.066 46.1289 452.997 46.4154 453.654 46.9883C454.318 47.5547 454.65 48.4141 454.65 49.5664V54.1562C454.65 54.5794 454.683 54.9798 454.748 55.3574C454.813 55.7285 454.904 56.0573 455.021 56.3438V56.5H453.371C453.28 56.3372 453.195 56.1257 453.117 55.8652C453.046 55.6048 453 55.3444 452.98 55.084C452.74 55.5007 452.352 55.8717 451.818 56.1973C451.291 56.5228 450.607 56.6855 449.768 56.6855C448.804 56.6855 447.99 56.4154 447.326 55.875C446.669 55.3346 446.34 54.5566 446.34 53.541ZM448.049 53.4531C448.049 54.0391 448.218 54.4948 448.557 54.8203C448.902 55.1458 449.426 55.3086 450.129 55.3086C450.845 55.3086 451.493 55.0645 452.072 54.5762C452.652 54.0814 452.941 53.554 452.941 52.9941V51.5391H450.832C449.914 51.5391 449.221 51.7116 448.752 52.0566C448.283 52.4017 448.049 52.8672 448.049 53.4531Z" fill="#262626"/>
<path d="M479.939 26.7617V26.7031H481.059V26.7617C481.059 27.2266 481.217 27.5879 481.533 27.8457C481.854 28.0996 482.277 28.2266 482.805 28.2266C483.332 28.2266 483.754 28.0996 484.07 27.8457C484.387 27.5879 484.545 27.1875 484.545 26.6445C484.545 26.1055 484.367 25.6992 484.012 25.4258C483.656 25.1523 483.18 25.0156 482.582 25.0156H481.885V24.0898H482.523C483.074 24.0898 483.498 23.9609 483.795 23.7031C484.096 23.4453 484.246 23.084 484.246 22.6191C484.246 22.1582 484.115 21.8145 483.854 21.5879C483.596 21.3574 483.246 21.2422 482.805 21.2422C482.352 21.2422 481.986 21.3574 481.709 21.5879C481.436 21.8145 481.299 22.1406 481.299 22.5664V22.625H480.18V22.5664C480.18 21.9375 480.424 21.4023 480.912 20.9609C481.4 20.5156 482.031 20.293 482.805 20.293C483.566 20.293 484.189 20.5039 484.674 20.9258C485.158 21.3477 485.4 21.8926 485.4 22.5605C485.4 22.9512 485.291 23.3262 485.072 23.6855C484.854 24.041 484.514 24.3164 484.053 24.5117V24.5352C484.553 24.6602 484.953 24.9082 485.254 25.2793C485.555 25.6504 485.705 26.1055 485.705 26.6445C485.705 27.4336 485.432 28.0527 484.885 28.502C484.338 28.9512 483.645 29.1758 482.805 29.1758C481.938 29.1758 481.242 28.9512 480.719 28.502C480.199 28.0488 479.939 27.4688 479.939 26.7617Z" fill="#A2A2A2"/>
<rect x="467" y="34" width="32" height="32" fill="#F9F9F9"/>
<rect x="467" y="34" width="32" height="32" stroke="#525252"/>
</g>
<rect x="370.5" y="15.5" width="129" height="51" stroke="#9233E9"/>
<rect x="16" y="16" width="16" height="16" rx="4" fill="#4F46E4"/>
<rect x="16" y="36" width="16" height="16" rx="4" fill="#9233E9"/>
<path d="M24.7071 59.2929C24.3166 58.9024 23.6834 58.9024 23.2929 59.2929L16.9289 65.6569C16.5384 66.0474 16.5384 66.6805 16.9289 67.0711C17.3195 67.4616 17.9526 67.4616 18.3431 67.0711L24 61.4142L29.6569 67.0711C30.0474 67.4616 30.6805 67.4616 31.0711 67.0711C31.4616 66.6805 31.4616 66.0474 31.0711 65.6569L24.7071 59.2929ZM25 80L25 60L23 60L23 80L25 80Z" fill="#525252"/>
<path d="M386.707 72.2929C386.317 71.9024 385.683 71.9024 385.293 72.2929L378.929 78.6569C378.538 79.0474 378.538 79.6805 378.929 80.0711C379.319 80.4616 379.953 80.4616 380.343 80.0711L386 74.4142L391.657 80.0711C392.047 80.4616 392.681 80.4616 393.071 80.0711C393.462 79.6805 393.462 79.0474 393.071 78.6569L386.707 72.2929ZM387 93L387 73L385 73L385 93L387 93Z" fill="#525252"/>
<path d="M39.9375 28V19.4688H42.8262C43.998 19.4688 44.9785 19.8242 45.7676 20.5352C46.5605 21.2461 46.957 22.2266 46.957 23.4766V23.9922C46.957 25.2422 46.5605 26.2227 45.7676 26.9336C44.9785 27.6445 43.998 28 42.8262 28H39.9375ZM41.6719 26.7109H42.8086C43.5195 26.7109 44.0918 26.4805 44.5254 26.0195C44.959 25.5547 45.1758 24.8867 45.1758 24.0156V23.4531C45.1758 22.582 44.959 21.916 44.5254 21.4551C44.0918 20.9941 43.5195 20.7637 42.8086 20.7637H41.6719V26.7109ZM48.3926 28V21.7246H50.0859V28H48.3926ZM48.2461 20.0137C48.2461 19.7598 48.332 19.5469 48.5039 19.375C48.6758 19.2031 48.9199 19.1172 49.2363 19.1172C49.5566 19.1172 49.8008 19.2031 49.9688 19.375C50.1406 19.5469 50.2266 19.7598 50.2266 20.0137C50.2266 20.2715 50.1406 20.4863 49.9688 20.6582C49.8008 20.8301 49.5566 20.916 49.2363 20.916C48.9199 20.916 48.6758 20.8301 48.5039 20.6582C48.332 20.4863 48.2461 20.2715 48.2461 20.0137ZM51.3574 24.9531V24.7656C51.3574 23.793 51.6465 23.0137 52.2246 22.4277C52.8066 21.8418 53.5859 21.5488 54.5625 21.5488C55.4844 21.5488 56.1855 21.7773 56.666 22.2344C57.1504 22.6875 57.4043 23.2168 57.4277 23.8223L57.4336 23.9043H55.7754V23.8457C55.7754 23.5527 55.6738 23.3047 55.4707 23.1016C55.2715 22.8945 54.9648 22.791 54.5508 22.791C54.0625 22.791 53.6953 22.9688 53.4492 23.3242C53.207 23.6758 53.0859 24.1348 53.0859 24.7012V25.0176C53.0859 25.584 53.2051 26.0449 53.4434 26.4004C53.6816 26.7559 54.0488 26.9336 54.5449 26.9336C54.9863 26.9336 55.3008 26.8281 55.4883 26.6172C55.6797 26.4023 55.7754 26.1543 55.7754 25.873V25.8203H57.4277V25.8789C57.4277 26.4844 57.1797 27.0195 56.6836 27.4844C56.1914 27.9453 55.4844 28.1758 54.5625 28.1758C53.5859 28.1758 52.8066 27.8828 52.2246 27.2969C51.6465 26.7109 51.3574 25.9297 51.3574 24.9531ZM58.5879 28V21.7246H60.2812V28H58.5879ZM58.4414 20.0137C58.4414 19.7598 58.5273 19.5469 58.6992 19.375C58.8711 19.2031 59.1152 19.1172 59.4316 19.1172C59.752 19.1172 59.9961 19.2031 60.1641 19.375C60.3359 19.5469 60.4219 19.7598 60.4219 20.0137C60.4219 20.2715 60.3359 20.4863 60.1641 20.6582C59.9961 20.8301 59.752 20.916 59.4316 20.916C59.1152 20.916 58.8711 20.8301 58.6992 20.6582C58.5273 20.4863 58.4414 20.2715 58.4414 20.0137ZM61.5527 24.9531V24.7656C61.5527 23.793 61.8516 23.0137 62.4492 22.4277C63.0469 21.8418 63.8301 21.5488 64.7988 21.5488C65.7715 21.5488 66.5566 21.8418 67.1543 22.4277C67.752 23.0137 68.0508 23.793 68.0508 24.7656V24.9531C68.0508 25.9258 67.752 26.707 67.1543 27.2969C66.5566 27.8828 65.7715 28.1758 64.7988 28.1758C63.8301 28.1758 63.0469 27.8828 62.4492 27.2969C61.8516 26.707 61.5527 25.9258 61.5527 24.9531ZM63.2812 24.7012V25.0176C63.2812 25.6035 63.4121 26.0645 63.6738 26.4004C63.9355 26.7363 64.3105 26.9043 64.7988 26.9043C65.291 26.9043 65.666 26.7363 65.9238 26.4004C66.1855 26.0645 66.3164 25.6035 66.3164 25.0176V24.7012C66.3164 24.1191 66.1836 23.6602 65.918 23.3242C65.6562 22.9883 65.2832 22.8203 64.7988 22.8203C64.3145 22.8203 63.9395 22.9883 63.6738 23.3242C63.4121 23.6602 63.2812 24.1191 63.2812 24.7012ZM69.3047 28V21.7246H70.8984L70.9395 22.4512H70.9746C71.1543 22.1934 71.4062 21.9883 71.7305 21.8359C72.0586 21.6797 72.418 21.6016 72.8086 21.6016C73.4688 21.6016 74.0039 21.7891 74.4141 22.1641C74.8242 22.5352 75.0293 23.1797 75.0293 24.0977V28H73.3418V24.0566C73.3418 23.6309 73.25 23.3301 73.0664 23.1543C72.8828 22.9785 72.623 22.8906 72.2871 22.8906C72.0098 22.8906 71.7559 22.9707 71.5254 23.1309C71.2949 23.2871 71.1172 23.502 70.9922 23.7754V28H69.3047ZM76.248 26.1543C76.248 25.4707 76.5234 24.9531 77.0742 24.6016C77.625 24.2461 78.3184 24.0664 79.1543 24.0625H80.4023V23.6699C80.4023 23.3809 80.3223 23.1484 80.1621 22.9727C80.0059 22.793 79.7324 22.7031 79.3418 22.7031C78.9512 22.7031 78.6719 22.7812 78.5039 22.9375C78.3398 23.0898 78.2578 23.2734 78.2578 23.4883V23.5586H76.582V23.4883C76.582 22.9414 76.8398 22.4824 77.3555 22.1113C77.875 21.7363 78.5566 21.5488 79.4004 21.5488C80.2441 21.5488 80.9043 21.7246 81.3809 22.0762C81.8574 22.4238 82.0957 22.957 82.0957 23.6758V26.6055C82.0957 26.8594 82.1172 27.0996 82.1602 27.3262C82.2031 27.5488 82.2617 27.7422 82.3359 27.9062V28H80.6777C80.6309 27.9062 80.5879 27.7852 80.5488 27.6367C80.5098 27.4844 80.4824 27.3359 80.4668 27.1914C80.3418 27.4336 80.1055 27.6484 79.7578 27.8359C79.4141 28.0234 78.9844 28.1172 78.4688 28.1172C77.8477 28.1172 77.3223 27.9531 76.8926 27.625C76.4629 27.293 76.248 26.8027 76.248 26.1543ZM77.9414 26.0312C77.9414 26.3164 78.0254 26.543 78.1934 26.7109C78.3613 26.8789 78.625 26.9629 78.9844 26.9629C79.3711 26.9629 79.7031 26.8418 79.9805 26.5996C80.2617 26.3535 80.4023 26.0723 80.4023 25.7559V25.0938H79.3535C78.8809 25.0938 78.5273 25.1777 78.293 25.3457C78.0586 25.5098 77.9414 25.7383 77.9414 26.0312ZM78.1055 20.0488L79.6055 18.1152L80.8828 18.9883L79.0254 20.7344L78.1055 20.0488ZM83.7305 28V21.7246H85.3301L85.3711 22.4277H85.4004C85.5332 22.1934 85.7129 21.9902 85.9395 21.8184C86.1699 21.6426 86.4336 21.5547 86.7305 21.5547C86.8125 21.5547 86.8965 21.5645 86.9824 21.584C87.0684 21.6035 87.1289 21.6211 87.1641 21.6367V23.0898C87.0938 23.0742 87.0176 23.0625 86.9355 23.0547C86.8574 23.043 86.7715 23.0371 86.6777 23.0371C86.3848 23.0371 86.127 23.1211 85.9043 23.2891C85.6855 23.4531 85.5254 23.6582 85.4238 23.9043V28H83.7305ZM88.1777 28V21.7246H89.8711V28H88.1777ZM88.0312 20.0137C88.0312 19.7598 88.1172 19.5469 88.2891 19.375C88.4609 19.2031 88.7051 19.1172 89.0215 19.1172C89.3418 19.1172 89.5859 19.2031 89.7539 19.375C89.9258 19.5469 90.0117 19.7598 90.0117 20.0137C90.0117 20.2715 89.9258 20.4863 89.7539 20.6582C89.5859 20.8301 89.3418 20.916 89.0215 20.916C88.7051 20.916 88.4609 20.8301 88.2891 20.6582C88.1172 20.4863 88.0312 20.2715 88.0312 20.0137ZM91.1426 24.9531V24.7656C91.1426 23.793 91.4414 23.0137 92.0391 22.4277C92.6367 21.8418 93.4199 21.5488 94.3887 21.5488C95.3613 21.5488 96.1465 21.8418 96.7441 22.4277C97.3418 23.0137 97.6406 23.793 97.6406 24.7656V24.9531C97.6406 25.9258 97.3418 26.707 96.7441 27.2969C96.1465 27.8828 95.3613 28.1758 94.3887 28.1758C93.4199 28.1758 92.6367 27.8828 92.0391 27.2969C91.4414 26.707 91.1426 25.9258 91.1426 24.9531ZM92.8711 24.7012V25.0176C92.8711 25.6035 93.002 26.0645 93.2637 26.4004C93.5254 26.7363 93.9004 26.9043 94.3887 26.9043C94.8809 26.9043 95.2559 26.7363 95.5137 26.4004C95.7754 26.0645 95.9062 25.6035 95.9062 25.0176V24.7012C95.9062 24.1191 95.7734 23.6602 95.5078 23.3242C95.2461 22.9883 94.873 22.8203 94.3887 22.8203C93.9043 22.8203 93.5293 22.9883 93.2637 23.3242C93.002 23.6602 92.8711 24.1191 92.8711 24.7012Z" fill="#4F46E4"/>
<path d="M39.9375 48V39.4688H43.1309C44.0957 39.4688 44.8535 39.6523 45.4043 40.0195C45.9551 40.3828 46.2305 40.9512 46.2305 41.7246C46.2305 42.1934 46.1191 42.5781 45.8965 42.8789C45.6777 43.1797 45.4043 43.3867 45.0762 43.5V43.5234C45.4785 43.6406 45.8086 43.8691 46.0664 44.209C46.3281 44.5449 46.459 44.9883 46.459 45.5391C46.459 46.3203 46.1699 46.9258 45.5918 47.3555C45.0137 47.7852 44.252 48 43.3066 48H39.9375ZM41.666 46.7695H43.2773C43.7773 46.7695 44.1426 46.6523 44.373 46.418C44.6074 46.1797 44.7246 45.8594 44.7246 45.457C44.7246 45.0586 44.6074 44.7422 44.373 44.5078C44.1426 44.2734 43.7773 44.1562 43.2773 44.1562H41.666V46.7695ZM41.666 42.9844H43.1074C43.6035 42.9844 43.959 42.8828 44.1738 42.6797C44.3926 42.4766 44.502 42.1953 44.502 41.8359C44.502 41.4727 44.3926 41.1934 44.1738 40.998C43.9551 40.8027 43.5996 40.7051 43.1074 40.7051H41.666V42.9844ZM47.7422 45.5625V41.7246H49.4297V45.6035C49.4297 46.0566 49.5234 46.375 49.7109 46.5586C49.8984 46.7422 50.1562 46.834 50.4844 46.834C50.7734 46.834 51.0312 46.752 51.2578 46.5879C51.4844 46.4199 51.6582 46.209 51.7793 45.9551V41.7246H53.4668V48H51.873L51.8262 47.2734H51.7969C51.6016 47.5391 51.3398 47.7461 51.0117 47.8945C50.6836 48.043 50.3223 48.1172 49.9277 48.1172C49.2793 48.1172 48.752 47.9219 48.3457 47.5312C47.9434 47.1367 47.7422 46.4805 47.7422 45.5625ZM55.2832 48V41.2969C55.2832 40.5039 55.5078 39.9062 55.957 39.5039C56.4102 39.1016 56.998 38.9004 57.7207 38.9004C57.8613 38.9004 57.998 38.9082 58.1309 38.9238C58.2676 38.9395 58.3926 38.9629 58.5059 38.9941L58.4531 40.2246C58.375 40.209 58.291 40.1953 58.2012 40.1836C58.1113 40.1719 58.0176 40.166 57.9199 40.166C57.623 40.166 57.3906 40.2617 57.2227 40.4531C57.0547 40.6445 56.9707 40.9336 56.9707 41.3203V42.2402V42.3691V48H55.2832ZM54.4102 42.9434V41.7246H55.9453H56.1855H58.1426V42.9434H54.4102ZM59.1035 48V41.2969C59.1035 40.5039 59.3281 39.9062 59.7773 39.5039C60.2305 39.1016 60.8184 38.9004 61.541 38.9004C61.6816 38.9004 61.8184 38.9082 61.9512 38.9238C62.0879 38.9395 62.2129 38.9629 62.3262 38.9941L62.2734 40.2246C62.1953 40.209 62.1113 40.1953 62.0215 40.1836C61.9316 40.1719 61.8379 40.166 61.7402 40.166C61.4434 40.166 61.2109 40.2617 61.043 40.4531C60.875 40.6445 60.791 40.9336 60.791 41.3203V42.2402V42.3691V48H59.1035ZM58.2305 42.9434V41.7246H59.7656H60.0059H61.9629V42.9434H58.2305ZM62.3262 44.9531V44.7656C62.3262 43.8047 62.6172 43.0293 63.1992 42.4395C63.7812 41.8457 64.5312 41.5488 65.4492 41.5488C66.375 41.5488 67.0977 41.8262 67.6172 42.3809C68.1406 42.9355 68.4023 43.6973 68.4023 44.666V45.2754H63.4863V44.1914H66.7207V44.0859C66.7168 43.7344 66.6094 43.4258 66.3984 43.1602C66.1875 42.8945 65.8672 42.7617 65.4375 42.7617C64.9766 42.7617 64.623 42.9414 64.377 43.3008C64.1309 43.6562 64.0078 44.125 64.0078 44.707V45.0117C64.0078 45.5859 64.1387 46.0527 64.4004 46.4121C64.666 46.7676 65.0605 46.9453 65.584 46.9453C65.9316 46.9453 66.2344 46.8613 66.4922 46.6934C66.75 46.5254 66.959 46.332 67.1191 46.1133L68.2793 46.9102C68.0801 47.2617 67.7441 47.5605 67.2715 47.8066C66.8027 48.0527 66.2461 48.1758 65.6016 48.1758C64.5703 48.1758 63.7656 47.8809 63.1875 47.291C62.6133 46.6973 62.3262 45.918 62.3262 44.9531ZM69.5625 48V41.7246H71.1621L71.2031 42.4277H71.2324C71.3652 42.1934 71.5449 41.9902 71.7715 41.8184C72.002 41.6426 72.2656 41.5547 72.5625 41.5547C72.6445 41.5547 72.7285 41.5645 72.8145 41.584C72.9004 41.6035 72.9609 41.6211 72.9961 41.6367V43.0898C72.9258 43.0742 72.8496 43.0625 72.7676 43.0547C72.6895 43.043 72.6035 43.0371 72.5098 43.0371C72.2168 43.0371 71.959 43.1211 71.7363 43.2891C71.5176 43.4531 71.3574 43.6582 71.2559 43.9043V48H69.5625Z" fill="#9233E9"/>
<path d="M39.9375 74V65.4688H43.1836C44.2031 65.4688 44.9883 65.709 45.5391 66.1895C46.0898 66.6699 46.3652 67.3418 46.3652 68.2051C46.3652 69.0684 46.0898 69.7461 45.5391 70.2383C44.9922 70.7266 44.207 70.9707 43.1836 70.9707H41.6777V74H39.9375ZM41.6777 69.6758H43.0723C43.6504 69.6758 44.0527 69.543 44.2793 69.2773C44.5059 69.0078 44.6191 68.6523 44.6191 68.2109C44.6191 67.7695 44.5059 67.418 44.2793 67.1562C44.0527 66.8945 43.6504 66.7637 43.0723 66.7637H41.6777V69.6758ZM47.1035 70.9531V70.7656C47.1035 69.793 47.4023 69.0137 48 68.4277C48.5977 67.8418 49.3809 67.5488 50.3496 67.5488C51.3223 67.5488 52.1074 67.8418 52.7051 68.4277C53.3027 69.0137 53.6016 69.793 53.6016 70.7656V70.9531C53.6016 71.9258 53.3027 72.707 52.7051 73.2969C52.1074 73.8828 51.3223 74.1758 50.3496 74.1758C49.3809 74.1758 48.5977 73.8828 48 73.2969C47.4023 72.707 47.1035 71.9258 47.1035 70.9531ZM48.832 70.7012V71.0176C48.832 71.6035 48.9629 72.0645 49.2246 72.4004C49.4863 72.7363 49.8613 72.9043 50.3496 72.9043C50.8418 72.9043 51.2168 72.7363 51.4746 72.4004C51.7363 72.0645 51.8672 71.6035 51.8672 71.0176V70.7012C51.8672 70.1191 51.7344 69.6602 51.4688 69.3242C51.207 68.9883 50.834 68.8203 50.3496 68.8203C49.8652 68.8203 49.4902 68.9883 49.2246 69.3242C48.9629 69.6602 48.832 70.1191 48.832 70.7012ZM54.8555 74V67.7246H56.4492L56.4902 68.4512H56.5254C56.7051 68.1934 56.957 67.9883 57.2812 67.8359C57.6094 67.6797 57.9688 67.6016 58.3594 67.6016C59.0195 67.6016 59.5547 67.7891 59.9648 68.1641C60.375 68.5352 60.5801 69.1797 60.5801 70.0977V74H58.8926V70.0566C58.8926 69.6309 58.8008 69.3301 58.6172 69.1543C58.4336 68.9785 58.1738 68.8906 57.8379 68.8906C57.5605 68.8906 57.3066 68.9707 57.0762 69.1309C56.8457 69.2871 56.668 69.502 56.543 69.7754V74H54.8555ZM61.3242 68.9434V67.7246H65.1855V68.9434H61.3242ZM62.2969 72.1836V68.3809L62.3027 68.2109V66.3477H63.9844V72.1602C63.9844 72.4375 64.0371 72.6328 64.1426 72.7461C64.248 72.8555 64.3984 72.9102 64.5938 72.9102C64.6914 72.9102 64.7871 72.8984 64.8809 72.875C64.9746 72.8516 65.0664 72.8223 65.1562 72.7871V73.9941C65.0625 74.041 64.9336 74.082 64.7695 74.1172C64.6055 74.1562 64.4277 74.1758 64.2363 74.1758C63.6504 74.1758 63.1797 74.0156 62.8242 73.6953C62.4727 73.375 62.2969 72.8711 62.2969 72.1836ZM65.9004 70.9531V70.7656C65.9004 69.8047 66.1914 69.0293 66.7734 68.4395C67.3555 67.8457 68.1055 67.5488 69.0234 67.5488C69.9492 67.5488 70.6719 67.8262 71.1914 68.3809C71.7148 68.9355 71.9766 69.6973 71.9766 70.666V71.2754H67.0605V70.1914H70.2949V70.0859C70.291 69.7344 70.1836 69.4258 69.9727 69.1602C69.7617 68.8945 69.4414 68.7617 69.0117 68.7617C68.5508 68.7617 68.1973 68.9414 67.9512 69.3008C67.7051 69.6562 67.582 70.125 67.582 70.707V71.0117C67.582 71.5859 67.7129 72.0527 67.9746 72.4121C68.2402 72.7676 68.6348 72.9453 69.1582 72.9453C69.5059 72.9453 69.8086 72.8613 70.0664 72.6934C70.3242 72.5254 70.5332 72.332 70.6934 72.1133L71.8535 72.9102C71.6543 73.2617 71.3184 73.5605 70.8457 73.8066C70.377 74.0527 69.8203 74.1758 69.1758 74.1758C68.1445 74.1758 67.3398 73.8809 66.7617 73.291C66.1875 72.6973 65.9004 71.918 65.9004 70.9531ZM73.166 74V67.7246H74.8594V74H73.166ZM73.0195 66.0137C73.0195 65.7598 73.1055 65.5469 73.2773 65.375C73.4492 65.2031 73.6934 65.1172 74.0098 65.1172C74.3301 65.1172 74.5742 65.2031 74.7422 65.375C74.9141 65.5469 75 65.7598 75 66.0137C75 66.2715 74.9141 66.4863 74.7422 66.6582C74.5742 66.8301 74.3301 66.916 74.0098 66.916C73.6934 66.916 73.4492 66.8301 73.2773 66.6582C73.1055 66.4863 73.0195 66.2715 73.0195 66.0137ZM76.4766 74V67.7246H78.0762L78.1172 68.4277H78.1465C78.2793 68.1934 78.459 67.9902 78.6855 67.8184C78.916 67.6426 79.1797 67.5547 79.4766 67.5547C79.5586 67.5547 79.6426 67.5645 79.7285 67.584C79.8145 67.6035 79.875 67.6211 79.9102 67.6367V69.0898C79.8398 69.0742 79.7637 69.0625 79.6816 69.0547C79.6035 69.043 79.5176 69.0371 79.4238 69.0371C79.1309 69.0371 78.873 69.1211 78.6504 69.2891C78.4316 69.4531 78.2715 69.6582 78.1699 69.9043V74H76.4766ZM80.4316 70.9531V70.7656C80.4316 69.793 80.7305 69.0137 81.3281 68.4277C81.9258 67.8418 82.709 67.5488 83.6777 67.5488C84.6504 67.5488 85.4355 67.8418 86.0332 68.4277C86.6309 69.0137 86.9297 69.793 86.9297 70.7656V70.9531C86.9297 71.9258 86.6309 72.707 86.0332 73.2969C85.4355 73.8828 84.6504 74.1758 83.6777 74.1758C82.709 74.1758 81.9258 73.8828 81.3281 73.2969C80.7305 72.707 80.4316 71.9258 80.4316 70.9531ZM82.1602 70.7012V71.0176C82.1602 71.6035 82.291 72.0645 82.5527 72.4004C82.8145 72.7363 83.1895 72.9043 83.6777 72.9043C84.1699 72.9043 84.5449 72.7363 84.8027 72.4004C85.0645 72.0645 85.1953 71.6035 85.1953 71.0176V70.7012C85.1953 70.1191 85.0625 69.6602 84.7969 69.3242C84.5352 68.9883 84.1621 68.8203 83.6777 68.8203C83.1934 68.8203 82.8184 68.9883 82.5527 69.3242C82.291 69.6602 82.1602 70.1191 82.1602 70.7012Z" fill="#525252"/>
<path d="M190.945 138.812L182.977 135.102V133.773L190.945 130.062V131.82L185.018 134.389L190.945 136.967V138.812ZM193.035 136.547V131.234C193.035 129.796 193.426 128.646 194.207 127.787C194.995 126.928 196.085 126.498 197.479 126.498C198.859 126.498 199.943 126.928 200.73 127.787C201.525 128.646 201.922 129.796 201.922 131.234V136.547C201.922 137.986 201.525 139.135 200.73 139.994C199.943 140.854 198.859 141.283 197.479 141.283C196.085 141.277 194.995 140.847 194.207 139.994C193.426 139.135 193.035 137.986 193.035 136.547ZM194.812 136.645C194.812 137.582 195.031 138.347 195.467 138.939C195.903 139.525 196.574 139.818 197.479 139.818C198.377 139.818 199.044 139.525 199.48 138.939C199.917 138.347 200.135 137.582 200.135 136.645V131.137C200.135 130.199 199.917 129.438 199.48 128.852C199.044 128.259 198.377 127.963 197.479 127.963C196.574 127.963 195.903 128.259 195.467 128.852C195.031 129.438 194.812 130.199 194.812 131.137V136.645ZM204.08 143.031C204.38 142.634 204.611 142.227 204.773 141.811C204.936 141.394 205.018 140.906 205.018 140.346V138.939H206.678V140.346C206.678 141.029 206.531 141.654 206.238 142.221C205.945 142.787 205.555 143.282 205.066 143.705L204.08 143.031ZM209.578 136.547V131.234C209.578 129.796 209.969 128.646 210.75 127.787C211.538 126.928 212.628 126.498 214.021 126.498C215.402 126.498 216.486 126.928 217.273 127.787C218.068 128.646 218.465 129.796 218.465 131.234V136.547C218.465 137.986 218.068 139.135 217.273 139.994C216.486 140.854 215.402 141.283 214.021 141.283C212.628 141.277 211.538 140.847 210.75 139.994C209.969 139.135 209.578 137.986 209.578 136.547ZM211.355 136.645C211.355 137.582 211.574 138.347 212.01 138.939C212.446 139.525 213.117 139.818 214.021 139.818C214.92 139.818 215.587 139.525 216.023 138.939C216.46 138.347 216.678 137.582 216.678 136.645V131.137C216.678 130.199 216.46 129.438 216.023 128.852C215.587 128.259 214.92 127.963 214.021 127.963C213.117 127.963 212.446 128.259 212.01 128.852C211.574 129.438 211.355 130.199 211.355 131.137V136.645ZM220.623 143.031C220.923 142.634 221.154 142.227 221.316 141.811C221.479 141.394 221.561 140.906 221.561 140.346V138.939H223.221V140.346C223.221 141.029 223.074 141.654 222.781 142.221C222.488 142.787 222.098 143.282 221.609 143.705L220.623 143.031ZM226.697 141V126.781H231.248C232.641 126.781 233.735 127.084 234.529 127.689C235.33 128.288 235.73 129.232 235.73 130.521C235.73 131.309 235.535 131.954 235.145 132.455C234.76 132.95 234.279 133.298 233.699 133.5V133.539C234.409 133.741 234.988 134.128 235.438 134.701C235.887 135.268 236.111 136.01 236.111 136.928C236.111 138.223 235.695 139.226 234.861 139.936C234.028 140.645 232.921 141 231.541 141H226.697ZM228.426 139.535H231.541C232.511 139.535 233.221 139.301 233.67 138.832C234.126 138.363 234.354 137.729 234.354 136.928C234.354 136.127 234.126 135.492 233.67 135.023C233.221 134.555 232.511 134.32 231.541 134.32H228.426V139.535ZM228.426 132.875H231.248C232.218 132.875 232.915 132.67 233.338 132.26C233.768 131.843 233.982 131.267 233.982 130.531C233.982 129.789 233.768 129.223 233.338 128.832C232.915 128.441 232.218 128.246 231.248 128.246H228.426V132.875ZM238.094 138.812V137.045L244.021 134.477L238.094 131.908V130.062L246.062 133.773V135.102L238.094 138.812ZM248.162 143.031C248.462 142.634 248.693 142.227 248.855 141.811C249.018 141.394 249.1 140.906 249.1 140.346V138.939H250.76V140.346C250.76 141.029 250.613 141.654 250.32 142.221C250.027 142.787 249.637 143.282 249.148 143.705L248.162 143.031ZM261.57 138.812L253.602 135.102V133.773L261.57 130.062V131.82L255.643 134.389L261.57 136.967V138.812ZM263.66 136.547V131.234C263.66 129.796 264.051 128.646 264.832 127.787C265.62 126.928 266.71 126.498 268.104 126.498C269.484 126.498 270.568 126.928 271.355 127.787C272.15 128.646 272.547 129.796 272.547 131.234V136.547C272.547 137.986 272.15 139.135 271.355 139.994C270.568 140.854 269.484 141.283 268.104 141.283C266.71 141.277 265.62 140.847 264.832 139.994C264.051 139.135 263.66 137.986 263.66 136.547ZM265.438 136.645C265.438 137.582 265.656 138.347 266.092 138.939C266.528 139.525 267.199 139.818 268.104 139.818C269.002 139.818 269.669 139.525 270.105 138.939C270.542 138.347 270.76 137.582 270.76 136.645V131.137C270.76 130.199 270.542 129.438 270.105 128.852C269.669 128.259 269.002 127.963 268.104 127.963C267.199 127.963 266.528 128.259 266.092 128.852C265.656 129.438 265.438 130.199 265.438 131.137V136.645ZM274.705 143.031C275.005 142.634 275.236 142.227 275.398 141.811C275.561 141.394 275.643 140.906 275.643 140.346V138.939H277.303V140.346C277.303 141.029 277.156 141.654 276.863 142.221C276.57 142.787 276.18 143.282 275.691 143.705L274.705 143.031ZM280.203 136.547V131.234C280.203 129.796 280.594 128.646 281.375 127.787C282.163 126.928 283.253 126.498 284.646 126.498C286.027 126.498 287.111 126.928 287.898 127.787C288.693 128.646 289.09 129.796 289.09 131.234V136.547C289.09 137.986 288.693 139.135 287.898 139.994C287.111 140.854 286.027 141.283 284.646 141.283C283.253 141.277 282.163 140.847 281.375 139.994C280.594 139.135 280.203 137.986 280.203 136.547ZM281.98 136.645C281.98 137.582 282.199 138.347 282.635 138.939C283.071 139.525 283.742 139.818 284.646 139.818C285.545 139.818 286.212 139.525 286.648 138.939C287.085 138.347 287.303 137.582 287.303 136.645V131.137C287.303 130.199 287.085 129.438 286.648 128.852C286.212 128.259 285.545 127.963 284.646 127.963C283.742 127.963 283.071 128.259 282.635 128.852C282.199 129.438 281.98 130.199 281.98 131.137V136.645ZM291.248 143.031C291.548 142.634 291.779 142.227 291.941 141.811C292.104 141.394 292.186 140.906 292.186 140.346V138.939H293.846V140.346C293.846 141.029 293.699 141.654 293.406 142.221C293.113 142.787 292.723 143.282 292.234 143.705L291.248 143.031ZM296.551 138.041C296.551 137.025 296.951 136.231 297.752 135.658C298.559 135.085 299.591 134.799 300.848 134.799H303.152V134.066C303.152 133.448 302.99 132.95 302.664 132.572C302.345 132.195 301.801 132.006 301.033 132.006C300.258 132.006 299.699 132.165 299.354 132.484C299.015 132.797 298.846 133.171 298.846 133.607V133.686H297.137V133.588C297.137 132.794 297.488 132.104 298.191 131.518C298.901 130.925 299.861 130.629 301.072 130.629C302.277 130.629 303.208 130.915 303.865 131.488C304.529 132.055 304.861 132.914 304.861 134.066V138.656C304.861 139.079 304.894 139.48 304.959 139.857C305.024 140.229 305.115 140.557 305.232 140.844V141H303.582C303.491 140.837 303.406 140.626 303.328 140.365C303.257 140.105 303.211 139.844 303.191 139.584C302.951 140.001 302.563 140.372 302.029 140.697C301.502 141.023 300.818 141.186 299.979 141.186C299.015 141.186 298.201 140.915 297.537 140.375C296.88 139.835 296.551 139.057 296.551 138.041ZM298.26 137.953C298.26 138.539 298.429 138.995 298.768 139.32C299.113 139.646 299.637 139.809 300.34 139.809C301.056 139.809 301.704 139.564 302.283 139.076C302.863 138.581 303.152 138.054 303.152 137.494V136.039H301.043C300.125 136.039 299.432 136.212 298.963 136.557C298.494 136.902 298.26 137.367 298.26 137.953ZM307.273 138.812V137.045L313.201 134.477L307.273 131.908V130.062L315.242 133.773V135.102L307.273 138.812ZM317.342 143.031C317.641 142.634 317.872 142.227 318.035 141.811C318.198 141.394 318.279 140.906 318.279 140.346V138.939H319.939V140.346C319.939 141.029 319.793 141.654 319.5 142.221C319.207 142.787 318.816 143.282 318.328 143.705L317.342 143.031ZM330.75 138.812L322.781 135.102V133.773L330.75 130.062V131.82L324.822 134.389L330.75 136.967V138.812ZM332.84 136.547V131.234C332.84 129.796 333.23 128.646 334.012 127.787C334.799 126.928 335.89 126.498 337.283 126.498C338.663 126.498 339.747 126.928 340.535 127.787C341.329 128.646 341.727 129.796 341.727 131.234V136.547C341.727 137.986 341.329 139.135 340.535 139.994C339.747 140.854 338.663 141.283 337.283 141.283C335.89 141.277 334.799 140.847 334.012 139.994C333.23 139.135 332.84 137.986 332.84 136.547ZM334.617 136.645C334.617 137.582 334.835 138.347 335.271 138.939C335.708 139.525 336.378 139.818 337.283 139.818C338.182 139.818 338.849 139.525 339.285 138.939C339.721 138.347 339.939 137.582 339.939 136.645V131.137C339.939 130.199 339.721 129.438 339.285 128.852C338.849 128.259 338.182 127.963 337.283 127.963C336.378 127.963 335.708 128.259 335.271 128.852C334.835 129.438 334.617 130.199 334.617 131.137V136.645ZM343.885 143.031C344.184 142.634 344.415 142.227 344.578 141.811C344.741 141.394 344.822 140.906 344.822 140.346V138.939H346.482V140.346C346.482 141.029 346.336 141.654 346.043 142.221C345.75 142.787 345.359 143.282 344.871 143.705L343.885 143.031ZM349.383 136.547V131.234C349.383 129.796 349.773 128.646 350.555 127.787C351.342 126.928 352.433 126.498 353.826 126.498C355.206 126.498 356.29 126.928 357.078 127.787C357.872 128.646 358.27 129.796 358.27 131.234V136.547C358.27 137.986 357.872 139.135 357.078 139.994C356.29 140.854 355.206 141.283 353.826 141.283C352.433 141.277 351.342 140.847 350.555 139.994C349.773 139.135 349.383 137.986 349.383 136.547ZM351.16 136.645C351.16 137.582 351.378 138.347 351.814 138.939C352.251 139.525 352.921 139.818 353.826 139.818C354.725 139.818 355.392 139.525 355.828 138.939C356.264 138.347 356.482 137.582 356.482 136.645V131.137C356.482 130.199 356.264 129.438 355.828 128.852C355.392 128.259 354.725 127.963 353.826 127.963C352.921 127.963 352.251 128.259 351.814 128.852C351.378 129.438 351.16 130.199 351.16 131.137V136.645ZM360.428 143.031C360.727 142.634 360.958 142.227 361.121 141.811C361.284 141.394 361.365 140.906 361.365 140.346V138.939H363.025V140.346C363.025 141.029 362.879 141.654 362.586 142.221C362.293 142.787 361.902 143.282 361.414 143.705L360.428 143.031ZM366.297 141V130.912H367.85L367.918 132.221H367.967C368.331 131.752 368.777 131.384 369.305 131.117C369.839 130.85 370.431 130.717 371.082 130.717C372.091 130.717 372.895 131.003 373.494 131.576C374.093 132.149 374.393 133.113 374.393 134.467V141H372.684V134.457C372.684 133.637 372.498 133.051 372.127 132.699C371.762 132.341 371.242 132.162 370.564 132.162C369.992 132.162 369.484 132.318 369.041 132.631C368.598 132.943 368.253 133.35 368.006 133.852V141H366.297ZM376.766 138.812V137.045L382.693 134.477L376.766 131.908V130.062L384.734 133.773V135.102L376.766 138.812ZM386.834 143.031C387.133 142.634 387.365 142.227 387.527 141.811C387.69 141.394 387.771 140.906 387.771 140.346V138.939H389.432V140.346C389.432 141.029 389.285 141.654 388.992 142.221C388.699 142.787 388.309 143.282 387.82 143.705L386.834 143.031ZM400.242 138.812L392.273 135.102V133.773L400.242 130.062V131.82L394.314 134.389L400.242 136.967V138.812ZM402.303 141V139.711L407.293 134.174C407.951 133.464 408.455 132.823 408.807 132.25C409.158 131.677 409.334 131.065 409.334 130.414C409.334 129.73 409.109 129.151 408.66 128.676C408.217 128.201 407.609 127.963 406.834 127.963C406.059 127.963 405.402 128.217 404.861 128.725C404.327 129.226 404.061 129.945 404.061 130.883V130.99H402.303V130.883C402.303 129.581 402.736 128.526 403.602 127.719C404.474 126.905 405.551 126.498 406.834 126.498C408.104 126.498 409.129 126.872 409.91 127.621C410.698 128.37 411.092 129.268 411.092 130.316C411.092 131.221 410.841 132.048 410.34 132.797C409.839 133.539 409.214 134.317 408.465 135.131L404.49 139.467H411.473V141H402.303ZM413.377 143.031C413.676 142.634 413.908 142.227 414.07 141.811C414.233 141.394 414.314 140.906 414.314 140.346V138.939H415.975V140.346C415.975 141.029 415.828 141.654 415.535 142.221C415.242 142.787 414.852 143.282 414.363 143.705L413.377 143.031ZM418.846 141V139.711L423.836 134.174C424.493 133.464 424.998 132.823 425.35 132.25C425.701 131.677 425.877 131.065 425.877 130.414C425.877 129.73 425.652 129.151 425.203 128.676C424.76 128.201 424.152 127.963 423.377 127.963C422.602 127.963 421.945 128.217 421.404 128.725C420.87 129.226 420.604 129.945 420.604 130.883V130.99H418.846V130.883C418.846 129.581 419.279 128.526 420.145 127.719C421.017 126.905 422.094 126.498 423.377 126.498C424.646 126.498 425.672 126.872 426.453 127.621C427.241 128.37 427.635 129.268 427.635 130.316C427.635 131.221 427.384 132.048 426.883 132.797C426.382 133.539 425.757 134.317 425.008 135.131L421.033 139.467H428.016V141H418.846ZM429.92 143.031C430.219 142.634 430.451 142.227 430.613 141.811C430.776 141.394 430.857 140.906 430.857 140.346V138.939H432.518V140.346C432.518 141.029 432.371 141.654 432.078 142.221C431.785 142.787 431.395 143.282 430.906 143.705L429.92 143.031ZM435.223 138.041C435.223 137.025 435.623 136.231 436.424 135.658C437.231 135.085 438.263 134.799 439.52 134.799H441.824V134.066C441.824 133.448 441.661 132.95 441.336 132.572C441.017 132.195 440.473 132.006 439.705 132.006C438.93 132.006 438.37 132.165 438.025 132.484C437.687 132.797 437.518 133.171 437.518 133.607V133.686H435.809V133.588C435.809 132.794 436.16 132.104 436.863 131.518C437.573 130.925 438.533 130.629 439.744 130.629C440.949 130.629 441.88 130.915 442.537 131.488C443.201 132.055 443.533 132.914 443.533 134.066V138.656C443.533 139.079 443.566 139.48 443.631 139.857C443.696 140.229 443.787 140.557 443.904 140.844V141H442.254C442.163 140.837 442.078 140.626 442 140.365C441.928 140.105 441.883 139.844 441.863 139.584C441.622 140.001 441.235 140.372 440.701 140.697C440.174 141.023 439.49 141.186 438.65 141.186C437.687 141.186 436.873 140.915 436.209 140.375C435.551 139.835 435.223 139.057 435.223 138.041ZM436.932 137.953C436.932 138.539 437.101 138.995 437.439 139.32C437.785 139.646 438.309 139.809 439.012 139.809C439.728 139.809 440.376 139.564 440.955 139.076C441.535 138.581 441.824 138.054 441.824 137.494V136.039H439.715C438.797 136.039 438.104 136.212 437.635 136.557C437.166 136.902 436.932 137.367 436.932 137.953ZM445.945 138.812V137.045L451.873 134.477L445.945 131.908V130.062L453.914 133.773V135.102L445.945 138.812ZM456.014 143.031C456.313 142.634 456.544 142.227 456.707 141.811C456.87 141.394 456.951 140.906 456.951 140.346V138.939H458.611V140.346C458.611 141.029 458.465 141.654 458.172 142.221C457.879 142.787 457.488 143.282 457 143.705L456.014 143.031ZM469.422 138.812L461.453 135.102V133.773L469.422 130.062V131.82L463.494 134.389L469.422 136.967V138.812ZM471.297 135.004V134.711C471.297 132.224 471.951 130.235 473.26 128.744C474.568 127.247 476.417 126.498 478.807 126.498H479.002V127.963H478.807C477.023 127.963 475.613 128.503 474.578 129.584C473.543 130.658 473.025 132.344 473.025 134.643V135.092C473.025 136.811 473.318 138.028 473.904 138.744C474.497 139.46 475.249 139.818 476.16 139.818C477.059 139.818 477.758 139.532 478.26 138.959C478.761 138.38 479.012 137.553 479.012 136.479C479.012 135.424 478.761 134.613 478.26 134.047C477.765 133.48 477.065 133.197 476.16 133.197C475.32 133.197 474.578 133.484 473.934 134.057C473.296 134.63 472.977 135.434 472.977 136.469H472.303C472.303 135.056 472.687 133.913 473.455 133.041C474.23 132.162 475.252 131.723 476.521 131.723C477.804 131.723 478.829 132.159 479.598 133.031C480.372 133.904 480.76 135.053 480.76 136.479C480.76 137.911 480.327 139.07 479.461 139.955C478.595 140.84 477.492 141.283 476.15 141.283C474.803 141.283 473.657 140.792 472.713 139.809C471.769 138.819 471.297 137.217 471.297 135.004ZM482.557 143.031C482.856 142.634 483.087 142.227 483.25 141.811C483.413 141.394 483.494 140.906 483.494 140.346V138.939H485.154V140.346C485.154 141.029 485.008 141.654 484.715 142.221C484.422 142.787 484.031 143.282 483.543 143.705L482.557 143.031ZM488.025 141V139.711L493.016 134.174C493.673 133.464 494.178 132.823 494.529 132.25C494.881 131.677 495.057 131.065 495.057 130.414C495.057 129.73 494.832 129.151 494.383 128.676C493.94 128.201 493.331 127.963 492.557 127.963C491.782 127.963 491.124 128.217 490.584 128.725C490.05 129.226 489.783 129.945 489.783 130.883V130.99H488.025V130.883C488.025 129.581 488.458 128.526 489.324 127.719C490.197 126.905 491.274 126.498 492.557 126.498C493.826 126.498 494.852 126.872 495.633 127.621C496.421 128.37 496.814 129.268 496.814 130.316C496.814 131.221 496.564 132.048 496.062 132.797C495.561 133.539 494.936 134.317 494.188 135.131L490.213 139.467H497.195V141H488.025ZM499.1 143.031C499.399 142.634 499.63 142.227 499.793 141.811C499.956 141.394 500.037 140.906 500.037 140.346V138.939H501.697V140.346C501.697 141.029 501.551 141.654 501.258 142.221C500.965 142.787 500.574 143.282 500.086 143.705L499.1 143.031ZM504.178 136.107V135.795C504.178 134.265 504.588 133.021 505.408 132.064C506.235 131.107 507.365 130.629 508.797 130.629C510.138 130.629 511.154 130.987 511.844 131.703C512.534 132.419 512.879 133.236 512.879 134.154V134.213H511.219V134.154C511.219 133.581 511.023 133.087 510.633 132.67C510.249 132.253 509.64 132.045 508.807 132.045C507.83 132.045 507.104 132.403 506.629 133.119C506.16 133.829 505.926 134.721 505.926 135.795V136.107C505.926 137.169 506.16 138.061 506.629 138.783C507.104 139.506 507.827 139.867 508.797 139.867C509.637 139.867 510.249 139.659 510.633 139.242C511.023 138.819 511.219 138.318 511.219 137.738V137.68H512.879V137.738C512.879 138.656 512.531 139.477 511.834 140.199C511.144 140.922 510.132 141.283 508.797 141.283C507.365 141.283 506.235 140.805 505.408 139.848C504.588 138.884 504.178 137.637 504.178 136.107ZM514.598 138.812V137.045L520.525 134.477L514.598 131.908V130.062L522.566 133.773V135.102L514.598 138.812ZM524.666 143.031C524.965 142.634 525.197 142.227 525.359 141.811C525.522 141.394 525.604 140.906 525.604 140.346V138.939H527.264V140.346C527.264 141.029 527.117 141.654 526.824 142.221C526.531 142.787 526.141 143.282 525.652 143.705L524.666 143.031ZM538.074 138.812L530.105 135.102V133.773L538.074 130.062V131.82L532.146 134.389L538.074 136.967V138.812ZM539.949 135.004V134.711C539.949 132.224 540.604 130.235 541.912 128.744C543.221 127.247 545.07 126.498 547.459 126.498H547.654V127.963H547.459C545.675 127.963 544.266 128.503 543.23 129.584C542.195 130.658 541.678 132.344 541.678 134.643V135.092C541.678 136.811 541.971 138.028 542.557 138.744C543.149 139.46 543.901 139.818 544.812 139.818C545.711 139.818 546.411 139.532 546.912 138.959C547.413 138.38 547.664 137.553 547.664 136.479C547.664 135.424 547.413 134.613 546.912 134.047C546.417 133.48 545.717 133.197 544.812 133.197C543.973 133.197 543.23 133.484 542.586 134.057C541.948 134.63 541.629 135.434 541.629 136.469H540.955C540.955 135.056 541.339 133.913 542.107 133.041C542.882 132.162 543.904 131.723 545.174 131.723C546.456 131.723 547.482 132.159 548.25 133.031C549.025 133.904 549.412 135.053 549.412 136.479C549.412 137.911 548.979 139.07 548.113 139.955C547.247 140.84 546.144 141.283 544.803 141.283C543.455 141.283 542.309 140.792 541.365 139.809C540.421 138.819 539.949 137.217 539.949 135.004ZM551.209 143.031C551.508 142.634 551.74 142.227 551.902 141.811C552.065 141.394 552.146 140.906 552.146 140.346V138.939H553.807V140.346C553.807 141.029 553.66 141.654 553.367 142.221C553.074 142.787 552.684 143.282 552.195 143.705L551.209 143.031ZM556.395 137.299V137.182H558.104V137.299C558.104 138.106 558.367 138.728 558.895 139.164C559.422 139.6 560.112 139.818 560.965 139.818C561.831 139.818 562.521 139.6 563.035 139.164C563.549 138.721 563.807 138.035 563.807 137.104C563.807 136.173 563.514 135.473 562.928 135.004C562.342 134.535 561.564 134.301 560.594 134.301H559.422V132.875H560.506C561.391 132.875 562.081 132.657 562.576 132.221C563.077 131.785 563.328 131.153 563.328 130.326C563.328 129.532 563.113 128.939 562.684 128.549C562.26 128.158 561.688 127.963 560.965 127.963C560.203 127.963 559.601 128.161 559.158 128.559C558.715 128.956 558.494 129.519 558.494 130.248V130.365H556.775V130.248C556.775 129.193 557.163 128.305 557.938 127.582C558.719 126.859 559.728 126.498 560.965 126.498C562.169 126.498 563.159 126.843 563.934 127.533C564.708 128.223 565.096 129.125 565.096 130.238C565.096 130.935 564.913 131.579 564.549 132.172C564.191 132.758 563.644 133.207 562.908 133.52V133.559C563.709 133.76 564.357 134.171 564.852 134.789C565.346 135.401 565.594 136.173 565.594 137.104C565.594 138.399 565.158 139.421 564.285 140.17C563.419 140.912 562.312 141.283 560.965 141.283C559.559 141.283 558.445 140.912 557.625 140.17C556.805 139.428 556.395 138.471 556.395 137.299ZM567.752 143.031C568.051 142.634 568.283 142.227 568.445 141.811C568.608 141.394 568.689 140.906 568.689 140.346V138.939H570.35V140.346C570.35 141.029 570.203 141.654 569.91 142.221C569.617 142.787 569.227 143.282 568.738 143.705L567.752 143.031ZM573.826 141V126.781H582.498V128.246H575.594V132.934H581.6V134.398H575.594V139.535H582.596V141H573.826ZM584.295 134.33V133.451C584.295 131.225 584.842 129.509 585.936 128.305C587.029 127.1 588.436 126.498 590.154 126.498C591.873 126.498 593.279 127.1 594.373 128.305C595.467 129.509 596.014 131.225 596.014 133.451V134.33C596.014 136.557 595.467 138.272 594.373 139.477C593.279 140.681 591.873 141.283 590.154 141.283C588.436 141.283 587.029 140.681 585.936 139.477C584.842 138.272 584.295 136.557 584.295 134.33ZM586.082 134.33C586.082 136.062 586.453 137.4 587.195 138.344C587.944 139.288 588.93 139.76 590.154 139.76C591.385 139.76 592.371 139.288 593.113 138.344C593.855 137.4 594.227 136.062 594.227 134.33V133.451C594.227 131.719 593.855 130.382 593.113 129.438C592.371 128.493 591.385 128.021 590.154 128.021C588.93 128.021 587.944 128.493 587.195 129.438C586.453 130.382 586.082 131.719 586.082 133.451V134.33ZM598.709 141V126.781H607.186V128.246H600.477V133.188H606.268V134.652H600.477V141H598.709ZM608.758 138.812V137.045L614.686 134.477L608.758 131.908V130.062L616.727 133.773V135.102L608.758 138.812Z" fill="#262626"/>
<path d="M199.635 110.418V109.469H206.373V110.418H203.578V118H202.43V110.418H199.635ZM206.643 118V111.766H207.65L207.697 112.568H207.732C207.893 112.307 208.104 112.078 208.365 111.883C208.631 111.688 208.945 111.59 209.309 111.59C209.395 111.59 209.484 111.6 209.578 111.619C209.676 111.639 209.744 111.656 209.783 111.672V112.709C209.705 112.693 209.621 112.682 209.531 112.674C209.445 112.666 209.35 112.662 209.244 112.662C208.881 112.662 208.572 112.756 208.318 112.943C208.064 113.131 207.877 113.361 207.756 113.635V118H206.643ZM210.879 118V111.766H211.992V118H210.879ZM210.75 109.914C210.75 109.73 210.809 109.576 210.926 109.451C211.047 109.322 211.217 109.258 211.436 109.258C211.654 109.258 211.822 109.322 211.939 109.451C212.061 109.576 212.121 109.73 212.121 109.914C212.121 110.102 212.061 110.26 211.939 110.389C211.822 110.514 211.654 110.576 211.436 110.576C211.217 110.576 211.047 110.514 210.926 110.389C210.809 110.26 210.75 110.102 210.75 109.914ZM213.779 120.438V111.766H214.787L214.834 112.574H214.869C215.029 112.32 215.275 112.104 215.607 111.924C215.943 111.74 216.334 111.648 216.779 111.648C217.58 111.648 218.221 111.945 218.701 112.539C219.182 113.129 219.422 113.879 219.422 114.789V114.977C219.422 115.883 219.182 116.633 218.701 117.227C218.221 117.82 217.58 118.117 216.779 118.117C216.334 118.117 215.955 118.039 215.643 117.883C215.33 117.727 215.08 117.52 214.893 117.262V120.438H213.779ZM214.893 116.137C215.018 116.41 215.221 116.656 215.502 116.875C215.787 117.09 216.131 117.197 216.533 117.197C217.139 117.197 217.582 116.984 217.863 116.559C218.145 116.129 218.285 115.602 218.285 114.977V114.789C218.285 114.16 218.145 113.633 217.863 113.207C217.582 112.777 217.139 112.562 216.533 112.562C216.131 112.562 215.787 112.672 215.502 112.891C215.221 113.105 215.018 113.352 214.893 113.629V116.137ZM220.834 118V109H221.947V118H220.834ZM223.389 116.166C223.389 115.533 223.643 115.041 224.15 114.689C224.662 114.334 225.312 114.156 226.102 114.156H227.543V113.711C227.543 113.344 227.443 113.047 227.244 112.82C227.045 112.59 226.703 112.475 226.219 112.475C225.734 112.475 225.387 112.572 225.176 112.768C224.969 112.963 224.865 113.189 224.865 113.447V113.477H223.758V113.447C223.758 112.951 223.982 112.518 224.432 112.146C224.881 111.775 225.486 111.59 226.248 111.59C227.014 111.59 227.605 111.768 228.023 112.123C228.445 112.479 228.656 113.008 228.656 113.711V116.594C228.656 116.848 228.676 117.088 228.715 117.314C228.754 117.537 228.811 117.734 228.885 117.906V118H227.807C227.748 117.902 227.695 117.773 227.648 117.613C227.605 117.453 227.578 117.295 227.566 117.139C227.418 117.396 227.176 117.625 226.84 117.824C226.508 118.02 226.078 118.117 225.551 118.117C224.953 118.117 224.443 117.949 224.021 117.613C223.6 117.277 223.389 116.795 223.389 116.166ZM224.502 116.107C224.502 116.459 224.607 116.734 224.818 116.934C225.029 117.129 225.355 117.227 225.797 117.227C226.242 117.227 226.645 117.078 227.004 116.781C227.363 116.484 227.543 116.17 227.543 115.838V114.953H226.219C225.656 114.953 225.229 115.057 224.936 115.264C224.646 115.471 224.502 115.752 224.502 116.107Z" fill="#262626"/>
<defs>
<clipPath id="clip0_46_673">
<rect x="175" y="16" width="192" height="50" fill="white"/>
</clipPath>
<clipPath id="clip1_46_673">
<rect x="371" y="16" width="128" height="50" fill="white"/>
</clipPath>
</defs>
</svg>
