<svg width="743" height="162" viewBox="0 0 743 162" fill="none" xmlns="http://www.w3.org/2000/svg">
<g clip-path="url(#clip0_46_669)">
<path d="M188.121 26.2402V23.2285C188.121 22.3496 188.367 21.6406 188.859 21.1016C189.355 20.5625 190.043 20.293 190.922 20.293C191.793 20.293 192.479 20.5625 192.979 21.1016C193.479 21.6406 193.729 22.3496 193.729 23.2285V26.2402C193.729 27.123 193.479 27.834 192.979 28.373C192.479 28.9082 191.793 29.1758 190.922 29.1758C190.043 29.1758 189.355 28.9082 188.859 28.373C188.367 27.834 188.121 27.123 188.121 26.2402ZM189.281 26.2988C189.281 26.8574 189.414 27.3184 189.68 27.6816C189.949 28.041 190.363 28.2207 190.922 28.2207C191.48 28.2207 191.895 28.041 192.164 27.6816C192.434 27.3184 192.568 26.8574 192.568 26.2988V23.1699C192.568 22.6113 192.434 22.1523 192.164 21.793C191.895 21.4297 191.48 21.248 190.922 21.248C190.363 21.248 189.949 21.4297 189.68 21.793C189.414 22.1523 189.281 22.6113 189.281 23.1699V26.2988Z" fill="#A2A2A2"/>
<rect x="175" y="34" width="32" height="32" fill="#F9F9F9"/>
<rect x="175" y="34" width="32" height="32" stroke="#525252"/>
<path d="M222.693 29V21.7285L220.49 22.6367V21.5234L223.637 20.3516H223.842V29H222.693Z" fill="#A2A2A2"/>
<rect x="207" y="34" width="32" height="32" fill="#F9F9F9"/>
<rect x="207" y="34" width="32" height="32" stroke="#525252"/>
<path d="M252.121 29V28.1445L255.244 24.8809C255.65 24.4629 255.959 24.0898 256.17 23.7617C256.385 23.4297 256.492 23.0703 256.492 22.6836C256.492 22.2969 256.357 21.9609 256.088 21.6758C255.818 21.3906 255.443 21.248 254.963 21.248C254.482 21.248 254.078 21.4023 253.75 21.7109C253.422 22.0156 253.258 22.4375 253.258 22.9766V23.0352H252.115V22.9766C252.115 22.1953 252.387 21.5527 252.93 21.0488C253.477 20.5449 254.154 20.293 254.963 20.293C255.764 20.293 256.408 20.5254 256.896 20.9902C257.389 21.4551 257.635 22 257.635 22.625C257.635 23.1836 257.477 23.6895 257.16 24.1426C256.844 24.5918 256.455 25.0508 255.994 25.5195L253.562 28.0156H257.869V29H252.121Z" fill="#A2A2A2"/>
<rect x="239" y="34" width="32" height="32" fill="#F9F9F9"/>
<rect x="239" y="34" width="32" height="32" stroke="#525252"/>
<path d="M283.939 26.7617V26.7031H285.059V26.7617C285.059 27.2266 285.217 27.5879 285.533 27.8457C285.854 28.0996 286.277 28.2266 286.805 28.2266C287.332 28.2266 287.754 28.0996 288.07 27.8457C288.387 27.5879 288.545 27.1875 288.545 26.6445C288.545 26.1055 288.367 25.6992 288.012 25.4258C287.656 25.1523 287.18 25.0156 286.582 25.0156H285.885V24.0898H286.523C287.074 24.0898 287.498 23.9609 287.795 23.7031C288.096 23.4453 288.246 23.084 288.246 22.6191C288.246 22.1582 288.115 21.8145 287.854 21.5879C287.596 21.3574 287.246 21.2422 286.805 21.2422C286.352 21.2422 285.986 21.3574 285.709 21.5879C285.436 21.8145 285.299 22.1406 285.299 22.5664V22.625H284.18V22.5664C284.18 21.9375 284.424 21.4023 284.912 20.9609C285.4 20.5156 286.031 20.293 286.805 20.293C287.566 20.293 288.189 20.5039 288.674 20.9258C289.158 21.3477 289.4 21.8926 289.4 22.5605C289.4 22.9512 289.291 23.3262 289.072 23.6855C288.854 24.041 288.514 24.3164 288.053 24.5117V24.5352C288.553 24.6602 288.953 24.9082 289.254 25.2793C289.555 25.6504 289.705 26.1055 289.705 26.6445C289.705 27.4336 289.432 28.0527 288.885 28.502C288.338 28.9512 287.645 29.1758 286.805 29.1758C285.938 29.1758 285.242 28.9512 284.719 28.502C284.199 28.0488 283.939 27.4688 283.939 26.7617Z" fill="#A2A2A2"/>
<rect x="271" y="34" width="32" height="32" fill="#F9F9F9"/>
<rect x="271" y="34" width="32" height="32" stroke="#525252"/>
<path d="M319.801 29V26.668V26.3633V22.2383H319.73L317.088 26.0527H320.088H320.545H322.098V27.002H315.775V26.2285L319.836 20.4688H320.885V29H319.801Z" fill="#A2A2A2"/>
<rect x="303" y="34" width="32" height="32" fill="#F9F9F9"/>
<rect x="303" y="34" width="32" height="32" stroke="#525252"/>
<path d="M348.057 26.8496V26.791H349.164V26.8496C349.164 27.2754 349.318 27.6113 349.627 27.8574C349.939 28.1035 350.355 28.2266 350.875 28.2266C351.395 28.2266 351.82 28.0566 352.152 27.7168C352.484 27.373 352.65 26.8926 352.65 26.2754C352.65 25.6582 352.484 25.1875 352.152 24.8633C351.82 24.5391 351.395 24.377 350.875 24.377C350.52 24.377 350.205 24.4414 349.932 24.5703C349.658 24.6992 349.402 24.8809 349.164 25.1152L348.355 24.7285L348.789 20.4688H353.336V21.4941H349.727L349.475 23.8789C349.67 23.7578 349.902 23.6523 350.172 23.5625C350.445 23.4688 350.742 23.4219 351.062 23.4219C351.82 23.4219 352.463 23.6738 352.99 24.1777C353.521 24.6777 353.787 25.377 353.787 26.2754C353.787 27.1738 353.512 27.8828 352.961 28.4023C352.41 28.918 351.715 29.1758 350.875 29.1758C350 29.1758 349.311 28.9551 348.807 28.5137C348.307 28.0723 348.057 27.5176 348.057 26.8496Z" fill="#A2A2A2"/>
<rect x="335" y="34" width="32" height="32" fill="#F9F9F9"/>
<rect x="335" y="34" width="32" height="32" stroke="#525252"/>
<path d="M346.611 56.5V42.2812H351.162C352.555 42.2812 353.649 42.584 354.443 43.1895C355.244 43.7884 355.645 44.7324 355.645 46.0215C355.645 46.8092 355.449 47.4538 355.059 47.9551C354.674 48.4499 354.193 48.7982 353.613 49V49.0391C354.323 49.2409 354.902 49.6283 355.352 50.2012C355.801 50.7676 356.025 51.5098 356.025 52.4277C356.025 53.7233 355.609 54.7259 354.775 55.4355C353.942 56.1452 352.835 56.5 351.455 56.5H346.611ZM348.34 55.0352H351.455C352.425 55.0352 353.135 54.8008 353.584 54.332C354.04 53.8633 354.268 53.2285 354.268 52.4277C354.268 51.627 354.04 50.9922 353.584 50.5234C353.135 50.0547 352.425 49.8203 351.455 49.8203H348.34V55.0352ZM348.34 48.375H351.162C352.132 48.375 352.829 48.1699 353.252 47.7598C353.682 47.3431 353.896 46.7669 353.896 46.0312C353.896 45.2891 353.682 44.7227 353.252 44.332C352.829 43.9414 352.132 43.7461 351.162 43.7461H348.34V48.375Z" fill="#262626"/>
</g>
<rect x="174.5" y="15.5" width="193" height="51" stroke="#4F46E4"/>
<path d="M516.121 26.2402V23.2285C516.121 22.3496 516.367 21.6406 516.859 21.1016C517.355 20.5625 518.043 20.293 518.922 20.293C519.793 20.293 520.479 20.5625 520.979 21.1016C521.479 21.6406 521.729 22.3496 521.729 23.2285V26.2402C521.729 27.123 521.479 27.834 520.979 28.373C520.479 28.9082 519.793 29.1758 518.922 29.1758C518.043 29.1758 517.355 28.9082 516.859 28.373C516.367 27.834 516.121 27.123 516.121 26.2402ZM517.281 26.2988C517.281 26.8574 517.414 27.3184 517.68 27.6816C517.949 28.041 518.363 28.2207 518.922 28.2207C519.48 28.2207 519.895 28.041 520.164 27.6816C520.434 27.3184 520.568 26.8574 520.568 26.2988V23.1699C520.568 22.6113 520.434 22.1523 520.164 21.793C519.895 21.4297 519.48 21.248 518.922 21.248C518.363 21.248 517.949 21.4297 517.68 21.793C517.414 22.1523 517.281 22.6113 517.281 23.1699V26.2988Z" fill="#A2A2A2"/>
<rect x="503" y="34" width="32" height="32" fill="#F9F9F9"/>
<rect x="503" y="34" width="32" height="32" stroke="#525252"/>
<path d="M514.34 53.541C514.34 52.5254 514.74 51.7311 515.541 51.1582C516.348 50.5853 517.38 50.2988 518.637 50.2988H520.941V49.5664C520.941 48.9479 520.779 48.4499 520.453 48.0723C520.134 47.6947 519.59 47.5059 518.822 47.5059C518.048 47.5059 517.488 47.6654 517.143 47.9844C516.804 48.2969 516.635 48.6712 516.635 49.1074V49.1855H514.926V49.0879C514.926 48.2936 515.277 47.6035 515.98 47.0176C516.69 46.4251 517.65 46.1289 518.861 46.1289C520.066 46.1289 520.997 46.4154 521.654 46.9883C522.318 47.5547 522.65 48.4141 522.65 49.5664V54.1562C522.65 54.5794 522.683 54.9798 522.748 55.3574C522.813 55.7285 522.904 56.0573 523.021 56.3438V56.5H521.371C521.28 56.3372 521.195 56.1257 521.117 55.8652C521.046 55.6048 521 55.3444 520.98 55.084C520.74 55.5007 520.352 55.8717 519.818 56.1973C519.291 56.5228 518.607 56.6855 517.768 56.6855C516.804 56.6855 515.99 56.4154 515.326 55.875C514.669 55.3346 514.34 54.5566 514.34 53.541ZM516.049 53.4531C516.049 54.0391 516.218 54.4948 516.557 54.8203C516.902 55.1458 517.426 55.3086 518.129 55.3086C518.845 55.3086 519.493 55.0645 520.072 54.5762C520.652 54.0814 520.941 53.554 520.941 52.9941V51.5391H518.832C517.914 51.5391 517.221 51.7116 516.752 52.0566C516.283 52.4017 516.049 52.8672 516.049 53.4531Z" fill="#262626"/>
<path d="M550.693 29V21.7285L548.49 22.6367V21.5234L551.637 20.3516H551.842V29H550.693Z" fill="#A2A2A2"/>
<rect x="535" y="34" width="32" height="32" fill="#F9F9F9"/>
<rect x="535" y="34" width="32" height="32" stroke="#525252"/>
<path d="M546.611 56.5V42.2812H551.162C552.555 42.2812 553.649 42.584 554.443 43.1895C555.244 43.7884 555.645 44.7324 555.645 46.0215C555.645 46.8092 555.449 47.4538 555.059 47.9551C554.674 48.4499 554.193 48.7982 553.613 49V49.0391C554.323 49.2409 554.902 49.6283 555.352 50.2012C555.801 50.7676 556.025 51.5098 556.025 52.4277C556.025 53.7233 555.609 54.7259 554.775 55.4355C553.942 56.1452 552.835 56.5 551.455 56.5H546.611ZM548.34 55.0352H551.455C552.425 55.0352 553.135 54.8008 553.584 54.332C554.04 53.8633 554.268 53.2285 554.268 52.4277C554.268 51.627 554.04 50.9922 553.584 50.5234C553.135 50.0547 552.425 49.8203 551.455 49.8203H548.34V55.0352ZM548.34 48.375H551.162C552.132 48.375 552.829 48.1699 553.252 47.7598C553.682 47.3431 553.896 46.7669 553.896 46.0312C553.896 45.2891 553.682 44.7227 553.252 44.332C552.829 43.9414 552.132 43.7461 551.162 43.7461H548.34V48.375Z" fill="#262626"/>
<path d="M580.121 29V28.1445L583.244 24.8809C583.65 24.4629 583.959 24.0898 584.17 23.7617C584.385 23.4297 584.492 23.0703 584.492 22.6836C584.492 22.2969 584.357 21.9609 584.088 21.6758C583.818 21.3906 583.443 21.248 582.963 21.248C582.482 21.248 582.078 21.4023 581.75 21.7109C581.422 22.0156 581.258 22.4375 581.258 22.9766V23.0352H580.115V22.9766C580.115 22.1953 580.387 21.5527 580.93 21.0488C581.477 20.5449 582.154 20.293 582.963 20.293C583.764 20.293 584.408 20.5254 584.896 20.9902C585.389 21.4551 585.635 22 585.635 22.625C585.635 23.1836 585.477 23.6895 585.16 24.1426C584.844 24.5918 584.455 25.0508 583.994 25.5195L581.562 28.0156H585.869V29H580.121Z" fill="#A2A2A2"/>
<rect x="567" y="34" width="32" height="32" fill="#F9F9F9"/>
<rect x="567" y="34" width="32" height="32" stroke="#525252"/>
<path d="M578.34 53.541C578.34 52.5254 578.74 51.7311 579.541 51.1582C580.348 50.5853 581.38 50.2988 582.637 50.2988H584.941V49.5664C584.941 48.9479 584.779 48.4499 584.453 48.0723C584.134 47.6947 583.59 47.5059 582.822 47.5059C582.048 47.5059 581.488 47.6654 581.143 47.9844C580.804 48.2969 580.635 48.6712 580.635 49.1074V49.1855H578.926V49.0879C578.926 48.2936 579.277 47.6035 579.98 47.0176C580.69 46.4251 581.65 46.1289 582.861 46.1289C584.066 46.1289 584.997 46.4154 585.654 46.9883C586.318 47.5547 586.65 48.4141 586.65 49.5664V54.1562C586.65 54.5794 586.683 54.9798 586.748 55.3574C586.813 55.7285 586.904 56.0573 587.021 56.3438V56.5H585.371C585.28 56.3372 585.195 56.1257 585.117 55.8652C585.046 55.6048 585 55.3444 584.98 55.084C584.74 55.5007 584.352 55.8717 583.818 56.1973C583.291 56.5228 582.607 56.6855 581.768 56.6855C580.804 56.6855 579.99 56.4154 579.326 55.875C578.669 55.3346 578.34 54.5566 578.34 53.541ZM580.049 53.4531C580.049 54.0391 580.218 54.4948 580.557 54.8203C580.902 55.1458 581.426 55.3086 582.129 55.3086C582.845 55.3086 583.493 55.0645 584.072 54.5762C584.652 54.0814 584.941 53.554 584.941 52.9941V51.5391H582.832C581.914 51.5391 581.221 51.7116 580.752 52.0566C580.283 52.4017 580.049 52.8672 580.049 53.4531Z" fill="#262626"/>
<path d="M611.939 26.7617V26.7031H613.059V26.7617C613.059 27.2266 613.217 27.5879 613.533 27.8457C613.854 28.0996 614.277 28.2266 614.805 28.2266C615.332 28.2266 615.754 28.0996 616.07 27.8457C616.387 27.5879 616.545 27.1875 616.545 26.6445C616.545 26.1055 616.367 25.6992 616.012 25.4258C615.656 25.1523 615.18 25.0156 614.582 25.0156H613.885V24.0898H614.523C615.074 24.0898 615.498 23.9609 615.795 23.7031C616.096 23.4453 616.246 23.084 616.246 22.6191C616.246 22.1582 616.115 21.8145 615.854 21.5879C615.596 21.3574 615.246 21.2422 614.805 21.2422C614.352 21.2422 613.986 21.3574 613.709 21.5879C613.436 21.8145 613.299 22.1406 613.299 22.5664V22.625H612.18V22.5664C612.18 21.9375 612.424 21.4023 612.912 20.9609C613.4 20.5156 614.031 20.293 614.805 20.293C615.566 20.293 616.189 20.5039 616.674 20.9258C617.158 21.3477 617.4 21.8926 617.4 22.5605C617.4 22.9512 617.291 23.3262 617.072 23.6855C616.854 24.041 616.514 24.3164 616.053 24.5117V24.5352C616.553 24.6602 616.953 24.9082 617.254 25.2793C617.555 25.6504 617.705 26.1055 617.705 26.6445C617.705 27.4336 617.432 28.0527 616.885 28.502C616.338 28.9512 615.645 29.1758 614.805 29.1758C613.938 29.1758 613.242 28.9512 612.719 28.502C612.199 28.0488 611.939 27.4688 611.939 26.7617Z" fill="#A2A2A2"/>
<rect x="599" y="34" width="32" height="32" fill="#F9F9F9"/>
<rect x="599" y="34" width="32" height="32" stroke="#525252"/>
<path d="M610.291 51.6074V51.2949C610.291 49.765 610.701 48.5215 611.521 47.5645C612.348 46.6074 613.478 46.1289 614.91 46.1289C616.251 46.1289 617.267 46.487 617.957 47.2031C618.647 47.9193 618.992 48.7363 618.992 49.6543V49.7129H617.332V49.6543C617.332 49.0814 617.137 48.5866 616.746 48.1699C616.362 47.7533 615.753 47.5449 614.92 47.5449C613.943 47.5449 613.217 47.903 612.742 48.6191C612.273 49.3288 612.039 50.2207 612.039 51.2949V51.6074C612.039 52.6686 612.273 53.5605 612.742 54.2832C613.217 55.0059 613.94 55.3672 614.91 55.3672C615.75 55.3672 616.362 55.1589 616.746 54.7422C617.137 54.319 617.332 53.8177 617.332 53.2383V53.1797H618.992V53.2383C618.992 54.1562 618.644 54.9766 617.947 55.6992C617.257 56.4219 616.245 56.7832 614.91 56.7832C613.478 56.7832 612.348 56.3047 611.521 55.3477C610.701 54.3841 610.291 53.1374 610.291 51.6074Z" fill="#262626"/>
<path d="M647.801 29V26.668V26.3633V22.2383H647.73L645.088 26.0527H648.088H648.545H650.098V27.002H643.775V26.2285L647.836 20.4688H648.885V29H647.801Z" fill="#A2A2A2"/>
<rect x="631" y="34" width="32" height="32" fill="#F9F9F9"/>
<rect x="631" y="34" width="32" height="32" stroke="#525252"/>
<path d="M642.34 53.541C642.34 52.5254 642.74 51.7311 643.541 51.1582C644.348 50.5853 645.38 50.2988 646.637 50.2988H648.941V49.5664C648.941 48.9479 648.779 48.4499 648.453 48.0723C648.134 47.6947 647.59 47.5059 646.822 47.5059C646.048 47.5059 645.488 47.6654 645.143 47.9844C644.804 48.2969 644.635 48.6712 644.635 49.1074V49.1855H642.926V49.0879C642.926 48.2936 643.277 47.6035 643.98 47.0176C644.69 46.4251 645.65 46.1289 646.861 46.1289C648.066 46.1289 648.997 46.4154 649.654 46.9883C650.318 47.5547 650.65 48.4141 650.65 49.5664V54.1562C650.65 54.5794 650.683 54.9798 650.748 55.3574C650.813 55.7285 650.904 56.0573 651.021 56.3438V56.5H649.371C649.28 56.3372 649.195 56.1257 649.117 55.8652C649.046 55.6048 649 55.3444 648.98 55.084C648.74 55.5007 648.352 55.8717 647.818 56.1973C647.291 56.5228 646.607 56.6855 645.768 56.6855C644.804 56.6855 643.99 56.4154 643.326 55.875C642.669 55.3346 642.34 54.5566 642.34 53.541ZM644.049 53.4531C644.049 54.0391 644.218 54.4948 644.557 54.8203C644.902 55.1458 645.426 55.3086 646.129 55.3086C646.845 55.3086 647.493 55.0645 648.072 54.5762C648.652 54.0814 648.941 53.554 648.941 52.9941V51.5391H646.832C645.914 51.5391 645.221 51.7116 644.752 52.0566C644.283 52.4017 644.049 52.8672 644.049 53.4531Z" fill="#262626"/>
<path d="M676.057 26.8496V26.791H677.164V26.8496C677.164 27.2754 677.318 27.6113 677.627 27.8574C677.939 28.1035 678.355 28.2266 678.875 28.2266C679.395 28.2266 679.82 28.0566 680.152 27.7168C680.484 27.373 680.65 26.8926 680.65 26.2754C680.65 25.6582 680.484 25.1875 680.152 24.8633C679.82 24.5391 679.395 24.377 678.875 24.377C678.52 24.377 678.205 24.4414 677.932 24.5703C677.658 24.6992 677.402 24.8809 677.164 25.1152L676.355 24.7285L676.789 20.4688H681.336V21.4941H677.727L677.475 23.8789C677.67 23.7578 677.902 23.6523 678.172 23.5625C678.445 23.4688 678.742 23.4219 679.062 23.4219C679.82 23.4219 680.463 23.6738 680.99 24.1777C681.521 24.6777 681.787 25.377 681.787 26.2754C681.787 27.1738 681.512 27.8828 680.961 28.4023C680.41 28.918 679.715 29.1758 678.875 29.1758C678 29.1758 677.311 28.9551 676.807 28.5137C676.307 28.0723 676.057 27.5176 676.057 26.8496Z" fill="#A2A2A2"/>
<rect x="663" y="34" width="32" height="32" fill="#F9F9F9"/>
<rect x="663" y="34" width="32" height="32" stroke="#525252"/>
<path d="M674.906 56.5V46.4121H676.459L676.527 47.7207H676.576C676.941 47.252 677.387 46.8841 677.914 46.6172C678.448 46.3503 679.04 46.2168 679.691 46.2168C680.701 46.2168 681.505 46.5033 682.104 47.0762C682.702 47.6491 683.002 48.6126 683.002 49.9668V56.5H681.293V49.957C681.293 49.1367 681.107 48.5508 680.736 48.1992C680.372 47.8411 679.851 47.6621 679.174 47.6621C678.601 47.6621 678.093 47.8184 677.65 48.1309C677.208 48.4434 676.863 48.8503 676.615 49.3516V56.5H674.906Z" fill="#262626"/>
<path d="M707.986 25.4023V25.2266C707.986 23.7422 708.396 22.5488 709.217 21.6465C710.041 20.7441 711.213 20.293 712.732 20.293H712.855V21.248H712.732C711.615 21.248 710.732 21.5625 710.084 22.1914C709.436 22.8203 709.111 23.8125 709.111 25.168V25.4609C709.111 26.4688 709.295 27.1816 709.662 27.5996C710.029 28.0176 710.492 28.2266 711.051 28.2266C711.609 28.2266 712.041 28.0566 712.346 27.7168C712.654 27.377 712.809 26.8984 712.809 26.2812C712.809 25.6641 712.654 25.1875 712.346 24.8516C712.041 24.5156 711.609 24.3477 711.051 24.3477C710.531 24.3477 710.072 24.5156 709.674 24.8516C709.275 25.1875 709.076 25.6641 709.076 26.2812H708.654C708.654 25.418 708.895 24.7207 709.375 24.1895C709.855 23.6582 710.494 23.3926 711.291 23.3926C712.092 23.3926 712.734 23.6582 713.219 24.1895C713.707 24.7207 713.951 25.418 713.951 26.2812C713.951 27.1406 713.678 27.8379 713.131 28.373C712.584 28.9082 711.891 29.1758 711.051 29.1758C710.211 29.1758 709.49 28.8789 708.889 28.2852C708.287 27.6914 707.986 26.7305 707.986 25.4023Z" fill="#A2A2A2"/>
<rect x="695" y="34" width="32" height="32" fill="#F9F9F9"/>
<rect x="695" y="34" width="32" height="32" stroke="#525252"/>
<path d="M706.34 53.541C706.34 52.5254 706.74 51.7311 707.541 51.1582C708.348 50.5853 709.38 50.2988 710.637 50.2988H712.941V49.5664C712.941 48.9479 712.779 48.4499 712.453 48.0723C712.134 47.6947 711.59 47.5059 710.822 47.5059C710.048 47.5059 709.488 47.6654 709.143 47.9844C708.804 48.2969 708.635 48.6712 708.635 49.1074V49.1855H706.926V49.0879C706.926 48.2936 707.277 47.6035 707.98 47.0176C708.69 46.4251 709.65 46.1289 710.861 46.1289C712.066 46.1289 712.997 46.4154 713.654 46.9883C714.318 47.5547 714.65 48.4141 714.65 49.5664V54.1562C714.65 54.5794 714.683 54.9798 714.748 55.3574C714.813 55.7285 714.904 56.0573 715.021 56.3438V56.5H713.371C713.28 56.3372 713.195 56.1257 713.117 55.8652C713.046 55.6048 713 55.3444 712.98 55.084C712.74 55.5007 712.352 55.8717 711.818 56.1973C711.291 56.5228 710.607 56.6855 709.768 56.6855C708.804 56.6855 707.99 56.4154 707.326 55.875C706.669 55.3346 706.34 54.5566 706.34 53.541ZM708.049 53.4531C708.049 54.0391 708.218 54.4948 708.557 54.8203C708.902 55.1458 709.426 55.3086 710.129 55.3086C710.845 55.3086 711.493 55.0645 712.072 54.5762C712.652 54.0814 712.941 53.554 712.941 52.9941V51.5391H710.832C709.914 51.5391 709.221 51.7116 708.752 52.0566C708.283 52.4017 708.049 52.8672 708.049 53.4531Z" fill="#262626"/>
<g clip-path="url(#clip1_46_669)">
<path d="M384.121 26.2402V23.2285C384.121 22.3496 384.367 21.6406 384.859 21.1016C385.355 20.5625 386.043 20.293 386.922 20.293C387.793 20.293 388.479 20.5625 388.979 21.1016C389.479 21.6406 389.729 22.3496 389.729 23.2285V26.2402C389.729 27.123 389.479 27.834 388.979 28.373C388.479 28.9082 387.793 29.1758 386.922 29.1758C386.043 29.1758 385.355 28.9082 384.859 28.373C384.367 27.834 384.121 27.123 384.121 26.2402ZM385.281 26.2988C385.281 26.8574 385.414 27.3184 385.68 27.6816C385.949 28.041 386.363 28.2207 386.922 28.2207C387.48 28.2207 387.895 28.041 388.164 27.6816C388.434 27.3184 388.568 26.8574 388.568 26.2988V23.1699C388.568 22.6113 388.434 22.1523 388.164 21.793C387.895 21.4297 387.48 21.248 386.922 21.248C386.363 21.248 385.949 21.4297 385.68 21.793C385.414 22.1523 385.281 22.6113 385.281 23.1699V26.2988Z" fill="#A2A2A2"/>
<rect x="371" y="34" width="32" height="32" fill="#F9F9F9"/>
<rect x="371" y="34" width="32" height="32" stroke="#525252"/>
<path d="M382.34 53.541C382.34 52.5254 382.74 51.7311 383.541 51.1582C384.348 50.5853 385.38 50.2988 386.637 50.2988H388.941V49.5664C388.941 48.9479 388.779 48.4499 388.453 48.0723C388.134 47.6947 387.59 47.5059 386.822 47.5059C386.048 47.5059 385.488 47.6654 385.143 47.9844C384.804 48.2969 384.635 48.6712 384.635 49.1074V49.1855H382.926V49.0879C382.926 48.2936 383.277 47.6035 383.98 47.0176C384.69 46.4251 385.65 46.1289 386.861 46.1289C388.066 46.1289 388.997 46.4154 389.654 46.9883C390.318 47.5547 390.65 48.4141 390.65 49.5664V54.1562C390.65 54.5794 390.683 54.9798 390.748 55.3574C390.813 55.7285 390.904 56.0573 391.021 56.3438V56.5H389.371C389.28 56.3372 389.195 56.1257 389.117 55.8652C389.046 55.6048 389 55.3444 388.98 55.084C388.74 55.5007 388.352 55.8717 387.818 56.1973C387.291 56.5228 386.607 56.6855 385.768 56.6855C384.804 56.6855 383.99 56.4154 383.326 55.875C382.669 55.3346 382.34 54.5566 382.34 53.541ZM384.049 53.4531C384.049 54.0391 384.218 54.4948 384.557 54.8203C384.902 55.1458 385.426 55.3086 386.129 55.3086C386.845 55.3086 387.493 55.0645 388.072 54.5762C388.652 54.0814 388.941 53.554 388.941 52.9941V51.5391H386.832C385.914 51.5391 385.221 51.7116 384.752 52.0566C384.283 52.4017 384.049 52.8672 384.049 53.4531Z" fill="#262626"/>
<path d="M418.693 29V21.7285L416.49 22.6367V21.5234L419.637 20.3516H419.842V29H418.693Z" fill="#A2A2A2"/>
<rect x="403" y="34" width="32" height="32" fill="#F9F9F9"/>
<rect x="403" y="34" width="32" height="32" stroke="#525252"/>
<path d="M414.906 56.5V46.4121H416.459L416.527 47.7207H416.576C416.941 47.252 417.387 46.8841 417.914 46.6172C418.448 46.3503 419.04 46.2168 419.691 46.2168C420.701 46.2168 421.505 46.5033 422.104 47.0762C422.702 47.6491 423.002 48.6126 423.002 49.9668V56.5H421.293V49.957C421.293 49.1367 421.107 48.5508 420.736 48.1992C420.372 47.8411 419.851 47.6621 419.174 47.6621C418.601 47.6621 418.093 47.8184 417.65 48.1309C417.208 48.4434 416.863 48.8503 416.615 49.3516V56.5H414.906Z" fill="#262626"/>
<path d="M448.121 29V28.1445L451.244 24.8809C451.65 24.4629 451.959 24.0898 452.17 23.7617C452.385 23.4297 452.492 23.0703 452.492 22.6836C452.492 22.2969 452.357 21.9609 452.088 21.6758C451.818 21.3906 451.443 21.248 450.963 21.248C450.482 21.248 450.078 21.4023 449.75 21.7109C449.422 22.0156 449.258 22.4375 449.258 22.9766V23.0352H448.115V22.9766C448.115 22.1953 448.387 21.5527 448.93 21.0488C449.477 20.5449 450.154 20.293 450.963 20.293C451.764 20.293 452.408 20.5254 452.896 20.9902C453.389 21.4551 453.635 22 453.635 22.625C453.635 23.1836 453.477 23.6895 453.16 24.1426C452.844 24.5918 452.455 25.0508 451.994 25.5195L449.562 28.0156H453.869V29H448.121Z" fill="#A2A2A2"/>
<rect x="435" y="34" width="32" height="32" fill="#F9F9F9"/>
<rect x="435" y="34" width="32" height="32" stroke="#525252"/>
<path d="M446.34 53.541C446.34 52.5254 446.74 51.7311 447.541 51.1582C448.348 50.5853 449.38 50.2988 450.637 50.2988H452.941V49.5664C452.941 48.9479 452.779 48.4499 452.453 48.0723C452.134 47.6947 451.59 47.5059 450.822 47.5059C450.048 47.5059 449.488 47.6654 449.143 47.9844C448.804 48.2969 448.635 48.6712 448.635 49.1074V49.1855H446.926V49.0879C446.926 48.2936 447.277 47.6035 447.98 47.0176C448.69 46.4251 449.65 46.1289 450.861 46.1289C452.066 46.1289 452.997 46.4154 453.654 46.9883C454.318 47.5547 454.65 48.4141 454.65 49.5664V54.1562C454.65 54.5794 454.683 54.9798 454.748 55.3574C454.813 55.7285 454.904 56.0573 455.021 56.3438V56.5H453.371C453.28 56.3372 453.195 56.1257 453.117 55.8652C453.046 55.6048 453 55.3444 452.98 55.084C452.74 55.5007 452.352 55.8717 451.818 56.1973C451.291 56.5228 450.607 56.6855 449.768 56.6855C448.804 56.6855 447.99 56.4154 447.326 55.875C446.669 55.3346 446.34 54.5566 446.34 53.541ZM448.049 53.4531C448.049 54.0391 448.218 54.4948 448.557 54.8203C448.902 55.1458 449.426 55.3086 450.129 55.3086C450.845 55.3086 451.493 55.0645 452.072 54.5762C452.652 54.0814 452.941 53.554 452.941 52.9941V51.5391H450.832C449.914 51.5391 449.221 51.7116 448.752 52.0566C448.283 52.4017 448.049 52.8672 448.049 53.4531Z" fill="#262626"/>
<path d="M479.939 26.7617V26.7031H481.059V26.7617C481.059 27.2266 481.217 27.5879 481.533 27.8457C481.854 28.0996 482.277 28.2266 482.805 28.2266C483.332 28.2266 483.754 28.0996 484.07 27.8457C484.387 27.5879 484.545 27.1875 484.545 26.6445C484.545 26.1055 484.367 25.6992 484.012 25.4258C483.656 25.1523 483.18 25.0156 482.582 25.0156H481.885V24.0898H482.523C483.074 24.0898 483.498 23.9609 483.795 23.7031C484.096 23.4453 484.246 23.084 484.246 22.6191C484.246 22.1582 484.115 21.8145 483.854 21.5879C483.596 21.3574 483.246 21.2422 482.805 21.2422C482.352 21.2422 481.986 21.3574 481.709 21.5879C481.436 21.8145 481.299 22.1406 481.299 22.5664V22.625H480.18V22.5664C480.18 21.9375 480.424 21.4023 480.912 20.9609C481.4 20.5156 482.031 20.293 482.805 20.293C483.566 20.293 484.189 20.5039 484.674 20.9258C485.158 21.3477 485.4 21.8926 485.4 22.5605C485.4 22.9512 485.291 23.3262 485.072 23.6855C484.854 24.041 484.514 24.3164 484.053 24.5117V24.5352C484.553 24.6602 484.953 24.9082 485.254 25.2793C485.555 25.6504 485.705 26.1055 485.705 26.6445C485.705 27.4336 485.432 28.0527 484.885 28.502C484.338 28.9512 483.645 29.1758 482.805 29.1758C481.938 29.1758 481.242 28.9512 480.719 28.502C480.199 28.0488 479.939 27.4688 479.939 26.7617Z" fill="#A2A2A2"/>
<rect x="467" y="34" width="32" height="32" fill="#F9F9F9"/>
<rect x="467" y="34" width="32" height="32" stroke="#525252"/>
<path d="M478.906 56.5V46.4121H480.459L480.527 47.7207H480.576C480.941 47.252 481.387 46.8841 481.914 46.6172C482.448 46.3503 483.04 46.2168 483.691 46.2168C484.701 46.2168 485.505 46.5033 486.104 47.0762C486.702 47.6491 487.002 48.6126 487.002 49.9668V56.5H485.293V49.957C485.293 49.1367 485.107 48.5508 484.736 48.1992C484.372 47.8411 483.851 47.6621 483.174 47.6621C482.601 47.6621 482.093 47.8184 481.65 48.1309C481.208 48.4434 480.863 48.8503 480.615 49.3516V56.5H478.906Z" fill="#262626"/>
</g>
<rect x="370.5" y="15.5" width="129" height="51" stroke="#9233E9"/>
<rect x="16" y="16" width="16" height="16" rx="4" fill="#4F46E4"/>
<rect x="16" y="36" width="16" height="16" rx="4" fill="#9233E9"/>
<path d="M24.7071 59.2929C24.3166 58.9024 23.6834 58.9024 23.2929 59.2929L16.9289 65.6569C16.5384 66.0474 16.5384 66.6805 16.9289 67.0711C17.3195 67.4616 17.9526 67.4616 18.3431 67.0711L24 61.4142L29.6569 67.0711C30.0474 67.4616 30.6805 67.4616 31.0711 67.0711C31.4616 66.6805 31.4616 66.0474 31.0711 65.6569L24.7071 59.2929ZM25 80L25 60L23 60L23 80L25 80Z" fill="#525252"/>
<path d="M386.707 72.2929C386.317 71.9024 385.683 71.9024 385.293 72.2929L378.929 78.6569C378.538 79.0474 378.538 79.6805 378.929 80.0711C379.319 80.4616 379.953 80.4616 380.343 80.0711L386 74.4142L391.657 80.0711C392.047 80.4616 392.681 80.4616 393.071 80.0711C393.462 79.6805 393.462 79.0474 393.071 78.6569L386.707 72.2929ZM387 93L387 73L385 73L385 93L387 93Z" fill="#525252"/>
<path d="M39.9375 28V19.4688H42.8262C43.998 19.4688 44.9785 19.8242 45.7676 20.5352C46.5605 21.2461 46.957 22.2266 46.957 23.4766V23.9922C46.957 25.2422 46.5605 26.2227 45.7676 26.9336C44.9785 27.6445 43.998 28 42.8262 28H39.9375ZM41.6719 26.7109H42.8086C43.5195 26.7109 44.0918 26.4805 44.5254 26.0195C44.959 25.5547 45.1758 24.8867 45.1758 24.0156V23.4531C45.1758 22.582 44.959 21.916 44.5254 21.4551C44.0918 20.9941 43.5195 20.7637 42.8086 20.7637H41.6719V26.7109ZM48.3926 28V21.7246H50.0859V28H48.3926ZM48.2461 20.0137C48.2461 19.7598 48.332 19.5469 48.5039 19.375C48.6758 19.2031 48.9199 19.1172 49.2363 19.1172C49.5566 19.1172 49.8008 19.2031 49.9688 19.375C50.1406 19.5469 50.2266 19.7598 50.2266 20.0137C50.2266 20.2715 50.1406 20.4863 49.9688 20.6582C49.8008 20.8301 49.5566 20.916 49.2363 20.916C48.9199 20.916 48.6758 20.8301 48.5039 20.6582C48.332 20.4863 48.2461 20.2715 48.2461 20.0137ZM51.3574 24.9531V24.7656C51.3574 23.793 51.6465 23.0137 52.2246 22.4277C52.8066 21.8418 53.5859 21.5488 54.5625 21.5488C55.4844 21.5488 56.1855 21.7773 56.666 22.2344C57.1504 22.6875 57.4043 23.2168 57.4277 23.8223L57.4336 23.9043H55.7754V23.8457C55.7754 23.5527 55.6738 23.3047 55.4707 23.1016C55.2715 22.8945 54.9648 22.791 54.5508 22.791C54.0625 22.791 53.6953 22.9688 53.4492 23.3242C53.207 23.6758 53.0859 24.1348 53.0859 24.7012V25.0176C53.0859 25.584 53.2051 26.0449 53.4434 26.4004C53.6816 26.7559 54.0488 26.9336 54.5449 26.9336C54.9863 26.9336 55.3008 26.8281 55.4883 26.6172C55.6797 26.4023 55.7754 26.1543 55.7754 25.873V25.8203H57.4277V25.8789C57.4277 26.4844 57.1797 27.0195 56.6836 27.4844C56.1914 27.9453 55.4844 28.1758 54.5625 28.1758C53.5859 28.1758 52.8066 27.8828 52.2246 27.2969C51.6465 26.7109 51.3574 25.9297 51.3574 24.9531ZM58.5879 28V21.7246H60.2812V28H58.5879ZM58.4414 20.0137C58.4414 19.7598 58.5273 19.5469 58.6992 19.375C58.8711 19.2031 59.1152 19.1172 59.4316 19.1172C59.752 19.1172 59.9961 19.2031 60.1641 19.375C60.3359 19.5469 60.4219 19.7598 60.4219 20.0137C60.4219 20.2715 60.3359 20.4863 60.1641 20.6582C59.9961 20.8301 59.752 20.916 59.4316 20.916C59.1152 20.916 58.8711 20.8301 58.6992 20.6582C58.5273 20.4863 58.4414 20.2715 58.4414 20.0137ZM61.5527 24.9531V24.7656C61.5527 23.793 61.8516 23.0137 62.4492 22.4277C63.0469 21.8418 63.8301 21.5488 64.7988 21.5488C65.7715 21.5488 66.5566 21.8418 67.1543 22.4277C67.752 23.0137 68.0508 23.793 68.0508 24.7656V24.9531C68.0508 25.9258 67.752 26.707 67.1543 27.2969C66.5566 27.8828 65.7715 28.1758 64.7988 28.1758C63.8301 28.1758 63.0469 27.8828 62.4492 27.2969C61.8516 26.707 61.5527 25.9258 61.5527 24.9531ZM63.2812 24.7012V25.0176C63.2812 25.6035 63.4121 26.0645 63.6738 26.4004C63.9355 26.7363 64.3105 26.9043 64.7988 26.9043C65.291 26.9043 65.666 26.7363 65.9238 26.4004C66.1855 26.0645 66.3164 25.6035 66.3164 25.0176V24.7012C66.3164 24.1191 66.1836 23.6602 65.918 23.3242C65.6562 22.9883 65.2832 22.8203 64.7988 22.8203C64.3145 22.8203 63.9395 22.9883 63.6738 23.3242C63.4121 23.6602 63.2812 24.1191 63.2812 24.7012ZM69.3047 28V21.7246H70.8984L70.9395 22.4512H70.9746C71.1543 22.1934 71.4062 21.9883 71.7305 21.8359C72.0586 21.6797 72.418 21.6016 72.8086 21.6016C73.4688 21.6016 74.0039 21.7891 74.4141 22.1641C74.8242 22.5352 75.0293 23.1797 75.0293 24.0977V28H73.3418V24.0566C73.3418 23.6309 73.25 23.3301 73.0664 23.1543C72.8828 22.9785 72.623 22.8906 72.2871 22.8906C72.0098 22.8906 71.7559 22.9707 71.5254 23.1309C71.2949 23.2871 71.1172 23.502 70.9922 23.7754V28H69.3047ZM76.248 26.1543C76.248 25.4707 76.5234 24.9531 77.0742 24.6016C77.625 24.2461 78.3184 24.0664 79.1543 24.0625H80.4023V23.6699C80.4023 23.3809 80.3223 23.1484 80.1621 22.9727C80.0059 22.793 79.7324 22.7031 79.3418 22.7031C78.9512 22.7031 78.6719 22.7812 78.5039 22.9375C78.3398 23.0898 78.2578 23.2734 78.2578 23.4883V23.5586H76.582V23.4883C76.582 22.9414 76.8398 22.4824 77.3555 22.1113C77.875 21.7363 78.5566 21.5488 79.4004 21.5488C80.2441 21.5488 80.9043 21.7246 81.3809 22.0762C81.8574 22.4238 82.0957 22.957 82.0957 23.6758V26.6055C82.0957 26.8594 82.1172 27.0996 82.1602 27.3262C82.2031 27.5488 82.2617 27.7422 82.3359 27.9062V28H80.6777C80.6309 27.9062 80.5879 27.7852 80.5488 27.6367C80.5098 27.4844 80.4824 27.3359 80.4668 27.1914C80.3418 27.4336 80.1055 27.6484 79.7578 27.8359C79.4141 28.0234 78.9844 28.1172 78.4688 28.1172C77.8477 28.1172 77.3223 27.9531 76.8926 27.625C76.4629 27.293 76.248 26.8027 76.248 26.1543ZM77.9414 26.0312C77.9414 26.3164 78.0254 26.543 78.1934 26.7109C78.3613 26.8789 78.625 26.9629 78.9844 26.9629C79.3711 26.9629 79.7031 26.8418 79.9805 26.5996C80.2617 26.3535 80.4023 26.0723 80.4023 25.7559V25.0938H79.3535C78.8809 25.0938 78.5273 25.1777 78.293 25.3457C78.0586 25.5098 77.9414 25.7383 77.9414 26.0312ZM78.1055 20.0488L79.6055 18.1152L80.8828 18.9883L79.0254 20.7344L78.1055 20.0488ZM83.7305 28V21.7246H85.3301L85.3711 22.4277H85.4004C85.5332 22.1934 85.7129 21.9902 85.9395 21.8184C86.1699 21.6426 86.4336 21.5547 86.7305 21.5547C86.8125 21.5547 86.8965 21.5645 86.9824 21.584C87.0684 21.6035 87.1289 21.6211 87.1641 21.6367V23.0898C87.0938 23.0742 87.0176 23.0625 86.9355 23.0547C86.8574 23.043 86.7715 23.0371 86.6777 23.0371C86.3848 23.0371 86.127 23.1211 85.9043 23.2891C85.6855 23.4531 85.5254 23.6582 85.4238 23.9043V28H83.7305ZM88.1777 28V21.7246H89.8711V28H88.1777ZM88.0312 20.0137C88.0312 19.7598 88.1172 19.5469 88.2891 19.375C88.4609 19.2031 88.7051 19.1172 89.0215 19.1172C89.3418 19.1172 89.5859 19.2031 89.7539 19.375C89.9258 19.5469 90.0117 19.7598 90.0117 20.0137C90.0117 20.2715 89.9258 20.4863 89.7539 20.6582C89.5859 20.8301 89.3418 20.916 89.0215 20.916C88.7051 20.916 88.4609 20.8301 88.2891 20.6582C88.1172 20.4863 88.0312 20.2715 88.0312 20.0137ZM91.1426 24.9531V24.7656C91.1426 23.793 91.4414 23.0137 92.0391 22.4277C92.6367 21.8418 93.4199 21.5488 94.3887 21.5488C95.3613 21.5488 96.1465 21.8418 96.7441 22.4277C97.3418 23.0137 97.6406 23.793 97.6406 24.7656V24.9531C97.6406 25.9258 97.3418 26.707 96.7441 27.2969C96.1465 27.8828 95.3613 28.1758 94.3887 28.1758C93.4199 28.1758 92.6367 27.8828 92.0391 27.2969C91.4414 26.707 91.1426 25.9258 91.1426 24.9531ZM92.8711 24.7012V25.0176C92.8711 25.6035 93.002 26.0645 93.2637 26.4004C93.5254 26.7363 93.9004 26.9043 94.3887 26.9043C94.8809 26.9043 95.2559 26.7363 95.5137 26.4004C95.7754 26.0645 95.9062 25.6035 95.9062 25.0176V24.7012C95.9062 24.1191 95.7734 23.6602 95.5078 23.3242C95.2461 22.9883 94.873 22.8203 94.3887 22.8203C93.9043 22.8203 93.5293 22.9883 93.2637 23.3242C93.002 23.6602 92.8711 24.1191 92.8711 24.7012Z" fill="#4F46E4"/>
<path d="M39.9375 48V39.4688H43.1309C44.0957 39.4688 44.8535 39.6523 45.4043 40.0195C45.9551 40.3828 46.2305 40.9512 46.2305 41.7246C46.2305 42.1934 46.1191 42.5781 45.8965 42.8789C45.6777 43.1797 45.4043 43.3867 45.0762 43.5V43.5234C45.4785 43.6406 45.8086 43.8691 46.0664 44.209C46.3281 44.5449 46.459 44.9883 46.459 45.5391C46.459 46.3203 46.1699 46.9258 45.5918 47.3555C45.0137 47.7852 44.252 48 43.3066 48H39.9375ZM41.666 46.7695H43.2773C43.7773 46.7695 44.1426 46.6523 44.373 46.418C44.6074 46.1797 44.7246 45.8594 44.7246 45.457C44.7246 45.0586 44.6074 44.7422 44.373 44.5078C44.1426 44.2734 43.7773 44.1562 43.2773 44.1562H41.666V46.7695ZM41.666 42.9844H43.1074C43.6035 42.9844 43.959 42.8828 44.1738 42.6797C44.3926 42.4766 44.502 42.1953 44.502 41.8359C44.502 41.4727 44.3926 41.1934 44.1738 40.998C43.9551 40.8027 43.5996 40.7051 43.1074 40.7051H41.666V42.9844ZM47.7422 45.5625V41.7246H49.4297V45.6035C49.4297 46.0566 49.5234 46.375 49.7109 46.5586C49.8984 46.7422 50.1562 46.834 50.4844 46.834C50.7734 46.834 51.0312 46.752 51.2578 46.5879C51.4844 46.4199 51.6582 46.209 51.7793 45.9551V41.7246H53.4668V48H51.873L51.8262 47.2734H51.7969C51.6016 47.5391 51.3398 47.7461 51.0117 47.8945C50.6836 48.043 50.3223 48.1172 49.9277 48.1172C49.2793 48.1172 48.752 47.9219 48.3457 47.5312C47.9434 47.1367 47.7422 46.4805 47.7422 45.5625ZM55.2832 48V41.2969C55.2832 40.5039 55.5078 39.9062 55.957 39.5039C56.4102 39.1016 56.998 38.9004 57.7207 38.9004C57.8613 38.9004 57.998 38.9082 58.1309 38.9238C58.2676 38.9395 58.3926 38.9629 58.5059 38.9941L58.4531 40.2246C58.375 40.209 58.291 40.1953 58.2012 40.1836C58.1113 40.1719 58.0176 40.166 57.9199 40.166C57.623 40.166 57.3906 40.2617 57.2227 40.4531C57.0547 40.6445 56.9707 40.9336 56.9707 41.3203V42.2402V42.3691V48H55.2832ZM54.4102 42.9434V41.7246H55.9453H56.1855H58.1426V42.9434H54.4102ZM59.1035 48V41.2969C59.1035 40.5039 59.3281 39.9062 59.7773 39.5039C60.2305 39.1016 60.8184 38.9004 61.541 38.9004C61.6816 38.9004 61.8184 38.9082 61.9512 38.9238C62.0879 38.9395 62.2129 38.9629 62.3262 38.9941L62.2734 40.2246C62.1953 40.209 62.1113 40.1953 62.0215 40.1836C61.9316 40.1719 61.8379 40.166 61.7402 40.166C61.4434 40.166 61.2109 40.2617 61.043 40.4531C60.875 40.6445 60.791 40.9336 60.791 41.3203V42.2402V42.3691V48H59.1035ZM58.2305 42.9434V41.7246H59.7656H60.0059H61.9629V42.9434H58.2305ZM62.3262 44.9531V44.7656C62.3262 43.8047 62.6172 43.0293 63.1992 42.4395C63.7812 41.8457 64.5312 41.5488 65.4492 41.5488C66.375 41.5488 67.0977 41.8262 67.6172 42.3809C68.1406 42.9355 68.4023 43.6973 68.4023 44.666V45.2754H63.4863V44.1914H66.7207V44.0859C66.7168 43.7344 66.6094 43.4258 66.3984 43.1602C66.1875 42.8945 65.8672 42.7617 65.4375 42.7617C64.9766 42.7617 64.623 42.9414 64.377 43.3008C64.1309 43.6562 64.0078 44.125 64.0078 44.707V45.0117C64.0078 45.5859 64.1387 46.0527 64.4004 46.4121C64.666 46.7676 65.0605 46.9453 65.584 46.9453C65.9316 46.9453 66.2344 46.8613 66.4922 46.6934C66.75 46.5254 66.959 46.332 67.1191 46.1133L68.2793 46.9102C68.0801 47.2617 67.7441 47.5605 67.2715 47.8066C66.8027 48.0527 66.2461 48.1758 65.6016 48.1758C64.5703 48.1758 63.7656 47.8809 63.1875 47.291C62.6133 46.6973 62.3262 45.918 62.3262 44.9531ZM69.5625 48V41.7246H71.1621L71.2031 42.4277H71.2324C71.3652 42.1934 71.5449 41.9902 71.7715 41.8184C72.002 41.6426 72.2656 41.5547 72.5625 41.5547C72.6445 41.5547 72.7285 41.5645 72.8145 41.584C72.9004 41.6035 72.9609 41.6211 72.9961 41.6367V43.0898C72.9258 43.0742 72.8496 43.0625 72.7676 43.0547C72.6895 43.043 72.6035 43.0371 72.5098 43.0371C72.2168 43.0371 71.959 43.1211 71.7363 43.2891C71.5176 43.4531 71.3574 43.6582 71.2559 43.9043V48H69.5625Z" fill="#9233E9"/>
<path d="M39.9375 74V65.4688H43.1836C44.2031 65.4688 44.9883 65.709 45.5391 66.1895C46.0898 66.6699 46.3652 67.3418 46.3652 68.2051C46.3652 69.0684 46.0898 69.7461 45.5391 70.2383C44.9922 70.7266 44.207 70.9707 43.1836 70.9707H41.6777V74H39.9375ZM41.6777 69.6758H43.0723C43.6504 69.6758 44.0527 69.543 44.2793 69.2773C44.5059 69.0078 44.6191 68.6523 44.6191 68.2109C44.6191 67.7695 44.5059 67.418 44.2793 67.1562C44.0527 66.8945 43.6504 66.7637 43.0723 66.7637H41.6777V69.6758ZM47.1035 70.9531V70.7656C47.1035 69.793 47.4023 69.0137 48 68.4277C48.5977 67.8418 49.3809 67.5488 50.3496 67.5488C51.3223 67.5488 52.1074 67.8418 52.7051 68.4277C53.3027 69.0137 53.6016 69.793 53.6016 70.7656V70.9531C53.6016 71.9258 53.3027 72.707 52.7051 73.2969C52.1074 73.8828 51.3223 74.1758 50.3496 74.1758C49.3809 74.1758 48.5977 73.8828 48 73.2969C47.4023 72.707 47.1035 71.9258 47.1035 70.9531ZM48.832 70.7012V71.0176C48.832 71.6035 48.9629 72.0645 49.2246 72.4004C49.4863 72.7363 49.8613 72.9043 50.3496 72.9043C50.8418 72.9043 51.2168 72.7363 51.4746 72.4004C51.7363 72.0645 51.8672 71.6035 51.8672 71.0176V70.7012C51.8672 70.1191 51.7344 69.6602 51.4688 69.3242C51.207 68.9883 50.834 68.8203 50.3496 68.8203C49.8652 68.8203 49.4902 68.9883 49.2246 69.3242C48.9629 69.6602 48.832 70.1191 48.832 70.7012ZM54.8555 74V67.7246H56.4492L56.4902 68.4512H56.5254C56.7051 68.1934 56.957 67.9883 57.2812 67.8359C57.6094 67.6797 57.9688 67.6016 58.3594 67.6016C59.0195 67.6016 59.5547 67.7891 59.9648 68.1641C60.375 68.5352 60.5801 69.1797 60.5801 70.0977V74H58.8926V70.0566C58.8926 69.6309 58.8008 69.3301 58.6172 69.1543C58.4336 68.9785 58.1738 68.8906 57.8379 68.8906C57.5605 68.8906 57.3066 68.9707 57.0762 69.1309C56.8457 69.2871 56.668 69.502 56.543 69.7754V74H54.8555ZM61.3242 68.9434V67.7246H65.1855V68.9434H61.3242ZM62.2969 72.1836V68.3809L62.3027 68.2109V66.3477H63.9844V72.1602C63.9844 72.4375 64.0371 72.6328 64.1426 72.7461C64.248 72.8555 64.3984 72.9102 64.5938 72.9102C64.6914 72.9102 64.7871 72.8984 64.8809 72.875C64.9746 72.8516 65.0664 72.8223 65.1562 72.7871V73.9941C65.0625 74.041 64.9336 74.082 64.7695 74.1172C64.6055 74.1562 64.4277 74.1758 64.2363 74.1758C63.6504 74.1758 63.1797 74.0156 62.8242 73.6953C62.4727 73.375 62.2969 72.8711 62.2969 72.1836ZM65.9004 70.9531V70.7656C65.9004 69.8047 66.1914 69.0293 66.7734 68.4395C67.3555 67.8457 68.1055 67.5488 69.0234 67.5488C69.9492 67.5488 70.6719 67.8262 71.1914 68.3809C71.7148 68.9355 71.9766 69.6973 71.9766 70.666V71.2754H67.0605V70.1914H70.2949V70.0859C70.291 69.7344 70.1836 69.4258 69.9727 69.1602C69.7617 68.8945 69.4414 68.7617 69.0117 68.7617C68.5508 68.7617 68.1973 68.9414 67.9512 69.3008C67.7051 69.6562 67.582 70.125 67.582 70.707V71.0117C67.582 71.5859 67.7129 72.0527 67.9746 72.4121C68.2402 72.7676 68.6348 72.9453 69.1582 72.9453C69.5059 72.9453 69.8086 72.8613 70.0664 72.6934C70.3242 72.5254 70.5332 72.332 70.6934 72.1133L71.8535 72.9102C71.6543 73.2617 71.3184 73.5605 70.8457 73.8066C70.377 74.0527 69.8203 74.1758 69.1758 74.1758C68.1445 74.1758 67.3398 73.8809 66.7617 73.291C66.1875 72.6973 65.9004 71.918 65.9004 70.9531ZM73.166 74V67.7246H74.8594V74H73.166ZM73.0195 66.0137C73.0195 65.7598 73.1055 65.5469 73.2773 65.375C73.4492 65.2031 73.6934 65.1172 74.0098 65.1172C74.3301 65.1172 74.5742 65.2031 74.7422 65.375C74.9141 65.5469 75 65.7598 75 66.0137C75 66.2715 74.9141 66.4863 74.7422 66.6582C74.5742 66.8301 74.3301 66.916 74.0098 66.916C73.6934 66.916 73.4492 66.8301 73.2773 66.6582C73.1055 66.4863 73.0195 66.2715 73.0195 66.0137ZM76.4766 74V67.7246H78.0762L78.1172 68.4277H78.1465C78.2793 68.1934 78.459 67.9902 78.6855 67.8184C78.916 67.6426 79.1797 67.5547 79.4766 67.5547C79.5586 67.5547 79.6426 67.5645 79.7285 67.584C79.8145 67.6035 79.875 67.6211 79.9102 67.6367V69.0898C79.8398 69.0742 79.7637 69.0625 79.6816 69.0547C79.6035 69.043 79.5176 69.0371 79.4238 69.0371C79.1309 69.0371 78.873 69.1211 78.6504 69.2891C78.4316 69.4531 78.2715 69.6582 78.1699 69.9043V74H76.4766ZM80.4316 70.9531V70.7656C80.4316 69.793 80.7305 69.0137 81.3281 68.4277C81.9258 67.8418 82.709 67.5488 83.6777 67.5488C84.6504 67.5488 85.4355 67.8418 86.0332 68.4277C86.6309 69.0137 86.9297 69.793 86.9297 70.7656V70.9531C86.9297 71.9258 86.6309 72.707 86.0332 73.2969C85.4355 73.8828 84.6504 74.1758 83.6777 74.1758C82.709 74.1758 81.9258 73.8828 81.3281 73.2969C80.7305 72.707 80.4316 71.9258 80.4316 70.9531ZM82.1602 70.7012V71.0176C82.1602 71.6035 82.291 72.0645 82.5527 72.4004C82.8145 72.7363 83.1895 72.9043 83.6777 72.9043C84.1699 72.9043 84.5449 72.7363 84.8027 72.4004C85.0645 72.0645 85.1953 71.6035 85.1953 71.0176V70.7012C85.1953 70.1191 85.0625 69.6602 84.7969 69.3242C84.5352 68.9883 84.1621 68.8203 83.6777 68.8203C83.1934 68.8203 82.8184 68.9883 82.5527 69.3242C82.291 69.6602 82.1602 70.1191 82.1602 70.7012Z" fill="#525252"/>
<path d="M190.945 138.812L182.977 135.102V133.773L190.945 130.062V131.82L185.018 134.389L190.945 136.967V138.812ZM193.035 136.547V131.234C193.035 129.796 193.426 128.646 194.207 127.787C194.995 126.928 196.085 126.498 197.479 126.498C198.859 126.498 199.943 126.928 200.73 127.787C201.525 128.646 201.922 129.796 201.922 131.234V136.547C201.922 137.986 201.525 139.135 200.73 139.994C199.943 140.854 198.859 141.283 197.479 141.283C196.085 141.277 194.995 140.847 194.207 139.994C193.426 139.135 193.035 137.986 193.035 136.547ZM194.812 136.645C194.812 137.582 195.031 138.347 195.467 138.939C195.903 139.525 196.574 139.818 197.479 139.818C198.377 139.818 199.044 139.525 199.48 138.939C199.917 138.347 200.135 137.582 200.135 136.645V131.137C200.135 130.199 199.917 129.438 199.48 128.852C199.044 128.259 198.377 127.963 197.479 127.963C196.574 127.963 195.903 128.259 195.467 128.852C195.031 129.438 194.812 130.199 194.812 131.137V136.645ZM204.08 143.031C204.38 142.634 204.611 142.227 204.773 141.811C204.936 141.394 205.018 140.906 205.018 140.346V138.939H206.678V140.346C206.678 141.029 206.531 141.654 206.238 142.221C205.945 142.787 205.555 143.282 205.066 143.705L204.08 143.031ZM209.578 136.547V131.234C209.578 129.796 209.969 128.646 210.75 127.787C211.538 126.928 212.628 126.498 214.021 126.498C215.402 126.498 216.486 126.928 217.273 127.787C218.068 128.646 218.465 129.796 218.465 131.234V136.547C218.465 137.986 218.068 139.135 217.273 139.994C216.486 140.854 215.402 141.283 214.021 141.283C212.628 141.277 211.538 140.847 210.75 139.994C209.969 139.135 209.578 137.986 209.578 136.547ZM211.355 136.645C211.355 137.582 211.574 138.347 212.01 138.939C212.446 139.525 213.117 139.818 214.021 139.818C214.92 139.818 215.587 139.525 216.023 138.939C216.46 138.347 216.678 137.582 216.678 136.645V131.137C216.678 130.199 216.46 129.438 216.023 128.852C215.587 128.259 214.92 127.963 214.021 127.963C213.117 127.963 212.446 128.259 212.01 128.852C211.574 129.438 211.355 130.199 211.355 131.137V136.645ZM220.623 143.031C220.923 142.634 221.154 142.227 221.316 141.811C221.479 141.394 221.561 140.906 221.561 140.346V138.939H223.221V140.346C223.221 141.029 223.074 141.654 222.781 142.221C222.488 142.787 222.098 143.282 221.609 143.705L220.623 143.031ZM226.697 141V126.781H231.248C232.641 126.781 233.735 127.084 234.529 127.689C235.33 128.288 235.73 129.232 235.73 130.521C235.73 131.309 235.535 131.954 235.145 132.455C234.76 132.95 234.279 133.298 233.699 133.5V133.539C234.409 133.741 234.988 134.128 235.438 134.701C235.887 135.268 236.111 136.01 236.111 136.928C236.111 138.223 235.695 139.226 234.861 139.936C234.028 140.645 232.921 141 231.541 141H226.697ZM228.426 139.535H231.541C232.511 139.535 233.221 139.301 233.67 138.832C234.126 138.363 234.354 137.729 234.354 136.928C234.354 136.127 234.126 135.492 233.67 135.023C233.221 134.555 232.511 134.32 231.541 134.32H228.426V139.535ZM228.426 132.875H231.248C232.218 132.875 232.915 132.67 233.338 132.26C233.768 131.843 233.982 131.267 233.982 130.531C233.982 129.789 233.768 129.223 233.338 128.832C232.915 128.441 232.218 128.246 231.248 128.246H228.426V132.875ZM238.094 138.812V137.045L244.021 134.477L238.094 131.908V130.062L246.062 133.773V135.102L238.094 138.812ZM248.162 143.031C248.462 142.634 248.693 142.227 248.855 141.811C249.018 141.394 249.1 140.906 249.1 140.346V138.939H250.76V140.346C250.76 141.029 250.613 141.654 250.32 142.221C250.027 142.787 249.637 143.282 249.148 143.705L248.162 143.031ZM261.57 138.812L253.602 135.102V133.773L261.57 130.062V131.82L255.643 134.389L261.57 136.967V138.812ZM263.66 136.547V131.234C263.66 129.796 264.051 128.646 264.832 127.787C265.62 126.928 266.71 126.498 268.104 126.498C269.484 126.498 270.568 126.928 271.355 127.787C272.15 128.646 272.547 129.796 272.547 131.234V136.547C272.547 137.986 272.15 139.135 271.355 139.994C270.568 140.854 269.484 141.283 268.104 141.283C266.71 141.277 265.62 140.847 264.832 139.994C264.051 139.135 263.66 137.986 263.66 136.547ZM265.438 136.645C265.438 137.582 265.656 138.347 266.092 138.939C266.528 139.525 267.199 139.818 268.104 139.818C269.002 139.818 269.669 139.525 270.105 138.939C270.542 138.347 270.76 137.582 270.76 136.645V131.137C270.76 130.199 270.542 129.438 270.105 128.852C269.669 128.259 269.002 127.963 268.104 127.963C267.199 127.963 266.528 128.259 266.092 128.852C265.656 129.438 265.438 130.199 265.438 131.137V136.645ZM274.705 143.031C275.005 142.634 275.236 142.227 275.398 141.811C275.561 141.394 275.643 140.906 275.643 140.346V138.939H277.303V140.346C277.303 141.029 277.156 141.654 276.863 142.221C276.57 142.787 276.18 143.282 275.691 143.705L274.705 143.031ZM280.203 136.547V131.234C280.203 129.796 280.594 128.646 281.375 127.787C282.163 126.928 283.253 126.498 284.646 126.498C286.027 126.498 287.111 126.928 287.898 127.787C288.693 128.646 289.09 129.796 289.09 131.234V136.547C289.09 137.986 288.693 139.135 287.898 139.994C287.111 140.854 286.027 141.283 284.646 141.283C283.253 141.277 282.163 140.847 281.375 139.994C280.594 139.135 280.203 137.986 280.203 136.547ZM281.98 136.645C281.98 137.582 282.199 138.347 282.635 138.939C283.071 139.525 283.742 139.818 284.646 139.818C285.545 139.818 286.212 139.525 286.648 138.939C287.085 138.347 287.303 137.582 287.303 136.645V131.137C287.303 130.199 287.085 129.438 286.648 128.852C286.212 128.259 285.545 127.963 284.646 127.963C283.742 127.963 283.071 128.259 282.635 128.852C282.199 129.438 281.98 130.199 281.98 131.137V136.645ZM291.248 143.031C291.548 142.634 291.779 142.227 291.941 141.811C292.104 141.394 292.186 140.906 292.186 140.346V138.939H293.846V140.346C293.846 141.029 293.699 141.654 293.406 142.221C293.113 142.787 292.723 143.282 292.234 143.705L291.248 143.031ZM296.551 138.041C296.551 137.025 296.951 136.231 297.752 135.658C298.559 135.085 299.591 134.799 300.848 134.799H303.152V134.066C303.152 133.448 302.99 132.95 302.664 132.572C302.345 132.195 301.801 132.006 301.033 132.006C300.258 132.006 299.699 132.165 299.354 132.484C299.015 132.797 298.846 133.171 298.846 133.607V133.686H297.137V133.588C297.137 132.794 297.488 132.104 298.191 131.518C298.901 130.925 299.861 130.629 301.072 130.629C302.277 130.629 303.208 130.915 303.865 131.488C304.529 132.055 304.861 132.914 304.861 134.066V138.656C304.861 139.079 304.894 139.48 304.959 139.857C305.024 140.229 305.115 140.557 305.232 140.844V141H303.582C303.491 140.837 303.406 140.626 303.328 140.365C303.257 140.105 303.211 139.844 303.191 139.584C302.951 140.001 302.563 140.372 302.029 140.697C301.502 141.023 300.818 141.186 299.979 141.186C299.015 141.186 298.201 140.915 297.537 140.375C296.88 139.835 296.551 139.057 296.551 138.041ZM298.26 137.953C298.26 138.539 298.429 138.995 298.768 139.32C299.113 139.646 299.637 139.809 300.34 139.809C301.056 139.809 301.704 139.564 302.283 139.076C302.863 138.581 303.152 138.054 303.152 137.494V136.039H301.043C300.125 136.039 299.432 136.212 298.963 136.557C298.494 136.902 298.26 137.367 298.26 137.953ZM307.273 138.812V137.045L313.201 134.477L307.273 131.908V130.062L315.242 133.773V135.102L307.273 138.812Z" fill="#262626"/>
<path d="M398.996 87V78.4688H401.885C402.842 78.4688 403.576 78.7051 404.088 79.1777C404.604 79.6504 404.861 80.2793 404.861 81.0645C404.861 81.8496 404.604 82.4824 404.088 82.9629C403.576 83.4434 402.842 83.6836 401.885 83.6836H400.145V87H398.996ZM400.145 82.7344H401.885C402.561 82.7344 403.033 82.5723 403.303 82.248C403.576 81.9238 403.713 81.5293 403.713 81.0645C403.713 80.5996 403.576 80.209 403.303 79.8926C403.033 79.5762 402.561 79.418 401.885 79.418H400.145V82.7344ZM405.6 83.9766V83.7891C405.6 82.8477 405.871 82.0801 406.414 81.4863C406.957 80.8887 407.682 80.5898 408.588 80.5898C409.494 80.5898 410.219 80.8887 410.762 81.4863C411.305 82.0801 411.576 82.8477 411.576 83.7891V83.9766C411.576 84.918 411.305 85.6875 410.762 86.2852C410.219 86.8789 409.494 87.1758 408.588 87.1758C407.682 87.1758 406.957 86.8789 406.414 86.2852C405.871 85.6875 405.6 84.918 405.6 83.9766ZM406.736 83.7891V83.9766C406.736 84.6133 406.891 85.1523 407.199 85.5938C407.512 86.0352 407.975 86.2559 408.588 86.2559C409.201 86.2559 409.662 86.0352 409.971 85.5938C410.279 85.1523 410.434 84.6133 410.434 83.9766V83.7891C410.434 83.1484 410.279 82.6074 409.971 82.166C409.662 81.7246 409.201 81.5039 408.588 81.5039C407.975 81.5039 407.512 81.7246 407.199 82.166C406.891 82.6074 406.736 83.1484 406.736 83.7891ZM412.941 87V80.7656H413.949L413.996 81.5742H414.031C414.262 81.2812 414.543 81.0547 414.875 80.8945C415.207 80.7305 415.576 80.6484 415.982 80.6484C416.619 80.6484 417.127 80.8301 417.506 81.1934C417.889 81.5527 418.08 82.1582 418.08 83.0098V87H416.961V82.998C416.961 82.4941 416.846 82.1328 416.615 81.9141C416.389 81.6953 416.066 81.5859 415.648 81.5859C415.289 81.5859 414.973 81.6816 414.699 81.873C414.426 82.0645 414.211 82.3105 414.055 82.6113V87H412.941ZM418.895 81.6211V80.7656H422.504V81.6211H418.895ZM420.025 85.4531V81.2812V81.1055V79.3125H421.139V85.4531C421.139 85.7266 421.193 85.9219 421.303 86.0391C421.416 86.1562 421.594 86.2148 421.836 86.2148C421.945 86.2148 422.053 86.2031 422.158 86.1797C422.268 86.1562 422.379 86.125 422.492 86.0859V87C422.387 87.0469 422.25 87.0879 422.082 87.123C421.918 87.1582 421.736 87.1758 421.537 87.1758C421.076 87.1758 420.709 87.0371 420.436 86.7598C420.162 86.4824 420.025 86.0469 420.025 85.4531ZM423.295 83.9766V83.7891C423.295 82.8477 423.557 82.0801 424.08 81.4863C424.604 80.8887 425.297 80.5898 426.16 80.5898C427.023 80.5898 427.688 80.8691 428.152 81.4277C428.621 81.9824 428.855 82.7344 428.855 83.6836V84.1406H423.98V83.2559H427.73V83.168C427.73 82.6992 427.604 82.3047 427.35 81.9844C427.096 81.6641 426.709 81.5039 426.189 81.5039C425.607 81.5039 425.168 81.7246 424.871 82.166C424.578 82.6074 424.432 83.1484 424.432 83.7891V83.9766C424.432 84.6172 424.586 85.1582 424.895 85.5996C425.207 86.041 425.689 86.2617 426.342 86.2617C426.744 86.2617 427.09 86.1758 427.379 86.0039C427.668 85.832 427.902 85.6289 428.082 85.3945L428.803 85.9746C428.604 86.2676 428.293 86.541 427.871 86.7949C427.453 87.0488 426.943 87.1758 426.342 87.1758C425.357 87.1758 424.604 86.8789 424.08 86.2852C423.557 85.6875 423.295 84.918 423.295 83.9766ZM430.244 87V80.7656H431.357V87H430.244ZM430.115 78.9141C430.115 78.7305 430.174 78.5762 430.291 78.4512C430.412 78.3223 430.582 78.2578 430.801 78.2578C431.02 78.2578 431.188 78.3223 431.305 78.4512C431.426 78.5762 431.486 78.7305 431.486 78.9141C431.486 79.1016 431.426 79.2598 431.305 79.3887C431.188 79.5137 431.02 79.5762 430.801 79.5762C430.582 79.5762 430.412 79.5137 430.291 79.3887C430.174 79.2598 430.115 79.1016 430.115 78.9141ZM433.145 87V80.7656H434.152L434.199 81.5684H434.234C434.395 81.3066 434.605 81.0781 434.867 80.8828C435.133 80.6875 435.447 80.5898 435.811 80.5898C435.896 80.5898 435.986 80.5996 436.08 80.6191C436.178 80.6387 436.246 80.6562 436.285 80.6719V81.709C436.207 81.6934 436.123 81.6816 436.033 81.6738C435.947 81.666 435.852 81.6621 435.746 81.6621C435.383 81.6621 435.074 81.7559 434.82 81.9434C434.566 82.1309 434.379 82.3613 434.258 82.6348V87H433.145ZM436.842 83.9766V83.7891C436.842 82.8477 437.113 82.0801 437.656 81.4863C438.199 80.8887 438.924 80.5898 439.83 80.5898C440.736 80.5898 441.461 80.8887 442.004 81.4863C442.547 82.0801 442.818 82.8477 442.818 83.7891V83.9766C442.818 84.918 442.547 85.6875 442.004 86.2852C441.461 86.8789 440.736 87.1758 439.83 87.1758C438.924 87.1758 438.199 86.8789 437.656 86.2852C437.113 85.6875 436.842 84.918 436.842 83.9766ZM437.979 83.7891V83.9766C437.979 84.6133 438.133 85.1523 438.441 85.5938C438.754 86.0352 439.217 86.2559 439.83 86.2559C440.443 86.2559 440.904 86.0352 441.213 85.5938C441.521 85.1523 441.676 84.6133 441.676 83.9766V83.7891C441.676 83.1484 441.521 82.6074 441.213 82.166C440.904 81.7246 440.443 81.5039 439.83 81.5039C439.217 81.5039 438.754 81.7246 438.441 82.166C438.133 82.6074 437.979 83.1484 437.979 83.7891ZM447.113 87V80.7656H448.121L448.168 81.5742H448.203C448.43 81.2852 448.703 81.0586 449.023 80.8945C449.344 80.7305 449.701 80.6484 450.096 80.6484C450.521 80.6484 450.889 80.7324 451.197 80.9004C451.506 81.0645 451.74 81.332 451.9 81.7031H451.936C452.201 81.332 452.496 81.0645 452.82 80.9004C453.148 80.7324 453.521 80.6484 453.939 80.6484C454.596 80.6484 455.109 80.8301 455.48 81.1934C455.852 81.5527 456.037 82.1582 456.037 83.0098V87H454.924V82.998C454.924 82.4941 454.814 82.1328 454.596 81.9141C454.377 81.6953 454.066 81.5859 453.664 81.5859C453.316 81.5859 453.012 81.6816 452.75 81.873C452.492 82.0645 452.287 82.3105 452.135 82.6113V87H451.016V82.998C451.016 82.4941 450.906 82.1328 450.688 81.9141C450.469 81.6953 450.16 81.5859 449.762 81.5859C449.414 81.5859 449.109 81.6816 448.848 81.873C448.59 82.0645 448.383 82.3105 448.227 82.6113V87H447.113ZM457.35 83.9766V83.7891C457.35 82.8477 457.621 82.0801 458.164 81.4863C458.707 80.8887 459.432 80.5898 460.338 80.5898C461.244 80.5898 461.969 80.8887 462.512 81.4863C463.055 82.0801 463.326 82.8477 463.326 83.7891V83.9766C463.326 84.918 463.055 85.6875 462.512 86.2852C461.969 86.8789 461.244 87.1758 460.338 87.1758C459.432 87.1758 458.707 86.8789 458.164 86.2852C457.621 85.6875 457.35 84.918 457.35 83.9766ZM458.486 83.7891V83.9766C458.486 84.6133 458.641 85.1523 458.949 85.5938C459.262 86.0352 459.725 86.2559 460.338 86.2559C460.951 86.2559 461.412 86.0352 461.721 85.5938C462.029 85.1523 462.184 84.6133 462.184 83.9766V83.7891C462.184 83.1484 462.029 82.6074 461.721 82.166C461.412 81.7246 460.951 81.5039 460.338 81.5039C459.725 81.5039 459.262 81.7246 458.949 82.166C458.641 82.6074 458.486 83.1484 458.486 83.7891ZM463.73 80.7656H464.82L466.332 84.9082C466.391 85.0645 466.439 85.2109 466.479 85.3477C466.518 85.4844 466.547 85.6035 466.566 85.7051H466.602C466.621 85.6035 466.65 85.4844 466.689 85.3477C466.729 85.2109 466.775 85.0645 466.83 84.9082L468.336 80.7656H469.391L466.994 87H466.127L463.73 80.7656ZM469.807 83.9766V83.7891C469.807 82.8477 470.068 82.0801 470.592 81.4863C471.115 80.8887 471.809 80.5898 472.672 80.5898C473.535 80.5898 474.199 80.8691 474.664 81.4277C475.133 81.9824 475.367 82.7344 475.367 83.6836V84.1406H470.492V83.2559H474.242V83.168C474.242 82.6992 474.115 82.3047 473.861 81.9844C473.607 81.6641 473.221 81.5039 472.701 81.5039C472.119 81.5039 471.68 81.7246 471.383 82.166C471.09 82.6074 470.943 83.1484 470.943 83.7891V83.9766C470.943 84.6172 471.098 85.1582 471.406 85.5996C471.719 86.041 472.201 86.2617 472.854 86.2617C473.256 86.2617 473.602 86.1758 473.891 86.0039C474.18 85.832 474.414 85.6289 474.594 85.3945L475.314 85.9746C475.115 86.2676 474.805 86.541 474.383 86.7949C473.965 87.0488 473.455 87.1758 472.854 87.1758C471.869 87.1758 471.115 86.8789 470.592 86.2852C470.068 85.6875 469.807 84.918 469.807 83.9766ZM476.58 83.8242V82.793H479.943V83.8242H476.58ZM480.84 85.166H481.953V85.1953C481.953 85.5508 482.088 85.8203 482.357 86.0039C482.631 86.1836 482.988 86.2734 483.43 86.2734C483.875 86.2734 484.225 86.1875 484.479 86.0156C484.732 85.8398 484.859 85.6152 484.859 85.3418C484.859 85.0645 484.758 84.8516 484.555 84.7031C484.352 84.5547 483.906 84.4043 483.219 84.252C482.527 84.0996 481.986 83.8789 481.596 83.5898C481.209 83.2969 481.016 82.8926 481.016 82.377C481.016 81.8652 481.23 81.4395 481.66 81.0996C482.09 80.7598 482.668 80.5898 483.395 80.5898C484.121 80.5898 484.703 80.7617 485.141 81.1055C485.582 81.4453 485.803 81.9023 485.803 82.4766V82.5059H484.695V82.459C484.695 82.1582 484.59 81.9219 484.379 81.75C484.168 81.5781 483.84 81.4922 483.395 81.4922C482.949 81.4922 482.625 81.5723 482.422 81.7324C482.219 81.8887 482.117 82.084 482.117 82.3184C482.117 82.5566 482.229 82.7461 482.451 82.8867C482.678 83.0234 483.135 83.168 483.822 83.3203C484.514 83.4727 485.043 83.6992 485.41 84C485.781 84.3008 485.967 84.7266 485.967 85.2773C485.967 85.832 485.754 86.2871 485.328 86.6426C484.906 86.998 484.273 87.1758 483.43 87.1758C482.586 87.1758 481.943 86.9961 481.502 86.6367C481.061 86.2734 480.84 85.793 480.84 85.1953V85.166ZM486.939 83.9766V83.7891C486.939 82.8477 487.201 82.0801 487.725 81.4863C488.248 80.8887 488.941 80.5898 489.805 80.5898C490.668 80.5898 491.332 80.8691 491.797 81.4277C492.266 81.9824 492.5 82.7344 492.5 83.6836V84.1406H487.625V83.2559H491.375V83.168C491.375 82.6992 491.248 82.3047 490.994 81.9844C490.74 81.6641 490.354 81.5039 489.834 81.5039C489.252 81.5039 488.812 81.7246 488.516 82.166C488.223 82.6074 488.076 83.1484 488.076 83.7891V83.9766C488.076 84.6172 488.23 85.1582 488.539 85.5996C488.852 86.041 489.334 86.2617 489.986 86.2617C490.389 86.2617 490.734 86.1758 491.023 86.0039C491.312 85.832 491.547 85.6289 491.727 85.3945L492.447 85.9746C492.248 86.2676 491.938 86.541 491.516 86.7949C491.098 87.0488 490.588 87.1758 489.986 87.1758C489.002 87.1758 488.248 86.8789 487.725 86.2852C487.201 85.6875 486.939 84.918 486.939 83.9766ZM496.766 89.4375V80.7656H497.773L497.82 81.5742H497.855C498.016 81.3203 498.262 81.1035 498.594 80.9238C498.93 80.7402 499.32 80.6484 499.766 80.6484C500.566 80.6484 501.207 80.9453 501.688 81.5391C502.168 82.1289 502.408 82.8789 502.408 83.7891V83.9766C502.408 84.8828 502.168 85.6328 501.688 86.2266C501.207 86.8203 500.566 87.1172 499.766 87.1172C499.32 87.1172 498.941 87.0391 498.629 86.8828C498.316 86.7266 498.066 86.5195 497.879 86.2617V89.4375H496.766ZM497.879 85.1367C498.004 85.4102 498.207 85.6562 498.488 85.875C498.773 86.0898 499.117 86.1973 499.52 86.1973C500.125 86.1973 500.568 85.9844 500.85 85.5586C501.131 85.1289 501.271 84.6016 501.271 83.9766V83.7891C501.271 83.1602 501.131 82.6328 500.85 82.207C500.568 81.7773 500.125 81.5625 499.52 81.5625C499.117 81.5625 498.773 81.6719 498.488 81.8906C498.207 82.1055 498.004 82.3516 497.879 82.6289V85.1367ZM503.434 85.166C503.434 84.5332 503.688 84.041 504.195 83.6895C504.707 83.334 505.357 83.1562 506.146 83.1562H507.588V82.7109C507.588 82.3438 507.488 82.0469 507.289 81.8203C507.09 81.5898 506.748 81.4746 506.264 81.4746C505.779 81.4746 505.432 81.5723 505.221 81.7676C505.014 81.9629 504.91 82.1895 504.91 82.4473V82.4766H503.803V82.4473C503.803 81.9512 504.027 81.5176 504.477 81.1465C504.926 80.7754 505.531 80.5898 506.293 80.5898C507.059 80.5898 507.65 80.7676 508.068 81.123C508.49 81.4785 508.701 82.0078 508.701 82.7109V85.5938C508.701 85.8477 508.721 86.0879 508.76 86.3145C508.799 86.5371 508.855 86.7344 508.93 86.9062V87H507.852C507.793 86.9023 507.74 86.7734 507.693 86.6133C507.65 86.4531 507.623 86.2949 507.611 86.1387C507.463 86.3965 507.221 86.625 506.885 86.8242C506.553 87.0195 506.123 87.1172 505.596 87.1172C504.998 87.1172 504.488 86.9492 504.066 86.6133C503.645 86.2773 503.434 85.7949 503.434 85.166ZM504.547 85.1074C504.547 85.459 504.652 85.7344 504.863 85.9336C505.074 86.1289 505.4 86.2266 505.842 86.2266C506.287 86.2266 506.689 86.0781 507.049 85.7812C507.408 85.4844 507.588 85.1699 507.588 84.8379V83.9531H506.264C505.701 83.9531 505.273 84.0566 504.98 84.2637C504.691 84.4707 504.547 84.752 504.547 85.1074ZM510.418 87V80.7656H511.426L511.473 81.5684H511.508C511.668 81.3066 511.879 81.0781 512.141 80.8828C512.406 80.6875 512.721 80.5898 513.084 80.5898C513.17 80.5898 513.26 80.5996 513.354 80.6191C513.451 80.6387 513.52 80.6562 513.559 80.6719V81.709C513.48 81.6934 513.396 81.6816 513.307 81.6738C513.221 81.666 513.125 81.6621 513.02 81.6621C512.656 81.6621 512.348 81.7559 512.094 81.9434C511.84 82.1309 511.652 82.3613 511.531 82.6348V87H510.418ZM514.027 85.166C514.027 84.5332 514.281 84.041 514.789 83.6895C515.301 83.334 515.951 83.1562 516.74 83.1562H518.182V82.7109C518.182 82.3438 518.082 82.0469 517.883 81.8203C517.684 81.5898 517.342 81.4746 516.857 81.4746C516.373 81.4746 516.025 81.5723 515.814 81.7676C515.607 81.9629 515.504 82.1895 515.504 82.4473V82.4766H514.396V82.4473C514.396 81.9512 514.621 81.5176 515.07 81.1465C515.52 80.7754 516.125 80.5898 516.887 80.5898C517.652 80.5898 518.244 80.7676 518.662 81.123C519.084 81.4785 519.295 82.0078 519.295 82.7109V85.5938C519.295 85.8477 519.314 86.0879 519.354 86.3145C519.393 86.5371 519.449 86.7344 519.523 86.9062V87H518.445C518.387 86.9023 518.334 86.7734 518.287 86.6133C518.244 86.4531 518.217 86.2949 518.205 86.1387C518.057 86.3965 517.814 86.625 517.479 86.8242C517.146 87.0195 516.717 87.1172 516.189 87.1172C515.592 87.1172 515.082 86.9492 514.66 86.6133C514.238 86.2773 514.027 85.7949 514.027 85.166ZM515.141 85.1074C515.141 85.459 515.246 85.7344 515.457 85.9336C515.668 86.1289 515.994 86.2266 516.436 86.2266C516.881 86.2266 517.283 86.0781 517.643 85.7812C518.002 85.4844 518.182 85.1699 518.182 84.8379V83.9531H516.857C516.295 83.9531 515.867 84.0566 515.574 84.2637C515.285 84.4707 515.141 84.752 515.141 85.1074ZM523.572 83.9766V83.7891C523.572 82.8477 523.844 82.0801 524.387 81.4863C524.93 80.8887 525.654 80.5898 526.561 80.5898C527.467 80.5898 528.191 80.8887 528.734 81.4863C529.277 82.0801 529.549 82.8477 529.549 83.7891V83.9766C529.549 84.918 529.277 85.6875 528.734 86.2852C528.191 86.8789 527.467 87.1758 526.561 87.1758C525.654 87.1758 524.93 86.8789 524.387 86.2852C523.844 85.6875 523.572 84.918 523.572 83.9766ZM524.709 83.7891V83.9766C524.709 84.6133 524.863 85.1523 525.172 85.5938C525.484 86.0352 525.947 86.2559 526.561 86.2559C527.174 86.2559 527.635 86.0352 527.943 85.5938C528.252 85.1523 528.406 84.6133 528.406 83.9766V83.7891C528.406 83.1484 528.252 82.6074 527.943 82.166C527.635 81.7246 527.174 81.5039 526.561 81.5039C525.947 81.5039 525.484 81.7246 525.172 82.166C524.863 82.6074 524.709 83.1484 524.709 83.7891ZM533.844 89.4375V80.7656H534.852L534.898 81.5742H534.934C535.094 81.3203 535.34 81.1035 535.672 80.9238C536.008 80.7402 536.398 80.6484 536.844 80.6484C537.645 80.6484 538.285 80.9453 538.766 81.5391C539.246 82.1289 539.486 82.8789 539.486 83.7891V83.9766C539.486 84.8828 539.246 85.6328 538.766 86.2266C538.285 86.8203 537.645 87.1172 536.844 87.1172C536.398 87.1172 536.02 87.0391 535.707 86.8828C535.395 86.7266 535.145 86.5195 534.957 86.2617V89.4375H533.844ZM534.957 85.1367C535.082 85.4102 535.285 85.6562 535.566 85.875C535.852 86.0898 536.195 86.1973 536.598 86.1973C537.203 86.1973 537.646 85.9844 537.928 85.5586C538.209 85.1289 538.35 84.6016 538.35 83.9766V83.7891C538.35 83.1602 538.209 82.6328 537.928 82.207C537.646 81.7773 537.203 81.5625 536.598 81.5625C536.195 81.5625 535.852 81.6719 535.566 81.8906C535.285 82.1055 535.082 82.3516 534.957 82.6289V85.1367ZM540.852 87V80.7656H541.859L541.906 81.5684H541.941C542.102 81.3066 542.312 81.0781 542.574 80.8828C542.84 80.6875 543.154 80.5898 543.518 80.5898C543.604 80.5898 543.693 80.5996 543.787 80.6191C543.885 80.6387 543.953 80.6562 543.992 80.6719V81.709C543.914 81.6934 543.83 81.6816 543.74 81.6738C543.654 81.666 543.559 81.6621 543.453 81.6621C543.09 81.6621 542.781 81.7559 542.527 81.9434C542.273 82.1309 542.086 82.3613 541.965 82.6348V87H540.852ZM544.549 83.9766V83.7891C544.549 82.8477 544.82 82.0801 545.363 81.4863C545.906 80.8887 546.631 80.5898 547.537 80.5898C548.443 80.5898 549.168 80.8887 549.711 81.4863C550.254 82.0801 550.525 82.8477 550.525 83.7891V83.9766C550.525 84.918 550.254 85.6875 549.711 86.2852C549.168 86.8789 548.443 87.1758 547.537 87.1758C546.631 87.1758 545.906 86.8789 545.363 86.2852C544.82 85.6875 544.549 84.918 544.549 83.9766ZM545.686 83.7891V83.9766C545.686 84.6133 545.84 85.1523 546.148 85.5938C546.461 86.0352 546.924 86.2559 547.537 86.2559C548.15 86.2559 548.611 86.0352 548.92 85.5938C549.229 85.1523 549.383 84.6133 549.383 83.9766V83.7891C549.383 83.1484 549.229 82.6074 548.92 82.166C548.611 81.7246 548.15 81.5039 547.537 81.5039C546.924 81.5039 546.461 81.7246 546.148 82.166C545.84 82.6074 545.686 83.1484 545.686 83.7891ZM546.576 79.2305L548.018 77.4258L548.932 78.1055L547.162 79.7344L546.576 79.2305ZM551.059 87L553.449 83.5547H553.525L555.307 80.7656H556.566L554.293 84.1289H554.211L552.318 87H551.059ZM551.176 80.7656H552.465L554.24 83.5547H554.299L556.684 87H555.4L553.508 84.1289H553.455L551.176 80.7656ZM557.721 87V80.7656H558.834V87H557.721ZM557.592 78.9141C557.592 78.7305 557.65 78.5762 557.768 78.4512C557.889 78.3223 558.059 78.2578 558.277 78.2578C558.496 78.2578 558.664 78.3223 558.781 78.4512C558.902 78.5762 558.963 78.7305 558.963 78.9141C558.963 79.1016 558.902 79.2598 558.781 79.3887C558.664 79.5137 558.496 79.5762 558.277 79.5762C558.059 79.5762 557.889 79.5137 557.768 79.3887C557.65 79.2598 557.592 79.1016 557.592 78.9141ZM560.621 87V80.7656H561.629L561.676 81.5742H561.711C561.938 81.2852 562.211 81.0586 562.531 80.8945C562.852 80.7305 563.209 80.6484 563.604 80.6484C564.029 80.6484 564.396 80.7324 564.705 80.9004C565.014 81.0645 565.248 81.332 565.408 81.7031H565.443C565.709 81.332 566.004 81.0645 566.328 80.9004C566.656 80.7324 567.029 80.6484 567.447 80.6484C568.104 80.6484 568.617 80.8301 568.988 81.1934C569.359 81.5527 569.545 82.1582 569.545 83.0098V87H568.432V82.998C568.432 82.4941 568.322 82.1328 568.104 81.9141C567.885 81.6953 567.574 81.5859 567.172 81.5859C566.824 81.5859 566.52 81.6816 566.258 81.873C566 82.0645 565.795 82.3105 565.643 82.6113V87H564.523V82.998C564.523 82.4941 564.414 82.1328 564.195 81.9141C563.977 81.6953 563.668 81.5859 563.27 81.5859C562.922 81.5859 562.617 81.6816 562.355 81.873C562.098 82.0645 561.891 82.3105 561.734 82.6113V87H560.621ZM570.857 83.9766V83.7891C570.857 82.8477 571.129 82.0801 571.672 81.4863C572.215 80.8887 572.939 80.5898 573.846 80.5898C574.752 80.5898 575.477 80.8887 576.02 81.4863C576.562 82.0801 576.834 82.8477 576.834 83.7891V83.9766C576.834 84.918 576.562 85.6875 576.02 86.2852C575.477 86.8789 574.752 87.1758 573.846 87.1758C572.939 87.1758 572.215 86.8789 571.672 86.2852C571.129 85.6875 570.857 84.918 570.857 83.9766ZM571.994 83.7891V83.9766C571.994 84.6133 572.148 85.1523 572.457 85.5938C572.77 86.0352 573.232 86.2559 573.846 86.2559C574.459 86.2559 574.92 86.0352 575.229 85.5938C575.537 85.1523 575.691 84.6133 575.691 83.9766V83.7891C575.691 83.1484 575.537 82.6074 575.229 82.166C574.92 81.7246 574.459 81.5039 573.846 81.5039C573.232 81.5039 572.77 81.7246 572.457 82.166C572.148 82.6074 571.994 83.1484 571.994 83.7891ZM580.76 83.9766V83.7891C580.76 82.8477 581.02 82.0801 581.539 81.4863C582.059 80.8887 582.775 80.5898 583.689 80.5898C584.533 80.5898 585.174 80.8145 585.611 81.2637C586.049 81.709 586.268 82.207 586.268 82.7578V82.7871H585.189V82.7578C585.189 82.4297 585.07 82.1387 584.832 81.8848C584.594 81.6309 584.213 81.5039 583.689 81.5039C583.076 81.5039 582.623 81.7246 582.33 82.166C582.041 82.6074 581.896 83.1484 581.896 83.7891V83.9766C581.896 84.6172 582.041 85.1582 582.33 85.5996C582.623 86.041 583.076 86.2617 583.689 86.2617C584.213 86.2617 584.594 86.1348 584.832 85.8809C585.07 85.627 585.189 85.334 585.189 85.002V84.9727H586.268V85.002C586.268 85.5566 586.049 86.0586 585.611 86.5078C585.174 86.9531 584.533 87.1758 583.689 87.1758C582.775 87.1758 582.059 86.8789 581.539 86.2852C581.02 85.6875 580.76 84.918 580.76 83.9766ZM587.211 85.166C587.211 84.5332 587.465 84.041 587.973 83.6895C588.484 83.334 589.135 83.1562 589.924 83.1562H591.365V82.7109C591.365 82.3438 591.266 82.0469 591.066 81.8203C590.867 81.5898 590.525 81.4746 590.041 81.4746C589.557 81.4746 589.209 81.5723 588.998 81.7676C588.791 81.9629 588.688 82.1895 588.688 82.4473V82.4766H587.58V82.4473C587.58 81.9512 587.805 81.5176 588.254 81.1465C588.703 80.7754 589.309 80.5898 590.07 80.5898C590.836 80.5898 591.428 80.7676 591.846 81.123C592.268 81.4785 592.479 82.0078 592.479 82.7109V85.5938C592.479 85.8477 592.498 86.0879 592.537 86.3145C592.576 86.5371 592.633 86.7344 592.707 86.9062V87H591.629C591.57 86.9023 591.518 86.7734 591.471 86.6133C591.428 86.4531 591.4 86.2949 591.389 86.1387C591.24 86.3965 590.998 86.625 590.662 86.8242C590.33 87.0195 589.9 87.1172 589.373 87.1172C588.775 87.1172 588.266 86.9492 587.844 86.6133C587.422 86.2773 587.211 85.7949 587.211 85.166ZM588.324 85.1074C588.324 85.459 588.43 85.7344 588.641 85.9336C588.852 86.1289 589.178 86.2266 589.619 86.2266C590.064 86.2266 590.467 86.0781 590.826 85.7812C591.186 85.4844 591.365 85.1699 591.365 84.8379V83.9531H590.041C589.479 83.9531 589.051 84.0566 588.758 84.2637C588.469 84.4707 588.324 84.752 588.324 85.1074ZM594.195 87V80.7656H595.203L595.25 81.5684H595.285C595.445 81.3066 595.656 81.0781 595.918 80.8828C596.184 80.6875 596.498 80.5898 596.861 80.5898C596.947 80.5898 597.037 80.5996 597.131 80.6191C597.229 80.6387 597.297 80.6562 597.336 80.6719V81.709C597.258 81.6934 597.174 81.6816 597.084 81.6738C596.998 81.666 596.902 81.6621 596.797 81.6621C596.434 81.6621 596.125 81.7559 595.871 81.9434C595.617 82.1309 595.43 82.3613 595.309 82.6348V87H594.195ZM597.805 85.166C597.805 84.5332 598.059 84.041 598.566 83.6895C599.078 83.334 599.729 83.1562 600.518 83.1562H601.959V82.7109C601.959 82.3438 601.859 82.0469 601.66 81.8203C601.461 81.5898 601.119 81.4746 600.635 81.4746C600.15 81.4746 599.803 81.5723 599.592 81.7676C599.385 81.9629 599.281 82.1895 599.281 82.4473V82.4766H598.174V82.4473C598.174 81.9512 598.398 81.5176 598.848 81.1465C599.297 80.7754 599.902 80.5898 600.664 80.5898C601.43 80.5898 602.021 80.7676 602.439 81.123C602.861 81.4785 603.072 82.0078 603.072 82.7109V85.5938C603.072 85.8477 603.092 86.0879 603.131 86.3145C603.17 86.5371 603.227 86.7344 603.301 86.9062V87H602.223C602.164 86.9023 602.111 86.7734 602.064 86.6133C602.021 86.4531 601.994 86.2949 601.982 86.1387C601.834 86.3965 601.592 86.625 601.256 86.8242C600.924 87.0195 600.494 87.1172 599.967 87.1172C599.369 87.1172 598.859 86.9492 598.438 86.6133C598.016 86.2773 597.805 85.7949 597.805 85.166ZM598.918 85.1074C598.918 85.459 599.023 85.7344 599.234 85.9336C599.445 86.1289 599.771 86.2266 600.213 86.2266C600.658 86.2266 601.061 86.0781 601.42 85.7812C601.779 85.4844 601.959 85.1699 601.959 84.8379V83.9531H600.635C600.072 83.9531 599.645 84.0566 599.352 84.2637C599.062 84.4707 598.918 84.752 598.918 85.1074ZM604.42 83.9766V83.7891C604.42 82.8477 604.68 82.0801 605.199 81.4863C605.719 80.8887 606.436 80.5898 607.35 80.5898C608.193 80.5898 608.834 80.8145 609.271 81.2637C609.709 81.709 609.928 82.207 609.928 82.7578V82.7871H608.85V82.7578C608.85 82.4297 608.73 82.1387 608.492 81.8848C608.254 81.6309 607.873 81.5039 607.35 81.5039C606.736 81.5039 606.283 81.7246 605.99 82.166C605.701 82.6074 605.557 83.1484 605.557 83.7891V83.9766C605.557 84.6172 605.701 85.1582 605.99 85.5996C606.283 86.041 606.736 86.2617 607.35 86.2617C607.873 86.2617 608.254 86.1348 608.492 85.8809C608.73 85.627 608.85 85.334 608.85 85.002V84.9727H609.928V85.002C609.928 85.5566 609.709 86.0586 609.271 86.5078C608.834 86.9531 608.193 87.1758 607.35 87.1758C606.436 87.1758 605.719 86.8789 605.199 86.2852C604.68 85.6875 604.42 84.918 604.42 83.9766ZM610.344 81.6211V80.7656H613.953V81.6211H610.344ZM611.475 85.4531V81.2812V81.1055V79.3125H612.588V85.4531C612.588 85.7266 612.643 85.9219 612.752 86.0391C612.865 86.1562 613.043 86.2148 613.285 86.2148C613.395 86.2148 613.502 86.2031 613.607 86.1797C613.717 86.1562 613.828 86.125 613.941 86.0859V87C613.836 87.0469 613.699 87.0879 613.531 87.123C613.367 87.1582 613.186 87.1758 612.986 87.1758C612.525 87.1758 612.158 87.0371 611.885 86.7598C611.611 86.4824 611.475 86.0469 611.475 85.4531ZM614.744 83.9766V83.7891C614.744 82.8477 615.006 82.0801 615.529 81.4863C616.053 80.8887 616.746 80.5898 617.609 80.5898C618.473 80.5898 619.137 80.8691 619.602 81.4277C620.07 81.9824 620.305 82.7344 620.305 83.6836V84.1406H615.43V83.2559H619.18V83.168C619.18 82.6992 619.053 82.3047 618.799 81.9844C618.545 81.6641 618.158 81.5039 617.639 81.5039C617.057 81.5039 616.617 81.7246 616.32 82.166C616.027 82.6074 615.881 83.1484 615.881 83.7891V83.9766C615.881 84.6172 616.035 85.1582 616.344 85.5996C616.656 86.041 617.139 86.2617 617.791 86.2617C618.193 86.2617 618.539 86.1758 618.828 86.0039C619.117 85.832 619.352 85.6289 619.531 85.3945L620.252 85.9746C620.053 86.2676 619.742 86.541 619.32 86.7949C618.902 87.0488 618.393 87.1758 617.791 87.1758C616.807 87.1758 616.053 86.8789 615.529 86.2852C615.006 85.6875 614.744 84.918 614.744 83.9766ZM621.641 87V80.7656H622.648L622.695 81.5684H622.73C622.891 81.3066 623.102 81.0781 623.363 80.8828C623.629 80.6875 623.943 80.5898 624.307 80.5898C624.393 80.5898 624.482 80.5996 624.576 80.6191C624.674 80.6387 624.742 80.6562 624.781 80.6719V81.709C624.703 81.6934 624.619 81.6816 624.529 81.6738C624.443 81.666 624.348 81.6621 624.242 81.6621C623.879 81.6621 623.57 81.7559 623.316 81.9434C623.062 82.1309 622.875 82.3613 622.754 82.6348V87H621.641ZM625.338 83.9766V83.7891C625.338 82.8477 625.6 82.0801 626.123 81.4863C626.646 80.8887 627.34 80.5898 628.203 80.5898C629.066 80.5898 629.73 80.8691 630.195 81.4277C630.664 81.9824 630.898 82.7344 630.898 83.6836V84.1406H626.023V83.2559H629.773V83.168C629.773 82.6992 629.646 82.3047 629.393 81.9844C629.139 81.6641 628.752 81.5039 628.232 81.5039C627.65 81.5039 627.211 81.7246 626.914 82.166C626.621 82.6074 626.475 83.1484 626.475 83.7891V83.9766C626.475 84.6172 626.629 85.1582 626.938 85.5996C627.25 86.041 627.732 86.2617 628.385 86.2617C628.787 86.2617 629.133 86.1758 629.422 86.0039C629.711 85.832 629.945 85.6289 630.125 85.3945L630.846 85.9746C630.646 86.2676 630.336 86.541 629.914 86.7949C629.496 87.0488 628.986 87.1758 628.385 87.1758C627.4 87.1758 626.646 86.8789 626.123 86.2852C625.6 85.6875 625.338 84.918 625.338 83.9766Z" fill="#525252"/>
<path d="M199.635 110.418V109.469H206.373V110.418H203.578V118H202.43V110.418H199.635ZM206.643 118V111.766H207.65L207.697 112.568H207.732C207.893 112.307 208.104 112.078 208.365 111.883C208.631 111.688 208.945 111.59 209.309 111.59C209.395 111.59 209.484 111.6 209.578 111.619C209.676 111.639 209.744 111.656 209.783 111.672V112.709C209.705 112.693 209.621 112.682 209.531 112.674C209.445 112.666 209.35 112.662 209.244 112.662C208.881 112.662 208.572 112.756 208.318 112.943C208.064 113.131 207.877 113.361 207.756 113.635V118H206.643ZM210.879 118V111.766H211.992V118H210.879ZM210.75 109.914C210.75 109.73 210.809 109.576 210.926 109.451C211.047 109.322 211.217 109.258 211.436 109.258C211.654 109.258 211.822 109.322 211.939 109.451C212.061 109.576 212.121 109.73 212.121 109.914C212.121 110.102 212.061 110.26 211.939 110.389C211.822 110.514 211.654 110.576 211.436 110.576C211.217 110.576 211.047 110.514 210.926 110.389C210.809 110.26 210.75 110.102 210.75 109.914ZM213.779 120.438V111.766H214.787L214.834 112.574H214.869C215.029 112.32 215.275 112.104 215.607 111.924C215.943 111.74 216.334 111.648 216.779 111.648C217.58 111.648 218.221 111.945 218.701 112.539C219.182 113.129 219.422 113.879 219.422 114.789V114.977C219.422 115.883 219.182 116.633 218.701 117.227C218.221 117.82 217.58 118.117 216.779 118.117C216.334 118.117 215.955 118.039 215.643 117.883C215.33 117.727 215.08 117.52 214.893 117.262V120.438H213.779ZM214.893 116.137C215.018 116.41 215.221 116.656 215.502 116.875C215.787 117.09 216.131 117.197 216.533 117.197C217.139 117.197 217.582 116.984 217.863 116.559C218.145 116.129 218.285 115.602 218.285 114.977V114.789C218.285 114.16 218.145 113.633 217.863 113.207C217.582 112.777 217.139 112.562 216.533 112.562C216.131 112.562 215.787 112.672 215.502 112.891C215.221 113.105 215.018 113.352 214.893 113.629V116.137ZM220.834 118V109H221.947V118H220.834ZM223.389 116.166C223.389 115.533 223.643 115.041 224.15 114.689C224.662 114.334 225.312 114.156 226.102 114.156H227.543V113.711C227.543 113.344 227.443 113.047 227.244 112.82C227.045 112.59 226.703 112.475 226.219 112.475C225.734 112.475 225.387 112.572 225.176 112.768C224.969 112.963 224.865 113.189 224.865 113.447V113.477H223.758V113.447C223.758 112.951 223.982 112.518 224.432 112.146C224.881 111.775 225.486 111.59 226.248 111.59C227.014 111.59 227.605 111.768 228.023 112.123C228.445 112.479 228.656 113.008 228.656 113.711V116.594C228.656 116.848 228.676 117.088 228.715 117.314C228.754 117.537 228.811 117.734 228.885 117.906V118H227.807C227.748 117.902 227.695 117.773 227.648 117.613C227.605 117.453 227.578 117.295 227.566 117.139C227.418 117.396 227.176 117.625 226.84 117.824C226.508 118.02 226.078 118.117 225.551 118.117C224.953 118.117 224.443 117.949 224.021 117.613C223.6 117.277 223.389 116.795 223.389 116.166ZM224.502 116.107C224.502 116.459 224.607 116.734 224.818 116.934C225.029 117.129 225.355 117.227 225.797 117.227C226.242 117.227 226.645 117.078 227.004 116.781C227.363 116.484 227.543 116.17 227.543 115.838V114.953H226.219C225.656 114.953 225.229 115.057 224.936 115.264C224.646 115.471 224.502 115.752 224.502 116.107Z" fill="#262626"/>
<defs>
<clipPath id="clip0_46_669">
<rect x="175" y="16" width="192" height="50" fill="white"/>
</clipPath>
<clipPath id="clip1_46_669">
<rect x="371" y="16" width="128" height="50" fill="white"/>
</clipPath>
</defs>
</svg>
